DBRep_DrawableShape

CASCADE Topology V3, (c) Open Cascade
Locations 0
Curve2ds 52
7 0 0  3 4 2  -2.5 -7.5  -2.4999999999999991 -7.3999999999999844  -2.5 7.3999999999999915  -2.4999999999999996 7.5 
 0 4 1 4
7 0 0  3 4 2  0.125 -7.5  0.12499999999999289 -7.3999999999999844  0.12500000000000355 7.399999999999995  0.125 7.5000000000000036 
 0 4 1 4
7 0 0  1 2 2  -2.5 -7.5  2.5 -7.5 
 0 2 5 2
7 0 0  3 4 2  2.5 -7.5  2.4999999999999991 -7.3999999999999844  2.5000000000000009 7.3999999999999915  2.5000000000000004 7.5 
 0 4 1 4
7 0 0  3 4 2  -0.12500000000000355 -7.5  -0.12499999999999645 -7.3999999999999844  -0.12500000000000355 7.399999999999995  -0.125 7.5000000000000036 
 0 4 1 4
8 0 5
1 0 0 1 0 
7 0 0  1 2 2  -2.4999999999999996 7.5  2.5000000000000004 7.5 
 0 2 5 2
7 0 0  1 2 2  -0.12500000000000355 -7.5  0.12499999999999645 -7.5 
 0 2 0.25 2
7 0 0  3 4 2  0.12499999999999645 -7.5  0.12500000000000711 -7.3999999999999844  0.12499999999999289 7.399999999999995  0.125 7.5000000000000036 
 0 4 1 4
7 0 0  3 4 2  -2.5000000000000004 -7.5  -2.4999999999999996 -7.3999999999999844  -2.5000000000000004 7.3999999999999879  -2.5 7.4999999999999964 
 0 4 1 4
8 0 1
1 0 0 0 1 
7 0 0  10 19 3  9.181869849325663 -53.898562059325499  3.4085975471219001 -43.053946448276761  -1.3600447467354755 -33.183882448455563  -5.1781092723085749 -24.264784914219639  -8.0983937659376437 -16.27253952855564  -10.175934743847709 -9.1843926789380479  -11.464958355587356 -2.9768599990656437  -12.017891538136894 2.3740948863974083  -11.888743400805783 6.8901442428919566  -10.385004544100948 14.290375613555032  -6.6247460789476946 18.545338439204148  -4.2366857771451869 19.913310882669553  -1.4124856469564158 20.576943837224544  1.900264473685759 20.548785649211933  5.5255524798803233 19.800784225735004  9.4853526008749718 18.412742857564229  13.69092462061308 16.375284656753923  18.096697619590906 13.722889203074974  22.647236665431215 10.477897315632646 
 0 11 0.5 8 1 11
8 0 1
1 0 0 0 1 
7 0 0  11 21 3  -10.796963728514264 -32.966755586052088  -7.1195219347155394 -29.44259419087944  -3.6036877750881011 -25.749323754901013  -0.29785877587204723 -21.939349422017806  2.7496711927691386 -18.065729437748093  5.490462764977579 -14.180502500392421  7.8759797496281045 -10.335702843810502  9.857785726862339 -6.5840685371634535  11.387647135663897 -2.9782555286266899  12.417209880568633 0.43082299416159486  13.376440012749141 6.7573876309725378  11.921937993042253 11.889218923392384  10.539787143837643 14.099997101948468  8.4377633050679304 15.926267033004521  5.570012298694591 17.181827451901825  2.0027585493511282 18.002460390408501  -2.4813716651139188 18.208427622245551  -7.8063294020326737 17.808394047896769  -14.080940970055369 16.731129951277921  -21.337715413529541 14.927725631906156  -29.627721437346015 12.345269364443894 
 0 12 0.5 9 1 12
7 0 0  3 4 2  0.12500000000001421 -7.7025000000000148  0.12500000000001421 -6.7025000000000325  0.12499999999998579 7.1974999999999909  0.12500000000001421 7.2974999999999852 
 0 4 1 4
7 0 0  3 4 2  -2.5 -7.7025000000000148  -2.4999999999999991 -6.7025000000000325  -2.5000000000000004 7.1974999999999909  -2.5 7.2974999999999852 
 0 4 1 4
7 0 0  1 2 2  -0.12499999999998579 7.2974999999999852  0.12500000000001421 7.2974999999999852 
 0 2 0.25 2
7 0 0  3 4 2  2.5 -7.7025000000000148  2.4999999999999991 -6.7025000000000325  2.5000000000000004 7.1974999999999909  2.5 7.2974999999999852 
 0 4 1 4
7 0 0  3 4 2  -0.12499999999998579 -7.7025000000000148  -0.12500000000001421 -6.7025000000000325  -0.12499999999998579 7.1974999999999909  -0.12499999999998579 7.2974999999999852 
 0 4 1 4
1 5 0 0 1 
7 0 0  11 21 3  -10.969938696491148 -32.786257219152567  -7.300032547397187 -29.269317373537021  -3.791271407441112 -25.583489031162902  -0.49226552253122335 -21.781714639752757  2.5482712052682164 -17.916283545302651  5.2817703697334384 -14.040504641227727  7.659760389699521 -10.207691285096587  9.6336699129708414 -6.4704529995008215  11.15472472829665 -2.881481427727735  12.174271159025244 0.50478902619590116  13.115629736729021 6.7593559524951985  11.687430094888338 11.768133076168354  10.335399748288749 13.912180727314777  8.3134042540440802 15.619910656033291  5.5702900180421775 16.972176535369684  1.9428248434346607 17.727848742015127  -2.4486253197440782 17.961317910583233  -7.7771171863892583 17.558571549088555  -14.030832219982994 16.485491781945868  -21.274269148373602 14.685640718101638  -29.553367038833212 12.106582491277806 
 0 12 0.5 9 1 12
1 5 0 0 1 
7 0 0  10 19 3  8.9611927664815951 -54.016042377283171  3.1842298502679238 -43.164494252364555  -1.5883834219653217 -33.286387733625695  -5.4102146774263566 -24.357610622037726  -8.3360860470129445 -16.354579889938101  -10.418580881795119 -9.2523518051831353  -11.711092899441496 -3.0267133893994327  -12.268815030272467 2.3459963267503809  -12.145358032209867 6.8918024224963759  -10.632605455127422 14.38705834691849  -6.7842896295174633 18.761924976250395  -4.3276619389560054 20.190150144923901  -1.3743930970548028 20.851695031821773  1.9154868668510261 20.781708635292336  5.6103701904151286 20.055940392872589  9.5806627771152062 18.642284358506114  13.807484975759396 16.597814764772618  18.228787838584992 13.935749376600295  22.79238643071151 10.681444719544057 
 0 11 0.5 8 1 11
7 0 0  1 2 2  -2.5000000000000004 -7.5  2.4999999999999996 -7.5 
 0 2 5 2
7 0 0  3 4 2  2.4999999999999996 -7.5  2.4999999999999987 -7.3999999999999844  2.5000000000000004 7.3999999999999879  2.5 7.4999999999999964 
 0 4 1 4
7 0 0  3 4 2  -0.125 -7.5  -0.12500000000001066 -7.3999999999999844  -0.12499999999999289 7.399999999999995  -0.125 7.5000000000000036 
 0 4 1 4
8 0 5
1 0 0 1 0 
7 0 0  1 2 2  -2.5 7.4999999999999964  2.5 7.4999999999999964 
 0 2 5 2
7 0 0  1 2 2  -0.125 -7.5  0.125 -7.5 
 0 2 0.25 2
1 0 0 0 1 
7 0 0  10 19 3  -8.9611927664815987 -54.016042377283171  -3.1842298502679274 -43.164494252364562  1.5883834219653181 -33.286387733625702  5.4102146774263531 -24.357610622037729  8.336086047012941 -16.354579889938105  10.418580881795116 -9.2523518051831388  11.711092899441493 -3.0267133893994362  12.268815030272464 2.3459963267503774  12.145358032209863 6.8918024224963723  10.632605455127418 14.387058346918487  6.7842896295174597 18.761924976250391  4.3276619389560018 20.190150144923898  1.3743930970547993 20.85169503182177  -1.9154868668510296 20.781708635292333  -5.6103701904151322 20.055940392872586  -9.5806627771152097 18.64228435850611  -13.807484975759399 16.597814764772615  -18.228787838584999 13.935749376600292  -22.792386430711517 10.681444719544054 
 0 11 0.5 8 1 11
1 0 0 0 1 
7 0 0  11 21 3  10.969938696491138 -32.786257219152603  7.3000325473971763 -29.26931737353706  3.7912714074411014 -25.583489031162941  0.4922655225312127 -21.781714639752792  -2.5482712052682288 -17.91628354530269  -5.2817703697334508 -14.040504641227763  -7.6597603896995334 -10.207691285096622  -9.6336699129708556 -6.4704529995008571  -11.154724728296662 -2.8814814277277776  -12.17427115902526 0.50478902619586563  -13.115629736729037 6.759355952495163  -11.687430094888354 11.768133076168304  -10.335399748288765 13.912180727314741  -8.3134042540440962 15.619910656033255  -5.5702900180421917 16.972176535369655  -1.9428248434346749 17.727848742015084  2.4486253197440604 17.96131791058319  7.7771171863892476 17.558571549088526  14.03083221998298 16.485491781945839  21.274269148373584 14.685640718101595  29.553367038833194 12.106582491277777 
 0 12 0.5 9 1 12
7 0 0  3 4 2  -2.5 -7.7025000000000148  -2.4999999999999991 -6.7025000000000325  -2.5000000000000004 7.1974999999999909  -2.5 7.2974999999999852 
 0 4 1 4
7 0 0  3 4 2  0.12500000000001421 -7.7025000000000148  0.12500000000004263 -6.7025000000000325  0.12500000000001421 7.1974999999999909  0.12500000000001421 7.2974999999999852 
 0 4 1 4
7 0 0  1 2 2  -0.12499999999998579 7.2974999999999852  0.12500000000001421 7.2974999999999852 
 0 2 0.25 2
7 0 0  3 4 2  2.5 -7.7025000000000148  2.4999999999999991 -6.7025000000000325  2.5000000000000004 7.1974999999999909  2.5 7.2974999999999852 
 0 4 1 4
7 0 0  3 4 2  -0.12499999999998579 -7.7025000000000148  -0.12499999999998579 -6.7025000000000325  -0.12499999999995737 7.1974999999999909  -0.12499999999998579 7.2974999999999852 
 0 4 1 4
1 5 0 0 1 
7 0 0  11 21 3  10.796963728514253 -32.96675558605213  7.1195219347155287 -29.442594190879475  3.6036877750880905 -25.749323754901052  0.29785877587203657 -21.939349422017848  -2.7496711927691511 -18.065729437748132  -5.4904627649775932 -14.180502500392464  -7.875979749628117 -10.335702843810537  -9.8577857268623514 -6.5840685371634891  -11.38764713566391 -2.9782555286267325  -12.417209880568647 0.43082299416155934  -13.376440012749157 6.7573876309725023  -11.921937993042269 11.889218923392349  -10.539787143837659 14.099997101948432  -8.4377633050679464 15.926267033004478  -5.570012298694607 17.181827451901782  -2.0027585493511424 18.002460390408459  2.4813716651139011 18.208427622245509  7.8063294020326559 17.808394047896741  14.080940970055359 16.731129951277893  21.33771541352953 14.927725631906128  29.627721437346004 12.345269364443851 
 0 12 0.5 9 1 12
1 5 0 0 1 
7 0 0  10 19 3  -9.1818698493256665 -53.898562059325506  -3.4085975471219037 -43.053946448276761  1.3600447467354719 -33.18388244845557  5.1781092723085713 -24.264784914219646  8.0983937659376402 -16.272539528555647  10.175934743847705 -9.1843926789380514  11.464958355587353 -2.9768599990656472  12.01789153813689 2.3740948863974047  11.88874340080578 6.890144242891953  10.385004544100944 14.290375613555028  6.6247460789476911 18.545338439204144  4.2366857771451834 19.913310882669549  1.4124856469564122 20.57694383722454  -1.9002644736857626 20.548785649211929  -5.5255524798803268 19.800784225735001  -9.4853526008749753 18.412742857564226  -13.690924620613083 16.375284656753919  -18.096697619590906 13.722889203074971  -22.647236665431219 10.477897315632642 
 0 11 0.5 8 1 11
1 0 1 1 0 
8 0 5
1 0 0 1 0 
1 0 1 1 0 
8 0 5
1 0 0 1 0 
1 0 1 1 0 
7 0 0  1 2 2  -2.5 -7.702499999999997  2.5 -7.702499999999997 
 0 2 5 2
1 0 1 1 0 
7 0 0  1 2 2  -2.5 -7.702499999999997  2.5 -7.702499999999997 
 0 2 5 2
7 0 0  1 2 2  -2.5 7.2974999999999852  2.5 7.2974999999999852 
 0 2 5 2
7 0 0  1 2 2  -2.5 7.2974999999999852  2.5 7.2974999999999852 
 0 2 5 2
Curves 30
7 0 0  3 4 2  -2.5 -45 -20.125  -2.4999999999999991 -44.899999999999984 -20.124999999999993  -2.5000000000000004 -30.100000000000009 -20.125000000000004  -2.5 -30 -20.125 
 0 4 1 4
7 0 0  1 2 2  -2.5 -45 -20.125  2.5 -45 -20.125 
 0 2 5 2
7 0 0  3 4 2  2.5 -45 -20.125  2.4999999999999991 -44.899999999999984 -20.124999999999993  2.5000000000000004 -30.100000000000009 -20.125000000000004  2.5 -30 -20.125 
 0 4 1 4
7 0 0  1 2 2  -2.5 -30 -20.125  2.5 -30 -20.125 
 0 2 5 2
7 0 0  1 2 2  2.5 -45 -20.125  2.5 -45 -19.875 
 0 2 0.25 2
7 0 0  3 4 2  2.5 -45 -19.875  2.4999999999999991 -44.899999999999984 -19.874999999999989  2.5000000000000004 -30.100000000000009 -19.875000000000007  2.5 -30 -19.875 
 0 4 1 4
7 0 0  10 19 3  2.5 -30 -19.875  2.5000000000000666 -17.714383986677948 -19.875000000000334  2.499999999999734 -6.7611098111839905 -19.446167254295386  2.5000000000005604 2.9060416284323205 -18.625130963881002  2.499999999999182 11.333167020114896 -17.447164299982287  2.5000000000008806 18.566213996910516 -15.950156047464262  2.4999999999993134 24.651394425772708 -14.170936277031506  2.5000000000003539 29.634561948370468 -12.144487478677069  2.4999999999999076 33.560226883305383 -9.9082996846192035  2.500000000000083 39.385833892257672 -5.1034107300484717  2.4999999999999258 41.374699587797558 0.21529828789161778  2.5000000000002371 41.460019926506249 2.9660983625841464  2.4999999999995595 40.718662547385144 5.7708985890088984  2.5000000000005498 39.137075330280595 8.6818585887441042  2.4999999999995151 36.773208291272816 11.530428735199033  2.5000000000002984 33.687178302240554 14.373507127501323  2.4999999999998797 29.912409221263641 17.12835563850042  2.5000000000000271 25.500751205119876 19.770951125860009  2.5 20.497974734889802 22.26285913904912 
 0 11 0.5 8 1 11
7 0 0  11 21 3  2.5 20.497974734889841 22.262859139049112  2.5000000000000329 15.9387987996411 24.533807504259475  2.4999999999998455 11.483621343864039 27.014277255901543  2.5000000000004516 7.1942359962024893 29.668628990045509  2.4999999999991176 3.1325316638327156 32.460568926489067  2.5000000000012337 -0.63976706570011355 35.354819968159077  2.499999999998733 -4.0608444889729167 38.316138077934134  2.5000000000009348 -7.0687708259274631 41.308577559973429  2.499999999999543 -9.6018343997022733 44.296210789452644  2.5000000000001101 -11.598726781120073 47.244809886866143  2.499999999999917 -14.396180977597387 52.999789692985473  2.500000000000056 -14.53379573727541 58.331987243443422  2.4999999999998583 -13.871715006360589 60.853798146443104  2.5000000000002727 -12.40797782575741 63.222603656812304  2.4999999999995994 -10.043425501811324 65.274266423296609  2.5000000000004361 -6.8816696030981621 67.118727691233573  2.4999999999996465 -2.6617158026037786 68.649033609199634  2.5000000000002132 2.541251268485317 69.850838675647481  2.4999999999999081 8.8523182262715796 70.688503356630704  2.5000000000000244 16.317069604778098 71.125000000001094  2.5 25.000000000000018 71.125 
 0 12 0.5 9 1 12
7 0 0  3 4 2  2.5 25 71.125  2.4999999999999991 25.999999999999982 71.125  2.5000000000000004 39.900000000000006 71.124999999999972  2.5 40 71.125 
 0 4 1 4
7 0 0  1 2 2  2.5 40 70.875  2.5 40 71.125 
 0 2 0.25 2
7 0 0  3 4 2  2.5 25 70.875  2.4999999999999991 25.999999999999982 70.874999999999972  2.5000000000000004 39.900000000000006 70.875  2.5 40 70.875 
 0 4 1 4
7 0 0  11 21 3  2.5 20.609438761846025 22.486635301083211  2.5000000000000329 16.059605280379362 24.752930143278487  2.4999999999998455 11.6133941819736 27.228398215205008  2.5000000000004516 7.3329619924523 29.876950390028451  2.4999999999991176 3.2803699591498816 32.663151917314806  2.5000000000012337 -0.4821563510477484 35.550551363265242  2.499999999998733 -3.8924824870190604 38.502664234465549  2.5000000000009348 -6.8885880744065942 41.483707695840977  2.499999999999543 -9.4082346355388982 44.457880841640552  2.5000000000001101 -11.388780445144613 47.387683020556544  2.499999999999917 -14.147758433957684 53.079238507821735  2.500000000000056 -14.273886848147956 58.286127609264085  2.4999999999998583 -13.620716758661116 60.735269341118837  2.5000000000002727 -12.198130557041242 62.967097243791315  2.4999999999995994 -9.9813367824764718 65.074020137782597  2.5000000000004361 -6.7427737118847331 66.874368247089834  2.4999999999996465 -2.6194855178302547 68.403366892323177  2.5000000000002132 2.5876625853800066 69.60363304440564  2.4999999999999081 8.8775341361093272 70.439077706470826  2.5000000000000244 16.328494754821392 70.875000000000156  2.5 25.000000000000018 70.875 
 0 12 0.5 9 1 12
7 0 0  10 19 3  2.5 -29.999999999999996 -20.125  2.5000000000000666 -17.706530300898255 -20.125000000000064  2.499999999999734 -6.7442908797416248 -19.6958931192727  2.5000000000005604 2.9331748699471198 -18.873633113412385  2.499999999999182 11.372445968640719 -17.695529767753573  2.5000000000008806 18.620250491729973 -16.196277254044304  2.4999999999993134 24.723052280667115 -14.411628458121776  2.5000000000003539 29.727673402226905 -12.379183846609108  2.4999999999999076 33.682279246216886 -10.134036343844002  2.500000000000083 39.587529481513819 -5.2765368440416722  2.4999999999999258 41.64085523670834 0.17624648753650296  2.5000000000002371 41.747139883414633 3.0158856048083291  2.4999999999995595 40.94328721641466 5.933634630972545  2.5000000000005498 39.335525064306275 8.8047509878720707  2.4999999999995151 36.958579119398912 11.725201345513097  2.5000000000002984 33.84500821828135 14.565504648194048  2.4999999999998797 30.05406421125841 17.335816066477008  2.5000000000000271 25.626572650002778 19.98757578612452  2.5 20.609438761845972 22.486635301083222 
 0 11 0.5 8 1 11
7 0 0  1 2 2  2.5 -45 -19.875  -2.5 -45 -19.875 
 0 2 5 2
7 0 0  3 4 2  -2.5 -45 -19.875  -2.4999999999999991 -44.899999999999984 -19.874999999999989  -2.5000000000000004 -30.100000000000009 -19.875000000000007  -2.5 -30 -19.875 
 0 4 1 4
7 0 0  1 2 2  2.5 -30 -19.875  -2.5 -30 -19.875 
 0 2 5 2
7 0 0  1 2 2  -2.5 -45 -19.875  -2.5 -45 -20.125 
 0 2 0.25 2
7 0 0  10 19 3  -2.5 -29.999999999999996 -20.125  -2.5000000000000666 -17.706530300898255 -20.125000000000064  -2.499999999999734 -6.7442908797416248 -19.6958931192727  -2.5000000000005604 2.9331748699471198 -18.873633113412385  -2.499999999999182 11.372445968640719 -17.695529767753573  -2.5000000000008806 18.620250491729973 -16.196277254044304  -2.4999999999993134 24.723052280667115 -14.411628458121776  -2.5000000000003539 29.727673402226905 -12.379183846609108  -2.4999999999999076 33.682279246216886 -10.134036343844002  -2.500000000000083 39.587529481513819 -5.2765368440416722  -2.4999999999999258 41.64085523670834 0.17624648753650296  -2.5000000000002371 41.747139883414633 3.0158856048083291  -2.4999999999995595 40.94328721641466 5.933634630972545  -2.5000000000005498 39.335525064306275 8.8047509878720707  -2.4999999999995151 36.958579119398912 11.725201345513097  -2.5000000000002984 33.84500821828135 14.565504648194048  -2.4999999999998797 30.05406421125841 17.335816066477008  -2.5000000000000271 25.626572650002778 19.98757578612452  -2.5 20.609438761845972 22.486635301083222 
 0 11 0.5 8 1 11
7 0 0  11 21 3  -2.5 20.609438761846025 22.486635301083211  -2.5000000000000329 16.059605280379362 24.752930143278487  -2.4999999999998455 11.6133941819736 27.228398215205008  -2.5000000000004516 7.3329619924523 29.876950390028451  -2.4999999999991176 3.2803699591498816 32.663151917314806  -2.5000000000012337 -0.4821563510477484 35.550551363265242  -2.499999999998733 -3.8924824870190604 38.502664234465549  -2.5000000000009348 -6.8885880744065942 41.483707695840977  -2.499999999999543 -9.4082346355388982 44.457880841640552  -2.5000000000001101 -11.388780445144613 47.387683020556544  -2.499999999999917 -14.147758433957684 53.079238507821735  -2.500000000000056 -14.273886848147956 58.286127609264085  -2.4999999999998583 -13.620716758661116 60.735269341118837  -2.5000000000002727 -12.198130557041242 62.967097243791315  -2.4999999999995994 -9.9813367824764718 65.074020137782597  -2.5000000000004361 -6.7427737118847331 66.874368247089834  -2.4999999999996465 -2.6194855178302547 68.403366892323177  -2.5000000000002132 2.5876625853800066 69.60363304440564  -2.4999999999999081 8.8775341361093272 70.439077706470826  -2.5000000000000244 16.328494754821392 70.875000000000156  -2.5 25.000000000000018 70.875 
 0 12 0.5 9 1 12
7 0 0  3 4 2  -2.5 25 70.875  -2.4999999999999991 25.999999999999982 70.874999999999972  -2.5000000000000004 39.900000000000006 70.875  -2.5 40 70.875 
 0 4 1 4
7 0 0  1 2 2  -2.5 40 71.125  -2.5 40 70.875 
 0 2 0.25 2
7 0 0  3 4 2  -2.5 25 71.125  -2.4999999999999991 25.999999999999982 71.125  -2.5000000000000004 39.900000000000006 71.124999999999972  -2.5 40 71.125 
 0 4 1 4
7 0 0  11 21 3  -2.5 20.497974734889841 22.262859139049112  -2.5000000000000329 15.9387987996411 24.533807504259475  -2.4999999999998455 11.483621343864039 27.014277255901543  -2.5000000000004516 7.1942359962024893 29.668628990045509  -2.4999999999991176 3.1325316638327156 32.460568926489067  -2.5000000000012337 -0.63976706570011355 35.354819968159077  -2.499999999998733 -4.0608444889729167 38.316138077934134  -2.5000000000009348 -7.0687708259274631 41.308577559973429  -2.499999999999543 -9.6018343997022733 44.296210789452644  -2.5000000000001101 -11.598726781120073 47.244809886866143  -2.499999999999917 -14.396180977597387 52.999789692985473  -2.500000000000056 -14.53379573727541 58.331987243443422  -2.4999999999998583 -13.871715006360589 60.853798146443104  -2.5000000000002727 -12.40797782575741 63.222603656812304  -2.4999999999995994 -10.043425501811324 65.274266423296609  -2.5000000000004361 -6.8816696030981621 67.118727691233573  -2.4999999999996465 -2.6617158026037786 68.649033609199634  -2.5000000000002132 2.541251268485317 69.850838675647481  -2.4999999999999081 8.8523182262715796 70.688503356630704  -2.5000000000000244 16.317069604778098 71.125000000001094  -2.5 25.000000000000018 71.125 
 0 12 0.5 9 1 12
7 0 0  10 19 3  -2.5 -30 -19.875  -2.5000000000000666 -17.714383986677948 -19.875000000000334  -2.499999999999734 -6.7611098111839905 -19.446167254295386  -2.5000000000005604 2.9060416284323205 -18.625130963881002  -2.499999999999182 11.333167020114896 -17.447164299982287  -2.5000000000008806 18.566213996910516 -15.950156047464262  -2.4999999999993134 24.651394425772708 -14.170936277031506  -2.5000000000003539 29.634561948370468 -12.144487478677069  -2.4999999999999076 33.560226883305383 -9.9082996846192035  -2.500000000000083 39.385833892257672 -5.1034107300484717  -2.4999999999999258 41.374699587797558 0.21529828789161778  -2.5000000000002371 41.460019926506249 2.9660983625841464  -2.4999999999995595 40.718662547385144 5.7708985890088984  -2.5000000000005498 39.137075330280595 8.6818585887441042  -2.4999999999995151 36.773208291272816 11.530428735199033  -2.5000000000002984 33.687178302240554 14.373507127501323  -2.4999999999998797 29.912409221263641 17.12835563850042  -2.5000000000000271 25.500751205119876 19.770951125860009  -2.5 20.497974734889802 22.26285913904912 
 0 11 0.5 8 1 11
7 0 0  1 2 2  -2.5 20.609438761845972 22.486635301083222  2.5 20.609438761845972 22.486635301083222 
 0 2 5 2
7 0 0  1 2 2  2.5 20.497974734889802 22.26285913904912  -2.5 20.497974734889802 22.26285913904912 
 0 2 5 2
7 0 0  1 2 2  -2.5 25.000000000000018 70.875  2.5 25.000000000000018 70.875 
 0 2 5 2
7 0 0  1 2 2  2.5 25.000000000000018 71.125  -2.5 25.000000000000018 71.125 
 0 2 5 2
7 0 0  1 2 2  -2.5 40 70.875  2.5 40 70.875 
 0 2 5 2
7 0 0  1 2 2  2.5 40 71.125  -2.5 40 71.125 
 0 2 5 2
Polygon3D 0
PolygonOnTriangulations 0
Surfaces 20
1 0 -37.5 -20.125 1.7616762043638852e-17 5.0096489620194949e-17 1 1 5.380693486398731e-18 -1.7616762043638852e-17 -5.3806934863987317e-18 1 -5.0096489620194949e-17 
1 -2.5 -37.5 -20 1 8.0125637177667324e-18 -8.3251460749727265e-30 -8.3242661543393367e-30 -1.0981761448453628e-16 -1 -8.0125637177667324e-18 1 -1.0981761448453628e-16 
1 2.5 -37.5 -20 -1 8.0125637177667324e-18 -9.8420628968122756e-30 -9.8410634807842268e-30 1.2473111768613999e-16 1 8.0125637177667324e-18 1 -1.2473111768613999e-16 
9 0 0 0 0 1 10 2 19 2 3 -2.5 -29.999999999999996 -20.125  -2.5000000000000666 -17.706530300898255 -20.125000000000064  -2.499999999999734 -6.7442908797416248 -19.6958931192727  -2.5000000000005604 2.9331748699471198 -18.873633113412385  -2.499999999999182 11.372445968640719 -17.695529767753573  -2.5000000000008806 18.620250491729973 -16.196277254044304  -2.4999999999993134 24.723052280667115 -14.411628458121776  -2.5000000000003539 29.727673402226905 -12.379183846609108  -2.4999999999999076 33.682279246216886 -10.134036343844002  -2.500000000000083 39.587529481513819 -5.2765368440416722  -2.4999999999999258 41.64085523670834 0.17624648753650296  -2.5000000000002371 41.747139883414633 3.0158856048083291  -2.4999999999995595 40.94328721641466 5.933634630972545  -2.5000000000005498 39.335525064306275 8.8047509878720707  -2.4999999999995151 36.958579119398912 11.725201345513097  -2.5000000000002984 33.84500821828135 14.565504648194048  -2.4999999999998797 30.05406421125841 17.335816066477008  -2.5000000000000271 25.626572650002778 19.98757578612452  -2.5 20.609438761845972 22.486635301083222  
2.5 -29.999999999999996 -20.125  2.5000000000000666 -17.706530300898255 -20.125000000000064  2.499999999999734 -6.7442908797416248 -19.6958931192727  2.5000000000005604 2.9331748699471198 -18.873633113412385  2.499999999999182 11.372445968640719 -17.695529767753573  2.5000000000008806 18.620250491729973 -16.196277254044304  2.4999999999993134 24.723052280667115 -14.411628458121776  2.5000000000003539 29.727673402226905 -12.379183846609108  2.4999999999999076 33.682279246216886 -10.134036343844002  2.500000000000083 39.587529481513819 -5.2765368440416722  2.4999999999999258 41.64085523670834 0.17624648753650296  2.5000000000002371 41.747139883414633 3.0158856048083291  2.4999999999995595 40.94328721641466 5.933634630972545  2.5000000000005498 39.335525064306275 8.8047509878720707  2.4999999999995151 36.958579119398912 11.725201345513097  2.5000000000002984 33.84500821828135 14.565504648194048  2.4999999999998797 30.05406421125841 17.335816066477008  2.5000000000000271 25.626572650002778 19.98757578612452  2.5 20.609438761845972 22.486635301083222  

0 2
5 2

0 11
0.5 8
1 11

1 2.5 -37.5 -20 -1 8.0125637177667324e-18 -9.8420628968122756e-30 -9.8410634807842268e-30 1.2473111768613999e-16 1 8.0125637177667324e-18 1 -1.2473111768613999e-16 
1 0 -37.5 -19.875 7.0467048174555407e-17 -2.1743731394940891e-16 -1 -1 5.380693486398714e-18 -7.0467048174555407e-17 5.3806934863987294e-18 1 -2.1743731394940891e-16 
9 0 0 0 0 1 10 2 19 2 3 2.5 -30 -19.875  2.5000000000000666 -17.714383986677948 -19.875000000000334  2.499999999999734 -6.7611098111839905 -19.446167254295386  2.5000000000005604 2.9060416284323205 -18.625130963881002  2.499999999999182 11.333167020114896 -17.447164299982287  2.5000000000008806 18.566213996910516 -15.950156047464262  2.4999999999993134 24.651394425772708 -14.170936277031506  2.5000000000003539 29.634561948370468 -12.144487478677069  2.4999999999999076 33.560226883305383 -9.9082996846192035  2.500000000000083 39.385833892257672 -5.1034107300484717  2.4999999999999258 41.374699587797558 0.21529828789161778  2.5000000000002371 41.460019926506249 2.9660983625841464  2.4999999999995595 40.718662547385144 5.7708985890088984  2.5000000000005498 39.137075330280595 8.6818585887441042  2.4999999999995151 36.773208291272816 11.530428735199033  2.5000000000002984 33.687178302240554 14.373507127501323  2.4999999999998797 29.912409221263641 17.12835563850042  2.5000000000000271 25.500751205119876 19.770951125860009  2.5 20.497974734889802 22.26285913904912  
-2.5 -30 -19.875  -2.5000000000000666 -17.714383986677948 -19.875000000000334  -2.499999999999734 -6.7611098111839905 -19.446167254295386  -2.5000000000005604 2.9060416284323205 -18.625130963881002  -2.499999999999182 11.333167020114896 -17.447164299982287  -2.5000000000008806 18.566213996910516 -15.950156047464262  -2.4999999999993134 24.651394425772708 -14.170936277031506  -2.5000000000003539 29.634561948370468 -12.144487478677069  -2.4999999999999076 33.560226883305383 -9.9082996846192035  -2.500000000000083 39.385833892257672 -5.1034107300484717  -2.4999999999999258 41.374699587797558 0.21529828789161778  -2.5000000000002371 41.460019926506249 2.9660983625841464  -2.4999999999995595 40.718662547385144 5.7708985890088984  -2.5000000000005498 39.137075330280595 8.6818585887441042  -2.4999999999995151 36.773208291272816 11.530428735199033  -2.5000000000002984 33.687178302240554 14.373507127501323  -2.4999999999998797 29.912409221263641 17.12835563850042  -2.5000000000000271 25.500751205119876 19.770951125860009  -2.5 20.497974734889802 22.26285913904912  

0 2
5 2

0 11
0.5 8
1 11

1 2.4999999999999996 21.891465736345449 -2.6518321808499903 -1 -2.2064377692756596e-17 5.0304690636419333e-17 5.4772889959604711e-17 -0.46992127183066384 0.88270833137625437 4.1628341868856346e-18 0.88270833137625437 0.46992127183066384 
9 0 0 0 0 1 11 2 21 2 3 2.5 20.497974734889841 22.262859139049112  2.5000000000000329 15.9387987996411 24.533807504259475  2.4999999999998455 11.483621343864039 27.014277255901543  2.5000000000004516 7.1942359962024893 29.668628990045509  2.4999999999991176 3.1325316638327156 32.460568926489067  2.5000000000012337 -0.63976706570011355 35.354819968159077  2.499999999998733 -4.0608444889729167 38.316138077934134  2.5000000000009348 -7.0687708259274631 41.308577559973429  2.499999999999543 -9.6018343997022733 44.296210789452644  2.5000000000001101 -11.598726781120073 47.244809886866143  2.499999999999917 -14.396180977597387 52.999789692985473  2.500000000000056 -14.53379573727541 58.331987243443422  2.4999999999998583 -13.871715006360589 60.853798146443104  2.5000000000002727 -12.40797782575741 63.222603656812304  2.4999999999995994 -10.043425501811324 65.274266423296609  2.5000000000004361 -6.8816696030981621 67.118727691233573  2.4999999999996465 -2.6617158026037786 68.649033609199634  2.5000000000002132 2.541251268485317 69.850838675647481  2.4999999999999081 8.8523182262715796 70.688503356630704  2.5000000000000244 16.317069604778098 71.125000000001094  2.5 25.000000000000018 71.125  
-2.5 20.497974734889841 22.262859139049112  -2.5000000000000329 15.9387987996411 24.533807504259475  -2.4999999999998455 11.483621343864039 27.014277255901543  -2.5000000000004516 7.1942359962024893 29.668628990045509  -2.4999999999991176 3.1325316638327156 32.460568926489067  -2.5000000000012337 -0.63976706570011355 35.354819968159077  -2.499999999998733 -4.0608444889729167 38.316138077934134  -2.5000000000009348 -7.0687708259274631 41.308577559973429  -2.499999999999543 -9.6018343997022733 44.296210789452644  -2.5000000000001101 -11.598726781120073 47.244809886866143  -2.499999999999917 -14.396180977597387 52.999789692985473  -2.500000000000056 -14.53379573727541 58.331987243443422  -2.4999999999998583 -13.871715006360589 60.853798146443104  -2.5000000000002727 -12.40797782575741 63.222603656812304  -2.4999999999995994 -10.043425501811324 65.274266423296609  -2.5000000000004361 -6.8816696030981621 67.118727691233573  -2.4999999999996465 -2.6617158026037786 68.649033609199634  -2.5000000000002132 2.541251268485317 69.850838675647481  -2.4999999999999081 8.8523182262715796 70.688503356630704  -2.5000000000000244 16.317069604778098 71.125000000001094  -2.5 25.000000000000018 71.125  

0 2
5 2

0 12
0.5 9
1 12

1 2.5000000000000004 0.38470755662474454 50.526579400916155 -1 -4.9716487588714152e-17 -1.4816575204171081e-17 5.1873402018704569e-17 -0.95474749266430436 -0.29741759405123314 6.4047009725891194e-19 -0.29741759405123314 0.95474749266430436 
1 2.5 32.702500000000015 70.999999999999986 -1 8.0157506185066068e-18 -8.8529205931533244e-29 -8.852850324866238e-29 8.7662766009910971e-17 1 8.0157506185066068e-18 1 -8.7662766009910971e-17 
1 0 32.702500000000015 71.125 1.0128983279961908e-32 -2.8748141272701512e-16 -1 -1 3.3174906112427196e-18 -1.1082700167590574e-32 3.3174906112427196e-18 1 -2.8748141272701512e-16 
1 0 32.702500000000015 70.875 0 -0 1 1 3.3174906112427196e-18 0 -3.3174906112427196e-18 1 0 
9 0 0 0 0 1 11 2 21 2 3 -2.5 20.609438761846025 22.486635301083211  -2.5000000000000329 16.059605280379362 24.752930143278487  -2.4999999999998455 11.6133941819736 27.228398215205008  -2.5000000000004516 7.3329619924523 29.876950390028451  -2.4999999999991176 3.2803699591498816 32.663151917314806  -2.5000000000012337 -0.4821563510477484 35.550551363265242  -2.499999999998733 -3.8924824870190604 38.502664234465549  -2.5000000000009348 -6.8885880744065942 41.483707695840977  -2.499999999999543 -9.4082346355388982 44.457880841640552  -2.5000000000001101 -11.388780445144613 47.387683020556544  -2.499999999999917 -14.147758433957684 53.079238507821735  -2.500000000000056 -14.273886848147956 58.286127609264085  -2.4999999999998583 -13.620716758661116 60.735269341118837  -2.5000000000002727 -12.198130557041242 62.967097243791315  -2.4999999999995994 -9.9813367824764718 65.074020137782597  -2.5000000000004361 -6.7427737118847331 66.874368247089834  -2.4999999999996465 -2.6194855178302547 68.403366892323177  -2.5000000000002132 2.5876625853800066 69.60363304440564  -2.4999999999999081 8.8775341361093272 70.439077706470826  -2.5000000000000244 16.328494754821392 70.875000000000156  -2.5 25.000000000000018 70.875  
2.5 20.609438761846025 22.486635301083211  2.5000000000000329 16.059605280379362 24.752930143278487  2.4999999999998455 11.6133941819736 27.228398215205008  2.5000000000004516 7.3329619924523 29.876950390028451  2.4999999999991176 3.2803699591498816 32.663151917314806  2.5000000000012337 -0.4821563510477484 35.550551363265242  2.499999999998733 -3.8924824870190604 38.502664234465549  2.5000000000009348 -6.8885880744065942 41.483707695840977  2.499999999999543 -9.4082346355388982 44.457880841640552  2.5000000000001101 -11.388780445144613 47.387683020556544  2.499999999999917 -14.147758433957684 53.079238507821735  2.500000000000056 -14.273886848147956 58.286127609264085  2.4999999999998583 -13.620716758661116 60.735269341118837  2.5000000000002727 -12.198130557041242 62.967097243791315  2.4999999999995994 -9.9813367824764718 65.074020137782597  2.5000000000004361 -6.7427737118847331 66.874368247089834  2.4999999999996465 -2.6194855178302547 68.403366892323177  2.5000000000002132 2.5876625853800066 69.60363304440564  2.4999999999999081 8.8775341361093272 70.439077706470826  2.5000000000000244 16.328494754821392 70.875000000000156  2.5 25.000000000000018 70.875  

0 2
5 2

0 12
0.5 9
1 12

1 -2.5 -37.5 -20 1 8.0125637177667324e-18 -8.3251460749727265e-30 -8.3242661543393367e-30 -1.0981761448453628e-16 -1 -8.0125637177667324e-18 1 -1.0981761448453628e-16 
1 -2.4999999999999996 21.891465736345456 -2.6518321808499912 1 -2.2064377692756602e-17 5.0304690636419352e-17 5.4772889959604724e-17 0.46992127183066384 -0.88270833137625437 -4.1628341868856377e-18 0.88270833137625437 0.46992127183066384 
1 -2.5000000000000004 0.38470755662474437 50.526579400916198 1 -4.9716487588714177e-17 -1.4816575204171134e-17 5.1873402018704606e-17 0.95474749266430448 0.29741759405123308 -6.4047009725886572e-19 -0.29741759405123308 0.95474749266430448 
1 -2.5 32.702500000000015 71.000000000000014 1 8.0157506185066068e-18 9.5086129889786861e-29 9.5086838143476878e-29 -8.8357750100800356e-17 -1 -8.0157506185066068e-18 1 -8.8357750100800356e-17 
1 0 -45 -20 -0 -1 -0 0 0 -1 1 -0 0 
1 0 40 71 -0 -1 -0 0 0 -1 1 -0 0 
Triangulations 0

TShapes 76
Ve
1.01e-07
-2.5 -45 -20.125
0 0

0101101
*
Ve
1.01e-07
-2.5 -30 -20.125
0 0

0101101
*
Ed
 1e-07 1 1 0
1  1 0 0 1
2  1 1 0 0 1
2  2 2 0 0 1
0

0101000
+76 0 -75 0 *
Ve
1.01e-07
2.5 -45 -20.125
0 0

0101101
*
Ed
 1e-07 1 1 0
1  2 0 0 5
2  3 1 0 0 5
0

0101000
+76 0 -73 0 *
Ve
1.01e-07
2.5 -30 -20.125
0 0

0101101
*
Ed
 1e-07 1 1 0
1  3 0 0 1
2  4 1 0 0 1
2  5 3 0 0 1
0

0101000
+73 0 -71 0 *
Ed
 1e-07 1 1 0
1  4 0 0 5
2  6 4 0 0 5
2  7 1 0 0 5
4 G1 4 0 1 0
0

0101000
+75 0 -71 0 *
Wi

0101100
-74 0 +72 0 +70 0 -69 0 *
Fa
0  1e-07 1 0

0101000
+68 0 *
Ve
1.01e-07
2.5 -45 -19.875
0 0

0101101
*
Ed
 1e-07 1 1 0
1  5 0 0 0.25
2  8 3 0 0 0.25
0

0101000
+73 0 -66 0 *
Ve
1.01e-07
2.5 -30 -19.875
0 0

0101101
*
Ed
 1e-07 1 1 0
1  6 0 0 1
2  9 3 0 0 1
2  10 6 0 0 1
0

0101000
+66 0 -64 0 *
Ve
8.55252957989191e-05
2.5 20.4979747348898 22.2628591390491
0 0

0101101
*
Ed
 1e-07 1 1 0
1  7 0 0 1
2  11 7 0 0 1
2  12 8 0 0 1
0

0101000
+64 0 -62 0 *
Ve
8.38883301221864e-05
2.5 25 71.125
0 0

0101101
*
Ed
 1e-07 1 1 0
1  8 0 0 1
2  13 9 0 0 1
2  14 10 0 0 1
0

0101000
+62 0 -60 0 *
Ve
1.01e-07
2.5 40 71.125
0 0

0101101
*
Ed
 1e-07 1 1 0
1  9 0 0 1
2  15 11 0 0 1
2  16 12 0 0 1
0

0101000
+60 0 -58 0 *
Ve
1.01e-07
2.5 40 70.875
0 0

0101101
*
Ed
 1e-07 1 1 0
1  10 0 0 0.25
2  17 11 0 0 0.25
0

0101000
+56 0 -58 0 *
Ve
8.38883301221864e-05
2.5 25 70.875
0 0

0101101
*
Ed
 1e-07 1 1 0
1  11 0 0 1
2  18 13 0 0 1
2  19 11 0 0 1
0

0101000
+54 0 -56 0 *
Ve
8.55252957989191e-05
2.5 20.609438761846 22.4866353010832
0 0

0101101
*
Ed
 1e-07 1 1 0
1  12 0 0 1
2  20 14 0 0 1
2  21 10 0 0 1
0

0101000
+52 0 -54 0 *
Ed
 1e-07 1 1 0
1  13 0 0 1
2  22 4 0 0 1
2  23 8 0 0 1
0

0101000
+71 0 -52 0 *
Wi

0101100
-70 0 +65 0 +63 0 +61 0 +59 0 +57 0 -55 0 -53 0 -51 0 -50 0 
*
Fa
0  0 5 0

0101000
+49 0 *
Ve
1.01e-07
-2.5 -45 -19.875
0 0

0101101
*
Ed
 1e-07 1 1 0
1  14 0 0 5
2  24 6 0 0 5
0

0101000
+66 0 -47 0 *
Ve
1.01e-07
-2.5 -30 -19.875
0 0

0101101
*
Ed
 1e-07 1 1 0
1  15 0 0 1
2  25 6 0 0 1
2  26 2 0 0 1
0

0101000
+47 0 -45 0 *
Ed
 1e-07 1 1 0
1  16 0 0 5
2  27 7 0 0 5
2  28 6 0 0 5
4 G1 7 0 6 0
0

0101000
+64 0 -45 0 *
Wi

0101100
-63 0 +46 0 +44 0 -43 0 *
Fa
0  1e-07 6 0

0101000
+42 0 *
Ed
 1e-07 1 1 0
1  17 0 0 0.25
2  29 2 0 0 0.25
0

0101000
+47 0 -76 0 *
Ve
8.55252957989191e-05
-2.5 20.609438761846 22.4866353010832
0 0

0101101
*
Ed
 1e-07 1 1 0
1  18 0 0 1
2  30 4 0 0 1
2  31 16 0 0 1
0

0101000
+75 0 -39 0 *
Ve
8.38883301221864e-05
-2.5 25 70.875
0 0

0101101
*
Ed
 1e-07 1 1 0
1  19 0 0 1
2  32 14 0 0 1
2  33 17 0 0 1
0

0101000
+39 0 -37 0 *
Ve
1.01e-07
-2.5 40 70.875
0 0

0101101
*
Ed
 1e-07 1 1 0
1  20 0 0 1
2  34 13 0 0 1
2  35 18 0 0 1
0

0101000
+37 0 -35 0 *
Ve
1.01e-07
-2.5 40 71.125
0 0

0101101
*
Ed
 1e-07 1 1 0
1  21 0 0 0.25
2  36 18 0 0 0.25
0

0101000
+33 0 -35 0 *
Ve
8.38883301203441e-05
-2.5 25 71.125
0 0

0101101
*
Ed
 1e-07 1 1 0
1  22 0 0 1
2  37 12 0 0 1
2  38 18 0 0 1
0

0101000
+31 0 -33 0 *
Ve
8.55252957943935e-05
-2.5 20.4979747348898 22.2628591390491
0 0

0101101
*
Ed
 1e-07 1 1 0
1  23 0 0 1
2  39 9 0 0 1
2  40 17 0 0 1
0

0101000
+29 0 -31 0 *
Ed
 1e-07 1 1 0
1  24 0 0 1
2  41 7 0 0 1
2  42 16 0 0 1
0

0101000
+45 0 -29 0 *
Wi

0101100
-44 0 +40 0 +74 0 +38 0 +36 0 +34 0 -32 0 -30 0 -28 0 -27 0 
*
Fa
0  0 15 0

0101000
+26 0 *
Ed
 1e-07 1 1 0
1  25 0 0 5
2  43 4 0 0 5
2  44 14 0 0 5
4 G1 14 0 4 0
0

0101000
+39 0 -52 0 *
Wi

0101100
-38 0 +69 0 +50 0 -24 0 *
Fa
0  1e-07 4 0

0101000
+23 0 *
Ed
 1e-07 1 1 0
1  26 0 0 5
2  45 7 0 0 5
2  46 9 0 0 5
4 G1 9 0 7 0
0

0101000
+62 0 -29 0 *
Wi

0101100
-61 0 +43 0 +27 0 -21 0 *
Fa
0  1e-07 7 0

0101000
+20 0 *
Ed
 1e-07 1 1 0
1  27 0 0 5
2  47 14 0 0 5
2  48 13 0 0 5
4 G1 13 0 14 0
0

0101000
+37 0 -54 0 *
Wi

0101100
-36 0 +24 0 +51 0 -18 0 *
Fa
0  1e-07 14 0

0101000
+17 0 *
Ed
 1e-07 1 1 0
1  28 0 0 5
2  49 9 0 0 5
2  50 12 0 0 5
4 G1 12 0 9 0
0

0101000
+60 0 -31 0 *
Wi

0101100
-59 0 +21 0 +28 0 -15 0 *
Fa
0  1e-07 9 0

0101000
+14 0 *
Ed
 1e-07 1 1 0
1  29 0 0 5
2  51 13 0 0 5
0

0101000
+35 0 -56 0 *
Wi

0101100
-34 0 +18 0 +53 0 -12 0 *
Fa
0  1e-07 13 0

0101000
+11 0 *
Ed
 1e-07 1 1 0
1  30 0 0 5
2  52 12 0 0 5
0

0101000
+58 0 -33 0 *
Wi

0101100
-57 0 +15 0 +30 0 -9 0 *
Fa
0  1e-07 12 0

0101000
+8 0 *
Wi

0101100
+72 0 +65 0 +46 0 +40 0 *
Fa
0  1e-07 19 0

0101000
+6 0 *
Wi

0101100
+12 0 +55 0 +9 0 +32 0 *
Fa
0  1e-07 20 0

0101000
+4 0 *
Sh

0101100
+67 0 +48 0 +41 0 +25 0 +22 0 +19 0 +16 0 +13 0 +10 0 +7 0 
-5 0 +3 0 *
So

1100000
-2 0 *

+1 0 