DBRep_DrawableShape

CASCADE Topology V3, (c) Open Cascade
Locations 0
Curve2ds 28
1 0 0 0 1 
7 0 0  10 27 4  -12.279187230812568 -63.543114475116077  -7.6958055034512416 -59.138433180713925  -3.2668541232207584 -53.440359455048089  1.0176193047339614 -46.691243499527516  5.044488612910655 -39.091631407944668  8.7143707100805052 -30.899108190467132  11.923269355266585 -22.352146351977474  14.555099259580157 -13.679827043419134  16.498916944544888 -5.1331999947705285  18.218727640736361 7.1631859774467657  17.822086616247514 18.200659990916677  17.435868782143611 21.714182471387872  16.781682084639403 25.032743365181425  15.814498643981583 28.147950774338206  14.544154579191503 30.9933292694149  12.885777776621737 33.613319203117229  10.789449294330741 35.857388886240685  5.8148190581680979 39.447517650276197  -0.58894983549432567 41.077675194735519  -4.1135957837072681 41.360929850051505  -7.9213349704462246 41.117741119884926  -12.052914580425821 40.363641720678814  -16.541589719336571 39.075108759455006  -21.402866611147875 37.216601893614964  -26.664611886922579 34.769712078465702  -32.344874191100878 31.699766098718342  -38.462429477162722 27.976721256213231 
 0 11 0.5 8 0.75 8 1 11
1 0 0 1 0 
1 10 0 0 1 
7 0 0  10 27 4  12.279187230812552 -63.543114475116099  7.6958055034512256 -59.138433180713946  3.2668541232207424 -53.44035945504811  -1.0176193047339765 -46.691243499527545  -5.0444886129106701 -39.091631407944689  -8.7143707100805194 -30.899108190467153  -11.9232693552666 -22.352146351977492  -14.555099259580171 -13.679827043419152  -16.498916944544899 -5.1331999947705462  -18.218727640736375 7.1631859774467443  -17.822086616247525 18.20065999091667  -17.435868782143626 21.714182471387865  -16.781682084639414 25.03274336518141  -15.814498643981594 28.147950774338192  -14.54415457919151 30.993329269414879  -12.885777776621747 33.613319203117207  -10.789449294330748 35.857388886240663  -5.814819058168105 39.447517650276176  0.58894983549431146 41.077675194735512  4.113595783707261 41.360929850051484  7.9213349704462175 41.117741119884904  12.052914580425814 40.363641720678793  16.541589719336564 39.075108759454984  21.402866611147868 37.216601893614943  26.664611886922579 34.76971207846568  32.344874191100878 31.699766098718321  38.462429477162715 27.97672125621321 
 0 11 0.5 8 0.75 8 1 11
1 0 1 1 0 
8 0 10
1 0 0 1 0 
7 0 0  1 2 2  12.279187230812552 -63.543114475116099  15.743743055007904 -59.937999644624021 
 0 2 5 2
8 0 1
1 0 0 0 1 
7 0 0  10 27 4  15.743743055007904 -59.937999644624021  11.690976080958176 -56.043245084993423  7.4951497013042889 -50.736123434541895  3.3922358392207403 -44.272057491271013  -0.50487214447575157 -36.948274160799016  -4.0695378126982416 -29.004961432363391  -7.1797378780965975 -20.701419800503022  -9.725538101252738 -12.3063411136689  -11.59186243231272 -4.0664486413067564  -13.197003300522749 7.6489674573170632  -12.824659761237314 17.751340449996427  -12.471415174356348 20.90310589501663  -11.874752776779395 23.806283558561312  -11.051448007211153 26.40704371367142  -9.963412305604642 28.709640164845204  -8.6672653445501666 30.607410934477564  -7.1846736249649652 32.188666086821804  -3.6961656987717646 34.739872008164788  1.0868088512719751 35.983532678245489  3.8646883862947092 36.258086387565946  7.0968808851983916 36.117761114802086  10.770891604337177 35.484802518603352  14.881717879022666 34.320511866986017  19.44210592636108 32.598207877669587  24.452441556304723 30.274077970376119  29.922928565465792 27.320573735499195  35.863043441399391 23.705516246256586 
 0 11 0.5 8 0.75 8 1 11
8 0 1
1 0 0 0 1 
7 0 0  10 35 5  -29.43896851323467 -1.4659163048708734  -25.89236533452425 -7.6281144882236269  -22.551007240035446 -13.101792684394592  -19.41035225295829 -17.912631337262582  -16.455822348432747 -22.086566842580588  -13.69800213213216 -25.650053448415793  -11.106965452072444 -28.633967980641675  -8.6681413167716528 -31.063498123732366  -6.3918041091320248 -32.970111764171378  -3.0705123657902078 -35.129648140556284  0.24811828068182251 -36.084878888695989  1.3624507823909795 -36.261789947579828  2.4803085784688648 -36.276287509115278  3.619576792987985 -36.130052949263387  4.7073214120355829 -35.726306229793906  5.6633297119847015 -35.183705302467295  6.5187718118710478 -34.514490462018998  8.0305503249290098 -32.976205201397178  9.1977798460128497 -31.084994248480125  9.7078265975739697 -30.063433772814811  10.156644294416765 -28.968343313377503  10.553052547260663 -27.799197981875736  10.902121500011347 -26.555707990095303  11.20663833012604 -25.238530475455626  11.468908060994877 -23.848751470574271  12.581999628242741 -16.541900815196897  12.735526790372617 -7.4874450229546348  12.339294174359395 0.77189335777182322  11.431389502249374 9.8600416110617104  10.063010572894825 19.597993430412622  8.2687694359707109 29.800078998122423  6.0723835476006229 40.274218232001822  3.5171716292372111 50.833634425601694  0.63246863428859967 61.287871202990665  -2.5488400556730966 71.448606650626061 
 0 11 0.25 8 0.375 8 0.5 8 1 11
7 0 0  1 2 2  -7.3204265121666765 69.954631186233428  -2.5488400556730966 71.448606650626061 
 0 2 5 2
1 10 0 0 1 
7 0 0  10 35 5  -25.105452115037011 1.0282039060556301  -21.611119825272596 -5.0431739738479138  -18.332283342682928 -10.413113067059225  -15.264894646993625 -15.104056149021602  -12.414941766179567 -19.138190043313546  -9.7632500973411851 -22.537183721191187  -7.331155795682605 -25.318283576103518  -5.124639855449189 -27.504425142911924  -3.1248378968669215 -29.112263754448165  -0.57283725920288475 -30.644761398140815  1.189777416080446 -31.120375376727633  1.6822618757848886 -31.175184707684092  2.0853633115552555 -31.153195086008338  2.3822703489939272 -31.058740538140704  2.646990751565184 -30.994616504750802  2.9608109926116839 -30.848180436466812  3.2936347026525965 -30.613207440991147  3.997409846647713 -29.924846153945772  4.7280730554739421 -28.776930417234308  5.0886311867130729 -28.081822915011585  5.4331506401385639 -27.269156165897311  5.7538855546645067 -26.345470460612653  6.0468395360056206 -25.317070989768833  6.3102991563383881 -24.189316018380978  6.5430331418973395 -22.967134916234176  7.5454652348256843 -16.409123943575274  7.7368308637755234 -7.7237977036696819  7.3444939325616616 0.30365284535075432  6.4680652535932097 9.212271071209031  5.1250670040425348 18.79607752583879  3.3496071105737286 28.855756272272153  1.1866880930458166 39.198401638159574  -1.3382887936917029 49.625804575283659  -4.1859385269721514 59.943435705001626  -7.3204265121666765 69.954631186233428 
 0 11 0.25 8 0.375 8 0.5 8 1 11
1 0 0 1 0 
1 10 0 0 1 
7 0 0  10 27 4  -15.743743055007926 -59.937999644624  -11.690976080958114 -56.043245084993316  -7.4951497013045607 -50.736123434542122  -3.3922358392203193 -44.27205749127058  0.50487214447528239 -36.948274160799429  4.0695378126984858 -29.004961432363118  7.1797378780965921 -20.701419800503011  9.7255381012525817 -12.306341113668996  11.5918624323128 -4.0664486413066641  13.197003300522679 7.6489674573170419  12.824659761237335 17.751340449996448  12.471415174356409 20.903105895016829  11.874752776778898 23.806283558560608  11.051448007212116 26.407043713672785  9.9634123056035655 28.709640164843648  8.6672653445508949 30.607410934478793  7.1846736249647414 32.188666086821243  3.6961656987719067 34.739872008165619  -1.0868088512720746 35.983532678244444  -3.8646883862948087 36.258086387569961  -7.0968808851977059 36.117761114795044  -10.770891604338527 35.484802518611389  -14.881717879021142 34.320511866979714  -19.442105926362245 32.598207877673048  -24.452441556304169 30.27407797037489  -29.922928565465927 27.32057373549948  -35.863043441399405 23.705516246256607 
 0 11 0.5 8 0.75 8 1 11
1 0 1 1 0 
8 0 10
1 0 0 1 0 
7 0 0  1 2 2  -15.743743055007926 -59.937999644624  -12.279187230812568 -63.543114475116077 
 0 2 5 2
1 0 0 0 1 
7 0 0  10 35 5  25.105452115036911 1.0282039060556727  21.61111982527251 -5.0431739738478747  18.332283342682857 -10.413113067059186  15.26489464699354 -15.104056149021563  12.414941766179481 -19.138190043313507  9.7632500973410998 -22.537183721191155  7.3311557956825339 -25.318283576103482  5.1246398554491321 -27.504425142911888  3.1248378968668362 -29.112263754448133  0.5728372592028137 -30.644761398140783  -1.189777416080517 -31.120375376727601  -1.6822618757849739 -31.175184707684064  -2.0853633115553407 -31.15319508600831  -2.3822703489939983 -31.058740538140672  -2.6469907515652551 -30.994616504750766  -2.960810992611755 -30.84818043646678  -3.2936347026526676 -30.613207440991115  -3.9974098466477983 -29.924846153945737  -4.7280730554740131 -28.776930417234276  -5.0886311867131582 -28.081822915011553  -5.4331506401386349 -27.269156165897282  -5.753885554664592 -26.345470460612624  -6.0468395360056917 -25.317070989768805  -6.3102991563384592 -24.189316018380946  -6.5430331418974106 -22.967134916234148  -7.5454652348257554 -16.409123943575242  -7.7368308637756087 -7.7237977036696499  -7.3444939325617327 0.30365284535078985  -6.468065253593295 9.2122710712090594  -5.1250670040426201 18.796077525838818  -3.3496071105738139 28.855756272272181  -1.186688093045916 39.198401638159609  1.3382887936916035 49.625804575283681  4.1859385269720519 59.943435705001662  7.3204265121665628 69.954631186233456 
 0 11 0.25 8 0.375 8 0.5 8 1 11
7 0 0  1 2 2  2.5488400556729829 71.44860665062609  7.3204265121665628 69.954631186233456 
 0 2 5 2
1 10 0 0 1 
7 0 0  10 35 5  29.438968513234585 -1.4659163048708379  25.892365334524193 -7.6281144882234955  22.551007240035247 -13.101792684394919  19.410352252958489 -17.912631337261633  16.455822348432164 -22.086566842582137  13.698002132132686 -25.650053448413811  11.106965452071861 -28.633967980643284  8.6681413167718659 -31.063498123731403  6.3918041091318827 -32.970111764171605  3.0705123657901794 -35.129648140556156  -0.24811828068189357 -36.084878888695904  -1.3624507823912495 -36.261789947580411  -2.4803085784684384 -36.276287509113658  -3.619576792988795 -36.130052949265725  -4.7073214120349434 -35.726306229791639  -5.6633297119851846 -35.18370530246861  -6.518771811870991 -34.514490462018557  -8.0305503249292087 -32.976205201397519  -9.1977798460128071 -31.084994248479759  -9.7078265975743676 -30.063433772815795  -10.156644294416239 -28.96834331337562  -10.553052547261416 -27.799197981877938  -10.902121500010864 -26.555707990093499  -11.206638330126395 -25.238530475456439  -11.468908060994892 -23.84875147057409  -12.581999628242912 -16.541900815197209  -12.735526790372518 -7.4874450229540201  -12.339294174359935 0.77189335777038082  -11.431389502248678 9.8600416110642755  -10.063010572895891 19.597993430409531  -8.2687694359699435 29.80007899812523  -6.0723835476012908 40.274218232000038  -3.5171716292370547 50.833634425602554  -0.63246863428875599 61.287871202990516  2.5488400556729829 71.44860665062609 
 0 11 0.25 8 0.375 8 0.5 8 1 11
1 0 1 1 0 
1 0 1 1 0 
Curves 18
7 0 0  10 27 4  -5 -30.000000000000007 -12.499999999999993  -5.0000000000001323 -23.643223665727589 -12.500000000000021  -4.9999999999994849 -16.501589102258091 -11.460427841164133  -5.0000000000010756 -8.7358475646905891 -9.5629197100587309  -4.9999999999984359 -0.5665262453145623 -6.8736875615717237  -5.0000000000016831 7.7562338352118445 -3.5095924502479749  -4.9999999999986739 15.992208737616094 0.42948162758337832  -5.0000000000007097 23.898965415440337 4.8587986937364329  -4.9999999999997886 31.222555911932417 9.6742201021662844  -5.0000000000001164 40.982882048548127 17.348520755344591  -4.9999999999999618 48.344883736149335 25.581630001072377  -5.0000000000000737 50.500970762475205 28.382575050705732  -4.9999999999998641 52.328755023966487 31.228626936116832  -5.0000000000002167 53.789955545416262 34.144935226758086  -4.9999999999997575 54.845602827287443 37.076754054631024  -5.0000000000001723 55.465295343018127 40.114934769787787  -4.9999999999999369 55.508735300913216 43.185529959394579  -5.0000000000000666 54.409552956602482 49.221072081097837  -4.9999999999999298 50.921842877687766 54.833696072479476  -5.0000000000002931 48.576762514821588 57.480195713838143  -4.9999999999993534 45.662786925974444 59.943276049578422  -5.0000000000009361 42.161299247806873 62.262370704206134  -4.9999999999990647 38.032022510202097 64.443561965675812  -5.0000000000006528 33.239150069371988 66.471968866463811  -4.9999999999996891 27.749833611730647 68.353627162352453  -5.0000000000000862 21.527034192135215 70.076042776052788  -5 14.536396995939544 71.630564300024901 
 0 11 0.5 8 0.75 8 1 11
7 0 0  1 2 2  -5 -30.000000000000007 -12.499999999999993  5 -30.000000000000007 -12.499999999999993 
 0 2 10 2
7 0 0  10 27 4  5 -30.000000000000007 -12.499999999999993  5.0000000000001323 -23.643223665727589 -12.500000000000021  4.9999999999994849 -16.501589102258091 -11.460427841164133  5.0000000000010756 -8.7358475646905891 -9.5629197100587309  4.9999999999984359 -0.5665262453145623 -6.8736875615717237  5.0000000000016831 7.7562338352118445 -3.5095924502479749  4.9999999999986739 15.992208737616094 0.42948162758337832  5.0000000000007097 23.898965415440337 4.8587986937364329  4.9999999999997886 31.222555911932417 9.6742201021662844  5.0000000000001164 40.982882048548127 17.348520755344591  4.9999999999999618 48.344883736149335 25.581630001072377  5.0000000000000737 50.500970762475205 28.382575050705732  4.9999999999998641 52.328755023966487 31.228626936116832  5.0000000000002167 53.789955545416262 34.144935226758086  4.9999999999997575 54.845602827287443 37.076754054631024  5.0000000000001723 55.465295343018127 40.114934769787787  4.9999999999999369 55.508735300913216 43.185529959394579  5.0000000000000666 54.409552956602482 49.221072081097837  4.9999999999999298 50.921842877687766 54.833696072479476  5.0000000000002931 48.576762514821588 57.480195713838143  4.9999999999993534 45.662786925974444 59.943276049578422  5.0000000000009361 42.161299247806873 62.262370704206134  4.9999999999990647 38.032022510202097 64.443561965675812  5.0000000000006528 33.239150069371988 66.471968866463811  4.9999999999996891 27.749833611730647 68.353627162352453  5.0000000000000862 21.527034192135215 70.076042776052788  5 14.536396995939544 71.630564300024901 
 0 11 0.5 8 0.75 8 1 11
7 0 0  1 2 2  -5 14.536396995939544 71.630564300024901  5 14.536396995939544 71.630564300024901 
 0 2 10 2
7 0 0  1 2 2  5 -30.000000000000007 -12.499999999999993  5 -29.999999999999986 -7.5000000000000036 
 0 2 5 2
7 0 0  10 27 4  5 -29.999999999999986 -7.5000000000000036  5.0000000000001323 -24.379143016789012 -7.4999999999999609  4.9999999999994849 -17.676491990539954 -6.5807783503347874  5.0000000000010756 -10.239173405705747 -4.7629931742725757  4.9999999999984359 -2.3545378095487304 -2.1827268267603253  5.0000000000016831 5.7196780790436197 1.0745874369137089  4.9999999999986739 13.715820459778751 4.906539303241594  5.0000000000007097 21.368444639582727 9.1955704405776153  4.9999999999997886 28.423620835638417 13.843525185129883  5.0000000000001164 37.698706880912887 21.178389220914525  4.9999999999999618 44.430285675805997 28.720433156255286  5.0000000000000737 46.359481681823368 31.237695544039035  4.9999999999998641 47.940918606744582 33.744387351039407  5.0000000000002167 49.149392708331916 36.190072219086566  4.9999999999997575 49.960388768675763 38.604209227426239  5.0000000000001723 50.340823596900329 40.870660237308314  4.9999999999999369 50.367510267250694 43.038085872808509  5.0000000000000666 49.619975001751158 47.294790024031947  4.9999999999999298 47.033086868475564 51.505674396059945  5.0000000000002931 45.220413257205514 53.628457670302737  4.9999999999993534 42.792695286437763 55.766902195315431  5.0000000000009361 39.705065102059983 57.856287557896444  4.9999999999990647 35.934314956747535 59.865244681310052  5.0000000000006528 31.452766776851604 61.783367744409453  4.9999999999996891 26.229784158501015 63.579334202633653  5.0000000000000862 20.238921329407152 65.240351344573298  5 13.451048386764874 66.749783789024377 
 0 11 0.5 8 0.75 8 1 11
7 0 0  10 35 5  5 13.451048386764827 66.74978378902432  5.0000000000001323 6.5106484817957204 68.293133949311894  4.9999999999994849 0.28864133000182263 69.846341570291415  5.0000000000010756 -5.2408374806414306 71.4060679483554  4.9999999999984359 -10.106895343367126 72.978475476922796  5.0000000000016831 -14.331615376298837 74.545558684269693  4.9999999999986739 -17.953405655629609 76.126650770641874  5.0000000000007097 -21.000656964934088 77.728131128640101  4.9999999999997886 -23.500329717210541 79.330792286938774  5.0000000000001164 -26.553598297311726 81.855099554901045  4.9999999999999618 -28.456782069683786 84.736707904152311  5.0000000000000719 -28.95856843554434 85.747274522519078  4.9999999999998703 -29.306414133203365 86.809733746283769  5.0000000000002061 -29.507267716122037 87.940651271719375  4.9999999999997691 -29.44697799490363 89.099342308736908  5.000000000000159 -29.214815136457066 90.173804054479973  4.9999999999999476 -28.831773744311281 91.190125352513832  5.0000000000000471 -27.815473522370848 93.092473815460067  4.9999999999999583 -26.359420661671386 94.771465682674418  5.0000000000001696 -25.536927302141738 95.563449374267392  4.9999999999996216 -24.625968066578128 96.318971518543279  5.0000000000005214 -23.62867730141113 97.046605656560288  4.9999999999995479 -22.546293390856324 97.751276901613366  5.0000000000002292 -21.380276247463009 98.435448755907558  4.9999999999999556 -20.13235102061499 99.100996441904087  5.0000000000001021 -13.491883393469154 102.34649009155051  4.999999999999817 -4.8969328303005497 105.19843067646261  5.0000000000003979 3.1034889624169999 107.28814881820898  4.9999999999994413 12.047743447245702 109.13721379219906  5.0000000000005631 21.74970415957555 110.74099833717675  4.9999999999995737 32.021841271303778 112.07705610020912  5.0000000000002434 42.673762779177771 113.11062847378265  4.9999999999999103 53.514281021221478 113.82724729946557  5.0000000000000178 64.352875044517347 114.19799999999896  4.9999999999999991 74.999999999999943 114.19800000000001 
 0 11 0.25 8 0.375 8 0.5 8 1 11
7 0 0  1 2 2  4.9999999999999991 74.999999999999943 109.19799999999999  4.9999999999999991 74.999999999999943 114.19800000000001 
 0 2 5 2
7 0 0  10 35 5  5 14.536396995939501 71.630564300024872  5.0000000000001323 7.6982867620704365 73.151168108164072  4.9999999999994849 1.5939607808490723 74.675707008732346  5.0000000000010756 -3.7992080049887247 76.20133830630003  4.9999999999984359 -8.5006036714480011 77.715718208218107  5.0000000000016831 -12.536634569737419 79.230670787308341  4.9999999999986739 -15.917384092862003 80.720681443997208  5.0000000000007097 -18.662952926594116 82.173189386788067  4.9999999999997886 -20.794872127154115 83.601220687768517  5.0000000000001164 -23.019886394961429 85.578736247913383  4.9999999999999618 -24.000433654320535 87.118718787526959  5.0000000000000719 -24.199891086455423 87.572328463985073  4.9999999999998703 -24.299350741201607 87.963585525339042  5.0000000000002061 -24.297925498757493 88.27515160047794  4.9999999999997691 -24.31582798217881 88.546938804523734  5.000000000000159 -24.269849458216253 88.890177265537616  4.9999999999999476 -24.145056756999416 89.27800546499094  5.0000000000000471 -23.698426237627 90.15530922878844  4.9999999999999583 -22.821268982473502 91.195585352254525  5.0000000000001696 -22.265648874102606 91.747366922101591  4.9999999999996216 -21.593047665444068 92.318968630475197  5.0000000000005214 -20.807392443740639 92.901044261431622  4.9999999999995479 -19.913506258415882 93.48789602678724  5.0000000000002292 -18.915990630599435 94.076287749449847  4.9999999999999556 -17.819181844553302 94.663571532071956  5.0000000000001021 -11.860280367129151 97.57971130938023  4.999999999999817 -3.6289024666926357 100.35746769858021  5.0000000000003979 4.1490607470846452 102.38161661348006  4.9999999999994413 12.912581750133839 104.20707698076504  5.0000000000005631 22.459855252957428 105.78902486877583  4.9999999999995737 32.590479329360058 107.10045543779985  5.0000000000002434 43.106914228527927 108.12667610240412  4.9999999999999103 53.812415858153287 108.83270382834071  5.0000000000000178 64.509573417026076 109.19799999999945  4.9999999999999991 74.999999999999943 109.19799999999999 
 0 11 0.25 8 0.375 8 0.5 8 1 11
7 0 0  1 2 2  5 -29.999999999999989 -7.5000000000000036  -5 -29.999999999999989 -7.5000000000000036 
 0 2 10 2
7 0 0  10 27 4  -5 -29.999999999999989 -7.5000000000000036  -5.0000000000001323 -24.379143016788902 -7.4999999999999583  -4.9999999999994849 -17.67649199054031 -6.5807783503347901  -5.0000000000010756 -10.239173405705145 -4.7629931742725784  -4.9999999999984359 -2.3545378095493583 -2.1827268267603221  -5.0000000000016831 5.7196780790439821 1.0745874369137125  -4.9999999999986739 13.715820459778751 4.9065393032415816  -5.0000000000007097 21.368444639582545 9.1955704405776313  -4.9999999999997886 28.423620835638534 13.843525185129872  -5.0000000000001164 37.698706880912816 21.178389220914536  -4.9999999999999618 44.430285675806026 28.720433156255272  -5.0000000000000737 46.359481681823553 31.237695544039116  -4.9999999999998641 47.940918606743729 33.744387351039229  -5.0000000000002167 49.149392708333551 36.190072219086865  -4.9999999999997575 49.960388768673909 38.604209227425841  -5.0000000000001723 50.3408235969017 40.870660237308684  -4.9999999999999369 50.367510267250147 43.038085872808253  -5.0000000000000666 49.61997500175184 47.29479002403243  -4.9999999999999298 47.033086868474754 51.505674396059234  -5.0000000000002931 45.220413257208214 53.628457670305671  -4.9999999999993534 42.792695286433378 55.766902195309868  -5.0000000000009361 39.705065102064566 57.856287557903158  -4.9999999999990647 35.934314956744267 59.865244681304439  -5.0000000000006528 31.45276677685316 61.783367744412736  -4.9999999999996891 26.229784158500561 63.579334202632367  -5.0000000000000862 20.238921329407241 65.240351344573568  -5 13.451048386764874 66.749783789024377 
 0 11 0.5 8 0.75 8 1 11
7 0 0  1 2 2  5 13.451048386764874 66.749783789024377  -5 13.451048386764874 66.749783789024377 
 0 2 10 2
7 0 0  1 2 2  -5 -29.999999999999989 -7.5000000000000036  -5 -30.000000000000007 -12.499999999999993 
 0 2 5 2
7 0 0  10 35 5  -5 14.536396995939501 71.630564300024872  -5.0000000000001323 7.6982867620704365 73.151168108164072  -4.9999999999994849 1.5939607808490723 74.675707008732346  -5.0000000000010756 -3.7992080049887247 76.20133830630003  -4.9999999999984359 -8.5006036714480011 77.715718208218107  -5.0000000000016831 -12.536634569737419 79.230670787308341  -4.9999999999986739 -15.917384092862003 80.720681443997208  -5.0000000000007097 -18.662952926594116 82.173189386788067  -4.9999999999997886 -20.794872127154115 83.601220687768517  -5.0000000000001164 -23.019886394961429 85.578736247913383  -4.9999999999999618 -24.000433654320535 87.118718787526959  -5.0000000000000719 -24.199891086455423 87.572328463985073  -4.9999999999998703 -24.299350741201607 87.963585525339042  -5.0000000000002061 -24.297925498757493 88.27515160047794  -4.9999999999997691 -24.31582798217881 88.546938804523734  -5.000000000000159 -24.269849458216253 88.890177265537616  -4.9999999999999476 -24.145056756999416 89.27800546499094  -5.0000000000000471 -23.698426237627 90.15530922878844  -4.9999999999999583 -22.821268982473502 91.195585352254525  -5.0000000000001696 -22.265648874102606 91.747366922101591  -4.9999999999996216 -21.593047665444068 92.318968630475197  -5.0000000000005214 -20.807392443740639 92.901044261431622  -4.9999999999995479 -19.913506258415882 93.48789602678724  -5.0000000000002292 -18.915990630599435 94.076287749449847  -4.9999999999999556 -17.819181844553302 94.663571532071956  -5.0000000000001021 -11.860280367129151 97.57971130938023  -4.999999999999817 -3.6289024666926357 100.35746769858021  -5.0000000000003979 4.1490607470846452 102.38161661348006  -4.9999999999994413 12.912581750133839 104.20707698076504  -5.0000000000005631 22.459855252957428 105.78902486877583  -4.9999999999995737 32.590479329360058 107.10045543779985  -5.0000000000002434 43.106914228527927 108.12667610240412  -4.9999999999999103 53.812415858153287 108.83270382834071  -5.0000000000000178 64.509573417026076 109.19799999999945  -4.9999999999999991 74.999999999999943 109.19799999999999 
 0 11 0.25 8 0.375 8 0.5 8 1 11
7 0 0  1 2 2  -4.9999999999999991 74.999999999999943 114.19800000000001  -4.9999999999999991 74.999999999999943 109.19799999999999 
 0 2 5 2
7 0 0  10 35 5  -5 13.451048386764823 66.74978378902432  -5.0000000000001323 6.5106484817958163 68.293133949311894  -4.9999999999994849 0.28864133000143949 69.846341570291415  -5.0000000000010756 -5.2408374806404785 71.4060679483554  -4.9999999999984359 -10.106895343368793 72.978475476922796  -5.0000000000016831 -14.331615376296797 74.545558684269693  -4.9999999999986739 -17.953405655631336 76.126650770641874  -5.0000000000007097 -21.000656964933118 77.728131128640101  -4.9999999999997886 -23.500329717210821 79.330792286938774  -5.0000000000001164 -26.553598297311627 81.855099554901045  -4.9999999999999618 -28.456782069683733 84.736707904152311  -5.0000000000000719 -28.95856843554499 85.747274522519078  -4.9999999999998703 -29.306414133201699 86.809733746283769  -5.0000000000002061 -29.507267716124524 87.940651271719375  -4.9999999999997691 -29.446977994901282 89.099342308736908  -5.000000000000159 -29.214815136458473 90.173804054479973  -4.9999999999999476 -28.831773744310855 91.190125352513832  -5.0000000000000471 -27.815473522371239 93.092473815460067  -4.9999999999999583 -26.359420661671034 94.771465682674418  -5.0000000000001696 -25.5369273021428 95.563449374267392  -4.9999999999996216 -24.625968066576185 96.318971518543279  -5.0000000000005214 -23.628677301413472 97.046605656560288  -4.9999999999995479 -22.546293390854462 97.751276901613366  -5.0000000000002292 -21.380276247463893 98.435448755907558  -4.9999999999999556 -20.132351020614831 99.100996441904087  -5.0000000000001021 -13.491883393469509 102.34649009155051  -4.999999999999817 -4.8969328302999333 105.19843067646261  -5.0000000000003979 3.103488962415466 107.28814881820898  -4.9999999999994413 12.047743447248354 109.13721379219906  -5.0000000000005631 21.749704159572282 110.74099833717675  -4.9999999999995737 32.021841271306684 112.07705610020912  -5.0000000000002434 42.67376277917586 113.11062847378265  -4.9999999999999103 53.514281021222352 113.82724729946557  -5.0000000000000178 64.352875044517162 114.19799999999896  -4.9999999999999991 74.999999999999943 114.19800000000001 
 0 11 0.25 8 0.375 8 0.5 8 1 11
7 0 0  1 2 2  -4.9999999999999991 74.999999999999943 109.19799999999999  4.9999999999999991 74.999999999999943 109.19799999999999 
 0 2 10 2
7 0 0  1 2 2  4.9999999999999991 74.999999999999943 114.19800000000001  -4.9999999999999991 74.999999999999943 114.19800000000001 
 0 2 10 2
Polygon3D 0
PolygonOnTriangulations 0
Surfaces 12
9 0 0 0 0 1 10 2 27 2 4 -5 -30.000000000000007 -12.499999999999993  -5.0000000000001323 -23.643223665727589 -12.500000000000021  -4.9999999999994849 -16.501589102258091 -11.460427841164133  -5.0000000000010756 -8.7358475646905891 -9.5629197100587309  -4.9999999999984359 -0.5665262453145623 -6.8736875615717237  -5.0000000000016831 7.7562338352118445 -3.5095924502479749  -4.9999999999986739 15.992208737616094 0.42948162758337832  -5.0000000000007097 23.898965415440337 4.8587986937364329  -4.9999999999997886 31.222555911932417 9.6742201021662844  -5.0000000000001164 40.982882048548127 17.348520755344591  -4.9999999999999618 48.344883736149335 25.581630001072377  -5.0000000000000737 50.500970762475205 28.382575050705732  -4.9999999999998641 52.328755023966487 31.228626936116832  -5.0000000000002167 53.789955545416262 34.144935226758086  -4.9999999999997575 54.845602827287443 37.076754054631024  -5.0000000000001723 55.465295343018127 40.114934769787787  -4.9999999999999369 55.508735300913216 43.185529959394579  -5.0000000000000666 54.409552956602482 49.221072081097837  -4.9999999999999298 50.921842877687766 54.833696072479476  -5.0000000000002931 48.576762514821588 57.480195713838143  -4.9999999999993534 45.662786925974444 59.943276049578422  -5.0000000000009361 42.161299247806873 62.262370704206134  -4.9999999999990647 38.032022510202097 64.443561965675812  -5.0000000000006528 33.239150069371988 66.471968866463811  -4.9999999999996891 27.749833611730647 68.353627162352453  -5.0000000000000862 21.527034192135215 70.076042776052788  -5 14.536396995939544 71.630564300024901  
5 -30.000000000000007 -12.499999999999993  5.0000000000001323 -23.643223665727589 -12.500000000000021  4.9999999999994849 -16.501589102258091 -11.460427841164133  5.0000000000010756 -8.7358475646905891 -9.5629197100587309  4.9999999999984359 -0.5665262453145623 -6.8736875615717237  5.0000000000016831 7.7562338352118445 -3.5095924502479749  4.9999999999986739 15.992208737616094 0.42948162758337832  5.0000000000007097 23.898965415440337 4.8587986937364329  4.9999999999997886 31.222555911932417 9.6742201021662844  5.0000000000001164 40.982882048548127 17.348520755344591  4.9999999999999618 48.344883736149335 25.581630001072377  5.0000000000000737 50.500970762475205 28.382575050705732  4.9999999999998641 52.328755023966487 31.228626936116832  5.0000000000002167 53.789955545416262 34.144935226758086  4.9999999999997575 54.845602827287443 37.076754054631024  5.0000000000001723 55.465295343018127 40.114934769787787  4.9999999999999369 55.508735300913216 43.185529959394579  5.0000000000000666 54.409552956602482 49.221072081097837  4.9999999999999298 50.921842877687766 54.833696072479476  5.0000000000002931 48.576762514821588 57.480195713838143  4.9999999999993534 45.662786925974444 59.943276049578422  5.0000000000009361 42.161299247806873 62.262370704206134  4.9999999999990647 38.032022510202097 64.443561965675812  5.0000000000006528 33.239150069371988 66.471968866463811  4.9999999999996891 27.749833611730647 68.353627162352453  5.0000000000000862 21.527034192135215 70.076042776052788  5 14.536396995939544 71.630564300024901  

0 2
10 2

0 11
0.5 8
0.75 8
1 11

1 -5 22.88330946689366 24.807658946599858 1 5.4225000708904351e-17 -3.7830059343953619e-18 -4.1718757896417869e-17 0.72102296609841443 -0.69291116483907567 -3.4845474245020969e-17 0.69291116483907567 0.72102296609841443 
1 5 22.883309466893664 24.807658946599876 -1 5.3976162864561669e-17 -3.5221524723858875e-18 -4.1358591819599084e-17 -0.72102296609841443 0.69291116483907578 3.4861133061336553e-17 0.69291116483907578 0.72102296609841443 
9 0 0 0 0 1 10 2 35 2 5 -5 14.536396995939501 71.630564300024872  -5.0000000000001323 7.6982867620704365 73.151168108164072  -4.9999999999994849 1.5939607808490723 74.675707008732346  -5.0000000000010756 -3.7992080049887247 76.20133830630003  -4.9999999999984359 -8.5006036714480011 77.715718208218107  -5.0000000000016831 -12.536634569737419 79.230670787308341  -4.9999999999986739 -15.917384092862003 80.720681443997208  -5.0000000000007097 -18.662952926594116 82.173189386788067  -4.9999999999997886 -20.794872127154115 83.601220687768517  -5.0000000000001164 -23.019886394961429 85.578736247913383  -4.9999999999999618 -24.000433654320535 87.118718787526959  -5.0000000000000719 -24.199891086455423 87.572328463985073  -4.9999999999998703 -24.299350741201607 87.963585525339042  -5.0000000000002061 -24.297925498757493 88.27515160047794  -4.9999999999997691 -24.31582798217881 88.546938804523734  -5.000000000000159 -24.269849458216253 88.890177265537616  -4.9999999999999476 -24.145056756999416 89.27800546499094  -5.0000000000000471 -23.698426237627 90.15530922878844  -4.9999999999999583 -22.821268982473502 91.195585352254525  -5.0000000000001696 -22.265648874102606 91.747366922101591  -4.9999999999996216 -21.593047665444068 92.318968630475197  -5.0000000000005214 -20.807392443740639 92.901044261431622  -4.9999999999995479 -19.913506258415882 93.48789602678724  -5.0000000000002292 -18.915990630599435 94.076287749449847  -4.9999999999999556 -17.819181844553302 94.663571532071956  -5.0000000000001021 -11.860280367129151 97.57971130938023  -4.999999999999817 -3.6289024666926357 100.35746769858021  -5.0000000000003979 4.1490607470846452 102.38161661348006  -4.9999999999994413 12.912581750133839 104.20707698076504  -5.0000000000005631 22.459855252957428 105.78902486877583  -4.9999999999995737 32.590479329360058 107.10045543779985  -5.0000000000002434 43.106914228527927 108.12667610240412  -4.9999999999999103 53.812415858153287 108.83270382834071  -5.0000000000000178 64.509573417026076 109.19799999999945  -4.9999999999999991 74.999999999999943 109.19799999999999  
5 14.536396995939501 71.630564300024872  5.0000000000001323 7.6982867620704365 73.151168108164072  4.9999999999994849 1.5939607808490723 74.675707008732346  5.0000000000010756 -3.7992080049887247 76.20133830630003  4.9999999999984359 -8.5006036714480011 77.715718208218107  5.0000000000016831 -12.536634569737419 79.230670787308341  4.9999999999986739 -15.917384092862003 80.720681443997208  5.0000000000007097 -18.662952926594116 82.173189386788067  4.9999999999997886 -20.794872127154115 83.601220687768517  5.0000000000001164 -23.019886394961429 85.578736247913383  4.9999999999999618 -24.000433654320535 87.118718787526959  5.0000000000000719 -24.199891086455423 87.572328463985073  4.9999999999998703 -24.299350741201607 87.963585525339042  5.0000000000002061 -24.297925498757493 88.27515160047794  4.9999999999997691 -24.31582798217881 88.546938804523734  5.000000000000159 -24.269849458216253 88.890177265537616  4.9999999999999476 -24.145056756999416 89.27800546499094  5.0000000000000471 -23.698426237627 90.15530922878844  4.9999999999999583 -22.821268982473502 91.195585352254525  5.0000000000001696 -22.265648874102606 91.747366922101591  4.9999999999996216 -21.593047665444068 92.318968630475197  5.0000000000005214 -20.807392443740639 92.901044261431622  4.9999999999995479 -19.913506258415882 93.48789602678724  5.0000000000002292 -18.915990630599435 94.076287749449847  4.9999999999999556 -17.819181844553302 94.663571532071956  5.0000000000001021 -11.860280367129151 97.57971130938023  4.999999999999817 -3.6289024666926357 100.35746769858021  5.0000000000003979 4.1490607470846452 102.38161661348006  4.9999999999994413 12.912581750133839 104.20707698076504  5.0000000000005631 22.459855252957428 105.78902486877583  4.9999999999995737 32.590479329360058 107.10045543779985  5.0000000000002434 43.106914228527927 108.12667610240412  4.9999999999999103 53.812415858153287 108.83270382834071  5.0000000000000178 64.509573417026076 109.19799999999945  4.9999999999999991 74.999999999999943 109.19799999999999  

0 2
10 2

0 11
0.25 8
0.375 8
0.5 8
1 11

1 5 22.883309466893664 24.807658946599876 -1 5.3976162864561669e-17 -3.5221524723858875e-18 -4.1358591819599084e-17 -0.72102296609841443 0.69291116483907578 3.4861133061336553e-17 0.69291116483907578 0.72102296609841443 
9 0 0 0 0 1 10 2 27 2 4 5 -29.999999999999989 -7.5000000000000036  5.0000000000001323 -24.379143016788902 -7.4999999999999583  4.9999999999994849 -17.67649199054031 -6.5807783503347901  5.0000000000010756 -10.239173405705145 -4.7629931742725784  4.9999999999984359 -2.3545378095493583 -2.1827268267603221  5.0000000000016831 5.7196780790439821 1.0745874369137125  4.9999999999986739 13.715820459778751 4.9065393032415816  5.0000000000007097 21.368444639582545 9.1955704405776313  4.9999999999997886 28.423620835638534 13.843525185129872  5.0000000000001164 37.698706880912816 21.178389220914536  4.9999999999999618 44.430285675806026 28.720433156255272  5.0000000000000737 46.359481681823553 31.237695544039116  4.9999999999998641 47.940918606743729 33.744387351039229  5.0000000000002167 49.149392708333551 36.190072219086865  4.9999999999997575 49.960388768673909 38.604209227425841  5.0000000000001723 50.3408235969017 40.870660237308684  4.9999999999999369 50.367510267250147 43.038085872808253  5.0000000000000666 49.61997500175184 47.29479002403243  4.9999999999999298 47.033086868474754 51.505674396059234  5.0000000000002931 45.220413257208214 53.628457670305671  4.9999999999993534 42.792695286433378 55.766902195309868  5.0000000000009361 39.705065102064566 57.856287557903158  4.9999999999990647 35.934314956744267 59.865244681304439  5.0000000000006528 31.45276677685316 61.783367744412736  4.9999999999996891 26.229784158500561 63.579334202632367  5.0000000000000862 20.238921329407241 65.240351344573568  5 13.451048386764874 66.749783789024377  
-5 -29.999999999999989 -7.5000000000000036  -5.0000000000001323 -24.379143016788902 -7.4999999999999583  -4.9999999999994849 -17.67649199054031 -6.5807783503347901  -5.0000000000010756 -10.239173405705145 -4.7629931742725784  -4.9999999999984359 -2.3545378095493583 -2.1827268267603221  -5.0000000000016831 5.7196780790439821 1.0745874369137125  -4.9999999999986739 13.715820459778751 4.9065393032415816  -5.0000000000007097 21.368444639582545 9.1955704405776313  -4.9999999999997886 28.423620835638534 13.843525185129872  -5.0000000000001164 37.698706880912816 21.178389220914536  -4.9999999999999618 44.430285675806026 28.720433156255272  -5.0000000000000737 46.359481681823553 31.237695544039116  -4.9999999999998641 47.940918606743729 33.744387351039229  -5.0000000000002167 49.149392708333551 36.190072219086865  -4.9999999999997575 49.960388768673909 38.604209227425841  -5.0000000000001723 50.3408235969017 40.870660237308684  -4.9999999999999369 50.367510267250147 43.038085872808253  -5.0000000000000666 49.61997500175184 47.29479002403243  -4.9999999999999298 47.033086868474754 51.505674396059234  -5.0000000000002931 45.220413257208214 53.628457670305671  -4.9999999999993534 42.792695286433378 55.766902195309868  -5.0000000000009361 39.705065102064566 57.856287557903158  -4.9999999999990647 35.934314956744267 59.865244681304439  -5.0000000000006528 31.45276677685316 61.783367744412736  -4.9999999999996891 26.229784158500561 63.579334202632367  -5.0000000000000862 20.238921329407241 65.240351344573568  -5 13.451048386764874 66.749783789024377  

0 2
10 2

0 11
0.5 8
0.75 8
1 11

9 0 0 0 0 1 10 2 35 2 5 5 13.451048386764823 66.74978378902432  5.0000000000001323 6.5106484817958163 68.293133949311894  4.9999999999994849 0.28864133000143949 69.846341570291415  5.0000000000010756 -5.2408374806404785 71.4060679483554  4.9999999999984359 -10.106895343368793 72.978475476922796  5.0000000000016831 -14.331615376296797 74.545558684269693  4.9999999999986739 -17.953405655631336 76.126650770641874  5.0000000000007097 -21.000656964933118 77.728131128640101  4.9999999999997886 -23.500329717210821 79.330792286938774  5.0000000000001164 -26.553598297311627 81.855099554901045  4.9999999999999618 -28.456782069683733 84.736707904152311  5.0000000000000719 -28.95856843554499 85.747274522519078  4.9999999999998703 -29.306414133201699 86.809733746283769  5.0000000000002061 -29.507267716124524 87.940651271719375  4.9999999999997691 -29.446977994901282 89.099342308736908  5.000000000000159 -29.214815136458473 90.173804054479973  4.9999999999999476 -28.831773744310855 91.190125352513832  5.0000000000000471 -27.815473522371239 93.092473815460067  4.9999999999999583 -26.359420661671034 94.771465682674418  5.0000000000001696 -25.5369273021428 95.563449374267392  4.9999999999996216 -24.625968066576185 96.318971518543279  5.0000000000005214 -23.628677301413472 97.046605656560288  4.9999999999995479 -22.546293390854462 97.751276901613366  5.0000000000002292 -21.380276247463893 98.435448755907558  4.9999999999999556 -20.132351020614831 99.100996441904087  5.0000000000001021 -13.491883393469509 102.34649009155051  4.999999999999817 -4.8969328302999333 105.19843067646261  5.0000000000003979 3.103488962415466 107.28814881820898  4.9999999999994413 12.047743447248354 109.13721379219906  5.0000000000005631 21.749704159572282 110.74099833717675  4.9999999999995737 32.021841271306684 112.07705610020912  5.0000000000002434 42.67376277917586 113.11062847378265  4.9999999999999103 53.514281021222352 113.82724729946557  5.0000000000000178 64.352875044517162 114.19799999999896  4.9999999999999991 74.999999999999943 114.19800000000001  
-5 13.451048386764823 66.74978378902432  -5.0000000000001323 6.5106484817958163 68.293133949311894  -4.9999999999994849 0.28864133000143949 69.846341570291415  -5.0000000000010756 -5.2408374806404785 71.4060679483554  -4.9999999999984359 -10.106895343368793 72.978475476922796  -5.0000000000016831 -14.331615376296797 74.545558684269693  -4.9999999999986739 -17.953405655631336 76.126650770641874  -5.0000000000007097 -21.000656964933118 77.728131128640101  -4.9999999999997886 -23.500329717210821 79.330792286938774  -5.0000000000001164 -26.553598297311627 81.855099554901045  -4.9999999999999618 -28.456782069683733 84.736707904152311  -5.0000000000000719 -28.95856843554499 85.747274522519078  -4.9999999999998703 -29.306414133201699 86.809733746283769  -5.0000000000002061 -29.507267716124524 87.940651271719375  -4.9999999999997691 -29.446977994901282 89.099342308736908  -5.000000000000159 -29.214815136458473 90.173804054479973  -4.9999999999999476 -28.831773744310855 91.190125352513832  -5.0000000000000471 -27.815473522371239 93.092473815460067  -4.9999999999999583 -26.359420661671034 94.771465682674418  -5.0000000000001696 -25.5369273021428 95.563449374267392  -4.9999999999996216 -24.625968066576185 96.318971518543279  -5.0000000000005214 -23.628677301413472 97.046605656560288  -4.9999999999995479 -22.546293390854462 97.751276901613366  -5.0000000000002292 -21.380276247463893 98.435448755907558  -4.9999999999999556 -20.132351020614831 99.100996441904087  -5.0000000000001021 -13.491883393469509 102.34649009155051  -4.999999999999817 -4.8969328302999333 105.19843067646261  -5.0000000000003979 3.103488962415466 107.28814881820898  -4.9999999999994413 12.047743447248354 109.13721379219906  -5.0000000000005631 21.749704159572282 110.74099833717675  -4.9999999999995737 32.021841271306684 112.07705610020912  -5.0000000000002434 42.67376277917586 113.11062847378265  -4.9999999999999103 53.514281021222352 113.82724729946557  -5.0000000000000178 64.352875044517162 114.19799999999896  -4.9999999999999991 74.999999999999943 114.19800000000001  

0 2
10 2

0 11
0.25 8
0.375 8
0.5 8
1 11

1 5 6.0537783329398849 95.281909077668587 -1 -1.7078649861654272e-17 3.9651980525490351e-17 4.2943587421368085e-17 -0.29879509287852518 0.95431729129871345 -4.4506336710816911e-18 0.95431729129871345 0.29879509287852518 
1 -5 22.88330946689366 24.807658946599858 1 5.4225000708904351e-17 -3.7830059343953619e-18 -4.1718757896417869e-17 0.72102296609841443 -0.69291116483907567 -3.4845474245020969e-17 0.69291116483907567 0.72102296609841443 
1 -5 6.0537783329398804 95.281909077668487 1 -1.6917295267368475e-17 3.9024002064044351e-17 4.2296084756061005e-17 0.29879509287852485 -0.95431729129871357 4.4842870744377519e-18 0.95431729129871357 0.29879509287852485 
1 -1.184237892933501e-16 -29.999999999999996 -9.9999999999999964 -0 -1 3.6711374680938584e-15 0 -3.6711374680938584e-15 -1 1 0 0 
1 -1.1842378929334993e-16 74.999999999999957 111.69799999999999 -0 -1 -0 0 0 -1 1 -0 0 
Triangulations 0

TShapes 48
Ve
5.30967139061102e-05
-5 -30 -12.5
0 0

0101101
*
Ve
5.3096713932419e-05
-5 14.5363969959395 71.6305643000249
0 0

0101101
*
Ed
 1e-07 1 1 0
1  1 0 0 1
2  1 1 0 0 1
2  2 2 0 0 1
0

0101000
+48 0 -47 0 *
Ve
5.3096713905834e-05
5 -30 -12.5
0 0

0101101
*
Ed
 1e-07 1 1 0
1  2 0 0 10
2  3 1 0 0 10
0

0101000
+48 0 -45 0 *
Ve
5.30967139321966e-05
5 14.5363969959395 71.6305643000249
0 0

0101101
*
Ed
 1e-07 1 1 0
1  3 0 0 1
2  4 1 0 0 1
2  5 3 0 0 1
0

0101000
+45 0 -43 0 *
Ed
 1e-07 1 1 0
1  4 0 0 10
2  6 1 0 0 10
2  7 4 0 0 10
4 G1 4 0 1 0
0

0101000
+47 0 -43 0 *
Wi

0101100
-46 0 +44 0 +42 0 -41 0 *
Fa
0  1e-07 1 0

0101000
+40 0 *
Ve
5.30967139060564e-05
5 -30 -7.5
0 0

0101101
*
Ed
 1e-07 1 1 0
1  5 0 0 5
2  8 3 0 0 5
0

0101000
+45 0 -38 0 *
Ve
5.3096713932419e-05
5 13.4510483867648 66.7497837890244
0 0

0101101
*
Ed
 1e-07 1 1 0
1  6 0 0 1
2  9 6 0 0 1
2  10 3 0 0 1
0

0101000
+38 0 -36 0 *
Ve
8.97488454408312e-05
5 74.9999999999999 114.198
0 0

0101101
*
Ed
 1e-07 1 1 0
1  7 0 0 1
2  11 7 0 0 1
2  12 8 0 0 1
0

0101000
+36 0 -34 0 *
Ve
8.97488454406088e-05
5 74.9999999999999 109.198
0 0

0101101
*
Ed
 1e-07 1 1 0
1  8 0 0 5
2  13 8 0 0 5
0

0101000
+32 0 -34 0 *
Ed
 1e-07 1 1 0
1  9 0 0 1
2  14 4 0 0 1
2  15 8 0 0 1
0

0101000
+43 0 -32 0 *
Wi

0101100
-42 0 +37 0 +35 0 +33 0 -31 0 -30 0 *
Fa
0  0 5 0

0101000
+29 0 *
Ve
5.30967138991836e-05
-5 -30 -7.5
0 0

0101101
*
Ed
 1e-07 1 1 0
1  10 0 0 10
2  16 6 0 0 10
0

0101000
+38 0 -27 0 *
Ve
5.30967139255462e-05
-5 13.4510483867648 66.7497837890244
0 0

0101101
*
Ed
 1e-07 1 1 0
1  11 0 0 1
2  17 6 0 0 1
2  18 2 0 0 1
0

0101000
+27 0 -25 0 *
Ed
 1e-07 1 1 0
1  12 0 0 10
2  19 6 0 0 10
2  20 7 0 0 10
4 G1 7 0 6 0
0

0101000
+36 0 -25 0 *
Wi

0101100
-35 0 +26 0 +24 0 -23 0 *
Fa
0  1e-07 6 0

0101000
+22 0 *
Ed
 1e-07 1 1 0
1  13 0 0 5
2  21 2 0 0 5
0

0101000
+27 0 -48 0 *
Ve
8.97488454408312e-05
-5 74.9999999999999 109.198
0 0

0101101
*
Ed
 1e-07 1 1 0
1  14 0 0 1
2  22 4 0 0 1
2  23 10 0 0 1
0

0101000
+47 0 -19 0 *
Ve
8.9748845439117e-05
-5 74.9999999999999 114.198
0 0

0101101
*
Ed
 1e-07 1 1 0
1  15 0 0 5
2  24 10 0 0 5
0

0101000
+17 0 -19 0 *
Ed
 1e-07 1 1 0
1  16 0 0 1
2  25 7 0 0 1
2  26 10 0 0 1
0

0101000
+25 0 -17 0 *
Wi

0101100
-24 0 +20 0 +46 0 +18 0 -16 0 -15 0 *
Fa
0  0 9 0

0101000
+14 0 *
Ed
 1e-07 1 1 0
1  17 0 0 10
2  27 4 0 0 10
0

0101000
+19 0 -32 0 *
Wi

0101100
-18 0 +41 0 +30 0 -12 0 *
Fa
0  1e-07 4 0

0101000
+11 0 *
Ed
 1e-07 1 1 0
1  18 0 0 10
2  28 7 0 0 10
0

0101000
+34 0 -17 0 *
Wi

0101100
-33 0 +23 0 +15 0 -9 0 *
Fa
0  1e-07 7 0

0101000
+8 0 *
Wi

0101100
+44 0 +37 0 +26 0 +20 0 *
Fa
0  1e-07 11 0

0101000
+6 0 *
Wi

0101100
+12 0 +31 0 +9 0 +16 0 *
Fa
0  1e-07 12 0

0101000
+4 0 *
Sh

0101100
+39 0 +28 0 +21 0 +13 0 +10 0 +7 0 -5 0 +3 0 *
So

1100000
-2 0 *

+1 0 