ISO-10303-21;
HEADER;
FILE_DESCRIPTION(('Open CASCADE Model'),'2;1');
FILE_NAME('Open CASCADE Shape Model','2026-06-16T18:00:46',('Author'),(
    'Open CASCADE'),'Open CASCADE STEP processor 7.8','Open CASCADE 7.8'
  ,'Unknown');
FILE_SCHEMA(('AUTOMOTIVE_DESIGN { 1 0 10303 214 1 1 1 1 }'));
ENDSEC;
DATA;
#1 = APPLICATION_PROTOCOL_DEFINITION('international standard',
  'automotive_design',2000,#2);
#2 = APPLICATION_CONTEXT(
  'core data for automotive mechanical design processes');
#3 = SHAPE_DEFINITION_REPRESENTATION(#4,#10);
#4 = PRODUCT_DEFINITION_SHAPE('','',#5);
#5 = PRODUCT_DEFINITION('design','',#6,#9);
#6 = PRODUCT_DEFINITION_FORMATION('','',#7);
#7 = PRODUCT('Open CASCADE STEP translator 7.8 1',
  'Open CASCADE STEP translator 7.8 1','',(#8));
#8 = PRODUCT_CONTEXT('',#2,'mechanical');
#9 = PRODUCT_DEFINITION_CONTEXT('part definition',#2,'design');
#10 = ADVANCED_BREP_SHAPE_REPRESENTATION('',(#11,#15),#1321);
#11 = AXIS2_PLACEMENT_3D('',#12,#13,#14);
#12 = CARTESIAN_POINT('',(0.,0.,0.));
#13 = DIRECTION('',(0.,0.,1.));
#14 = DIRECTION('',(1.,0.,-0.));
#15 = MANIFOLD_SOLID_BREP('',#16);
#16 = CLOSED_SHELL('',(#17,#195,#734,#802,#1159,#1184,#1209,#1234,#1259,
    #1283,#1307,#1314));
#17 = ADVANCED_FACE('',(#18),#33,.F.);
#18 = FACE_BOUND('',#19,.F.);
#19 = EDGE_LOOP('',(#20,#58,#83,#114));
#20 = ORIENTED_EDGE('',*,*,#21,.F.);
#21 = EDGE_CURVE('',#22,#24,#26,.T.);
#22 = VERTEX_POINT('',#23);
#23 = CARTESIAN_POINT('',(-2.5,-30.,-48.5));
#24 = VERTEX_POINT('',#25);
#25 = CARTESIAN_POINT('',(-2.5,3.552713678801E-15,-48.5));
#26 = SURFACE_CURVE('',#27,(#32,#45),.PCURVE_S1.);
#27 = B_SPLINE_CURVE_WITH_KNOTS('',3,(#28,#29,#30,#31),.UNSPECIFIED.,.F.
  ,.F.,(4,4),(0.,1.),.PIECEWISE_BEZIER_KNOTS.);
#28 = CARTESIAN_POINT('',(-2.5,-30.,-48.5));
#29 = CARTESIAN_POINT('',(-2.5,-29.9,-48.5));
#30 = CARTESIAN_POINT('',(-2.5,-1.E-01,-48.5));
#31 = CARTESIAN_POINT('',(-2.5,8.881784197001E-15,-48.5));
#32 = PCURVE('',#33,#38);
#33 = PLANE('',#34);
#34 = AXIS2_PLACEMENT_3D('',#35,#36,#37);
#35 = CARTESIAN_POINT('',(0.,-15.,-48.5));
#36 = DIRECTION('',(3.405907328437E-16,1.452617148614E-17,1.));
#37 = DIRECTION('',(1.,5.020246460857E-19,-3.405907328437E-16));
#38 = DEFINITIONAL_REPRESENTATION('',(#39),#44);
#39 = B_SPLINE_CURVE_WITH_KNOTS('',3,(#40,#41,#42,#43),.UNSPECIFIED.,.F.
  ,.F.,(4,4),(0.,1.),.PIECEWISE_BEZIER_KNOTS.);
#40 = CARTESIAN_POINT('',(-2.5,-15.));
#41 = CARTESIAN_POINT('',(-2.5,-14.9));
#42 = CARTESIAN_POINT('',(-2.5,14.9));
#43 = CARTESIAN_POINT('',(-2.5,15.));
#44 = ( GEOMETRIC_REPRESENTATION_CONTEXT(2) 
PARAMETRIC_REPRESENTATION_CONTEXT() REPRESENTATION_CONTEXT('2D SPACE',''
  ) );
#45 = PCURVE('',#46,#51);
#46 = PLANE('',#47);
#47 = AXIS2_PLACEMENT_3D('',#48,#49,#50);
#48 = CARTESIAN_POINT('',(-2.5,-15.,-48.));
#49 = DIRECTION('',(1.,4.004753648206E-18,1.011631268078E-29));
#50 = DIRECTION('',(1.011648580012E-29,-4.322846151007E-17,-1.));
#51 = DEFINITIONAL_REPRESENTATION('',(#52),#57);
#52 = B_SPLINE_CURVE_WITH_KNOTS('',3,(#53,#54,#55,#56),.UNSPECIFIED.,.F.
  ,.F.,(4,4),(0.,1.),.PIECEWISE_BEZIER_KNOTS.);
#53 = CARTESIAN_POINT('',(0.5,-15.));
#54 = CARTESIAN_POINT('',(0.5,-14.9));
#55 = CARTESIAN_POINT('',(0.5,14.9));
#56 = CARTESIAN_POINT('',(0.5,15.));
#57 = ( GEOMETRIC_REPRESENTATION_CONTEXT(2) 
PARAMETRIC_REPRESENTATION_CONTEXT() REPRESENTATION_CONTEXT('2D SPACE',''
  ) );
#58 = ORIENTED_EDGE('',*,*,#59,.T.);
#59 = EDGE_CURVE('',#22,#60,#62,.T.);
#60 = VERTEX_POINT('',#61);
#61 = CARTESIAN_POINT('',(2.5,-30.,-48.5));
#62 = SURFACE_CURVE('',#63,(#66,#72),.PCURVE_S1.);
#63 = B_SPLINE_CURVE_WITH_KNOTS('',1,(#64,#65),.UNSPECIFIED.,.F.,.F.,(2,
    2),(0.,5.),.PIECEWISE_BEZIER_KNOTS.);
#64 = CARTESIAN_POINT('',(-2.5,-30.,-48.5));
#65 = CARTESIAN_POINT('',(2.5,-30.,-48.5));
#66 = PCURVE('',#33,#67);
#67 = DEFINITIONAL_REPRESENTATION('',(#68),#71);
#68 = B_SPLINE_CURVE_WITH_KNOTS('',1,(#69,#70),.UNSPECIFIED.,.F.,.F.,(2,
    2),(0.,5.),.PIECEWISE_BEZIER_KNOTS.);
#69 = CARTESIAN_POINT('',(-2.5,-15.));
#70 = CARTESIAN_POINT('',(2.5,-15.));
#71 = ( GEOMETRIC_REPRESENTATION_CONTEXT(2) 
PARAMETRIC_REPRESENTATION_CONTEXT() REPRESENTATION_CONTEXT('2D SPACE',''
  ) );
#72 = PCURVE('',#73,#78);
#73 = PLANE('',#74);
#74 = AXIS2_PLACEMENT_3D('',#75,#76,#77);
#75 = CARTESIAN_POINT('',(0.,-30.,-48.));
#76 = DIRECTION('',(-0.,-1.,-0.));
#77 = DIRECTION('',(0.,0.,-1.));
#78 = DEFINITIONAL_REPRESENTATION('',(#79),#82);
#79 = B_SPLINE_CURVE_WITH_KNOTS('',1,(#80,#81),.UNSPECIFIED.,.F.,.F.,(2,
    2),(0.,5.),.PIECEWISE_BEZIER_KNOTS.);
#80 = CARTESIAN_POINT('',(0.5,-2.5));
#81 = CARTESIAN_POINT('',(0.5,2.5));
#82 = ( GEOMETRIC_REPRESENTATION_CONTEXT(2) 
PARAMETRIC_REPRESENTATION_CONTEXT() REPRESENTATION_CONTEXT('2D SPACE',''
  ) );
#83 = ORIENTED_EDGE('',*,*,#84,.T.);
#84 = EDGE_CURVE('',#60,#85,#87,.T.);
#85 = VERTEX_POINT('',#86);
#86 = CARTESIAN_POINT('',(2.5,3.552713678801E-15,-48.5));
#87 = SURFACE_CURVE('',#88,(#93,#101),.PCURVE_S1.);
#88 = B_SPLINE_CURVE_WITH_KNOTS('',3,(#89,#90,#91,#92),.UNSPECIFIED.,.F.
  ,.F.,(4,4),(0.,1.),.PIECEWISE_BEZIER_KNOTS.);
#89 = CARTESIAN_POINT('',(2.5,-30.,-48.5));
#90 = CARTESIAN_POINT('',(2.5,-29.9,-48.5));
#91 = CARTESIAN_POINT('',(2.5,-1.E-01,-48.5));
#92 = CARTESIAN_POINT('',(2.5,8.881784197001E-15,-48.5));
#93 = PCURVE('',#33,#94);
#94 = DEFINITIONAL_REPRESENTATION('',(#95),#100);
#95 = B_SPLINE_CURVE_WITH_KNOTS('',3,(#96,#97,#98,#99),.UNSPECIFIED.,.F.
  ,.F.,(4,4),(0.,1.),.PIECEWISE_BEZIER_KNOTS.);
#96 = CARTESIAN_POINT('',(2.5,-15.));
#97 = CARTESIAN_POINT('',(2.5,-14.9));
#98 = CARTESIAN_POINT('',(2.5,14.9));
#99 = CARTESIAN_POINT('',(2.5,15.));
#100 = ( GEOMETRIC_REPRESENTATION_CONTEXT(2) 
PARAMETRIC_REPRESENTATION_CONTEXT() REPRESENTATION_CONTEXT('2D SPACE',''
  ) );
#101 = PCURVE('',#102,#107);
#102 = PLANE('',#103);
#103 = AXIS2_PLACEMENT_3D('',#104,#105,#106);
#104 = CARTESIAN_POINT('',(2.5,-15.,-48.));
#105 = DIRECTION('',(-1.,4.004753648206E-18,-1.261626990214E-29));
#106 = DIRECTION('',(-1.261613421401E-29,3.388176712951E-17,1.));
#107 = DEFINITIONAL_REPRESENTATION('',(#108),#113);
#108 = B_SPLINE_CURVE_WITH_KNOTS('',3,(#109,#110,#111,#112),
  .UNSPECIFIED.,.F.,.F.,(4,4),(0.,1.),.PIECEWISE_BEZIER_KNOTS.);
#109 = CARTESIAN_POINT('',(-0.5,-15.));
#110 = CARTESIAN_POINT('',(-0.5,-14.9));
#111 = CARTESIAN_POINT('',(-0.5,14.9));
#112 = CARTESIAN_POINT('',(-0.5,15.));
#113 = ( GEOMETRIC_REPRESENTATION_CONTEXT(2) 
PARAMETRIC_REPRESENTATION_CONTEXT() REPRESENTATION_CONTEXT('2D SPACE',''
  ) );
#114 = ORIENTED_EDGE('',*,*,#115,.F.);
#115 = EDGE_CURVE('',#24,#85,#116,.T.);
#116 = SURFACE_CURVE('',#117,(#120,#126),.PCURVE_S1.);
#117 = B_SPLINE_CURVE_WITH_KNOTS('',1,(#118,#119),.UNSPECIFIED.,.F.,.F.,
  (2,2),(0.,5.),.PIECEWISE_BEZIER_KNOTS.);
#118 = CARTESIAN_POINT('',(-2.5,8.881784197001E-15,-48.5));
#119 = CARTESIAN_POINT('',(2.5,8.881784197001E-15,-48.5));
#120 = PCURVE('',#33,#121);
#121 = DEFINITIONAL_REPRESENTATION('',(#122),#125);
#122 = B_SPLINE_CURVE_WITH_KNOTS('',1,(#123,#124),.UNSPECIFIED.,.F.,.F.,
  (2,2),(0.,5.),.PIECEWISE_BEZIER_KNOTS.);
#123 = CARTESIAN_POINT('',(-2.5,15.));
#124 = CARTESIAN_POINT('',(2.5,15.));
#125 = ( GEOMETRIC_REPRESENTATION_CONTEXT(2) 
PARAMETRIC_REPRESENTATION_CONTEXT() REPRESENTATION_CONTEXT('2D SPACE',''
  ) );
#126 = PCURVE('',#127,#190);
#127 = B_SPLINE_SURFACE_WITH_KNOTS('',1,9,(
    (#128,#129,#130,#131,#132,#133,#134,#135,#136,#137,#138,#139,#140
      ,#141,#142,#143,#144,#145,#146,#147,#148,#149,#150,#151,#152,#153
      ,#154,#155,#156,#157,#158)
    ,(#159,#160,#161,#162,#163,#164,#165,#166,#167,#168,#169,#170,#171
      ,#172,#173,#174,#175,#176,#177,#178,#179,#180,#181,#182,#183,#184
      ,#185,#186,#187,#188,#189
    )),.UNSPECIFIED.,.F.,.F.,.F.,(2,2),(10,7,7,7,10),(0.,5.),(0.,0.5,
    0.75,0.875,1.),.UNSPECIFIED.);
#128 = CARTESIAN_POINT('',(-2.5,3.552713678801E-15,-48.5));
#129 = CARTESIAN_POINT('',(-2.5,5.542387196501,-48.5));
#130 = CARTESIAN_POINT('',(-2.5,11.95376084268,-48.32906817505));
#131 = CARTESIAN_POINT('',(-2.5,19.006338683879,-47.98287203655));
#132 = CARTESIAN_POINT('',(-2.5,26.468866067512,-47.45693966965));
#133 = CARTESIAN_POINT('',(-2.5,34.110390516228,-46.7463211341));
#134 = CARTESIAN_POINT('',(-2.5,41.700540505513,-45.84608890172));
#135 = CARTESIAN_POINT('',(-2.5,49.008701741882,-44.75171859499));
#136 = CARTESIAN_POINT('',(-2.5,59.202375486183,-42.81172764054));
#137 = CARTESIAN_POINT('',(-2.5,67.734664411789,-40.40642470112));
#138 = CARTESIAN_POINT('',(-2.5,70.366250750196,-39.5524260902));
#139 = CARTESIAN_POINT('',(-2.5,72.755215821464,-38.64158181271));
#140 = CARTESIAN_POINT('',(-2.5,74.880188429327,-37.6830237762));
#141 = CARTESIAN_POINT('',(-2.5,76.704926240251,-36.65191228727));
#142 = CARTESIAN_POINT('',(-2.5,78.211095533559,-35.57495206062));
#143 = CARTESIAN_POINT('',(-2.5,79.966107564303,-33.82092618797));
#144 = CARTESIAN_POINT('',(-2.5,80.824962456611,-31.84247898245));
#145 = CARTESIAN_POINT('',(-2.5,81.004388588095,-31.1578681039));
#146 = CARTESIAN_POINT('',(-2.5,81.066218167492,-30.44598303743));
#147 = CARTESIAN_POINT('',(-2.5,80.999652630259,-29.72286988779));
#148 = CARTESIAN_POINT('',(-2.5,80.807095137527,-29.00030308961));
#149 = CARTESIAN_POINT('',(-2.5,80.497417042836,-28.27644196708));
#150 = CARTESIAN_POINT('',(-2.5,79.636817477539,-26.82221246338));
#151 = CARTESIAN_POINT('',(-2.5,78.289028649569,-25.34684817858));
#152 = CARTESIAN_POINT('',(-2.5,77.491466457099,-24.60159750198));
#153 = CARTESIAN_POINT('',(-2.5,76.566889704869,-23.84678125982));
#154 = CARTESIAN_POINT('',(-2.5,75.511309922951,-23.08085543268));
#155 = CARTESIAN_POINT('',(-2.5,74.320647024308,-22.30277600526));
#156 = CARTESIAN_POINT('',(-2.5,72.990994817468,-21.51192774647));
#157 = CARTESIAN_POINT('',(-2.5,71.518601961065,-20.7079347774));
#158 = CARTESIAN_POINT('',(-2.5,69.899568359537,-19.89035292712));
#159 = CARTESIAN_POINT('',(2.5,3.552713678801E-15,-48.5));
#160 = CARTESIAN_POINT('',(2.5,5.542387196501,-48.5));
#161 = CARTESIAN_POINT('',(2.5,11.95376084268,-48.32906817505));
#162 = CARTESIAN_POINT('',(2.5,19.006338683879,-47.98287203655));
#163 = CARTESIAN_POINT('',(2.5,26.468866067512,-47.45693966965));
#164 = CARTESIAN_POINT('',(2.5,34.110390516228,-46.7463211341));
#165 = CARTESIAN_POINT('',(2.5,41.700540505513,-45.84608890172));
#166 = CARTESIAN_POINT('',(2.5,49.008701741882,-44.75171859499));
#167 = CARTESIAN_POINT('',(2.5,59.202375486183,-42.81172764054));
#168 = CARTESIAN_POINT('',(2.5,67.734664411789,-40.40642470112));
#169 = CARTESIAN_POINT('',(2.5,70.366250750196,-39.5524260902));
#170 = CARTESIAN_POINT('',(2.5,72.755215821464,-38.64158181271));
#171 = CARTESIAN_POINT('',(2.5,74.880188429327,-37.6830237762));
#172 = CARTESIAN_POINT('',(2.5,76.704926240251,-36.65191228727));
#173 = CARTESIAN_POINT('',(2.5,78.211095533559,-35.57495206062));
#174 = CARTESIAN_POINT('',(2.5,79.966107564303,-33.82092618797));
#175 = CARTESIAN_POINT('',(2.5,80.824962456611,-31.84247898245));
#176 = CARTESIAN_POINT('',(2.5,81.004388588095,-31.1578681039));
#177 = CARTESIAN_POINT('',(2.5,81.066218167492,-30.44598303743));
#178 = CARTESIAN_POINT('',(2.5,80.999652630259,-29.72286988779));
#179 = CARTESIAN_POINT('',(2.5,80.807095137527,-29.00030308961));
#180 = CARTESIAN_POINT('',(2.5,80.497417042836,-28.27644196708));
#181 = CARTESIAN_POINT('',(2.5,79.636817477539,-26.82221246338));
#182 = CARTESIAN_POINT('',(2.5,78.289028649569,-25.34684817858));
#183 = CARTESIAN_POINT('',(2.5,77.491466457099,-24.60159750198));
#184 = CARTESIAN_POINT('',(2.5,76.566889704869,-23.84678125982));
#185 = CARTESIAN_POINT('',(2.5,75.511309922951,-23.08085543268));
#186 = CARTESIAN_POINT('',(2.5,74.320647024308,-22.30277600526));
#187 = CARTESIAN_POINT('',(2.5,72.990994817468,-21.51192774647));
#188 = CARTESIAN_POINT('',(2.5,71.518601961065,-20.7079347774));
#189 = CARTESIAN_POINT('',(2.5,69.899568359537,-19.89035292712));
#190 = DEFINITIONAL_REPRESENTATION('',(#191),#194);
#191 = B_SPLINE_CURVE_WITH_KNOTS('',1,(#192,#193),.UNSPECIFIED.,.F.,.F.,
  (2,2),(0.,5.),.PIECEWISE_BEZIER_KNOTS.);
#192 = CARTESIAN_POINT('',(0.,0.));
#193 = CARTESIAN_POINT('',(5.,0.));
#194 = ( GEOMETRIC_REPRESENTATION_CONTEXT(2) 
PARAMETRIC_REPRESENTATION_CONTEXT() REPRESENTATION_CONTEXT('2D SPACE',''
  ) );
#195 = ADVANCED_FACE('',(#196),#102,.F.);
#196 = FACE_BOUND('',#197,.F.);
#197 = EDGE_LOOP('',(#198,#199,#219,#250,#391,#480,#511,#536,#567,#657)
  );
#198 = ORIENTED_EDGE('',*,*,#84,.F.);
#199 = ORIENTED_EDGE('',*,*,#200,.T.);
#200 = EDGE_CURVE('',#60,#201,#203,.T.);
#201 = VERTEX_POINT('',#202);
#202 = CARTESIAN_POINT('',(2.5,-30.,-47.5));
#203 = SURFACE_CURVE('',#204,(#207,#213),.PCURVE_S1.);
#204 = B_SPLINE_CURVE_WITH_KNOTS('',1,(#205,#206),.UNSPECIFIED.,.F.,.F.,
  (2,2),(0.,1.),.PIECEWISE_BEZIER_KNOTS.);
#205 = CARTESIAN_POINT('',(2.5,-30.,-48.5));
#206 = CARTESIAN_POINT('',(2.5,-30.,-47.5));
#207 = PCURVE('',#102,#208);
#208 = DEFINITIONAL_REPRESENTATION('',(#209),#212);
#209 = B_SPLINE_CURVE_WITH_KNOTS('',1,(#210,#211),.UNSPECIFIED.,.F.,.F.,
  (2,2),(0.,1.),.PIECEWISE_BEZIER_KNOTS.);
#210 = CARTESIAN_POINT('',(-0.5,-15.));
#211 = CARTESIAN_POINT('',(0.5,-15.));
#212 = ( GEOMETRIC_REPRESENTATION_CONTEXT(2) 
PARAMETRIC_REPRESENTATION_CONTEXT() REPRESENTATION_CONTEXT('2D SPACE',''
  ) );
#213 = PCURVE('',#73,#214);
#214 = DEFINITIONAL_REPRESENTATION('',(#215),#218);
#215 = B_SPLINE_CURVE_WITH_KNOTS('',1,(#216,#217),.UNSPECIFIED.,.F.,.F.,
  (2,2),(0.,1.),.PIECEWISE_BEZIER_KNOTS.);
#216 = CARTESIAN_POINT('',(0.5,2.5));
#217 = CARTESIAN_POINT('',(-0.5,2.5));
#218 = ( GEOMETRIC_REPRESENTATION_CONTEXT(2) 
PARAMETRIC_REPRESENTATION_CONTEXT() REPRESENTATION_CONTEXT('2D SPACE',''
  ) );
#219 = ORIENTED_EDGE('',*,*,#220,.T.);
#220 = EDGE_CURVE('',#201,#221,#223,.T.);
#221 = VERTEX_POINT('',#222);
#222 = CARTESIAN_POINT('',(2.5,3.552713678801E-15,-47.5));
#223 = SURFACE_CURVE('',#224,(#229,#237),.PCURVE_S1.);
#224 = B_SPLINE_CURVE_WITH_KNOTS('',3,(#225,#226,#227,#228),
  .UNSPECIFIED.,.F.,.F.,(4,4),(0.,1.),.PIECEWISE_BEZIER_KNOTS.);
#225 = CARTESIAN_POINT('',(2.5,-30.,-47.5));
#226 = CARTESIAN_POINT('',(2.5,-29.9,-47.5));
#227 = CARTESIAN_POINT('',(2.5,-1.E-01,-47.5));
#228 = CARTESIAN_POINT('',(2.5,8.881784197001E-15,-47.5));
#229 = PCURVE('',#102,#230);
#230 = DEFINITIONAL_REPRESENTATION('',(#231),#236);
#231 = B_SPLINE_CURVE_WITH_KNOTS('',3,(#232,#233,#234,#235),
  .UNSPECIFIED.,.F.,.F.,(4,4),(0.,1.),.PIECEWISE_BEZIER_KNOTS.);
#232 = CARTESIAN_POINT('',(0.5,-15.));
#233 = CARTESIAN_POINT('',(0.5,-14.9));
#234 = CARTESIAN_POINT('',(0.5,14.9));
#235 = CARTESIAN_POINT('',(0.5,15.));
#236 = ( GEOMETRIC_REPRESENTATION_CONTEXT(2) 
PARAMETRIC_REPRESENTATION_CONTEXT() REPRESENTATION_CONTEXT('2D SPACE',''
  ) );
#237 = PCURVE('',#238,#243);
#238 = PLANE('',#239);
#239 = AXIS2_PLACEMENT_3D('',#240,#241,#242);
#240 = CARTESIAN_POINT('',(0.,-15.,-47.5));
#241 = DIRECTION('',(1.996566364946E-16,-9.095667146653E-18,-1.));
#242 = DIRECTION('',(-1.,5.020246460857E-19,-1.996566364946E-16));
#243 = DEFINITIONAL_REPRESENTATION('',(#244),#249);
#244 = B_SPLINE_CURVE_WITH_KNOTS('',3,(#245,#246,#247,#248),
  .UNSPECIFIED.,.F.,.F.,(4,4),(0.,1.),.PIECEWISE_BEZIER_KNOTS.);
#245 = CARTESIAN_POINT('',(-2.5,-15.));
#246 = CARTESIAN_POINT('',(-2.5,-14.9));
#247 = CARTESIAN_POINT('',(-2.5,14.9));
#248 = CARTESIAN_POINT('',(-2.5,15.));
#249 = ( GEOMETRIC_REPRESENTATION_CONTEXT(2) 
PARAMETRIC_REPRESENTATION_CONTEXT() REPRESENTATION_CONTEXT('2D SPACE',''
  ) );
#250 = ORIENTED_EDGE('',*,*,#251,.T.);
#251 = EDGE_CURVE('',#221,#252,#254,.T.);
#252 = VERTEX_POINT('',#253);
#253 = CARTESIAN_POINT('',(2.5,69.448801019592,-20.78299440344));
#254 = SURFACE_CURVE('',#255,(#287,#322),.PCURVE_S1.);
#255 = B_SPLINE_CURVE_WITH_KNOTS('',9,(#256,#257,#258,#259,#260,#261,
    #262,#263,#264,#265,#266,#267,#268,#269,#270,#271,#272,#273,#274,
    #275,#276,#277,#278,#279,#280,#281,#282,#283,#284,#285,#286),
  .UNSPECIFIED.,.F.,.F.,(10,7,7,7,10),(0.,0.5,0.75,0.875,1.),
  .UNSPECIFIED.);
#256 = CARTESIAN_POINT('',(2.5,-1.42108547152E-14,-47.5));
#257 = CARTESIAN_POINT('',(2.5,5.514973124809,-47.5));
#258 = CARTESIAN_POINT('',(2.5,11.906939102834,-47.3299136478));
#259 = CARTESIAN_POINT('',(2.5,18.940726117265,-46.9848174273));
#260 = CARTESIAN_POINT('',(2.5,26.384634749241,-46.45992724867));
#261 = CARTESIAN_POINT('',(2.5,34.006663404642,-45.7509370474));
#262 = CARTESIAN_POINT('',(2.5,41.574229536528,-44.85351834703));
#263 = CARTESIAN_POINT('',(2.5,48.854993366924,-43.76293952034));
#264 = CARTESIAN_POINT('',(2.5,58.99708953397,-41.83067546662));
#265 = CARTESIAN_POINT('',(2.5,67.437497325731,-39.45065042522));
#266 = CARTESIAN_POINT('',(2.5,70.031932501516,-38.60693015609));
#267 = CARTESIAN_POINT('',(2.5,72.379575627242,-37.71628899984));
#268 = CARTESIAN_POINT('',(2.5,74.443928640248,-36.76843804833));
#269 = CARTESIAN_POINT('',(2.5,76.203364615128,-35.78705999438));
#270 = CARTESIAN_POINT('',(2.5,77.618348013633,-34.74429312268));
#271 = CARTESIAN_POINT('',(2.5,79.163729491217,-33.15613651375));
#272 = CARTESIAN_POINT('',(2.5,79.853058980558,-31.54591023526));
#273 = CARTESIAN_POINT('',(2.5,79.987770749292,-31.00676410491));
#274 = CARTESIAN_POINT('',(2.5,80.030921852414,-30.46721502318));
#275 = CARTESIAN_POINT('',(2.5,79.986077197106,-29.91107226023));
#276 = CARTESIAN_POINT('',(2.5,79.84359996486,-29.32641675638));
#277 = CARTESIAN_POINT('',(2.5,79.587385144781,-28.71494456235));
#278 = CARTESIAN_POINT('',(2.5,78.840015186204,-27.44199615372));
#279 = CARTESIAN_POINT('',(2.5,77.598532472184,-26.07658146751));
#280 = CARTESIAN_POINT('',(2.5,76.848899731753,-25.37289776886));
#281 = CARTESIAN_POINT('',(2.5,75.966488731838,-24.65009012095));
#282 = CARTESIAN_POINT('',(2.5,74.948054284953,-23.90955791813));
#283 = CARTESIAN_POINT('',(2.5,73.790442820825,-23.15220055062));
#284 = CARTESIAN_POINT('',(2.5,72.490326873509,-22.37848862444));
#285 = CARTESIAN_POINT('',(2.5,71.044224127038,-21.58865339343));
#286 = CARTESIAN_POINT('',(2.5,69.448801019592,-20.78299440344));
#287 = PCURVE('',#102,#288);
#288 = DEFINITIONAL_REPRESENTATION('',(#289),#321);
#289 = B_SPLINE_CURVE_WITH_KNOTS('',9,(#290,#291,#292,#293,#294,#295,
    #296,#297,#298,#299,#300,#301,#302,#303,#304,#305,#306,#307,#308,
    #309,#310,#311,#312,#313,#314,#315,#316,#317,#318,#319,#320),
  .UNSPECIFIED.,.F.,.F.,(10,7,7,7,10),(0.,0.5,0.75,0.875,1.),
  .UNSPECIFIED.);
#290 = CARTESIAN_POINT('',(0.5,15.));
#291 = CARTESIAN_POINT('',(0.5,20.514973124809));
#292 = CARTESIAN_POINT('',(0.670086352199,26.906939102834));
#293 = CARTESIAN_POINT('',(1.015182572696,33.940726117265));
#294 = CARTESIAN_POINT('',(1.540072751323,41.384634749241));
#295 = CARTESIAN_POINT('',(2.249062952593,49.006663404642));
#296 = CARTESIAN_POINT('',(3.146481652963,56.574229536528));
#297 = CARTESIAN_POINT('',(4.237060479656,63.854993366924));
#298 = CARTESIAN_POINT('',(6.169324533373,73.99708953397));
#299 = CARTESIAN_POINT('',(8.549349574779,82.437497325731));
#300 = CARTESIAN_POINT('',(9.393069843907,85.031932501516));
#301 = CARTESIAN_POINT('',(10.283711000153,87.379575627242));
#302 = CARTESIAN_POINT('',(11.23156195167,89.443928640248));
#303 = CARTESIAN_POINT('',(12.21294000562,91.203364615128));
#304 = CARTESIAN_POINT('',(13.25570687732,92.618348013633));
#305 = CARTESIAN_POINT('',(14.843863486247,94.163729491217));
#306 = CARTESIAN_POINT('',(16.454089764739,94.853058980558));
#307 = CARTESIAN_POINT('',(16.99323589509,94.987770749292));
#308 = CARTESIAN_POINT('',(17.532784976816,95.030921852414));
#309 = CARTESIAN_POINT('',(18.088927739762,94.986077197106));
#310 = CARTESIAN_POINT('',(18.673583243615,94.84359996486));
#311 = CARTESIAN_POINT('',(19.285055437647,94.587385144781));
#312 = CARTESIAN_POINT('',(20.558003846271,93.840015186204));
#313 = CARTESIAN_POINT('',(21.923418532485,92.598532472184));
#314 = CARTESIAN_POINT('',(22.627102231132,91.848899731753));
#315 = CARTESIAN_POINT('',(23.349909879045,90.966488731838));
#316 = CARTESIAN_POINT('',(24.090442081869,89.948054284953));
#317 = CARTESIAN_POINT('',(24.847799449377,88.790442820825));
#318 = CARTESIAN_POINT('',(25.621511375559,87.490326873509));
#319 = CARTESIAN_POINT('',(26.411346606569,86.044224127038));
#320 = CARTESIAN_POINT('',(27.217005596559,84.448801019592));
#321 = ( GEOMETRIC_REPRESENTATION_CONTEXT(2) 
PARAMETRIC_REPRESENTATION_CONTEXT() REPRESENTATION_CONTEXT('2D SPACE',''
  ) );
#322 = PCURVE('',#323,#386);
#323 = B_SPLINE_SURFACE_WITH_KNOTS('',1,9,(
    (#324,#325,#326,#327,#328,#329,#330,#331,#332,#333,#334,#335,#336
      ,#337,#338,#339,#340,#341,#342,#343,#344,#345,#346,#347,#348,#349
      ,#350,#351,#352,#353,#354)
    ,(#355,#356,#357,#358,#359,#360,#361,#362,#363,#364,#365,#366,#367
      ,#368,#369,#370,#371,#372,#373,#374,#375,#376,#377,#378,#379,#380
      ,#381,#382,#383,#384,#385
    )),.UNSPECIFIED.,.F.,.F.,.F.,(2,2),(10,7,7,7,10),(0.,5.),(0.,0.5,
    0.75,0.875,1.),.UNSPECIFIED.);
#324 = CARTESIAN_POINT('',(2.5,-1.42108547152E-14,-47.5));
#325 = CARTESIAN_POINT('',(2.5,5.514973124809,-47.5));
#326 = CARTESIAN_POINT('',(2.5,11.906939102834,-47.3299136478));
#327 = CARTESIAN_POINT('',(2.5,18.940726117265,-46.9848174273));
#328 = CARTESIAN_POINT('',(2.5,26.384634749241,-46.45992724867));
#329 = CARTESIAN_POINT('',(2.5,34.006663404642,-45.7509370474));
#330 = CARTESIAN_POINT('',(2.5,41.574229536528,-44.85351834703));
#331 = CARTESIAN_POINT('',(2.5,48.854993366924,-43.76293952034));
#332 = CARTESIAN_POINT('',(2.5,58.99708953397,-41.83067546662));
#333 = CARTESIAN_POINT('',(2.5,67.437497325731,-39.45065042522));
#334 = CARTESIAN_POINT('',(2.5,70.031932501516,-38.60693015609));
#335 = CARTESIAN_POINT('',(2.5,72.379575627242,-37.71628899984));
#336 = CARTESIAN_POINT('',(2.5,74.443928640248,-36.76843804833));
#337 = CARTESIAN_POINT('',(2.5,76.203364615128,-35.78705999438));
#338 = CARTESIAN_POINT('',(2.5,77.618348013633,-34.74429312268));
#339 = CARTESIAN_POINT('',(2.5,79.163729491217,-33.15613651375));
#340 = CARTESIAN_POINT('',(2.5,79.853058980558,-31.54591023526));
#341 = CARTESIAN_POINT('',(2.5,79.987770749292,-31.00676410491));
#342 = CARTESIAN_POINT('',(2.5,80.030921852414,-30.46721502318));
#343 = CARTESIAN_POINT('',(2.5,79.986077197106,-29.91107226023));
#344 = CARTESIAN_POINT('',(2.5,79.84359996486,-29.32641675638));
#345 = CARTESIAN_POINT('',(2.5,79.587385144781,-28.71494456235));
#346 = CARTESIAN_POINT('',(2.5,78.840015186204,-27.44199615372));
#347 = CARTESIAN_POINT('',(2.5,77.598532472184,-26.07658146751));
#348 = CARTESIAN_POINT('',(2.5,76.848899731753,-25.37289776886));
#349 = CARTESIAN_POINT('',(2.5,75.966488731838,-24.65009012095));
#350 = CARTESIAN_POINT('',(2.5,74.948054284953,-23.90955791813));
#351 = CARTESIAN_POINT('',(2.5,73.790442820825,-23.15220055062));
#352 = CARTESIAN_POINT('',(2.5,72.490326873509,-22.37848862444));
#353 = CARTESIAN_POINT('',(2.5,71.044224127038,-21.58865339343));
#354 = CARTESIAN_POINT('',(2.5,69.448801019592,-20.78299440344));
#355 = CARTESIAN_POINT('',(-2.5,-1.42108547152E-14,-47.5));
#356 = CARTESIAN_POINT('',(-2.5,5.514973124809,-47.5));
#357 = CARTESIAN_POINT('',(-2.5,11.906939102834,-47.3299136478));
#358 = CARTESIAN_POINT('',(-2.5,18.940726117265,-46.9848174273));
#359 = CARTESIAN_POINT('',(-2.5,26.384634749241,-46.45992724867));
#360 = CARTESIAN_POINT('',(-2.5,34.006663404642,-45.7509370474));
#361 = CARTESIAN_POINT('',(-2.5,41.574229536528,-44.85351834703));
#362 = CARTESIAN_POINT('',(-2.5,48.854993366924,-43.76293952034));
#363 = CARTESIAN_POINT('',(-2.5,58.99708953397,-41.83067546662));
#364 = CARTESIAN_POINT('',(-2.5,67.437497325731,-39.45065042522));
#365 = CARTESIAN_POINT('',(-2.5,70.031932501516,-38.60693015609));
#366 = CARTESIAN_POINT('',(-2.5,72.379575627242,-37.71628899984));
#367 = CARTESIAN_POINT('',(-2.5,74.443928640248,-36.76843804833));
#368 = CARTESIAN_POINT('',(-2.5,76.203364615128,-35.78705999438));
#369 = CARTESIAN_POINT('',(-2.5,77.618348013633,-34.74429312268));
#370 = CARTESIAN_POINT('',(-2.5,79.163729491217,-33.15613651375));
#371 = CARTESIAN_POINT('',(-2.5,79.853058980558,-31.54591023526));
#372 = CARTESIAN_POINT('',(-2.5,79.987770749292,-31.00676410491));
#373 = CARTESIAN_POINT('',(-2.5,80.030921852414,-30.46721502318));
#374 = CARTESIAN_POINT('',(-2.5,79.986077197106,-29.91107226023));
#375 = CARTESIAN_POINT('',(-2.5,79.84359996486,-29.32641675638));
#376 = CARTESIAN_POINT('',(-2.5,79.587385144781,-28.71494456235));
#377 = CARTESIAN_POINT('',(-2.5,78.840015186204,-27.44199615372));
#378 = CARTESIAN_POINT('',(-2.5,77.598532472184,-26.07658146751));
#379 = CARTESIAN_POINT('',(-2.5,76.848899731753,-25.37289776886));
#380 = CARTESIAN_POINT('',(-2.5,75.966488731838,-24.65009012095));
#381 = CARTESIAN_POINT('',(-2.5,74.948054284953,-23.90955791813));
#382 = CARTESIAN_POINT('',(-2.5,73.790442820825,-23.15220055062));
#383 = CARTESIAN_POINT('',(-2.5,72.490326873509,-22.37848862444));
#384 = CARTESIAN_POINT('',(-2.5,71.044224127038,-21.58865339343));
#385 = CARTESIAN_POINT('',(-2.5,69.448801019592,-20.78299440344));
#386 = DEFINITIONAL_REPRESENTATION('',(#387),#390);
#387 = B_SPLINE_CURVE_WITH_KNOTS('',1,(#388,#389),.UNSPECIFIED.,.F.,.F.,
  (2,2),(0.,1.),.PIECEWISE_BEZIER_KNOTS.);
#388 = CARTESIAN_POINT('',(0.,0.));
#389 = CARTESIAN_POINT('',(0.,1.));
#390 = ( GEOMETRIC_REPRESENTATION_CONTEXT(2) 
PARAMETRIC_REPRESENTATION_CONTEXT() REPRESENTATION_CONTEXT('2D SPACE',''
  ) );
#391 = ORIENTED_EDGE('',*,*,#392,.T.);
#392 = EDGE_CURVE('',#252,#393,#395,.T.);
#393 = VERTEX_POINT('',#394);
#394 = CARTESIAN_POINT('',(2.5,122.,40.5));
#395 = SURFACE_CURVE('',#396,(#415,#437),.PCURVE_S1.);
#396 = B_SPLINE_CURVE_WITH_KNOTS('',7,(#397,#398,#399,#400,#401,#402,
    #403,#404,#405,#406,#407,#408,#409,#410,#411,#412,#413,#414),
  .UNSPECIFIED.,.F.,.F.,(8,5,5,8),(0.,0.25,0.5,1.),.UNSPECIFIED.);
#397 = CARTESIAN_POINT('',(2.5,69.448801019592,-20.78299440344));
#398 = CARTESIAN_POINT('',(2.5,65.322164925989,-18.69911994298));
#399 = CARTESIAN_POINT('',(2.5,61.956849130762,-16.41103288869));
#400 = CARTESIAN_POINT('',(2.5,59.313789492025,-13.94296498821));
#401 = CARTESIAN_POINT('',(2.5,57.348926569943,-11.31751117037));
#402 = CARTESIAN_POINT('',(2.5,56.046496677122,-8.552601485852));
#403 = CARTESIAN_POINT('',(2.5,54.697572199976,-2.853968926169));
#404 = CARTESIAN_POINT('',(2.5,55.673958228699,3.035177356231));
#405 = CARTESIAN_POINT('',(2.5,56.697666417724,5.988920421839));
#406 = CARTESIAN_POINT('',(2.5,58.203218228551,8.925763818895));
#407 = CARTESIAN_POINT('',(2.5,60.151095311563,11.824195775854));
#408 = CARTESIAN_POINT('',(2.5,67.194566148665,20.324095346521));
#409 = CARTESIAN_POINT('',(2.5,77.472633691673,28.003677158362));
#410 = CARTESIAN_POINT('',(2.5,85.43678316224,32.548825647106));
#411 = CARTESIAN_POINT('',(2.5,94.194760587356,36.295614474146));
#412 = CARTESIAN_POINT('',(2.5,103.42107384011,39.021359833016));
#413 = CARTESIAN_POINT('',(2.5,112.79736497571,40.5));
#414 = CARTESIAN_POINT('',(2.5,122.,40.5));
#415 = PCURVE('',#102,#416);
#416 = DEFINITIONAL_REPRESENTATION('',(#417),#436);
#417 = B_SPLINE_CURVE_WITH_KNOTS('',7,(#418,#419,#420,#421,#422,#423,
    #424,#425,#426,#427,#428,#429,#430,#431,#432,#433,#434,#435),
  .UNSPECIFIED.,.F.,.F.,(8,5,5,8),(0.,0.25,0.5,1.),.UNSPECIFIED.);
#418 = CARTESIAN_POINT('',(27.217005596559,84.448801019592));
#419 = CARTESIAN_POINT('',(29.300880057014,80.322164925989));
#420 = CARTESIAN_POINT('',(31.588967111306,76.956849130762));
#421 = CARTESIAN_POINT('',(34.057035011783,74.313789492025));
#422 = CARTESIAN_POINT('',(36.68248882963,72.348926569943));
#423 = CARTESIAN_POINT('',(39.447398514148,71.046496677122));
#424 = CARTESIAN_POINT('',(45.146031073831,69.697572199976));
#425 = CARTESIAN_POINT('',(51.035177356231,70.673958228699));
#426 = CARTESIAN_POINT('',(53.988920421839,71.697666417724));
#427 = CARTESIAN_POINT('',(56.925763818895,73.203218228551));
#428 = CARTESIAN_POINT('',(59.824195775854,75.151095311563));
#429 = CARTESIAN_POINT('',(68.324095346521,82.194566148665));
#430 = CARTESIAN_POINT('',(76.003677158362,92.472633691673));
#431 = CARTESIAN_POINT('',(80.548825647106,100.43678316224));
#432 = CARTESIAN_POINT('',(84.295614474146,109.19476058735));
#433 = CARTESIAN_POINT('',(87.021359833016,118.42107384011));
#434 = CARTESIAN_POINT('',(88.5,127.79736497571));
#435 = CARTESIAN_POINT('',(88.5,137.));
#436 = ( GEOMETRIC_REPRESENTATION_CONTEXT(2) 
PARAMETRIC_REPRESENTATION_CONTEXT() REPRESENTATION_CONTEXT('2D SPACE',''
  ) );
#437 = PCURVE('',#438,#475);
#438 = B_SPLINE_SURFACE_WITH_KNOTS('',1,7,(
    (#439,#440,#441,#442,#443,#444,#445,#446,#447,#448,#449,#450,#451
      ,#452,#453,#454,#455,#456)
    ,(#457,#458,#459,#460,#461,#462,#463,#464,#465,#466,#467,#468,#469
      ,#470,#471,#472,#473,#474
    )),.UNSPECIFIED.,.F.,.F.,.F.,(2,2),(8,5,5,8),(0.,5.),(0.,0.25,0.5,1.
    ),.UNSPECIFIED.);
#439 = CARTESIAN_POINT('',(2.5,69.448801019592,-20.78299440344));
#440 = CARTESIAN_POINT('',(2.5,65.322164925989,-18.69911994298));
#441 = CARTESIAN_POINT('',(2.5,61.956849130762,-16.41103288869));
#442 = CARTESIAN_POINT('',(2.5,59.313789492025,-13.94296498821));
#443 = CARTESIAN_POINT('',(2.5,57.348926569943,-11.31751117037));
#444 = CARTESIAN_POINT('',(2.5,56.046496677122,-8.552601485852));
#445 = CARTESIAN_POINT('',(2.5,54.697572199976,-2.853968926169));
#446 = CARTESIAN_POINT('',(2.5,55.673958228699,3.035177356231));
#447 = CARTESIAN_POINT('',(2.5,56.697666417724,5.988920421839));
#448 = CARTESIAN_POINT('',(2.5,58.203218228551,8.925763818895));
#449 = CARTESIAN_POINT('',(2.5,60.151095311563,11.824195775854));
#450 = CARTESIAN_POINT('',(2.5,67.194566148665,20.324095346521));
#451 = CARTESIAN_POINT('',(2.5,77.472633691673,28.003677158362));
#452 = CARTESIAN_POINT('',(2.5,85.43678316224,32.548825647106));
#453 = CARTESIAN_POINT('',(2.5,94.194760587356,36.295614474146));
#454 = CARTESIAN_POINT('',(2.5,103.42107384011,39.021359833016));
#455 = CARTESIAN_POINT('',(2.5,112.79736497571,40.5));
#456 = CARTESIAN_POINT('',(2.5,122.,40.5));
#457 = CARTESIAN_POINT('',(-2.5,69.448801019592,-20.78299440344));
#458 = CARTESIAN_POINT('',(-2.5,65.322164925989,-18.69911994298));
#459 = CARTESIAN_POINT('',(-2.5,61.956849130762,-16.41103288869));
#460 = CARTESIAN_POINT('',(-2.5,59.313789492025,-13.94296498821));
#461 = CARTESIAN_POINT('',(-2.5,57.348926569943,-11.31751117037));
#462 = CARTESIAN_POINT('',(-2.5,56.046496677122,-8.552601485852));
#463 = CARTESIAN_POINT('',(-2.5,54.697572199976,-2.853968926169));
#464 = CARTESIAN_POINT('',(-2.5,55.673958228699,3.035177356231));
#465 = CARTESIAN_POINT('',(-2.5,56.697666417724,5.988920421839));
#466 = CARTESIAN_POINT('',(-2.5,58.203218228551,8.925763818895));
#467 = CARTESIAN_POINT('',(-2.5,60.151095311563,11.824195775854));
#468 = CARTESIAN_POINT('',(-2.5,67.194566148665,20.324095346521));
#469 = CARTESIAN_POINT('',(-2.5,77.472633691673,28.003677158362));
#470 = CARTESIAN_POINT('',(-2.5,85.43678316224,32.548825647106));
#471 = CARTESIAN_POINT('',(-2.5,94.194760587356,36.295614474146));
#472 = CARTESIAN_POINT('',(-2.5,103.42107384011,39.021359833016));
#473 = CARTESIAN_POINT('',(-2.5,112.79736497571,40.5));
#474 = CARTESIAN_POINT('',(-2.5,122.,40.5));
#475 = DEFINITIONAL_REPRESENTATION('',(#476),#479);
#476 = B_SPLINE_CURVE_WITH_KNOTS('',1,(#477,#478),.UNSPECIFIED.,.F.,.F.,
  (2,2),(0.,1.),.PIECEWISE_BEZIER_KNOTS.);
#477 = CARTESIAN_POINT('',(0.,0.));
#478 = CARTESIAN_POINT('',(0.,1.));
#479 = ( GEOMETRIC_REPRESENTATION_CONTEXT(2) 
PARAMETRIC_REPRESENTATION_CONTEXT() REPRESENTATION_CONTEXT('2D SPACE',''
  ) );
#480 = ORIENTED_EDGE('',*,*,#481,.T.);
#481 = EDGE_CURVE('',#393,#482,#484,.T.);
#482 = VERTEX_POINT('',#483);
#483 = CARTESIAN_POINT('',(2.5,137.,40.5));
#484 = SURFACE_CURVE('',#485,(#490,#498),.PCURVE_S1.);
#485 = B_SPLINE_CURVE_WITH_KNOTS('',3,(#486,#487,#488,#489),
  .UNSPECIFIED.,.F.,.F.,(4,4),(0.,1.),.PIECEWISE_BEZIER_KNOTS.);
#486 = CARTESIAN_POINT('',(2.5,122.,40.5));
#487 = CARTESIAN_POINT('',(2.5,122.1,40.5));
#488 = CARTESIAN_POINT('',(2.5,136.9,40.5));
#489 = CARTESIAN_POINT('',(2.5,137.,40.5));
#490 = PCURVE('',#102,#491);
#491 = DEFINITIONAL_REPRESENTATION('',(#492),#497);
#492 = B_SPLINE_CURVE_WITH_KNOTS('',3,(#493,#494,#495,#496),
  .UNSPECIFIED.,.F.,.F.,(4,4),(0.,1.),.PIECEWISE_BEZIER_KNOTS.);
#493 = CARTESIAN_POINT('',(88.5,137.));
#494 = CARTESIAN_POINT('',(88.5,137.1));
#495 = CARTESIAN_POINT('',(88.5,151.9));
#496 = CARTESIAN_POINT('',(88.5,152.));
#497 = ( GEOMETRIC_REPRESENTATION_CONTEXT(2) 
PARAMETRIC_REPRESENTATION_CONTEXT() REPRESENTATION_CONTEXT('2D SPACE',''
  ) );
#498 = PCURVE('',#499,#504);
#499 = PLANE('',#500);
#500 = AXIS2_PLACEMENT_3D('',#501,#502,#503);
#501 = CARTESIAN_POINT('',(0.,129.5,40.5));
#502 = DIRECTION('',(5.177555896249E-32,9.184356430369E-17,-1.));
#503 = DIRECTION('',(-1.,-5.165465746943E-17,-5.651970681737E-32));
#504 = DEFINITIONAL_REPRESENTATION('',(#505),#510);
#505 = B_SPLINE_CURVE_WITH_KNOTS('',3,(#506,#507,#508,#509),
  .UNSPECIFIED.,.F.,.F.,(4,4),(0.,1.),.PIECEWISE_BEZIER_KNOTS.);
#506 = CARTESIAN_POINT('',(-2.5,-7.5));
#507 = CARTESIAN_POINT('',(-2.5,-7.4));
#508 = CARTESIAN_POINT('',(-2.5,7.4));
#509 = CARTESIAN_POINT('',(-2.5,7.5));
#510 = ( GEOMETRIC_REPRESENTATION_CONTEXT(2) 
PARAMETRIC_REPRESENTATION_CONTEXT() REPRESENTATION_CONTEXT('2D SPACE',''
  ) );
#511 = ORIENTED_EDGE('',*,*,#512,.F.);
#512 = EDGE_CURVE('',#513,#482,#515,.T.);
#513 = VERTEX_POINT('',#514);
#514 = CARTESIAN_POINT('',(2.5,137.,39.5));
#515 = SURFACE_CURVE('',#516,(#519,#525),.PCURVE_S1.);
#516 = B_SPLINE_CURVE_WITH_KNOTS('',1,(#517,#518),.UNSPECIFIED.,.F.,.F.,
  (2,2),(0.,1.),.PIECEWISE_BEZIER_KNOTS.);
#517 = CARTESIAN_POINT('',(2.5,137.,39.5));
#518 = CARTESIAN_POINT('',(2.5,137.,40.5));
#519 = PCURVE('',#102,#520);
#520 = DEFINITIONAL_REPRESENTATION('',(#521),#524);
#521 = B_SPLINE_CURVE_WITH_KNOTS('',1,(#522,#523),.UNSPECIFIED.,.F.,.F.,
  (2,2),(0.,1.),.PIECEWISE_BEZIER_KNOTS.);
#522 = CARTESIAN_POINT('',(87.5,152.));
#523 = CARTESIAN_POINT('',(88.5,152.));
#524 = ( GEOMETRIC_REPRESENTATION_CONTEXT(2) 
PARAMETRIC_REPRESENTATION_CONTEXT() REPRESENTATION_CONTEXT('2D SPACE',''
  ) );
#525 = PCURVE('',#526,#531);
#526 = PLANE('',#527);
#527 = AXIS2_PLACEMENT_3D('',#528,#529,#530);
#528 = CARTESIAN_POINT('',(0.,137.,40.));
#529 = DIRECTION('',(-0.,-1.,-0.));
#530 = DIRECTION('',(0.,0.,-1.));
#531 = DEFINITIONAL_REPRESENTATION('',(#532),#535);
#532 = B_SPLINE_CURVE_WITH_KNOTS('',1,(#533,#534),.UNSPECIFIED.,.F.,.F.,
  (2,2),(0.,1.),.PIECEWISE_BEZIER_KNOTS.);
#533 = CARTESIAN_POINT('',(0.5,2.5));
#534 = CARTESIAN_POINT('',(-0.5,2.5));
#535 = ( GEOMETRIC_REPRESENTATION_CONTEXT(2) 
PARAMETRIC_REPRESENTATION_CONTEXT() REPRESENTATION_CONTEXT('2D SPACE',''
  ) );
#536 = ORIENTED_EDGE('',*,*,#537,.F.);
#537 = EDGE_CURVE('',#538,#513,#540,.T.);
#538 = VERTEX_POINT('',#539);
#539 = CARTESIAN_POINT('',(2.5,122.,39.5));
#540 = SURFACE_CURVE('',#541,(#546,#554),.PCURVE_S1.);
#541 = B_SPLINE_CURVE_WITH_KNOTS('',3,(#542,#543,#544,#545),
  .UNSPECIFIED.,.F.,.F.,(4,4),(0.,1.),.PIECEWISE_BEZIER_KNOTS.);
#542 = CARTESIAN_POINT('',(2.5,122.,39.5));
#543 = CARTESIAN_POINT('',(2.5,122.1,39.5));
#544 = CARTESIAN_POINT('',(2.5,136.9,39.5));
#545 = CARTESIAN_POINT('',(2.5,137.,39.5));
#546 = PCURVE('',#102,#547);
#547 = DEFINITIONAL_REPRESENTATION('',(#548),#553);
#548 = B_SPLINE_CURVE_WITH_KNOTS('',3,(#549,#550,#551,#552),
  .UNSPECIFIED.,.F.,.F.,(4,4),(0.,1.),.PIECEWISE_BEZIER_KNOTS.);
#549 = CARTESIAN_POINT('',(87.5,137.));
#550 = CARTESIAN_POINT('',(87.5,137.1));
#551 = CARTESIAN_POINT('',(87.5,151.9));
#552 = CARTESIAN_POINT('',(87.5,152.));
#553 = ( GEOMETRIC_REPRESENTATION_CONTEXT(2) 
PARAMETRIC_REPRESENTATION_CONTEXT() REPRESENTATION_CONTEXT('2D SPACE',''
  ) );
#554 = PCURVE('',#555,#560);
#555 = PLANE('',#556);
#556 = AXIS2_PLACEMENT_3D('',#557,#558,#559);
#557 = CARTESIAN_POINT('',(0.,129.5,39.5));
#558 = DIRECTION('',(-5.872254014546E-16,-3.282415502006E-16,1.));
#559 = DIRECTION('',(1.,-5.165465746943E-17,5.872254014546E-16));
#560 = DEFINITIONAL_REPRESENTATION('',(#561),#566);
#561 = B_SPLINE_CURVE_WITH_KNOTS('',3,(#562,#563,#564,#565),
  .UNSPECIFIED.,.F.,.F.,(4,4),(0.,1.),.PIECEWISE_BEZIER_KNOTS.);
#562 = CARTESIAN_POINT('',(2.5,-7.5));
#563 = CARTESIAN_POINT('',(2.5,-7.4));
#564 = CARTESIAN_POINT('',(2.5,7.4));
#565 = CARTESIAN_POINT('',(2.5,7.5));
#566 = ( GEOMETRIC_REPRESENTATION_CONTEXT(2) 
PARAMETRIC_REPRESENTATION_CONTEXT() REPRESENTATION_CONTEXT('2D SPACE',''
  ) );
#567 = ORIENTED_EDGE('',*,*,#568,.F.);
#568 = EDGE_CURVE('',#569,#538,#571,.T.);
#569 = VERTEX_POINT('',#570);
#570 = CARTESIAN_POINT('',(2.5,69.899568359537,-19.89035292712));
#571 = SURFACE_CURVE('',#572,(#591,#613),.PCURVE_S1.);
#572 = B_SPLINE_CURVE_WITH_KNOTS('',7,(#573,#574,#575,#576,#577,#578,
    #579,#580,#581,#582,#583,#584,#585,#586,#587,#588,#589,#590),
  .UNSPECIFIED.,.F.,.F.,(8,5,5,8),(0.,0.25,0.5,1.),.UNSPECIFIED.);
#573 = CARTESIAN_POINT('',(2.5,69.899568359537,-19.89035292712));
#574 = CARTESIAN_POINT('',(2.5,65.859899683469,-17.85039539469));
#575 = CARTESIAN_POINT('',(2.5,62.593203230245,-15.62451518707));
#576 = CARTESIAN_POINT('',(2.5,60.057197551153,-13.24467671683));
#577 = CARTESIAN_POINT('',(2.5,58.214596495408,-10.74448121535));
#578 = CARTESIAN_POINT('',(2.5,56.999818159811,-8.16219479215));
#579 = CARTESIAN_POINT('',(2.5,55.732146497705,-2.835733879988));
#580 = CARTESIAN_POINT('',(2.5,56.649422602487,2.736831181418));
#581 = CARTESIAN_POINT('',(2.5,57.618764457797,5.566902095497));
#582 = CARTESIAN_POINT('',(2.5,59.07113607828,8.410634825709));
#583 = CARTESIAN_POINT('',(2.5,60.964710222946,11.233344983391));
#584 = CARTESIAN_POINT('',(2.5,67.852139686164,19.549981238152));
#585 = CARTESIAN_POINT('',(2.5,77.992501979872,27.140498254406));
#586 = CARTESIAN_POINT('',(2.5,85.873220802882,31.638541037269));
#587 = CARTESIAN_POINT('',(2.5,94.541928682254,35.348499586396));
#588 = CARTESIAN_POINT('',(2.5,103.67335302003,38.043488426617));
#589 = CARTESIAN_POINT('',(2.5,112.93508703619,39.5));
#590 = CARTESIAN_POINT('',(2.5,122.,39.5));
#591 = PCURVE('',#102,#592);
#592 = DEFINITIONAL_REPRESENTATION('',(#593),#612);
#593 = B_SPLINE_CURVE_WITH_KNOTS('',7,(#594,#595,#596,#597,#598,#599,
    #600,#601,#602,#603,#604,#605,#606,#607,#608,#609,#610,#611),
  .UNSPECIFIED.,.F.,.F.,(8,5,5,8),(0.,0.25,0.5,1.),.UNSPECIFIED.);
#594 = CARTESIAN_POINT('',(28.109647072874,84.899568359537));
#595 = CARTESIAN_POINT('',(30.149604605308,80.859899683469));
#596 = CARTESIAN_POINT('',(32.375484812923,77.593203230245));
#597 = CARTESIAN_POINT('',(34.755323283163,75.057197551153));
#598 = CARTESIAN_POINT('',(37.255518784643,73.214596495408));
#599 = CARTESIAN_POINT('',(39.83780520785,71.999818159811));
#600 = CARTESIAN_POINT('',(45.164266120012,70.732146497705));
#601 = CARTESIAN_POINT('',(50.736831181418,71.649422602487));
#602 = CARTESIAN_POINT('',(53.566902095497,72.618764457797));
#603 = CARTESIAN_POINT('',(56.410634825709,74.07113607828));
#604 = CARTESIAN_POINT('',(59.233344983391,75.964710222946));
#605 = CARTESIAN_POINT('',(67.549981238152,82.852139686164));
#606 = CARTESIAN_POINT('',(75.140498254406,92.992501979872));
#607 = CARTESIAN_POINT('',(79.638541037269,100.87322080288));
#608 = CARTESIAN_POINT('',(83.348499586396,109.54192868225));
#609 = CARTESIAN_POINT('',(86.043488426617,118.67335302003));
#610 = CARTESIAN_POINT('',(87.5,127.93508703619));
#611 = CARTESIAN_POINT('',(87.5,137.));
#612 = ( GEOMETRIC_REPRESENTATION_CONTEXT(2) 
PARAMETRIC_REPRESENTATION_CONTEXT() REPRESENTATION_CONTEXT('2D SPACE',''
  ) );
#613 = PCURVE('',#614,#651);
#614 = B_SPLINE_SURFACE_WITH_KNOTS('',1,7,(
    (#615,#616,#617,#618,#619,#620,#621,#622,#623,#624,#625,#626,#627
      ,#628,#629,#630,#631,#632)
    ,(#633,#634,#635,#636,#637,#638,#639,#640,#641,#642,#643,#644,#645
      ,#646,#647,#648,#649,#650
    )),.UNSPECIFIED.,.F.,.F.,.F.,(2,2),(8,5,5,8),(0.,5.),(0.,0.25,0.5,1.
    ),.UNSPECIFIED.);
#615 = CARTESIAN_POINT('',(-2.5,69.899568359537,-19.89035292712));
#616 = CARTESIAN_POINT('',(-2.5,65.859899683469,-17.85039539469));
#617 = CARTESIAN_POINT('',(-2.5,62.593203230245,-15.62451518707));
#618 = CARTESIAN_POINT('',(-2.5,60.057197551153,-13.24467671683));
#619 = CARTESIAN_POINT('',(-2.5,58.214596495408,-10.74448121535));
#620 = CARTESIAN_POINT('',(-2.5,56.999818159811,-8.16219479215));
#621 = CARTESIAN_POINT('',(-2.5,55.732146497705,-2.835733879988));
#622 = CARTESIAN_POINT('',(-2.5,56.649422602487,2.736831181418));
#623 = CARTESIAN_POINT('',(-2.5,57.618764457797,5.566902095497));
#624 = CARTESIAN_POINT('',(-2.5,59.07113607828,8.410634825709));
#625 = CARTESIAN_POINT('',(-2.5,60.964710222946,11.233344983391));
#626 = CARTESIAN_POINT('',(-2.5,67.852139686164,19.549981238152));
#627 = CARTESIAN_POINT('',(-2.5,77.992501979872,27.140498254406));
#628 = CARTESIAN_POINT('',(-2.5,85.873220802882,31.638541037269));
#629 = CARTESIAN_POINT('',(-2.5,94.541928682254,35.348499586396));
#630 = CARTESIAN_POINT('',(-2.5,103.67335302003,38.043488426617));
#631 = CARTESIAN_POINT('',(-2.5,112.93508703619,39.5));
#632 = CARTESIAN_POINT('',(-2.5,122.,39.5));
#633 = CARTESIAN_POINT('',(2.5,69.899568359537,-19.89035292712));
#634 = CARTESIAN_POINT('',(2.5,65.859899683469,-17.85039539469));
#635 = CARTESIAN_POINT('',(2.5,62.593203230245,-15.62451518707));
#636 = CARTESIAN_POINT('',(2.5,60.057197551153,-13.24467671683));
#637 = CARTESIAN_POINT('',(2.5,58.214596495408,-10.74448121535));
#638 = CARTESIAN_POINT('',(2.5,56.999818159811,-8.16219479215));
#639 = CARTESIAN_POINT('',(2.5,55.732146497705,-2.835733879988));
#640 = CARTESIAN_POINT('',(2.5,56.649422602487,2.736831181418));
#641 = CARTESIAN_POINT('',(2.5,57.618764457797,5.566902095497));
#642 = CARTESIAN_POINT('',(2.5,59.07113607828,8.410634825709));
#643 = CARTESIAN_POINT('',(2.5,60.964710222946,11.233344983391));
#644 = CARTESIAN_POINT('',(2.5,67.852139686164,19.549981238152));
#645 = CARTESIAN_POINT('',(2.5,77.992501979872,27.140498254406));
#646 = CARTESIAN_POINT('',(2.5,85.873220802882,31.638541037269));
#647 = CARTESIAN_POINT('',(2.5,94.541928682254,35.348499586396));
#648 = CARTESIAN_POINT('',(2.5,103.67335302003,38.043488426617));
#649 = CARTESIAN_POINT('',(2.5,112.93508703619,39.5));
#650 = CARTESIAN_POINT('',(2.5,122.,39.5));
#651 = DEFINITIONAL_REPRESENTATION('',(#652),#656);
#652 = LINE('',#653,#654);
#653 = CARTESIAN_POINT('',(5.,0.));
#654 = VECTOR('',#655,1.);
#655 = DIRECTION('',(0.,1.));
#656 = ( GEOMETRIC_REPRESENTATION_CONTEXT(2) 
PARAMETRIC_REPRESENTATION_CONTEXT() REPRESENTATION_CONTEXT('2D SPACE',''
  ) );
#657 = ORIENTED_EDGE('',*,*,#658,.F.);
#658 = EDGE_CURVE('',#85,#569,#659,.T.);
#659 = SURFACE_CURVE('',#660,(#692,#727),.PCURVE_S1.);
#660 = B_SPLINE_CURVE_WITH_KNOTS('',9,(#661,#662,#663,#664,#665,#666,
    #667,#668,#669,#670,#671,#672,#673,#674,#675,#676,#677,#678,#679,
    #680,#681,#682,#683,#684,#685,#686,#687,#688,#689,#690,#691),
  .UNSPECIFIED.,.F.,.F.,(10,7,7,7,10),(0.,0.5,0.75,0.875,1.),
  .UNSPECIFIED.);
#661 = CARTESIAN_POINT('',(2.5,3.552713678801E-15,-48.5));
#662 = CARTESIAN_POINT('',(2.5,5.542387196501,-48.5));
#663 = CARTESIAN_POINT('',(2.5,11.95376084268,-48.32906817505));
#664 = CARTESIAN_POINT('',(2.5,19.006338683879,-47.98287203655));
#665 = CARTESIAN_POINT('',(2.5,26.468866067512,-47.45693966965));
#666 = CARTESIAN_POINT('',(2.5,34.110390516228,-46.7463211341));
#667 = CARTESIAN_POINT('',(2.5,41.700540505513,-45.84608890172));
#668 = CARTESIAN_POINT('',(2.5,49.008701741882,-44.75171859499));
#669 = CARTESIAN_POINT('',(2.5,59.202375486183,-42.81172764054));
#670 = CARTESIAN_POINT('',(2.5,67.734664411789,-40.40642470112));
#671 = CARTESIAN_POINT('',(2.5,70.366250750196,-39.5524260902));
#672 = CARTESIAN_POINT('',(2.5,72.755215821464,-38.64158181271));
#673 = CARTESIAN_POINT('',(2.5,74.880188429327,-37.6830237762));
#674 = CARTESIAN_POINT('',(2.5,76.704926240251,-36.65191228727));
#675 = CARTESIAN_POINT('',(2.5,78.211095533559,-35.57495206062));
#676 = CARTESIAN_POINT('',(2.5,79.966107564303,-33.82092618797));
#677 = CARTESIAN_POINT('',(2.5,80.824962456611,-31.84247898245));
#678 = CARTESIAN_POINT('',(2.5,81.004388588095,-31.1578681039));
#679 = CARTESIAN_POINT('',(2.5,81.066218167492,-30.44598303743));
#680 = CARTESIAN_POINT('',(2.5,80.999652630259,-29.72286988779));
#681 = CARTESIAN_POINT('',(2.5,80.807095137527,-29.00030308961));
#682 = CARTESIAN_POINT('',(2.5,80.497417042836,-28.27644196708));
#683 = CARTESIAN_POINT('',(2.5,79.636817477539,-26.82221246338));
#684 = CARTESIAN_POINT('',(2.5,78.289028649569,-25.34684817858));
#685 = CARTESIAN_POINT('',(2.5,77.491466457099,-24.60159750198));
#686 = CARTESIAN_POINT('',(2.5,76.566889704869,-23.84678125982));
#687 = CARTESIAN_POINT('',(2.5,75.511309922951,-23.08085543268));
#688 = CARTESIAN_POINT('',(2.5,74.320647024308,-22.30277600526));
#689 = CARTESIAN_POINT('',(2.5,72.990994817468,-21.51192774647));
#690 = CARTESIAN_POINT('',(2.5,71.518601961065,-20.7079347774));
#691 = CARTESIAN_POINT('',(2.5,69.899568359537,-19.89035292712));
#692 = PCURVE('',#102,#693);
#693 = DEFINITIONAL_REPRESENTATION('',(#694),#726);
#694 = B_SPLINE_CURVE_WITH_KNOTS('',9,(#695,#696,#697,#698,#699,#700,
    #701,#702,#703,#704,#705,#706,#707,#708,#709,#710,#711,#712,#713,
    #714,#715,#716,#717,#718,#719,#720,#721,#722,#723,#724,#725),
  .UNSPECIFIED.,.F.,.F.,(10,7,7,7,10),(0.,0.5,0.75,0.875,1.),
  .UNSPECIFIED.);
#695 = CARTESIAN_POINT('',(-0.5,15.));
#696 = CARTESIAN_POINT('',(-0.5,20.542387196501));
#697 = CARTESIAN_POINT('',(-0.329068175058,26.95376084268));
#698 = CARTESIAN_POINT('',(1.712796345012E-02,34.006338683879));
#699 = CARTESIAN_POINT('',(0.54306033035,41.468866067512));
#700 = CARTESIAN_POINT('',(1.253678865896,49.110390516228));
#701 = CARTESIAN_POINT('',(2.153911098271,56.700540505513));
#702 = CARTESIAN_POINT('',(3.248281405001,64.008701741882));
#703 = CARTESIAN_POINT('',(5.188272359455,74.202375486183));
#704 = CARTESIAN_POINT('',(7.593575298875,82.734664411789));
#705 = CARTESIAN_POINT('',(8.447573909794,85.366250750196));
#706 = CARTESIAN_POINT('',(9.358418187285,87.755215821464));
#707 = CARTESIAN_POINT('',(10.316976223791,89.880188429327));
#708 = CARTESIAN_POINT('',(11.348087712726,91.704926240251));
#709 = CARTESIAN_POINT('',(12.425047939371,93.211095533559));
#710 = CARTESIAN_POINT('',(14.179073812028,94.966107564303));
#711 = CARTESIAN_POINT('',(16.157521017542,95.824962456611));
#712 = CARTESIAN_POINT('',(16.842131896092,96.004388588095));
#713 = CARTESIAN_POINT('',(17.554016962568,96.066218167492));
#714 = CARTESIAN_POINT('',(18.27713011221,95.999652630259));
#715 = CARTESIAN_POINT('',(18.999696910389,95.807095137527));
#716 = CARTESIAN_POINT('',(19.72355803292,95.497417042836));
#717 = CARTESIAN_POINT('',(21.177787536615,94.636817477539));
#718 = CARTESIAN_POINT('',(22.653151821412,93.289028649568));
#719 = CARTESIAN_POINT('',(23.398402498016,92.491466457099));
#720 = CARTESIAN_POINT('',(24.153218740171,91.566889704869));
#721 = CARTESIAN_POINT('',(24.919144567314,90.511309922951));
#722 = CARTESIAN_POINT('',(25.697223994733,89.320647024308));
#723 = CARTESIAN_POINT('',(26.488072253522,87.990994817468));
#724 = CARTESIAN_POINT('',(27.292065222594,86.518601961065));
#725 = CARTESIAN_POINT('',(28.109647072874,84.899568359537));
#726 = ( GEOMETRIC_REPRESENTATION_CONTEXT(2) 
PARAMETRIC_REPRESENTATION_CONTEXT() REPRESENTATION_CONTEXT('2D SPACE',''
  ) );
#727 = PCURVE('',#127,#728);
#728 = DEFINITIONAL_REPRESENTATION('',(#729),#733);
#729 = LINE('',#730,#731);
#730 = CARTESIAN_POINT('',(5.,0.));
#731 = VECTOR('',#732,1.);
#732 = DIRECTION('',(0.,1.));
#733 = ( GEOMETRIC_REPRESENTATION_CONTEXT(2) 
PARAMETRIC_REPRESENTATION_CONTEXT() REPRESENTATION_CONTEXT('2D SPACE',''
  ) );
#734 = ADVANCED_FACE('',(#735),#238,.F.);
#735 = FACE_BOUND('',#736,.F.);
#736 = EDGE_LOOP('',(#737,#738,#758,#784));
#737 = ORIENTED_EDGE('',*,*,#220,.F.);
#738 = ORIENTED_EDGE('',*,*,#739,.T.);
#739 = EDGE_CURVE('',#201,#740,#742,.T.);
#740 = VERTEX_POINT('',#741);
#741 = CARTESIAN_POINT('',(-2.5,-30.,-47.5));
#742 = SURFACE_CURVE('',#743,(#746,#752),.PCURVE_S1.);
#743 = B_SPLINE_CURVE_WITH_KNOTS('',1,(#744,#745),.UNSPECIFIED.,.F.,.F.,
  (2,2),(0.,5.),.PIECEWISE_BEZIER_KNOTS.);
#744 = CARTESIAN_POINT('',(2.5,-30.,-47.5));
#745 = CARTESIAN_POINT('',(-2.5,-30.,-47.5));
#746 = PCURVE('',#238,#747);
#747 = DEFINITIONAL_REPRESENTATION('',(#748),#751);
#748 = B_SPLINE_CURVE_WITH_KNOTS('',1,(#749,#750),.UNSPECIFIED.,.F.,.F.,
  (2,2),(0.,5.),.PIECEWISE_BEZIER_KNOTS.);
#749 = CARTESIAN_POINT('',(-2.5,-15.));
#750 = CARTESIAN_POINT('',(2.5,-15.));
#751 = ( GEOMETRIC_REPRESENTATION_CONTEXT(2) 
PARAMETRIC_REPRESENTATION_CONTEXT() REPRESENTATION_CONTEXT('2D SPACE',''
  ) );
#752 = PCURVE('',#73,#753);
#753 = DEFINITIONAL_REPRESENTATION('',(#754),#757);
#754 = B_SPLINE_CURVE_WITH_KNOTS('',1,(#755,#756),.UNSPECIFIED.,.F.,.F.,
  (2,2),(0.,5.),.PIECEWISE_BEZIER_KNOTS.);
#755 = CARTESIAN_POINT('',(-0.5,2.5));
#756 = CARTESIAN_POINT('',(-0.5,-2.5));
#757 = ( GEOMETRIC_REPRESENTATION_CONTEXT(2) 
PARAMETRIC_REPRESENTATION_CONTEXT() REPRESENTATION_CONTEXT('2D SPACE',''
  ) );
#758 = ORIENTED_EDGE('',*,*,#759,.T.);
#759 = EDGE_CURVE('',#740,#760,#762,.T.);
#760 = VERTEX_POINT('',#761);
#761 = CARTESIAN_POINT('',(-2.5,3.552713678801E-15,-47.5));
#762 = SURFACE_CURVE('',#763,(#768,#776),.PCURVE_S1.);
#763 = B_SPLINE_CURVE_WITH_KNOTS('',3,(#764,#765,#766,#767),
  .UNSPECIFIED.,.F.,.F.,(4,4),(0.,1.),.PIECEWISE_BEZIER_KNOTS.);
#764 = CARTESIAN_POINT('',(-2.5,-30.,-47.5));
#765 = CARTESIAN_POINT('',(-2.5,-29.9,-47.5));
#766 = CARTESIAN_POINT('',(-2.5,-1.E-01,-47.5));
#767 = CARTESIAN_POINT('',(-2.5,8.881784197001E-15,-47.5));
#768 = PCURVE('',#238,#769);
#769 = DEFINITIONAL_REPRESENTATION('',(#770),#775);
#770 = B_SPLINE_CURVE_WITH_KNOTS('',3,(#771,#772,#773,#774),
  .UNSPECIFIED.,.F.,.F.,(4,4),(0.,1.),.PIECEWISE_BEZIER_KNOTS.);
#771 = CARTESIAN_POINT('',(2.5,-15.));
#772 = CARTESIAN_POINT('',(2.5,-14.9));
#773 = CARTESIAN_POINT('',(2.5,14.9));
#774 = CARTESIAN_POINT('',(2.5,15.));
#775 = ( GEOMETRIC_REPRESENTATION_CONTEXT(2) 
PARAMETRIC_REPRESENTATION_CONTEXT() REPRESENTATION_CONTEXT('2D SPACE',''
  ) );
#776 = PCURVE('',#46,#777);
#777 = DEFINITIONAL_REPRESENTATION('',(#778),#783);
#778 = B_SPLINE_CURVE_WITH_KNOTS('',3,(#779,#780,#781,#782),
  .UNSPECIFIED.,.F.,.F.,(4,4),(0.,1.),.PIECEWISE_BEZIER_KNOTS.);
#779 = CARTESIAN_POINT('',(-0.5,-15.));
#780 = CARTESIAN_POINT('',(-0.5,-14.9));
#781 = CARTESIAN_POINT('',(-0.5,14.9));
#782 = CARTESIAN_POINT('',(-0.5,15.));
#783 = ( GEOMETRIC_REPRESENTATION_CONTEXT(2) 
PARAMETRIC_REPRESENTATION_CONTEXT() REPRESENTATION_CONTEXT('2D SPACE',''
  ) );
#784 = ORIENTED_EDGE('',*,*,#785,.F.);
#785 = EDGE_CURVE('',#221,#760,#786,.T.);
#786 = SURFACE_CURVE('',#787,(#790,#796),.PCURVE_S1.);
#787 = B_SPLINE_CURVE_WITH_KNOTS('',1,(#788,#789),.UNSPECIFIED.,.F.,.F.,
  (2,2),(0.,5.),.PIECEWISE_BEZIER_KNOTS.);
#788 = CARTESIAN_POINT('',(2.5,8.881784197001E-15,-47.5));
#789 = CARTESIAN_POINT('',(-2.5,8.881784197001E-15,-47.5));
#790 = PCURVE('',#238,#791);
#791 = DEFINITIONAL_REPRESENTATION('',(#792),#795);
#792 = B_SPLINE_CURVE_WITH_KNOTS('',1,(#793,#794),.UNSPECIFIED.,.F.,.F.,
  (2,2),(0.,5.),.PIECEWISE_BEZIER_KNOTS.);
#793 = CARTESIAN_POINT('',(-2.5,15.));
#794 = CARTESIAN_POINT('',(2.5,15.));
#795 = ( GEOMETRIC_REPRESENTATION_CONTEXT(2) 
PARAMETRIC_REPRESENTATION_CONTEXT() REPRESENTATION_CONTEXT('2D SPACE',''
  ) );
#796 = PCURVE('',#323,#797);
#797 = DEFINITIONAL_REPRESENTATION('',(#798),#801);
#798 = B_SPLINE_CURVE_WITH_KNOTS('',1,(#799,#800),.UNSPECIFIED.,.F.,.F.,
  (2,2),(0.,5.),.PIECEWISE_BEZIER_KNOTS.);
#799 = CARTESIAN_POINT('',(0.,0.));
#800 = CARTESIAN_POINT('',(5.,0.));
#801 = ( GEOMETRIC_REPRESENTATION_CONTEXT(2) 
PARAMETRIC_REPRESENTATION_CONTEXT() REPRESENTATION_CONTEXT('2D SPACE',''
  ) );
#802 = ADVANCED_FACE('',(#803),#46,.F.);
#803 = FACE_BOUND('',#804,.F.);
#804 = EDGE_LOOP('',(#805,#806,#824,#825,#904,#957,#983,#1003,#1029,
    #1082));
#805 = ORIENTED_EDGE('',*,*,#759,.F.);
#806 = ORIENTED_EDGE('',*,*,#807,.T.);
#807 = EDGE_CURVE('',#740,#22,#808,.T.);
#808 = SURFACE_CURVE('',#809,(#812,#818),.PCURVE_S1.);
#809 = B_SPLINE_CURVE_WITH_KNOTS('',1,(#810,#811),.UNSPECIFIED.,.F.,.F.,
  (2,2),(0.,1.),.PIECEWISE_BEZIER_KNOTS.);
#810 = CARTESIAN_POINT('',(-2.5,-30.,-47.5));
#811 = CARTESIAN_POINT('',(-2.5,-30.,-48.5));
#812 = PCURVE('',#46,#813);
#813 = DEFINITIONAL_REPRESENTATION('',(#814),#817);
#814 = B_SPLINE_CURVE_WITH_KNOTS('',1,(#815,#816),.UNSPECIFIED.,.F.,.F.,
  (2,2),(0.,1.),.PIECEWISE_BEZIER_KNOTS.);
#815 = CARTESIAN_POINT('',(-0.5,-15.));
#816 = CARTESIAN_POINT('',(0.5,-15.));
#817 = ( GEOMETRIC_REPRESENTATION_CONTEXT(2) 
PARAMETRIC_REPRESENTATION_CONTEXT() REPRESENTATION_CONTEXT('2D SPACE',''
  ) );
#818 = PCURVE('',#73,#819);
#819 = DEFINITIONAL_REPRESENTATION('',(#820),#823);
#820 = B_SPLINE_CURVE_WITH_KNOTS('',1,(#821,#822),.UNSPECIFIED.,.F.,.F.,
  (2,2),(0.,1.),.PIECEWISE_BEZIER_KNOTS.);
#821 = CARTESIAN_POINT('',(-0.5,-2.5));
#822 = CARTESIAN_POINT('',(0.5,-2.5));
#823 = ( GEOMETRIC_REPRESENTATION_CONTEXT(2) 
PARAMETRIC_REPRESENTATION_CONTEXT() REPRESENTATION_CONTEXT('2D SPACE',''
  ) );
#824 = ORIENTED_EDGE('',*,*,#21,.T.);
#825 = ORIENTED_EDGE('',*,*,#826,.T.);
#826 = EDGE_CURVE('',#24,#827,#829,.T.);
#827 = VERTEX_POINT('',#828);
#828 = CARTESIAN_POINT('',(-2.5,69.899568359537,-19.89035292712));
#829 = SURFACE_CURVE('',#830,(#862,#897),.PCURVE_S1.);
#830 = B_SPLINE_CURVE_WITH_KNOTS('',9,(#831,#832,#833,#834,#835,#836,
    #837,#838,#839,#840,#841,#842,#843,#844,#845,#846,#847,#848,#849,
    #850,#851,#852,#853,#854,#855,#856,#857,#858,#859,#860,#861),
  .UNSPECIFIED.,.F.,.F.,(10,7,7,7,10),(0.,0.5,0.75,0.875,1.),
  .UNSPECIFIED.);
#831 = CARTESIAN_POINT('',(-2.5,3.552713678801E-15,-48.5));
#832 = CARTESIAN_POINT('',(-2.5,5.542387196501,-48.5));
#833 = CARTESIAN_POINT('',(-2.5,11.95376084268,-48.32906817505));
#834 = CARTESIAN_POINT('',(-2.5,19.006338683879,-47.98287203655));
#835 = CARTESIAN_POINT('',(-2.5,26.468866067512,-47.45693966965));
#836 = CARTESIAN_POINT('',(-2.5,34.110390516228,-46.7463211341));
#837 = CARTESIAN_POINT('',(-2.5,41.700540505513,-45.84608890172));
#838 = CARTESIAN_POINT('',(-2.5,49.008701741882,-44.75171859499));
#839 = CARTESIAN_POINT('',(-2.5,59.202375486183,-42.81172764054));
#840 = CARTESIAN_POINT('',(-2.5,67.734664411789,-40.40642470112));
#841 = CARTESIAN_POINT('',(-2.5,70.366250750196,-39.5524260902));
#842 = CARTESIAN_POINT('',(-2.5,72.755215821464,-38.64158181271));
#843 = CARTESIAN_POINT('',(-2.5,74.880188429327,-37.6830237762));
#844 = CARTESIAN_POINT('',(-2.5,76.704926240251,-36.65191228727));
#845 = CARTESIAN_POINT('',(-2.5,78.211095533559,-35.57495206062));
#846 = CARTESIAN_POINT('',(-2.5,79.966107564303,-33.82092618797));
#847 = CARTESIAN_POINT('',(-2.5,80.824962456611,-31.84247898245));
#848 = CARTESIAN_POINT('',(-2.5,81.004388588095,-31.1578681039));
#849 = CARTESIAN_POINT('',(-2.5,81.066218167492,-30.44598303743));
#850 = CARTESIAN_POINT('',(-2.5,80.999652630259,-29.72286988779));
#851 = CARTESIAN_POINT('',(-2.5,80.807095137527,-29.00030308961));
#852 = CARTESIAN_POINT('',(-2.5,80.497417042836,-28.27644196708));
#853 = CARTESIAN_POINT('',(-2.5,79.636817477539,-26.82221246338));
#854 = CARTESIAN_POINT('',(-2.5,78.289028649569,-25.34684817858));
#855 = CARTESIAN_POINT('',(-2.5,77.491466457099,-24.60159750198));
#856 = CARTESIAN_POINT('',(-2.5,76.566889704869,-23.84678125982));
#857 = CARTESIAN_POINT('',(-2.5,75.511309922951,-23.08085543268));
#858 = CARTESIAN_POINT('',(-2.5,74.320647024308,-22.30277600526));
#859 = CARTESIAN_POINT('',(-2.5,72.990994817468,-21.51192774647));
#860 = CARTESIAN_POINT('',(-2.5,71.518601961065,-20.7079347774));
#861 = CARTESIAN_POINT('',(-2.5,69.899568359537,-19.89035292712));
#862 = PCURVE('',#46,#863);
#863 = DEFINITIONAL_REPRESENTATION('',(#864),#896);
#864 = B_SPLINE_CURVE_WITH_KNOTS('',9,(#865,#866,#867,#868,#869,#870,
    #871,#872,#873,#874,#875,#876,#877,#878,#879,#880,#881,#882,#883,
    #884,#885,#886,#887,#888,#889,#890,#891,#892,#893,#894,#895),
  .UNSPECIFIED.,.F.,.F.,(10,7,7,7,10),(0.,0.5,0.75,0.875,1.),
  .UNSPECIFIED.);
#865 = CARTESIAN_POINT('',(0.5,15.));
#866 = CARTESIAN_POINT('',(0.5,20.542387196501));
#867 = CARTESIAN_POINT('',(0.329068175058,26.95376084268));
#868 = CARTESIAN_POINT('',(-1.712796345006E-02,34.006338683879));
#869 = CARTESIAN_POINT('',(-0.54306033035,41.468866067512));
#870 = CARTESIAN_POINT('',(-1.253678865896,49.110390516228));
#871 = CARTESIAN_POINT('',(-2.153911098271,56.700540505513));
#872 = CARTESIAN_POINT('',(-3.248281405001,64.008701741882));
#873 = CARTESIAN_POINT('',(-5.188272359455,74.202375486183));
#874 = CARTESIAN_POINT('',(-7.593575298875,82.734664411789));
#875 = CARTESIAN_POINT('',(-8.447573909794,85.366250750196));
#876 = CARTESIAN_POINT('',(-9.358418187285,87.755215821464));
#877 = CARTESIAN_POINT('',(-10.31697622379,89.880188429327));
#878 = CARTESIAN_POINT('',(-11.34808771272,91.704926240251));
#879 = CARTESIAN_POINT('',(-12.42504793937,93.211095533559));
#880 = CARTESIAN_POINT('',(-14.17907381202,94.966107564303));
#881 = CARTESIAN_POINT('',(-16.15752101754,95.824962456611));
#882 = CARTESIAN_POINT('',(-16.84213189609,96.004388588095));
#883 = CARTESIAN_POINT('',(-17.55401696256,96.066218167492));
#884 = CARTESIAN_POINT('',(-18.27713011221,95.999652630259));
#885 = CARTESIAN_POINT('',(-18.99969691038,95.807095137527));
#886 = CARTESIAN_POINT('',(-19.72355803291,95.497417042836));
#887 = CARTESIAN_POINT('',(-21.17778753661,94.636817477539));
#888 = CARTESIAN_POINT('',(-22.65315182141,93.289028649568));
#889 = CARTESIAN_POINT('',(-23.39840249801,92.491466457099));
#890 = CARTESIAN_POINT('',(-24.15321874017,91.566889704869));
#891 = CARTESIAN_POINT('',(-24.91914456731,90.511309922951));
#892 = CARTESIAN_POINT('',(-25.69722399473,89.320647024308));
#893 = CARTESIAN_POINT('',(-26.48807225352,87.990994817468));
#894 = CARTESIAN_POINT('',(-27.29206522259,86.518601961065));
#895 = CARTESIAN_POINT('',(-28.10964707287,84.899568359537));
#896 = ( GEOMETRIC_REPRESENTATION_CONTEXT(2) 
PARAMETRIC_REPRESENTATION_CONTEXT() REPRESENTATION_CONTEXT('2D SPACE',''
  ) );
#897 = PCURVE('',#127,#898);
#898 = DEFINITIONAL_REPRESENTATION('',(#899),#903);
#899 = LINE('',#900,#901);
#900 = CARTESIAN_POINT('',(0.,0.));
#901 = VECTOR('',#902,1.);
#902 = DIRECTION('',(0.,1.));
#903 = ( GEOMETRIC_REPRESENTATION_CONTEXT(2) 
PARAMETRIC_REPRESENTATION_CONTEXT() REPRESENTATION_CONTEXT('2D SPACE',''
  ) );
#904 = ORIENTED_EDGE('',*,*,#905,.T.);
#905 = EDGE_CURVE('',#827,#906,#908,.T.);
#906 = VERTEX_POINT('',#907);
#907 = CARTESIAN_POINT('',(-2.5,122.,39.5));
#908 = SURFACE_CURVE('',#909,(#928,#950),.PCURVE_S1.);
#909 = B_SPLINE_CURVE_WITH_KNOTS('',7,(#910,#911,#912,#913,#914,#915,
    #916,#917,#918,#919,#920,#921,#922,#923,#924,#925,#926,#927),
  .UNSPECIFIED.,.F.,.F.,(8,5,5,8),(0.,0.25,0.5,1.),.UNSPECIFIED.);
#910 = CARTESIAN_POINT('',(-2.5,69.899568359537,-19.89035292712));
#911 = CARTESIAN_POINT('',(-2.5,65.859899683469,-17.85039539469));
#912 = CARTESIAN_POINT('',(-2.5,62.593203230245,-15.62451518707));
#913 = CARTESIAN_POINT('',(-2.5,60.057197551153,-13.24467671683));
#914 = CARTESIAN_POINT('',(-2.5,58.214596495408,-10.74448121535));
#915 = CARTESIAN_POINT('',(-2.5,56.999818159811,-8.16219479215));
#916 = CARTESIAN_POINT('',(-2.5,55.732146497705,-2.835733879988));
#917 = CARTESIAN_POINT('',(-2.5,56.649422602487,2.736831181418));
#918 = CARTESIAN_POINT('',(-2.5,57.618764457797,5.566902095497));
#919 = CARTESIAN_POINT('',(-2.5,59.07113607828,8.410634825709));
#920 = CARTESIAN_POINT('',(-2.5,60.964710222946,11.233344983391));
#921 = CARTESIAN_POINT('',(-2.5,67.852139686164,19.549981238152));
#922 = CARTESIAN_POINT('',(-2.5,77.992501979872,27.140498254406));
#923 = CARTESIAN_POINT('',(-2.5,85.873220802882,31.638541037269));
#924 = CARTESIAN_POINT('',(-2.5,94.541928682254,35.348499586396));
#925 = CARTESIAN_POINT('',(-2.5,103.67335302003,38.043488426617));
#926 = CARTESIAN_POINT('',(-2.5,112.93508703619,39.5));
#927 = CARTESIAN_POINT('',(-2.5,122.,39.5));
#928 = PCURVE('',#46,#929);
#929 = DEFINITIONAL_REPRESENTATION('',(#930),#949);
#930 = B_SPLINE_CURVE_WITH_KNOTS('',7,(#931,#932,#933,#934,#935,#936,
    #937,#938,#939,#940,#941,#942,#943,#944,#945,#946,#947,#948),
  .UNSPECIFIED.,.F.,.F.,(8,5,5,8),(0.,0.25,0.5,1.),.UNSPECIFIED.);
#931 = CARTESIAN_POINT('',(-28.10964707287,84.899568359537));
#932 = CARTESIAN_POINT('',(-30.1496046053,80.859899683469));
#933 = CARTESIAN_POINT('',(-32.37548481292,77.593203230245));
#934 = CARTESIAN_POINT('',(-34.75532328316,75.057197551153));
#935 = CARTESIAN_POINT('',(-37.25551878464,73.214596495408));
#936 = CARTESIAN_POINT('',(-39.83780520785,71.999818159811));
#937 = CARTESIAN_POINT('',(-45.16426612001,70.732146497705));
#938 = CARTESIAN_POINT('',(-50.73683118141,71.649422602487));
#939 = CARTESIAN_POINT('',(-53.56690209549,72.618764457797));
#940 = CARTESIAN_POINT('',(-56.4106348257,74.07113607828));
#941 = CARTESIAN_POINT('',(-59.23334498339,75.964710222946));
#942 = CARTESIAN_POINT('',(-67.54998123815,82.852139686164));
#943 = CARTESIAN_POINT('',(-75.1404982544,92.992501979872));
#944 = CARTESIAN_POINT('',(-79.63854103726,100.87322080288));
#945 = CARTESIAN_POINT('',(-83.34849958639,109.54192868225));
#946 = CARTESIAN_POINT('',(-86.04348842661,118.67335302003));
#947 = CARTESIAN_POINT('',(-87.5,127.93508703619));
#948 = CARTESIAN_POINT('',(-87.5,137.));
#949 = ( GEOMETRIC_REPRESENTATION_CONTEXT(2) 
PARAMETRIC_REPRESENTATION_CONTEXT() REPRESENTATION_CONTEXT('2D SPACE',''
  ) );
#950 = PCURVE('',#614,#951);
#951 = DEFINITIONAL_REPRESENTATION('',(#952),#956);
#952 = LINE('',#953,#954);
#953 = CARTESIAN_POINT('',(0.,0.));
#954 = VECTOR('',#955,1.);
#955 = DIRECTION('',(0.,1.));
#956 = ( GEOMETRIC_REPRESENTATION_CONTEXT(2) 
PARAMETRIC_REPRESENTATION_CONTEXT() REPRESENTATION_CONTEXT('2D SPACE',''
  ) );
#957 = ORIENTED_EDGE('',*,*,#958,.T.);
#958 = EDGE_CURVE('',#906,#959,#961,.T.);
#959 = VERTEX_POINT('',#960);
#960 = CARTESIAN_POINT('',(-2.5,137.,39.5));
#961 = SURFACE_CURVE('',#962,(#967,#975),.PCURVE_S1.);
#962 = B_SPLINE_CURVE_WITH_KNOTS('',3,(#963,#964,#965,#966),
  .UNSPECIFIED.,.F.,.F.,(4,4),(0.,1.),.PIECEWISE_BEZIER_KNOTS.);
#963 = CARTESIAN_POINT('',(-2.5,122.,39.5));
#964 = CARTESIAN_POINT('',(-2.5,122.1,39.5));
#965 = CARTESIAN_POINT('',(-2.5,136.9,39.5));
#966 = CARTESIAN_POINT('',(-2.5,137.,39.5));
#967 = PCURVE('',#46,#968);
#968 = DEFINITIONAL_REPRESENTATION('',(#969),#974);
#969 = B_SPLINE_CURVE_WITH_KNOTS('',3,(#970,#971,#972,#973),
  .UNSPECIFIED.,.F.,.F.,(4,4),(0.,1.),.PIECEWISE_BEZIER_KNOTS.);
#970 = CARTESIAN_POINT('',(-87.5,137.));
#971 = CARTESIAN_POINT('',(-87.5,137.1));
#972 = CARTESIAN_POINT('',(-87.5,151.9));
#973 = CARTESIAN_POINT('',(-87.5,152.));
#974 = ( GEOMETRIC_REPRESENTATION_CONTEXT(2) 
PARAMETRIC_REPRESENTATION_CONTEXT() REPRESENTATION_CONTEXT('2D SPACE',''
  ) );
#975 = PCURVE('',#555,#976);
#976 = DEFINITIONAL_REPRESENTATION('',(#977),#982);
#977 = B_SPLINE_CURVE_WITH_KNOTS('',3,(#978,#979,#980,#981),
  .UNSPECIFIED.,.F.,.F.,(4,4),(0.,1.),.PIECEWISE_BEZIER_KNOTS.);
#978 = CARTESIAN_POINT('',(-2.5,-7.5));
#979 = CARTESIAN_POINT('',(-2.5,-7.4));
#980 = CARTESIAN_POINT('',(-2.5,7.4));
#981 = CARTESIAN_POINT('',(-2.5,7.5));
#982 = ( GEOMETRIC_REPRESENTATION_CONTEXT(2) 
PARAMETRIC_REPRESENTATION_CONTEXT() REPRESENTATION_CONTEXT('2D SPACE',''
  ) );
#983 = ORIENTED_EDGE('',*,*,#984,.F.);
#984 = EDGE_CURVE('',#985,#959,#987,.T.);
#985 = VERTEX_POINT('',#986);
#986 = CARTESIAN_POINT('',(-2.5,137.,40.5));
#987 = SURFACE_CURVE('',#988,(#991,#997),.PCURVE_S1.);
#988 = B_SPLINE_CURVE_WITH_KNOTS('',1,(#989,#990),.UNSPECIFIED.,.F.,.F.,
  (2,2),(0.,1.),.PIECEWISE_BEZIER_KNOTS.);
#989 = CARTESIAN_POINT('',(-2.5,137.,40.5));
#990 = CARTESIAN_POINT('',(-2.5,137.,39.5));
#991 = PCURVE('',#46,#992);
#992 = DEFINITIONAL_REPRESENTATION('',(#993),#996);
#993 = B_SPLINE_CURVE_WITH_KNOTS('',1,(#994,#995),.UNSPECIFIED.,.F.,.F.,
  (2,2),(0.,1.),.PIECEWISE_BEZIER_KNOTS.);
#994 = CARTESIAN_POINT('',(-88.5,152.));
#995 = CARTESIAN_POINT('',(-87.5,152.));
#996 = ( GEOMETRIC_REPRESENTATION_CONTEXT(2) 
PARAMETRIC_REPRESENTATION_CONTEXT() REPRESENTATION_CONTEXT('2D SPACE',''
  ) );
#997 = PCURVE('',#526,#998);
#998 = DEFINITIONAL_REPRESENTATION('',(#999),#1002);
#999 = B_SPLINE_CURVE_WITH_KNOTS('',1,(#1000,#1001),.UNSPECIFIED.,.F.,
  .F.,(2,2),(0.,1.),.PIECEWISE_BEZIER_KNOTS.);
#1000 = CARTESIAN_POINT('',(-0.5,-2.5));
#1001 = CARTESIAN_POINT('',(0.5,-2.5));
#1002 = ( GEOMETRIC_REPRESENTATION_CONTEXT(2) 
PARAMETRIC_REPRESENTATION_CONTEXT() REPRESENTATION_CONTEXT('2D SPACE',''
  ) );
#1003 = ORIENTED_EDGE('',*,*,#1004,.F.);
#1004 = EDGE_CURVE('',#1005,#985,#1007,.T.);
#1005 = VERTEX_POINT('',#1006);
#1006 = CARTESIAN_POINT('',(-2.5,122.,40.5));
#1007 = SURFACE_CURVE('',#1008,(#1013,#1021),.PCURVE_S1.);
#1008 = B_SPLINE_CURVE_WITH_KNOTS('',3,(#1009,#1010,#1011,#1012),
  .UNSPECIFIED.,.F.,.F.,(4,4),(0.,1.),.PIECEWISE_BEZIER_KNOTS.);
#1009 = CARTESIAN_POINT('',(-2.5,122.,40.5));
#1010 = CARTESIAN_POINT('',(-2.5,122.1,40.5));
#1011 = CARTESIAN_POINT('',(-2.5,136.9,40.5));
#1012 = CARTESIAN_POINT('',(-2.5,137.,40.5));
#1013 = PCURVE('',#46,#1014);
#1014 = DEFINITIONAL_REPRESENTATION('',(#1015),#1020);
#1015 = B_SPLINE_CURVE_WITH_KNOTS('',3,(#1016,#1017,#1018,#1019),
  .UNSPECIFIED.,.F.,.F.,(4,4),(0.,1.),.PIECEWISE_BEZIER_KNOTS.);
#1016 = CARTESIAN_POINT('',(-88.5,137.));
#1017 = CARTESIAN_POINT('',(-88.5,137.1));
#1018 = CARTESIAN_POINT('',(-88.5,151.9));
#1019 = CARTESIAN_POINT('',(-88.5,152.));
#1020 = ( GEOMETRIC_REPRESENTATION_CONTEXT(2) 
PARAMETRIC_REPRESENTATION_CONTEXT() REPRESENTATION_CONTEXT('2D SPACE',''
  ) );
#1021 = PCURVE('',#499,#1022);
#1022 = DEFINITIONAL_REPRESENTATION('',(#1023),#1028);
#1023 = B_SPLINE_CURVE_WITH_KNOTS('',3,(#1024,#1025,#1026,#1027),
  .UNSPECIFIED.,.F.,.F.,(4,4),(0.,1.),.PIECEWISE_BEZIER_KNOTS.);
#1024 = CARTESIAN_POINT('',(2.5,-7.5));
#1025 = CARTESIAN_POINT('',(2.5,-7.4));
#1026 = CARTESIAN_POINT('',(2.5,7.4));
#1027 = CARTESIAN_POINT('',(2.5,7.5));
#1028 = ( GEOMETRIC_REPRESENTATION_CONTEXT(2) 
PARAMETRIC_REPRESENTATION_CONTEXT() REPRESENTATION_CONTEXT('2D SPACE',''
  ) );
#1029 = ORIENTED_EDGE('',*,*,#1030,.F.);
#1030 = EDGE_CURVE('',#1031,#1005,#1033,.T.);
#1031 = VERTEX_POINT('',#1032);
#1032 = CARTESIAN_POINT('',(-2.5,69.448801019592,-20.78299440344));
#1033 = SURFACE_CURVE('',#1034,(#1053,#1075),.PCURVE_S1.);
#1034 = B_SPLINE_CURVE_WITH_KNOTS('',7,(#1035,#1036,#1037,#1038,#1039,
    #1040,#1041,#1042,#1043,#1044,#1045,#1046,#1047,#1048,#1049,#1050,
    #1051,#1052),.UNSPECIFIED.,.F.,.F.,(8,5,5,8),(0.,0.25,0.5,1.),
  .UNSPECIFIED.);
#1035 = CARTESIAN_POINT('',(-2.5,69.448801019592,-20.78299440344));
#1036 = CARTESIAN_POINT('',(-2.5,65.322164925989,-18.69911994298));
#1037 = CARTESIAN_POINT('',(-2.5,61.956849130762,-16.41103288869));
#1038 = CARTESIAN_POINT('',(-2.5,59.313789492025,-13.94296498821));
#1039 = CARTESIAN_POINT('',(-2.5,57.348926569943,-11.31751117037));
#1040 = CARTESIAN_POINT('',(-2.5,56.046496677122,-8.552601485852));
#1041 = CARTESIAN_POINT('',(-2.5,54.697572199976,-2.853968926169));
#1042 = CARTESIAN_POINT('',(-2.5,55.673958228699,3.035177356231));
#1043 = CARTESIAN_POINT('',(-2.5,56.697666417724,5.988920421839));
#1044 = CARTESIAN_POINT('',(-2.5,58.203218228551,8.925763818895));
#1045 = CARTESIAN_POINT('',(-2.5,60.151095311563,11.824195775854));
#1046 = CARTESIAN_POINT('',(-2.5,67.194566148665,20.324095346521));
#1047 = CARTESIAN_POINT('',(-2.5,77.472633691673,28.003677158362));
#1048 = CARTESIAN_POINT('',(-2.5,85.43678316224,32.548825647106));
#1049 = CARTESIAN_POINT('',(-2.5,94.194760587356,36.295614474146));
#1050 = CARTESIAN_POINT('',(-2.5,103.42107384011,39.021359833016));
#1051 = CARTESIAN_POINT('',(-2.5,112.79736497571,40.5));
#1052 = CARTESIAN_POINT('',(-2.5,122.,40.5));
#1053 = PCURVE('',#46,#1054);
#1054 = DEFINITIONAL_REPRESENTATION('',(#1055),#1074);
#1055 = B_SPLINE_CURVE_WITH_KNOTS('',7,(#1056,#1057,#1058,#1059,#1060,
    #1061,#1062,#1063,#1064,#1065,#1066,#1067,#1068,#1069,#1070,#1071,
    #1072,#1073),.UNSPECIFIED.,.F.,.F.,(8,5,5,8),(0.,0.25,0.5,1.),
  .UNSPECIFIED.);
#1056 = CARTESIAN_POINT('',(-27.21700559655,84.448801019592));
#1057 = CARTESIAN_POINT('',(-29.30088005701,80.322164925989));
#1058 = CARTESIAN_POINT('',(-31.5889671113,76.956849130762));
#1059 = CARTESIAN_POINT('',(-34.05703501178,74.313789492025));
#1060 = CARTESIAN_POINT('',(-36.68248882963,72.348926569943));
#1061 = CARTESIAN_POINT('',(-39.44739851414,71.046496677122));
#1062 = CARTESIAN_POINT('',(-45.14603107383,69.697572199976));
#1063 = CARTESIAN_POINT('',(-51.03517735623,70.673958228699));
#1064 = CARTESIAN_POINT('',(-53.98892042183,71.697666417724));
#1065 = CARTESIAN_POINT('',(-56.92576381889,73.203218228551));
#1066 = CARTESIAN_POINT('',(-59.82419577585,75.151095311563));
#1067 = CARTESIAN_POINT('',(-68.32409534652,82.194566148665));
#1068 = CARTESIAN_POINT('',(-76.00367715836,92.472633691673));
#1069 = CARTESIAN_POINT('',(-80.5488256471,100.43678316224));
#1070 = CARTESIAN_POINT('',(-84.29561447414,109.19476058735));
#1071 = CARTESIAN_POINT('',(-87.02135983301,118.42107384011));
#1072 = CARTESIAN_POINT('',(-88.5,127.79736497571));
#1073 = CARTESIAN_POINT('',(-88.5,137.));
#1074 = ( GEOMETRIC_REPRESENTATION_CONTEXT(2) 
PARAMETRIC_REPRESENTATION_CONTEXT() REPRESENTATION_CONTEXT('2D SPACE',''
  ) );
#1075 = PCURVE('',#438,#1076);
#1076 = DEFINITIONAL_REPRESENTATION('',(#1077),#1081);
#1077 = LINE('',#1078,#1079);
#1078 = CARTESIAN_POINT('',(5.,0.));
#1079 = VECTOR('',#1080,1.);
#1080 = DIRECTION('',(0.,1.));
#1081 = ( GEOMETRIC_REPRESENTATION_CONTEXT(2) 
PARAMETRIC_REPRESENTATION_CONTEXT() REPRESENTATION_CONTEXT('2D SPACE',''
  ) );
#1082 = ORIENTED_EDGE('',*,*,#1083,.F.);
#1083 = EDGE_CURVE('',#760,#1031,#1084,.T.);
#1084 = SURFACE_CURVE('',#1085,(#1117,#1152),.PCURVE_S1.);
#1085 = B_SPLINE_CURVE_WITH_KNOTS('',9,(#1086,#1087,#1088,#1089,#1090,
    #1091,#1092,#1093,#1094,#1095,#1096,#1097,#1098,#1099,#1100,#1101,
    #1102,#1103,#1104,#1105,#1106,#1107,#1108,#1109,#1110,#1111,#1112,
    #1113,#1114,#1115,#1116),.UNSPECIFIED.,.F.,.F.,(10,7,7,7,10),(0.,0.5
    ,0.75,0.875,1.),.UNSPECIFIED.);
#1086 = CARTESIAN_POINT('',(-2.5,-1.42108547152E-14,-47.5));
#1087 = CARTESIAN_POINT('',(-2.5,5.514973124809,-47.5));
#1088 = CARTESIAN_POINT('',(-2.5,11.906939102834,-47.3299136478));
#1089 = CARTESIAN_POINT('',(-2.5,18.940726117265,-46.9848174273));
#1090 = CARTESIAN_POINT('',(-2.5,26.384634749241,-46.45992724867));
#1091 = CARTESIAN_POINT('',(-2.5,34.006663404642,-45.7509370474));
#1092 = CARTESIAN_POINT('',(-2.5,41.574229536528,-44.85351834703));
#1093 = CARTESIAN_POINT('',(-2.5,48.854993366924,-43.76293952034));
#1094 = CARTESIAN_POINT('',(-2.5,58.99708953397,-41.83067546662));
#1095 = CARTESIAN_POINT('',(-2.5,67.437497325731,-39.45065042522));
#1096 = CARTESIAN_POINT('',(-2.5,70.031932501516,-38.60693015609));
#1097 = CARTESIAN_POINT('',(-2.5,72.379575627242,-37.71628899984));
#1098 = CARTESIAN_POINT('',(-2.5,74.443928640248,-36.76843804833));
#1099 = CARTESIAN_POINT('',(-2.5,76.203364615128,-35.78705999438));
#1100 = CARTESIAN_POINT('',(-2.5,77.618348013633,-34.74429312268));
#1101 = CARTESIAN_POINT('',(-2.5,79.163729491217,-33.15613651375));
#1102 = CARTESIAN_POINT('',(-2.5,79.853058980558,-31.54591023526));
#1103 = CARTESIAN_POINT('',(-2.5,79.987770749292,-31.00676410491));
#1104 = CARTESIAN_POINT('',(-2.5,80.030921852414,-30.46721502318));
#1105 = CARTESIAN_POINT('',(-2.5,79.986077197106,-29.91107226023));
#1106 = CARTESIAN_POINT('',(-2.5,79.84359996486,-29.32641675638));
#1107 = CARTESIAN_POINT('',(-2.5,79.587385144781,-28.71494456235));
#1108 = CARTESIAN_POINT('',(-2.5,78.840015186204,-27.44199615372));
#1109 = CARTESIAN_POINT('',(-2.5,77.598532472184,-26.07658146751));
#1110 = CARTESIAN_POINT('',(-2.5,76.848899731753,-25.37289776886));
#1111 = CARTESIAN_POINT('',(-2.5,75.966488731838,-24.65009012095));
#1112 = CARTESIAN_POINT('',(-2.5,74.948054284953,-23.90955791813));
#1113 = CARTESIAN_POINT('',(-2.5,73.790442820825,-23.15220055062));
#1114 = CARTESIAN_POINT('',(-2.5,72.490326873509,-22.37848862444));
#1115 = CARTESIAN_POINT('',(-2.5,71.044224127038,-21.58865339343));
#1116 = CARTESIAN_POINT('',(-2.5,69.448801019592,-20.78299440344));
#1117 = PCURVE('',#46,#1118);
#1118 = DEFINITIONAL_REPRESENTATION('',(#1119),#1151);
#1119 = B_SPLINE_CURVE_WITH_KNOTS('',9,(#1120,#1121,#1122,#1123,#1124,
    #1125,#1126,#1127,#1128,#1129,#1130,#1131,#1132,#1133,#1134,#1135,
    #1136,#1137,#1138,#1139,#1140,#1141,#1142,#1143,#1144,#1145,#1146,
    #1147,#1148,#1149,#1150),.UNSPECIFIED.,.F.,.F.,(10,7,7,7,10),(0.,0.5
    ,0.75,0.875,1.),.UNSPECIFIED.);
#1120 = CARTESIAN_POINT('',(-0.5,15.));
#1121 = CARTESIAN_POINT('',(-0.5,20.514973124809));
#1122 = CARTESIAN_POINT('',(-0.670086352199,26.906939102834));
#1123 = CARTESIAN_POINT('',(-1.015182572695,33.940726117265));
#1124 = CARTESIAN_POINT('',(-1.540072751323,41.384634749241));
#1125 = CARTESIAN_POINT('',(-2.249062952593,49.006663404642));
#1126 = CARTESIAN_POINT('',(-3.146481652963,56.574229536528));
#1127 = CARTESIAN_POINT('',(-4.237060479656,63.854993366924));
#1128 = CARTESIAN_POINT('',(-6.169324533373,73.99708953397));
#1129 = CARTESIAN_POINT('',(-8.549349574779,82.437497325731));
#1130 = CARTESIAN_POINT('',(-9.393069843906,85.031932501516));
#1131 = CARTESIAN_POINT('',(-10.28371100015,87.379575627242));
#1132 = CARTESIAN_POINT('',(-11.23156195167,89.443928640248));
#1133 = CARTESIAN_POINT('',(-12.21294000562,91.203364615128));
#1134 = CARTESIAN_POINT('',(-13.25570687732,92.618348013633));
#1135 = CARTESIAN_POINT('',(-14.84386348624,94.163729491217));
#1136 = CARTESIAN_POINT('',(-16.45408976473,94.853058980558));
#1137 = CARTESIAN_POINT('',(-16.99323589509,94.987770749292));
#1138 = CARTESIAN_POINT('',(-17.53278497681,95.030921852414));
#1139 = CARTESIAN_POINT('',(-18.08892773976,94.986077197106));
#1140 = CARTESIAN_POINT('',(-18.67358324361,94.84359996486));
#1141 = CARTESIAN_POINT('',(-19.28505543764,94.587385144781));
#1142 = CARTESIAN_POINT('',(-20.55800384627,93.840015186204));
#1143 = CARTESIAN_POINT('',(-21.92341853248,92.598532472184));
#1144 = CARTESIAN_POINT('',(-22.62710223113,91.848899731753));
#1145 = CARTESIAN_POINT('',(-23.34990987904,90.966488731838));
#1146 = CARTESIAN_POINT('',(-24.09044208186,89.948054284953));
#1147 = CARTESIAN_POINT('',(-24.84779944937,88.790442820825));
#1148 = CARTESIAN_POINT('',(-25.62151137555,87.490326873509));
#1149 = CARTESIAN_POINT('',(-26.41134660656,86.044224127038));
#1150 = CARTESIAN_POINT('',(-27.21700559655,84.448801019592));
#1151 = ( GEOMETRIC_REPRESENTATION_CONTEXT(2) 
PARAMETRIC_REPRESENTATION_CONTEXT() REPRESENTATION_CONTEXT('2D SPACE',''
  ) );
#1152 = PCURVE('',#323,#1153);
#1153 = DEFINITIONAL_REPRESENTATION('',(#1154),#1158);
#1154 = LINE('',#1155,#1156);
#1155 = CARTESIAN_POINT('',(5.,0.));
#1156 = VECTOR('',#1157,1.);
#1157 = DIRECTION('',(0.,1.));
#1158 = ( GEOMETRIC_REPRESENTATION_CONTEXT(2) 
PARAMETRIC_REPRESENTATION_CONTEXT() REPRESENTATION_CONTEXT('2D SPACE',''
  ) );
#1159 = ADVANCED_FACE('',(#1160),#127,.F.);
#1160 = FACE_BOUND('',#1161,.F.);
#1161 = EDGE_LOOP('',(#1162,#1163,#1164,#1165));
#1162 = ORIENTED_EDGE('',*,*,#826,.F.);
#1163 = ORIENTED_EDGE('',*,*,#115,.T.);
#1164 = ORIENTED_EDGE('',*,*,#658,.T.);
#1165 = ORIENTED_EDGE('',*,*,#1166,.F.);
#1166 = EDGE_CURVE('',#827,#569,#1167,.T.);
#1167 = SURFACE_CURVE('',#1168,(#1171,#1178),.PCURVE_S1.);
#1168 = B_SPLINE_CURVE_WITH_KNOTS('',1,(#1169,#1170),.UNSPECIFIED.,.F.,
  .F.,(2,2),(0.,5.),.PIECEWISE_BEZIER_KNOTS.);
#1169 = CARTESIAN_POINT('',(-2.5,69.899568359537,-19.89035292712));
#1170 = CARTESIAN_POINT('',(2.5,69.899568359537,-19.89035292712));
#1171 = PCURVE('',#127,#1172);
#1172 = DEFINITIONAL_REPRESENTATION('',(#1173),#1177);
#1173 = LINE('',#1174,#1175);
#1174 = CARTESIAN_POINT('',(0.,1.));
#1175 = VECTOR('',#1176,1.);
#1176 = DIRECTION('',(1.,0.));
#1177 = ( GEOMETRIC_REPRESENTATION_CONTEXT(2) 
PARAMETRIC_REPRESENTATION_CONTEXT() REPRESENTATION_CONTEXT('2D SPACE',''
  ) );
#1178 = PCURVE('',#614,#1179);
#1179 = DEFINITIONAL_REPRESENTATION('',(#1180),#1183);
#1180 = B_SPLINE_CURVE_WITH_KNOTS('',1,(#1181,#1182),.UNSPECIFIED.,.F.,
  .F.,(2,2),(0.,5.),.PIECEWISE_BEZIER_KNOTS.);
#1181 = CARTESIAN_POINT('',(0.,0.));
#1182 = CARTESIAN_POINT('',(5.,0.));
#1183 = ( GEOMETRIC_REPRESENTATION_CONTEXT(2) 
PARAMETRIC_REPRESENTATION_CONTEXT() REPRESENTATION_CONTEXT('2D SPACE',''
  ) );
#1184 = ADVANCED_FACE('',(#1185),#323,.F.);
#1185 = FACE_BOUND('',#1186,.F.);
#1186 = EDGE_LOOP('',(#1187,#1188,#1189,#1190));
#1187 = ORIENTED_EDGE('',*,*,#251,.F.);
#1188 = ORIENTED_EDGE('',*,*,#785,.T.);
#1189 = ORIENTED_EDGE('',*,*,#1083,.T.);
#1190 = ORIENTED_EDGE('',*,*,#1191,.F.);
#1191 = EDGE_CURVE('',#252,#1031,#1192,.T.);
#1192 = SURFACE_CURVE('',#1193,(#1196,#1203),.PCURVE_S1.);
#1193 = B_SPLINE_CURVE_WITH_KNOTS('',1,(#1194,#1195),.UNSPECIFIED.,.F.,
  .F.,(2,2),(0.,5.),.PIECEWISE_BEZIER_KNOTS.);
#1194 = CARTESIAN_POINT('',(2.5,69.448801019592,-20.78299440344));
#1195 = CARTESIAN_POINT('',(-2.5,69.448801019592,-20.78299440344));
#1196 = PCURVE('',#323,#1197);
#1197 = DEFINITIONAL_REPRESENTATION('',(#1198),#1202);
#1198 = LINE('',#1199,#1200);
#1199 = CARTESIAN_POINT('',(0.,1.));
#1200 = VECTOR('',#1201,1.);
#1201 = DIRECTION('',(1.,0.));
#1202 = ( GEOMETRIC_REPRESENTATION_CONTEXT(2) 
PARAMETRIC_REPRESENTATION_CONTEXT() REPRESENTATION_CONTEXT('2D SPACE',''
  ) );
#1203 = PCURVE('',#438,#1204);
#1204 = DEFINITIONAL_REPRESENTATION('',(#1205),#1208);
#1205 = B_SPLINE_CURVE_WITH_KNOTS('',1,(#1206,#1207),.UNSPECIFIED.,.F.,
  .F.,(2,2),(0.,5.),.PIECEWISE_BEZIER_KNOTS.);
#1206 = CARTESIAN_POINT('',(0.,0.));
#1207 = CARTESIAN_POINT('',(5.,0.));
#1208 = ( GEOMETRIC_REPRESENTATION_CONTEXT(2) 
PARAMETRIC_REPRESENTATION_CONTEXT() REPRESENTATION_CONTEXT('2D SPACE',''
  ) );
#1209 = ADVANCED_FACE('',(#1210),#614,.F.);
#1210 = FACE_BOUND('',#1211,.F.);
#1211 = EDGE_LOOP('',(#1212,#1213,#1214,#1215));
#1212 = ORIENTED_EDGE('',*,*,#905,.F.);
#1213 = ORIENTED_EDGE('',*,*,#1166,.T.);
#1214 = ORIENTED_EDGE('',*,*,#568,.T.);
#1215 = ORIENTED_EDGE('',*,*,#1216,.F.);
#1216 = EDGE_CURVE('',#906,#538,#1217,.T.);
#1217 = SURFACE_CURVE('',#1218,(#1221,#1228),.PCURVE_S1.);
#1218 = B_SPLINE_CURVE_WITH_KNOTS('',1,(#1219,#1220),.UNSPECIFIED.,.F.,
  .F.,(2,2),(0.,5.),.PIECEWISE_BEZIER_KNOTS.);
#1219 = CARTESIAN_POINT('',(-2.5,122.,39.5));
#1220 = CARTESIAN_POINT('',(2.5,122.,39.5));
#1221 = PCURVE('',#614,#1222);
#1222 = DEFINITIONAL_REPRESENTATION('',(#1223),#1227);
#1223 = LINE('',#1224,#1225);
#1224 = CARTESIAN_POINT('',(0.,1.));
#1225 = VECTOR('',#1226,1.);
#1226 = DIRECTION('',(1.,0.));
#1227 = ( GEOMETRIC_REPRESENTATION_CONTEXT(2) 
PARAMETRIC_REPRESENTATION_CONTEXT() REPRESENTATION_CONTEXT('2D SPACE',''
  ) );
#1228 = PCURVE('',#555,#1229);
#1229 = DEFINITIONAL_REPRESENTATION('',(#1230),#1233);
#1230 = B_SPLINE_CURVE_WITH_KNOTS('',1,(#1231,#1232),.UNSPECIFIED.,.F.,
  .F.,(2,2),(0.,5.),.PIECEWISE_BEZIER_KNOTS.);
#1231 = CARTESIAN_POINT('',(-2.5,-7.5));
#1232 = CARTESIAN_POINT('',(2.5,-7.5));
#1233 = ( GEOMETRIC_REPRESENTATION_CONTEXT(2) 
PARAMETRIC_REPRESENTATION_CONTEXT() REPRESENTATION_CONTEXT('2D SPACE',''
  ) );
#1234 = ADVANCED_FACE('',(#1235),#438,.F.);
#1235 = FACE_BOUND('',#1236,.F.);
#1236 = EDGE_LOOP('',(#1237,#1238,#1239,#1240));
#1237 = ORIENTED_EDGE('',*,*,#392,.F.);
#1238 = ORIENTED_EDGE('',*,*,#1191,.T.);
#1239 = ORIENTED_EDGE('',*,*,#1030,.T.);
#1240 = ORIENTED_EDGE('',*,*,#1241,.F.);
#1241 = EDGE_CURVE('',#393,#1005,#1242,.T.);
#1242 = SURFACE_CURVE('',#1243,(#1246,#1253),.PCURVE_S1.);
#1243 = B_SPLINE_CURVE_WITH_KNOTS('',1,(#1244,#1245),.UNSPECIFIED.,.F.,
  .F.,(2,2),(0.,5.),.PIECEWISE_BEZIER_KNOTS.);
#1244 = CARTESIAN_POINT('',(2.5,122.,40.5));
#1245 = CARTESIAN_POINT('',(-2.5,122.,40.5));
#1246 = PCURVE('',#438,#1247);
#1247 = DEFINITIONAL_REPRESENTATION('',(#1248),#1252);
#1248 = LINE('',#1249,#1250);
#1249 = CARTESIAN_POINT('',(0.,1.));
#1250 = VECTOR('',#1251,1.);
#1251 = DIRECTION('',(1.,0.));
#1252 = ( GEOMETRIC_REPRESENTATION_CONTEXT(2) 
PARAMETRIC_REPRESENTATION_CONTEXT() REPRESENTATION_CONTEXT('2D SPACE',''
  ) );
#1253 = PCURVE('',#499,#1254);
#1254 = DEFINITIONAL_REPRESENTATION('',(#1255),#1258);
#1255 = B_SPLINE_CURVE_WITH_KNOTS('',1,(#1256,#1257),.UNSPECIFIED.,.F.,
  .F.,(2,2),(0.,5.),.PIECEWISE_BEZIER_KNOTS.);
#1256 = CARTESIAN_POINT('',(-2.5,-7.5));
#1257 = CARTESIAN_POINT('',(2.5,-7.5));
#1258 = ( GEOMETRIC_REPRESENTATION_CONTEXT(2) 
PARAMETRIC_REPRESENTATION_CONTEXT() REPRESENTATION_CONTEXT('2D SPACE',''
  ) );
#1259 = ADVANCED_FACE('',(#1260),#555,.F.);
#1260 = FACE_BOUND('',#1261,.F.);
#1261 = EDGE_LOOP('',(#1262,#1263,#1264,#1265));
#1262 = ORIENTED_EDGE('',*,*,#958,.F.);
#1263 = ORIENTED_EDGE('',*,*,#1216,.T.);
#1264 = ORIENTED_EDGE('',*,*,#537,.T.);
#1265 = ORIENTED_EDGE('',*,*,#1266,.F.);
#1266 = EDGE_CURVE('',#959,#513,#1267,.T.);
#1267 = SURFACE_CURVE('',#1268,(#1271,#1277),.PCURVE_S1.);
#1268 = B_SPLINE_CURVE_WITH_KNOTS('',1,(#1269,#1270),.UNSPECIFIED.,.F.,
  .F.,(2,2),(0.,5.),.PIECEWISE_BEZIER_KNOTS.);
#1269 = CARTESIAN_POINT('',(-2.5,137.,39.5));
#1270 = CARTESIAN_POINT('',(2.5,137.,39.5));
#1271 = PCURVE('',#555,#1272);
#1272 = DEFINITIONAL_REPRESENTATION('',(#1273),#1276);
#1273 = B_SPLINE_CURVE_WITH_KNOTS('',1,(#1274,#1275),.UNSPECIFIED.,.F.,
  .F.,(2,2),(0.,5.),.PIECEWISE_BEZIER_KNOTS.);
#1274 = CARTESIAN_POINT('',(-2.5,7.5));
#1275 = CARTESIAN_POINT('',(2.5,7.5));
#1276 = ( GEOMETRIC_REPRESENTATION_CONTEXT(2) 
PARAMETRIC_REPRESENTATION_CONTEXT() REPRESENTATION_CONTEXT('2D SPACE',''
  ) );
#1277 = PCURVE('',#526,#1278);
#1278 = DEFINITIONAL_REPRESENTATION('',(#1279),#1282);
#1279 = B_SPLINE_CURVE_WITH_KNOTS('',1,(#1280,#1281),.UNSPECIFIED.,.F.,
  .F.,(2,2),(0.,5.),.PIECEWISE_BEZIER_KNOTS.);
#1280 = CARTESIAN_POINT('',(0.5,-2.5));
#1281 = CARTESIAN_POINT('',(0.5,2.5));
#1282 = ( GEOMETRIC_REPRESENTATION_CONTEXT(2) 
PARAMETRIC_REPRESENTATION_CONTEXT() REPRESENTATION_CONTEXT('2D SPACE',''
  ) );
#1283 = ADVANCED_FACE('',(#1284),#499,.F.);
#1284 = FACE_BOUND('',#1285,.F.);
#1285 = EDGE_LOOP('',(#1286,#1287,#1288,#1289));
#1286 = ORIENTED_EDGE('',*,*,#481,.F.);
#1287 = ORIENTED_EDGE('',*,*,#1241,.T.);
#1288 = ORIENTED_EDGE('',*,*,#1004,.T.);
#1289 = ORIENTED_EDGE('',*,*,#1290,.F.);
#1290 = EDGE_CURVE('',#482,#985,#1291,.T.);
#1291 = SURFACE_CURVE('',#1292,(#1295,#1301),.PCURVE_S1.);
#1292 = B_SPLINE_CURVE_WITH_KNOTS('',1,(#1293,#1294),.UNSPECIFIED.,.F.,
  .F.,(2,2),(0.,5.),.PIECEWISE_BEZIER_KNOTS.);
#1293 = CARTESIAN_POINT('',(2.5,137.,40.5));
#1294 = CARTESIAN_POINT('',(-2.5,137.,40.5));
#1295 = PCURVE('',#499,#1296);
#1296 = DEFINITIONAL_REPRESENTATION('',(#1297),#1300);
#1297 = B_SPLINE_CURVE_WITH_KNOTS('',1,(#1298,#1299),.UNSPECIFIED.,.F.,
  .F.,(2,2),(0.,5.),.PIECEWISE_BEZIER_KNOTS.);
#1298 = CARTESIAN_POINT('',(-2.5,7.5));
#1299 = CARTESIAN_POINT('',(2.5,7.5));
#1300 = ( GEOMETRIC_REPRESENTATION_CONTEXT(2) 
PARAMETRIC_REPRESENTATION_CONTEXT() REPRESENTATION_CONTEXT('2D SPACE',''
  ) );
#1301 = PCURVE('',#526,#1302);
#1302 = DEFINITIONAL_REPRESENTATION('',(#1303),#1306);
#1303 = B_SPLINE_CURVE_WITH_KNOTS('',1,(#1304,#1305),.UNSPECIFIED.,.F.,
  .F.,(2,2),(0.,5.),.PIECEWISE_BEZIER_KNOTS.);
#1304 = CARTESIAN_POINT('',(-0.5,2.5));
#1305 = CARTESIAN_POINT('',(-0.5,-2.5));
#1306 = ( GEOMETRIC_REPRESENTATION_CONTEXT(2) 
PARAMETRIC_REPRESENTATION_CONTEXT() REPRESENTATION_CONTEXT('2D SPACE',''
  ) );
#1307 = ADVANCED_FACE('',(#1308),#73,.T.);
#1308 = FACE_BOUND('',#1309,.T.);
#1309 = EDGE_LOOP('',(#1310,#1311,#1312,#1313));
#1310 = ORIENTED_EDGE('',*,*,#59,.T.);
#1311 = ORIENTED_EDGE('',*,*,#200,.T.);
#1312 = ORIENTED_EDGE('',*,*,#739,.T.);
#1313 = ORIENTED_EDGE('',*,*,#807,.T.);
#1314 = ADVANCED_FACE('',(#1315),#526,.F.);
#1315 = FACE_BOUND('',#1316,.F.);
#1316 = EDGE_LOOP('',(#1317,#1318,#1319,#1320));
#1317 = ORIENTED_EDGE('',*,*,#1266,.T.);
#1318 = ORIENTED_EDGE('',*,*,#512,.T.);
#1319 = ORIENTED_EDGE('',*,*,#1290,.T.);
#1320 = ORIENTED_EDGE('',*,*,#984,.T.);
#1321 = ( GEOMETRIC_REPRESENTATION_CONTEXT(3) 
GLOBAL_UNCERTAINTY_ASSIGNED_CONTEXT((#1325)) 
GLOBAL_UNIT_ASSIGNED_CONTEXT((#1322,#1323,#1324)) REPRESENTATION_CONTEXT
('Context #1','3D Context with UNIT and UNCERTAINTY') );
#1322 = ( LENGTH_UNIT() NAMED_UNIT(*) SI_UNIT(.MILLI.,.METRE.) );
#1323 = ( NAMED_UNIT(*) PLANE_ANGLE_UNIT() SI_UNIT($,.RADIAN.) );
#1324 = ( NAMED_UNIT(*) SI_UNIT($,.STERADIAN.) SOLID_ANGLE_UNIT() );
#1325 = UNCERTAINTY_MEASURE_WITH_UNIT(LENGTH_MEASURE(2.E-05),#1322,
  'distance_accuracy_value','confusion accuracy');
#1326 = PRODUCT_RELATED_PRODUCT_CATEGORY('part',$,(#7));
ENDSEC;
END-ISO-10303-21;
