ISO-10303-21;
HEADER;
FILE_DESCRIPTION(('Open CASCADE Model'),'2;1');
FILE_NAME('Open CASCADE Shape Model','2026-06-16T18:00:46',('Author'),(
    'Open CASCADE'),'Open CASCADE STEP processor 7.8','Open CASCADE 7.8'
  ,'Unknown');
FILE_SCHEMA(('AUTOMOTIVE_DESIGN { 1 0 10303 214 1 1 1 1 }'));
ENDSEC;
DATA;
#1 = APPLICATION_PROTOCOL_DEFINITION('international standard',
  'automotive_design',2000,#2);
#2 = APPLICATION_CONTEXT(
  'core data for automotive mechanical design processes');
#3 = SHAPE_DEFINITION_REPRESENTATION(#4,#10);
#4 = PRODUCT_DEFINITION_SHAPE('','',#5);
#5 = PRODUCT_DEFINITION('design','',#6,#9);
#6 = PRODUCT_DEFINITION_FORMATION('','',#7);
#7 = PRODUCT('Open CASCADE STEP translator 7.8 2',
  'Open CASCADE STEP translator 7.8 2','',(#8));
#8 = PRODUCT_CONTEXT('',#2,'mechanical');
#9 = PRODUCT_DEFINITION_CONTEXT('part definition',#2,'design');
#10 = ADVANCED_BREP_SHAPE_REPRESENTATION('',(#11,#15),#1285);
#11 = AXIS2_PLACEMENT_3D('',#12,#13,#14);
#12 = CARTESIAN_POINT('',(0.,0.,0.));
#13 = DIRECTION('',(0.,0.,1.));
#14 = DIRECTION('',(1.,0.,-0.));
#15 = MANIFOLD_SOLID_BREP('',#16);
#16 = CLOSED_SHELL('',(#17,#195,#710,#778,#1123,#1148,#1173,#1198,#1223,
    #1247,#1271,#1278));
#17 = ADVANCED_FACE('',(#18),#33,.F.);
#18 = FACE_BOUND('',#19,.F.);
#19 = EDGE_LOOP('',(#20,#58,#83,#114));
#20 = ORIENTED_EDGE('',*,*,#21,.F.);
#21 = EDGE_CURVE('',#22,#24,#26,.T.);
#22 = VERTEX_POINT('',#23);
#23 = CARTESIAN_POINT('',(-2.5,-30.,-48.5));
#24 = VERTEX_POINT('',#25);
#25 = CARTESIAN_POINT('',(-2.5,3.552713678801E-15,-48.5));
#26 = SURFACE_CURVE('',#27,(#32,#45),.PCURVE_S1.);
#27 = B_SPLINE_CURVE_WITH_KNOTS('',3,(#28,#29,#30,#31),.UNSPECIFIED.,.F.
  ,.F.,(4,4),(0.,1.),.PIECEWISE_BEZIER_KNOTS.);
#28 = CARTESIAN_POINT('',(-2.5,-30.,-48.5));
#29 = CARTESIAN_POINT('',(-2.5,-29.9,-48.5));
#30 = CARTESIAN_POINT('',(-2.5,-1.E-01,-48.5));
#31 = CARTESIAN_POINT('',(-2.5,8.881784197001E-15,-48.5));
#32 = PCURVE('',#33,#38);
#33 = PLANE('',#34);
#34 = AXIS2_PLACEMENT_3D('',#35,#36,#37);
#35 = CARTESIAN_POINT('',(0.,-15.,-48.5));
#36 = DIRECTION('',(3.405907328437E-16,1.452617148614E-17,1.));
#37 = DIRECTION('',(1.,5.020246460857E-19,-3.405907328437E-16));
#38 = DEFINITIONAL_REPRESENTATION('',(#39),#44);
#39 = B_SPLINE_CURVE_WITH_KNOTS('',3,(#40,#41,#42,#43),.UNSPECIFIED.,.F.
  ,.F.,(4,4),(0.,1.),.PIECEWISE_BEZIER_KNOTS.);
#40 = CARTESIAN_POINT('',(-2.5,-15.));
#41 = CARTESIAN_POINT('',(-2.5,-14.9));
#42 = CARTESIAN_POINT('',(-2.5,14.9));
#43 = CARTESIAN_POINT('',(-2.5,15.));
#44 = ( GEOMETRIC_REPRESENTATION_CONTEXT(2) 
PARAMETRIC_REPRESENTATION_CONTEXT() REPRESENTATION_CONTEXT('2D SPACE',''
  ) );
#45 = PCURVE('',#46,#51);
#46 = PLANE('',#47);
#47 = AXIS2_PLACEMENT_3D('',#48,#49,#50);
#48 = CARTESIAN_POINT('',(-2.5,-15.,-48.));
#49 = DIRECTION('',(1.,4.004753648206E-18,1.011631268078E-29));
#50 = DIRECTION('',(1.011648580012E-29,-4.322846151007E-17,-1.));
#51 = DEFINITIONAL_REPRESENTATION('',(#52),#57);
#52 = B_SPLINE_CURVE_WITH_KNOTS('',3,(#53,#54,#55,#56),.UNSPECIFIED.,.F.
  ,.F.,(4,4),(0.,1.),.PIECEWISE_BEZIER_KNOTS.);
#53 = CARTESIAN_POINT('',(0.5,-15.));
#54 = CARTESIAN_POINT('',(0.5,-14.9));
#55 = CARTESIAN_POINT('',(0.5,14.9));
#56 = CARTESIAN_POINT('',(0.5,15.));
#57 = ( GEOMETRIC_REPRESENTATION_CONTEXT(2) 
PARAMETRIC_REPRESENTATION_CONTEXT() REPRESENTATION_CONTEXT('2D SPACE',''
  ) );
#58 = ORIENTED_EDGE('',*,*,#59,.T.);
#59 = EDGE_CURVE('',#22,#60,#62,.T.);
#60 = VERTEX_POINT('',#61);
#61 = CARTESIAN_POINT('',(2.5,-30.,-48.5));
#62 = SURFACE_CURVE('',#63,(#66,#72),.PCURVE_S1.);
#63 = B_SPLINE_CURVE_WITH_KNOTS('',1,(#64,#65),.UNSPECIFIED.,.F.,.F.,(2,
    2),(0.,5.),.PIECEWISE_BEZIER_KNOTS.);
#64 = CARTESIAN_POINT('',(-2.5,-30.,-48.5));
#65 = CARTESIAN_POINT('',(2.5,-30.,-48.5));
#66 = PCURVE('',#33,#67);
#67 = DEFINITIONAL_REPRESENTATION('',(#68),#71);
#68 = B_SPLINE_CURVE_WITH_KNOTS('',1,(#69,#70),.UNSPECIFIED.,.F.,.F.,(2,
    2),(0.,5.),.PIECEWISE_BEZIER_KNOTS.);
#69 = CARTESIAN_POINT('',(-2.5,-15.));
#70 = CARTESIAN_POINT('',(2.5,-15.));
#71 = ( GEOMETRIC_REPRESENTATION_CONTEXT(2) 
PARAMETRIC_REPRESENTATION_CONTEXT() REPRESENTATION_CONTEXT('2D SPACE',''
  ) );
#72 = PCURVE('',#73,#78);
#73 = PLANE('',#74);
#74 = AXIS2_PLACEMENT_3D('',#75,#76,#77);
#75 = CARTESIAN_POINT('',(0.,-30.,-48.));
#76 = DIRECTION('',(-0.,-1.,-0.));
#77 = DIRECTION('',(0.,0.,-1.));
#78 = DEFINITIONAL_REPRESENTATION('',(#79),#82);
#79 = B_SPLINE_CURVE_WITH_KNOTS('',1,(#80,#81),.UNSPECIFIED.,.F.,.F.,(2,
    2),(0.,5.),.PIECEWISE_BEZIER_KNOTS.);
#80 = CARTESIAN_POINT('',(0.5,-2.5));
#81 = CARTESIAN_POINT('',(0.5,2.5));
#82 = ( GEOMETRIC_REPRESENTATION_CONTEXT(2) 
PARAMETRIC_REPRESENTATION_CONTEXT() REPRESENTATION_CONTEXT('2D SPACE',''
  ) );
#83 = ORIENTED_EDGE('',*,*,#84,.T.);
#84 = EDGE_CURVE('',#60,#85,#87,.T.);
#85 = VERTEX_POINT('',#86);
#86 = CARTESIAN_POINT('',(2.5,3.552713678801E-15,-48.5));
#87 = SURFACE_CURVE('',#88,(#93,#101),.PCURVE_S1.);
#88 = B_SPLINE_CURVE_WITH_KNOTS('',3,(#89,#90,#91,#92),.UNSPECIFIED.,.F.
  ,.F.,(4,4),(0.,1.),.PIECEWISE_BEZIER_KNOTS.);
#89 = CARTESIAN_POINT('',(2.5,-30.,-48.5));
#90 = CARTESIAN_POINT('',(2.5,-29.9,-48.5));
#91 = CARTESIAN_POINT('',(2.5,-1.E-01,-48.5));
#92 = CARTESIAN_POINT('',(2.5,8.881784197001E-15,-48.5));
#93 = PCURVE('',#33,#94);
#94 = DEFINITIONAL_REPRESENTATION('',(#95),#100);
#95 = B_SPLINE_CURVE_WITH_KNOTS('',3,(#96,#97,#98,#99),.UNSPECIFIED.,.F.
  ,.F.,(4,4),(0.,1.),.PIECEWISE_BEZIER_KNOTS.);
#96 = CARTESIAN_POINT('',(2.5,-15.));
#97 = CARTESIAN_POINT('',(2.5,-14.9));
#98 = CARTESIAN_POINT('',(2.5,14.9));
#99 = CARTESIAN_POINT('',(2.5,15.));
#100 = ( GEOMETRIC_REPRESENTATION_CONTEXT(2) 
PARAMETRIC_REPRESENTATION_CONTEXT() REPRESENTATION_CONTEXT('2D SPACE',''
  ) );
#101 = PCURVE('',#102,#107);
#102 = PLANE('',#103);
#103 = AXIS2_PLACEMENT_3D('',#104,#105,#106);
#104 = CARTESIAN_POINT('',(2.5,-15.,-48.));
#105 = DIRECTION('',(-1.,4.004753648206E-18,-1.261626990214E-29));
#106 = DIRECTION('',(-1.261613421401E-29,3.388176712951E-17,1.));
#107 = DEFINITIONAL_REPRESENTATION('',(#108),#113);
#108 = B_SPLINE_CURVE_WITH_KNOTS('',3,(#109,#110,#111,#112),
  .UNSPECIFIED.,.F.,.F.,(4,4),(0.,1.),.PIECEWISE_BEZIER_KNOTS.);
#109 = CARTESIAN_POINT('',(-0.5,-15.));
#110 = CARTESIAN_POINT('',(-0.5,-14.9));
#111 = CARTESIAN_POINT('',(-0.5,14.9));
#112 = CARTESIAN_POINT('',(-0.5,15.));
#113 = ( GEOMETRIC_REPRESENTATION_CONTEXT(2) 
PARAMETRIC_REPRESENTATION_CONTEXT() REPRESENTATION_CONTEXT('2D SPACE',''
  ) );
#114 = ORIENTED_EDGE('',*,*,#115,.F.);
#115 = EDGE_CURVE('',#24,#85,#116,.T.);
#116 = SURFACE_CURVE('',#117,(#120,#126),.PCURVE_S1.);
#117 = B_SPLINE_CURVE_WITH_KNOTS('',1,(#118,#119),.UNSPECIFIED.,.F.,.F.,
  (2,2),(0.,5.),.PIECEWISE_BEZIER_KNOTS.);
#118 = CARTESIAN_POINT('',(-2.5,8.881784197001E-15,-48.5));
#119 = CARTESIAN_POINT('',(2.5,8.881784197001E-15,-48.5));
#120 = PCURVE('',#33,#121);
#121 = DEFINITIONAL_REPRESENTATION('',(#122),#125);
#122 = B_SPLINE_CURVE_WITH_KNOTS('',1,(#123,#124),.UNSPECIFIED.,.F.,.F.,
  (2,2),(0.,5.),.PIECEWISE_BEZIER_KNOTS.);
#123 = CARTESIAN_POINT('',(-2.5,15.));
#124 = CARTESIAN_POINT('',(2.5,15.));
#125 = ( GEOMETRIC_REPRESENTATION_CONTEXT(2) 
PARAMETRIC_REPRESENTATION_CONTEXT() REPRESENTATION_CONTEXT('2D SPACE',''
  ) );
#126 = PCURVE('',#127,#190);
#127 = B_SPLINE_SURFACE_WITH_KNOTS('',1,9,(
    (#128,#129,#130,#131,#132,#133,#134,#135,#136,#137,#138,#139,#140
      ,#141,#142,#143,#144,#145,#146,#147,#148,#149,#150,#151,#152,#153
      ,#154,#155,#156,#157,#158)
    ,(#159,#160,#161,#162,#163,#164,#165,#166,#167,#168,#169,#170,#171
      ,#172,#173,#174,#175,#176,#177,#178,#179,#180,#181,#182,#183,#184
      ,#185,#186,#187,#188,#189
    )),.UNSPECIFIED.,.F.,.F.,.F.,(2,2),(10,7,7,7,10),(0.,5.),(0.,
    0.340142665906,0.670071332953,0.835035666476,1.),.UNSPECIFIED.);
#128 = CARTESIAN_POINT('',(-2.5,1.7763568394E-15,-48.5));
#129 = CARTESIAN_POINT('',(-2.5,2.182850134135,-48.5));
#130 = CARTESIAN_POINT('',(-2.5,4.654884194781,-48.8187773909));
#131 = CARTESIAN_POINT('',(-2.5,7.363117012534,-49.41876204391));
#132 = CARTESIAN_POINT('',(-2.5,10.257320386883,-50.25038330587));
#133 = CARTESIAN_POINT('',(-2.5,13.290971307313,-51.26332757749));
#134 = CARTESIAN_POINT('',(-2.5,16.419836370265,-52.4090904049));
#135 = CARTESIAN_POINT('',(-2.5,19.599942856479,-53.63922205893));
#136 = CARTESIAN_POINT('',(-2.5,25.877737633383,-56.13013966145));
#137 = CARTESIAN_POINT('',(-2.5,32.013489525182,-58.56469716692));
#138 = CARTESIAN_POINT('',(-2.5,34.961273756612,-59.70527600118));
#139 = CARTESIAN_POINT('',(-2.5,37.792808121886,-60.7412619928));
#140 = CARTESIAN_POINT('',(-2.5,40.476033051479,-61.6315901932));
#141 = CARTESIAN_POINT('',(-2.5,42.969836793554,-62.32852490444));
#142 = CARTESIAN_POINT('',(-2.5,45.231547500009,-62.78538497362));
#143 = CARTESIAN_POINT('',(-2.5,48.249890587463,-63.05887725815));
#144 = CARTESIAN_POINT('',(-2.5,50.652359867293,-62.53585770081));
#145 = CARTESIAN_POINT('',(-2.5,51.382340166161,-62.26110435158));
#146 = CARTESIAN_POINT('',(-2.5,52.028791429884,-61.8864353201));
#147 = CARTESIAN_POINT('',(-2.5,52.613830761018,-61.3599867633));
#148 = CARTESIAN_POINT('',(-2.5,53.032364578103,-60.70989682027));
#149 = CARTESIAN_POINT('',(-2.5,53.333450569487,-59.96800216969));
#150 = CARTESIAN_POINT('',(-2.5,53.685768190962,-58.27537301432));
#151 = CARTESIAN_POINT('',(-2.5,53.548121937554,-56.1470338865));
#152 = CARTESIAN_POINT('',(-2.5,53.358007207281,-54.96751868459));
#153 = CARTESIAN_POINT('',(-2.5,53.043999263868,-53.66314519457));
#154 = CARTESIAN_POINT('',(-2.5,52.601749592267,-52.22556164188));
#155 = CARTESIAN_POINT('',(-2.5,52.026353696545,-50.64809637088));
#156 = CARTESIAN_POINT('',(-2.5,51.312879468918,-48.92453413796));
#157 = CARTESIAN_POINT('',(-2.5,50.456433595223,-47.04814264239));
#158 = CARTESIAN_POINT('',(-2.5,49.451966585732,-45.0129424824));
#159 = CARTESIAN_POINT('',(2.5,1.7763568394E-15,-48.5));
#160 = CARTESIAN_POINT('',(2.5,2.182850134135,-48.5));
#161 = CARTESIAN_POINT('',(2.5,4.654884194781,-48.8187773909));
#162 = CARTESIAN_POINT('',(2.5,7.363117012534,-49.41876204391));
#163 = CARTESIAN_POINT('',(2.5,10.257320386883,-50.25038330587));
#164 = CARTESIAN_POINT('',(2.5,13.290971307313,-51.26332757749));
#165 = CARTESIAN_POINT('',(2.5,16.419836370265,-52.4090904049));
#166 = CARTESIAN_POINT('',(2.5,19.599942856479,-53.63922205893));
#167 = CARTESIAN_POINT('',(2.5,25.877737633383,-56.13013966145));
#168 = CARTESIAN_POINT('',(2.5,32.013489525182,-58.56469716692));
#169 = CARTESIAN_POINT('',(2.5,34.961273756612,-59.70527600118));
#170 = CARTESIAN_POINT('',(2.5,37.792808121886,-60.7412619928));
#171 = CARTESIAN_POINT('',(2.5,40.476033051479,-61.6315901932));
#172 = CARTESIAN_POINT('',(2.5,42.969836793554,-62.32852490444));
#173 = CARTESIAN_POINT('',(2.5,45.231547500009,-62.78538497362));
#174 = CARTESIAN_POINT('',(2.5,48.249890587463,-63.05887725815));
#175 = CARTESIAN_POINT('',(2.5,50.652359867293,-62.53585770081));
#176 = CARTESIAN_POINT('',(2.5,51.382340166161,-62.26110435158));
#177 = CARTESIAN_POINT('',(2.5,52.028791429884,-61.8864353201));
#178 = CARTESIAN_POINT('',(2.5,52.613830761018,-61.3599867633));
#179 = CARTESIAN_POINT('',(2.5,53.032364578103,-60.70989682027));
#180 = CARTESIAN_POINT('',(2.5,53.333450569487,-59.96800216969));
#181 = CARTESIAN_POINT('',(2.5,53.685768190962,-58.27537301432));
#182 = CARTESIAN_POINT('',(2.5,53.548121937554,-56.1470338865));
#183 = CARTESIAN_POINT('',(2.5,53.358007207281,-54.96751868459));
#184 = CARTESIAN_POINT('',(2.5,53.043999263867,-53.66314519457));
#185 = CARTESIAN_POINT('',(2.5,52.601749592268,-52.22556164188));
#186 = CARTESIAN_POINT('',(2.5,52.026353696544,-50.64809637088));
#187 = CARTESIAN_POINT('',(2.5,51.312879468919,-48.92453413796));
#188 = CARTESIAN_POINT('',(2.5,50.456433595222,-47.04814264239));
#189 = CARTESIAN_POINT('',(2.5,49.451966585732,-45.0129424824));
#190 = DEFINITIONAL_REPRESENTATION('',(#191),#194);
#191 = B_SPLINE_CURVE_WITH_KNOTS('',1,(#192,#193),.UNSPECIFIED.,.F.,.F.,
  (2,2),(0.,5.),.PIECEWISE_BEZIER_KNOTS.);
#192 = CARTESIAN_POINT('',(0.,0.));
#193 = CARTESIAN_POINT('',(5.,0.));
#194 = ( GEOMETRIC_REPRESENTATION_CONTEXT(2) 
PARAMETRIC_REPRESENTATION_CONTEXT() REPRESENTATION_CONTEXT('2D SPACE',''
  ) );
#195 = ADVANCED_FACE('',(#196),#102,.F.);
#196 = FACE_BOUND('',#197,.F.);
#197 = EDGE_LOOP('',(#198,#199,#219,#250,#391,#468,#499,#524,#555,#633)
  );
#198 = ORIENTED_EDGE('',*,*,#84,.F.);
#199 = ORIENTED_EDGE('',*,*,#200,.T.);
#200 = EDGE_CURVE('',#60,#201,#203,.T.);
#201 = VERTEX_POINT('',#202);
#202 = CARTESIAN_POINT('',(2.5,-30.,-47.5));
#203 = SURFACE_CURVE('',#204,(#207,#213),.PCURVE_S1.);
#204 = B_SPLINE_CURVE_WITH_KNOTS('',1,(#205,#206),.UNSPECIFIED.,.F.,.F.,
  (2,2),(0.,1.),.PIECEWISE_BEZIER_KNOTS.);
#205 = CARTESIAN_POINT('',(2.5,-30.,-48.5));
#206 = CARTESIAN_POINT('',(2.5,-30.,-47.5));
#207 = PCURVE('',#102,#208);
#208 = DEFINITIONAL_REPRESENTATION('',(#209),#212);
#209 = B_SPLINE_CURVE_WITH_KNOTS('',1,(#210,#211),.UNSPECIFIED.,.F.,.F.,
  (2,2),(0.,1.),.PIECEWISE_BEZIER_KNOTS.);
#210 = CARTESIAN_POINT('',(-0.5,-15.));
#211 = CARTESIAN_POINT('',(0.5,-15.));
#212 = ( GEOMETRIC_REPRESENTATION_CONTEXT(2) 
PARAMETRIC_REPRESENTATION_CONTEXT() REPRESENTATION_CONTEXT('2D SPACE',''
  ) );
#213 = PCURVE('',#73,#214);
#214 = DEFINITIONAL_REPRESENTATION('',(#215),#218);
#215 = B_SPLINE_CURVE_WITH_KNOTS('',1,(#216,#217),.UNSPECIFIED.,.F.,.F.,
  (2,2),(0.,1.),.PIECEWISE_BEZIER_KNOTS.);
#216 = CARTESIAN_POINT('',(0.5,2.5));
#217 = CARTESIAN_POINT('',(-0.5,2.5));
#218 = ( GEOMETRIC_REPRESENTATION_CONTEXT(2) 
PARAMETRIC_REPRESENTATION_CONTEXT() REPRESENTATION_CONTEXT('2D SPACE',''
  ) );
#219 = ORIENTED_EDGE('',*,*,#220,.T.);
#220 = EDGE_CURVE('',#201,#221,#223,.T.);
#221 = VERTEX_POINT('',#222);
#222 = CARTESIAN_POINT('',(2.5,3.552713678801E-15,-47.5));
#223 = SURFACE_CURVE('',#224,(#229,#237),.PCURVE_S1.);
#224 = B_SPLINE_CURVE_WITH_KNOTS('',3,(#225,#226,#227,#228),
  .UNSPECIFIED.,.F.,.F.,(4,4),(0.,1.),.PIECEWISE_BEZIER_KNOTS.);
#225 = CARTESIAN_POINT('',(2.5,-30.,-47.5));
#226 = CARTESIAN_POINT('',(2.5,-29.9,-47.5));
#227 = CARTESIAN_POINT('',(2.5,-1.E-01,-47.5));
#228 = CARTESIAN_POINT('',(2.5,8.881784197001E-15,-47.5));
#229 = PCURVE('',#102,#230);
#230 = DEFINITIONAL_REPRESENTATION('',(#231),#236);
#231 = B_SPLINE_CURVE_WITH_KNOTS('',3,(#232,#233,#234,#235),
  .UNSPECIFIED.,.F.,.F.,(4,4),(0.,1.),.PIECEWISE_BEZIER_KNOTS.);
#232 = CARTESIAN_POINT('',(0.5,-15.));
#233 = CARTESIAN_POINT('',(0.5,-14.9));
#234 = CARTESIAN_POINT('',(0.5,14.9));
#235 = CARTESIAN_POINT('',(0.5,15.));
#236 = ( GEOMETRIC_REPRESENTATION_CONTEXT(2) 
PARAMETRIC_REPRESENTATION_CONTEXT() REPRESENTATION_CONTEXT('2D SPACE',''
  ) );
#237 = PCURVE('',#238,#243);
#238 = PLANE('',#239);
#239 = AXIS2_PLACEMENT_3D('',#240,#241,#242);
#240 = CARTESIAN_POINT('',(0.,-15.,-47.5));
#241 = DIRECTION('',(1.996566364946E-16,-9.095667146653E-18,-1.));
#242 = DIRECTION('',(-1.,5.020246460857E-19,-1.996566364946E-16));
#243 = DEFINITIONAL_REPRESENTATION('',(#244),#249);
#244 = B_SPLINE_CURVE_WITH_KNOTS('',3,(#245,#246,#247,#248),
  .UNSPECIFIED.,.F.,.F.,(4,4),(0.,1.),.PIECEWISE_BEZIER_KNOTS.);
#245 = CARTESIAN_POINT('',(-2.5,-15.));
#246 = CARTESIAN_POINT('',(-2.5,-14.9));
#247 = CARTESIAN_POINT('',(-2.5,14.9));
#248 = CARTESIAN_POINT('',(-2.5,15.));
#249 = ( GEOMETRIC_REPRESENTATION_CONTEXT(2) 
PARAMETRIC_REPRESENTATION_CONTEXT() REPRESENTATION_CONTEXT('2D SPACE',''
  ) );
#250 = ORIENTED_EDGE('',*,*,#251,.T.);
#251 = EDGE_CURVE('',#221,#252,#254,.T.);
#252 = VERTEX_POINT('',#253);
#253 = CARTESIAN_POINT('',(2.5,48.55523674889,-45.45552083673));
#254 = SURFACE_CURVE('',#255,(#287,#322),.PCURVE_S1.);
#255 = B_SPLINE_CURVE_WITH_KNOTS('',9,(#256,#257,#258,#259,#260,#261,
    #262,#263,#264,#265,#266,#267,#268,#269,#270,#271,#272,#273,#274,
    #275,#276,#277,#278,#279,#280,#281,#282,#283,#284,#285,#286),
  .UNSPECIFIED.,.F.,.F.,(10,7,7,7,10),(0.,0.340142665906,0.670071332953,
    0.835035666476,1.),.UNSPECIFIED.);
#256 = CARTESIAN_POINT('',(2.5,0.,-47.5));
#257 = CARTESIAN_POINT('',(2.5,2.312661006798,-47.5));
#258 = CARTESIAN_POINT('',(2.5,4.866850407477,-47.8377346114));
#259 = CARTESIAN_POINT('',(2.5,7.628377490148,-48.45247915287));
#260 = CARTESIAN_POINT('',(2.5,10.560294574049,-49.2955094675));
#261 = CARTESIAN_POINT('',(2.5,13.621948788392,-50.31884434439));
#262 = CARTESIAN_POINT('',(2.5,16.770397655466,-51.47269342735));
#263 = CARTESIAN_POINT('',(2.5,19.962438013234,-52.70721163541));
#264 = CARTESIAN_POINT('',(2.5,26.252674583488,-55.20306592081));
#265 = CARTESIAN_POINT('',(2.5,32.376358291236,-57.63283498494));
#266 = CARTESIAN_POINT('',(2.5,35.310484723174,-58.76795729433));
#267 = CARTESIAN_POINT('',(2.5,38.126934059758,-59.79858104699));
#268 = CARTESIAN_POINT('',(2.5,40.778209828182,-60.67606809979));
#269 = CARTESIAN_POINT('',(2.5,43.225867737968,-61.35845105895));
#270 = CARTESIAN_POINT('',(2.5,45.433023594896,-61.80270798569));
#271 = CARTESIAN_POINT('',(2.5,48.28975365631,-62.02903554572));
#272 = CARTESIAN_POINT('',(2.5,50.341016385829,-61.57225951735));
#273 = CARTESIAN_POINT('',(2.5,50.927742124825,-61.34479973705));
#274 = CARTESIAN_POINT('',(2.5,51.420181095145,-61.03042815164));
#275 = CARTESIAN_POINT('',(2.5,51.786271688845,-60.66979571763));
#276 = CARTESIAN_POINT('',(2.5,52.121162982205,-60.22355140956));
#277 = CARTESIAN_POINT('',(2.5,52.365852781505,-59.64864566223));
#278 = CARTESIAN_POINT('',(2.5,52.669899091368,-58.24431595527));
#279 = CARTESIAN_POINT('',(2.5,52.553755954872,-56.3041285419));
#280 = CARTESIAN_POINT('',(2.5,52.379493154569,-55.195275667));
#281 = CARTESIAN_POINT('',(2.5,52.081696226572,-53.94596338762));
#282 = CARTESIAN_POINT('',(2.5,51.65476918049,-52.55333059175));
#283 = CARTESIAN_POINT('',(2.5,51.093672007152,-51.01283604866));
#284 = CARTESIAN_POINT('',(2.5,50.393392308882,-49.31948211542));
#285 = CARTESIAN_POINT('',(2.5,49.548878894667,-47.46878820634));
#286 = CARTESIAN_POINT('',(2.5,48.55523674889,-45.45552083673));
#287 = PCURVE('',#102,#288);
#288 = DEFINITIONAL_REPRESENTATION('',(#289),#321);
#289 = B_SPLINE_CURVE_WITH_KNOTS('',9,(#290,#291,#292,#293,#294,#295,
    #296,#297,#298,#299,#300,#301,#302,#303,#304,#305,#306,#307,#308,
    #309,#310,#311,#312,#313,#314,#315,#316,#317,#318,#319,#320),
  .UNSPECIFIED.,.F.,.F.,(10,7,7,7,10),(0.,0.340142665906,0.670071332953,
    0.835035666476,1.),.UNSPECIFIED.);
#290 = CARTESIAN_POINT('',(0.5,15.));
#291 = CARTESIAN_POINT('',(0.5,17.312661006798));
#292 = CARTESIAN_POINT('',(0.162265388599,19.866850407477));
#293 = CARTESIAN_POINT('',(-0.452479152875,22.628377490148));
#294 = CARTESIAN_POINT('',(-1.295509467502,25.560294574049));
#295 = CARTESIAN_POINT('',(-2.318844344392,28.621948788392));
#296 = CARTESIAN_POINT('',(-3.472693427357,31.770397655466));
#297 = CARTESIAN_POINT('',(-4.707211635414,34.962438013234));
#298 = CARTESIAN_POINT('',(-7.203065920818,41.252674583488));
#299 = CARTESIAN_POINT('',(-9.632834984945,47.376358291236));
#300 = CARTESIAN_POINT('',(-10.76795729433,50.310484723174));
#301 = CARTESIAN_POINT('',(-11.79858104699,53.126934059758));
#302 = CARTESIAN_POINT('',(-12.67606809979,55.778209828182));
#303 = CARTESIAN_POINT('',(-13.35845105895,58.225867737968));
#304 = CARTESIAN_POINT('',(-13.80270798569,60.433023594896));
#305 = CARTESIAN_POINT('',(-14.02903554572,63.28975365631));
#306 = CARTESIAN_POINT('',(-13.57225951735,65.341016385829));
#307 = CARTESIAN_POINT('',(-13.34479973705,65.927742124825));
#308 = CARTESIAN_POINT('',(-13.03042815164,66.420181095145));
#309 = CARTESIAN_POINT('',(-12.66979571763,66.786271688845));
#310 = CARTESIAN_POINT('',(-12.22355140956,67.121162982205));
#311 = CARTESIAN_POINT('',(-11.64864566223,67.365852781505));
#312 = CARTESIAN_POINT('',(-10.24431595527,67.669899091368));
#313 = CARTESIAN_POINT('',(-8.304128541902,67.553755954872));
#314 = CARTESIAN_POINT('',(-7.195275667009,67.379493154569));
#315 = CARTESIAN_POINT('',(-5.945963387627,67.081696226572));
#316 = CARTESIAN_POINT('',(-4.55333059175,66.65476918049));
#317 = CARTESIAN_POINT('',(-3.01283604866,66.093672007152));
#318 = CARTESIAN_POINT('',(-1.319482115425,65.393392308882));
#319 = CARTESIAN_POINT('',(0.531211793653,64.548878894667));
#320 = CARTESIAN_POINT('',(2.54447916327,63.55523674889));
#321 = ( GEOMETRIC_REPRESENTATION_CONTEXT(2) 
PARAMETRIC_REPRESENTATION_CONTEXT() REPRESENTATION_CONTEXT('2D SPACE',''
  ) );
#322 = PCURVE('',#323,#386);
#323 = B_SPLINE_SURFACE_WITH_KNOTS('',1,9,(
    (#324,#325,#326,#327,#328,#329,#330,#331,#332,#333,#334,#335,#336
      ,#337,#338,#339,#340,#341,#342,#343,#344,#345,#346,#347,#348,#349
      ,#350,#351,#352,#353,#354)
    ,(#355,#356,#357,#358,#359,#360,#361,#362,#363,#364,#365,#366,#367
      ,#368,#369,#370,#371,#372,#373,#374,#375,#376,#377,#378,#379,#380
      ,#381,#382,#383,#384,#385
    )),.UNSPECIFIED.,.F.,.F.,.F.,(2,2),(10,7,7,7,10),(0.,5.),(0.,
    0.340142665906,0.670071332953,0.835035666476,1.),.UNSPECIFIED.);
#324 = CARTESIAN_POINT('',(2.5,0.,-47.5));
#325 = CARTESIAN_POINT('',(2.5,2.312661006798,-47.5));
#326 = CARTESIAN_POINT('',(2.5,4.866850407477,-47.8377346114));
#327 = CARTESIAN_POINT('',(2.5,7.628377490148,-48.45247915287));
#328 = CARTESIAN_POINT('',(2.5,10.560294574049,-49.2955094675));
#329 = CARTESIAN_POINT('',(2.5,13.621948788392,-50.31884434439));
#330 = CARTESIAN_POINT('',(2.5,16.770397655466,-51.47269342735));
#331 = CARTESIAN_POINT('',(2.5,19.962438013234,-52.70721163541));
#332 = CARTESIAN_POINT('',(2.5,26.252674583488,-55.20306592081));
#333 = CARTESIAN_POINT('',(2.5,32.376358291236,-57.63283498494));
#334 = CARTESIAN_POINT('',(2.5,35.310484723174,-58.76795729433));
#335 = CARTESIAN_POINT('',(2.5,38.126934059758,-59.79858104699));
#336 = CARTESIAN_POINT('',(2.5,40.778209828182,-60.67606809979));
#337 = CARTESIAN_POINT('',(2.5,43.225867737968,-61.35845105895));
#338 = CARTESIAN_POINT('',(2.5,45.433023594896,-61.80270798569));
#339 = CARTESIAN_POINT('',(2.5,48.28975365631,-62.02903554572));
#340 = CARTESIAN_POINT('',(2.5,50.341016385829,-61.57225951735));
#341 = CARTESIAN_POINT('',(2.5,50.927742124825,-61.34479973705));
#342 = CARTESIAN_POINT('',(2.5,51.420181095145,-61.03042815164));
#343 = CARTESIAN_POINT('',(2.5,51.786271688845,-60.66979571763));
#344 = CARTESIAN_POINT('',(2.5,52.121162982205,-60.22355140956));
#345 = CARTESIAN_POINT('',(2.5,52.365852781505,-59.64864566223));
#346 = CARTESIAN_POINT('',(2.5,52.669899091368,-58.24431595527));
#347 = CARTESIAN_POINT('',(2.5,52.553755954872,-56.3041285419));
#348 = CARTESIAN_POINT('',(2.5,52.379493154569,-55.195275667));
#349 = CARTESIAN_POINT('',(2.5,52.081696226572,-53.94596338762));
#350 = CARTESIAN_POINT('',(2.5,51.65476918049,-52.55333059175));
#351 = CARTESIAN_POINT('',(2.5,51.093672007152,-51.01283604866));
#352 = CARTESIAN_POINT('',(2.5,50.393392308882,-49.31948211542));
#353 = CARTESIAN_POINT('',(2.5,49.548878894667,-47.46878820634));
#354 = CARTESIAN_POINT('',(2.5,48.55523674889,-45.45552083673));
#355 = CARTESIAN_POINT('',(-2.5,0.,-47.5));
#356 = CARTESIAN_POINT('',(-2.5,2.312661006798,-47.5));
#357 = CARTESIAN_POINT('',(-2.5,4.866850407477,-47.8377346114));
#358 = CARTESIAN_POINT('',(-2.5,7.628377490148,-48.45247915287));
#359 = CARTESIAN_POINT('',(-2.5,10.560294574049,-49.2955094675));
#360 = CARTESIAN_POINT('',(-2.5,13.621948788392,-50.31884434439));
#361 = CARTESIAN_POINT('',(-2.5,16.770397655467,-51.47269342735));
#362 = CARTESIAN_POINT('',(-2.5,19.962438013234,-52.70721163541));
#363 = CARTESIAN_POINT('',(-2.5,26.252674583488,-55.20306592081));
#364 = CARTESIAN_POINT('',(-2.5,32.376358291235,-57.63283498494));
#365 = CARTESIAN_POINT('',(-2.5,35.310484723175,-58.76795729433));
#366 = CARTESIAN_POINT('',(-2.5,38.126934059755,-59.79858104699));
#367 = CARTESIAN_POINT('',(-2.5,40.778209828185,-60.67606809978));
#368 = CARTESIAN_POINT('',(-2.5,43.225867737966,-61.35845105895));
#369 = CARTESIAN_POINT('',(-2.5,45.433023594897,-61.80270798569));
#370 = CARTESIAN_POINT('',(-2.5,48.28975365631,-62.02903554572));
#371 = CARTESIAN_POINT('',(-2.5,50.341016385829,-61.57225951735));
#372 = CARTESIAN_POINT('',(-2.5,50.927742124827,-61.34479973705));
#373 = CARTESIAN_POINT('',(-2.5,51.420181095142,-61.03042815164));
#374 = CARTESIAN_POINT('',(-2.5,51.786271688848,-60.66979571763));
#375 = CARTESIAN_POINT('',(-2.5,52.121162982203,-60.22355140956));
#376 = CARTESIAN_POINT('',(-2.5,52.365852781505,-59.64864566223));
#377 = CARTESIAN_POINT('',(-2.5,52.669899091367,-58.24431595527));
#378 = CARTESIAN_POINT('',(-2.5,52.553755954872,-56.3041285419));
#379 = CARTESIAN_POINT('',(-2.5,52.379493154569,-55.195275667));
#380 = CARTESIAN_POINT('',(-2.5,52.081696226571,-53.94596338762));
#381 = CARTESIAN_POINT('',(-2.5,51.654769180491,-52.55333059175));
#382 = CARTESIAN_POINT('',(-2.5,51.093672007151,-51.01283604866));
#383 = CARTESIAN_POINT('',(-2.5,50.393392308883,-49.31948211542));
#384 = CARTESIAN_POINT('',(-2.5,49.548878894667,-47.46878820634));
#385 = CARTESIAN_POINT('',(-2.5,48.55523674889,-45.45552083673));
#386 = DEFINITIONAL_REPRESENTATION('',(#387),#390);
#387 = B_SPLINE_CURVE_WITH_KNOTS('',1,(#388,#389),.UNSPECIFIED.,.F.,.F.,
  (2,2),(0.,1.),.PIECEWISE_BEZIER_KNOTS.);
#388 = CARTESIAN_POINT('',(0.,0.));
#389 = CARTESIAN_POINT('',(0.,1.));
#390 = ( GEOMETRIC_REPRESENTATION_CONTEXT(2) 
PARAMETRIC_REPRESENTATION_CONTEXT() REPRESENTATION_CONTEXT('2D SPACE',''
  ) );
#391 = ORIENTED_EDGE('',*,*,#392,.T.);
#392 = EDGE_CURVE('',#252,#393,#395,.T.);
#393 = VERTEX_POINT('',#394);
#394 = CARTESIAN_POINT('',(2.5,62.,40.5));
#395 = SURFACE_CURVE('',#396,(#412,#431),.PCURVE_S1.);
#396 = B_SPLINE_CURVE_WITH_KNOTS('',8,(#397,#398,#399,#400,#401,#402,
    #403,#404,#405,#406,#407,#408,#409,#410,#411),.UNSPECIFIED.,.F.,.F.,
  (9,6,9),(0.,0.5,1.),.UNSPECIFIED.);
#397 = CARTESIAN_POINT('',(2.5,48.55523674889,-45.45552083673));
#398 = CARTESIAN_POINT('',(2.5,43.578504837423,-35.37191880024));
#399 = CARTESIAN_POINT('',(2.5,39.579701301153,-25.87717271907));
#400 = CARTESIAN_POINT('',(2.5,36.521019225774,-16.99144995034));
#401 = CARTESIAN_POINT('',(2.5,34.364540365701,-8.73556781));
#402 = CARTESIAN_POINT('',(2.5,33.072767912504,-1.129149771865));
#403 = CARTESIAN_POINT('',(2.5,32.6092892569,5.809434433794));
#404 = CARTESIAN_POINT('',(2.5,33.26984823186,18.313255210657));
#405 = CARTESIAN_POINT('',(2.5,36.978495977029,27.979108171491));
#406 = CARTESIAN_POINT('',(2.5,39.561971926724,32.078000850624));
#407 = CARTESIAN_POINT('',(2.5,42.8474514232,35.423967136386));
#408 = CARTESIAN_POINT('',(2.5,46.796679677145,37.947719930035));
#409 = CARTESIAN_POINT('',(2.5,51.328324121123,39.644129136471));
#410 = CARTESIAN_POINT('',(2.5,56.409457984119,40.5));
#411 = CARTESIAN_POINT('',(2.5,62.,40.5));
#412 = PCURVE('',#102,#413);
#413 = DEFINITIONAL_REPRESENTATION('',(#414),#430);
#414 = B_SPLINE_CURVE_WITH_KNOTS('',8,(#415,#416,#417,#418,#419,#420,
    #421,#422,#423,#424,#425,#426,#427,#428,#429),.UNSPECIFIED.,.F.,.F.,
  (9,6,9),(0.,0.5,1.),.UNSPECIFIED.);
#415 = CARTESIAN_POINT('',(2.54447916327,63.55523674889));
#416 = CARTESIAN_POINT('',(12.628081199751,58.578504837423));
#417 = CARTESIAN_POINT('',(22.122827280925,54.579701301153));
#418 = CARTESIAN_POINT('',(31.008550049656,51.521019225774));
#419 = CARTESIAN_POINT('',(39.26443219,49.364540365701));
#420 = CARTESIAN_POINT('',(46.870850228135,48.072767912504));
#421 = CARTESIAN_POINT('',(53.809434433794,47.6092892569));
#422 = CARTESIAN_POINT('',(66.313255210657,48.269848231859));
#423 = CARTESIAN_POINT('',(75.979108171491,51.978495977029));
#424 = CARTESIAN_POINT('',(80.078000850624,54.561971926724));
#425 = CARTESIAN_POINT('',(83.423967136386,57.8474514232));
#426 = CARTESIAN_POINT('',(85.947719930035,61.796679677145));
#427 = CARTESIAN_POINT('',(87.644129136471,66.328324121123));
#428 = CARTESIAN_POINT('',(88.5,71.409457984119));
#429 = CARTESIAN_POINT('',(88.5,77.));
#430 = ( GEOMETRIC_REPRESENTATION_CONTEXT(2) 
PARAMETRIC_REPRESENTATION_CONTEXT() REPRESENTATION_CONTEXT('2D SPACE',''
  ) );
#431 = PCURVE('',#432,#463);
#432 = B_SPLINE_SURFACE_WITH_KNOTS('',1,8,(
    (#433,#434,#435,#436,#437,#438,#439,#440,#441,#442,#443,#444,#445
      ,#446,#447)
    ,(#448,#449,#450,#451,#452,#453,#454,#455,#456,#457,#458,#459,#460
      ,#461,#462
    )),.UNSPECIFIED.,.F.,.F.,.F.,(2,2),(9,6,9),(0.,5.),(0.,0.5,1.),
  .UNSPECIFIED.);
#433 = CARTESIAN_POINT('',(2.5,48.55523674889,-45.45552083673));
#434 = CARTESIAN_POINT('',(2.5,43.578504837423,-35.37191880024));
#435 = CARTESIAN_POINT('',(2.5,39.579701301153,-25.87717271907));
#436 = CARTESIAN_POINT('',(2.5,36.521019225774,-16.99144995034));
#437 = CARTESIAN_POINT('',(2.5,34.364540365701,-8.73556781));
#438 = CARTESIAN_POINT('',(2.5,33.072767912504,-1.129149771865));
#439 = CARTESIAN_POINT('',(2.5,32.6092892569,5.809434433794));
#440 = CARTESIAN_POINT('',(2.5,33.26984823186,18.313255210657));
#441 = CARTESIAN_POINT('',(2.5,36.978495977029,27.979108171491));
#442 = CARTESIAN_POINT('',(2.5,39.561971926724,32.078000850624));
#443 = CARTESIAN_POINT('',(2.5,42.8474514232,35.423967136386));
#444 = CARTESIAN_POINT('',(2.5,46.796679677145,37.947719930035));
#445 = CARTESIAN_POINT('',(2.5,51.328324121123,39.644129136471));
#446 = CARTESIAN_POINT('',(2.5,56.409457984119,40.5));
#447 = CARTESIAN_POINT('',(2.5,62.,40.5));
#448 = CARTESIAN_POINT('',(-2.5,48.55523674889,-45.45552083673));
#449 = CARTESIAN_POINT('',(-2.5,43.578504837423,-35.37191880024));
#450 = CARTESIAN_POINT('',(-2.5,39.579701301153,-25.87717271907));
#451 = CARTESIAN_POINT('',(-2.5,36.521019225774,-16.99144995034));
#452 = CARTESIAN_POINT('',(-2.5,34.364540365701,-8.73556781));
#453 = CARTESIAN_POINT('',(-2.5,33.072767912504,-1.129149771865));
#454 = CARTESIAN_POINT('',(-2.5,32.6092892569,5.809434433794));
#455 = CARTESIAN_POINT('',(-2.5,33.269848231859,18.313255210657));
#456 = CARTESIAN_POINT('',(-2.5,36.97849597703,27.979108171491));
#457 = CARTESIAN_POINT('',(-2.5,39.561971926724,32.078000850624));
#458 = CARTESIAN_POINT('',(-2.5,42.8474514232,35.423967136386));
#459 = CARTESIAN_POINT('',(-2.5,46.796679677144,37.947719930034));
#460 = CARTESIAN_POINT('',(-2.5,51.328324121124,39.644129136471));
#461 = CARTESIAN_POINT('',(-2.5,56.409457984119,40.5));
#462 = CARTESIAN_POINT('',(-2.5,62.,40.5));
#463 = DEFINITIONAL_REPRESENTATION('',(#464),#467);
#464 = B_SPLINE_CURVE_WITH_KNOTS('',1,(#465,#466),.UNSPECIFIED.,.F.,.F.,
  (2,2),(0.,1.),.PIECEWISE_BEZIER_KNOTS.);
#465 = CARTESIAN_POINT('',(0.,0.));
#466 = CARTESIAN_POINT('',(0.,1.));
#467 = ( GEOMETRIC_REPRESENTATION_CONTEXT(2) 
PARAMETRIC_REPRESENTATION_CONTEXT() REPRESENTATION_CONTEXT('2D SPACE',''
  ) );
#468 = ORIENTED_EDGE('',*,*,#469,.T.);
#469 = EDGE_CURVE('',#393,#470,#472,.T.);
#470 = VERTEX_POINT('',#471);
#471 = CARTESIAN_POINT('',(2.5,77.,40.5));
#472 = SURFACE_CURVE('',#473,(#478,#486),.PCURVE_S1.);
#473 = B_SPLINE_CURVE_WITH_KNOTS('',3,(#474,#475,#476,#477),
  .UNSPECIFIED.,.F.,.F.,(4,4),(0.,1.),.PIECEWISE_BEZIER_KNOTS.);
#474 = CARTESIAN_POINT('',(2.5,62.,40.5));
#475 = CARTESIAN_POINT('',(2.5,63.,40.5));
#476 = CARTESIAN_POINT('',(2.5,76.9,40.5));
#477 = CARTESIAN_POINT('',(2.5,77.,40.5));
#478 = PCURVE('',#102,#479);
#479 = DEFINITIONAL_REPRESENTATION('',(#480),#485);
#480 = B_SPLINE_CURVE_WITH_KNOTS('',3,(#481,#482,#483,#484),
  .UNSPECIFIED.,.F.,.F.,(4,4),(0.,1.),.PIECEWISE_BEZIER_KNOTS.);
#481 = CARTESIAN_POINT('',(88.5,77.));
#482 = CARTESIAN_POINT('',(88.5,78.));
#483 = CARTESIAN_POINT('',(88.5,91.9));
#484 = CARTESIAN_POINT('',(88.5,92.));
#485 = ( GEOMETRIC_REPRESENTATION_CONTEXT(2) 
PARAMETRIC_REPRESENTATION_CONTEXT() REPRESENTATION_CONTEXT('2D SPACE',''
  ) );
#486 = PCURVE('',#487,#492);
#487 = PLANE('',#488);
#488 = AXIS2_PLACEMENT_3D('',#489,#490,#491);
#489 = CARTESIAN_POINT('',(0.,69.7025,40.5));
#490 = DIRECTION('',(3.353734300291E-32,8.923677060332E-17,-1.));
#491 = DIRECTION('',(-1.,-3.538656651992E-17,-3.669512592189E-32));
#492 = DEFINITIONAL_REPRESENTATION('',(#493),#498);
#493 = B_SPLINE_CURVE_WITH_KNOTS('',3,(#494,#495,#496,#497),
  .UNSPECIFIED.,.F.,.F.,(4,4),(0.,1.),.PIECEWISE_BEZIER_KNOTS.);
#494 = CARTESIAN_POINT('',(-2.5,-7.7025));
#495 = CARTESIAN_POINT('',(-2.5,-6.7025));
#496 = CARTESIAN_POINT('',(-2.5,7.1975));
#497 = CARTESIAN_POINT('',(-2.5,7.2975));
#498 = ( GEOMETRIC_REPRESENTATION_CONTEXT(2) 
PARAMETRIC_REPRESENTATION_CONTEXT() REPRESENTATION_CONTEXT('2D SPACE',''
  ) );
#499 = ORIENTED_EDGE('',*,*,#500,.F.);
#500 = EDGE_CURVE('',#501,#470,#503,.T.);
#501 = VERTEX_POINT('',#502);
#502 = CARTESIAN_POINT('',(2.5,77.,39.5));
#503 = SURFACE_CURVE('',#504,(#507,#513),.PCURVE_S1.);
#504 = B_SPLINE_CURVE_WITH_KNOTS('',1,(#505,#506),.UNSPECIFIED.,.F.,.F.,
  (2,2),(0.,1.),.PIECEWISE_BEZIER_KNOTS.);
#505 = CARTESIAN_POINT('',(2.5,77.,39.5));
#506 = CARTESIAN_POINT('',(2.5,77.,40.5));
#507 = PCURVE('',#102,#508);
#508 = DEFINITIONAL_REPRESENTATION('',(#509),#512);
#509 = B_SPLINE_CURVE_WITH_KNOTS('',1,(#510,#511),.UNSPECIFIED.,.F.,.F.,
  (2,2),(0.,1.),.PIECEWISE_BEZIER_KNOTS.);
#510 = CARTESIAN_POINT('',(87.5,92.));
#511 = CARTESIAN_POINT('',(88.5,92.));
#512 = ( GEOMETRIC_REPRESENTATION_CONTEXT(2) 
PARAMETRIC_REPRESENTATION_CONTEXT() REPRESENTATION_CONTEXT('2D SPACE',''
  ) );
#513 = PCURVE('',#514,#519);
#514 = PLANE('',#515);
#515 = AXIS2_PLACEMENT_3D('',#516,#517,#518);
#516 = CARTESIAN_POINT('',(0.,77.,40.));
#517 = DIRECTION('',(-0.,-1.,-0.));
#518 = DIRECTION('',(0.,0.,-1.));
#519 = DEFINITIONAL_REPRESENTATION('',(#520),#523);
#520 = B_SPLINE_CURVE_WITH_KNOTS('',1,(#521,#522),.UNSPECIFIED.,.F.,.F.,
  (2,2),(0.,1.),.PIECEWISE_BEZIER_KNOTS.);
#521 = CARTESIAN_POINT('',(0.5,2.5));
#522 = CARTESIAN_POINT('',(-0.5,2.5));
#523 = ( GEOMETRIC_REPRESENTATION_CONTEXT(2) 
PARAMETRIC_REPRESENTATION_CONTEXT() REPRESENTATION_CONTEXT('2D SPACE',''
  ) );
#524 = ORIENTED_EDGE('',*,*,#525,.F.);
#525 = EDGE_CURVE('',#526,#501,#528,.T.);
#526 = VERTEX_POINT('',#527);
#527 = CARTESIAN_POINT('',(2.5,62.,39.5));
#528 = SURFACE_CURVE('',#529,(#534,#542),.PCURVE_S1.);
#529 = B_SPLINE_CURVE_WITH_KNOTS('',3,(#530,#531,#532,#533),
  .UNSPECIFIED.,.F.,.F.,(4,4),(0.,1.),.PIECEWISE_BEZIER_KNOTS.);
#530 = CARTESIAN_POINT('',(2.5,62.,39.5));
#531 = CARTESIAN_POINT('',(2.5,63.,39.5));
#532 = CARTESIAN_POINT('',(2.5,76.9,39.5));
#533 = CARTESIAN_POINT('',(2.5,77.,39.5));
#534 = PCURVE('',#102,#535);
#535 = DEFINITIONAL_REPRESENTATION('',(#536),#541);
#536 = B_SPLINE_CURVE_WITH_KNOTS('',3,(#537,#538,#539,#540),
  .UNSPECIFIED.,.F.,.F.,(4,4),(0.,1.),.PIECEWISE_BEZIER_KNOTS.);
#537 = CARTESIAN_POINT('',(87.5,77.));
#538 = CARTESIAN_POINT('',(87.5,78.));
#539 = CARTESIAN_POINT('',(87.5,91.9));
#540 = CARTESIAN_POINT('',(87.5,92.));
#541 = ( GEOMETRIC_REPRESENTATION_CONTEXT(2) 
PARAMETRIC_REPRESENTATION_CONTEXT() REPRESENTATION_CONTEXT('2D SPACE',''
  ) );
#542 = PCURVE('',#543,#548);
#543 = PLANE('',#544);
#544 = AXIS2_PLACEMENT_3D('',#545,#546,#547);
#545 = CARTESIAN_POINT('',(0.,69.7025,39.5));
#546 = DIRECTION('',(-5.872254014546E-16,-3.189287665013E-16,1.));
#547 = DIRECTION('',(1.,-3.538656651992E-17,5.872254014546E-16));
#548 = DEFINITIONAL_REPRESENTATION('',(#549),#554);
#549 = B_SPLINE_CURVE_WITH_KNOTS('',3,(#550,#551,#552,#553),
  .UNSPECIFIED.,.F.,.F.,(4,4),(0.,1.),.PIECEWISE_BEZIER_KNOTS.);
#550 = CARTESIAN_POINT('',(2.5,-7.7025));
#551 = CARTESIAN_POINT('',(2.5,-6.7025));
#552 = CARTESIAN_POINT('',(2.5,7.1975));
#553 = CARTESIAN_POINT('',(2.5,7.2975));
#554 = ( GEOMETRIC_REPRESENTATION_CONTEXT(2) 
PARAMETRIC_REPRESENTATION_CONTEXT() REPRESENTATION_CONTEXT('2D SPACE',''
  ) );
#555 = ORIENTED_EDGE('',*,*,#556,.F.);
#556 = EDGE_CURVE('',#557,#526,#559,.T.);
#557 = VERTEX_POINT('',#558);
#558 = CARTESIAN_POINT('',(2.5,49.451966585732,-45.0129424824));
#559 = SURFACE_CURVE('',#560,(#576,#595),.PCURVE_S1.);
#560 = B_SPLINE_CURVE_WITH_KNOTS('',8,(#561,#562,#563,#564,#565,#566,
    #567,#568,#569,#570,#571,#572,#573,#574,#575),.UNSPECIFIED.,.F.,.F.,
  (9,6,9),(0.,0.5,1.),.UNSPECIFIED.);
#561 = CARTESIAN_POINT('',(2.5,49.451966585732,-45.0129424824));
#562 = CARTESIAN_POINT('',(2.5,44.496459897955,-34.97234591871));
#563 = CARTESIAN_POINT('',(2.5,40.518881778659,-25.52654487515));
#564 = CARTESIAN_POINT('',(2.5,37.480817348763,-16.69767054152));
#565 = CARTESIAN_POINT('',(2.5,35.343963060458,-8.507204148854));
#566 = CARTESIAN_POINT('',(2.5,34.069593928787,-0.97782077026));
#567 = CARTESIAN_POINT('',(2.5,33.617900769642,5.866550777563));
#568 = CARTESIAN_POINT('',(2.5,34.27649411864,18.138353087264));
#569 = CARTESIAN_POINT('',(2.5,37.881103430782,27.498352184374));
#570 = CARTESIAN_POINT('',(2.5,40.376560399691,31.432644230105));
#571 = CARTESIAN_POINT('',(2.5,43.516096418377,34.597822818142));
#572 = CARTESIAN_POINT('',(2.5,47.261744482761,37.020876500275));
#573 = CARTESIAN_POINT('',(2.5,51.61861536689,38.664636824648));
#574 = CARTESIAN_POINT('',(2.5,56.543414048389,39.5));
#575 = CARTESIAN_POINT('',(2.5,62.,39.5));
#576 = PCURVE('',#102,#577);
#577 = DEFINITIONAL_REPRESENTATION('',(#578),#594);
#578 = B_SPLINE_CURVE_WITH_KNOTS('',8,(#579,#580,#581,#582,#583,#584,
    #585,#586,#587,#588,#589,#590,#591,#592,#593),.UNSPECIFIED.,.F.,.F.,
  (9,6,9),(0.,0.5,1.),.UNSPECIFIED.);
#579 = CARTESIAN_POINT('',(2.987057517595,64.451966585732));
#580 = CARTESIAN_POINT('',(13.027654081282,59.496459897955));
#581 = CARTESIAN_POINT('',(22.473455124846,55.518881778659));
#582 = CARTESIAN_POINT('',(31.302329458471,52.480817348763));
#583 = CARTESIAN_POINT('',(39.492795851146,50.343963060458));
#584 = CARTESIAN_POINT('',(47.02217922974,49.069593928787));
#585 = CARTESIAN_POINT('',(53.866550777563,48.617900769642));
#586 = CARTESIAN_POINT('',(66.138353087264,49.27649411864));
#587 = CARTESIAN_POINT('',(75.498352184374,52.881103430782));
#588 = CARTESIAN_POINT('',(79.432644230105,55.376560399691));
#589 = CARTESIAN_POINT('',(82.597822818142,58.516096418377));
#590 = CARTESIAN_POINT('',(85.020876500275,62.261744482761));
#591 = CARTESIAN_POINT('',(86.664636824648,66.61861536689));
#592 = CARTESIAN_POINT('',(87.5,71.543414048389));
#593 = CARTESIAN_POINT('',(87.5,77.));
#594 = ( GEOMETRIC_REPRESENTATION_CONTEXT(2) 
PARAMETRIC_REPRESENTATION_CONTEXT() REPRESENTATION_CONTEXT('2D SPACE',''
  ) );
#595 = PCURVE('',#596,#627);
#596 = B_SPLINE_SURFACE_WITH_KNOTS('',1,8,(
    (#597,#598,#599,#600,#601,#602,#603,#604,#605,#606,#607,#608,#609
      ,#610,#611)
    ,(#612,#613,#614,#615,#616,#617,#618,#619,#620,#621,#622,#623,#624
      ,#625,#626
    )),.UNSPECIFIED.,.F.,.F.,.F.,(2,2),(9,6,9),(0.,5.),(0.,0.5,1.),
  .UNSPECIFIED.);
#597 = CARTESIAN_POINT('',(-2.5,49.451966585732,-45.0129424824));
#598 = CARTESIAN_POINT('',(-2.5,44.496459897955,-34.97234591871));
#599 = CARTESIAN_POINT('',(-2.5,40.518881778659,-25.52654487515));
#600 = CARTESIAN_POINT('',(-2.5,37.480817348763,-16.69767054152));
#601 = CARTESIAN_POINT('',(-2.5,35.343963060458,-8.507204148854));
#602 = CARTESIAN_POINT('',(-2.5,34.069593928787,-0.97782077026));
#603 = CARTESIAN_POINT('',(-2.5,33.617900769642,5.866550777563));
#604 = CARTESIAN_POINT('',(-2.5,34.27649411864,18.138353087264));
#605 = CARTESIAN_POINT('',(-2.5,37.881103430782,27.498352184374));
#606 = CARTESIAN_POINT('',(-2.5,40.376560399691,31.432644230106));
#607 = CARTESIAN_POINT('',(-2.5,43.516096418377,34.597822818142));
#608 = CARTESIAN_POINT('',(-2.5,47.261744482761,37.020876500275));
#609 = CARTESIAN_POINT('',(-2.5,51.61861536689,38.664636824648));
#610 = CARTESIAN_POINT('',(-2.5,56.543414048389,39.5));
#611 = CARTESIAN_POINT('',(-2.5,62.,39.5));
#612 = CARTESIAN_POINT('',(2.5,49.451966585732,-45.0129424824));
#613 = CARTESIAN_POINT('',(2.5,44.496459897955,-34.97234591871));
#614 = CARTESIAN_POINT('',(2.5,40.518881778659,-25.52654487515));
#615 = CARTESIAN_POINT('',(2.5,37.480817348763,-16.69767054152));
#616 = CARTESIAN_POINT('',(2.5,35.343963060458,-8.507204148854));
#617 = CARTESIAN_POINT('',(2.5,34.069593928787,-0.97782077026));
#618 = CARTESIAN_POINT('',(2.5,33.617900769642,5.866550777563));
#619 = CARTESIAN_POINT('',(2.5,34.27649411864,18.138353087264));
#620 = CARTESIAN_POINT('',(2.5,37.881103430782,27.498352184374));
#621 = CARTESIAN_POINT('',(2.5,40.376560399691,31.432644230105));
#622 = CARTESIAN_POINT('',(2.5,43.516096418377,34.597822818142));
#623 = CARTESIAN_POINT('',(2.5,47.261744482761,37.020876500275));
#624 = CARTESIAN_POINT('',(2.5,51.61861536689,38.664636824648));
#625 = CARTESIAN_POINT('',(2.5,56.543414048389,39.5));
#626 = CARTESIAN_POINT('',(2.5,62.,39.5));
#627 = DEFINITIONAL_REPRESENTATION('',(#628),#632);
#628 = LINE('',#629,#630);
#629 = CARTESIAN_POINT('',(5.,0.));
#630 = VECTOR('',#631,1.);
#631 = DIRECTION('',(0.,1.));
#632 = ( GEOMETRIC_REPRESENTATION_CONTEXT(2) 
PARAMETRIC_REPRESENTATION_CONTEXT() REPRESENTATION_CONTEXT('2D SPACE',''
  ) );
#633 = ORIENTED_EDGE('',*,*,#634,.F.);
#634 = EDGE_CURVE('',#85,#557,#635,.T.);
#635 = SURFACE_CURVE('',#636,(#668,#703),.PCURVE_S1.);
#636 = B_SPLINE_CURVE_WITH_KNOTS('',9,(#637,#638,#639,#640,#641,#642,
    #643,#644,#645,#646,#647,#648,#649,#650,#651,#652,#653,#654,#655,
    #656,#657,#658,#659,#660,#661,#662,#663,#664,#665,#666,#667),
  .UNSPECIFIED.,.F.,.F.,(10,7,7,7,10),(0.,0.340142665906,0.670071332953,
    0.835035666476,1.),.UNSPECIFIED.);
#637 = CARTESIAN_POINT('',(2.5,1.7763568394E-15,-48.5));
#638 = CARTESIAN_POINT('',(2.5,2.182850134135,-48.5));
#639 = CARTESIAN_POINT('',(2.5,4.654884194781,-48.8187773909));
#640 = CARTESIAN_POINT('',(2.5,7.363117012534,-49.41876204391));
#641 = CARTESIAN_POINT('',(2.5,10.257320386883,-50.25038330587));
#642 = CARTESIAN_POINT('',(2.5,13.290971307313,-51.26332757749));
#643 = CARTESIAN_POINT('',(2.5,16.419836370265,-52.4090904049));
#644 = CARTESIAN_POINT('',(2.5,19.599942856479,-53.63922205893));
#645 = CARTESIAN_POINT('',(2.5,25.877737633383,-56.13013966145));
#646 = CARTESIAN_POINT('',(2.5,32.013489525182,-58.56469716692));
#647 = CARTESIAN_POINT('',(2.5,34.961273756612,-59.70527600118));
#648 = CARTESIAN_POINT('',(2.5,37.792808121886,-60.7412619928));
#649 = CARTESIAN_POINT('',(2.5,40.476033051479,-61.6315901932));
#650 = CARTESIAN_POINT('',(2.5,42.969836793554,-62.32852490444));
#651 = CARTESIAN_POINT('',(2.5,45.231547500009,-62.78538497362));
#652 = CARTESIAN_POINT('',(2.5,48.249890587463,-63.05887725815));
#653 = CARTESIAN_POINT('',(2.5,50.652359867293,-62.53585770081));
#654 = CARTESIAN_POINT('',(2.5,51.382340166161,-62.26110435158));
#655 = CARTESIAN_POINT('',(2.5,52.028791429884,-61.8864353201));
#656 = CARTESIAN_POINT('',(2.5,52.613830761018,-61.3599867633));
#657 = CARTESIAN_POINT('',(2.5,53.032364578103,-60.70989682027));
#658 = CARTESIAN_POINT('',(2.5,53.333450569487,-59.96800216969));
#659 = CARTESIAN_POINT('',(2.5,53.685768190962,-58.27537301432));
#660 = CARTESIAN_POINT('',(2.5,53.548121937554,-56.1470338865));
#661 = CARTESIAN_POINT('',(2.5,53.358007207281,-54.96751868459));
#662 = CARTESIAN_POINT('',(2.5,53.043999263867,-53.66314519457));
#663 = CARTESIAN_POINT('',(2.5,52.601749592268,-52.22556164188));
#664 = CARTESIAN_POINT('',(2.5,52.026353696544,-50.64809637088));
#665 = CARTESIAN_POINT('',(2.5,51.312879468919,-48.92453413796));
#666 = CARTESIAN_POINT('',(2.5,50.456433595222,-47.04814264239));
#667 = CARTESIAN_POINT('',(2.5,49.451966585732,-45.0129424824));
#668 = PCURVE('',#102,#669);
#669 = DEFINITIONAL_REPRESENTATION('',(#670),#702);
#670 = B_SPLINE_CURVE_WITH_KNOTS('',9,(#671,#672,#673,#674,#675,#676,
    #677,#678,#679,#680,#681,#682,#683,#684,#685,#686,#687,#688,#689,
    #690,#691,#692,#693,#694,#695,#696,#697,#698,#699,#700,#701),
  .UNSPECIFIED.,.F.,.F.,(10,7,7,7,10),(0.,0.340142665906,0.670071332953,
    0.835035666476,1.),.UNSPECIFIED.);
#671 = CARTESIAN_POINT('',(-0.5,15.));
#672 = CARTESIAN_POINT('',(-0.5,17.182850134135));
#673 = CARTESIAN_POINT('',(-0.818777390907,19.654884194781));
#674 = CARTESIAN_POINT('',(-1.418762043916,22.363117012534));
#675 = CARTESIAN_POINT('',(-2.25038330587,25.257320386883));
#676 = CARTESIAN_POINT('',(-3.263327577491,28.290971307313));
#677 = CARTESIAN_POINT('',(-4.409090404903,31.419836370265));
#678 = CARTESIAN_POINT('',(-5.639222058935,34.599942856479));
#679 = CARTESIAN_POINT('',(-8.13013966145,40.877737633383));
#680 = CARTESIAN_POINT('',(-10.56469716692,47.013489525182));
#681 = CARTESIAN_POINT('',(-11.70527600118,49.961273756612));
#682 = CARTESIAN_POINT('',(-12.7412619928,52.792808121886));
#683 = CARTESIAN_POINT('',(-13.6315901932,55.476033051479));
#684 = CARTESIAN_POINT('',(-14.32852490444,57.969836793554));
#685 = CARTESIAN_POINT('',(-14.78538497362,60.231547500009));
#686 = CARTESIAN_POINT('',(-15.05887725815,63.249890587463));
#687 = CARTESIAN_POINT('',(-14.53585770081,65.652359867293));
#688 = CARTESIAN_POINT('',(-14.26110435158,66.382340166161));
#689 = CARTESIAN_POINT('',(-13.8864353201,67.028791429884));
#690 = CARTESIAN_POINT('',(-13.3599867633,67.613830761018));
#691 = CARTESIAN_POINT('',(-12.70989682027,68.032364578103));
#692 = CARTESIAN_POINT('',(-11.96800216969,68.333450569487));
#693 = CARTESIAN_POINT('',(-10.27537301432,68.685768190962));
#694 = CARTESIAN_POINT('',(-8.147033886503,68.548121937554));
#695 = CARTESIAN_POINT('',(-6.967518684598,68.358007207281));
#696 = CARTESIAN_POINT('',(-5.663145194579,68.043999263867));
#697 = CARTESIAN_POINT('',(-4.225561641882,67.601749592268));
#698 = CARTESIAN_POINT('',(-2.648096370889,67.026353696544));
#699 = CARTESIAN_POINT('',(-0.92453413796,66.312879468919));
#700 = CARTESIAN_POINT('',(0.951857357602,65.456433595222));
#701 = CARTESIAN_POINT('',(2.987057517595,64.451966585732));
#702 = ( GEOMETRIC_REPRESENTATION_CONTEXT(2) 
PARAMETRIC_REPRESENTATION_CONTEXT() REPRESENTATION_CONTEXT('2D SPACE',''
  ) );
#703 = PCURVE('',#127,#704);
#704 = DEFINITIONAL_REPRESENTATION('',(#705),#709);
#705 = LINE('',#706,#707);
#706 = CARTESIAN_POINT('',(5.,0.));
#707 = VECTOR('',#708,1.);
#708 = DIRECTION('',(0.,1.));
#709 = ( GEOMETRIC_REPRESENTATION_CONTEXT(2) 
PARAMETRIC_REPRESENTATION_CONTEXT() REPRESENTATION_CONTEXT('2D SPACE',''
  ) );
#710 = ADVANCED_FACE('',(#711),#238,.F.);
#711 = FACE_BOUND('',#712,.F.);
#712 = EDGE_LOOP('',(#713,#714,#734,#760));
#713 = ORIENTED_EDGE('',*,*,#220,.F.);
#714 = ORIENTED_EDGE('',*,*,#715,.T.);
#715 = EDGE_CURVE('',#201,#716,#718,.T.);
#716 = VERTEX_POINT('',#717);
#717 = CARTESIAN_POINT('',(-2.5,-30.,-47.5));
#718 = SURFACE_CURVE('',#719,(#722,#728),.PCURVE_S1.);
#719 = B_SPLINE_CURVE_WITH_KNOTS('',1,(#720,#721),.UNSPECIFIED.,.F.,.F.,
  (2,2),(0.,5.),.PIECEWISE_BEZIER_KNOTS.);
#720 = CARTESIAN_POINT('',(2.5,-30.,-47.5));
#721 = CARTESIAN_POINT('',(-2.5,-30.,-47.5));
#722 = PCURVE('',#238,#723);
#723 = DEFINITIONAL_REPRESENTATION('',(#724),#727);
#724 = B_SPLINE_CURVE_WITH_KNOTS('',1,(#725,#726),.UNSPECIFIED.,.F.,.F.,
  (2,2),(0.,5.),.PIECEWISE_BEZIER_KNOTS.);
#725 = CARTESIAN_POINT('',(-2.5,-15.));
#726 = CARTESIAN_POINT('',(2.5,-15.));
#727 = ( GEOMETRIC_REPRESENTATION_CONTEXT(2) 
PARAMETRIC_REPRESENTATION_CONTEXT() REPRESENTATION_CONTEXT('2D SPACE',''
  ) );
#728 = PCURVE('',#73,#729);
#729 = DEFINITIONAL_REPRESENTATION('',(#730),#733);
#730 = B_SPLINE_CURVE_WITH_KNOTS('',1,(#731,#732),.UNSPECIFIED.,.F.,.F.,
  (2,2),(0.,5.),.PIECEWISE_BEZIER_KNOTS.);
#731 = CARTESIAN_POINT('',(-0.5,2.5));
#732 = CARTESIAN_POINT('',(-0.5,-2.5));
#733 = ( GEOMETRIC_REPRESENTATION_CONTEXT(2) 
PARAMETRIC_REPRESENTATION_CONTEXT() REPRESENTATION_CONTEXT('2D SPACE',''
  ) );
#734 = ORIENTED_EDGE('',*,*,#735,.T.);
#735 = EDGE_CURVE('',#716,#736,#738,.T.);
#736 = VERTEX_POINT('',#737);
#737 = CARTESIAN_POINT('',(-2.5,3.552713678801E-15,-47.5));
#738 = SURFACE_CURVE('',#739,(#744,#752),.PCURVE_S1.);
#739 = B_SPLINE_CURVE_WITH_KNOTS('',3,(#740,#741,#742,#743),
  .UNSPECIFIED.,.F.,.F.,(4,4),(0.,1.),.PIECEWISE_BEZIER_KNOTS.);
#740 = CARTESIAN_POINT('',(-2.5,-30.,-47.5));
#741 = CARTESIAN_POINT('',(-2.5,-29.9,-47.5));
#742 = CARTESIAN_POINT('',(-2.5,-1.E-01,-47.5));
#743 = CARTESIAN_POINT('',(-2.5,8.881784197001E-15,-47.5));
#744 = PCURVE('',#238,#745);
#745 = DEFINITIONAL_REPRESENTATION('',(#746),#751);
#746 = B_SPLINE_CURVE_WITH_KNOTS('',3,(#747,#748,#749,#750),
  .UNSPECIFIED.,.F.,.F.,(4,4),(0.,1.),.PIECEWISE_BEZIER_KNOTS.);
#747 = CARTESIAN_POINT('',(2.5,-15.));
#748 = CARTESIAN_POINT('',(2.5,-14.9));
#749 = CARTESIAN_POINT('',(2.5,14.9));
#750 = CARTESIAN_POINT('',(2.5,15.));
#751 = ( GEOMETRIC_REPRESENTATION_CONTEXT(2) 
PARAMETRIC_REPRESENTATION_CONTEXT() REPRESENTATION_CONTEXT('2D SPACE',''
  ) );
#752 = PCURVE('',#46,#753);
#753 = DEFINITIONAL_REPRESENTATION('',(#754),#759);
#754 = B_SPLINE_CURVE_WITH_KNOTS('',3,(#755,#756,#757,#758),
  .UNSPECIFIED.,.F.,.F.,(4,4),(0.,1.),.PIECEWISE_BEZIER_KNOTS.);
#755 = CARTESIAN_POINT('',(-0.5,-15.));
#756 = CARTESIAN_POINT('',(-0.5,-14.9));
#757 = CARTESIAN_POINT('',(-0.5,14.9));
#758 = CARTESIAN_POINT('',(-0.5,15.));
#759 = ( GEOMETRIC_REPRESENTATION_CONTEXT(2) 
PARAMETRIC_REPRESENTATION_CONTEXT() REPRESENTATION_CONTEXT('2D SPACE',''
  ) );
#760 = ORIENTED_EDGE('',*,*,#761,.F.);
#761 = EDGE_CURVE('',#221,#736,#762,.T.);
#762 = SURFACE_CURVE('',#763,(#766,#772),.PCURVE_S1.);
#763 = B_SPLINE_CURVE_WITH_KNOTS('',1,(#764,#765),.UNSPECIFIED.,.F.,.F.,
  (2,2),(0.,5.),.PIECEWISE_BEZIER_KNOTS.);
#764 = CARTESIAN_POINT('',(2.5,8.881784197001E-15,-47.5));
#765 = CARTESIAN_POINT('',(-2.5,8.881784197001E-15,-47.5));
#766 = PCURVE('',#238,#767);
#767 = DEFINITIONAL_REPRESENTATION('',(#768),#771);
#768 = B_SPLINE_CURVE_WITH_KNOTS('',1,(#769,#770),.UNSPECIFIED.,.F.,.F.,
  (2,2),(0.,5.),.PIECEWISE_BEZIER_KNOTS.);
#769 = CARTESIAN_POINT('',(-2.5,15.));
#770 = CARTESIAN_POINT('',(2.5,15.));
#771 = ( GEOMETRIC_REPRESENTATION_CONTEXT(2) 
PARAMETRIC_REPRESENTATION_CONTEXT() REPRESENTATION_CONTEXT('2D SPACE',''
  ) );
#772 = PCURVE('',#323,#773);
#773 = DEFINITIONAL_REPRESENTATION('',(#774),#777);
#774 = B_SPLINE_CURVE_WITH_KNOTS('',1,(#775,#776),.UNSPECIFIED.,.F.,.F.,
  (2,2),(0.,5.),.PIECEWISE_BEZIER_KNOTS.);
#775 = CARTESIAN_POINT('',(0.,0.));
#776 = CARTESIAN_POINT('',(5.,0.));
#777 = ( GEOMETRIC_REPRESENTATION_CONTEXT(2) 
PARAMETRIC_REPRESENTATION_CONTEXT() REPRESENTATION_CONTEXT('2D SPACE',''
  ) );
#778 = ADVANCED_FACE('',(#779),#46,.F.);
#779 = FACE_BOUND('',#780,.F.);
#780 = EDGE_LOOP('',(#781,#782,#800,#801,#880,#927,#953,#973,#999,#1046)
  );
#781 = ORIENTED_EDGE('',*,*,#735,.F.);
#782 = ORIENTED_EDGE('',*,*,#783,.T.);
#783 = EDGE_CURVE('',#716,#22,#784,.T.);
#784 = SURFACE_CURVE('',#785,(#788,#794),.PCURVE_S1.);
#785 = B_SPLINE_CURVE_WITH_KNOTS('',1,(#786,#787),.UNSPECIFIED.,.F.,.F.,
  (2,2),(0.,1.),.PIECEWISE_BEZIER_KNOTS.);
#786 = CARTESIAN_POINT('',(-2.5,-30.,-47.5));
#787 = CARTESIAN_POINT('',(-2.5,-30.,-48.5));
#788 = PCURVE('',#46,#789);
#789 = DEFINITIONAL_REPRESENTATION('',(#790),#793);
#790 = B_SPLINE_CURVE_WITH_KNOTS('',1,(#791,#792),.UNSPECIFIED.,.F.,.F.,
  (2,2),(0.,1.),.PIECEWISE_BEZIER_KNOTS.);
#791 = CARTESIAN_POINT('',(-0.5,-15.));
#792 = CARTESIAN_POINT('',(0.5,-15.));
#793 = ( GEOMETRIC_REPRESENTATION_CONTEXT(2) 
PARAMETRIC_REPRESENTATION_CONTEXT() REPRESENTATION_CONTEXT('2D SPACE',''
  ) );
#794 = PCURVE('',#73,#795);
#795 = DEFINITIONAL_REPRESENTATION('',(#796),#799);
#796 = B_SPLINE_CURVE_WITH_KNOTS('',1,(#797,#798),.UNSPECIFIED.,.F.,.F.,
  (2,2),(0.,1.),.PIECEWISE_BEZIER_KNOTS.);
#797 = CARTESIAN_POINT('',(-0.5,-2.5));
#798 = CARTESIAN_POINT('',(0.5,-2.5));
#799 = ( GEOMETRIC_REPRESENTATION_CONTEXT(2) 
PARAMETRIC_REPRESENTATION_CONTEXT() REPRESENTATION_CONTEXT('2D SPACE',''
  ) );
#800 = ORIENTED_EDGE('',*,*,#21,.T.);
#801 = ORIENTED_EDGE('',*,*,#802,.T.);
#802 = EDGE_CURVE('',#24,#803,#805,.T.);
#803 = VERTEX_POINT('',#804);
#804 = CARTESIAN_POINT('',(-2.5,49.451966585732,-45.0129424824));
#805 = SURFACE_CURVE('',#806,(#838,#873),.PCURVE_S1.);
#806 = B_SPLINE_CURVE_WITH_KNOTS('',9,(#807,#808,#809,#810,#811,#812,
    #813,#814,#815,#816,#817,#818,#819,#820,#821,#822,#823,#824,#825,
    #826,#827,#828,#829,#830,#831,#832,#833,#834,#835,#836,#837),
  .UNSPECIFIED.,.F.,.F.,(10,7,7,7,10),(0.,0.340142665906,0.670071332953,
    0.835035666476,1.),.UNSPECIFIED.);
#807 = CARTESIAN_POINT('',(-2.5,1.7763568394E-15,-48.5));
#808 = CARTESIAN_POINT('',(-2.5,2.182850134135,-48.5));
#809 = CARTESIAN_POINT('',(-2.5,4.654884194781,-48.8187773909));
#810 = CARTESIAN_POINT('',(-2.5,7.363117012534,-49.41876204391));
#811 = CARTESIAN_POINT('',(-2.5,10.257320386883,-50.25038330587));
#812 = CARTESIAN_POINT('',(-2.5,13.290971307313,-51.26332757749));
#813 = CARTESIAN_POINT('',(-2.5,16.419836370265,-52.4090904049));
#814 = CARTESIAN_POINT('',(-2.5,19.599942856479,-53.63922205893));
#815 = CARTESIAN_POINT('',(-2.5,25.877737633383,-56.13013966145));
#816 = CARTESIAN_POINT('',(-2.5,32.013489525182,-58.56469716692));
#817 = CARTESIAN_POINT('',(-2.5,34.961273756612,-59.70527600118));
#818 = CARTESIAN_POINT('',(-2.5,37.792808121886,-60.7412619928));
#819 = CARTESIAN_POINT('',(-2.5,40.476033051479,-61.6315901932));
#820 = CARTESIAN_POINT('',(-2.5,42.969836793554,-62.32852490444));
#821 = CARTESIAN_POINT('',(-2.5,45.231547500009,-62.78538497362));
#822 = CARTESIAN_POINT('',(-2.5,48.249890587463,-63.05887725815));
#823 = CARTESIAN_POINT('',(-2.5,50.652359867293,-62.53585770081));
#824 = CARTESIAN_POINT('',(-2.5,51.382340166161,-62.26110435158));
#825 = CARTESIAN_POINT('',(-2.5,52.028791429884,-61.8864353201));
#826 = CARTESIAN_POINT('',(-2.5,52.613830761018,-61.3599867633));
#827 = CARTESIAN_POINT('',(-2.5,53.032364578103,-60.70989682027));
#828 = CARTESIAN_POINT('',(-2.5,53.333450569487,-59.96800216969));
#829 = CARTESIAN_POINT('',(-2.5,53.685768190962,-58.27537301432));
#830 = CARTESIAN_POINT('',(-2.5,53.548121937554,-56.1470338865));
#831 = CARTESIAN_POINT('',(-2.5,53.358007207281,-54.96751868459));
#832 = CARTESIAN_POINT('',(-2.5,53.043999263868,-53.66314519457));
#833 = CARTESIAN_POINT('',(-2.5,52.601749592267,-52.22556164188));
#834 = CARTESIAN_POINT('',(-2.5,52.026353696545,-50.64809637088));
#835 = CARTESIAN_POINT('',(-2.5,51.312879468918,-48.92453413796));
#836 = CARTESIAN_POINT('',(-2.5,50.456433595223,-47.04814264239));
#837 = CARTESIAN_POINT('',(-2.5,49.451966585732,-45.0129424824));
#838 = PCURVE('',#46,#839);
#839 = DEFINITIONAL_REPRESENTATION('',(#840),#872);
#840 = B_SPLINE_CURVE_WITH_KNOTS('',9,(#841,#842,#843,#844,#845,#846,
    #847,#848,#849,#850,#851,#852,#853,#854,#855,#856,#857,#858,#859,
    #860,#861,#862,#863,#864,#865,#866,#867,#868,#869,#870,#871),
  .UNSPECIFIED.,.F.,.F.,(10,7,7,7,10),(0.,0.340142665906,0.670071332953,
    0.835035666476,1.),.UNSPECIFIED.);
#841 = CARTESIAN_POINT('',(0.5,15.));
#842 = CARTESIAN_POINT('',(0.5,17.182850134135));
#843 = CARTESIAN_POINT('',(0.818777390907,19.654884194781));
#844 = CARTESIAN_POINT('',(1.418762043916,22.363117012534));
#845 = CARTESIAN_POINT('',(2.250383305871,25.257320386883));
#846 = CARTESIAN_POINT('',(3.263327577491,28.290971307313));
#847 = CARTESIAN_POINT('',(4.409090404903,31.419836370265));
#848 = CARTESIAN_POINT('',(5.639222058935,34.599942856479));
#849 = CARTESIAN_POINT('',(8.13013966145,40.877737633383));
#850 = CARTESIAN_POINT('',(10.564697166924,47.013489525182));
#851 = CARTESIAN_POINT('',(11.705276001185,49.961273756612));
#852 = CARTESIAN_POINT('',(12.741261992807,52.792808121886));
#853 = CARTESIAN_POINT('',(13.631590193205,55.476033051479));
#854 = CARTESIAN_POINT('',(14.328524904446,57.969836793554));
#855 = CARTESIAN_POINT('',(14.78538497362,60.231547500009));
#856 = CARTESIAN_POINT('',(15.058877258158,63.249890587463));
#857 = CARTESIAN_POINT('',(14.535857700811,65.652359867293));
#858 = CARTESIAN_POINT('',(14.261104351585,66.382340166161));
#859 = CARTESIAN_POINT('',(13.886435320108,67.028791429884));
#860 = CARTESIAN_POINT('',(13.359986763302,67.613830761018));
#861 = CARTESIAN_POINT('',(12.709896820278,68.032364578103));
#862 = CARTESIAN_POINT('',(11.968002169692,68.333450569487));
#863 = CARTESIAN_POINT('',(10.275373014329,68.685768190962));
#864 = CARTESIAN_POINT('',(8.147033886503,68.548121937554));
#865 = CARTESIAN_POINT('',(6.967518684599,68.358007207281));
#866 = CARTESIAN_POINT('',(5.663145194579,68.043999263868));
#867 = CARTESIAN_POINT('',(4.225561641882,67.601749592267));
#868 = CARTESIAN_POINT('',(2.648096370889,67.026353696545));
#869 = CARTESIAN_POINT('',(0.92453413796,66.312879468918));
#870 = CARTESIAN_POINT('',(-0.951857357602,65.456433595223));
#871 = CARTESIAN_POINT('',(-2.987057517595,64.451966585732));
#872 = ( GEOMETRIC_REPRESENTATION_CONTEXT(2) 
PARAMETRIC_REPRESENTATION_CONTEXT() REPRESENTATION_CONTEXT('2D SPACE',''
  ) );
#873 = PCURVE('',#127,#874);
#874 = DEFINITIONAL_REPRESENTATION('',(#875),#879);
#875 = LINE('',#876,#877);
#876 = CARTESIAN_POINT('',(0.,0.));
#877 = VECTOR('',#878,1.);
#878 = DIRECTION('',(0.,1.));
#879 = ( GEOMETRIC_REPRESENTATION_CONTEXT(2) 
PARAMETRIC_REPRESENTATION_CONTEXT() REPRESENTATION_CONTEXT('2D SPACE',''
  ) );
#880 = ORIENTED_EDGE('',*,*,#881,.T.);
#881 = EDGE_CURVE('',#803,#882,#884,.T.);
#882 = VERTEX_POINT('',#883);
#883 = CARTESIAN_POINT('',(-2.5,62.,39.5));
#884 = SURFACE_CURVE('',#885,(#901,#920),.PCURVE_S1.);
#885 = B_SPLINE_CURVE_WITH_KNOTS('',8,(#886,#887,#888,#889,#890,#891,
    #892,#893,#894,#895,#896,#897,#898,#899,#900),.UNSPECIFIED.,.F.,.F.,
  (9,6,9),(0.,0.5,1.),.UNSPECIFIED.);
#886 = CARTESIAN_POINT('',(-2.5,49.451966585732,-45.0129424824));
#887 = CARTESIAN_POINT('',(-2.5,44.496459897955,-34.97234591871));
#888 = CARTESIAN_POINT('',(-2.5,40.518881778659,-25.52654487515));
#889 = CARTESIAN_POINT('',(-2.5,37.480817348763,-16.69767054152));
#890 = CARTESIAN_POINT('',(-2.5,35.343963060458,-8.507204148854));
#891 = CARTESIAN_POINT('',(-2.5,34.069593928787,-0.97782077026));
#892 = CARTESIAN_POINT('',(-2.5,33.617900769642,5.866550777563));
#893 = CARTESIAN_POINT('',(-2.5,34.27649411864,18.138353087264));
#894 = CARTESIAN_POINT('',(-2.5,37.881103430782,27.498352184374));
#895 = CARTESIAN_POINT('',(-2.5,40.376560399691,31.432644230106));
#896 = CARTESIAN_POINT('',(-2.5,43.516096418377,34.597822818142));
#897 = CARTESIAN_POINT('',(-2.5,47.261744482761,37.020876500275));
#898 = CARTESIAN_POINT('',(-2.5,51.61861536689,38.664636824648));
#899 = CARTESIAN_POINT('',(-2.5,56.543414048389,39.5));
#900 = CARTESIAN_POINT('',(-2.5,62.,39.5));
#901 = PCURVE('',#46,#902);
#902 = DEFINITIONAL_REPRESENTATION('',(#903),#919);
#903 = B_SPLINE_CURVE_WITH_KNOTS('',8,(#904,#905,#906,#907,#908,#909,
    #910,#911,#912,#913,#914,#915,#916,#917,#918),.UNSPECIFIED.,.F.,.F.,
  (9,6,9),(0.,0.5,1.),.UNSPECIFIED.);
#904 = CARTESIAN_POINT('',(-2.987057517595,64.451966585732));
#905 = CARTESIAN_POINT('',(-13.02765408128,59.496459897955));
#906 = CARTESIAN_POINT('',(-22.47345512484,55.518881778659));
#907 = CARTESIAN_POINT('',(-31.30232945847,52.480817348763));
#908 = CARTESIAN_POINT('',(-39.49279585114,50.343963060458));
#909 = CARTESIAN_POINT('',(-47.02217922974,49.069593928787));
#910 = CARTESIAN_POINT('',(-53.86655077756,48.617900769642));
#911 = CARTESIAN_POINT('',(-66.13835308726,49.27649411864));
#912 = CARTESIAN_POINT('',(-75.49835218437,52.881103430782));
#913 = CARTESIAN_POINT('',(-79.4326442301,55.376560399691));
#914 = CARTESIAN_POINT('',(-82.59782281814,58.516096418377));
#915 = CARTESIAN_POINT('',(-85.02087650027,62.261744482761));
#916 = CARTESIAN_POINT('',(-86.66463682464,66.61861536689));
#917 = CARTESIAN_POINT('',(-87.5,71.543414048389));
#918 = CARTESIAN_POINT('',(-87.5,77.));
#919 = ( GEOMETRIC_REPRESENTATION_CONTEXT(2) 
PARAMETRIC_REPRESENTATION_CONTEXT() REPRESENTATION_CONTEXT('2D SPACE',''
  ) );
#920 = PCURVE('',#596,#921);
#921 = DEFINITIONAL_REPRESENTATION('',(#922),#926);
#922 = LINE('',#923,#924);
#923 = CARTESIAN_POINT('',(0.,0.));
#924 = VECTOR('',#925,1.);
#925 = DIRECTION('',(0.,1.));
#926 = ( GEOMETRIC_REPRESENTATION_CONTEXT(2) 
PARAMETRIC_REPRESENTATION_CONTEXT() REPRESENTATION_CONTEXT('2D SPACE',''
  ) );
#927 = ORIENTED_EDGE('',*,*,#928,.T.);
#928 = EDGE_CURVE('',#882,#929,#931,.T.);
#929 = VERTEX_POINT('',#930);
#930 = CARTESIAN_POINT('',(-2.5,77.,39.5));
#931 = SURFACE_CURVE('',#932,(#937,#945),.PCURVE_S1.);
#932 = B_SPLINE_CURVE_WITH_KNOTS('',3,(#933,#934,#935,#936),
  .UNSPECIFIED.,.F.,.F.,(4,4),(0.,1.),.PIECEWISE_BEZIER_KNOTS.);
#933 = CARTESIAN_POINT('',(-2.5,62.,39.5));
#934 = CARTESIAN_POINT('',(-2.5,63.,39.5));
#935 = CARTESIAN_POINT('',(-2.5,76.9,39.5));
#936 = CARTESIAN_POINT('',(-2.5,77.,39.5));
#937 = PCURVE('',#46,#938);
#938 = DEFINITIONAL_REPRESENTATION('',(#939),#944);
#939 = B_SPLINE_CURVE_WITH_KNOTS('',3,(#940,#941,#942,#943),
  .UNSPECIFIED.,.F.,.F.,(4,4),(0.,1.),.PIECEWISE_BEZIER_KNOTS.);
#940 = CARTESIAN_POINT('',(-87.5,77.));
#941 = CARTESIAN_POINT('',(-87.5,78.));
#942 = CARTESIAN_POINT('',(-87.5,91.9));
#943 = CARTESIAN_POINT('',(-87.5,92.));
#944 = ( GEOMETRIC_REPRESENTATION_CONTEXT(2) 
PARAMETRIC_REPRESENTATION_CONTEXT() REPRESENTATION_CONTEXT('2D SPACE',''
  ) );
#945 = PCURVE('',#543,#946);
#946 = DEFINITIONAL_REPRESENTATION('',(#947),#952);
#947 = B_SPLINE_CURVE_WITH_KNOTS('',3,(#948,#949,#950,#951),
  .UNSPECIFIED.,.F.,.F.,(4,4),(0.,1.),.PIECEWISE_BEZIER_KNOTS.);
#948 = CARTESIAN_POINT('',(-2.5,-7.7025));
#949 = CARTESIAN_POINT('',(-2.5,-6.7025));
#950 = CARTESIAN_POINT('',(-2.5,7.1975));
#951 = CARTESIAN_POINT('',(-2.5,7.2975));
#952 = ( GEOMETRIC_REPRESENTATION_CONTEXT(2) 
PARAMETRIC_REPRESENTATION_CONTEXT() REPRESENTATION_CONTEXT('2D SPACE',''
  ) );
#953 = ORIENTED_EDGE('',*,*,#954,.F.);
#954 = EDGE_CURVE('',#955,#929,#957,.T.);
#955 = VERTEX_POINT('',#956);
#956 = CARTESIAN_POINT('',(-2.5,77.,40.5));
#957 = SURFACE_CURVE('',#958,(#961,#967),.PCURVE_S1.);
#958 = B_SPLINE_CURVE_WITH_KNOTS('',1,(#959,#960),.UNSPECIFIED.,.F.,.F.,
  (2,2),(0.,1.),.PIECEWISE_BEZIER_KNOTS.);
#959 = CARTESIAN_POINT('',(-2.5,77.,40.5));
#960 = CARTESIAN_POINT('',(-2.5,77.,39.5));
#961 = PCURVE('',#46,#962);
#962 = DEFINITIONAL_REPRESENTATION('',(#963),#966);
#963 = B_SPLINE_CURVE_WITH_KNOTS('',1,(#964,#965),.UNSPECIFIED.,.F.,.F.,
  (2,2),(0.,1.),.PIECEWISE_BEZIER_KNOTS.);
#964 = CARTESIAN_POINT('',(-88.5,92.));
#965 = CARTESIAN_POINT('',(-87.5,92.));
#966 = ( GEOMETRIC_REPRESENTATION_CONTEXT(2) 
PARAMETRIC_REPRESENTATION_CONTEXT() REPRESENTATION_CONTEXT('2D SPACE',''
  ) );
#967 = PCURVE('',#514,#968);
#968 = DEFINITIONAL_REPRESENTATION('',(#969),#972);
#969 = B_SPLINE_CURVE_WITH_KNOTS('',1,(#970,#971),.UNSPECIFIED.,.F.,.F.,
  (2,2),(0.,1.),.PIECEWISE_BEZIER_KNOTS.);
#970 = CARTESIAN_POINT('',(-0.5,-2.5));
#971 = CARTESIAN_POINT('',(0.5,-2.5));
#972 = ( GEOMETRIC_REPRESENTATION_CONTEXT(2) 
PARAMETRIC_REPRESENTATION_CONTEXT() REPRESENTATION_CONTEXT('2D SPACE',''
  ) );
#973 = ORIENTED_EDGE('',*,*,#974,.F.);
#974 = EDGE_CURVE('',#975,#955,#977,.T.);
#975 = VERTEX_POINT('',#976);
#976 = CARTESIAN_POINT('',(-2.5,62.,40.5));
#977 = SURFACE_CURVE('',#978,(#983,#991),.PCURVE_S1.);
#978 = B_SPLINE_CURVE_WITH_KNOTS('',3,(#979,#980,#981,#982),
  .UNSPECIFIED.,.F.,.F.,(4,4),(0.,1.),.PIECEWISE_BEZIER_KNOTS.);
#979 = CARTESIAN_POINT('',(-2.5,62.,40.5));
#980 = CARTESIAN_POINT('',(-2.5,63.,40.5));
#981 = CARTESIAN_POINT('',(-2.5,76.9,40.5));
#982 = CARTESIAN_POINT('',(-2.5,77.,40.5));
#983 = PCURVE('',#46,#984);
#984 = DEFINITIONAL_REPRESENTATION('',(#985),#990);
#985 = B_SPLINE_CURVE_WITH_KNOTS('',3,(#986,#987,#988,#989),
  .UNSPECIFIED.,.F.,.F.,(4,4),(0.,1.),.PIECEWISE_BEZIER_KNOTS.);
#986 = CARTESIAN_POINT('',(-88.5,77.));
#987 = CARTESIAN_POINT('',(-88.5,78.));
#988 = CARTESIAN_POINT('',(-88.5,91.9));
#989 = CARTESIAN_POINT('',(-88.5,92.));
#990 = ( GEOMETRIC_REPRESENTATION_CONTEXT(2) 
PARAMETRIC_REPRESENTATION_CONTEXT() REPRESENTATION_CONTEXT('2D SPACE',''
  ) );
#991 = PCURVE('',#487,#992);
#992 = DEFINITIONAL_REPRESENTATION('',(#993),#998);
#993 = B_SPLINE_CURVE_WITH_KNOTS('',3,(#994,#995,#996,#997),
  .UNSPECIFIED.,.F.,.F.,(4,4),(0.,1.),.PIECEWISE_BEZIER_KNOTS.);
#994 = CARTESIAN_POINT('',(2.5,-7.7025));
#995 = CARTESIAN_POINT('',(2.5,-6.7025));
#996 = CARTESIAN_POINT('',(2.5,7.1975));
#997 = CARTESIAN_POINT('',(2.5,7.2975));
#998 = ( GEOMETRIC_REPRESENTATION_CONTEXT(2) 
PARAMETRIC_REPRESENTATION_CONTEXT() REPRESENTATION_CONTEXT('2D SPACE',''
  ) );
#999 = ORIENTED_EDGE('',*,*,#1000,.F.);
#1000 = EDGE_CURVE('',#1001,#975,#1003,.T.);
#1001 = VERTEX_POINT('',#1002);
#1002 = CARTESIAN_POINT('',(-2.5,48.55523674889,-45.45552083673));
#1003 = SURFACE_CURVE('',#1004,(#1020,#1039),.PCURVE_S1.);
#1004 = B_SPLINE_CURVE_WITH_KNOTS('',8,(#1005,#1006,#1007,#1008,#1009,
    #1010,#1011,#1012,#1013,#1014,#1015,#1016,#1017,#1018,#1019),
  .UNSPECIFIED.,.F.,.F.,(9,6,9),(0.,0.5,1.),.UNSPECIFIED.);
#1005 = CARTESIAN_POINT('',(-2.5,48.55523674889,-45.45552083673));
#1006 = CARTESIAN_POINT('',(-2.5,43.578504837423,-35.37191880024));
#1007 = CARTESIAN_POINT('',(-2.5,39.579701301153,-25.87717271907));
#1008 = CARTESIAN_POINT('',(-2.5,36.521019225774,-16.99144995034));
#1009 = CARTESIAN_POINT('',(-2.5,34.364540365701,-8.73556781));
#1010 = CARTESIAN_POINT('',(-2.5,33.072767912504,-1.129149771865));
#1011 = CARTESIAN_POINT('',(-2.5,32.6092892569,5.809434433794));
#1012 = CARTESIAN_POINT('',(-2.5,33.269848231859,18.313255210657));
#1013 = CARTESIAN_POINT('',(-2.5,36.97849597703,27.979108171491));
#1014 = CARTESIAN_POINT('',(-2.5,39.561971926724,32.078000850624));
#1015 = CARTESIAN_POINT('',(-2.5,42.8474514232,35.423967136386));
#1016 = CARTESIAN_POINT('',(-2.5,46.796679677144,37.947719930034));
#1017 = CARTESIAN_POINT('',(-2.5,51.328324121124,39.644129136471));
#1018 = CARTESIAN_POINT('',(-2.5,56.409457984119,40.5));
#1019 = CARTESIAN_POINT('',(-2.5,62.,40.5));
#1020 = PCURVE('',#46,#1021);
#1021 = DEFINITIONAL_REPRESENTATION('',(#1022),#1038);
#1022 = B_SPLINE_CURVE_WITH_KNOTS('',8,(#1023,#1024,#1025,#1026,#1027,
    #1028,#1029,#1030,#1031,#1032,#1033,#1034,#1035,#1036,#1037),
  .UNSPECIFIED.,.F.,.F.,(9,6,9),(0.,0.5,1.),.UNSPECIFIED.);
#1023 = CARTESIAN_POINT('',(-2.54447916327,63.55523674889));
#1024 = CARTESIAN_POINT('',(-12.62808119975,58.578504837423));
#1025 = CARTESIAN_POINT('',(-22.12282728092,54.579701301153));
#1026 = CARTESIAN_POINT('',(-31.00855004965,51.521019225774));
#1027 = CARTESIAN_POINT('',(-39.26443219,49.364540365701));
#1028 = CARTESIAN_POINT('',(-46.87085022813,48.072767912504));
#1029 = CARTESIAN_POINT('',(-53.80943443379,47.6092892569));
#1030 = CARTESIAN_POINT('',(-66.31325521065,48.269848231859));
#1031 = CARTESIAN_POINT('',(-75.97910817149,51.97849597703));
#1032 = CARTESIAN_POINT('',(-80.07800085062,54.561971926724));
#1033 = CARTESIAN_POINT('',(-83.42396713638,57.8474514232));
#1034 = CARTESIAN_POINT('',(-85.94771993003,61.796679677144));
#1035 = CARTESIAN_POINT('',(-87.64412913647,66.328324121124));
#1036 = CARTESIAN_POINT('',(-88.5,71.409457984119));
#1037 = CARTESIAN_POINT('',(-88.5,77.));
#1038 = ( GEOMETRIC_REPRESENTATION_CONTEXT(2) 
PARAMETRIC_REPRESENTATION_CONTEXT() REPRESENTATION_CONTEXT('2D SPACE',''
  ) );
#1039 = PCURVE('',#432,#1040);
#1040 = DEFINITIONAL_REPRESENTATION('',(#1041),#1045);
#1041 = LINE('',#1042,#1043);
#1042 = CARTESIAN_POINT('',(5.,0.));
#1043 = VECTOR('',#1044,1.);
#1044 = DIRECTION('',(0.,1.));
#1045 = ( GEOMETRIC_REPRESENTATION_CONTEXT(2) 
PARAMETRIC_REPRESENTATION_CONTEXT() REPRESENTATION_CONTEXT('2D SPACE',''
  ) );
#1046 = ORIENTED_EDGE('',*,*,#1047,.F.);
#1047 = EDGE_CURVE('',#736,#1001,#1048,.T.);
#1048 = SURFACE_CURVE('',#1049,(#1081,#1116),.PCURVE_S1.);
#1049 = B_SPLINE_CURVE_WITH_KNOTS('',9,(#1050,#1051,#1052,#1053,#1054,
    #1055,#1056,#1057,#1058,#1059,#1060,#1061,#1062,#1063,#1064,#1065,
    #1066,#1067,#1068,#1069,#1070,#1071,#1072,#1073,#1074,#1075,#1076,
    #1077,#1078,#1079,#1080),.UNSPECIFIED.,.F.,.F.,(10,7,7,7,10),(0.,
    0.340142665906,0.670071332953,0.835035666476,1.),.UNSPECIFIED.);
#1050 = CARTESIAN_POINT('',(-2.5,0.,-47.5));
#1051 = CARTESIAN_POINT('',(-2.5,2.312661006798,-47.5));
#1052 = CARTESIAN_POINT('',(-2.5,4.866850407477,-47.8377346114));
#1053 = CARTESIAN_POINT('',(-2.5,7.628377490148,-48.45247915287));
#1054 = CARTESIAN_POINT('',(-2.5,10.560294574049,-49.2955094675));
#1055 = CARTESIAN_POINT('',(-2.5,13.621948788392,-50.31884434439));
#1056 = CARTESIAN_POINT('',(-2.5,16.770397655467,-51.47269342735));
#1057 = CARTESIAN_POINT('',(-2.5,19.962438013234,-52.70721163541));
#1058 = CARTESIAN_POINT('',(-2.5,26.252674583488,-55.20306592081));
#1059 = CARTESIAN_POINT('',(-2.5,32.376358291235,-57.63283498494));
#1060 = CARTESIAN_POINT('',(-2.5,35.310484723175,-58.76795729433));
#1061 = CARTESIAN_POINT('',(-2.5,38.126934059755,-59.79858104699));
#1062 = CARTESIAN_POINT('',(-2.5,40.778209828185,-60.67606809978));
#1063 = CARTESIAN_POINT('',(-2.5,43.225867737966,-61.35845105895));
#1064 = CARTESIAN_POINT('',(-2.5,45.433023594897,-61.80270798569));
#1065 = CARTESIAN_POINT('',(-2.5,48.28975365631,-62.02903554572));
#1066 = CARTESIAN_POINT('',(-2.5,50.341016385829,-61.57225951735));
#1067 = CARTESIAN_POINT('',(-2.5,50.927742124827,-61.34479973705));
#1068 = CARTESIAN_POINT('',(-2.5,51.420181095142,-61.03042815164));
#1069 = CARTESIAN_POINT('',(-2.5,51.786271688848,-60.66979571763));
#1070 = CARTESIAN_POINT('',(-2.5,52.121162982203,-60.22355140956));
#1071 = CARTESIAN_POINT('',(-2.5,52.365852781505,-59.64864566223));
#1072 = CARTESIAN_POINT('',(-2.5,52.669899091367,-58.24431595527));
#1073 = CARTESIAN_POINT('',(-2.5,52.553755954872,-56.3041285419));
#1074 = CARTESIAN_POINT('',(-2.5,52.379493154569,-55.195275667));
#1075 = CARTESIAN_POINT('',(-2.5,52.081696226571,-53.94596338762));
#1076 = CARTESIAN_POINT('',(-2.5,51.654769180491,-52.55333059175));
#1077 = CARTESIAN_POINT('',(-2.5,51.093672007151,-51.01283604866));
#1078 = CARTESIAN_POINT('',(-2.5,50.393392308883,-49.31948211542));
#1079 = CARTESIAN_POINT('',(-2.5,49.548878894667,-47.46878820634));
#1080 = CARTESIAN_POINT('',(-2.5,48.55523674889,-45.45552083673));
#1081 = PCURVE('',#46,#1082);
#1082 = DEFINITIONAL_REPRESENTATION('',(#1083),#1115);
#1083 = B_SPLINE_CURVE_WITH_KNOTS('',9,(#1084,#1085,#1086,#1087,#1088,
    #1089,#1090,#1091,#1092,#1093,#1094,#1095,#1096,#1097,#1098,#1099,
    #1100,#1101,#1102,#1103,#1104,#1105,#1106,#1107,#1108,#1109,#1110,
    #1111,#1112,#1113,#1114),.UNSPECIFIED.,.F.,.F.,(10,7,7,7,10),(0.,
    0.340142665906,0.670071332953,0.835035666476,1.),.UNSPECIFIED.);
#1084 = CARTESIAN_POINT('',(-0.5,15.));
#1085 = CARTESIAN_POINT('',(-0.5,17.312661006798));
#1086 = CARTESIAN_POINT('',(-0.162265388599,19.866850407477));
#1087 = CARTESIAN_POINT('',(0.452479152875,22.628377490148));
#1088 = CARTESIAN_POINT('',(1.295509467502,25.560294574049));
#1089 = CARTESIAN_POINT('',(2.318844344392,28.621948788392));
#1090 = CARTESIAN_POINT('',(3.472693427357,31.770397655467));
#1091 = CARTESIAN_POINT('',(4.707211635414,34.962438013234));
#1092 = CARTESIAN_POINT('',(7.203065920818,41.252674583488));
#1093 = CARTESIAN_POINT('',(9.632834984945,47.376358291235));
#1094 = CARTESIAN_POINT('',(10.767957294335,50.310484723175));
#1095 = CARTESIAN_POINT('',(11.798581046995,53.126934059755));
#1096 = CARTESIAN_POINT('',(12.676068099789,55.778209828185));
#1097 = CARTESIAN_POINT('',(13.358451058955,58.225867737966));
#1098 = CARTESIAN_POINT('',(13.802707985696,60.433023594897));
#1099 = CARTESIAN_POINT('',(14.029035545723,63.28975365631));
#1100 = CARTESIAN_POINT('',(13.572259517354,65.341016385829));
#1101 = CARTESIAN_POINT('',(13.344799737052,65.927742124826));
#1102 = CARTESIAN_POINT('',(13.030428151642,66.420181095142));
#1103 = CARTESIAN_POINT('',(12.66979571763,66.786271688848));
#1104 = CARTESIAN_POINT('',(12.223551409566,67.121162982203));
#1105 = CARTESIAN_POINT('',(11.648645662236,67.365852781505));
#1106 = CARTESIAN_POINT('',(10.244315955275,67.669899091367));
#1107 = CARTESIAN_POINT('',(8.304128541902,67.553755954872));
#1108 = CARTESIAN_POINT('',(7.195275667009,67.379493154569));
#1109 = CARTESIAN_POINT('',(5.945963387627,67.081696226571));
#1110 = CARTESIAN_POINT('',(4.553330591751,66.654769180491));
#1111 = CARTESIAN_POINT('',(3.01283604866,66.093672007151));
#1112 = CARTESIAN_POINT('',(1.319482115425,65.393392308882));
#1113 = CARTESIAN_POINT('',(-0.531211793653,64.548878894667));
#1114 = CARTESIAN_POINT('',(-2.54447916327,63.55523674889));
#1115 = ( GEOMETRIC_REPRESENTATION_CONTEXT(2) 
PARAMETRIC_REPRESENTATION_CONTEXT() REPRESENTATION_CONTEXT('2D SPACE',''
  ) );
#1116 = PCURVE('',#323,#1117);
#1117 = DEFINITIONAL_REPRESENTATION('',(#1118),#1122);
#1118 = LINE('',#1119,#1120);
#1119 = CARTESIAN_POINT('',(5.,0.));
#1120 = VECTOR('',#1121,1.);
#1121 = DIRECTION('',(0.,1.));
#1122 = ( GEOMETRIC_REPRESENTATION_CONTEXT(2) 
PARAMETRIC_REPRESENTATION_CONTEXT() REPRESENTATION_CONTEXT('2D SPACE',''
  ) );
#1123 = ADVANCED_FACE('',(#1124),#127,.F.);
#1124 = FACE_BOUND('',#1125,.F.);
#1125 = EDGE_LOOP('',(#1126,#1127,#1128,#1129));
#1126 = ORIENTED_EDGE('',*,*,#802,.F.);
#1127 = ORIENTED_EDGE('',*,*,#115,.T.);
#1128 = ORIENTED_EDGE('',*,*,#634,.T.);
#1129 = ORIENTED_EDGE('',*,*,#1130,.F.);
#1130 = EDGE_CURVE('',#803,#557,#1131,.T.);
#1131 = SURFACE_CURVE('',#1132,(#1135,#1142),.PCURVE_S1.);
#1132 = B_SPLINE_CURVE_WITH_KNOTS('',1,(#1133,#1134),.UNSPECIFIED.,.F.,
  .F.,(2,2),(0.,5.),.PIECEWISE_BEZIER_KNOTS.);
#1133 = CARTESIAN_POINT('',(-2.5,49.451966585732,-45.0129424824));
#1134 = CARTESIAN_POINT('',(2.5,49.451966585732,-45.0129424824));
#1135 = PCURVE('',#127,#1136);
#1136 = DEFINITIONAL_REPRESENTATION('',(#1137),#1141);
#1137 = LINE('',#1138,#1139);
#1138 = CARTESIAN_POINT('',(0.,1.));
#1139 = VECTOR('',#1140,1.);
#1140 = DIRECTION('',(1.,0.));
#1141 = ( GEOMETRIC_REPRESENTATION_CONTEXT(2) 
PARAMETRIC_REPRESENTATION_CONTEXT() REPRESENTATION_CONTEXT('2D SPACE',''
  ) );
#1142 = PCURVE('',#596,#1143);
#1143 = DEFINITIONAL_REPRESENTATION('',(#1144),#1147);
#1144 = B_SPLINE_CURVE_WITH_KNOTS('',1,(#1145,#1146),.UNSPECIFIED.,.F.,
  .F.,(2,2),(0.,5.),.PIECEWISE_BEZIER_KNOTS.);
#1145 = CARTESIAN_POINT('',(0.,0.));
#1146 = CARTESIAN_POINT('',(5.,0.));
#1147 = ( GEOMETRIC_REPRESENTATION_CONTEXT(2) 
PARAMETRIC_REPRESENTATION_CONTEXT() REPRESENTATION_CONTEXT('2D SPACE',''
  ) );
#1148 = ADVANCED_FACE('',(#1149),#323,.F.);
#1149 = FACE_BOUND('',#1150,.F.);
#1150 = EDGE_LOOP('',(#1151,#1152,#1153,#1154));
#1151 = ORIENTED_EDGE('',*,*,#251,.F.);
#1152 = ORIENTED_EDGE('',*,*,#761,.T.);
#1153 = ORIENTED_EDGE('',*,*,#1047,.T.);
#1154 = ORIENTED_EDGE('',*,*,#1155,.F.);
#1155 = EDGE_CURVE('',#252,#1001,#1156,.T.);
#1156 = SURFACE_CURVE('',#1157,(#1160,#1167),.PCURVE_S1.);
#1157 = B_SPLINE_CURVE_WITH_KNOTS('',1,(#1158,#1159),.UNSPECIFIED.,.F.,
  .F.,(2,2),(0.,5.),.PIECEWISE_BEZIER_KNOTS.);
#1158 = CARTESIAN_POINT('',(2.5,48.55523674889,-45.45552083673));
#1159 = CARTESIAN_POINT('',(-2.5,48.55523674889,-45.45552083673));
#1160 = PCURVE('',#323,#1161);
#1161 = DEFINITIONAL_REPRESENTATION('',(#1162),#1166);
#1162 = LINE('',#1163,#1164);
#1163 = CARTESIAN_POINT('',(0.,1.));
#1164 = VECTOR('',#1165,1.);
#1165 = DIRECTION('',(1.,0.));
#1166 = ( GEOMETRIC_REPRESENTATION_CONTEXT(2) 
PARAMETRIC_REPRESENTATION_CONTEXT() REPRESENTATION_CONTEXT('2D SPACE',''
  ) );
#1167 = PCURVE('',#432,#1168);
#1168 = DEFINITIONAL_REPRESENTATION('',(#1169),#1172);
#1169 = B_SPLINE_CURVE_WITH_KNOTS('',1,(#1170,#1171),.UNSPECIFIED.,.F.,
  .F.,(2,2),(0.,5.),.PIECEWISE_BEZIER_KNOTS.);
#1170 = CARTESIAN_POINT('',(0.,0.));
#1171 = CARTESIAN_POINT('',(5.,0.));
#1172 = ( GEOMETRIC_REPRESENTATION_CONTEXT(2) 
PARAMETRIC_REPRESENTATION_CONTEXT() REPRESENTATION_CONTEXT('2D SPACE',''
  ) );
#1173 = ADVANCED_FACE('',(#1174),#596,.F.);
#1174 = FACE_BOUND('',#1175,.F.);
#1175 = EDGE_LOOP('',(#1176,#1177,#1178,#1179));
#1176 = ORIENTED_EDGE('',*,*,#881,.F.);
#1177 = ORIENTED_EDGE('',*,*,#1130,.T.);
#1178 = ORIENTED_EDGE('',*,*,#556,.T.);
#1179 = ORIENTED_EDGE('',*,*,#1180,.F.);
#1180 = EDGE_CURVE('',#882,#526,#1181,.T.);
#1181 = SURFACE_CURVE('',#1182,(#1185,#1192),.PCURVE_S1.);
#1182 = B_SPLINE_CURVE_WITH_KNOTS('',1,(#1183,#1184),.UNSPECIFIED.,.F.,
  .F.,(2,2),(0.,5.),.PIECEWISE_BEZIER_KNOTS.);
#1183 = CARTESIAN_POINT('',(-2.5,62.,39.5));
#1184 = CARTESIAN_POINT('',(2.5,62.,39.5));
#1185 = PCURVE('',#596,#1186);
#1186 = DEFINITIONAL_REPRESENTATION('',(#1187),#1191);
#1187 = LINE('',#1188,#1189);
#1188 = CARTESIAN_POINT('',(0.,1.));
#1189 = VECTOR('',#1190,1.);
#1190 = DIRECTION('',(1.,0.));
#1191 = ( GEOMETRIC_REPRESENTATION_CONTEXT(2) 
PARAMETRIC_REPRESENTATION_CONTEXT() REPRESENTATION_CONTEXT('2D SPACE',''
  ) );
#1192 = PCURVE('',#543,#1193);
#1193 = DEFINITIONAL_REPRESENTATION('',(#1194),#1197);
#1194 = B_SPLINE_CURVE_WITH_KNOTS('',1,(#1195,#1196),.UNSPECIFIED.,.F.,
  .F.,(2,2),(0.,5.),.PIECEWISE_BEZIER_KNOTS.);
#1195 = CARTESIAN_POINT('',(-2.5,-7.7025));
#1196 = CARTESIAN_POINT('',(2.5,-7.7025));
#1197 = ( GEOMETRIC_REPRESENTATION_CONTEXT(2) 
PARAMETRIC_REPRESENTATION_CONTEXT() REPRESENTATION_CONTEXT('2D SPACE',''
  ) );
#1198 = ADVANCED_FACE('',(#1199),#432,.F.);
#1199 = FACE_BOUND('',#1200,.F.);
#1200 = EDGE_LOOP('',(#1201,#1202,#1203,#1204));
#1201 = ORIENTED_EDGE('',*,*,#392,.F.);
#1202 = ORIENTED_EDGE('',*,*,#1155,.T.);
#1203 = ORIENTED_EDGE('',*,*,#1000,.T.);
#1204 = ORIENTED_EDGE('',*,*,#1205,.F.);
#1205 = EDGE_CURVE('',#393,#975,#1206,.T.);
#1206 = SURFACE_CURVE('',#1207,(#1210,#1217),.PCURVE_S1.);
#1207 = B_SPLINE_CURVE_WITH_KNOTS('',1,(#1208,#1209),.UNSPECIFIED.,.F.,
  .F.,(2,2),(0.,5.),.PIECEWISE_BEZIER_KNOTS.);
#1208 = CARTESIAN_POINT('',(2.5,62.,40.5));
#1209 = CARTESIAN_POINT('',(-2.5,62.,40.5));
#1210 = PCURVE('',#432,#1211);
#1211 = DEFINITIONAL_REPRESENTATION('',(#1212),#1216);
#1212 = LINE('',#1213,#1214);
#1213 = CARTESIAN_POINT('',(0.,1.));
#1214 = VECTOR('',#1215,1.);
#1215 = DIRECTION('',(1.,0.));
#1216 = ( GEOMETRIC_REPRESENTATION_CONTEXT(2) 
PARAMETRIC_REPRESENTATION_CONTEXT() REPRESENTATION_CONTEXT('2D SPACE',''
  ) );
#1217 = PCURVE('',#487,#1218);
#1218 = DEFINITIONAL_REPRESENTATION('',(#1219),#1222);
#1219 = B_SPLINE_CURVE_WITH_KNOTS('',1,(#1220,#1221),.UNSPECIFIED.,.F.,
  .F.,(2,2),(0.,5.),.PIECEWISE_BEZIER_KNOTS.);
#1220 = CARTESIAN_POINT('',(-2.5,-7.7025));
#1221 = CARTESIAN_POINT('',(2.5,-7.7025));
#1222 = ( GEOMETRIC_REPRESENTATION_CONTEXT(2) 
PARAMETRIC_REPRESENTATION_CONTEXT() REPRESENTATION_CONTEXT('2D SPACE',''
  ) );
#1223 = ADVANCED_FACE('',(#1224),#543,.F.);
#1224 = FACE_BOUND('',#1225,.F.);
#1225 = EDGE_LOOP('',(#1226,#1227,#1228,#1229));
#1226 = ORIENTED_EDGE('',*,*,#928,.F.);
#1227 = ORIENTED_EDGE('',*,*,#1180,.T.);
#1228 = ORIENTED_EDGE('',*,*,#525,.T.);
#1229 = ORIENTED_EDGE('',*,*,#1230,.F.);
#1230 = EDGE_CURVE('',#929,#501,#1231,.T.);
#1231 = SURFACE_CURVE('',#1232,(#1235,#1241),.PCURVE_S1.);
#1232 = B_SPLINE_CURVE_WITH_KNOTS('',1,(#1233,#1234),.UNSPECIFIED.,.F.,
  .F.,(2,2),(0.,5.),.PIECEWISE_BEZIER_KNOTS.);
#1233 = CARTESIAN_POINT('',(-2.5,77.,39.5));
#1234 = CARTESIAN_POINT('',(2.5,77.,39.5));
#1235 = PCURVE('',#543,#1236);
#1236 = DEFINITIONAL_REPRESENTATION('',(#1237),#1240);
#1237 = B_SPLINE_CURVE_WITH_KNOTS('',1,(#1238,#1239),.UNSPECIFIED.,.F.,
  .F.,(2,2),(0.,5.),.PIECEWISE_BEZIER_KNOTS.);
#1238 = CARTESIAN_POINT('',(-2.5,7.2975));
#1239 = CARTESIAN_POINT('',(2.5,7.2975));
#1240 = ( GEOMETRIC_REPRESENTATION_CONTEXT(2) 
PARAMETRIC_REPRESENTATION_CONTEXT() REPRESENTATION_CONTEXT('2D SPACE',''
  ) );
#1241 = PCURVE('',#514,#1242);
#1242 = DEFINITIONAL_REPRESENTATION('',(#1243),#1246);
#1243 = B_SPLINE_CURVE_WITH_KNOTS('',1,(#1244,#1245),.UNSPECIFIED.,.F.,
  .F.,(2,2),(0.,5.),.PIECEWISE_BEZIER_KNOTS.);
#1244 = CARTESIAN_POINT('',(0.5,-2.5));
#1245 = CARTESIAN_POINT('',(0.5,2.5));
#1246 = ( GEOMETRIC_REPRESENTATION_CONTEXT(2) 
PARAMETRIC_REPRESENTATION_CONTEXT() REPRESENTATION_CONTEXT('2D SPACE',''
  ) );
#1247 = ADVANCED_FACE('',(#1248),#487,.F.);
#1248 = FACE_BOUND('',#1249,.F.);
#1249 = EDGE_LOOP('',(#1250,#1251,#1252,#1253));
#1250 = ORIENTED_EDGE('',*,*,#469,.F.);
#1251 = ORIENTED_EDGE('',*,*,#1205,.T.);
#1252 = ORIENTED_EDGE('',*,*,#974,.T.);
#1253 = ORIENTED_EDGE('',*,*,#1254,.F.);
#1254 = EDGE_CURVE('',#470,#955,#1255,.T.);
#1255 = SURFACE_CURVE('',#1256,(#1259,#1265),.PCURVE_S1.);
#1256 = B_SPLINE_CURVE_WITH_KNOTS('',1,(#1257,#1258),.UNSPECIFIED.,.F.,
  .F.,(2,2),(0.,5.),.PIECEWISE_BEZIER_KNOTS.);
#1257 = CARTESIAN_POINT('',(2.5,77.,40.5));
#1258 = CARTESIAN_POINT('',(-2.5,77.,40.5));
#1259 = PCURVE('',#487,#1260);
#1260 = DEFINITIONAL_REPRESENTATION('',(#1261),#1264);
#1261 = B_SPLINE_CURVE_WITH_KNOTS('',1,(#1262,#1263),.UNSPECIFIED.,.F.,
  .F.,(2,2),(0.,5.),.PIECEWISE_BEZIER_KNOTS.);
#1262 = CARTESIAN_POINT('',(-2.5,7.2975));
#1263 = CARTESIAN_POINT('',(2.5,7.2975));
#1264 = ( GEOMETRIC_REPRESENTATION_CONTEXT(2) 
PARAMETRIC_REPRESENTATION_CONTEXT() REPRESENTATION_CONTEXT('2D SPACE',''
  ) );
#1265 = PCURVE('',#514,#1266);
#1266 = DEFINITIONAL_REPRESENTATION('',(#1267),#1270);
#1267 = B_SPLINE_CURVE_WITH_KNOTS('',1,(#1268,#1269),.UNSPECIFIED.,.F.,
  .F.,(2,2),(0.,5.),.PIECEWISE_BEZIER_KNOTS.);
#1268 = CARTESIAN_POINT('',(-0.5,2.5));
#1269 = CARTESIAN_POINT('',(-0.5,-2.5));
#1270 = ( GEOMETRIC_REPRESENTATION_CONTEXT(2) 
PARAMETRIC_REPRESENTATION_CONTEXT() REPRESENTATION_CONTEXT('2D SPACE',''
  ) );
#1271 = ADVANCED_FACE('',(#1272),#73,.T.);
#1272 = FACE_BOUND('',#1273,.T.);
#1273 = EDGE_LOOP('',(#1274,#1275,#1276,#1277));
#1274 = ORIENTED_EDGE('',*,*,#59,.T.);
#1275 = ORIENTED_EDGE('',*,*,#200,.T.);
#1276 = ORIENTED_EDGE('',*,*,#715,.T.);
#1277 = ORIENTED_EDGE('',*,*,#783,.T.);
#1278 = ADVANCED_FACE('',(#1279),#514,.F.);
#1279 = FACE_BOUND('',#1280,.F.);
#1280 = EDGE_LOOP('',(#1281,#1282,#1283,#1284));
#1281 = ORIENTED_EDGE('',*,*,#1230,.T.);
#1282 = ORIENTED_EDGE('',*,*,#500,.T.);
#1283 = ORIENTED_EDGE('',*,*,#1254,.T.);
#1284 = ORIENTED_EDGE('',*,*,#954,.T.);
#1285 = ( GEOMETRIC_REPRESENTATION_CONTEXT(3) 
GLOBAL_UNCERTAINTY_ASSIGNED_CONTEXT((#1289)) 
GLOBAL_UNIT_ASSIGNED_CONTEXT((#1286,#1287,#1288)) REPRESENTATION_CONTEXT
('Context #1','3D Context with UNIT and UNCERTAINTY') );
#1286 = ( LENGTH_UNIT() NAMED_UNIT(*) SI_UNIT(.MILLI.,.METRE.) );
#1287 = ( NAMED_UNIT(*) PLANE_ANGLE_UNIT() SI_UNIT($,.RADIAN.) );
#1288 = ( NAMED_UNIT(*) SI_UNIT($,.STERADIAN.) SOLID_ANGLE_UNIT() );
#1289 = UNCERTAINTY_MEASURE_WITH_UNIT(LENGTH_MEASURE(2.E-05),#1286,
  'distance_accuracy_value','confusion accuracy');
#1290 = PRODUCT_RELATED_PRODUCT_CATEGORY('part',$,(#7));
ENDSEC;
END-ISO-10303-21;
