ISO-10303-21;
HEADER;
FILE_DESCRIPTION(('Open CASCADE Model'),'2;1');
FILE_NAME('Open CASCADE Shape Model','2026-06-16T17:59:10',('Author'),(
    'Open CASCADE'),'Open CASCADE STEP processor 7.8','Open CASCADE 7.8'
  ,'Unknown');
FILE_SCHEMA(('AUTOMOTIVE_DESIGN { 1 0 10303 214 1 1 1 1 }'));
ENDSEC;
DATA;
#1 = APPLICATION_PROTOCOL_DEFINITION('international standard',
  'automotive_design',2000,#2);
#2 = APPLICATION_CONTEXT(
  'core data for automotive mechanical design processes');
#3 = SHAPE_DEFINITION_REPRESENTATION(#4,#10);
#4 = PRODUCT_DEFINITION_SHAPE('','',#5);
#5 = PRODUCT_DEFINITION('design','',#6,#9);
#6 = PRODUCT_DEFINITION_FORMATION('','',#7);
#7 = PRODUCT('Open CASCADE STEP translator 7.8 2',
  'Open CASCADE STEP translator 7.8 2','',(#8));
#8 = PRODUCT_CONTEXT('',#2,'mechanical');
#9 = PRODUCT_DEFINITION_CONTEXT('part definition',#2,'design');
#10 = ADVANCED_BREP_SHAPE_REPRESENTATION('',(#11,#15),#1297);
#11 = AXIS2_PLACEMENT_3D('',#12,#13,#14);
#12 = CARTESIAN_POINT('',(0.,0.,0.));
#13 = DIRECTION('',(0.,0.,1.));
#14 = DIRECTION('',(1.,0.,-0.));
#15 = MANIFOLD_SOLID_BREP('',#16);
#16 = CLOSED_SHELL('',(#17,#193,#718,#786,#1135,#1160,#1185,#1210,#1235,
    #1259,#1283,#1290));
#17 = ADVANCED_FACE('',(#18),#33,.F.);
#18 = FACE_BOUND('',#19,.F.);
#19 = EDGE_LOOP('',(#20,#58,#83,#114));
#20 = ORIENTED_EDGE('',*,*,#21,.F.);
#21 = EDGE_CURVE('',#22,#24,#26,.T.);
#22 = VERTEX_POINT('',#23);
#23 = CARTESIAN_POINT('',(-2.5,-30.,-58.5));
#24 = VERTEX_POINT('',#25);
#25 = CARTESIAN_POINT('',(-2.5,3.552713678801E-15,-58.5));
#26 = SURFACE_CURVE('',#27,(#32,#45),.PCURVE_S1.);
#27 = B_SPLINE_CURVE_WITH_KNOTS('',3,(#28,#29,#30,#31),.UNSPECIFIED.,.F.
  ,.F.,(4,4),(0.,1.),.PIECEWISE_BEZIER_KNOTS.);
#28 = CARTESIAN_POINT('',(-2.5,-30.,-58.5));
#29 = CARTESIAN_POINT('',(-2.5,-29.9,-58.5));
#30 = CARTESIAN_POINT('',(-2.5,-1.E-01,-58.5));
#31 = CARTESIAN_POINT('',(-2.5,8.881784197001E-15,-58.5));
#32 = PCURVE('',#33,#38);
#33 = PLANE('',#34);
#34 = AXIS2_PLACEMENT_3D('',#35,#36,#37);
#35 = CARTESIAN_POINT('',(0.,-15.,-58.5));
#36 = DIRECTION('',(2.936127007273E-16,4.163268695587E-16,1.));
#37 = DIRECTION('',(1.,5.020246460856E-19,-2.936127007273E-16));
#38 = DEFINITIONAL_REPRESENTATION('',(#39),#44);
#39 = B_SPLINE_CURVE_WITH_KNOTS('',3,(#40,#41,#42,#43),.UNSPECIFIED.,.F.
  ,.F.,(4,4),(0.,1.),.PIECEWISE_BEZIER_KNOTS.);
#40 = CARTESIAN_POINT('',(-2.5,-15.));
#41 = CARTESIAN_POINT('',(-2.5,-14.9));
#42 = CARTESIAN_POINT('',(-2.5,14.9));
#43 = CARTESIAN_POINT('',(-2.5,15.));
#44 = ( GEOMETRIC_REPRESENTATION_CONTEXT(2) 
PARAMETRIC_REPRESENTATION_CONTEXT() REPRESENTATION_CONTEXT('2D SPACE',''
  ) );
#45 = PCURVE('',#46,#51);
#46 = PLANE('',#47);
#47 = AXIS2_PLACEMENT_3D('',#48,#49,#50);
#48 = CARTESIAN_POINT('',(-2.5,-15.,-58.));
#49 = DIRECTION('',(1.,4.004753648206E-18,-2.459720973091E-30));
#50 = DIRECTION('',(-2.459159997481E-30,-1.400774328875E-16,-1.));
#51 = DEFINITIONAL_REPRESENTATION('',(#52),#57);
#52 = B_SPLINE_CURVE_WITH_KNOTS('',3,(#53,#54,#55,#56),.UNSPECIFIED.,.F.
  ,.F.,(4,4),(0.,1.),.PIECEWISE_BEZIER_KNOTS.);
#53 = CARTESIAN_POINT('',(0.5,-15.));
#54 = CARTESIAN_POINT('',(0.5,-14.9));
#55 = CARTESIAN_POINT('',(0.5,14.9));
#56 = CARTESIAN_POINT('',(0.5,15.));
#57 = ( GEOMETRIC_REPRESENTATION_CONTEXT(2) 
PARAMETRIC_REPRESENTATION_CONTEXT() REPRESENTATION_CONTEXT('2D SPACE',''
  ) );
#58 = ORIENTED_EDGE('',*,*,#59,.T.);
#59 = EDGE_CURVE('',#22,#60,#62,.T.);
#60 = VERTEX_POINT('',#61);
#61 = CARTESIAN_POINT('',(2.5,-30.,-58.5));
#62 = SURFACE_CURVE('',#63,(#66,#72),.PCURVE_S1.);
#63 = B_SPLINE_CURVE_WITH_KNOTS('',1,(#64,#65),.UNSPECIFIED.,.F.,.F.,(2,
    2),(0.,5.),.PIECEWISE_BEZIER_KNOTS.);
#64 = CARTESIAN_POINT('',(-2.5,-30.,-58.5));
#65 = CARTESIAN_POINT('',(2.5,-30.,-58.5));
#66 = PCURVE('',#33,#67);
#67 = DEFINITIONAL_REPRESENTATION('',(#68),#71);
#68 = B_SPLINE_CURVE_WITH_KNOTS('',1,(#69,#70),.UNSPECIFIED.,.F.,.F.,(2,
    2),(0.,5.),.PIECEWISE_BEZIER_KNOTS.);
#69 = CARTESIAN_POINT('',(-2.5,-15.));
#70 = CARTESIAN_POINT('',(2.5,-15.));
#71 = ( GEOMETRIC_REPRESENTATION_CONTEXT(2) 
PARAMETRIC_REPRESENTATION_CONTEXT() REPRESENTATION_CONTEXT('2D SPACE',''
  ) );
#72 = PCURVE('',#73,#78);
#73 = PLANE('',#74);
#74 = AXIS2_PLACEMENT_3D('',#75,#76,#77);
#75 = CARTESIAN_POINT('',(0.,-30.,-58.));
#76 = DIRECTION('',(-0.,-1.,-0.));
#77 = DIRECTION('',(0.,0.,-1.));
#78 = DEFINITIONAL_REPRESENTATION('',(#79),#82);
#79 = B_SPLINE_CURVE_WITH_KNOTS('',1,(#80,#81),.UNSPECIFIED.,.F.,.F.,(2,
    2),(0.,5.),.PIECEWISE_BEZIER_KNOTS.);
#80 = CARTESIAN_POINT('',(0.5,-2.5));
#81 = CARTESIAN_POINT('',(0.5,2.5));
#82 = ( GEOMETRIC_REPRESENTATION_CONTEXT(2) 
PARAMETRIC_REPRESENTATION_CONTEXT() REPRESENTATION_CONTEXT('2D SPACE',''
  ) );
#83 = ORIENTED_EDGE('',*,*,#84,.T.);
#84 = EDGE_CURVE('',#60,#85,#87,.T.);
#85 = VERTEX_POINT('',#86);
#86 = CARTESIAN_POINT('',(2.5,3.552713678801E-15,-58.5));
#87 = SURFACE_CURVE('',#88,(#93,#101),.PCURVE_S1.);
#88 = B_SPLINE_CURVE_WITH_KNOTS('',3,(#89,#90,#91,#92),.UNSPECIFIED.,.F.
  ,.F.,(4,4),(0.,1.),.PIECEWISE_BEZIER_KNOTS.);
#89 = CARTESIAN_POINT('',(2.5,-30.,-58.5));
#90 = CARTESIAN_POINT('',(2.5,-29.9,-58.5));
#91 = CARTESIAN_POINT('',(2.5,-1.E-01,-58.5));
#92 = CARTESIAN_POINT('',(2.5,8.881784197001E-15,-58.5));
#93 = PCURVE('',#33,#94);
#94 = DEFINITIONAL_REPRESENTATION('',(#95),#100);
#95 = B_SPLINE_CURVE_WITH_KNOTS('',3,(#96,#97,#98,#99),.UNSPECIFIED.,.F.
  ,.F.,(4,4),(0.,1.),.PIECEWISE_BEZIER_KNOTS.);
#96 = CARTESIAN_POINT('',(2.5,-15.));
#97 = CARTESIAN_POINT('',(2.5,-14.9));
#98 = CARTESIAN_POINT('',(2.5,14.9));
#99 = CARTESIAN_POINT('',(2.5,15.));
#100 = ( GEOMETRIC_REPRESENTATION_CONTEXT(2) 
PARAMETRIC_REPRESENTATION_CONTEXT() REPRESENTATION_CONTEXT('2D SPACE',''
  ) );
#101 = PCURVE('',#102,#107);
#102 = PLANE('',#103);
#103 = AXIS2_PLACEMENT_3D('',#104,#105,#106);
#104 = CARTESIAN_POINT('',(2.5,-15.,-58.));
#105 = DIRECTION('',(-1.,4.004753648206E-18,2.974338306924E-30));
#106 = DIRECTION('',(2.974863821389E-30,1.312226697902E-16,1.));
#107 = DEFINITIONAL_REPRESENTATION('',(#108),#113);
#108 = B_SPLINE_CURVE_WITH_KNOTS('',3,(#109,#110,#111,#112),
  .UNSPECIFIED.,.F.,.F.,(4,4),(0.,1.),.PIECEWISE_BEZIER_KNOTS.);
#109 = CARTESIAN_POINT('',(-0.5,-15.));
#110 = CARTESIAN_POINT('',(-0.5,-14.9));
#111 = CARTESIAN_POINT('',(-0.5,14.9));
#112 = CARTESIAN_POINT('',(-0.5,15.));
#113 = ( GEOMETRIC_REPRESENTATION_CONTEXT(2) 
PARAMETRIC_REPRESENTATION_CONTEXT() REPRESENTATION_CONTEXT('2D SPACE',''
  ) );
#114 = ORIENTED_EDGE('',*,*,#115,.F.);
#115 = EDGE_CURVE('',#24,#85,#116,.T.);
#116 = SURFACE_CURVE('',#117,(#120,#126),.PCURVE_S1.);
#117 = B_SPLINE_CURVE_WITH_KNOTS('',1,(#118,#119),.UNSPECIFIED.,.F.,.F.,
  (2,2),(0.,5.),.PIECEWISE_BEZIER_KNOTS.);
#118 = CARTESIAN_POINT('',(-2.5,8.881784197001E-15,-58.5));
#119 = CARTESIAN_POINT('',(2.5,8.881784197001E-15,-58.5));
#120 = PCURVE('',#33,#121);
#121 = DEFINITIONAL_REPRESENTATION('',(#122),#125);
#122 = B_SPLINE_CURVE_WITH_KNOTS('',1,(#123,#124),.UNSPECIFIED.,.F.,.F.,
  (2,2),(0.,5.),.PIECEWISE_BEZIER_KNOTS.);
#123 = CARTESIAN_POINT('',(-2.5,15.));
#124 = CARTESIAN_POINT('',(2.5,15.));
#125 = ( GEOMETRIC_REPRESENTATION_CONTEXT(2) 
PARAMETRIC_REPRESENTATION_CONTEXT() REPRESENTATION_CONTEXT('2D SPACE',''
  ) );
#126 = PCURVE('',#127,#188);
#127 = B_SPLINE_SURFACE_WITH_KNOTS('',1,11,(
    (#128,#129,#130,#131,#132,#133,#134,#135,#136,#137,#138,#139,#140
      ,#141,#142,#143,#144,#145,#146,#147,#148,#149,#150,#151,#152,#153
      ,#154,#155,#156,#157)
    ,(#158,#159,#160,#161,#162,#163,#164,#165,#166,#167,#168,#169,#170
      ,#171,#172,#173,#174,#175,#176,#177,#178,#179,#180,#181,#182,#183
      ,#184,#185,#186,#187
  )),.UNSPECIFIED.,.F.,.F.,.F.,(2,2),(12,9,9,12),(0.,5.),(0.,
    0.209393204226,0.604696602113,1.),.UNSPECIFIED.);
#128 = CARTESIAN_POINT('',(-2.5,0.,-58.5));
#129 = CARTESIAN_POINT('',(-2.5,2.909551219084,-58.49999999999));
#130 = CARTESIAN_POINT('',(-2.5,5.760390138043,-58.53968169615));
#131 = CARTESIAN_POINT('',(-2.499999999999,8.550551379859,-58.6139968622
    ));
#132 = CARTESIAN_POINT('',(-2.500000000001,11.278068551487,
    -58.71789758823));
#133 = CARTESIAN_POINT('',(-2.499999999999,13.940977205962,
    -58.84633578952));
#134 = CARTESIAN_POINT('',(-2.500000000001,16.53731780461,
    -58.99426271696));
#135 = CARTESIAN_POINT('',(-2.5,19.065138679153,-59.15662846535));
#136 = CARTESIAN_POINT('',(-2.5,21.52249899388,-59.32838148395));
#137 = CARTESIAN_POINT('',(-2.5,23.90747170783,-59.50446808515));
#138 = CARTESIAN_POINT('',(-2.5,30.580358838441,-60.01089300111));
#139 = CARTESIAN_POINT('',(-2.500000000001,36.617857938884,
    -60.4690964616));
#140 = CARTESIAN_POINT('',(-2.499999999998,40.27934819146,
    -60.71212359879));
#141 = CARTESIAN_POINT('',(-2.500000000003,43.651371305985,
    -60.87964743834));
#142 = CARTESIAN_POINT('',(-2.499999999996,46.694783458747,
    -60.8790789136));
#143 = CARTESIAN_POINT('',(-2.500000000004,49.449433328145,
    -60.81629518607));
#144 = CARTESIAN_POINT('',(-2.499999999997,51.855501564488,
    -60.42218015139));
#145 = CARTESIAN_POINT('',(-2.500000000001,53.904912403328,
    -59.93754654136));
#146 = CARTESIAN_POINT('',(-2.5,55.685158694316,-59.09639732107));
#147 = CARTESIAN_POINT('',(-2.5,58.434818946643,-56.70487422122));
#148 = CARTESIAN_POINT('',(-2.5,59.448842894465,-52.93169791817));
#149 = CARTESIAN_POINT('',(-2.500000000001,59.485079705051,
    -50.70733926876));
#150 = CARTESIAN_POINT('',(-2.499999999999,59.096257716952,
    -48.19304103094));
#151 = CARTESIAN_POINT('',(-2.500000000001,58.324117984404,
    -45.17570927704));
#152 = CARTESIAN_POINT('',(-2.499999999999,57.037426025688,
    -41.77729531389));
#153 = CARTESIAN_POINT('',(-2.5,55.345971205909,-37.84308568104));
#154 = CARTESIAN_POINT('',(-2.5,53.15193834414,-33.40012637782));
#155 = CARTESIAN_POINT('',(-2.5,50.479477974937,-28.38875747146));
#156 = CARTESIAN_POINT('',(-2.5,47.304510995766,-22.77990418459));
#157 = CARTESIAN_POINT('',(-2.5,43.614753285675,-16.53817301293));
#158 = CARTESIAN_POINT('',(2.5,0.,-58.5));
#159 = CARTESIAN_POINT('',(2.5,2.909551219084,-58.49999999999));
#160 = CARTESIAN_POINT('',(2.5,5.760390138043,-58.53968169615));
#161 = CARTESIAN_POINT('',(2.499999999999,8.550551379859,-58.6139968622)
  );
#162 = CARTESIAN_POINT('',(2.500000000001,11.278068551487,
    -58.71789758823));
#163 = CARTESIAN_POINT('',(2.499999999999,13.940977205962,
    -58.84633578952));
#164 = CARTESIAN_POINT('',(2.500000000001,16.53731780461,-58.99426271696
    ));
#165 = CARTESIAN_POINT('',(2.5,19.065138679153,-59.15662846535));
#166 = CARTESIAN_POINT('',(2.5,21.52249899388,-59.32838148395));
#167 = CARTESIAN_POINT('',(2.5,23.90747170783,-59.50446808515));
#168 = CARTESIAN_POINT('',(2.5,30.580358838441,-60.01089300111));
#169 = CARTESIAN_POINT('',(2.500000000001,36.617857938884,-60.4690964616
    ));
#170 = CARTESIAN_POINT('',(2.499999999998,40.279348191462,
    -60.71212359879));
#171 = CARTESIAN_POINT('',(2.500000000003,43.651371305981,
    -60.87964743834));
#172 = CARTESIAN_POINT('',(2.499999999996,46.694783458751,-60.8790789136
    ));
#173 = CARTESIAN_POINT('',(2.500000000004,49.44943332814,-60.81629518607
    ));
#174 = CARTESIAN_POINT('',(2.499999999997,51.855501564491,
    -60.42218015139));
#175 = CARTESIAN_POINT('',(2.500000000001,53.904912403326,
    -59.93754654136));
#176 = CARTESIAN_POINT('',(2.5,55.685158694317,-59.09639732107));
#177 = CARTESIAN_POINT('',(2.5,58.434818946643,-56.70487422122));
#178 = CARTESIAN_POINT('',(2.5,59.448842894466,-52.93169791817));
#179 = CARTESIAN_POINT('',(2.500000000001,59.485079705049,
    -50.70733926875));
#180 = CARTESIAN_POINT('',(2.499999999999,59.096257716956,
    -48.19304103096));
#181 = CARTESIAN_POINT('',(2.500000000001,58.324117984399,
    -45.17570927702));
#182 = CARTESIAN_POINT('',(2.499999999999,57.037426025692,-41.7772953139
    ));
#183 = CARTESIAN_POINT('',(2.5,55.345971205906,-37.84308568103));
#184 = CARTESIAN_POINT('',(2.5,53.151938344142,-33.40012637783));
#185 = CARTESIAN_POINT('',(2.5,50.479477974936,-28.38875747146));
#186 = CARTESIAN_POINT('',(2.5,47.304510995766,-22.77990418459));
#187 = CARTESIAN_POINT('',(2.5,43.614753285675,-16.53817301293));
#188 = DEFINITIONAL_REPRESENTATION('',(#189),#192);
#189 = B_SPLINE_CURVE_WITH_KNOTS('',1,(#190,#191),.UNSPECIFIED.,.F.,.F.,
  (2,2),(0.,5.),.PIECEWISE_BEZIER_KNOTS.);
#190 = CARTESIAN_POINT('',(0.,0.));
#191 = CARTESIAN_POINT('',(5.,0.));
#192 = ( GEOMETRIC_REPRESENTATION_CONTEXT(2) 
PARAMETRIC_REPRESENTATION_CONTEXT() REPRESENTATION_CONTEXT('2D SPACE',''
  ) );
#193 = ADVANCED_FACE('',(#194),#102,.F.);
#194 = FACE_BOUND('',#195,.F.);
#195 = EDGE_LOOP('',(#196,#197,#217,#248,#385,#470,#501,#526,#557,#643)
  );
#196 = ORIENTED_EDGE('',*,*,#84,.F.);
#197 = ORIENTED_EDGE('',*,*,#198,.T.);
#198 = EDGE_CURVE('',#60,#199,#201,.T.);
#199 = VERTEX_POINT('',#200);
#200 = CARTESIAN_POINT('',(2.5,-30.,-57.5));
#201 = SURFACE_CURVE('',#202,(#205,#211),.PCURVE_S1.);
#202 = B_SPLINE_CURVE_WITH_KNOTS('',1,(#203,#204),.UNSPECIFIED.,.F.,.F.,
  (2,2),(0.,1.),.PIECEWISE_BEZIER_KNOTS.);
#203 = CARTESIAN_POINT('',(2.5,-30.,-58.5));
#204 = CARTESIAN_POINT('',(2.5,-30.,-57.5));
#205 = PCURVE('',#102,#206);
#206 = DEFINITIONAL_REPRESENTATION('',(#207),#210);
#207 = B_SPLINE_CURVE_WITH_KNOTS('',1,(#208,#209),.UNSPECIFIED.,.F.,.F.,
  (2,2),(0.,1.),.PIECEWISE_BEZIER_KNOTS.);
#208 = CARTESIAN_POINT('',(-0.5,-15.));
#209 = CARTESIAN_POINT('',(0.5,-15.));
#210 = ( GEOMETRIC_REPRESENTATION_CONTEXT(2) 
PARAMETRIC_REPRESENTATION_CONTEXT() REPRESENTATION_CONTEXT('2D SPACE',''
  ) );
#211 = PCURVE('',#73,#212);
#212 = DEFINITIONAL_REPRESENTATION('',(#213),#216);
#213 = B_SPLINE_CURVE_WITH_KNOTS('',1,(#214,#215),.UNSPECIFIED.,.F.,.F.,
  (2,2),(0.,1.),.PIECEWISE_BEZIER_KNOTS.);
#214 = CARTESIAN_POINT('',(0.5,2.5));
#215 = CARTESIAN_POINT('',(-0.5,2.5));
#216 = ( GEOMETRIC_REPRESENTATION_CONTEXT(2) 
PARAMETRIC_REPRESENTATION_CONTEXT() REPRESENTATION_CONTEXT('2D SPACE',''
  ) );
#217 = ORIENTED_EDGE('',*,*,#218,.T.);
#218 = EDGE_CURVE('',#199,#219,#221,.T.);
#219 = VERTEX_POINT('',#220);
#220 = CARTESIAN_POINT('',(2.5,3.552713678801E-15,-57.5));
#221 = SURFACE_CURVE('',#222,(#227,#235),.PCURVE_S1.);
#222 = B_SPLINE_CURVE_WITH_KNOTS('',3,(#223,#224,#225,#226),
  .UNSPECIFIED.,.F.,.F.,(4,4),(0.,1.),.PIECEWISE_BEZIER_KNOTS.);
#223 = CARTESIAN_POINT('',(2.5,-30.,-57.5));
#224 = CARTESIAN_POINT('',(2.5,-29.9,-57.5));
#225 = CARTESIAN_POINT('',(2.5,-1.E-01,-57.5));
#226 = CARTESIAN_POINT('',(2.5,8.881784197001E-15,-57.5));
#227 = PCURVE('',#102,#228);
#228 = DEFINITIONAL_REPRESENTATION('',(#229),#234);
#229 = B_SPLINE_CURVE_WITH_KNOTS('',3,(#230,#231,#232,#233),
  .UNSPECIFIED.,.F.,.F.,(4,4),(0.,1.),.PIECEWISE_BEZIER_KNOTS.);
#230 = CARTESIAN_POINT('',(0.5,-15.));
#231 = CARTESIAN_POINT('',(0.5,-14.9));
#232 = CARTESIAN_POINT('',(0.5,14.9));
#233 = CARTESIAN_POINT('',(0.5,15.));
#234 = ( GEOMETRIC_REPRESENTATION_CONTEXT(2) 
PARAMETRIC_REPRESENTATION_CONTEXT() REPRESENTATION_CONTEXT('2D SPACE',''
  ) );
#235 = PCURVE('',#236,#241);
#236 = PLANE('',#237);
#237 = AXIS2_PLACEMENT_3D('',#238,#239,#240);
#238 = CARTESIAN_POINT('',(0.,-15.,-57.5));
#239 = DIRECTION('',(0.,0.,-1.));
#240 = DIRECTION('',(-1.,5.020246460857E-19,0.));
#241 = DEFINITIONAL_REPRESENTATION('',(#242),#247);
#242 = B_SPLINE_CURVE_WITH_KNOTS('',3,(#243,#244,#245,#246),
  .UNSPECIFIED.,.F.,.F.,(4,4),(0.,1.),.PIECEWISE_BEZIER_KNOTS.);
#243 = CARTESIAN_POINT('',(-2.5,-15.));
#244 = CARTESIAN_POINT('',(-2.5,-14.9));
#245 = CARTESIAN_POINT('',(-2.5,14.9));
#246 = CARTESIAN_POINT('',(-2.5,15.));
#247 = ( GEOMETRIC_REPRESENTATION_CONTEXT(2) 
PARAMETRIC_REPRESENTATION_CONTEXT() REPRESENTATION_CONTEXT('2D SPACE',''
  ) );
#248 = ORIENTED_EDGE('',*,*,#249,.T.);
#249 = EDGE_CURVE('',#219,#250,#252,.T.);
#250 = VERTEX_POINT('',#251);
#251 = CARTESIAN_POINT('',(2.5,42.75391508289,-17.04705176924));
#252 = SURFACE_CURVE('',#253,(#284,#318),.PCURVE_S1.);
#253 = B_SPLINE_CURVE_WITH_KNOTS('',11,(#254,#255,#256,#257,#258,#259,
    #260,#261,#262,#263,#264,#265,#266,#267,#268,#269,#270,#271,#272,
    #273,#274,#275,#276,#277,#278,#279,#280,#281,#282,#283),
  .UNSPECIFIED.,.F.,.F.,(12,9,9,12),(0.,0.209393204226,0.604696602113,1.
    ),.UNSPECIFIED.);
#254 = CARTESIAN_POINT('',(2.5,0.,-57.5));
#255 = CARTESIAN_POINT('',(2.5,2.921949787283,-57.49999999999));
#256 = CARTESIAN_POINT('',(2.5,5.784268255093,-57.53985079309));
#257 = CARTESIAN_POINT('',(2.499999999999,8.584940957051,-57.61446368358
    ));
#258 = CARTESIAN_POINT('',(2.500000000001,11.321954462848,
    -57.71874965988));
#259 = CARTESIAN_POINT('',(2.499999999999,13.993293396035,
    -57.84761988433));
#260 = CARTESIAN_POINT('',(2.500000000001,16.59693747193,-57.99598618489
    ));
#261 = CARTESIAN_POINT('',(2.5,19.130858535428,-58.15876154431));
#262 = CARTESIAN_POINT('',(2.5,21.593017598832,-58.33086059194));
#263 = CARTESIAN_POINT('',(2.5,23.981361879768,-58.50720009332));
#264 = CARTESIAN_POINT('',(2.5,30.6594042021,-59.01401625185));
#265 = CARTESIAN_POINT('',(2.500000000001,36.687171063084,
    -59.47148110423));
#266 = CARTESIAN_POINT('',(2.499999999998,40.336800527069,
    -59.71714440902));
#267 = CARTESIAN_POINT('',(2.500000000003,43.672911176476,
    -59.86020502261));
#268 = CARTESIAN_POINT('',(2.499999999996,46.707869478148,
    -59.92504798779));
#269 = CARTESIAN_POINT('',(2.500000000004,49.375049398825,
    -59.73759212157));
#270 = CARTESIAN_POINT('',(2.499999999997,51.707492930876,
    -59.49874950393));
#271 = CARTESIAN_POINT('',(2.500000000001,53.686498483772,
    -58.89950338141));
#272 = CARTESIAN_POINT('',(2.5,55.19779585115,-58.13764676525));
#273 = CARTESIAN_POINT('',(2.5,57.503922737335,-56.14849793935));
#274 = CARTESIAN_POINT('',(2.5,58.38397614708,-52.91886571899));
#275 = CARTESIAN_POINT('',(2.500000000001,58.477573214049,
    -50.91808193444));
#276 = CARTESIAN_POINT('',(2.499999999999,58.152246922296,
    -48.41529554301));
#277 = CARTESIAN_POINT('',(2.500000000001,57.339478861804,-45.5553964498
    ));
#278 = CARTESIAN_POINT('',(2.499999999999,56.143726157875,
    -42.14822932461));
#279 = CARTESIAN_POINT('',(2.5,54.42842208978,-38.28030360554));
#280 = CARTESIAN_POINT('',(2.5,52.264604482037,-33.8563692699));
#281 = CARTESIAN_POINT('',(2.5,49.601345444303,-28.86788222792));
#282 = CARTESIAN_POINT('',(2.5,46.435946722931,-23.27571323387));
#283 = CARTESIAN_POINT('',(2.5,42.75391508289,-17.04705176924));
#284 = PCURVE('',#102,#285);
#285 = DEFINITIONAL_REPRESENTATION('',(#286),#317);
#286 = B_SPLINE_CURVE_WITH_KNOTS('',11,(#287,#288,#289,#290,#291,#292,
    #293,#294,#295,#296,#297,#298,#299,#300,#301,#302,#303,#304,#305,
    #306,#307,#308,#309,#310,#311,#312,#313,#314,#315,#316),
  .UNSPECIFIED.,.F.,.F.,(12,9,9,12),(0.,0.209393204226,0.604696602113,1.
    ),.UNSPECIFIED.);
#287 = CARTESIAN_POINT('',(0.5,15.));
#288 = CARTESIAN_POINT('',(0.500000000004,17.921949787283));
#289 = CARTESIAN_POINT('',(0.460149206902,20.784268255093));
#290 = CARTESIAN_POINT('',(0.385536316416,23.584940957051));
#291 = CARTESIAN_POINT('',(0.281250340116,26.321954462848));
#292 = CARTESIAN_POINT('',(0.152380115666,28.993293396035));
#293 = CARTESIAN_POINT('',(4.013815100663E-03,31.59693747193));
#294 = CARTESIAN_POINT('',(-0.158761544317,34.130858535428));
#295 = CARTESIAN_POINT('',(-0.33086059194,36.593017598832));
#296 = CARTESIAN_POINT('',(-0.507200093326,38.981361879768));
#297 = CARTESIAN_POINT('',(-1.014016251857,45.6594042021));
#298 = CARTESIAN_POINT('',(-1.471481104238,51.687171063084));
#299 = CARTESIAN_POINT('',(-1.717144409024,55.336800527069));
#300 = CARTESIAN_POINT('',(-1.860205022617,58.672911176476));
#301 = CARTESIAN_POINT('',(-1.925047987799,61.707869478148));
#302 = CARTESIAN_POINT('',(-1.737592121577,64.375049398825));
#303 = CARTESIAN_POINT('',(-1.498749503932,66.707492930876));
#304 = CARTESIAN_POINT('',(-0.899503381411,68.686498483772));
#305 = CARTESIAN_POINT('',(-0.137646765255,70.19779585115));
#306 = CARTESIAN_POINT('',(1.851502060645,72.503922737335));
#307 = CARTESIAN_POINT('',(5.081134281008,73.38397614708));
#308 = CARTESIAN_POINT('',(7.081918065553,73.477573214049));
#309 = CARTESIAN_POINT('',(9.584704456987,73.152246922296));
#310 = CARTESIAN_POINT('',(12.4446035502,72.339478861804));
#311 = CARTESIAN_POINT('',(15.851770675386,71.143726157875));
#312 = CARTESIAN_POINT('',(19.719696394453,69.42842208978));
#313 = CARTESIAN_POINT('',(24.143630730092,67.264604482037));
#314 = CARTESIAN_POINT('',(29.132117772079,64.601345444303));
#315 = CARTESIAN_POINT('',(34.724286766122,61.435946722931));
#316 = CARTESIAN_POINT('',(40.952948230756,57.75391508289));
#317 = ( GEOMETRIC_REPRESENTATION_CONTEXT(2) 
PARAMETRIC_REPRESENTATION_CONTEXT() REPRESENTATION_CONTEXT('2D SPACE',''
  ) );
#318 = PCURVE('',#319,#380);
#319 = B_SPLINE_SURFACE_WITH_KNOTS('',1,11,(
    (#320,#321,#322,#323,#324,#325,#326,#327,#328,#329,#330,#331,#332
      ,#333,#334,#335,#336,#337,#338,#339,#340,#341,#342,#343,#344,#345
      ,#346,#347,#348,#349)
    ,(#350,#351,#352,#353,#354,#355,#356,#357,#358,#359,#360,#361,#362
      ,#363,#364,#365,#366,#367,#368,#369,#370,#371,#372,#373,#374,#375
      ,#376,#377,#378,#379
  )),.UNSPECIFIED.,.F.,.F.,.F.,(2,2),(12,9,9,12),(0.,5.),(0.,
    0.209393204226,0.604696602113,1.),.UNSPECIFIED.);
#320 = CARTESIAN_POINT('',(2.5,0.,-57.5));
#321 = CARTESIAN_POINT('',(2.5,2.921949787283,-57.49999999999));
#322 = CARTESIAN_POINT('',(2.5,5.784268255093,-57.53985079309));
#323 = CARTESIAN_POINT('',(2.499999999999,8.584940957051,-57.61446368358
    ));
#324 = CARTESIAN_POINT('',(2.500000000001,11.321954462848,
    -57.71874965988));
#325 = CARTESIAN_POINT('',(2.499999999999,13.993293396035,
    -57.84761988433));
#326 = CARTESIAN_POINT('',(2.500000000001,16.59693747193,-57.99598618489
    ));
#327 = CARTESIAN_POINT('',(2.5,19.130858535428,-58.15876154431));
#328 = CARTESIAN_POINT('',(2.5,21.593017598832,-58.33086059194));
#329 = CARTESIAN_POINT('',(2.5,23.981361879768,-58.50720009332));
#330 = CARTESIAN_POINT('',(2.5,30.6594042021,-59.01401625185));
#331 = CARTESIAN_POINT('',(2.500000000001,36.687171063084,
    -59.47148110423));
#332 = CARTESIAN_POINT('',(2.499999999998,40.336800527069,
    -59.71714440902));
#333 = CARTESIAN_POINT('',(2.500000000003,43.672911176476,
    -59.86020502261));
#334 = CARTESIAN_POINT('',(2.499999999996,46.707869478148,
    -59.92504798779));
#335 = CARTESIAN_POINT('',(2.500000000004,49.375049398825,
    -59.73759212157));
#336 = CARTESIAN_POINT('',(2.499999999997,51.707492930876,
    -59.49874950393));
#337 = CARTESIAN_POINT('',(2.500000000001,53.686498483772,
    -58.89950338141));
#338 = CARTESIAN_POINT('',(2.5,55.19779585115,-58.13764676525));
#339 = CARTESIAN_POINT('',(2.5,57.503922737335,-56.14849793935));
#340 = CARTESIAN_POINT('',(2.5,58.38397614708,-52.91886571899));
#341 = CARTESIAN_POINT('',(2.500000000001,58.477573214049,
    -50.91808193444));
#342 = CARTESIAN_POINT('',(2.499999999999,58.152246922296,
    -48.41529554301));
#343 = CARTESIAN_POINT('',(2.500000000001,57.339478861804,-45.5553964498
    ));
#344 = CARTESIAN_POINT('',(2.499999999999,56.143726157875,
    -42.14822932461));
#345 = CARTESIAN_POINT('',(2.5,54.42842208978,-38.28030360554));
#346 = CARTESIAN_POINT('',(2.5,52.264604482037,-33.8563692699));
#347 = CARTESIAN_POINT('',(2.5,49.601345444303,-28.86788222792));
#348 = CARTESIAN_POINT('',(2.5,46.435946722931,-23.27571323387));
#349 = CARTESIAN_POINT('',(2.5,42.75391508289,-17.04705176924));
#350 = CARTESIAN_POINT('',(-2.5,0.,-57.5));
#351 = CARTESIAN_POINT('',(-2.5,2.921949787283,-57.49999999999));
#352 = CARTESIAN_POINT('',(-2.5,5.784268255093,-57.53985079309));
#353 = CARTESIAN_POINT('',(-2.499999999999,8.584940957051,
    -57.61446368358));
#354 = CARTESIAN_POINT('',(-2.500000000001,11.321954462848,
    -57.71874965988));
#355 = CARTESIAN_POINT('',(-2.499999999999,13.993293396034,
    -57.84761988433));
#356 = CARTESIAN_POINT('',(-2.500000000001,16.59693747193,
    -57.99598618489));
#357 = CARTESIAN_POINT('',(-2.5,19.130858535428,-58.15876154431));
#358 = CARTESIAN_POINT('',(-2.5,21.593017598832,-58.33086059194));
#359 = CARTESIAN_POINT('',(-2.5,23.981361879767,-58.50720009332));
#360 = CARTESIAN_POINT('',(-2.5,30.6594042021,-59.01401625185));
#361 = CARTESIAN_POINT('',(-2.500000000001,36.687171063084,
    -59.47148110423));
#362 = CARTESIAN_POINT('',(-2.499999999998,40.336800527071,
    -59.71714440902));
#363 = CARTESIAN_POINT('',(-2.500000000003,43.672911176472,
    -59.86020502261));
#364 = CARTESIAN_POINT('',(-2.499999999996,46.707869478154,
    -59.9250479878));
#365 = CARTESIAN_POINT('',(-2.500000000004,49.375049398817,
    -59.73759212157));
#366 = CARTESIAN_POINT('',(-2.499999999997,51.707492930882,
    -59.49874950393));
#367 = CARTESIAN_POINT('',(-2.500000000001,53.686498483768,
    -58.89950338141));
#368 = CARTESIAN_POINT('',(-2.5,55.197795851151,-58.13764676525));
#369 = CARTESIAN_POINT('',(-2.5,57.503922737334,-56.14849793935));
#370 = CARTESIAN_POINT('',(-2.5,58.383976147082,-52.91886571899));
#371 = CARTESIAN_POINT('',(-2.500000000001,58.477573214041,
    -50.91808193444));
#372 = CARTESIAN_POINT('',(-2.499999999999,58.152246922313,
    -48.41529554301));
#373 = CARTESIAN_POINT('',(-2.500000000001,57.33947886178,
    -45.55539644979));
#374 = CARTESIAN_POINT('',(-2.499999999999,56.143726157899,
    -42.14822932461));
#375 = CARTESIAN_POINT('',(-2.5,54.428422089761,-38.28030360554));
#376 = CARTESIAN_POINT('',(-2.5,52.264604482048,-33.85636926991));
#377 = CARTESIAN_POINT('',(-2.5,49.601345444299,-28.86788222792));
#378 = CARTESIAN_POINT('',(-2.5,46.435946722933,-23.27571323387));
#379 = CARTESIAN_POINT('',(-2.5,42.75391508289,-17.04705176924));
#380 = DEFINITIONAL_REPRESENTATION('',(#381),#384);
#381 = B_SPLINE_CURVE_WITH_KNOTS('',1,(#382,#383),.UNSPECIFIED.,.F.,.F.,
  (2,2),(0.,1.),.PIECEWISE_BEZIER_KNOTS.);
#382 = CARTESIAN_POINT('',(0.,0.));
#383 = CARTESIAN_POINT('',(0.,1.));
#384 = ( GEOMETRIC_REPRESENTATION_CONTEXT(2) 
PARAMETRIC_REPRESENTATION_CONTEXT() REPRESENTATION_CONTEXT('2D SPACE',''
  ) );
#385 = ORIENTED_EDGE('',*,*,#386,.T.);
#386 = EDGE_CURVE('',#250,#387,#389,.T.);
#387 = VERTEX_POINT('',#388);
#388 = CARTESIAN_POINT('',(2.5,54.,52.5));
#389 = SURFACE_CURVE('',#390,(#408,#429),.PCURVE_S1.);
#390 = B_SPLINE_CURVE_WITH_KNOTS('',9,(#391,#392,#393,#394,#395,#396,
    #397,#398,#399,#400,#401,#402,#403,#404,#405,#406,#407),
  .UNSPECIFIED.,.F.,.F.,(10,7,10),(0.,0.5,1.),.UNSPECIFIED.);
#391 = CARTESIAN_POINT('',(2.5,42.75391508289,-17.04705176924));
#392 = CARTESIAN_POINT('',(2.5,36.983085289123,-7.284901774524));
#393 = CARTESIAN_POINT('',(2.5,32.443983532067,1.478446020887));
#394 = CARTESIAN_POINT('',(2.5,29.04269746057,9.299920394412));
#395 = CARTESIAN_POINT('',(2.5,26.68623164279,16.24027124312));
#396 = CARTESIAN_POINT('',(2.5,25.281150766053,22.352841046775));
#397 = CARTESIAN_POINT('',(2.5,24.733999363808,27.700820244813));
#398 = CARTESIAN_POINT('',(2.5,24.958211218423,32.350726062905));
#399 = CARTESIAN_POINT('',(2.5,26.794732724721,40.34353992199));
#400 = CARTESIAN_POINT('',(2.5,31.019318759295,45.886081267149));
#401 = CARTESIAN_POINT('',(2.5,33.633052406817,48.08706513478));
#402 = CARTESIAN_POINT('',(2.5,36.634639441821,49.75134204923));
#403 = CARTESIAN_POINT('',(2.5,39.904462919303,50.968330311245));
#404 = CARTESIAN_POINT('',(2.5,43.374478686425,51.791840939743));
#405 = CARTESIAN_POINT('',(2.5,46.939757335059,52.283041078492));
#406 = CARTESIAN_POINT('',(2.5,50.512578020461,52.5));
#407 = CARTESIAN_POINT('',(2.5,54.,52.5));
#408 = PCURVE('',#102,#409);
#409 = DEFINITIONAL_REPRESENTATION('',(#410),#428);
#410 = B_SPLINE_CURVE_WITH_KNOTS('',9,(#411,#412,#413,#414,#415,#416,
    #417,#418,#419,#420,#421,#422,#423,#424,#425,#426,#427),
  .UNSPECIFIED.,.F.,.F.,(10,7,10),(0.,0.5,1.),.UNSPECIFIED.);
#411 = CARTESIAN_POINT('',(40.952948230756,57.75391508289));
#412 = CARTESIAN_POINT('',(50.715098225476,51.983085289123));
#413 = CARTESIAN_POINT('',(59.478446020887,47.443983532067));
#414 = CARTESIAN_POINT('',(67.299920394412,44.04269746057));
#415 = CARTESIAN_POINT('',(74.24027124312,41.68623164279));
#416 = CARTESIAN_POINT('',(80.352841046775,40.281150766053));
#417 = CARTESIAN_POINT('',(85.700820244813,39.733999363807));
#418 = CARTESIAN_POINT('',(90.350726062905,39.958211218423));
#419 = CARTESIAN_POINT('',(98.34353992199,41.794732724721));
#420 = CARTESIAN_POINT('',(103.88608126714,46.019318759295));
#421 = CARTESIAN_POINT('',(106.08706513478,48.633052406817));
#422 = CARTESIAN_POINT('',(107.75134204923,51.634639441821));
#423 = CARTESIAN_POINT('',(108.96833031124,54.904462919303));
#424 = CARTESIAN_POINT('',(109.79184093974,58.374478686425));
#425 = CARTESIAN_POINT('',(110.28304107849,61.939757335059));
#426 = CARTESIAN_POINT('',(110.5,65.512578020461));
#427 = CARTESIAN_POINT('',(110.5,69.));
#428 = ( GEOMETRIC_REPRESENTATION_CONTEXT(2) 
PARAMETRIC_REPRESENTATION_CONTEXT() REPRESENTATION_CONTEXT('2D SPACE',''
  ) );
#429 = PCURVE('',#430,#465);
#430 = B_SPLINE_SURFACE_WITH_KNOTS('',1,9,(
    (#431,#432,#433,#434,#435,#436,#437,#438,#439,#440,#441,#442,#443
      ,#444,#445,#446,#447)
    ,(#448,#449,#450,#451,#452,#453,#454,#455,#456,#457,#458,#459,#460
      ,#461,#462,#463,#464
    )),.UNSPECIFIED.,.F.,.F.,.F.,(2,2),(10,7,10),(0.,5.),(0.,0.5,1.),
  .UNSPECIFIED.);
#431 = CARTESIAN_POINT('',(2.5,42.75391508289,-17.04705176924));
#432 = CARTESIAN_POINT('',(2.5,36.983085289123,-7.284901774524));
#433 = CARTESIAN_POINT('',(2.5,32.443983532067,1.478446020887));
#434 = CARTESIAN_POINT('',(2.5,29.04269746057,9.299920394412));
#435 = CARTESIAN_POINT('',(2.5,26.68623164279,16.24027124312));
#436 = CARTESIAN_POINT('',(2.5,25.281150766053,22.352841046775));
#437 = CARTESIAN_POINT('',(2.5,24.733999363808,27.700820244813));
#438 = CARTESIAN_POINT('',(2.5,24.958211218423,32.350726062905));
#439 = CARTESIAN_POINT('',(2.5,26.794732724721,40.34353992199));
#440 = CARTESIAN_POINT('',(2.5,31.019318759295,45.886081267149));
#441 = CARTESIAN_POINT('',(2.5,33.633052406817,48.08706513478));
#442 = CARTESIAN_POINT('',(2.5,36.634639441821,49.75134204923));
#443 = CARTESIAN_POINT('',(2.5,39.904462919303,50.968330311245));
#444 = CARTESIAN_POINT('',(2.5,43.374478686425,51.791840939743));
#445 = CARTESIAN_POINT('',(2.5,46.939757335059,52.283041078492));
#446 = CARTESIAN_POINT('',(2.5,50.512578020461,52.5));
#447 = CARTESIAN_POINT('',(2.5,54.,52.5));
#448 = CARTESIAN_POINT('',(-2.5,42.75391508289,-17.04705176924));
#449 = CARTESIAN_POINT('',(-2.5,36.983085289123,-7.284901774524));
#450 = CARTESIAN_POINT('',(-2.5,32.443983532068,1.478446020887));
#451 = CARTESIAN_POINT('',(-2.5,29.042697460569,9.299920394411));
#452 = CARTESIAN_POINT('',(-2.5,26.686231642791,16.24027124312));
#453 = CARTESIAN_POINT('',(-2.5,25.281150766052,22.352841046775));
#454 = CARTESIAN_POINT('',(-2.5,24.733999363808,27.700820244813));
#455 = CARTESIAN_POINT('',(-2.5,24.958211218423,32.350726062905));
#456 = CARTESIAN_POINT('',(-2.5,26.794732724721,40.343539921991));
#457 = CARTESIAN_POINT('',(-2.5,31.019318759295,45.886081267149));
#458 = CARTESIAN_POINT('',(-2.5,33.633052406816,48.08706513478));
#459 = CARTESIAN_POINT('',(-2.5,36.634639441822,49.751342049229));
#460 = CARTESIAN_POINT('',(-2.5,39.904462919302,50.968330311246));
#461 = CARTESIAN_POINT('',(-2.5,43.374478686426,51.791840939743));
#462 = CARTESIAN_POINT('',(-2.5,46.939757335059,52.283041078493));
#463 = CARTESIAN_POINT('',(-2.5,50.512578020461,52.5));
#464 = CARTESIAN_POINT('',(-2.5,54.,52.5));
#465 = DEFINITIONAL_REPRESENTATION('',(#466),#469);
#466 = B_SPLINE_CURVE_WITH_KNOTS('',1,(#467,#468),.UNSPECIFIED.,.F.,.F.,
  (2,2),(0.,1.),.PIECEWISE_BEZIER_KNOTS.);
#467 = CARTESIAN_POINT('',(0.,0.));
#468 = CARTESIAN_POINT('',(0.,1.));
#469 = ( GEOMETRIC_REPRESENTATION_CONTEXT(2) 
PARAMETRIC_REPRESENTATION_CONTEXT() REPRESENTATION_CONTEXT('2D SPACE',''
  ) );
#470 = ORIENTED_EDGE('',*,*,#471,.T.);
#471 = EDGE_CURVE('',#387,#472,#474,.T.);
#472 = VERTEX_POINT('',#473);
#473 = CARTESIAN_POINT('',(2.5,69.,52.5));
#474 = SURFACE_CURVE('',#475,(#480,#488),.PCURVE_S1.);
#475 = B_SPLINE_CURVE_WITH_KNOTS('',3,(#476,#477,#478,#479),
  .UNSPECIFIED.,.F.,.F.,(4,4),(0.,1.),.PIECEWISE_BEZIER_KNOTS.);
#476 = CARTESIAN_POINT('',(2.5,54.,52.5));
#477 = CARTESIAN_POINT('',(2.5,55.,52.5));
#478 = CARTESIAN_POINT('',(2.5,68.9,52.5));
#479 = CARTESIAN_POINT('',(2.5,69.,52.5));
#480 = PCURVE('',#102,#481);
#481 = DEFINITIONAL_REPRESENTATION('',(#482),#487);
#482 = B_SPLINE_CURVE_WITH_KNOTS('',3,(#483,#484,#485,#486),
  .UNSPECIFIED.,.F.,.F.,(4,4),(0.,1.),.PIECEWISE_BEZIER_KNOTS.);
#483 = CARTESIAN_POINT('',(110.5,69.));
#484 = CARTESIAN_POINT('',(110.5,70.));
#485 = CARTESIAN_POINT('',(110.5,83.9));
#486 = CARTESIAN_POINT('',(110.5,84.));
#487 = ( GEOMETRIC_REPRESENTATION_CONTEXT(2) 
PARAMETRIC_REPRESENTATION_CONTEXT() REPRESENTATION_CONTEXT('2D SPACE',''
  ) );
#488 = PCURVE('',#489,#494);
#489 = PLANE('',#490);
#490 = AXIS2_PLACEMENT_3D('',#491,#492,#493);
#491 = CARTESIAN_POINT('',(0.,61.7025,52.5));
#492 = DIRECTION('',(2.348901605819E-17,-8.494466373635E-18,-1.));
#493 = DIRECTION('',(-1.,4.42332081499E-18,-2.348901605819E-17));
#494 = DEFINITIONAL_REPRESENTATION('',(#495),#500);
#495 = B_SPLINE_CURVE_WITH_KNOTS('',3,(#496,#497,#498,#499),
  .UNSPECIFIED.,.F.,.F.,(4,4),(0.,1.),.PIECEWISE_BEZIER_KNOTS.);
#496 = CARTESIAN_POINT('',(-2.5,-7.7025));
#497 = CARTESIAN_POINT('',(-2.5,-6.7025));
#498 = CARTESIAN_POINT('',(-2.5,7.1975));
#499 = CARTESIAN_POINT('',(-2.5,7.2975));
#500 = ( GEOMETRIC_REPRESENTATION_CONTEXT(2) 
PARAMETRIC_REPRESENTATION_CONTEXT() REPRESENTATION_CONTEXT('2D SPACE',''
  ) );
#501 = ORIENTED_EDGE('',*,*,#502,.F.);
#502 = EDGE_CURVE('',#503,#472,#505,.T.);
#503 = VERTEX_POINT('',#504);
#504 = CARTESIAN_POINT('',(2.5,69.,51.5));
#505 = SURFACE_CURVE('',#506,(#509,#515),.PCURVE_S1.);
#506 = B_SPLINE_CURVE_WITH_KNOTS('',1,(#507,#508),.UNSPECIFIED.,.F.,.F.,
  (2,2),(0.,1.),.PIECEWISE_BEZIER_KNOTS.);
#507 = CARTESIAN_POINT('',(2.5,69.,51.5));
#508 = CARTESIAN_POINT('',(2.5,69.,52.5));
#509 = PCURVE('',#102,#510);
#510 = DEFINITIONAL_REPRESENTATION('',(#511),#514);
#511 = B_SPLINE_CURVE_WITH_KNOTS('',1,(#512,#513),.UNSPECIFIED.,.F.,.F.,
  (2,2),(0.,1.),.PIECEWISE_BEZIER_KNOTS.);
#512 = CARTESIAN_POINT('',(109.5,84.));
#513 = CARTESIAN_POINT('',(110.5,84.));
#514 = ( GEOMETRIC_REPRESENTATION_CONTEXT(2) 
PARAMETRIC_REPRESENTATION_CONTEXT() REPRESENTATION_CONTEXT('2D SPACE',''
  ) );
#515 = PCURVE('',#516,#521);
#516 = PLANE('',#517);
#517 = AXIS2_PLACEMENT_3D('',#518,#519,#520);
#518 = CARTESIAN_POINT('',(0.,69.,52.));
#519 = DIRECTION('',(-0.,-1.,-0.));
#520 = DIRECTION('',(0.,0.,-1.));
#521 = DEFINITIONAL_REPRESENTATION('',(#522),#525);
#522 = B_SPLINE_CURVE_WITH_KNOTS('',1,(#523,#524),.UNSPECIFIED.,.F.,.F.,
  (2,2),(0.,1.),.PIECEWISE_BEZIER_KNOTS.);
#523 = CARTESIAN_POINT('',(0.5,2.5));
#524 = CARTESIAN_POINT('',(-0.5,2.5));
#525 = ( GEOMETRIC_REPRESENTATION_CONTEXT(2) 
PARAMETRIC_REPRESENTATION_CONTEXT() REPRESENTATION_CONTEXT('2D SPACE',''
  ) );
#526 = ORIENTED_EDGE('',*,*,#527,.F.);
#527 = EDGE_CURVE('',#528,#503,#530,.T.);
#528 = VERTEX_POINT('',#529);
#529 = CARTESIAN_POINT('',(2.5,54.,51.5));
#530 = SURFACE_CURVE('',#531,(#536,#544),.PCURVE_S1.);
#531 = B_SPLINE_CURVE_WITH_KNOTS('',3,(#532,#533,#534,#535),
  .UNSPECIFIED.,.F.,.F.,(4,4),(0.,1.),.PIECEWISE_BEZIER_KNOTS.);
#532 = CARTESIAN_POINT('',(2.5,54.,51.5));
#533 = CARTESIAN_POINT('',(2.5,55.,51.5));
#534 = CARTESIAN_POINT('',(2.5,68.9,51.5));
#535 = CARTESIAN_POINT('',(2.5,69.,51.5));
#536 = PCURVE('',#102,#537);
#537 = DEFINITIONAL_REPRESENTATION('',(#538),#543);
#538 = B_SPLINE_CURVE_WITH_KNOTS('',3,(#539,#540,#541,#542),
  .UNSPECIFIED.,.F.,.F.,(4,4),(0.,1.),.PIECEWISE_BEZIER_KNOTS.);
#539 = CARTESIAN_POINT('',(109.5,69.));
#540 = CARTESIAN_POINT('',(109.5,70.));
#541 = CARTESIAN_POINT('',(109.5,83.9));
#542 = CARTESIAN_POINT('',(109.5,84.));
#543 = ( GEOMETRIC_REPRESENTATION_CONTEXT(2) 
PARAMETRIC_REPRESENTATION_CONTEXT() REPRESENTATION_CONTEXT('2D SPACE',''
  ) );
#544 = PCURVE('',#545,#550);
#545 = PLANE('',#546);
#546 = AXIS2_PLACEMENT_3D('',#547,#548,#549);
#547 = CARTESIAN_POINT('',(0.,61.7025,51.5));
#548 = DIRECTION('',(-1.174450802909E-16,-4.500284358842E-16,1.));
#549 = DIRECTION('',(1.,4.42332081499E-18,1.174450802909E-16));
#550 = DEFINITIONAL_REPRESENTATION('',(#551),#556);
#551 = B_SPLINE_CURVE_WITH_KNOTS('',3,(#552,#553,#554,#555),
  .UNSPECIFIED.,.F.,.F.,(4,4),(0.,1.),.PIECEWISE_BEZIER_KNOTS.);
#552 = CARTESIAN_POINT('',(2.5,-7.7025));
#553 = CARTESIAN_POINT('',(2.5,-6.7025));
#554 = CARTESIAN_POINT('',(2.5,7.1975));
#555 = CARTESIAN_POINT('',(2.5,7.2975));
#556 = ( GEOMETRIC_REPRESENTATION_CONTEXT(2) 
PARAMETRIC_REPRESENTATION_CONTEXT() REPRESENTATION_CONTEXT('2D SPACE',''
  ) );
#557 = ORIENTED_EDGE('',*,*,#558,.F.);
#558 = EDGE_CURVE('',#559,#528,#561,.T.);
#559 = VERTEX_POINT('',#560);
#560 = CARTESIAN_POINT('',(2.5,43.614753285675,-16.53817301293));
#561 = SURFACE_CURVE('',#562,(#580,#601),.PCURVE_S1.);
#562 = B_SPLINE_CURVE_WITH_KNOTS('',9,(#563,#564,#565,#566,#567,#568,
    #569,#570,#571,#572,#573,#574,#575,#576,#577,#578,#579),
  .UNSPECIFIED.,.F.,.F.,(10,7,10),(0.,0.5,1.),.UNSPECIFIED.);
#563 = CARTESIAN_POINT('',(2.5,43.614753285675,-16.53817301293));
#564 = CARTESIAN_POINT('',(2.5,37.865943412094,-6.813272732969));
#565 = CARTESIAN_POINT('',(2.5,33.351025092213,1.905026027263));
#566 = CARTESIAN_POINT('',(2.5,29.976314880487,9.672289215602));
#567 = CARTESIAN_POINT('',(2.5,27.647212412084,16.540261660258));
#568 = CARTESIAN_POINT('',(2.5,26.269557202966,22.56809560672));
#569 = CARTESIAN_POINT('',(2.5,25.749208923019,27.805095340836));
#570 = CARTESIAN_POINT('',(2.5,25.985137993167,32.297238362189));
#571 = CARTESIAN_POINT('',(2.5,27.748987956948,39.927651447127));
#572 = CARTESIAN_POINT('',(2.5,31.734569446788,45.13657447732));
#573 = CARTESIAN_POINT('',(2.5,34.190772778371,47.205876880467));
#574 = CARTESIAN_POINT('',(2.5,37.036380142671,48.818935045158));
#575 = CARTESIAN_POINT('',(2.5,40.203412688018,49.998825395926));
#576 = CARTESIAN_POINT('',(2.5,43.572318770544,50.804231639107));
#577 = CARTESIAN_POINT('',(2.5,47.060432001703,51.286481356216));
#578 = CARTESIAN_POINT('',(2.5,50.567877429539,51.5));
#579 = CARTESIAN_POINT('',(2.5,54.,51.5));
#580 = PCURVE('',#102,#581);
#581 = DEFINITIONAL_REPRESENTATION('',(#582),#600);
#582 = B_SPLINE_CURVE_WITH_KNOTS('',9,(#583,#584,#585,#586,#587,#588,
    #589,#590,#591,#592,#593,#594,#595,#596,#597,#598,#599),
  .UNSPECIFIED.,.F.,.F.,(10,7,10),(0.,0.5,1.),.UNSPECIFIED.);
#583 = CARTESIAN_POINT('',(41.461826987068,58.614753285675));
#584 = CARTESIAN_POINT('',(51.186727267031,52.865943412094));
#585 = CARTESIAN_POINT('',(59.905026027263,48.351025092213));
#586 = CARTESIAN_POINT('',(67.672289215602,44.976314880487));
#587 = CARTESIAN_POINT('',(74.540261660258,42.647212412084));
#588 = CARTESIAN_POINT('',(80.56809560672,41.269557202966));
#589 = CARTESIAN_POINT('',(85.805095340836,40.749208923019));
#590 = CARTESIAN_POINT('',(90.297238362189,40.985137993167));
#591 = CARTESIAN_POINT('',(97.927651447127,42.748987956948));
#592 = CARTESIAN_POINT('',(103.13657447732,46.734569446788));
#593 = CARTESIAN_POINT('',(105.20587688046,49.190772778371));
#594 = CARTESIAN_POINT('',(106.81893504515,52.036380142671));
#595 = CARTESIAN_POINT('',(107.99882539592,55.203412688017));
#596 = CARTESIAN_POINT('',(108.8042316391,58.572318770544));
#597 = CARTESIAN_POINT('',(109.28648135621,62.060432001703));
#598 = CARTESIAN_POINT('',(109.5,65.567877429539));
#599 = CARTESIAN_POINT('',(109.5,69.));
#600 = ( GEOMETRIC_REPRESENTATION_CONTEXT(2) 
PARAMETRIC_REPRESENTATION_CONTEXT() REPRESENTATION_CONTEXT('2D SPACE',''
  ) );
#601 = PCURVE('',#602,#637);
#602 = B_SPLINE_SURFACE_WITH_KNOTS('',1,9,(
    (#603,#604,#605,#606,#607,#608,#609,#610,#611,#612,#613,#614,#615
      ,#616,#617,#618,#619)
    ,(#620,#621,#622,#623,#624,#625,#626,#627,#628,#629,#630,#631,#632
      ,#633,#634,#635,#636
    )),.UNSPECIFIED.,.F.,.F.,.F.,(2,2),(10,7,10),(0.,5.),(0.,0.5,1.),
  .UNSPECIFIED.);
#603 = CARTESIAN_POINT('',(-2.5,43.614753285675,-16.53817301293));
#604 = CARTESIAN_POINT('',(-2.5,37.865943412094,-6.813272732969));
#605 = CARTESIAN_POINT('',(-2.5,33.351025092213,1.905026027263));
#606 = CARTESIAN_POINT('',(-2.5,29.976314880488,9.672289215602));
#607 = CARTESIAN_POINT('',(-2.5,27.647212412082,16.540261660259));
#608 = CARTESIAN_POINT('',(-2.5,26.269557202968,22.56809560672));
#609 = CARTESIAN_POINT('',(-2.5,25.749208923018,27.805095340836));
#610 = CARTESIAN_POINT('',(-2.5,25.985137993167,32.297238362189));
#611 = CARTESIAN_POINT('',(-2.5,27.748987956948,39.927651447128));
#612 = CARTESIAN_POINT('',(-2.5,31.734569446788,45.13657447732));
#613 = CARTESIAN_POINT('',(-2.5,34.19077277837,47.205876880468));
#614 = CARTESIAN_POINT('',(-2.5,37.036380142672,48.818935045157));
#615 = CARTESIAN_POINT('',(-2.5,40.203412688016,49.998825395928));
#616 = CARTESIAN_POINT('',(-2.5,43.572318770545,50.804231639106));
#617 = CARTESIAN_POINT('',(-2.5,47.060432001702,51.286481356217));
#618 = CARTESIAN_POINT('',(-2.5,50.567877429539,51.5));
#619 = CARTESIAN_POINT('',(-2.5,54.,51.5));
#620 = CARTESIAN_POINT('',(2.5,43.614753285675,-16.53817301293));
#621 = CARTESIAN_POINT('',(2.5,37.865943412094,-6.813272732969));
#622 = CARTESIAN_POINT('',(2.5,33.351025092213,1.905026027263));
#623 = CARTESIAN_POINT('',(2.5,29.976314880487,9.672289215602));
#624 = CARTESIAN_POINT('',(2.5,27.647212412084,16.540261660258));
#625 = CARTESIAN_POINT('',(2.5,26.269557202966,22.56809560672));
#626 = CARTESIAN_POINT('',(2.5,25.749208923019,27.805095340836));
#627 = CARTESIAN_POINT('',(2.5,25.985137993167,32.297238362189));
#628 = CARTESIAN_POINT('',(2.5,27.748987956948,39.927651447127));
#629 = CARTESIAN_POINT('',(2.5,31.734569446788,45.13657447732));
#630 = CARTESIAN_POINT('',(2.5,34.190772778371,47.205876880467));
#631 = CARTESIAN_POINT('',(2.5,37.036380142671,48.818935045158));
#632 = CARTESIAN_POINT('',(2.5,40.203412688018,49.998825395926));
#633 = CARTESIAN_POINT('',(2.5,43.572318770544,50.804231639107));
#634 = CARTESIAN_POINT('',(2.5,47.060432001703,51.286481356216));
#635 = CARTESIAN_POINT('',(2.5,50.567877429539,51.5));
#636 = CARTESIAN_POINT('',(2.5,54.,51.5));
#637 = DEFINITIONAL_REPRESENTATION('',(#638),#642);
#638 = LINE('',#639,#640);
#639 = CARTESIAN_POINT('',(5.,0.));
#640 = VECTOR('',#641,1.);
#641 = DIRECTION('',(0.,1.));
#642 = ( GEOMETRIC_REPRESENTATION_CONTEXT(2) 
PARAMETRIC_REPRESENTATION_CONTEXT() REPRESENTATION_CONTEXT('2D SPACE',''
  ) );
#643 = ORIENTED_EDGE('',*,*,#644,.F.);
#644 = EDGE_CURVE('',#85,#559,#645,.T.);
#645 = SURFACE_CURVE('',#646,(#677,#711),.PCURVE_S1.);
#646 = B_SPLINE_CURVE_WITH_KNOTS('',11,(#647,#648,#649,#650,#651,#652,
    #653,#654,#655,#656,#657,#658,#659,#660,#661,#662,#663,#664,#665,
    #666,#667,#668,#669,#670,#671,#672,#673,#674,#675,#676),
  .UNSPECIFIED.,.F.,.F.,(12,9,9,12),(0.,0.209393204226,0.604696602113,1.
    ),.UNSPECIFIED.);
#647 = CARTESIAN_POINT('',(2.5,0.,-58.5));
#648 = CARTESIAN_POINT('',(2.5,2.909551219084,-58.49999999999));
#649 = CARTESIAN_POINT('',(2.5,5.760390138043,-58.53968169615));
#650 = CARTESIAN_POINT('',(2.499999999999,8.550551379859,-58.6139968622)
  );
#651 = CARTESIAN_POINT('',(2.500000000001,11.278068551487,
    -58.71789758823));
#652 = CARTESIAN_POINT('',(2.499999999999,13.940977205962,
    -58.84633578952));
#653 = CARTESIAN_POINT('',(2.500000000001,16.53731780461,-58.99426271696
    ));
#654 = CARTESIAN_POINT('',(2.5,19.065138679153,-59.15662846535));
#655 = CARTESIAN_POINT('',(2.5,21.52249899388,-59.32838148395));
#656 = CARTESIAN_POINT('',(2.5,23.90747170783,-59.50446808515));
#657 = CARTESIAN_POINT('',(2.5,30.580358838441,-60.01089300111));
#658 = CARTESIAN_POINT('',(2.500000000001,36.617857938884,-60.4690964616
    ));
#659 = CARTESIAN_POINT('',(2.499999999998,40.279348191462,
    -60.71212359879));
#660 = CARTESIAN_POINT('',(2.500000000003,43.651371305981,
    -60.87964743834));
#661 = CARTESIAN_POINT('',(2.499999999996,46.694783458751,-60.8790789136
    ));
#662 = CARTESIAN_POINT('',(2.500000000004,49.44943332814,-60.81629518607
    ));
#663 = CARTESIAN_POINT('',(2.499999999997,51.855501564491,
    -60.42218015139));
#664 = CARTESIAN_POINT('',(2.500000000001,53.904912403326,
    -59.93754654136));
#665 = CARTESIAN_POINT('',(2.5,55.685158694317,-59.09639732107));
#666 = CARTESIAN_POINT('',(2.5,58.434818946643,-56.70487422122));
#667 = CARTESIAN_POINT('',(2.5,59.448842894466,-52.93169791817));
#668 = CARTESIAN_POINT('',(2.500000000001,59.485079705049,
    -50.70733926875));
#669 = CARTESIAN_POINT('',(2.499999999999,59.096257716956,
    -48.19304103096));
#670 = CARTESIAN_POINT('',(2.500000000001,58.324117984399,
    -45.17570927702));
#671 = CARTESIAN_POINT('',(2.499999999999,57.037426025692,-41.7772953139
    ));
#672 = CARTESIAN_POINT('',(2.5,55.345971205906,-37.84308568103));
#673 = CARTESIAN_POINT('',(2.5,53.151938344142,-33.40012637783));
#674 = CARTESIAN_POINT('',(2.5,50.479477974936,-28.38875747146));
#675 = CARTESIAN_POINT('',(2.5,47.304510995766,-22.77990418459));
#676 = CARTESIAN_POINT('',(2.5,43.614753285675,-16.53817301293));
#677 = PCURVE('',#102,#678);
#678 = DEFINITIONAL_REPRESENTATION('',(#679),#710);
#679 = B_SPLINE_CURVE_WITH_KNOTS('',11,(#680,#681,#682,#683,#684,#685,
    #686,#687,#688,#689,#690,#691,#692,#693,#694,#695,#696,#697,#698,
    #699,#700,#701,#702,#703,#704,#705,#706,#707,#708,#709),
  .UNSPECIFIED.,.F.,.F.,(12,9,9,12),(0.,0.209393204226,0.604696602113,1.
    ),.UNSPECIFIED.);
#680 = CARTESIAN_POINT('',(-0.5,15.));
#681 = CARTESIAN_POINT('',(-0.499999999997,17.909551219084));
#682 = CARTESIAN_POINT('',(-0.539681696153,20.760390138043));
#683 = CARTESIAN_POINT('',(-0.6139968622,23.550551379859));
#684 = CARTESIAN_POINT('',(-0.717897588234,26.278068551487));
#685 = CARTESIAN_POINT('',(-0.846335789529,28.940977205962));
#686 = CARTESIAN_POINT('',(-0.994262716966,31.53731780461));
#687 = CARTESIAN_POINT('',(-1.156628465356,34.065138679153));
#688 = CARTESIAN_POINT('',(-1.328381483953,36.52249899388));
#689 = CARTESIAN_POINT('',(-1.504468085159,38.90747170783));
#690 = CARTESIAN_POINT('',(-2.010893001117,45.580358838441));
#691 = CARTESIAN_POINT('',(-2.469096461607,51.617857938884));
#692 = CARTESIAN_POINT('',(-2.712123598791,55.279348191462));
#693 = CARTESIAN_POINT('',(-2.879647438341,58.651371305981));
#694 = CARTESIAN_POINT('',(-2.879078913601,61.694783458751));
#695 = CARTESIAN_POINT('',(-2.816295186077,64.44943332814));
#696 = CARTESIAN_POINT('',(-2.422180151398,66.855501564491));
#697 = CARTESIAN_POINT('',(-1.937546541362,68.904912403326));
#698 = CARTESIAN_POINT('',(-1.096397321076,70.685158694317));
#699 = CARTESIAN_POINT('',(1.295125778778,73.434818946643));
#700 = CARTESIAN_POINT('',(5.068302081828,74.448842894466));
#701 = CARTESIAN_POINT('',(7.292660731247,74.485079705049));
#702 = CARTESIAN_POINT('',(9.806958969038,74.096257716956));
#703 = CARTESIAN_POINT('',(12.824290722979,73.324117984399));
#704 = CARTESIAN_POINT('',(16.222704686091,72.037426025692));
#705 = CARTESIAN_POINT('',(20.156914318969,70.345971205906));
#706 = CARTESIAN_POINT('',(24.599873622169,68.151938344142));
#707 = CARTESIAN_POINT('',(29.611242528538,65.479477974936));
#708 = CARTESIAN_POINT('',(35.220095815408,62.304510995766));
#709 = CARTESIAN_POINT('',(41.461826987068,58.614753285675));
#710 = ( GEOMETRIC_REPRESENTATION_CONTEXT(2) 
PARAMETRIC_REPRESENTATION_CONTEXT() REPRESENTATION_CONTEXT('2D SPACE',''
  ) );
#711 = PCURVE('',#127,#712);
#712 = DEFINITIONAL_REPRESENTATION('',(#713),#717);
#713 = LINE('',#714,#715);
#714 = CARTESIAN_POINT('',(5.,0.));
#715 = VECTOR('',#716,1.);
#716 = DIRECTION('',(0.,1.));
#717 = ( GEOMETRIC_REPRESENTATION_CONTEXT(2) 
PARAMETRIC_REPRESENTATION_CONTEXT() REPRESENTATION_CONTEXT('2D SPACE',''
  ) );
#718 = ADVANCED_FACE('',(#719),#236,.F.);
#719 = FACE_BOUND('',#720,.F.);
#720 = EDGE_LOOP('',(#721,#722,#742,#768));
#721 = ORIENTED_EDGE('',*,*,#218,.F.);
#722 = ORIENTED_EDGE('',*,*,#723,.T.);
#723 = EDGE_CURVE('',#199,#724,#726,.T.);
#724 = VERTEX_POINT('',#725);
#725 = CARTESIAN_POINT('',(-2.5,-30.,-57.5));
#726 = SURFACE_CURVE('',#727,(#730,#736),.PCURVE_S1.);
#727 = B_SPLINE_CURVE_WITH_KNOTS('',1,(#728,#729),.UNSPECIFIED.,.F.,.F.,
  (2,2),(0.,5.),.PIECEWISE_BEZIER_KNOTS.);
#728 = CARTESIAN_POINT('',(2.5,-30.,-57.5));
#729 = CARTESIAN_POINT('',(-2.5,-30.,-57.5));
#730 = PCURVE('',#236,#731);
#731 = DEFINITIONAL_REPRESENTATION('',(#732),#735);
#732 = B_SPLINE_CURVE_WITH_KNOTS('',1,(#733,#734),.UNSPECIFIED.,.F.,.F.,
  (2,2),(0.,5.),.PIECEWISE_BEZIER_KNOTS.);
#733 = CARTESIAN_POINT('',(-2.5,-15.));
#734 = CARTESIAN_POINT('',(2.5,-15.));
#735 = ( GEOMETRIC_REPRESENTATION_CONTEXT(2) 
PARAMETRIC_REPRESENTATION_CONTEXT() REPRESENTATION_CONTEXT('2D SPACE',''
  ) );
#736 = PCURVE('',#73,#737);
#737 = DEFINITIONAL_REPRESENTATION('',(#738),#741);
#738 = B_SPLINE_CURVE_WITH_KNOTS('',1,(#739,#740),.UNSPECIFIED.,.F.,.F.,
  (2,2),(0.,5.),.PIECEWISE_BEZIER_KNOTS.);
#739 = CARTESIAN_POINT('',(-0.5,2.5));
#740 = CARTESIAN_POINT('',(-0.5,-2.5));
#741 = ( GEOMETRIC_REPRESENTATION_CONTEXT(2) 
PARAMETRIC_REPRESENTATION_CONTEXT() REPRESENTATION_CONTEXT('2D SPACE',''
  ) );
#742 = ORIENTED_EDGE('',*,*,#743,.T.);
#743 = EDGE_CURVE('',#724,#744,#746,.T.);
#744 = VERTEX_POINT('',#745);
#745 = CARTESIAN_POINT('',(-2.5,3.552713678801E-15,-57.5));
#746 = SURFACE_CURVE('',#747,(#752,#760),.PCURVE_S1.);
#747 = B_SPLINE_CURVE_WITH_KNOTS('',3,(#748,#749,#750,#751),
  .UNSPECIFIED.,.F.,.F.,(4,4),(0.,1.),.PIECEWISE_BEZIER_KNOTS.);
#748 = CARTESIAN_POINT('',(-2.5,-30.,-57.5));
#749 = CARTESIAN_POINT('',(-2.5,-29.9,-57.5));
#750 = CARTESIAN_POINT('',(-2.5,-1.E-01,-57.5));
#751 = CARTESIAN_POINT('',(-2.5,8.881784197001E-15,-57.5));
#752 = PCURVE('',#236,#753);
#753 = DEFINITIONAL_REPRESENTATION('',(#754),#759);
#754 = B_SPLINE_CURVE_WITH_KNOTS('',3,(#755,#756,#757,#758),
  .UNSPECIFIED.,.F.,.F.,(4,4),(0.,1.),.PIECEWISE_BEZIER_KNOTS.);
#755 = CARTESIAN_POINT('',(2.5,-15.));
#756 = CARTESIAN_POINT('',(2.5,-14.9));
#757 = CARTESIAN_POINT('',(2.5,14.9));
#758 = CARTESIAN_POINT('',(2.5,15.));
#759 = ( GEOMETRIC_REPRESENTATION_CONTEXT(2) 
PARAMETRIC_REPRESENTATION_CONTEXT() REPRESENTATION_CONTEXT('2D SPACE',''
  ) );
#760 = PCURVE('',#46,#761);
#761 = DEFINITIONAL_REPRESENTATION('',(#762),#767);
#762 = B_SPLINE_CURVE_WITH_KNOTS('',3,(#763,#764,#765,#766),
  .UNSPECIFIED.,.F.,.F.,(4,4),(0.,1.),.PIECEWISE_BEZIER_KNOTS.);
#763 = CARTESIAN_POINT('',(-0.5,-15.));
#764 = CARTESIAN_POINT('',(-0.5,-14.9));
#765 = CARTESIAN_POINT('',(-0.5,14.9));
#766 = CARTESIAN_POINT('',(-0.5,15.));
#767 = ( GEOMETRIC_REPRESENTATION_CONTEXT(2) 
PARAMETRIC_REPRESENTATION_CONTEXT() REPRESENTATION_CONTEXT('2D SPACE',''
  ) );
#768 = ORIENTED_EDGE('',*,*,#769,.F.);
#769 = EDGE_CURVE('',#219,#744,#770,.T.);
#770 = SURFACE_CURVE('',#771,(#774,#780),.PCURVE_S1.);
#771 = B_SPLINE_CURVE_WITH_KNOTS('',1,(#772,#773),.UNSPECIFIED.,.F.,.F.,
  (2,2),(0.,5.),.PIECEWISE_BEZIER_KNOTS.);
#772 = CARTESIAN_POINT('',(2.5,8.881784197001E-15,-57.5));
#773 = CARTESIAN_POINT('',(-2.5,8.881784197001E-15,-57.5));
#774 = PCURVE('',#236,#775);
#775 = DEFINITIONAL_REPRESENTATION('',(#776),#779);
#776 = B_SPLINE_CURVE_WITH_KNOTS('',1,(#777,#778),.UNSPECIFIED.,.F.,.F.,
  (2,2),(0.,5.),.PIECEWISE_BEZIER_KNOTS.);
#777 = CARTESIAN_POINT('',(-2.5,15.));
#778 = CARTESIAN_POINT('',(2.5,15.));
#779 = ( GEOMETRIC_REPRESENTATION_CONTEXT(2) 
PARAMETRIC_REPRESENTATION_CONTEXT() REPRESENTATION_CONTEXT('2D SPACE',''
  ) );
#780 = PCURVE('',#319,#781);
#781 = DEFINITIONAL_REPRESENTATION('',(#782),#785);
#782 = B_SPLINE_CURVE_WITH_KNOTS('',1,(#783,#784),.UNSPECIFIED.,.F.,.F.,
  (2,2),(0.,5.),.PIECEWISE_BEZIER_KNOTS.);
#783 = CARTESIAN_POINT('',(0.,0.));
#784 = CARTESIAN_POINT('',(5.,0.));
#785 = ( GEOMETRIC_REPRESENTATION_CONTEXT(2) 
PARAMETRIC_REPRESENTATION_CONTEXT() REPRESENTATION_CONTEXT('2D SPACE',''
  ) );
#786 = ADVANCED_FACE('',(#787),#46,.F.);
#787 = FACE_BOUND('',#788,.F.);
#788 = EDGE_LOOP('',(#789,#790,#808,#809,#886,#937,#963,#983,#1009,#1060
    ));
#789 = ORIENTED_EDGE('',*,*,#743,.F.);
#790 = ORIENTED_EDGE('',*,*,#791,.T.);
#791 = EDGE_CURVE('',#724,#22,#792,.T.);
#792 = SURFACE_CURVE('',#793,(#796,#802),.PCURVE_S1.);
#793 = B_SPLINE_CURVE_WITH_KNOTS('',1,(#794,#795),.UNSPECIFIED.,.F.,.F.,
  (2,2),(0.,1.),.PIECEWISE_BEZIER_KNOTS.);
#794 = CARTESIAN_POINT('',(-2.5,-30.,-57.5));
#795 = CARTESIAN_POINT('',(-2.5,-30.,-58.5));
#796 = PCURVE('',#46,#797);
#797 = DEFINITIONAL_REPRESENTATION('',(#798),#801);
#798 = B_SPLINE_CURVE_WITH_KNOTS('',1,(#799,#800),.UNSPECIFIED.,.F.,.F.,
  (2,2),(0.,1.),.PIECEWISE_BEZIER_KNOTS.);
#799 = CARTESIAN_POINT('',(-0.5,-15.));
#800 = CARTESIAN_POINT('',(0.5,-15.));
#801 = ( GEOMETRIC_REPRESENTATION_CONTEXT(2) 
PARAMETRIC_REPRESENTATION_CONTEXT() REPRESENTATION_CONTEXT('2D SPACE',''
  ) );
#802 = PCURVE('',#73,#803);
#803 = DEFINITIONAL_REPRESENTATION('',(#804),#807);
#804 = B_SPLINE_CURVE_WITH_KNOTS('',1,(#805,#806),.UNSPECIFIED.,.F.,.F.,
  (2,2),(0.,1.),.PIECEWISE_BEZIER_KNOTS.);
#805 = CARTESIAN_POINT('',(-0.5,-2.5));
#806 = CARTESIAN_POINT('',(0.5,-2.5));
#807 = ( GEOMETRIC_REPRESENTATION_CONTEXT(2) 
PARAMETRIC_REPRESENTATION_CONTEXT() REPRESENTATION_CONTEXT('2D SPACE',''
  ) );
#808 = ORIENTED_EDGE('',*,*,#21,.T.);
#809 = ORIENTED_EDGE('',*,*,#810,.T.);
#810 = EDGE_CURVE('',#24,#811,#813,.T.);
#811 = VERTEX_POINT('',#812);
#812 = CARTESIAN_POINT('',(-2.5,43.614753285675,-16.53817301293));
#813 = SURFACE_CURVE('',#814,(#845,#879),.PCURVE_S1.);
#814 = B_SPLINE_CURVE_WITH_KNOTS('',11,(#815,#816,#817,#818,#819,#820,
    #821,#822,#823,#824,#825,#826,#827,#828,#829,#830,#831,#832,#833,
    #834,#835,#836,#837,#838,#839,#840,#841,#842,#843,#844),
  .UNSPECIFIED.,.F.,.F.,(12,9,9,12),(0.,0.209393204226,0.604696602113,1.
    ),.UNSPECIFIED.);
#815 = CARTESIAN_POINT('',(-2.5,0.,-58.5));
#816 = CARTESIAN_POINT('',(-2.5,2.909551219084,-58.49999999999));
#817 = CARTESIAN_POINT('',(-2.5,5.760390138043,-58.53968169615));
#818 = CARTESIAN_POINT('',(-2.499999999999,8.550551379859,-58.6139968622
    ));
#819 = CARTESIAN_POINT('',(-2.500000000001,11.278068551487,
    -58.71789758823));
#820 = CARTESIAN_POINT('',(-2.499999999999,13.940977205962,
    -58.84633578952));
#821 = CARTESIAN_POINT('',(-2.500000000001,16.53731780461,
    -58.99426271696));
#822 = CARTESIAN_POINT('',(-2.5,19.065138679153,-59.15662846535));
#823 = CARTESIAN_POINT('',(-2.5,21.52249899388,-59.32838148395));
#824 = CARTESIAN_POINT('',(-2.5,23.90747170783,-59.50446808515));
#825 = CARTESIAN_POINT('',(-2.5,30.580358838441,-60.01089300111));
#826 = CARTESIAN_POINT('',(-2.500000000001,36.617857938884,
    -60.4690964616));
#827 = CARTESIAN_POINT('',(-2.499999999998,40.27934819146,
    -60.71212359879));
#828 = CARTESIAN_POINT('',(-2.500000000003,43.651371305985,
    -60.87964743834));
#829 = CARTESIAN_POINT('',(-2.499999999996,46.694783458747,
    -60.8790789136));
#830 = CARTESIAN_POINT('',(-2.500000000004,49.449433328145,
    -60.81629518607));
#831 = CARTESIAN_POINT('',(-2.499999999997,51.855501564488,
    -60.42218015139));
#832 = CARTESIAN_POINT('',(-2.500000000001,53.904912403328,
    -59.93754654136));
#833 = CARTESIAN_POINT('',(-2.5,55.685158694316,-59.09639732107));
#834 = CARTESIAN_POINT('',(-2.5,58.434818946643,-56.70487422122));
#835 = CARTESIAN_POINT('',(-2.5,59.448842894465,-52.93169791817));
#836 = CARTESIAN_POINT('',(-2.500000000001,59.485079705051,
    -50.70733926876));
#837 = CARTESIAN_POINT('',(-2.499999999999,59.096257716952,
    -48.19304103094));
#838 = CARTESIAN_POINT('',(-2.500000000001,58.324117984404,
    -45.17570927704));
#839 = CARTESIAN_POINT('',(-2.499999999999,57.037426025688,
    -41.77729531389));
#840 = CARTESIAN_POINT('',(-2.5,55.345971205909,-37.84308568104));
#841 = CARTESIAN_POINT('',(-2.5,53.15193834414,-33.40012637782));
#842 = CARTESIAN_POINT('',(-2.5,50.479477974937,-28.38875747146));
#843 = CARTESIAN_POINT('',(-2.5,47.304510995766,-22.77990418459));
#844 = CARTESIAN_POINT('',(-2.5,43.614753285675,-16.53817301293));
#845 = PCURVE('',#46,#846);
#846 = DEFINITIONAL_REPRESENTATION('',(#847),#878);
#847 = B_SPLINE_CURVE_WITH_KNOTS('',11,(#848,#849,#850,#851,#852,#853,
    #854,#855,#856,#857,#858,#859,#860,#861,#862,#863,#864,#865,#866,
    #867,#868,#869,#870,#871,#872,#873,#874,#875,#876,#877),
  .UNSPECIFIED.,.F.,.F.,(12,9,9,12),(0.,0.209393204226,0.604696602113,1.
    ),.UNSPECIFIED.);
#848 = CARTESIAN_POINT('',(0.5,15.));
#849 = CARTESIAN_POINT('',(0.499999999997,17.909551219084));
#850 = CARTESIAN_POINT('',(0.539681696153,20.760390138043));
#851 = CARTESIAN_POINT('',(0.6139968622,23.550551379859));
#852 = CARTESIAN_POINT('',(0.717897588235,26.278068551487));
#853 = CARTESIAN_POINT('',(0.846335789529,28.940977205962));
#854 = CARTESIAN_POINT('',(0.994262716966,31.53731780461));
#855 = CARTESIAN_POINT('',(1.156628465356,34.065138679153));
#856 = CARTESIAN_POINT('',(1.328381483953,36.52249899388));
#857 = CARTESIAN_POINT('',(1.504468085159,38.90747170783));
#858 = CARTESIAN_POINT('',(2.010893001117,45.580358838441));
#859 = CARTESIAN_POINT('',(2.469096461607,51.617857938884));
#860 = CARTESIAN_POINT('',(2.712123598791,55.27934819146));
#861 = CARTESIAN_POINT('',(2.879647438341,58.651371305985));
#862 = CARTESIAN_POINT('',(2.8790789136,61.694783458747));
#863 = CARTESIAN_POINT('',(2.816295186078,64.449433328145));
#864 = CARTESIAN_POINT('',(2.422180151397,66.855501564488));
#865 = CARTESIAN_POINT('',(1.937546541363,68.904912403328));
#866 = CARTESIAN_POINT('',(1.096397321075,70.685158694316));
#867 = CARTESIAN_POINT('',(-1.295125778777,73.434818946643));
#868 = CARTESIAN_POINT('',(-5.068302081829,74.448842894465));
#869 = CARTESIAN_POINT('',(-7.29266073124,74.48507970505));
#870 = CARTESIAN_POINT('',(-9.806958969053,74.096257716952));
#871 = CARTESIAN_POINT('',(-12.82429072296,73.324117984404));
#872 = CARTESIAN_POINT('',(-16.2227046861,72.037426025688));
#873 = CARTESIAN_POINT('',(-20.15691431895,70.345971205909));
#874 = CARTESIAN_POINT('',(-24.59987362217,68.15193834414));
#875 = CARTESIAN_POINT('',(-29.61124252853,65.479477974937));
#876 = CARTESIAN_POINT('',(-35.2200958154,62.304510995766));
#877 = CARTESIAN_POINT('',(-41.46182698706,58.614753285675));
#878 = ( GEOMETRIC_REPRESENTATION_CONTEXT(2) 
PARAMETRIC_REPRESENTATION_CONTEXT() REPRESENTATION_CONTEXT('2D SPACE',''
  ) );
#879 = PCURVE('',#127,#880);
#880 = DEFINITIONAL_REPRESENTATION('',(#881),#885);
#881 = LINE('',#882,#883);
#882 = CARTESIAN_POINT('',(0.,0.));
#883 = VECTOR('',#884,1.);
#884 = DIRECTION('',(0.,1.));
#885 = ( GEOMETRIC_REPRESENTATION_CONTEXT(2) 
PARAMETRIC_REPRESENTATION_CONTEXT() REPRESENTATION_CONTEXT('2D SPACE',''
  ) );
#886 = ORIENTED_EDGE('',*,*,#887,.T.);
#887 = EDGE_CURVE('',#811,#888,#890,.T.);
#888 = VERTEX_POINT('',#889);
#889 = CARTESIAN_POINT('',(-2.5,54.,51.5));
#890 = SURFACE_CURVE('',#891,(#909,#930),.PCURVE_S1.);
#891 = B_SPLINE_CURVE_WITH_KNOTS('',9,(#892,#893,#894,#895,#896,#897,
    #898,#899,#900,#901,#902,#903,#904,#905,#906,#907,#908),
  .UNSPECIFIED.,.F.,.F.,(10,7,10),(0.,0.5,1.),.UNSPECIFIED.);
#892 = CARTESIAN_POINT('',(-2.5,43.614753285675,-16.53817301293));
#893 = CARTESIAN_POINT('',(-2.5,37.865943412094,-6.813272732969));
#894 = CARTESIAN_POINT('',(-2.5,33.351025092213,1.905026027263));
#895 = CARTESIAN_POINT('',(-2.5,29.976314880488,9.672289215602));
#896 = CARTESIAN_POINT('',(-2.5,27.647212412082,16.540261660259));
#897 = CARTESIAN_POINT('',(-2.5,26.269557202968,22.56809560672));
#898 = CARTESIAN_POINT('',(-2.5,25.749208923018,27.805095340836));
#899 = CARTESIAN_POINT('',(-2.5,25.985137993167,32.297238362189));
#900 = CARTESIAN_POINT('',(-2.5,27.748987956948,39.927651447128));
#901 = CARTESIAN_POINT('',(-2.5,31.734569446788,45.13657447732));
#902 = CARTESIAN_POINT('',(-2.5,34.19077277837,47.205876880468));
#903 = CARTESIAN_POINT('',(-2.5,37.036380142672,48.818935045157));
#904 = CARTESIAN_POINT('',(-2.5,40.203412688016,49.998825395928));
#905 = CARTESIAN_POINT('',(-2.5,43.572318770545,50.804231639106));
#906 = CARTESIAN_POINT('',(-2.5,47.060432001702,51.286481356217));
#907 = CARTESIAN_POINT('',(-2.5,50.567877429539,51.5));
#908 = CARTESIAN_POINT('',(-2.5,54.,51.5));
#909 = PCURVE('',#46,#910);
#910 = DEFINITIONAL_REPRESENTATION('',(#911),#929);
#911 = B_SPLINE_CURVE_WITH_KNOTS('',9,(#912,#913,#914,#915,#916,#917,
    #918,#919,#920,#921,#922,#923,#924,#925,#926,#927,#928),
  .UNSPECIFIED.,.F.,.F.,(10,7,10),(0.,0.5,1.),.UNSPECIFIED.);
#912 = CARTESIAN_POINT('',(-41.46182698706,58.614753285675));
#913 = CARTESIAN_POINT('',(-51.18672726703,52.865943412094));
#914 = CARTESIAN_POINT('',(-59.90502602726,48.351025092213));
#915 = CARTESIAN_POINT('',(-67.6722892156,44.976314880488));
#916 = CARTESIAN_POINT('',(-74.54026166025,42.647212412082));
#917 = CARTESIAN_POINT('',(-80.56809560672,41.269557202968));
#918 = CARTESIAN_POINT('',(-85.80509534083,40.749208923018));
#919 = CARTESIAN_POINT('',(-90.29723836218,40.985137993167));
#920 = CARTESIAN_POINT('',(-97.92765144712,42.748987956948));
#921 = CARTESIAN_POINT('',(-103.1365744773,46.734569446788));
#922 = CARTESIAN_POINT('',(-105.2058768804,49.19077277837));
#923 = CARTESIAN_POINT('',(-106.8189350451,52.036380142672));
#924 = CARTESIAN_POINT('',(-107.9988253959,55.203412688016));
#925 = CARTESIAN_POINT('',(-108.8042316391,58.572318770545));
#926 = CARTESIAN_POINT('',(-109.2864813562,62.060432001702));
#927 = CARTESIAN_POINT('',(-109.5,65.567877429539));
#928 = CARTESIAN_POINT('',(-109.5,69.));
#929 = ( GEOMETRIC_REPRESENTATION_CONTEXT(2) 
PARAMETRIC_REPRESENTATION_CONTEXT() REPRESENTATION_CONTEXT('2D SPACE',''
  ) );
#930 = PCURVE('',#602,#931);
#931 = DEFINITIONAL_REPRESENTATION('',(#932),#936);
#932 = LINE('',#933,#934);
#933 = CARTESIAN_POINT('',(0.,0.));
#934 = VECTOR('',#935,1.);
#935 = DIRECTION('',(0.,1.));
#936 = ( GEOMETRIC_REPRESENTATION_CONTEXT(2) 
PARAMETRIC_REPRESENTATION_CONTEXT() REPRESENTATION_CONTEXT('2D SPACE',''
  ) );
#937 = ORIENTED_EDGE('',*,*,#938,.T.);
#938 = EDGE_CURVE('',#888,#939,#941,.T.);
#939 = VERTEX_POINT('',#940);
#940 = CARTESIAN_POINT('',(-2.5,69.,51.5));
#941 = SURFACE_CURVE('',#942,(#947,#955),.PCURVE_S1.);
#942 = B_SPLINE_CURVE_WITH_KNOTS('',3,(#943,#944,#945,#946),
  .UNSPECIFIED.,.F.,.F.,(4,4),(0.,1.),.PIECEWISE_BEZIER_KNOTS.);
#943 = CARTESIAN_POINT('',(-2.5,54.,51.5));
#944 = CARTESIAN_POINT('',(-2.5,55.,51.5));
#945 = CARTESIAN_POINT('',(-2.5,68.9,51.5));
#946 = CARTESIAN_POINT('',(-2.5,69.,51.5));
#947 = PCURVE('',#46,#948);
#948 = DEFINITIONAL_REPRESENTATION('',(#949),#954);
#949 = B_SPLINE_CURVE_WITH_KNOTS('',3,(#950,#951,#952,#953),
  .UNSPECIFIED.,.F.,.F.,(4,4),(0.,1.),.PIECEWISE_BEZIER_KNOTS.);
#950 = CARTESIAN_POINT('',(-109.5,69.));
#951 = CARTESIAN_POINT('',(-109.5,70.));
#952 = CARTESIAN_POINT('',(-109.5,83.9));
#953 = CARTESIAN_POINT('',(-109.5,84.));
#954 = ( GEOMETRIC_REPRESENTATION_CONTEXT(2) 
PARAMETRIC_REPRESENTATION_CONTEXT() REPRESENTATION_CONTEXT('2D SPACE',''
  ) );
#955 = PCURVE('',#545,#956);
#956 = DEFINITIONAL_REPRESENTATION('',(#957),#962);
#957 = B_SPLINE_CURVE_WITH_KNOTS('',3,(#958,#959,#960,#961),
  .UNSPECIFIED.,.F.,.F.,(4,4),(0.,1.),.PIECEWISE_BEZIER_KNOTS.);
#958 = CARTESIAN_POINT('',(-2.5,-7.7025));
#959 = CARTESIAN_POINT('',(-2.5,-6.7025));
#960 = CARTESIAN_POINT('',(-2.5,7.1975));
#961 = CARTESIAN_POINT('',(-2.5,7.2975));
#962 = ( GEOMETRIC_REPRESENTATION_CONTEXT(2) 
PARAMETRIC_REPRESENTATION_CONTEXT() REPRESENTATION_CONTEXT('2D SPACE',''
  ) );
#963 = ORIENTED_EDGE('',*,*,#964,.F.);
#964 = EDGE_CURVE('',#965,#939,#967,.T.);
#965 = VERTEX_POINT('',#966);
#966 = CARTESIAN_POINT('',(-2.5,69.,52.5));
#967 = SURFACE_CURVE('',#968,(#971,#977),.PCURVE_S1.);
#968 = B_SPLINE_CURVE_WITH_KNOTS('',1,(#969,#970),.UNSPECIFIED.,.F.,.F.,
  (2,2),(0.,1.),.PIECEWISE_BEZIER_KNOTS.);
#969 = CARTESIAN_POINT('',(-2.5,69.,52.5));
#970 = CARTESIAN_POINT('',(-2.5,69.,51.5));
#971 = PCURVE('',#46,#972);
#972 = DEFINITIONAL_REPRESENTATION('',(#973),#976);
#973 = B_SPLINE_CURVE_WITH_KNOTS('',1,(#974,#975),.UNSPECIFIED.,.F.,.F.,
  (2,2),(0.,1.),.PIECEWISE_BEZIER_KNOTS.);
#974 = CARTESIAN_POINT('',(-110.5,84.));
#975 = CARTESIAN_POINT('',(-109.5,84.));
#976 = ( GEOMETRIC_REPRESENTATION_CONTEXT(2) 
PARAMETRIC_REPRESENTATION_CONTEXT() REPRESENTATION_CONTEXT('2D SPACE',''
  ) );
#977 = PCURVE('',#516,#978);
#978 = DEFINITIONAL_REPRESENTATION('',(#979),#982);
#979 = B_SPLINE_CURVE_WITH_KNOTS('',1,(#980,#981),.UNSPECIFIED.,.F.,.F.,
  (2,2),(0.,1.),.PIECEWISE_BEZIER_KNOTS.);
#980 = CARTESIAN_POINT('',(-0.5,-2.5));
#981 = CARTESIAN_POINT('',(0.5,-2.5));
#982 = ( GEOMETRIC_REPRESENTATION_CONTEXT(2) 
PARAMETRIC_REPRESENTATION_CONTEXT() REPRESENTATION_CONTEXT('2D SPACE',''
  ) );
#983 = ORIENTED_EDGE('',*,*,#984,.F.);
#984 = EDGE_CURVE('',#985,#965,#987,.T.);
#985 = VERTEX_POINT('',#986);
#986 = CARTESIAN_POINT('',(-2.5,54.,52.5));
#987 = SURFACE_CURVE('',#988,(#993,#1001),.PCURVE_S1.);
#988 = B_SPLINE_CURVE_WITH_KNOTS('',3,(#989,#990,#991,#992),
  .UNSPECIFIED.,.F.,.F.,(4,4),(0.,1.),.PIECEWISE_BEZIER_KNOTS.);
#989 = CARTESIAN_POINT('',(-2.5,54.,52.5));
#990 = CARTESIAN_POINT('',(-2.5,55.,52.5));
#991 = CARTESIAN_POINT('',(-2.5,68.9,52.5));
#992 = CARTESIAN_POINT('',(-2.5,69.,52.5));
#993 = PCURVE('',#46,#994);
#994 = DEFINITIONAL_REPRESENTATION('',(#995),#1000);
#995 = B_SPLINE_CURVE_WITH_KNOTS('',3,(#996,#997,#998,#999),
  .UNSPECIFIED.,.F.,.F.,(4,4),(0.,1.),.PIECEWISE_BEZIER_KNOTS.);
#996 = CARTESIAN_POINT('',(-110.5,69.));
#997 = CARTESIAN_POINT('',(-110.5,70.));
#998 = CARTESIAN_POINT('',(-110.5,83.9));
#999 = CARTESIAN_POINT('',(-110.5,84.));
#1000 = ( GEOMETRIC_REPRESENTATION_CONTEXT(2) 
PARAMETRIC_REPRESENTATION_CONTEXT() REPRESENTATION_CONTEXT('2D SPACE',''
  ) );
#1001 = PCURVE('',#489,#1002);
#1002 = DEFINITIONAL_REPRESENTATION('',(#1003),#1008);
#1003 = B_SPLINE_CURVE_WITH_KNOTS('',3,(#1004,#1005,#1006,#1007),
  .UNSPECIFIED.,.F.,.F.,(4,4),(0.,1.),.PIECEWISE_BEZIER_KNOTS.);
#1004 = CARTESIAN_POINT('',(2.5,-7.7025));
#1005 = CARTESIAN_POINT('',(2.5,-6.7025));
#1006 = CARTESIAN_POINT('',(2.5,7.1975));
#1007 = CARTESIAN_POINT('',(2.5,7.2975));
#1008 = ( GEOMETRIC_REPRESENTATION_CONTEXT(2) 
PARAMETRIC_REPRESENTATION_CONTEXT() REPRESENTATION_CONTEXT('2D SPACE',''
  ) );
#1009 = ORIENTED_EDGE('',*,*,#1010,.F.);
#1010 = EDGE_CURVE('',#1011,#985,#1013,.T.);
#1011 = VERTEX_POINT('',#1012);
#1012 = CARTESIAN_POINT('',(-2.5,42.75391508289,-17.04705176924));
#1013 = SURFACE_CURVE('',#1014,(#1032,#1053),.PCURVE_S1.);
#1014 = B_SPLINE_CURVE_WITH_KNOTS('',9,(#1015,#1016,#1017,#1018,#1019,
    #1020,#1021,#1022,#1023,#1024,#1025,#1026,#1027,#1028,#1029,#1030,
    #1031),.UNSPECIFIED.,.F.,.F.,(10,7,10),(0.,0.5,1.),.UNSPECIFIED.);
#1015 = CARTESIAN_POINT('',(-2.5,42.75391508289,-17.04705176924));
#1016 = CARTESIAN_POINT('',(-2.5,36.983085289123,-7.284901774524));
#1017 = CARTESIAN_POINT('',(-2.5,32.443983532068,1.478446020887));
#1018 = CARTESIAN_POINT('',(-2.5,29.042697460569,9.299920394411));
#1019 = CARTESIAN_POINT('',(-2.5,26.686231642791,16.24027124312));
#1020 = CARTESIAN_POINT('',(-2.5,25.281150766052,22.352841046775));
#1021 = CARTESIAN_POINT('',(-2.5,24.733999363808,27.700820244813));
#1022 = CARTESIAN_POINT('',(-2.5,24.958211218423,32.350726062905));
#1023 = CARTESIAN_POINT('',(-2.5,26.794732724721,40.343539921991));
#1024 = CARTESIAN_POINT('',(-2.5,31.019318759295,45.886081267149));
#1025 = CARTESIAN_POINT('',(-2.5,33.633052406816,48.08706513478));
#1026 = CARTESIAN_POINT('',(-2.5,36.634639441822,49.751342049229));
#1027 = CARTESIAN_POINT('',(-2.5,39.904462919302,50.968330311246));
#1028 = CARTESIAN_POINT('',(-2.5,43.374478686426,51.791840939743));
#1029 = CARTESIAN_POINT('',(-2.5,46.939757335059,52.283041078493));
#1030 = CARTESIAN_POINT('',(-2.5,50.512578020461,52.5));
#1031 = CARTESIAN_POINT('',(-2.5,54.,52.5));
#1032 = PCURVE('',#46,#1033);
#1033 = DEFINITIONAL_REPRESENTATION('',(#1034),#1052);
#1034 = B_SPLINE_CURVE_WITH_KNOTS('',9,(#1035,#1036,#1037,#1038,#1039,
    #1040,#1041,#1042,#1043,#1044,#1045,#1046,#1047,#1048,#1049,#1050,
    #1051),.UNSPECIFIED.,.F.,.F.,(10,7,10),(0.,0.5,1.),.UNSPECIFIED.);
#1035 = CARTESIAN_POINT('',(-40.95294823075,57.75391508289));
#1036 = CARTESIAN_POINT('',(-50.71509822547,51.983085289123));
#1037 = CARTESIAN_POINT('',(-59.47844602088,47.443983532068));
#1038 = CARTESIAN_POINT('',(-67.29992039441,44.042697460569));
#1039 = CARTESIAN_POINT('',(-74.24027124312,41.686231642791));
#1040 = CARTESIAN_POINT('',(-80.35284104677,40.281150766052));
#1041 = CARTESIAN_POINT('',(-85.70082024481,39.733999363808));
#1042 = CARTESIAN_POINT('',(-90.3507260629,39.958211218423));
#1043 = CARTESIAN_POINT('',(-98.34353992199,41.794732724721));
#1044 = CARTESIAN_POINT('',(-103.8860812671,46.019318759295));
#1045 = CARTESIAN_POINT('',(-106.0870651347,48.633052406816));
#1046 = CARTESIAN_POINT('',(-107.7513420492,51.634639441822));
#1047 = CARTESIAN_POINT('',(-108.9683303112,54.904462919302));
#1048 = CARTESIAN_POINT('',(-109.7918409397,58.374478686426));
#1049 = CARTESIAN_POINT('',(-110.2830410784,61.939757335059));
#1050 = CARTESIAN_POINT('',(-110.5,65.512578020461));
#1051 = CARTESIAN_POINT('',(-110.5,69.));
#1052 = ( GEOMETRIC_REPRESENTATION_CONTEXT(2) 
PARAMETRIC_REPRESENTATION_CONTEXT() REPRESENTATION_CONTEXT('2D SPACE',''
  ) );
#1053 = PCURVE('',#430,#1054);
#1054 = DEFINITIONAL_REPRESENTATION('',(#1055),#1059);
#1055 = LINE('',#1056,#1057);
#1056 = CARTESIAN_POINT('',(5.,0.));
#1057 = VECTOR('',#1058,1.);
#1058 = DIRECTION('',(0.,1.));
#1059 = ( GEOMETRIC_REPRESENTATION_CONTEXT(2) 
PARAMETRIC_REPRESENTATION_CONTEXT() REPRESENTATION_CONTEXT('2D SPACE',''
  ) );
#1060 = ORIENTED_EDGE('',*,*,#1061,.F.);
#1061 = EDGE_CURVE('',#744,#1011,#1062,.T.);
#1062 = SURFACE_CURVE('',#1063,(#1094,#1128),.PCURVE_S1.);
#1063 = B_SPLINE_CURVE_WITH_KNOTS('',11,(#1064,#1065,#1066,#1067,#1068,
    #1069,#1070,#1071,#1072,#1073,#1074,#1075,#1076,#1077,#1078,#1079,
    #1080,#1081,#1082,#1083,#1084,#1085,#1086,#1087,#1088,#1089,#1090,
    #1091,#1092,#1093),.UNSPECIFIED.,.F.,.F.,(12,9,9,12),(0.,
    0.209393204226,0.604696602113,1.),.UNSPECIFIED.);
#1064 = CARTESIAN_POINT('',(-2.5,0.,-57.5));
#1065 = CARTESIAN_POINT('',(-2.5,2.921949787283,-57.49999999999));
#1066 = CARTESIAN_POINT('',(-2.5,5.784268255093,-57.53985079309));
#1067 = CARTESIAN_POINT('',(-2.499999999999,8.584940957051,
    -57.61446368358));
#1068 = CARTESIAN_POINT('',(-2.500000000001,11.321954462848,
    -57.71874965988));
#1069 = CARTESIAN_POINT('',(-2.499999999999,13.993293396034,
    -57.84761988433));
#1070 = CARTESIAN_POINT('',(-2.500000000001,16.59693747193,
    -57.99598618489));
#1071 = CARTESIAN_POINT('',(-2.5,19.130858535428,-58.15876154431));
#1072 = CARTESIAN_POINT('',(-2.5,21.593017598832,-58.33086059194));
#1073 = CARTESIAN_POINT('',(-2.5,23.981361879767,-58.50720009332));
#1074 = CARTESIAN_POINT('',(-2.5,30.6594042021,-59.01401625185));
#1075 = CARTESIAN_POINT('',(-2.500000000001,36.687171063084,
    -59.47148110423));
#1076 = CARTESIAN_POINT('',(-2.499999999998,40.336800527071,
    -59.71714440902));
#1077 = CARTESIAN_POINT('',(-2.500000000003,43.672911176472,
    -59.86020502261));
#1078 = CARTESIAN_POINT('',(-2.499999999996,46.707869478154,
    -59.9250479878));
#1079 = CARTESIAN_POINT('',(-2.500000000004,49.375049398817,
    -59.73759212157));
#1080 = CARTESIAN_POINT('',(-2.499999999997,51.707492930882,
    -59.49874950393));
#1081 = CARTESIAN_POINT('',(-2.500000000001,53.686498483768,
    -58.89950338141));
#1082 = CARTESIAN_POINT('',(-2.5,55.197795851151,-58.13764676525));
#1083 = CARTESIAN_POINT('',(-2.5,57.503922737334,-56.14849793935));
#1084 = CARTESIAN_POINT('',(-2.5,58.383976147082,-52.91886571899));
#1085 = CARTESIAN_POINT('',(-2.500000000001,58.477573214041,
    -50.91808193444));
#1086 = CARTESIAN_POINT('',(-2.499999999999,58.152246922313,
    -48.41529554301));
#1087 = CARTESIAN_POINT('',(-2.500000000001,57.33947886178,
    -45.55539644979));
#1088 = CARTESIAN_POINT('',(-2.499999999999,56.143726157899,
    -42.14822932461));
#1089 = CARTESIAN_POINT('',(-2.5,54.428422089761,-38.28030360554));
#1090 = CARTESIAN_POINT('',(-2.5,52.264604482048,-33.85636926991));
#1091 = CARTESIAN_POINT('',(-2.5,49.601345444299,-28.86788222792));
#1092 = CARTESIAN_POINT('',(-2.5,46.435946722933,-23.27571323387));
#1093 = CARTESIAN_POINT('',(-2.5,42.75391508289,-17.04705176924));
#1094 = PCURVE('',#46,#1095);
#1095 = DEFINITIONAL_REPRESENTATION('',(#1096),#1127);
#1096 = B_SPLINE_CURVE_WITH_KNOTS('',11,(#1097,#1098,#1099,#1100,#1101,
    #1102,#1103,#1104,#1105,#1106,#1107,#1108,#1109,#1110,#1111,#1112,
    #1113,#1114,#1115,#1116,#1117,#1118,#1119,#1120,#1121,#1122,#1123,
    #1124,#1125,#1126),.UNSPECIFIED.,.F.,.F.,(12,9,9,12),(0.,
    0.209393204226,0.604696602113,1.),.UNSPECIFIED.);
#1097 = CARTESIAN_POINT('',(-0.5,15.));
#1098 = CARTESIAN_POINT('',(-0.500000000004,17.921949787283));
#1099 = CARTESIAN_POINT('',(-0.460149206902,20.784268255093));
#1100 = CARTESIAN_POINT('',(-0.385536316416,23.584940957051));
#1101 = CARTESIAN_POINT('',(-0.281250340116,26.321954462848));
#1102 = CARTESIAN_POINT('',(-0.152380115667,28.993293396034));
#1103 = CARTESIAN_POINT('',(-4.013815100677E-03,31.59693747193));
#1104 = CARTESIAN_POINT('',(0.158761544317,34.130858535428));
#1105 = CARTESIAN_POINT('',(0.33086059194,36.593017598832));
#1106 = CARTESIAN_POINT('',(0.507200093325,38.981361879767));
#1107 = CARTESIAN_POINT('',(1.014016251857,45.6594042021));
#1108 = CARTESIAN_POINT('',(1.471481104238,51.687171063084));
#1109 = CARTESIAN_POINT('',(1.717144409024,55.336800527071));
#1110 = CARTESIAN_POINT('',(1.860205022617,58.672911176472));
#1111 = CARTESIAN_POINT('',(1.9250479878,61.707869478154));
#1112 = CARTESIAN_POINT('',(1.737592121577,64.375049398817));
#1113 = CARTESIAN_POINT('',(1.498749503933,66.707492930882));
#1114 = CARTESIAN_POINT('',(0.899503381411,68.686498483768));
#1115 = CARTESIAN_POINT('',(0.137646765255,70.197795851151));
#1116 = CARTESIAN_POINT('',(-1.851502060645,72.503922737334));
#1117 = CARTESIAN_POINT('',(-5.081134281008,73.383976147082));
#1118 = CARTESIAN_POINT('',(-7.081918065554,73.477573214041));
#1119 = CARTESIAN_POINT('',(-9.584704456984,73.152246922313));
#1120 = CARTESIAN_POINT('',(-12.4446035502,72.33947886178));
#1121 = CARTESIAN_POINT('',(-15.85177067538,71.143726157899));
#1122 = CARTESIAN_POINT('',(-19.71969639445,69.428422089761));
#1123 = CARTESIAN_POINT('',(-24.14363073009,67.264604482048));
#1124 = CARTESIAN_POINT('',(-29.13211777208,64.601345444299));
#1125 = CARTESIAN_POINT('',(-34.72428676612,61.435946722933));
#1126 = CARTESIAN_POINT('',(-40.95294823075,57.75391508289));
#1127 = ( GEOMETRIC_REPRESENTATION_CONTEXT(2) 
PARAMETRIC_REPRESENTATION_CONTEXT() REPRESENTATION_CONTEXT('2D SPACE',''
  ) );
#1128 = PCURVE('',#319,#1129);
#1129 = DEFINITIONAL_REPRESENTATION('',(#1130),#1134);
#1130 = LINE('',#1131,#1132);
#1131 = CARTESIAN_POINT('',(5.,0.));
#1132 = VECTOR('',#1133,1.);
#1133 = DIRECTION('',(0.,1.));
#1134 = ( GEOMETRIC_REPRESENTATION_CONTEXT(2) 
PARAMETRIC_REPRESENTATION_CONTEXT() REPRESENTATION_CONTEXT('2D SPACE',''
  ) );
#1135 = ADVANCED_FACE('',(#1136),#127,.F.);
#1136 = FACE_BOUND('',#1137,.F.);
#1137 = EDGE_LOOP('',(#1138,#1139,#1140,#1141));
#1138 = ORIENTED_EDGE('',*,*,#810,.F.);
#1139 = ORIENTED_EDGE('',*,*,#115,.T.);
#1140 = ORIENTED_EDGE('',*,*,#644,.T.);
#1141 = ORIENTED_EDGE('',*,*,#1142,.F.);
#1142 = EDGE_CURVE('',#811,#559,#1143,.T.);
#1143 = SURFACE_CURVE('',#1144,(#1147,#1154),.PCURVE_S1.);
#1144 = B_SPLINE_CURVE_WITH_KNOTS('',1,(#1145,#1146),.UNSPECIFIED.,.F.,
  .F.,(2,2),(0.,5.),.PIECEWISE_BEZIER_KNOTS.);
#1145 = CARTESIAN_POINT('',(-2.5,43.614753285675,-16.53817301293));
#1146 = CARTESIAN_POINT('',(2.5,43.614753285675,-16.53817301293));
#1147 = PCURVE('',#127,#1148);
#1148 = DEFINITIONAL_REPRESENTATION('',(#1149),#1153);
#1149 = LINE('',#1150,#1151);
#1150 = CARTESIAN_POINT('',(0.,1.));
#1151 = VECTOR('',#1152,1.);
#1152 = DIRECTION('',(1.,0.));
#1153 = ( GEOMETRIC_REPRESENTATION_CONTEXT(2) 
PARAMETRIC_REPRESENTATION_CONTEXT() REPRESENTATION_CONTEXT('2D SPACE',''
  ) );
#1154 = PCURVE('',#602,#1155);
#1155 = DEFINITIONAL_REPRESENTATION('',(#1156),#1159);
#1156 = B_SPLINE_CURVE_WITH_KNOTS('',1,(#1157,#1158),.UNSPECIFIED.,.F.,
  .F.,(2,2),(0.,5.),.PIECEWISE_BEZIER_KNOTS.);
#1157 = CARTESIAN_POINT('',(0.,0.));
#1158 = CARTESIAN_POINT('',(5.,0.));
#1159 = ( GEOMETRIC_REPRESENTATION_CONTEXT(2) 
PARAMETRIC_REPRESENTATION_CONTEXT() REPRESENTATION_CONTEXT('2D SPACE',''
  ) );
#1160 = ADVANCED_FACE('',(#1161),#319,.F.);
#1161 = FACE_BOUND('',#1162,.F.);
#1162 = EDGE_LOOP('',(#1163,#1164,#1165,#1166));
#1163 = ORIENTED_EDGE('',*,*,#249,.F.);
#1164 = ORIENTED_EDGE('',*,*,#769,.T.);
#1165 = ORIENTED_EDGE('',*,*,#1061,.T.);
#1166 = ORIENTED_EDGE('',*,*,#1167,.F.);
#1167 = EDGE_CURVE('',#250,#1011,#1168,.T.);
#1168 = SURFACE_CURVE('',#1169,(#1172,#1179),.PCURVE_S1.);
#1169 = B_SPLINE_CURVE_WITH_KNOTS('',1,(#1170,#1171),.UNSPECIFIED.,.F.,
  .F.,(2,2),(0.,5.),.PIECEWISE_BEZIER_KNOTS.);
#1170 = CARTESIAN_POINT('',(2.5,42.75391508289,-17.04705176924));
#1171 = CARTESIAN_POINT('',(-2.5,42.75391508289,-17.04705176924));
#1172 = PCURVE('',#319,#1173);
#1173 = DEFINITIONAL_REPRESENTATION('',(#1174),#1178);
#1174 = LINE('',#1175,#1176);
#1175 = CARTESIAN_POINT('',(0.,1.));
#1176 = VECTOR('',#1177,1.);
#1177 = DIRECTION('',(1.,0.));
#1178 = ( GEOMETRIC_REPRESENTATION_CONTEXT(2) 
PARAMETRIC_REPRESENTATION_CONTEXT() REPRESENTATION_CONTEXT('2D SPACE',''
  ) );
#1179 = PCURVE('',#430,#1180);
#1180 = DEFINITIONAL_REPRESENTATION('',(#1181),#1184);
#1181 = B_SPLINE_CURVE_WITH_KNOTS('',1,(#1182,#1183),.UNSPECIFIED.,.F.,
  .F.,(2,2),(0.,5.),.PIECEWISE_BEZIER_KNOTS.);
#1182 = CARTESIAN_POINT('',(0.,0.));
#1183 = CARTESIAN_POINT('',(5.,0.));
#1184 = ( GEOMETRIC_REPRESENTATION_CONTEXT(2) 
PARAMETRIC_REPRESENTATION_CONTEXT() REPRESENTATION_CONTEXT('2D SPACE',''
  ) );
#1185 = ADVANCED_FACE('',(#1186),#602,.F.);
#1186 = FACE_BOUND('',#1187,.F.);
#1187 = EDGE_LOOP('',(#1188,#1189,#1190,#1191));
#1188 = ORIENTED_EDGE('',*,*,#887,.F.);
#1189 = ORIENTED_EDGE('',*,*,#1142,.T.);
#1190 = ORIENTED_EDGE('',*,*,#558,.T.);
#1191 = ORIENTED_EDGE('',*,*,#1192,.F.);
#1192 = EDGE_CURVE('',#888,#528,#1193,.T.);
#1193 = SURFACE_CURVE('',#1194,(#1197,#1204),.PCURVE_S1.);
#1194 = B_SPLINE_CURVE_WITH_KNOTS('',1,(#1195,#1196),.UNSPECIFIED.,.F.,
  .F.,(2,2),(0.,5.),.PIECEWISE_BEZIER_KNOTS.);
#1195 = CARTESIAN_POINT('',(-2.5,54.,51.5));
#1196 = CARTESIAN_POINT('',(2.5,54.,51.5));
#1197 = PCURVE('',#602,#1198);
#1198 = DEFINITIONAL_REPRESENTATION('',(#1199),#1203);
#1199 = LINE('',#1200,#1201);
#1200 = CARTESIAN_POINT('',(0.,1.));
#1201 = VECTOR('',#1202,1.);
#1202 = DIRECTION('',(1.,0.));
#1203 = ( GEOMETRIC_REPRESENTATION_CONTEXT(2) 
PARAMETRIC_REPRESENTATION_CONTEXT() REPRESENTATION_CONTEXT('2D SPACE',''
  ) );
#1204 = PCURVE('',#545,#1205);
#1205 = DEFINITIONAL_REPRESENTATION('',(#1206),#1209);
#1206 = B_SPLINE_CURVE_WITH_KNOTS('',1,(#1207,#1208),.UNSPECIFIED.,.F.,
  .F.,(2,2),(0.,5.),.PIECEWISE_BEZIER_KNOTS.);
#1207 = CARTESIAN_POINT('',(-2.5,-7.7025));
#1208 = CARTESIAN_POINT('',(2.5,-7.7025));
#1209 = ( GEOMETRIC_REPRESENTATION_CONTEXT(2) 
PARAMETRIC_REPRESENTATION_CONTEXT() REPRESENTATION_CONTEXT('2D SPACE',''
  ) );
#1210 = ADVANCED_FACE('',(#1211),#430,.F.);
#1211 = FACE_BOUND('',#1212,.F.);
#1212 = EDGE_LOOP('',(#1213,#1214,#1215,#1216));
#1213 = ORIENTED_EDGE('',*,*,#386,.F.);
#1214 = ORIENTED_EDGE('',*,*,#1167,.T.);
#1215 = ORIENTED_EDGE('',*,*,#1010,.T.);
#1216 = ORIENTED_EDGE('',*,*,#1217,.F.);
#1217 = EDGE_CURVE('',#387,#985,#1218,.T.);
#1218 = SURFACE_CURVE('',#1219,(#1222,#1229),.PCURVE_S1.);
#1219 = B_SPLINE_CURVE_WITH_KNOTS('',1,(#1220,#1221),.UNSPECIFIED.,.F.,
  .F.,(2,2),(0.,5.),.PIECEWISE_BEZIER_KNOTS.);
#1220 = CARTESIAN_POINT('',(2.5,54.,52.5));
#1221 = CARTESIAN_POINT('',(-2.5,54.,52.5));
#1222 = PCURVE('',#430,#1223);
#1223 = DEFINITIONAL_REPRESENTATION('',(#1224),#1228);
#1224 = LINE('',#1225,#1226);
#1225 = CARTESIAN_POINT('',(0.,1.));
#1226 = VECTOR('',#1227,1.);
#1227 = DIRECTION('',(1.,0.));
#1228 = ( GEOMETRIC_REPRESENTATION_CONTEXT(2) 
PARAMETRIC_REPRESENTATION_CONTEXT() REPRESENTATION_CONTEXT('2D SPACE',''
  ) );
#1229 = PCURVE('',#489,#1230);
#1230 = DEFINITIONAL_REPRESENTATION('',(#1231),#1234);
#1231 = B_SPLINE_CURVE_WITH_KNOTS('',1,(#1232,#1233),.UNSPECIFIED.,.F.,
  .F.,(2,2),(0.,5.),.PIECEWISE_BEZIER_KNOTS.);
#1232 = CARTESIAN_POINT('',(-2.5,-7.7025));
#1233 = CARTESIAN_POINT('',(2.5,-7.7025));
#1234 = ( GEOMETRIC_REPRESENTATION_CONTEXT(2) 
PARAMETRIC_REPRESENTATION_CONTEXT() REPRESENTATION_CONTEXT('2D SPACE',''
  ) );
#1235 = ADVANCED_FACE('',(#1236),#545,.F.);
#1236 = FACE_BOUND('',#1237,.F.);
#1237 = EDGE_LOOP('',(#1238,#1239,#1240,#1241));
#1238 = ORIENTED_EDGE('',*,*,#938,.F.);
#1239 = ORIENTED_EDGE('',*,*,#1192,.T.);
#1240 = ORIENTED_EDGE('',*,*,#527,.T.);
#1241 = ORIENTED_EDGE('',*,*,#1242,.F.);
#1242 = EDGE_CURVE('',#939,#503,#1243,.T.);
#1243 = SURFACE_CURVE('',#1244,(#1247,#1253),.PCURVE_S1.);
#1244 = B_SPLINE_CURVE_WITH_KNOTS('',1,(#1245,#1246),.UNSPECIFIED.,.F.,
  .F.,(2,2),(0.,5.),.PIECEWISE_BEZIER_KNOTS.);
#1245 = CARTESIAN_POINT('',(-2.5,69.,51.5));
#1246 = CARTESIAN_POINT('',(2.5,69.,51.5));
#1247 = PCURVE('',#545,#1248);
#1248 = DEFINITIONAL_REPRESENTATION('',(#1249),#1252);
#1249 = B_SPLINE_CURVE_WITH_KNOTS('',1,(#1250,#1251),.UNSPECIFIED.,.F.,
  .F.,(2,2),(0.,5.),.PIECEWISE_BEZIER_KNOTS.);
#1250 = CARTESIAN_POINT('',(-2.5,7.2975));
#1251 = CARTESIAN_POINT('',(2.5,7.2975));
#1252 = ( GEOMETRIC_REPRESENTATION_CONTEXT(2) 
PARAMETRIC_REPRESENTATION_CONTEXT() REPRESENTATION_CONTEXT('2D SPACE',''
  ) );
#1253 = PCURVE('',#516,#1254);
#1254 = DEFINITIONAL_REPRESENTATION('',(#1255),#1258);
#1255 = B_SPLINE_CURVE_WITH_KNOTS('',1,(#1256,#1257),.UNSPECIFIED.,.F.,
  .F.,(2,2),(0.,5.),.PIECEWISE_BEZIER_KNOTS.);
#1256 = CARTESIAN_POINT('',(0.5,-2.5));
#1257 = CARTESIAN_POINT('',(0.5,2.5));
#1258 = ( GEOMETRIC_REPRESENTATION_CONTEXT(2) 
PARAMETRIC_REPRESENTATION_CONTEXT() REPRESENTATION_CONTEXT('2D SPACE',''
  ) );
#1259 = ADVANCED_FACE('',(#1260),#489,.F.);
#1260 = FACE_BOUND('',#1261,.F.);
#1261 = EDGE_LOOP('',(#1262,#1263,#1264,#1265));
#1262 = ORIENTED_EDGE('',*,*,#471,.F.);
#1263 = ORIENTED_EDGE('',*,*,#1217,.T.);
#1264 = ORIENTED_EDGE('',*,*,#984,.T.);
#1265 = ORIENTED_EDGE('',*,*,#1266,.F.);
#1266 = EDGE_CURVE('',#472,#965,#1267,.T.);
#1267 = SURFACE_CURVE('',#1268,(#1271,#1277),.PCURVE_S1.);
#1268 = B_SPLINE_CURVE_WITH_KNOTS('',1,(#1269,#1270),.UNSPECIFIED.,.F.,
  .F.,(2,2),(0.,5.),.PIECEWISE_BEZIER_KNOTS.);
#1269 = CARTESIAN_POINT('',(2.5,69.,52.5));
#1270 = CARTESIAN_POINT('',(-2.5,69.,52.5));
#1271 = PCURVE('',#489,#1272);
#1272 = DEFINITIONAL_REPRESENTATION('',(#1273),#1276);
#1273 = B_SPLINE_CURVE_WITH_KNOTS('',1,(#1274,#1275),.UNSPECIFIED.,.F.,
  .F.,(2,2),(0.,5.),.PIECEWISE_BEZIER_KNOTS.);
#1274 = CARTESIAN_POINT('',(-2.5,7.2975));
#1275 = CARTESIAN_POINT('',(2.5,7.2975));
#1276 = ( GEOMETRIC_REPRESENTATION_CONTEXT(2) 
PARAMETRIC_REPRESENTATION_CONTEXT() REPRESENTATION_CONTEXT('2D SPACE',''
  ) );
#1277 = PCURVE('',#516,#1278);
#1278 = DEFINITIONAL_REPRESENTATION('',(#1279),#1282);
#1279 = B_SPLINE_CURVE_WITH_KNOTS('',1,(#1280,#1281),.UNSPECIFIED.,.F.,
  .F.,(2,2),(0.,5.),.PIECEWISE_BEZIER_KNOTS.);
#1280 = CARTESIAN_POINT('',(-0.5,2.5));
#1281 = CARTESIAN_POINT('',(-0.5,-2.5));
#1282 = ( GEOMETRIC_REPRESENTATION_CONTEXT(2) 
PARAMETRIC_REPRESENTATION_CONTEXT() REPRESENTATION_CONTEXT('2D SPACE',''
  ) );
#1283 = ADVANCED_FACE('',(#1284),#73,.T.);
#1284 = FACE_BOUND('',#1285,.T.);
#1285 = EDGE_LOOP('',(#1286,#1287,#1288,#1289));
#1286 = ORIENTED_EDGE('',*,*,#59,.T.);
#1287 = ORIENTED_EDGE('',*,*,#198,.T.);
#1288 = ORIENTED_EDGE('',*,*,#723,.T.);
#1289 = ORIENTED_EDGE('',*,*,#791,.T.);
#1290 = ADVANCED_FACE('',(#1291),#516,.F.);
#1291 = FACE_BOUND('',#1292,.F.);
#1292 = EDGE_LOOP('',(#1293,#1294,#1295,#1296));
#1293 = ORIENTED_EDGE('',*,*,#1242,.T.);
#1294 = ORIENTED_EDGE('',*,*,#502,.T.);
#1295 = ORIENTED_EDGE('',*,*,#1266,.T.);
#1296 = ORIENTED_EDGE('',*,*,#964,.T.);
#1297 = ( GEOMETRIC_REPRESENTATION_CONTEXT(3) 
GLOBAL_UNCERTAINTY_ASSIGNED_CONTEXT((#1301)) 
GLOBAL_UNIT_ASSIGNED_CONTEXT((#1298,#1299,#1300)) REPRESENTATION_CONTEXT
('Context #1','3D Context with UNIT and UNCERTAINTY') );
#1298 = ( LENGTH_UNIT() NAMED_UNIT(*) SI_UNIT(.MILLI.,.METRE.) );
#1299 = ( NAMED_UNIT(*) PLANE_ANGLE_UNIT() SI_UNIT($,.RADIAN.) );
#1300 = ( NAMED_UNIT(*) SI_UNIT($,.STERADIAN.) SOLID_ANGLE_UNIT() );
#1301 = UNCERTAINTY_MEASURE_WITH_UNIT(LENGTH_MEASURE(2.E-05),#1298,
  'distance_accuracy_value','confusion accuracy');
#1302 = PRODUCT_RELATED_PRODUCT_CATEGORY('part',$,(#7));
ENDSEC;
END-ISO-10303-21;
