ISO-10303-21;
HEADER;
FILE_DESCRIPTION(('Open CASCADE Model'),'2;1');
FILE_NAME('Open CASCADE Shape Model','2026-06-24T17:03:02',('Author'),(
    'Open CASCADE'),'Open CASCADE STEP processor 7.8','Open CASCADE 7.8'
  ,'Unknown');
FILE_SCHEMA(('AUTOMOTIVE_DESIGN { 1 0 10303 214 1 1 1 1 }'));
ENDSEC;
DATA;
#1 = APPLICATION_PROTOCOL_DEFINITION('international standard',
  'automotive_design',2000,#2);
#2 = APPLICATION_CONTEXT(
  'core data for automotive mechanical design processes');
#3 = SHAPE_DEFINITION_REPRESENTATION(#4,#10);
#4 = PRODUCT_DEFINITION_SHAPE('','',#5);
#5 = PRODUCT_DEFINITION('design','',#6,#9);
#6 = PRODUCT_DEFINITION_FORMATION('','',#7);
#7 = PRODUCT('Open CASCADE STEP translator 7.8 1',
  'Open CASCADE STEP translator 7.8 1','',(#8));
#8 = PRODUCT_CONTEXT('',#2,'mechanical');
#9 = PRODUCT_DEFINITION_CONTEXT('part definition',#2,'design');
#10 = ADVANCED_BREP_SHAPE_REPRESENTATION('',(#11,#15),#1309);
#11 = AXIS2_PLACEMENT_3D('',#12,#13,#14);
#12 = CARTESIAN_POINT('',(0.,0.,0.));
#13 = DIRECTION('',(0.,0.,1.));
#14 = DIRECTION('',(1.,0.,-0.));
#15 = MANIFOLD_SOLID_BREP('',#16);
#16 = CLOSED_SHELL('',(#17,#187,#726,#794,#1147,#1172,#1197,#1222,#1247,
    #1271,#1295,#1302));
#17 = ADVANCED_FACE('',(#18),#33,.F.);
#18 = FACE_BOUND('',#19,.F.);
#19 = EDGE_LOOP('',(#20,#58,#83,#114));
#20 = ORIENTED_EDGE('',*,*,#21,.F.);
#21 = EDGE_CURVE('',#22,#24,#26,.T.);
#22 = VERTEX_POINT('',#23);
#23 = CARTESIAN_POINT('',(-2.5,-30.,-48.375));
#24 = VERTEX_POINT('',#25);
#25 = CARTESIAN_POINT('',(-2.5,3.552713678801E-15,-48.375));
#26 = SURFACE_CURVE('',#27,(#32,#45),.PCURVE_S1.);
#27 = B_SPLINE_CURVE_WITH_KNOTS('',3,(#28,#29,#30,#31),.UNSPECIFIED.,.F.
  ,.F.,(4,4),(0.,1.),.PIECEWISE_BEZIER_KNOTS.);
#28 = CARTESIAN_POINT('',(-2.5,-30.,-48.375));
#29 = CARTESIAN_POINT('',(-2.5,-29.9,-48.375));
#30 = CARTESIAN_POINT('',(-2.5,-1.E-01,-48.375));
#31 = CARTESIAN_POINT('',(-2.5,8.881784197001E-15,-48.375));
#32 = PCURVE('',#33,#38);
#33 = PLANE('',#34);
#34 = AXIS2_PLACEMENT_3D('',#35,#36,#37);
#35 = CARTESIAN_POINT('',(0.,-15.,-48.375));
#36 = DIRECTION('',(1.2918958832E-16,1.078586517372E-16,1.));
#37 = DIRECTION('',(1.,5.020246460857E-19,-1.2918958832E-16));
#38 = DEFINITIONAL_REPRESENTATION('',(#39),#44);
#39 = B_SPLINE_CURVE_WITH_KNOTS('',3,(#40,#41,#42,#43),.UNSPECIFIED.,.F.
  ,.F.,(4,4),(0.,1.),.PIECEWISE_BEZIER_KNOTS.);
#40 = CARTESIAN_POINT('',(-2.5,-15.));
#41 = CARTESIAN_POINT('',(-2.5,-14.9));
#42 = CARTESIAN_POINT('',(-2.5,14.9));
#43 = CARTESIAN_POINT('',(-2.5,15.));
#44 = ( GEOMETRIC_REPRESENTATION_CONTEXT(2) 
PARAMETRIC_REPRESENTATION_CONTEXT() REPRESENTATION_CONTEXT('2D SPACE',''
  ) );
#45 = PCURVE('',#46,#51);
#46 = PLANE('',#47);
#47 = AXIS2_PLACEMENT_3D('',#48,#49,#50);
#48 = CARTESIAN_POINT('',(-2.5,-15.,-48.));
#49 = DIRECTION('',(1.,4.276662250411E-18,-4.412368901658E-29));
#50 = DIRECTION('',(-4.412350867977E-29,-4.216765295731E-17,-1.));
#51 = DEFINITIONAL_REPRESENTATION('',(#52),#57);
#52 = B_SPLINE_CURVE_WITH_KNOTS('',3,(#53,#54,#55,#56),.UNSPECIFIED.,.F.
  ,.F.,(4,4),(0.,1.),.PIECEWISE_BEZIER_KNOTS.);
#53 = CARTESIAN_POINT('',(0.375,-15.));
#54 = CARTESIAN_POINT('',(0.375,-14.9));
#55 = CARTESIAN_POINT('',(0.375,14.9));
#56 = CARTESIAN_POINT('',(0.375,15.));
#57 = ( GEOMETRIC_REPRESENTATION_CONTEXT(2) 
PARAMETRIC_REPRESENTATION_CONTEXT() REPRESENTATION_CONTEXT('2D SPACE',''
  ) );
#58 = ORIENTED_EDGE('',*,*,#59,.T.);
#59 = EDGE_CURVE('',#22,#60,#62,.T.);
#60 = VERTEX_POINT('',#61);
#61 = CARTESIAN_POINT('',(2.5,-30.,-48.375));
#62 = SURFACE_CURVE('',#63,(#66,#72),.PCURVE_S1.);
#63 = B_SPLINE_CURVE_WITH_KNOTS('',1,(#64,#65),.UNSPECIFIED.,.F.,.F.,(2,
    2),(0.,5.),.PIECEWISE_BEZIER_KNOTS.);
#64 = CARTESIAN_POINT('',(-2.5,-30.,-48.375));
#65 = CARTESIAN_POINT('',(2.5,-30.,-48.375));
#66 = PCURVE('',#33,#67);
#67 = DEFINITIONAL_REPRESENTATION('',(#68),#71);
#68 = B_SPLINE_CURVE_WITH_KNOTS('',1,(#69,#70),.UNSPECIFIED.,.F.,.F.,(2,
    2),(0.,5.),.PIECEWISE_BEZIER_KNOTS.);
#69 = CARTESIAN_POINT('',(-2.5,-15.));
#70 = CARTESIAN_POINT('',(2.5,-15.));
#71 = ( GEOMETRIC_REPRESENTATION_CONTEXT(2) 
PARAMETRIC_REPRESENTATION_CONTEXT() REPRESENTATION_CONTEXT('2D SPACE',''
  ) );
#72 = PCURVE('',#73,#78);
#73 = PLANE('',#74);
#74 = AXIS2_PLACEMENT_3D('',#75,#76,#77);
#75 = CARTESIAN_POINT('',(0.,-30.,-48.));
#76 = DIRECTION('',(-0.,-1.,-0.));
#77 = DIRECTION('',(0.,0.,-1.));
#78 = DEFINITIONAL_REPRESENTATION('',(#79),#82);
#79 = B_SPLINE_CURVE_WITH_KNOTS('',1,(#80,#81),.UNSPECIFIED.,.F.,.F.,(2,
    2),(0.,5.),.PIECEWISE_BEZIER_KNOTS.);
#80 = CARTESIAN_POINT('',(0.375,-2.5));
#81 = CARTESIAN_POINT('',(0.375,2.5));
#82 = ( GEOMETRIC_REPRESENTATION_CONTEXT(2) 
PARAMETRIC_REPRESENTATION_CONTEXT() REPRESENTATION_CONTEXT('2D SPACE',''
  ) );
#83 = ORIENTED_EDGE('',*,*,#84,.T.);
#84 = EDGE_CURVE('',#60,#85,#87,.T.);
#85 = VERTEX_POINT('',#86);
#86 = CARTESIAN_POINT('',(2.5,3.552713678801E-15,-48.375));
#87 = SURFACE_CURVE('',#88,(#93,#101),.PCURVE_S1.);
#88 = B_SPLINE_CURVE_WITH_KNOTS('',3,(#89,#90,#91,#92),.UNSPECIFIED.,.F.
  ,.F.,(4,4),(0.,1.),.PIECEWISE_BEZIER_KNOTS.);
#89 = CARTESIAN_POINT('',(2.5,-30.,-48.375));
#90 = CARTESIAN_POINT('',(2.5,-29.9,-48.375));
#91 = CARTESIAN_POINT('',(2.5,-1.E-01,-48.375));
#92 = CARTESIAN_POINT('',(2.5,8.881784197001E-15,-48.375));
#93 = PCURVE('',#33,#94);
#94 = DEFINITIONAL_REPRESENTATION('',(#95),#100);
#95 = B_SPLINE_CURVE_WITH_KNOTS('',3,(#96,#97,#98,#99),.UNSPECIFIED.,.F.
  ,.F.,(4,4),(0.,1.),.PIECEWISE_BEZIER_KNOTS.);
#96 = CARTESIAN_POINT('',(2.5,-15.));
#97 = CARTESIAN_POINT('',(2.5,-14.9));
#98 = CARTESIAN_POINT('',(2.5,14.9));
#99 = CARTESIAN_POINT('',(2.5,15.));
#100 = ( GEOMETRIC_REPRESENTATION_CONTEXT(2) 
PARAMETRIC_REPRESENTATION_CONTEXT() REPRESENTATION_CONTEXT('2D SPACE',''
  ) );
#101 = PCURVE('',#102,#107);
#102 = PLANE('',#103);
#103 = AXIS2_PLACEMENT_3D('',#104,#105,#106);
#104 = CARTESIAN_POINT('',(2.5,-15.,-48.));
#105 = DIRECTION('',(-1.,4.276662250411E-18,4.033587505916E-29));
#106 = DIRECTION('',(4.033609430245E-29,5.126504747288E-17,1.));
#107 = DEFINITIONAL_REPRESENTATION('',(#108),#113);
#108 = B_SPLINE_CURVE_WITH_KNOTS('',3,(#109,#110,#111,#112),
  .UNSPECIFIED.,.F.,.F.,(4,4),(0.,1.),.PIECEWISE_BEZIER_KNOTS.);
#109 = CARTESIAN_POINT('',(-0.375,-15.));
#110 = CARTESIAN_POINT('',(-0.375,-14.9));
#111 = CARTESIAN_POINT('',(-0.375,14.9));
#112 = CARTESIAN_POINT('',(-0.375,15.));
#113 = ( GEOMETRIC_REPRESENTATION_CONTEXT(2) 
PARAMETRIC_REPRESENTATION_CONTEXT() REPRESENTATION_CONTEXT('2D SPACE',''
  ) );
#114 = ORIENTED_EDGE('',*,*,#115,.F.);
#115 = EDGE_CURVE('',#24,#85,#116,.T.);
#116 = SURFACE_CURVE('',#117,(#120,#126),.PCURVE_S1.);
#117 = B_SPLINE_CURVE_WITH_KNOTS('',1,(#118,#119),.UNSPECIFIED.,.F.,.F.,
  (2,2),(0.,5.),.PIECEWISE_BEZIER_KNOTS.);
#118 = CARTESIAN_POINT('',(-2.5,8.881784197001E-15,-48.375));
#119 = CARTESIAN_POINT('',(2.5,8.881784197001E-15,-48.375));
#120 = PCURVE('',#33,#121);
#121 = DEFINITIONAL_REPRESENTATION('',(#122),#125);
#122 = B_SPLINE_CURVE_WITH_KNOTS('',1,(#123,#124),.UNSPECIFIED.,.F.,.F.,
  (2,2),(0.,5.),.PIECEWISE_BEZIER_KNOTS.);
#123 = CARTESIAN_POINT('',(-2.5,15.));
#124 = CARTESIAN_POINT('',(2.5,15.));
#125 = ( GEOMETRIC_REPRESENTATION_CONTEXT(2) 
PARAMETRIC_REPRESENTATION_CONTEXT() REPRESENTATION_CONTEXT('2D SPACE',''
  ) );
#126 = PCURVE('',#127,#182);
#127 = B_SPLINE_SURFACE_WITH_KNOTS('',1,8,(
    (#128,#129,#130,#131,#132,#133,#134,#135,#136,#137,#138,#139,#140
      ,#141,#142,#143,#144,#145,#146,#147,#148,#149,#150,#151,#152,#153
      ,#154)
    ,(#155,#156,#157,#158,#159,#160,#161,#162,#163,#164,#165,#166,#167
      ,#168,#169,#170,#171,#172,#173,#174,#175,#176,#177,#178,#179,#180
      ,#181
    )),.UNSPECIFIED.,.F.,.F.,.F.,(2,2),(9,6,6,6,9),(0.,5.),(0.,0.5,0.75,
    0.875,1.),.UNSPECIFIED.);
#128 = CARTESIAN_POINT('',(-2.5,0.,-48.375));
#129 = CARTESIAN_POINT('',(-2.5,6.231330492232,-48.375));
#130 = CARTESIAN_POINT('',(-2.5,13.581216020332,-48.15536639033));
#131 = CARTESIAN_POINT('',(-2.5,21.706597659415,-47.70948962043));
#132 = CARTESIAN_POINT('',(-2.5,30.259728747377,-47.03057191429));
#133 = CARTESIAN_POINT('',(-2.5,38.894544477159,-46.11105588448));
#134 = CARTESIAN_POINT('',(-2.5,47.265165948849,-44.94394097819));
#135 = CARTESIAN_POINT('',(-2.5,58.904341110451,-42.81215754738));
#136 = CARTESIAN_POINT('',(-2.5,68.400972719278,-40.08493654617));
#137 = CARTESIAN_POINT('',(-2.5,71.285756397174,-39.1070520487));
#138 = CARTESIAN_POINT('',(-2.5,73.847648867486,-38.0666872894));
#139 = CARTESIAN_POINT('',(-2.5,76.046434128088,-36.93912646326));
#140 = CARTESIAN_POINT('',(-2.5,77.834722248862,-35.75684097718));
#141 = CARTESIAN_POINT('',(-2.5,79.875111200625,-33.82822231154));
#142 = CARTESIAN_POINT('',(-2.5,80.769743587822,-31.64358273526));
#143 = CARTESIAN_POINT('',(-2.5,80.931095243456,-30.88667878842));
#144 = CARTESIAN_POINT('',(-2.5,80.941374835828,-30.09820363343));
#145 = CARTESIAN_POINT('',(-2.5,80.787431782721,-29.30663462298));
#146 = CARTESIAN_POINT('',(-2.5,80.485111157392,-28.50993264789));
#147 = CARTESIAN_POINT('',(-2.5,79.572078241071,-26.90183194026));
#148 = CARTESIAN_POINT('',(-2.5,78.031546425684,-25.25509395213));
#149 = CARTESIAN_POINT('',(-2.5,77.100945211811,-24.41946807695));
#150 = CARTESIAN_POINT('',(-2.5,76.004555080372,-23.56937629988));
#151 = CARTESIAN_POINT('',(-2.5,74.736337828001,-22.70327692272));
#152 = CARTESIAN_POINT('',(-2.5,73.290438840602,-21.82030837485));
#153 = CARTESIAN_POINT('',(-2.5,71.661315018032,-20.920036041));
#154 = CARTESIAN_POINT('',(-2.5,69.843222442044,-20.00193311166));
#155 = CARTESIAN_POINT('',(2.5,0.,-48.375));
#156 = CARTESIAN_POINT('',(2.5,6.231330492232,-48.375));
#157 = CARTESIAN_POINT('',(2.5,13.581216020332,-48.15536639033));
#158 = CARTESIAN_POINT('',(2.5,21.706597659415,-47.70948962043));
#159 = CARTESIAN_POINT('',(2.5,30.259728747377,-47.03057191429));
#160 = CARTESIAN_POINT('',(2.5,38.894544477159,-46.11105588448));
#161 = CARTESIAN_POINT('',(2.5,47.265165948849,-44.94394097819));
#162 = CARTESIAN_POINT('',(2.5,58.904341110451,-42.81215754738));
#163 = CARTESIAN_POINT('',(2.5,68.400972719278,-40.08493654617));
#164 = CARTESIAN_POINT('',(2.5,71.285756397174,-39.1070520487));
#165 = CARTESIAN_POINT('',(2.5,73.847648867486,-38.0666872894));
#166 = CARTESIAN_POINT('',(2.5,76.046434128088,-36.93912646326));
#167 = CARTESIAN_POINT('',(2.5,77.834722248862,-35.75684097718));
#168 = CARTESIAN_POINT('',(2.5,79.875111200625,-33.82822231154));
#169 = CARTESIAN_POINT('',(2.5,80.769743587822,-31.64358273526));
#170 = CARTESIAN_POINT('',(2.5,80.931095243456,-30.88667878842));
#171 = CARTESIAN_POINT('',(2.5,80.941374835828,-30.09820363343));
#172 = CARTESIAN_POINT('',(2.5,80.787431782721,-29.30663462298));
#173 = CARTESIAN_POINT('',(2.5,80.485111157392,-28.50993264789));
#174 = CARTESIAN_POINT('',(2.5,79.572078241071,-26.90183194026));
#175 = CARTESIAN_POINT('',(2.5,78.031546425684,-25.25509395213));
#176 = CARTESIAN_POINT('',(2.5,77.100945211811,-24.41946807695));
#177 = CARTESIAN_POINT('',(2.5,76.004555080372,-23.56937629988));
#178 = CARTESIAN_POINT('',(2.5,74.736337828001,-22.70327692272));
#179 = CARTESIAN_POINT('',(2.5,73.290438840602,-21.82030837485));
#180 = CARTESIAN_POINT('',(2.5,71.661315018032,-20.920036041));
#181 = CARTESIAN_POINT('',(2.5,69.843222442044,-20.00193311166));
#182 = DEFINITIONAL_REPRESENTATION('',(#183),#186);
#183 = B_SPLINE_CURVE_WITH_KNOTS('',1,(#184,#185),.UNSPECIFIED.,.F.,.F.,
  (2,2),(0.,5.),.PIECEWISE_BEZIER_KNOTS.);
#184 = CARTESIAN_POINT('',(0.,0.));
#185 = CARTESIAN_POINT('',(5.,0.));
#186 = ( GEOMETRIC_REPRESENTATION_CONTEXT(2) 
PARAMETRIC_REPRESENTATION_CONTEXT() REPRESENTATION_CONTEXT('2D SPACE',''
  ) );
#187 = ADVANCED_FACE('',(#188),#102,.F.);
#188 = FACE_BOUND('',#189,.F.);
#189 = EDGE_LOOP('',(#190,#191,#211,#242,#367,#468,#499,#524,#555,#657)
  );
#190 = ORIENTED_EDGE('',*,*,#84,.F.);
#191 = ORIENTED_EDGE('',*,*,#192,.T.);
#192 = EDGE_CURVE('',#60,#193,#195,.T.);
#193 = VERTEX_POINT('',#194);
#194 = CARTESIAN_POINT('',(2.5,-30.,-47.625));
#195 = SURFACE_CURVE('',#196,(#199,#205),.PCURVE_S1.);
#196 = B_SPLINE_CURVE_WITH_KNOTS('',1,(#197,#198),.UNSPECIFIED.,.F.,.F.,
  (2,2),(0.,0.75),.PIECEWISE_BEZIER_KNOTS.);
#197 = CARTESIAN_POINT('',(2.5,-30.,-48.375));
#198 = CARTESIAN_POINT('',(2.5,-30.,-47.625));
#199 = PCURVE('',#102,#200);
#200 = DEFINITIONAL_REPRESENTATION('',(#201),#204);
#201 = B_SPLINE_CURVE_WITH_KNOTS('',1,(#202,#203),.UNSPECIFIED.,.F.,.F.,
  (2,2),(0.,0.75),.PIECEWISE_BEZIER_KNOTS.);
#202 = CARTESIAN_POINT('',(-0.375,-15.));
#203 = CARTESIAN_POINT('',(0.375,-15.));
#204 = ( GEOMETRIC_REPRESENTATION_CONTEXT(2) 
PARAMETRIC_REPRESENTATION_CONTEXT() REPRESENTATION_CONTEXT('2D SPACE',''
  ) );
#205 = PCURVE('',#73,#206);
#206 = DEFINITIONAL_REPRESENTATION('',(#207),#210);
#207 = B_SPLINE_CURVE_WITH_KNOTS('',1,(#208,#209),.UNSPECIFIED.,.F.,.F.,
  (2,2),(0.,0.75),.PIECEWISE_BEZIER_KNOTS.);
#208 = CARTESIAN_POINT('',(0.375,2.5));
#209 = CARTESIAN_POINT('',(-0.375,2.5));
#210 = ( GEOMETRIC_REPRESENTATION_CONTEXT(2) 
PARAMETRIC_REPRESENTATION_CONTEXT() REPRESENTATION_CONTEXT('2D SPACE',''
  ) );
#211 = ORIENTED_EDGE('',*,*,#212,.T.);
#212 = EDGE_CURVE('',#193,#213,#215,.T.);
#213 = VERTEX_POINT('',#214);
#214 = CARTESIAN_POINT('',(2.5,3.552713678801E-15,-47.625));
#215 = SURFACE_CURVE('',#216,(#221,#229),.PCURVE_S1.);
#216 = B_SPLINE_CURVE_WITH_KNOTS('',3,(#217,#218,#219,#220),
  .UNSPECIFIED.,.F.,.F.,(4,4),(0.,1.),.PIECEWISE_BEZIER_KNOTS.);
#217 = CARTESIAN_POINT('',(2.5,-30.,-47.625));
#218 = CARTESIAN_POINT('',(2.5,-29.9,-47.625));
#219 = CARTESIAN_POINT('',(2.5,-1.E-01,-47.625));
#220 = CARTESIAN_POINT('',(2.5,8.881784197001E-15,-47.625));
#221 = PCURVE('',#102,#222);
#222 = DEFINITIONAL_REPRESENTATION('',(#223),#228);
#223 = B_SPLINE_CURVE_WITH_KNOTS('',3,(#224,#225,#226,#227),
  .UNSPECIFIED.,.F.,.F.,(4,4),(0.,1.),.PIECEWISE_BEZIER_KNOTS.);
#224 = CARTESIAN_POINT('',(0.375,-15.));
#225 = CARTESIAN_POINT('',(0.375,-14.9));
#226 = CARTESIAN_POINT('',(0.375,14.9));
#227 = CARTESIAN_POINT('',(0.375,15.));
#228 = ( GEOMETRIC_REPRESENTATION_CONTEXT(2) 
PARAMETRIC_REPRESENTATION_CONTEXT() REPRESENTATION_CONTEXT('2D SPACE',''
  ) );
#229 = PCURVE('',#230,#235);
#230 = PLANE('',#231);
#231 = AXIS2_PLACEMENT_3D('',#232,#233,#234);
#232 = CARTESIAN_POINT('',(0.,-15.,-47.625));
#233 = DIRECTION('',(1.879121284655E-16,2.175268817642E-18,-1.));
#234 = DIRECTION('',(-1.,5.020246460857E-19,-1.879121284655E-16));
#235 = DEFINITIONAL_REPRESENTATION('',(#236),#241);
#236 = B_SPLINE_CURVE_WITH_KNOTS('',3,(#237,#238,#239,#240),
  .UNSPECIFIED.,.F.,.F.,(4,4),(0.,1.),.PIECEWISE_BEZIER_KNOTS.);
#237 = CARTESIAN_POINT('',(-2.5,-15.));
#238 = CARTESIAN_POINT('',(-2.5,-14.9));
#239 = CARTESIAN_POINT('',(-2.5,14.9));
#240 = CARTESIAN_POINT('',(-2.5,15.));
#241 = ( GEOMETRIC_REPRESENTATION_CONTEXT(2) 
PARAMETRIC_REPRESENTATION_CONTEXT() REPRESENTATION_CONTEXT('2D SPACE',''
  ) );
#242 = ORIENTED_EDGE('',*,*,#243,.T.);
#243 = EDGE_CURVE('',#213,#244,#246,.T.);
#244 = VERTEX_POINT('',#245);
#245 = CARTESIAN_POINT('',(2.5,69.505146937085,-20.6714142189));
#246 = SURFACE_CURVE('',#247,(#275,#306),.PCURVE_S1.);
#247 = B_SPLINE_CURVE_WITH_KNOTS('',8,(#248,#249,#250,#251,#252,#253,
    #254,#255,#256,#257,#258,#259,#260,#261,#262,#263,#264,#265,#266,
    #267,#268,#269,#270,#271,#272,#273,#274),.UNSPECIFIED.,.F.,.F.,(9,6,
    6,6,9),(0.,0.5,0.75,0.875,1.),.UNSPECIFIED.);
#248 = CARTESIAN_POINT('',(2.5,1.06581410364E-14,-47.625));
#249 = CARTESIAN_POINT('',(2.5,6.208199869242,-47.625));
#250 = CARTESIAN_POINT('',(2.5,13.542675234906,-47.40618166762));
#251 = CARTESIAN_POINT('',(2.5,21.652053914685,-46.96127054638));
#252 = CARTESIAN_POINT('',(2.5,30.189651463496,-46.28318040522));
#253 = CARTESIAN_POINT('',(2.5,38.807101581206,-45.36558462453));
#254 = CARTESIAN_POINT('',(2.5,47.155852060542,-44.20159975005));
#255 = CARTESIAN_POINT('',(2.5,58.75474731999,-42.07492554374));
#256 = CARTESIAN_POINT('',(2.5,68.172234882808,-39.36973794298));
#257 = CARTESIAN_POINT('',(2.5,71.02491467935,-38.40464507615));
#258 = CARTESIAN_POINT('',(2.5,73.546438878967,-37.3681224733));
#259 = CARTESIAN_POINT('',(2.5,75.690219595387,-36.28315043855));
#260 = CARTESIAN_POINT('',(2.5,77.416842870327,-35.11552206412));
#261 = CARTESIAN_POINT('',(2.5,79.277133307579,-33.31059518824));
#262 = CARTESIAN_POINT('',(2.5,80.030340003663,-31.44477221989));
#263 = CARTESIAN_POINT('',(2.5,80.157101966882,-30.81609204723));
#264 = CARTESIAN_POINT('',(2.5,80.162919431733,-30.18333620715));
#265 = CARTESIAN_POINT('',(2.5,80.050092494394,-29.51781040935));
#266 = CARTESIAN_POINT('',(2.5,79.791925595546,-28.82133682541));
#267 = CARTESIAN_POINT('',(2.5,78.974847423968,-27.37049103818));
#268 = CARTESIAN_POINT('',(2.5,77.523594128155,-25.81222402742));
#269 = CARTESIAN_POINT('',(2.5,76.632033794557,-25.00861583954));
#270 = CARTESIAN_POINT('',(2.5,75.569142900592,-24.18252505232));
#271 = CARTESIAN_POINT('',(2.5,74.330109163594,-23.33527642635));
#272 = CARTESIAN_POINT('',(2.5,72.909936711593,-22.46751459464));
#273 = CARTESIAN_POINT('',(2.5,71.303318158692,-21.57945723486));
#274 = CARTESIAN_POINT('',(2.5,69.505146937085,-20.6714142189));
#275 = PCURVE('',#102,#276);
#276 = DEFINITIONAL_REPRESENTATION('',(#277),#305);
#277 = B_SPLINE_CURVE_WITH_KNOTS('',8,(#278,#279,#280,#281,#282,#283,
    #284,#285,#286,#287,#288,#289,#290,#291,#292,#293,#294,#295,#296,
    #297,#298,#299,#300,#301,#302,#303,#304),.UNSPECIFIED.,.F.,.F.,(9,6,
    6,6,9),(0.,0.5,0.75,0.875,1.),.UNSPECIFIED.);
#278 = CARTESIAN_POINT('',(0.375,15.));
#279 = CARTESIAN_POINT('',(0.375,21.208199869242));
#280 = CARTESIAN_POINT('',(0.593818332378,28.542675234906));
#281 = CARTESIAN_POINT('',(1.038729453615,36.652053914685));
#282 = CARTESIAN_POINT('',(1.716819594778,45.189651463496));
#283 = CARTESIAN_POINT('',(2.63441537547,53.807101581206));
#284 = CARTESIAN_POINT('',(3.798400249944,62.155852060542));
#285 = CARTESIAN_POINT('',(5.925074456255,73.75474731999));
#286 = CARTESIAN_POINT('',(8.630262057014,83.172234882808));
#287 = CARTESIAN_POINT('',(9.595354923841,86.02491467935));
#288 = CARTESIAN_POINT('',(10.631877526693,88.546438878967));
#289 = CARTESIAN_POINT('',(11.716849561443,90.690219595387));
#290 = CARTESIAN_POINT('',(12.884477935872,92.416842870327));
#291 = CARTESIAN_POINT('',(14.689404811754,94.277133307579));
#292 = CARTESIAN_POINT('',(16.555227780106,95.030340003663));
#293 = CARTESIAN_POINT('',(17.183907952768,95.157101966882));
#294 = CARTESIAN_POINT('',(17.81666379285,95.162919431733));
#295 = CARTESIAN_POINT('',(18.48218959065,95.050092494394));
#296 = CARTESIAN_POINT('',(19.178663174586,94.791925595546));
#297 = CARTESIAN_POINT('',(20.629508961812,93.974847423968));
#298 = CARTESIAN_POINT('',(22.187775972574,92.523594128155));
#299 = CARTESIAN_POINT('',(22.991384160451,91.632033794557));
#300 = CARTESIAN_POINT('',(23.817474947674,90.569142900592));
#301 = CARTESIAN_POINT('',(24.664723573643,89.330109163594));
#302 = CARTESIAN_POINT('',(25.532485405354,87.909936711593));
#303 = CARTESIAN_POINT('',(26.420542765132,86.303318158692));
#304 = CARTESIAN_POINT('',(27.328585781098,84.505146937085));
#305 = ( GEOMETRIC_REPRESENTATION_CONTEXT(2) 
PARAMETRIC_REPRESENTATION_CONTEXT() REPRESENTATION_CONTEXT('2D SPACE',''
  ) );
#306 = PCURVE('',#307,#362);
#307 = B_SPLINE_SURFACE_WITH_KNOTS('',1,8,(
    (#308,#309,#310,#311,#312,#313,#314,#315,#316,#317,#318,#319,#320
      ,#321,#322,#323,#324,#325,#326,#327,#328,#329,#330,#331,#332,#333
      ,#334)
    ,(#335,#336,#337,#338,#339,#340,#341,#342,#343,#344,#345,#346,#347
      ,#348,#349,#350,#351,#352,#353,#354,#355,#356,#357,#358,#359,#360
      ,#361
    )),.UNSPECIFIED.,.F.,.F.,.F.,(2,2),(9,6,6,6,9),(0.,5.),(0.,0.5,0.75,
    0.875,1.),.UNSPECIFIED.);
#308 = CARTESIAN_POINT('',(2.5,1.06581410364E-14,-47.625));
#309 = CARTESIAN_POINT('',(2.5,6.208199869242,-47.625));
#310 = CARTESIAN_POINT('',(2.5,13.542675234906,-47.40618166762));
#311 = CARTESIAN_POINT('',(2.5,21.652053914685,-46.96127054638));
#312 = CARTESIAN_POINT('',(2.5,30.189651463496,-46.28318040522));
#313 = CARTESIAN_POINT('',(2.5,38.807101581206,-45.36558462453));
#314 = CARTESIAN_POINT('',(2.5,47.155852060542,-44.20159975005));
#315 = CARTESIAN_POINT('',(2.5,58.75474731999,-42.07492554374));
#316 = CARTESIAN_POINT('',(2.5,68.172234882808,-39.36973794298));
#317 = CARTESIAN_POINT('',(2.5,71.02491467935,-38.40464507615));
#318 = CARTESIAN_POINT('',(2.5,73.546438878967,-37.3681224733));
#319 = CARTESIAN_POINT('',(2.5,75.690219595387,-36.28315043855));
#320 = CARTESIAN_POINT('',(2.5,77.416842870327,-35.11552206412));
#321 = CARTESIAN_POINT('',(2.5,79.277133307579,-33.31059518824));
#322 = CARTESIAN_POINT('',(2.5,80.030340003663,-31.44477221989));
#323 = CARTESIAN_POINT('',(2.5,80.157101966882,-30.81609204723));
#324 = CARTESIAN_POINT('',(2.5,80.162919431733,-30.18333620715));
#325 = CARTESIAN_POINT('',(2.5,80.050092494394,-29.51781040935));
#326 = CARTESIAN_POINT('',(2.5,79.791925595546,-28.82133682541));
#327 = CARTESIAN_POINT('',(2.5,78.974847423968,-27.37049103818));
#328 = CARTESIAN_POINT('',(2.5,77.523594128155,-25.81222402742));
#329 = CARTESIAN_POINT('',(2.5,76.632033794557,-25.00861583954));
#330 = CARTESIAN_POINT('',(2.5,75.569142900592,-24.18252505232));
#331 = CARTESIAN_POINT('',(2.5,74.330109163594,-23.33527642635));
#332 = CARTESIAN_POINT('',(2.5,72.909936711593,-22.46751459464));
#333 = CARTESIAN_POINT('',(2.5,71.303318158692,-21.57945723486));
#334 = CARTESIAN_POINT('',(2.5,69.505146937085,-20.6714142189));
#335 = CARTESIAN_POINT('',(-2.5,1.06581410364E-14,-47.625));
#336 = CARTESIAN_POINT('',(-2.5,6.208199869242,-47.625));
#337 = CARTESIAN_POINT('',(-2.5,13.542675234906,-47.40618166762));
#338 = CARTESIAN_POINT('',(-2.5,21.652053914685,-46.96127054638));
#339 = CARTESIAN_POINT('',(-2.5,30.189651463496,-46.28318040522));
#340 = CARTESIAN_POINT('',(-2.5,38.807101581206,-45.36558462453));
#341 = CARTESIAN_POINT('',(-2.5,47.155852060542,-44.20159975005));
#342 = CARTESIAN_POINT('',(-2.5,58.75474731999,-42.07492554374));
#343 = CARTESIAN_POINT('',(-2.5,68.172234882808,-39.36973794298));
#344 = CARTESIAN_POINT('',(-2.5,71.02491467935,-38.40464507615));
#345 = CARTESIAN_POINT('',(-2.5,73.546438878967,-37.3681224733));
#346 = CARTESIAN_POINT('',(-2.5,75.690219595387,-36.28315043855));
#347 = CARTESIAN_POINT('',(-2.5,77.416842870327,-35.11552206412));
#348 = CARTESIAN_POINT('',(-2.5,79.277133307579,-33.31059518824));
#349 = CARTESIAN_POINT('',(-2.5,80.030340003663,-31.44477221989));
#350 = CARTESIAN_POINT('',(-2.5,80.157101966882,-30.81609204723));
#351 = CARTESIAN_POINT('',(-2.5,80.162919431733,-30.18333620715));
#352 = CARTESIAN_POINT('',(-2.5,80.050092494394,-29.51781040935));
#353 = CARTESIAN_POINT('',(-2.5,79.791925595546,-28.82133682541));
#354 = CARTESIAN_POINT('',(-2.5,78.974847423968,-27.37049103818));
#355 = CARTESIAN_POINT('',(-2.5,77.523594128155,-25.81222402742));
#356 = CARTESIAN_POINT('',(-2.5,76.632033794557,-25.00861583954));
#357 = CARTESIAN_POINT('',(-2.5,75.569142900592,-24.18252505232));
#358 = CARTESIAN_POINT('',(-2.5,74.330109163594,-23.33527642635));
#359 = CARTESIAN_POINT('',(-2.5,72.909936711593,-22.46751459464));
#360 = CARTESIAN_POINT('',(-2.5,71.303318158692,-21.57945723486));
#361 = CARTESIAN_POINT('',(-2.5,69.505146937085,-20.6714142189));
#362 = DEFINITIONAL_REPRESENTATION('',(#363),#366);
#363 = B_SPLINE_CURVE_WITH_KNOTS('',1,(#364,#365),.UNSPECIFIED.,.F.,.F.,
  (2,2),(0.,1.),.PIECEWISE_BEZIER_KNOTS.);
#364 = CARTESIAN_POINT('',(0.,0.));
#365 = CARTESIAN_POINT('',(0.,1.));
#366 = ( GEOMETRIC_REPRESENTATION_CONTEXT(2) 
PARAMETRIC_REPRESENTATION_CONTEXT() REPRESENTATION_CONTEXT('2D SPACE',''
  ) );
#367 = ORIENTED_EDGE('',*,*,#368,.T.);
#368 = EDGE_CURVE('',#244,#369,#371,.T.);
#369 = VERTEX_POINT('',#370);
#370 = CARTESIAN_POINT('',(2.5,122.,40.375));
#371 = SURFACE_CURVE('',#372,(#394,#419),.PCURVE_S1.);
#372 = B_SPLINE_CURVE_WITH_KNOTS('',11,(#373,#374,#375,#376,#377,#378,
    #379,#380,#381,#382,#383,#384,#385,#386,#387,#388,#389,#390,#391,
    #392,#393),.UNSPECIFIED.,.F.,.F.,(12,9,12),(0.,0.5,1.),
  .UNSPECIFIED.);
#373 = CARTESIAN_POINT('',(2.5,69.505146937085,-20.6714142189));
#374 = CARTESIAN_POINT('',(2.5,64.266900361652,-18.02619714414));
#375 = CARTESIAN_POINT('',(2.5,60.193621972962,-15.07258345599));
#376 = CARTESIAN_POINT('',(2.5,57.214864625651,-11.85024624788));
#377 = CARTESIAN_POINT('',(2.499999999999,55.284774986696,
    -8.421106082911));
#378 = CARTESIAN_POINT('',(2.500000000001,54.259215837154,
    -4.759824530333));
#379 = CARTESIAN_POINT('',(2.499999999999,54.32355518336,-1.001685040891
    ));
#380 = CARTESIAN_POINT('',(2.500000000001,55.107954874559,2.729974418486
    ));
#381 = CARTESIAN_POINT('',(2.5,56.700793346767,6.502139843366));
#382 = CARTESIAN_POINT('',(2.5,58.969173339921,10.210701636671));
#383 = CARTESIAN_POINT('',(2.5,64.745805047502,17.449036380147));
#384 = CARTESIAN_POINT('',(2.5,72.71959758421,24.138541973903));
#385 = CARTESIAN_POINT('',(2.5,77.186872017596,27.300710578452));
#386 = CARTESIAN_POINT('',(2.5,82.065871115689,30.233944059006));
#387 = CARTESIAN_POINT('',(2.5,87.288113630811,32.89126648228));
#388 = CARTESIAN_POINT('',(2.5,92.785215773375,35.22532935704));
#389 = CARTESIAN_POINT('',(2.5,98.488827911218,37.188567495945));
#390 = CARTESIAN_POINT('',(2.5,104.33058276399,38.733258296021));
#391 = CARTESIAN_POINT('',(2.5,110.24205509129,39.811484437301));
#392 = CARTESIAN_POINT('',(2.5,116.15473287571,40.375));
#393 = CARTESIAN_POINT('',(2.5,122.,40.375));
#394 = PCURVE('',#102,#395);
#395 = DEFINITIONAL_REPRESENTATION('',(#396),#418);
#396 = B_SPLINE_CURVE_WITH_KNOTS('',11,(#397,#398,#399,#400,#401,#402,
    #403,#404,#405,#406,#407,#408,#409,#410,#411,#412,#413,#414,#415,
    #416,#417),.UNSPECIFIED.,.F.,.F.,(12,9,12),(0.,0.5,1.),
  .UNSPECIFIED.);
#397 = CARTESIAN_POINT('',(27.328585781098,84.505146937085));
#398 = CARTESIAN_POINT('',(29.973802855856,79.266900361652));
#399 = CARTESIAN_POINT('',(32.927416544001,75.193621972962));
#400 = CARTESIAN_POINT('',(36.149753752119,72.214864625651));
#401 = CARTESIAN_POINT('',(39.578893917089,70.284774986696));
#402 = CARTESIAN_POINT('',(43.240175469667,69.259215837154));
#403 = CARTESIAN_POINT('',(46.998314959109,69.32355518336));
#404 = CARTESIAN_POINT('',(50.729974418486,70.107954874559));
#405 = CARTESIAN_POINT('',(54.502139843366,71.700793346767));
#406 = CARTESIAN_POINT('',(58.210701636671,73.969173339921));
#407 = CARTESIAN_POINT('',(65.449036380147,79.745805047502));
#408 = CARTESIAN_POINT('',(72.138541973903,87.719597584209));
#409 = CARTESIAN_POINT('',(75.300710578452,92.186872017596));
#410 = CARTESIAN_POINT('',(78.233944059006,97.065871115689));
#411 = CARTESIAN_POINT('',(80.89126648228,102.28811363081));
#412 = CARTESIAN_POINT('',(83.22532935704,107.78521577337));
#413 = CARTESIAN_POINT('',(85.188567495945,113.48882791121));
#414 = CARTESIAN_POINT('',(86.733258296021,119.33058276399));
#415 = CARTESIAN_POINT('',(87.811484437301,125.24205509129));
#416 = CARTESIAN_POINT('',(88.375,131.15473287571));
#417 = CARTESIAN_POINT('',(88.375,137.));
#418 = ( GEOMETRIC_REPRESENTATION_CONTEXT(2) 
PARAMETRIC_REPRESENTATION_CONTEXT() REPRESENTATION_CONTEXT('2D SPACE',''
  ) );
#419 = PCURVE('',#420,#463);
#420 = B_SPLINE_SURFACE_WITH_KNOTS('',1,11,(
    (#421,#422,#423,#424,#425,#426,#427,#428,#429,#430,#431,#432,#433
      ,#434,#435,#436,#437,#438,#439,#440,#441)
    ,(#442,#443,#444,#445,#446,#447,#448,#449,#450,#451,#452,#453,#454
      ,#455,#456,#457,#458,#459,#460,#461,#462
  )),.UNSPECIFIED.,.F.,.F.,.F.,(2,2),(12,9,12),(0.,5.),(0.,0.5,1.),
  .UNSPECIFIED.);
#421 = CARTESIAN_POINT('',(2.5,69.505146937085,-20.6714142189));
#422 = CARTESIAN_POINT('',(2.5,64.266900361652,-18.02619714414));
#423 = CARTESIAN_POINT('',(2.5,60.193621972962,-15.07258345599));
#424 = CARTESIAN_POINT('',(2.5,57.214864625651,-11.85024624788));
#425 = CARTESIAN_POINT('',(2.499999999999,55.284774986696,
    -8.421106082911));
#426 = CARTESIAN_POINT('',(2.500000000001,54.259215837154,
    -4.759824530333));
#427 = CARTESIAN_POINT('',(2.499999999999,54.32355518336,-1.001685040891
    ));
#428 = CARTESIAN_POINT('',(2.500000000001,55.107954874559,2.729974418486
    ));
#429 = CARTESIAN_POINT('',(2.5,56.700793346767,6.502139843366));
#430 = CARTESIAN_POINT('',(2.5,58.969173339921,10.210701636671));
#431 = CARTESIAN_POINT('',(2.5,64.745805047502,17.449036380147));
#432 = CARTESIAN_POINT('',(2.5,72.71959758421,24.138541973903));
#433 = CARTESIAN_POINT('',(2.5,77.186872017596,27.300710578452));
#434 = CARTESIAN_POINT('',(2.5,82.065871115689,30.233944059006));
#435 = CARTESIAN_POINT('',(2.5,87.288113630811,32.89126648228));
#436 = CARTESIAN_POINT('',(2.5,92.785215773375,35.22532935704));
#437 = CARTESIAN_POINT('',(2.5,98.488827911218,37.188567495945));
#438 = CARTESIAN_POINT('',(2.5,104.33058276399,38.733258296021));
#439 = CARTESIAN_POINT('',(2.5,110.24205509129,39.811484437301));
#440 = CARTESIAN_POINT('',(2.5,116.15473287571,40.375));
#441 = CARTESIAN_POINT('',(2.5,122.,40.375));
#442 = CARTESIAN_POINT('',(-2.5,69.505146937085,-20.6714142189));
#443 = CARTESIAN_POINT('',(-2.5,64.266900361652,-18.02619714414));
#444 = CARTESIAN_POINT('',(-2.5,60.193621972962,-15.07258345599));
#445 = CARTESIAN_POINT('',(-2.5,57.214864625651,-11.85024624788));
#446 = CARTESIAN_POINT('',(-2.499999999999,55.284774986696,
    -8.421106082911));
#447 = CARTESIAN_POINT('',(-2.500000000001,54.259215837154,
    -4.759824530333));
#448 = CARTESIAN_POINT('',(-2.499999999999,54.32355518336,
    -1.001685040891));
#449 = CARTESIAN_POINT('',(-2.500000000001,55.107954874559,
    2.729974418486));
#450 = CARTESIAN_POINT('',(-2.5,56.700793346767,6.502139843366));
#451 = CARTESIAN_POINT('',(-2.5,58.969173339921,10.210701636671));
#452 = CARTESIAN_POINT('',(-2.5,64.745805047502,17.449036380147));
#453 = CARTESIAN_POINT('',(-2.5,72.71959758421,24.138541973903));
#454 = CARTESIAN_POINT('',(-2.5,77.186872017596,27.300710578452));
#455 = CARTESIAN_POINT('',(-2.5,82.065871115689,30.233944059006));
#456 = CARTESIAN_POINT('',(-2.5,87.288113630811,32.89126648228));
#457 = CARTESIAN_POINT('',(-2.5,92.785215773375,35.22532935704));
#458 = CARTESIAN_POINT('',(-2.5,98.488827911218,37.188567495945));
#459 = CARTESIAN_POINT('',(-2.5,104.33058276399,38.733258296021));
#460 = CARTESIAN_POINT('',(-2.5,110.24205509129,39.811484437301));
#461 = CARTESIAN_POINT('',(-2.5,116.15473287571,40.375));
#462 = CARTESIAN_POINT('',(-2.5,122.,40.375));
#463 = DEFINITIONAL_REPRESENTATION('',(#464),#467);
#464 = B_SPLINE_CURVE_WITH_KNOTS('',1,(#465,#466),.UNSPECIFIED.,.F.,.F.,
  (2,2),(0.,1.),.PIECEWISE_BEZIER_KNOTS.);
#465 = CARTESIAN_POINT('',(0.,0.));
#466 = CARTESIAN_POINT('',(0.,1.));
#467 = ( GEOMETRIC_REPRESENTATION_CONTEXT(2) 
PARAMETRIC_REPRESENTATION_CONTEXT() REPRESENTATION_CONTEXT('2D SPACE',''
  ) );
#468 = ORIENTED_EDGE('',*,*,#469,.T.);
#469 = EDGE_CURVE('',#369,#470,#472,.T.);
#470 = VERTEX_POINT('',#471);
#471 = CARTESIAN_POINT('',(2.5,137.,40.375));
#472 = SURFACE_CURVE('',#473,(#478,#486),.PCURVE_S1.);
#473 = B_SPLINE_CURVE_WITH_KNOTS('',3,(#474,#475,#476,#477),
  .UNSPECIFIED.,.F.,.F.,(4,4),(0.,1.),.PIECEWISE_BEZIER_KNOTS.);
#474 = CARTESIAN_POINT('',(2.5,122.,40.375));
#475 = CARTESIAN_POINT('',(2.5,122.1,40.375));
#476 = CARTESIAN_POINT('',(2.5,136.9,40.375));
#477 = CARTESIAN_POINT('',(2.5,137.,40.375));
#478 = PCURVE('',#102,#479);
#479 = DEFINITIONAL_REPRESENTATION('',(#480),#485);
#480 = B_SPLINE_CURVE_WITH_KNOTS('',3,(#481,#482,#483,#484),
  .UNSPECIFIED.,.F.,.F.,(4,4),(0.,1.),.PIECEWISE_BEZIER_KNOTS.);
#481 = CARTESIAN_POINT('',(88.375,137.));
#482 = CARTESIAN_POINT('',(88.375,137.1));
#483 = CARTESIAN_POINT('',(88.375,151.9));
#484 = CARTESIAN_POINT('',(88.375,152.));
#485 = ( GEOMETRIC_REPRESENTATION_CONTEXT(2) 
PARAMETRIC_REPRESENTATION_CONTEXT() REPRESENTATION_CONTEXT('2D SPACE',''
  ) );
#486 = PCURVE('',#487,#492);
#487 = PLANE('',#488);
#488 = AXIS2_PLACEMENT_3D('',#489,#490,#491);
#489 = CARTESIAN_POINT('',(0.,129.5,40.375));
#490 = DIRECTION('',(-6.224589255419E-16,3.85994233285E-16,-1.));
#491 = DIRECTION('',(-1.,-5.165465746943E-17,6.224589255419E-16));
#492 = DEFINITIONAL_REPRESENTATION('',(#493),#498);
#493 = B_SPLINE_CURVE_WITH_KNOTS('',3,(#494,#495,#496,#497),
  .UNSPECIFIED.,.F.,.F.,(4,4),(0.,1.),.PIECEWISE_BEZIER_KNOTS.);
#494 = CARTESIAN_POINT('',(-2.5,-7.5));
#495 = CARTESIAN_POINT('',(-2.5,-7.4));
#496 = CARTESIAN_POINT('',(-2.5,7.4));
#497 = CARTESIAN_POINT('',(-2.5,7.5));
#498 = ( GEOMETRIC_REPRESENTATION_CONTEXT(2) 
PARAMETRIC_REPRESENTATION_CONTEXT() REPRESENTATION_CONTEXT('2D SPACE',''
  ) );
#499 = ORIENTED_EDGE('',*,*,#500,.F.);
#500 = EDGE_CURVE('',#501,#470,#503,.T.);
#501 = VERTEX_POINT('',#502);
#502 = CARTESIAN_POINT('',(2.5,137.,39.625));
#503 = SURFACE_CURVE('',#504,(#507,#513),.PCURVE_S1.);
#504 = B_SPLINE_CURVE_WITH_KNOTS('',1,(#505,#506),.UNSPECIFIED.,.F.,.F.,
  (2,2),(0.,0.75),.PIECEWISE_BEZIER_KNOTS.);
#505 = CARTESIAN_POINT('',(2.5,137.,39.625));
#506 = CARTESIAN_POINT('',(2.5,137.,40.375));
#507 = PCURVE('',#102,#508);
#508 = DEFINITIONAL_REPRESENTATION('',(#509),#512);
#509 = B_SPLINE_CURVE_WITH_KNOTS('',1,(#510,#511),.UNSPECIFIED.,.F.,.F.,
  (2,2),(0.,0.75),.PIECEWISE_BEZIER_KNOTS.);
#510 = CARTESIAN_POINT('',(87.625,152.));
#511 = CARTESIAN_POINT('',(88.375,152.));
#512 = ( GEOMETRIC_REPRESENTATION_CONTEXT(2) 
PARAMETRIC_REPRESENTATION_CONTEXT() REPRESENTATION_CONTEXT('2D SPACE',''
  ) );
#513 = PCURVE('',#514,#519);
#514 = PLANE('',#515);
#515 = AXIS2_PLACEMENT_3D('',#516,#517,#518);
#516 = CARTESIAN_POINT('',(0.,137.,40.));
#517 = DIRECTION('',(-0.,-1.,-0.));
#518 = DIRECTION('',(0.,0.,-1.));
#519 = DEFINITIONAL_REPRESENTATION('',(#520),#523);
#520 = B_SPLINE_CURVE_WITH_KNOTS('',1,(#521,#522),.UNSPECIFIED.,.F.,.F.,
  (2,2),(0.,0.75),.PIECEWISE_BEZIER_KNOTS.);
#521 = CARTESIAN_POINT('',(0.375,2.5));
#522 = CARTESIAN_POINT('',(-0.375,2.5));
#523 = ( GEOMETRIC_REPRESENTATION_CONTEXT(2) 
PARAMETRIC_REPRESENTATION_CONTEXT() REPRESENTATION_CONTEXT('2D SPACE',''
  ) );
#524 = ORIENTED_EDGE('',*,*,#525,.F.);
#525 = EDGE_CURVE('',#526,#501,#528,.T.);
#526 = VERTEX_POINT('',#527);
#527 = CARTESIAN_POINT('',(2.5,122.,39.625));
#528 = SURFACE_CURVE('',#529,(#534,#542),.PCURVE_S1.);
#529 = B_SPLINE_CURVE_WITH_KNOTS('',3,(#530,#531,#532,#533),
  .UNSPECIFIED.,.F.,.F.,(4,4),(0.,1.),.PIECEWISE_BEZIER_KNOTS.);
#530 = CARTESIAN_POINT('',(2.5,122.,39.625));
#531 = CARTESIAN_POINT('',(2.5,122.1,39.625));
#532 = CARTESIAN_POINT('',(2.5,136.9,39.625));
#533 = CARTESIAN_POINT('',(2.5,137.,39.625));
#534 = PCURVE('',#102,#535);
#535 = DEFINITIONAL_REPRESENTATION('',(#536),#541);
#536 = B_SPLINE_CURVE_WITH_KNOTS('',3,(#537,#538,#539,#540),
  .UNSPECIFIED.,.F.,.F.,(4,4),(0.,1.),.PIECEWISE_BEZIER_KNOTS.);
#537 = CARTESIAN_POINT('',(87.625,137.));
#538 = CARTESIAN_POINT('',(87.625,137.1));
#539 = CARTESIAN_POINT('',(87.625,151.9));
#540 = CARTESIAN_POINT('',(87.625,152.));
#541 = ( GEOMETRIC_REPRESENTATION_CONTEXT(2) 
PARAMETRIC_REPRESENTATION_CONTEXT() REPRESENTATION_CONTEXT('2D SPACE',''
  ) );
#542 = PCURVE('',#543,#548);
#543 = PLANE('',#544);
#544 = AXIS2_PLACEMENT_3D('',#545,#546,#547);
#545 = CARTESIAN_POINT('',(0.,129.5,39.625));
#546 = DIRECTION('',(4.134434038105E-32,-9.184356430369E-17,1.));
#547 = DIRECTION('',(1.,-5.165465746943E-17,-4.608848823593E-32));
#548 = DEFINITIONAL_REPRESENTATION('',(#549),#554);
#549 = B_SPLINE_CURVE_WITH_KNOTS('',3,(#550,#551,#552,#553),
  .UNSPECIFIED.,.F.,.F.,(4,4),(0.,1.),.PIECEWISE_BEZIER_KNOTS.);
#550 = CARTESIAN_POINT('',(2.5,-7.5));
#551 = CARTESIAN_POINT('',(2.5,-7.4));
#552 = CARTESIAN_POINT('',(2.5,7.4));
#553 = CARTESIAN_POINT('',(2.5,7.5));
#554 = ( GEOMETRIC_REPRESENTATION_CONTEXT(2) 
PARAMETRIC_REPRESENTATION_CONTEXT() REPRESENTATION_CONTEXT('2D SPACE',''
  ) );
#555 = ORIENTED_EDGE('',*,*,#556,.F.);
#556 = EDGE_CURVE('',#557,#526,#559,.T.);
#557 = VERTEX_POINT('',#558);
#558 = CARTESIAN_POINT('',(2.5,69.843222442044,-20.00193311166));
#559 = SURFACE_CURVE('',#560,(#582,#607),.PCURVE_S1.);
#560 = B_SPLINE_CURVE_WITH_KNOTS('',11,(#561,#562,#563,#564,#565,#566,
    #567,#568,#569,#570,#571,#572,#573,#574,#575,#576,#577,#578,#579,
    #580,#581),.UNSPECIFIED.,.F.,.F.,(12,9,12),(0.,0.5,1.),
  .UNSPECIFIED.);
#561 = CARTESIAN_POINT('',(2.5,69.843222442044,-20.00193311166));
#562 = CARTESIAN_POINT('',(2.5,64.687990219712,-17.39863674092));
#563 = CARTESIAN_POINT('',(2.5,60.711072933969,-14.50789402726));
#564 = CARTESIAN_POINT('',(2.5,57.844876727896,-11.38539505819));
#565 = CARTESIAN_POINT('',(2.499999999999,55.997213932365,
    -8.064582451597));
#566 = CARTESIAN_POINT('',(2.500000000001,55.174180763938,
    -4.666157819119));
#567 = CARTESIAN_POINT('',(2.499999999999,55.052368214197,
    -1.150200891043));
#568 = CARTESIAN_POINT('',(2.500000000001,55.863573431518,2.511263118677
    ));
#569 = CARTESIAN_POINT('',(2.5,57.381376977731,6.155885033457));
#570 = CARTESIAN_POINT('',(2.5,59.600635110618,9.792411269462));
#571 = CARTESIAN_POINT('',(2.5,65.277189865896,16.910127601954));
#572 = CARTESIAN_POINT('',(2.5,73.160240204635,23.526970395071));
#573 = CARTESIAN_POINT('',(2.5,77.584260309862,26.660187130722));
#574 = CARTESIAN_POINT('',(2.5,82.421387849086,29.569186956208));
#575 = CARTESIAN_POINT('',(2.5,87.602063067625,32.205582623787));
#576 = CARTESIAN_POINT('',(2.5,93.056628753004,34.521359443851));
#577 = CARTESIAN_POINT('',(2.5,98.715393534932,36.468719422656));
#578 = CARTESIAN_POINT('',(2.5,104.5086836917,38.000021982339));
#579 = CARTESIAN_POINT('',(2.5,110.36688346136,39.067821261829));
#580 = CARTESIAN_POINT('',(2.5,116.22046385913,39.625000000001));
#581 = CARTESIAN_POINT('',(2.5,122.,39.625));
#582 = PCURVE('',#102,#583);
#583 = DEFINITIONAL_REPRESENTATION('',(#584),#606);
#584 = B_SPLINE_CURVE_WITH_KNOTS('',11,(#585,#586,#587,#588,#589,#590,
    #591,#592,#593,#594,#595,#596,#597,#598,#599,#600,#601,#602,#603,
    #604,#605),.UNSPECIFIED.,.F.,.F.,(12,9,12),(0.,0.5,1.),
  .UNSPECIFIED.);
#585 = CARTESIAN_POINT('',(27.998066888335,84.843222442044));
#586 = CARTESIAN_POINT('',(30.601363259073,79.687990219712));
#587 = CARTESIAN_POINT('',(33.492105972737,75.711072933969));
#588 = CARTESIAN_POINT('',(36.614604941802,72.844876727896));
#589 = CARTESIAN_POINT('',(39.935417548403,70.997213932365));
#590 = CARTESIAN_POINT('',(43.333842180881,70.174180763938));
#591 = CARTESIAN_POINT('',(46.849799108957,70.052368214197));
#592 = CARTESIAN_POINT('',(50.511263118677,70.863573431518));
#593 = CARTESIAN_POINT('',(54.155885033457,72.381376977731));
#594 = CARTESIAN_POINT('',(57.792411269462,74.600635110618));
#595 = CARTESIAN_POINT('',(64.910127601954,80.277189865896));
#596 = CARTESIAN_POINT('',(71.526970395071,88.160240204635));
#597 = CARTESIAN_POINT('',(74.660187130722,92.584260309862));
#598 = CARTESIAN_POINT('',(77.569186956208,97.421387849086));
#599 = CARTESIAN_POINT('',(80.205582623787,102.60206306762));
#600 = CARTESIAN_POINT('',(82.521359443851,108.056628753));
#601 = CARTESIAN_POINT('',(84.468719422656,113.71539353493));
#602 = CARTESIAN_POINT('',(86.000021982339,119.5086836917));
#603 = CARTESIAN_POINT('',(87.067821261829,125.36688346136));
#604 = CARTESIAN_POINT('',(87.625000000001,131.22046385913));
#605 = CARTESIAN_POINT('',(87.625,137.));
#606 = ( GEOMETRIC_REPRESENTATION_CONTEXT(2) 
PARAMETRIC_REPRESENTATION_CONTEXT() REPRESENTATION_CONTEXT('2D SPACE',''
  ) );
#607 = PCURVE('',#608,#651);
#608 = B_SPLINE_SURFACE_WITH_KNOTS('',1,11,(
    (#609,#610,#611,#612,#613,#614,#615,#616,#617,#618,#619,#620,#621
      ,#622,#623,#624,#625,#626,#627,#628,#629)
    ,(#630,#631,#632,#633,#634,#635,#636,#637,#638,#639,#640,#641,#642
      ,#643,#644,#645,#646,#647,#648,#649,#650
  )),.UNSPECIFIED.,.F.,.F.,.F.,(2,2),(12,9,12),(0.,5.),(0.,0.5,1.),
  .UNSPECIFIED.);
#609 = CARTESIAN_POINT('',(-2.5,69.843222442044,-20.00193311166));
#610 = CARTESIAN_POINT('',(-2.5,64.687990219712,-17.39863674092));
#611 = CARTESIAN_POINT('',(-2.5,60.711072933969,-14.50789402726));
#612 = CARTESIAN_POINT('',(-2.5,57.844876727896,-11.38539505819));
#613 = CARTESIAN_POINT('',(-2.499999999999,55.997213932365,
    -8.064582451597));
#614 = CARTESIAN_POINT('',(-2.500000000001,55.174180763938,
    -4.666157819119));
#615 = CARTESIAN_POINT('',(-2.499999999999,55.052368214197,
    -1.150200891043));
#616 = CARTESIAN_POINT('',(-2.500000000001,55.863573431518,
    2.511263118677));
#617 = CARTESIAN_POINT('',(-2.5,57.381376977731,6.155885033457));
#618 = CARTESIAN_POINT('',(-2.5,59.600635110618,9.792411269462));
#619 = CARTESIAN_POINT('',(-2.5,65.277189865896,16.910127601954));
#620 = CARTESIAN_POINT('',(-2.5,73.160240204635,23.526970395071));
#621 = CARTESIAN_POINT('',(-2.5,77.584260309862,26.660187130722));
#622 = CARTESIAN_POINT('',(-2.5,82.421387849086,29.569186956208));
#623 = CARTESIAN_POINT('',(-2.5,87.602063067625,32.205582623787));
#624 = CARTESIAN_POINT('',(-2.5,93.056628753004,34.521359443851));
#625 = CARTESIAN_POINT('',(-2.5,98.715393534932,36.468719422656));
#626 = CARTESIAN_POINT('',(-2.5,104.5086836917,38.000021982339));
#627 = CARTESIAN_POINT('',(-2.5,110.36688346136,39.067821261829));
#628 = CARTESIAN_POINT('',(-2.5,116.22046385913,39.625000000001));
#629 = CARTESIAN_POINT('',(-2.5,122.,39.625));
#630 = CARTESIAN_POINT('',(2.5,69.843222442044,-20.00193311166));
#631 = CARTESIAN_POINT('',(2.5,64.687990219712,-17.39863674092));
#632 = CARTESIAN_POINT('',(2.5,60.711072933969,-14.50789402726));
#633 = CARTESIAN_POINT('',(2.5,57.844876727896,-11.38539505819));
#634 = CARTESIAN_POINT('',(2.499999999999,55.997213932365,
    -8.064582451597));
#635 = CARTESIAN_POINT('',(2.500000000001,55.174180763938,
    -4.666157819119));
#636 = CARTESIAN_POINT('',(2.499999999999,55.052368214197,
    -1.150200891043));
#637 = CARTESIAN_POINT('',(2.500000000001,55.863573431518,2.511263118677
    ));
#638 = CARTESIAN_POINT('',(2.5,57.381376977731,6.155885033457));
#639 = CARTESIAN_POINT('',(2.5,59.600635110618,9.792411269462));
#640 = CARTESIAN_POINT('',(2.5,65.277189865896,16.910127601954));
#641 = CARTESIAN_POINT('',(2.5,73.160240204635,23.526970395071));
#642 = CARTESIAN_POINT('',(2.5,77.584260309862,26.660187130722));
#643 = CARTESIAN_POINT('',(2.5,82.421387849086,29.569186956208));
#644 = CARTESIAN_POINT('',(2.5,87.602063067625,32.205582623787));
#645 = CARTESIAN_POINT('',(2.5,93.056628753004,34.521359443851));
#646 = CARTESIAN_POINT('',(2.5,98.715393534932,36.468719422656));
#647 = CARTESIAN_POINT('',(2.5,104.5086836917,38.000021982339));
#648 = CARTESIAN_POINT('',(2.5,110.36688346136,39.067821261829));
#649 = CARTESIAN_POINT('',(2.5,116.22046385913,39.625000000001));
#650 = CARTESIAN_POINT('',(2.5,122.,39.625));
#651 = DEFINITIONAL_REPRESENTATION('',(#652),#656);
#652 = LINE('',#653,#654);
#653 = CARTESIAN_POINT('',(5.,0.));
#654 = VECTOR('',#655,1.);
#655 = DIRECTION('',(0.,1.));
#656 = ( GEOMETRIC_REPRESENTATION_CONTEXT(2) 
PARAMETRIC_REPRESENTATION_CONTEXT() REPRESENTATION_CONTEXT('2D SPACE',''
  ) );
#657 = ORIENTED_EDGE('',*,*,#658,.F.);
#658 = EDGE_CURVE('',#85,#557,#659,.T.);
#659 = SURFACE_CURVE('',#660,(#688,#719),.PCURVE_S1.);
#660 = B_SPLINE_CURVE_WITH_KNOTS('',8,(#661,#662,#663,#664,#665,#666,
    #667,#668,#669,#670,#671,#672,#673,#674,#675,#676,#677,#678,#679,
    #680,#681,#682,#683,#684,#685,#686,#687),.UNSPECIFIED.,.F.,.F.,(9,6,
    6,6,9),(0.,0.5,0.75,0.875,1.),.UNSPECIFIED.);
#661 = CARTESIAN_POINT('',(2.5,0.,-48.375));
#662 = CARTESIAN_POINT('',(2.5,6.231330492232,-48.375));
#663 = CARTESIAN_POINT('',(2.5,13.581216020332,-48.15536639033));
#664 = CARTESIAN_POINT('',(2.5,21.706597659415,-47.70948962043));
#665 = CARTESIAN_POINT('',(2.5,30.259728747377,-47.03057191429));
#666 = CARTESIAN_POINT('',(2.5,38.894544477159,-46.11105588448));
#667 = CARTESIAN_POINT('',(2.5,47.265165948849,-44.94394097819));
#668 = CARTESIAN_POINT('',(2.5,58.904341110451,-42.81215754738));
#669 = CARTESIAN_POINT('',(2.5,68.400972719278,-40.08493654617));
#670 = CARTESIAN_POINT('',(2.5,71.285756397174,-39.1070520487));
#671 = CARTESIAN_POINT('',(2.5,73.847648867486,-38.0666872894));
#672 = CARTESIAN_POINT('',(2.5,76.046434128088,-36.93912646326));
#673 = CARTESIAN_POINT('',(2.5,77.834722248862,-35.75684097718));
#674 = CARTESIAN_POINT('',(2.5,79.875111200625,-33.82822231154));
#675 = CARTESIAN_POINT('',(2.5,80.769743587822,-31.64358273526));
#676 = CARTESIAN_POINT('',(2.5,80.931095243456,-30.88667878842));
#677 = CARTESIAN_POINT('',(2.5,80.941374835828,-30.09820363343));
#678 = CARTESIAN_POINT('',(2.5,80.787431782721,-29.30663462298));
#679 = CARTESIAN_POINT('',(2.5,80.485111157392,-28.50993264789));
#680 = CARTESIAN_POINT('',(2.5,79.572078241071,-26.90183194026));
#681 = CARTESIAN_POINT('',(2.5,78.031546425684,-25.25509395213));
#682 = CARTESIAN_POINT('',(2.5,77.100945211811,-24.41946807695));
#683 = CARTESIAN_POINT('',(2.5,76.004555080372,-23.56937629988));
#684 = CARTESIAN_POINT('',(2.5,74.736337828001,-22.70327692272));
#685 = CARTESIAN_POINT('',(2.5,73.290438840602,-21.82030837485));
#686 = CARTESIAN_POINT('',(2.5,71.661315018032,-20.920036041));
#687 = CARTESIAN_POINT('',(2.5,69.843222442044,-20.00193311166));
#688 = PCURVE('',#102,#689);
#689 = DEFINITIONAL_REPRESENTATION('',(#690),#718);
#690 = B_SPLINE_CURVE_WITH_KNOTS('',8,(#691,#692,#693,#694,#695,#696,
    #697,#698,#699,#700,#701,#702,#703,#704,#705,#706,#707,#708,#709,
    #710,#711,#712,#713,#714,#715,#716,#717),.UNSPECIFIED.,.F.,.F.,(9,6,
    6,6,9),(0.,0.5,0.75,0.875,1.),.UNSPECIFIED.);
#691 = CARTESIAN_POINT('',(-0.375,15.));
#692 = CARTESIAN_POINT('',(-0.375,21.231330492232));
#693 = CARTESIAN_POINT('',(-0.155366390334,28.581216020332));
#694 = CARTESIAN_POINT('',(0.290510379569,36.706597659415));
#695 = CARTESIAN_POINT('',(0.969428085703,45.259728747377));
#696 = CARTESIAN_POINT('',(1.888944115512,53.894544477159));
#697 = CARTESIAN_POINT('',(3.056059021804,62.265165948849));
#698 = CARTESIAN_POINT('',(5.187842452618,73.904341110451));
#699 = CARTESIAN_POINT('',(7.915063453822,83.400972719278));
#700 = CARTESIAN_POINT('',(8.892947951292,86.285756397174));
#701 = CARTESIAN_POINT('',(9.933312710592,88.847648867486));
#702 = CARTESIAN_POINT('',(11.060873536734,91.046434128088));
#703 = CARTESIAN_POINT('',(12.243159022817,92.834722248862));
#704 = CARTESIAN_POINT('',(14.171777688456,94.875111200625));
#705 = CARTESIAN_POINT('',(16.35641726474,95.769743587822));
#706 = CARTESIAN_POINT('',(17.113321211579,95.931095243456));
#707 = CARTESIAN_POINT('',(17.901796366566,95.941374835828));
#708 = CARTESIAN_POINT('',(18.693365377011,95.787431782721));
#709 = CARTESIAN_POINT('',(19.490067352107,95.485111157392));
#710 = CARTESIAN_POINT('',(21.098168059739,94.572078241071));
#711 = CARTESIAN_POINT('',(22.744906047865,93.031546425684));
#712 = CARTESIAN_POINT('',(23.58053192305,92.100945211811));
#713 = CARTESIAN_POINT('',(24.430623700117,91.004555080372));
#714 = CARTESIAN_POINT('',(25.296723077276,89.736337828001));
#715 = CARTESIAN_POINT('',(26.179691625141,88.290438840602));
#716 = CARTESIAN_POINT('',(27.079963958998,86.661315018032));
#717 = CARTESIAN_POINT('',(27.998066888335,84.843222442044));
#718 = ( GEOMETRIC_REPRESENTATION_CONTEXT(2) 
PARAMETRIC_REPRESENTATION_CONTEXT() REPRESENTATION_CONTEXT('2D SPACE',''
  ) );
#719 = PCURVE('',#127,#720);
#720 = DEFINITIONAL_REPRESENTATION('',(#721),#725);
#721 = LINE('',#722,#723);
#722 = CARTESIAN_POINT('',(5.,0.));
#723 = VECTOR('',#724,1.);
#724 = DIRECTION('',(0.,1.));
#725 = ( GEOMETRIC_REPRESENTATION_CONTEXT(2) 
PARAMETRIC_REPRESENTATION_CONTEXT() REPRESENTATION_CONTEXT('2D SPACE',''
  ) );
#726 = ADVANCED_FACE('',(#727),#230,.F.);
#727 = FACE_BOUND('',#728,.F.);
#728 = EDGE_LOOP('',(#729,#730,#750,#776));
#729 = ORIENTED_EDGE('',*,*,#212,.F.);
#730 = ORIENTED_EDGE('',*,*,#731,.T.);
#731 = EDGE_CURVE('',#193,#732,#734,.T.);
#732 = VERTEX_POINT('',#733);
#733 = CARTESIAN_POINT('',(-2.5,-30.,-47.625));
#734 = SURFACE_CURVE('',#735,(#738,#744),.PCURVE_S1.);
#735 = B_SPLINE_CURVE_WITH_KNOTS('',1,(#736,#737),.UNSPECIFIED.,.F.,.F.,
  (2,2),(0.,5.),.PIECEWISE_BEZIER_KNOTS.);
#736 = CARTESIAN_POINT('',(2.5,-30.,-47.625));
#737 = CARTESIAN_POINT('',(-2.5,-30.,-47.625));
#738 = PCURVE('',#230,#739);
#739 = DEFINITIONAL_REPRESENTATION('',(#740),#743);
#740 = B_SPLINE_CURVE_WITH_KNOTS('',1,(#741,#742),.UNSPECIFIED.,.F.,.F.,
  (2,2),(0.,5.),.PIECEWISE_BEZIER_KNOTS.);
#741 = CARTESIAN_POINT('',(-2.5,-15.));
#742 = CARTESIAN_POINT('',(2.5,-15.));
#743 = ( GEOMETRIC_REPRESENTATION_CONTEXT(2) 
PARAMETRIC_REPRESENTATION_CONTEXT() REPRESENTATION_CONTEXT('2D SPACE',''
  ) );
#744 = PCURVE('',#73,#745);
#745 = DEFINITIONAL_REPRESENTATION('',(#746),#749);
#746 = B_SPLINE_CURVE_WITH_KNOTS('',1,(#747,#748),.UNSPECIFIED.,.F.,.F.,
  (2,2),(0.,5.),.PIECEWISE_BEZIER_KNOTS.);
#747 = CARTESIAN_POINT('',(-0.375,2.5));
#748 = CARTESIAN_POINT('',(-0.375,-2.5));
#749 = ( GEOMETRIC_REPRESENTATION_CONTEXT(2) 
PARAMETRIC_REPRESENTATION_CONTEXT() REPRESENTATION_CONTEXT('2D SPACE',''
  ) );
#750 = ORIENTED_EDGE('',*,*,#751,.T.);
#751 = EDGE_CURVE('',#732,#752,#754,.T.);
#752 = VERTEX_POINT('',#753);
#753 = CARTESIAN_POINT('',(-2.5,3.552713678801E-15,-47.625));
#754 = SURFACE_CURVE('',#755,(#760,#768),.PCURVE_S1.);
#755 = B_SPLINE_CURVE_WITH_KNOTS('',3,(#756,#757,#758,#759),
  .UNSPECIFIED.,.F.,.F.,(4,4),(0.,1.),.PIECEWISE_BEZIER_KNOTS.);
#756 = CARTESIAN_POINT('',(-2.5,-30.,-47.625));
#757 = CARTESIAN_POINT('',(-2.5,-29.9,-47.625));
#758 = CARTESIAN_POINT('',(-2.5,-1.E-01,-47.625));
#759 = CARTESIAN_POINT('',(-2.5,8.881784197001E-15,-47.625));
#760 = PCURVE('',#230,#761);
#761 = DEFINITIONAL_REPRESENTATION('',(#762),#767);
#762 = B_SPLINE_CURVE_WITH_KNOTS('',3,(#763,#764,#765,#766),
  .UNSPECIFIED.,.F.,.F.,(4,4),(0.,1.),.PIECEWISE_BEZIER_KNOTS.);
#763 = CARTESIAN_POINT('',(2.5,-15.));
#764 = CARTESIAN_POINT('',(2.5,-14.9));
#765 = CARTESIAN_POINT('',(2.5,14.9));
#766 = CARTESIAN_POINT('',(2.5,15.));
#767 = ( GEOMETRIC_REPRESENTATION_CONTEXT(2) 
PARAMETRIC_REPRESENTATION_CONTEXT() REPRESENTATION_CONTEXT('2D SPACE',''
  ) );
#768 = PCURVE('',#46,#769);
#769 = DEFINITIONAL_REPRESENTATION('',(#770),#775);
#770 = B_SPLINE_CURVE_WITH_KNOTS('',3,(#771,#772,#773,#774),
  .UNSPECIFIED.,.F.,.F.,(4,4),(0.,1.),.PIECEWISE_BEZIER_KNOTS.);
#771 = CARTESIAN_POINT('',(-0.375,-15.));
#772 = CARTESIAN_POINT('',(-0.375,-14.9));
#773 = CARTESIAN_POINT('',(-0.375,14.9));
#774 = CARTESIAN_POINT('',(-0.375,15.));
#775 = ( GEOMETRIC_REPRESENTATION_CONTEXT(2) 
PARAMETRIC_REPRESENTATION_CONTEXT() REPRESENTATION_CONTEXT('2D SPACE',''
  ) );
#776 = ORIENTED_EDGE('',*,*,#777,.F.);
#777 = EDGE_CURVE('',#213,#752,#778,.T.);
#778 = SURFACE_CURVE('',#779,(#782,#788),.PCURVE_S1.);
#779 = B_SPLINE_CURVE_WITH_KNOTS('',1,(#780,#781),.UNSPECIFIED.,.F.,.F.,
  (2,2),(0.,5.),.PIECEWISE_BEZIER_KNOTS.);
#780 = CARTESIAN_POINT('',(2.5,8.881784197001E-15,-47.625));
#781 = CARTESIAN_POINT('',(-2.5,8.881784197001E-15,-47.625));
#782 = PCURVE('',#230,#783);
#783 = DEFINITIONAL_REPRESENTATION('',(#784),#787);
#784 = B_SPLINE_CURVE_WITH_KNOTS('',1,(#785,#786),.UNSPECIFIED.,.F.,.F.,
  (2,2),(0.,5.),.PIECEWISE_BEZIER_KNOTS.);
#785 = CARTESIAN_POINT('',(-2.5,15.));
#786 = CARTESIAN_POINT('',(2.5,15.));
#787 = ( GEOMETRIC_REPRESENTATION_CONTEXT(2) 
PARAMETRIC_REPRESENTATION_CONTEXT() REPRESENTATION_CONTEXT('2D SPACE',''
  ) );
#788 = PCURVE('',#307,#789);
#789 = DEFINITIONAL_REPRESENTATION('',(#790),#793);
#790 = B_SPLINE_CURVE_WITH_KNOTS('',1,(#791,#792),.UNSPECIFIED.,.F.,.F.,
  (2,2),(0.,5.),.PIECEWISE_BEZIER_KNOTS.);
#791 = CARTESIAN_POINT('',(0.,0.));
#792 = CARTESIAN_POINT('',(5.,0.));
#793 = ( GEOMETRIC_REPRESENTATION_CONTEXT(2) 
PARAMETRIC_REPRESENTATION_CONTEXT() REPRESENTATION_CONTEXT('2D SPACE',''
  ) );
#794 = ADVANCED_FACE('',(#795),#46,.F.);
#795 = FACE_BOUND('',#796,.F.);
#796 = EDGE_LOOP('',(#797,#798,#816,#817,#888,#947,#973,#993,#1019,#1078
    ));
#797 = ORIENTED_EDGE('',*,*,#751,.F.);
#798 = ORIENTED_EDGE('',*,*,#799,.T.);
#799 = EDGE_CURVE('',#732,#22,#800,.T.);
#800 = SURFACE_CURVE('',#801,(#804,#810),.PCURVE_S1.);
#801 = B_SPLINE_CURVE_WITH_KNOTS('',1,(#802,#803),.UNSPECIFIED.,.F.,.F.,
  (2,2),(0.,0.75),.PIECEWISE_BEZIER_KNOTS.);
#802 = CARTESIAN_POINT('',(-2.5,-30.,-47.625));
#803 = CARTESIAN_POINT('',(-2.5,-30.,-48.375));
#804 = PCURVE('',#46,#805);
#805 = DEFINITIONAL_REPRESENTATION('',(#806),#809);
#806 = B_SPLINE_CURVE_WITH_KNOTS('',1,(#807,#808),.UNSPECIFIED.,.F.,.F.,
  (2,2),(0.,0.75),.PIECEWISE_BEZIER_KNOTS.);
#807 = CARTESIAN_POINT('',(-0.375,-15.));
#808 = CARTESIAN_POINT('',(0.375,-15.));
#809 = ( GEOMETRIC_REPRESENTATION_CONTEXT(2) 
PARAMETRIC_REPRESENTATION_CONTEXT() REPRESENTATION_CONTEXT('2D SPACE',''
  ) );
#810 = PCURVE('',#73,#811);
#811 = DEFINITIONAL_REPRESENTATION('',(#812),#815);
#812 = B_SPLINE_CURVE_WITH_KNOTS('',1,(#813,#814),.UNSPECIFIED.,.F.,.F.,
  (2,2),(0.,0.75),.PIECEWISE_BEZIER_KNOTS.);
#813 = CARTESIAN_POINT('',(-0.375,-2.5));
#814 = CARTESIAN_POINT('',(0.375,-2.5));
#815 = ( GEOMETRIC_REPRESENTATION_CONTEXT(2) 
PARAMETRIC_REPRESENTATION_CONTEXT() REPRESENTATION_CONTEXT('2D SPACE',''
  ) );
#816 = ORIENTED_EDGE('',*,*,#21,.T.);
#817 = ORIENTED_EDGE('',*,*,#818,.T.);
#818 = EDGE_CURVE('',#24,#819,#821,.T.);
#819 = VERTEX_POINT('',#820);
#820 = CARTESIAN_POINT('',(-2.5,69.843222442044,-20.00193311166));
#821 = SURFACE_CURVE('',#822,(#850,#881),.PCURVE_S1.);
#822 = B_SPLINE_CURVE_WITH_KNOTS('',8,(#823,#824,#825,#826,#827,#828,
    #829,#830,#831,#832,#833,#834,#835,#836,#837,#838,#839,#840,#841,
    #842,#843,#844,#845,#846,#847,#848,#849),.UNSPECIFIED.,.F.,.F.,(9,6,
    6,6,9),(0.,0.5,0.75,0.875,1.),.UNSPECIFIED.);
#823 = CARTESIAN_POINT('',(-2.5,0.,-48.375));
#824 = CARTESIAN_POINT('',(-2.5,6.231330492232,-48.375));
#825 = CARTESIAN_POINT('',(-2.5,13.581216020332,-48.15536639033));
#826 = CARTESIAN_POINT('',(-2.5,21.706597659415,-47.70948962043));
#827 = CARTESIAN_POINT('',(-2.5,30.259728747377,-47.03057191429));
#828 = CARTESIAN_POINT('',(-2.5,38.894544477159,-46.11105588448));
#829 = CARTESIAN_POINT('',(-2.5,47.265165948849,-44.94394097819));
#830 = CARTESIAN_POINT('',(-2.5,58.904341110451,-42.81215754738));
#831 = CARTESIAN_POINT('',(-2.5,68.400972719278,-40.08493654617));
#832 = CARTESIAN_POINT('',(-2.5,71.285756397174,-39.1070520487));
#833 = CARTESIAN_POINT('',(-2.5,73.847648867486,-38.0666872894));
#834 = CARTESIAN_POINT('',(-2.5,76.046434128088,-36.93912646326));
#835 = CARTESIAN_POINT('',(-2.5,77.834722248862,-35.75684097718));
#836 = CARTESIAN_POINT('',(-2.5,79.875111200625,-33.82822231154));
#837 = CARTESIAN_POINT('',(-2.5,80.769743587822,-31.64358273526));
#838 = CARTESIAN_POINT('',(-2.5,80.931095243456,-30.88667878842));
#839 = CARTESIAN_POINT('',(-2.5,80.941374835828,-30.09820363343));
#840 = CARTESIAN_POINT('',(-2.5,80.787431782721,-29.30663462298));
#841 = CARTESIAN_POINT('',(-2.5,80.485111157392,-28.50993264789));
#842 = CARTESIAN_POINT('',(-2.5,79.572078241071,-26.90183194026));
#843 = CARTESIAN_POINT('',(-2.5,78.031546425684,-25.25509395213));
#844 = CARTESIAN_POINT('',(-2.5,77.100945211811,-24.41946807695));
#845 = CARTESIAN_POINT('',(-2.5,76.004555080372,-23.56937629988));
#846 = CARTESIAN_POINT('',(-2.5,74.736337828001,-22.70327692272));
#847 = CARTESIAN_POINT('',(-2.5,73.290438840602,-21.82030837485));
#848 = CARTESIAN_POINT('',(-2.5,71.661315018032,-20.920036041));
#849 = CARTESIAN_POINT('',(-2.5,69.843222442044,-20.00193311166));
#850 = PCURVE('',#46,#851);
#851 = DEFINITIONAL_REPRESENTATION('',(#852),#880);
#852 = B_SPLINE_CURVE_WITH_KNOTS('',8,(#853,#854,#855,#856,#857,#858,
    #859,#860,#861,#862,#863,#864,#865,#866,#867,#868,#869,#870,#871,
    #872,#873,#874,#875,#876,#877,#878,#879),.UNSPECIFIED.,.F.,.F.,(9,6,
    6,6,9),(0.,0.5,0.75,0.875,1.),.UNSPECIFIED.);
#853 = CARTESIAN_POINT('',(0.375,15.));
#854 = CARTESIAN_POINT('',(0.375,21.231330492232));
#855 = CARTESIAN_POINT('',(0.155366390334,28.581216020332));
#856 = CARTESIAN_POINT('',(-0.290510379569,36.706597659415));
#857 = CARTESIAN_POINT('',(-0.969428085703,45.259728747377));
#858 = CARTESIAN_POINT('',(-1.888944115512,53.894544477159));
#859 = CARTESIAN_POINT('',(-3.056059021805,62.265165948849));
#860 = CARTESIAN_POINT('',(-5.187842452618,73.904341110451));
#861 = CARTESIAN_POINT('',(-7.915063453822,83.400972719278));
#862 = CARTESIAN_POINT('',(-8.892947951292,86.285756397174));
#863 = CARTESIAN_POINT('',(-9.933312710592,88.847648867486));
#864 = CARTESIAN_POINT('',(-11.06087353673,91.046434128088));
#865 = CARTESIAN_POINT('',(-12.24315902281,92.834722248862));
#866 = CARTESIAN_POINT('',(-14.17177768845,94.875111200625));
#867 = CARTESIAN_POINT('',(-16.35641726474,95.769743587822));
#868 = CARTESIAN_POINT('',(-17.11332121157,95.931095243456));
#869 = CARTESIAN_POINT('',(-17.90179636656,95.941374835828));
#870 = CARTESIAN_POINT('',(-18.69336537701,95.787431782721));
#871 = CARTESIAN_POINT('',(-19.4900673521,95.485111157392));
#872 = CARTESIAN_POINT('',(-21.09816805973,94.572078241071));
#873 = CARTESIAN_POINT('',(-22.74490604786,93.031546425684));
#874 = CARTESIAN_POINT('',(-23.58053192305,92.100945211811));
#875 = CARTESIAN_POINT('',(-24.43062370011,91.004555080372));
#876 = CARTESIAN_POINT('',(-25.29672307727,89.736337828001));
#877 = CARTESIAN_POINT('',(-26.17969162514,88.290438840602));
#878 = CARTESIAN_POINT('',(-27.07996395899,86.661315018032));
#879 = CARTESIAN_POINT('',(-27.99806688833,84.843222442044));
#880 = ( GEOMETRIC_REPRESENTATION_CONTEXT(2) 
PARAMETRIC_REPRESENTATION_CONTEXT() REPRESENTATION_CONTEXT('2D SPACE',''
  ) );
#881 = PCURVE('',#127,#882);
#882 = DEFINITIONAL_REPRESENTATION('',(#883),#887);
#883 = LINE('',#884,#885);
#884 = CARTESIAN_POINT('',(0.,0.));
#885 = VECTOR('',#886,1.);
#886 = DIRECTION('',(0.,1.));
#887 = ( GEOMETRIC_REPRESENTATION_CONTEXT(2) 
PARAMETRIC_REPRESENTATION_CONTEXT() REPRESENTATION_CONTEXT('2D SPACE',''
  ) );
#888 = ORIENTED_EDGE('',*,*,#889,.T.);
#889 = EDGE_CURVE('',#819,#890,#892,.T.);
#890 = VERTEX_POINT('',#891);
#891 = CARTESIAN_POINT('',(-2.5,122.,39.625));
#892 = SURFACE_CURVE('',#893,(#915,#940),.PCURVE_S1.);
#893 = B_SPLINE_CURVE_WITH_KNOTS('',11,(#894,#895,#896,#897,#898,#899,
    #900,#901,#902,#903,#904,#905,#906,#907,#908,#909,#910,#911,#912,
    #913,#914),.UNSPECIFIED.,.F.,.F.,(12,9,12),(0.,0.5,1.),
  .UNSPECIFIED.);
#894 = CARTESIAN_POINT('',(-2.5,69.843222442044,-20.00193311166));
#895 = CARTESIAN_POINT('',(-2.5,64.687990219712,-17.39863674092));
#896 = CARTESIAN_POINT('',(-2.5,60.711072933969,-14.50789402726));
#897 = CARTESIAN_POINT('',(-2.5,57.844876727896,-11.38539505819));
#898 = CARTESIAN_POINT('',(-2.499999999999,55.997213932365,
    -8.064582451597));
#899 = CARTESIAN_POINT('',(-2.500000000001,55.174180763938,
    -4.666157819119));
#900 = CARTESIAN_POINT('',(-2.499999999999,55.052368214197,
    -1.150200891043));
#901 = CARTESIAN_POINT('',(-2.500000000001,55.863573431518,
    2.511263118677));
#902 = CARTESIAN_POINT('',(-2.5,57.381376977731,6.155885033457));
#903 = CARTESIAN_POINT('',(-2.5,59.600635110618,9.792411269462));
#904 = CARTESIAN_POINT('',(-2.5,65.277189865896,16.910127601954));
#905 = CARTESIAN_POINT('',(-2.5,73.160240204635,23.526970395071));
#906 = CARTESIAN_POINT('',(-2.5,77.584260309862,26.660187130722));
#907 = CARTESIAN_POINT('',(-2.5,82.421387849086,29.569186956208));
#908 = CARTESIAN_POINT('',(-2.5,87.602063067625,32.205582623787));
#909 = CARTESIAN_POINT('',(-2.5,93.056628753004,34.521359443851));
#910 = CARTESIAN_POINT('',(-2.5,98.715393534932,36.468719422656));
#911 = CARTESIAN_POINT('',(-2.5,104.5086836917,38.000021982339));
#912 = CARTESIAN_POINT('',(-2.5,110.36688346136,39.067821261829));
#913 = CARTESIAN_POINT('',(-2.5,116.22046385913,39.625000000001));
#914 = CARTESIAN_POINT('',(-2.5,122.,39.625));
#915 = PCURVE('',#46,#916);
#916 = DEFINITIONAL_REPRESENTATION('',(#917),#939);
#917 = B_SPLINE_CURVE_WITH_KNOTS('',11,(#918,#919,#920,#921,#922,#923,
    #924,#925,#926,#927,#928,#929,#930,#931,#932,#933,#934,#935,#936,
    #937,#938),.UNSPECIFIED.,.F.,.F.,(12,9,12),(0.,0.5,1.),
  .UNSPECIFIED.);
#918 = CARTESIAN_POINT('',(-27.99806688833,84.843222442044));
#919 = CARTESIAN_POINT('',(-30.60136325907,79.687990219712));
#920 = CARTESIAN_POINT('',(-33.49210597273,75.711072933969));
#921 = CARTESIAN_POINT('',(-36.6146049418,72.844876727896));
#922 = CARTESIAN_POINT('',(-39.9354175484,70.997213932365));
#923 = CARTESIAN_POINT('',(-43.33384218088,70.174180763938));
#924 = CARTESIAN_POINT('',(-46.84979910895,70.052368214197));
#925 = CARTESIAN_POINT('',(-50.51126311867,70.863573431518));
#926 = CARTESIAN_POINT('',(-54.15588503345,72.381376977731));
#927 = CARTESIAN_POINT('',(-57.79241126946,74.600635110618));
#928 = CARTESIAN_POINT('',(-64.91012760195,80.277189865896));
#929 = CARTESIAN_POINT('',(-71.52697039507,88.160240204635));
#930 = CARTESIAN_POINT('',(-74.66018713072,92.584260309862));
#931 = CARTESIAN_POINT('',(-77.5691869562,97.421387849086));
#932 = CARTESIAN_POINT('',(-80.20558262378,102.60206306762));
#933 = CARTESIAN_POINT('',(-82.52135944385,108.056628753));
#934 = CARTESIAN_POINT('',(-84.46871942265,113.71539353493));
#935 = CARTESIAN_POINT('',(-86.00002198233,119.5086836917));
#936 = CARTESIAN_POINT('',(-87.06782126182,125.36688346136));
#937 = CARTESIAN_POINT('',(-87.625,131.22046385913));
#938 = CARTESIAN_POINT('',(-87.625,137.));
#939 = ( GEOMETRIC_REPRESENTATION_CONTEXT(2) 
PARAMETRIC_REPRESENTATION_CONTEXT() REPRESENTATION_CONTEXT('2D SPACE',''
  ) );
#940 = PCURVE('',#608,#941);
#941 = DEFINITIONAL_REPRESENTATION('',(#942),#946);
#942 = LINE('',#943,#944);
#943 = CARTESIAN_POINT('',(0.,0.));
#944 = VECTOR('',#945,1.);
#945 = DIRECTION('',(0.,1.));
#946 = ( GEOMETRIC_REPRESENTATION_CONTEXT(2) 
PARAMETRIC_REPRESENTATION_CONTEXT() REPRESENTATION_CONTEXT('2D SPACE',''
  ) );
#947 = ORIENTED_EDGE('',*,*,#948,.T.);
#948 = EDGE_CURVE('',#890,#949,#951,.T.);
#949 = VERTEX_POINT('',#950);
#950 = CARTESIAN_POINT('',(-2.5,137.,39.625));
#951 = SURFACE_CURVE('',#952,(#957,#965),.PCURVE_S1.);
#952 = B_SPLINE_CURVE_WITH_KNOTS('',3,(#953,#954,#955,#956),
  .UNSPECIFIED.,.F.,.F.,(4,4),(0.,1.),.PIECEWISE_BEZIER_KNOTS.);
#953 = CARTESIAN_POINT('',(-2.5,122.,39.625));
#954 = CARTESIAN_POINT('',(-2.5,122.1,39.625));
#955 = CARTESIAN_POINT('',(-2.5,136.9,39.625));
#956 = CARTESIAN_POINT('',(-2.5,137.,39.625));
#957 = PCURVE('',#46,#958);
#958 = DEFINITIONAL_REPRESENTATION('',(#959),#964);
#959 = B_SPLINE_CURVE_WITH_KNOTS('',3,(#960,#961,#962,#963),
  .UNSPECIFIED.,.F.,.F.,(4,4),(0.,1.),.PIECEWISE_BEZIER_KNOTS.);
#960 = CARTESIAN_POINT('',(-87.625,137.));
#961 = CARTESIAN_POINT('',(-87.625,137.1));
#962 = CARTESIAN_POINT('',(-87.625,151.9));
#963 = CARTESIAN_POINT('',(-87.625,152.));
#964 = ( GEOMETRIC_REPRESENTATION_CONTEXT(2) 
PARAMETRIC_REPRESENTATION_CONTEXT() REPRESENTATION_CONTEXT('2D SPACE',''
  ) );
#965 = PCURVE('',#543,#966);
#966 = DEFINITIONAL_REPRESENTATION('',(#967),#972);
#967 = B_SPLINE_CURVE_WITH_KNOTS('',3,(#968,#969,#970,#971),
  .UNSPECIFIED.,.F.,.F.,(4,4),(0.,1.),.PIECEWISE_BEZIER_KNOTS.);
#968 = CARTESIAN_POINT('',(-2.5,-7.5));
#969 = CARTESIAN_POINT('',(-2.5,-7.4));
#970 = CARTESIAN_POINT('',(-2.5,7.4));
#971 = CARTESIAN_POINT('',(-2.5,7.5));
#972 = ( GEOMETRIC_REPRESENTATION_CONTEXT(2) 
PARAMETRIC_REPRESENTATION_CONTEXT() REPRESENTATION_CONTEXT('2D SPACE',''
  ) );
#973 = ORIENTED_EDGE('',*,*,#974,.F.);
#974 = EDGE_CURVE('',#975,#949,#977,.T.);
#975 = VERTEX_POINT('',#976);
#976 = CARTESIAN_POINT('',(-2.5,137.,40.375));
#977 = SURFACE_CURVE('',#978,(#981,#987),.PCURVE_S1.);
#978 = B_SPLINE_CURVE_WITH_KNOTS('',1,(#979,#980),.UNSPECIFIED.,.F.,.F.,
  (2,2),(0.,0.75),.PIECEWISE_BEZIER_KNOTS.);
#979 = CARTESIAN_POINT('',(-2.5,137.,40.375));
#980 = CARTESIAN_POINT('',(-2.5,137.,39.625));
#981 = PCURVE('',#46,#982);
#982 = DEFINITIONAL_REPRESENTATION('',(#983),#986);
#983 = B_SPLINE_CURVE_WITH_KNOTS('',1,(#984,#985),.UNSPECIFIED.,.F.,.F.,
  (2,2),(0.,0.75),.PIECEWISE_BEZIER_KNOTS.);
#984 = CARTESIAN_POINT('',(-88.375,152.));
#985 = CARTESIAN_POINT('',(-87.625,152.));
#986 = ( GEOMETRIC_REPRESENTATION_CONTEXT(2) 
PARAMETRIC_REPRESENTATION_CONTEXT() REPRESENTATION_CONTEXT('2D SPACE',''
  ) );
#987 = PCURVE('',#514,#988);
#988 = DEFINITIONAL_REPRESENTATION('',(#989),#992);
#989 = B_SPLINE_CURVE_WITH_KNOTS('',1,(#990,#991),.UNSPECIFIED.,.F.,.F.,
  (2,2),(0.,0.75),.PIECEWISE_BEZIER_KNOTS.);
#990 = CARTESIAN_POINT('',(-0.375,-2.5));
#991 = CARTESIAN_POINT('',(0.375,-2.5));
#992 = ( GEOMETRIC_REPRESENTATION_CONTEXT(2) 
PARAMETRIC_REPRESENTATION_CONTEXT() REPRESENTATION_CONTEXT('2D SPACE',''
  ) );
#993 = ORIENTED_EDGE('',*,*,#994,.F.);
#994 = EDGE_CURVE('',#995,#975,#997,.T.);
#995 = VERTEX_POINT('',#996);
#996 = CARTESIAN_POINT('',(-2.5,122.,40.375));
#997 = SURFACE_CURVE('',#998,(#1003,#1011),.PCURVE_S1.);
#998 = B_SPLINE_CURVE_WITH_KNOTS('',3,(#999,#1000,#1001,#1002),
  .UNSPECIFIED.,.F.,.F.,(4,4),(0.,1.),.PIECEWISE_BEZIER_KNOTS.);
#999 = CARTESIAN_POINT('',(-2.5,122.,40.375));
#1000 = CARTESIAN_POINT('',(-2.5,122.1,40.375));
#1001 = CARTESIAN_POINT('',(-2.5,136.9,40.375));
#1002 = CARTESIAN_POINT('',(-2.5,137.,40.375));
#1003 = PCURVE('',#46,#1004);
#1004 = DEFINITIONAL_REPRESENTATION('',(#1005),#1010);
#1005 = B_SPLINE_CURVE_WITH_KNOTS('',3,(#1006,#1007,#1008,#1009),
  .UNSPECIFIED.,.F.,.F.,(4,4),(0.,1.),.PIECEWISE_BEZIER_KNOTS.);
#1006 = CARTESIAN_POINT('',(-88.375,137.));
#1007 = CARTESIAN_POINT('',(-88.375,137.1));
#1008 = CARTESIAN_POINT('',(-88.375,151.9));
#1009 = CARTESIAN_POINT('',(-88.375,152.));
#1010 = ( GEOMETRIC_REPRESENTATION_CONTEXT(2) 
PARAMETRIC_REPRESENTATION_CONTEXT() REPRESENTATION_CONTEXT('2D SPACE',''
  ) );
#1011 = PCURVE('',#487,#1012);
#1012 = DEFINITIONAL_REPRESENTATION('',(#1013),#1018);
#1013 = B_SPLINE_CURVE_WITH_KNOTS('',3,(#1014,#1015,#1016,#1017),
  .UNSPECIFIED.,.F.,.F.,(4,4),(0.,1.),.PIECEWISE_BEZIER_KNOTS.);
#1014 = CARTESIAN_POINT('',(2.5,-7.5));
#1015 = CARTESIAN_POINT('',(2.5,-7.4));
#1016 = CARTESIAN_POINT('',(2.5,7.4));
#1017 = CARTESIAN_POINT('',(2.5,7.5));
#1018 = ( GEOMETRIC_REPRESENTATION_CONTEXT(2) 
PARAMETRIC_REPRESENTATION_CONTEXT() REPRESENTATION_CONTEXT('2D SPACE',''
  ) );
#1019 = ORIENTED_EDGE('',*,*,#1020,.F.);
#1020 = EDGE_CURVE('',#1021,#995,#1023,.T.);
#1021 = VERTEX_POINT('',#1022);
#1022 = CARTESIAN_POINT('',(-2.5,69.505146937085,-20.6714142189));
#1023 = SURFACE_CURVE('',#1024,(#1046,#1071),.PCURVE_S1.);
#1024 = B_SPLINE_CURVE_WITH_KNOTS('',11,(#1025,#1026,#1027,#1028,#1029,
    #1030,#1031,#1032,#1033,#1034,#1035,#1036,#1037,#1038,#1039,#1040,
    #1041,#1042,#1043,#1044,#1045),.UNSPECIFIED.,.F.,.F.,(12,9,12),(0.,
    0.5,1.),.UNSPECIFIED.);
#1025 = CARTESIAN_POINT('',(-2.5,69.505146937085,-20.6714142189));
#1026 = CARTESIAN_POINT('',(-2.5,64.266900361652,-18.02619714414));
#1027 = CARTESIAN_POINT('',(-2.5,60.193621972962,-15.07258345599));
#1028 = CARTESIAN_POINT('',(-2.5,57.214864625651,-11.85024624788));
#1029 = CARTESIAN_POINT('',(-2.499999999999,55.284774986696,
    -8.421106082911));
#1030 = CARTESIAN_POINT('',(-2.500000000001,54.259215837154,
    -4.759824530333));
#1031 = CARTESIAN_POINT('',(-2.499999999999,54.32355518336,
    -1.001685040891));
#1032 = CARTESIAN_POINT('',(-2.500000000001,55.107954874559,
    2.729974418486));
#1033 = CARTESIAN_POINT('',(-2.5,56.700793346767,6.502139843366));
#1034 = CARTESIAN_POINT('',(-2.5,58.969173339921,10.210701636671));
#1035 = CARTESIAN_POINT('',(-2.5,64.745805047502,17.449036380147));
#1036 = CARTESIAN_POINT('',(-2.5,72.71959758421,24.138541973903));
#1037 = CARTESIAN_POINT('',(-2.5,77.186872017596,27.300710578452));
#1038 = CARTESIAN_POINT('',(-2.5,82.065871115689,30.233944059006));
#1039 = CARTESIAN_POINT('',(-2.5,87.288113630811,32.89126648228));
#1040 = CARTESIAN_POINT('',(-2.5,92.785215773375,35.22532935704));
#1041 = CARTESIAN_POINT('',(-2.5,98.488827911218,37.188567495945));
#1042 = CARTESIAN_POINT('',(-2.5,104.33058276399,38.733258296021));
#1043 = CARTESIAN_POINT('',(-2.5,110.24205509129,39.811484437301));
#1044 = CARTESIAN_POINT('',(-2.5,116.15473287571,40.375));
#1045 = CARTESIAN_POINT('',(-2.5,122.,40.375));
#1046 = PCURVE('',#46,#1047);
#1047 = DEFINITIONAL_REPRESENTATION('',(#1048),#1070);
#1048 = B_SPLINE_CURVE_WITH_KNOTS('',11,(#1049,#1050,#1051,#1052,#1053,
    #1054,#1055,#1056,#1057,#1058,#1059,#1060,#1061,#1062,#1063,#1064,
    #1065,#1066,#1067,#1068,#1069),.UNSPECIFIED.,.F.,.F.,(12,9,12),(0.,
    0.5,1.),.UNSPECIFIED.);
#1049 = CARTESIAN_POINT('',(-27.32858578109,84.505146937085));
#1050 = CARTESIAN_POINT('',(-29.97380285585,79.266900361652));
#1051 = CARTESIAN_POINT('',(-32.927416544,75.193621972962));
#1052 = CARTESIAN_POINT('',(-36.14975375211,72.214864625651));
#1053 = CARTESIAN_POINT('',(-39.57889391708,70.284774986696));
#1054 = CARTESIAN_POINT('',(-43.24017546966,69.259215837154));
#1055 = CARTESIAN_POINT('',(-46.9983149591,69.32355518336));
#1056 = CARTESIAN_POINT('',(-50.72997441848,70.107954874559));
#1057 = CARTESIAN_POINT('',(-54.50213984336,71.700793346767));
#1058 = CARTESIAN_POINT('',(-58.21070163667,73.969173339921));
#1059 = CARTESIAN_POINT('',(-65.44903638014,79.745805047502));
#1060 = CARTESIAN_POINT('',(-72.1385419739,87.719597584209));
#1061 = CARTESIAN_POINT('',(-75.30071057845,92.186872017596));
#1062 = CARTESIAN_POINT('',(-78.233944059,97.065871115689));
#1063 = CARTESIAN_POINT('',(-80.89126648228,102.28811363081));
#1064 = CARTESIAN_POINT('',(-83.22532935704,107.78521577337));
#1065 = CARTESIAN_POINT('',(-85.18856749594,113.48882791121));
#1066 = CARTESIAN_POINT('',(-86.73325829602,119.33058276399));
#1067 = CARTESIAN_POINT('',(-87.8114844373,125.24205509129));
#1068 = CARTESIAN_POINT('',(-88.375,131.15473287571));
#1069 = CARTESIAN_POINT('',(-88.375,137.));
#1070 = ( GEOMETRIC_REPRESENTATION_CONTEXT(2) 
PARAMETRIC_REPRESENTATION_CONTEXT() REPRESENTATION_CONTEXT('2D SPACE',''
  ) );
#1071 = PCURVE('',#420,#1072);
#1072 = DEFINITIONAL_REPRESENTATION('',(#1073),#1077);
#1073 = LINE('',#1074,#1075);
#1074 = CARTESIAN_POINT('',(5.,0.));
#1075 = VECTOR('',#1076,1.);
#1076 = DIRECTION('',(0.,1.));
#1077 = ( GEOMETRIC_REPRESENTATION_CONTEXT(2) 
PARAMETRIC_REPRESENTATION_CONTEXT() REPRESENTATION_CONTEXT('2D SPACE',''
  ) );
#1078 = ORIENTED_EDGE('',*,*,#1079,.F.);
#1079 = EDGE_CURVE('',#752,#1021,#1080,.T.);
#1080 = SURFACE_CURVE('',#1081,(#1109,#1140),.PCURVE_S1.);
#1081 = B_SPLINE_CURVE_WITH_KNOTS('',8,(#1082,#1083,#1084,#1085,#1086,
    #1087,#1088,#1089,#1090,#1091,#1092,#1093,#1094,#1095,#1096,#1097,
    #1098,#1099,#1100,#1101,#1102,#1103,#1104,#1105,#1106,#1107,#1108),
  .UNSPECIFIED.,.F.,.F.,(9,6,6,6,9),(0.,0.5,0.75,0.875,1.),
  .UNSPECIFIED.);
#1082 = CARTESIAN_POINT('',(-2.5,1.06581410364E-14,-47.625));
#1083 = CARTESIAN_POINT('',(-2.5,6.208199869242,-47.625));
#1084 = CARTESIAN_POINT('',(-2.5,13.542675234906,-47.40618166762));
#1085 = CARTESIAN_POINT('',(-2.5,21.652053914685,-46.96127054638));
#1086 = CARTESIAN_POINT('',(-2.5,30.189651463496,-46.28318040522));
#1087 = CARTESIAN_POINT('',(-2.5,38.807101581206,-45.36558462453));
#1088 = CARTESIAN_POINT('',(-2.5,47.155852060542,-44.20159975005));
#1089 = CARTESIAN_POINT('',(-2.5,58.75474731999,-42.07492554374));
#1090 = CARTESIAN_POINT('',(-2.5,68.172234882808,-39.36973794298));
#1091 = CARTESIAN_POINT('',(-2.5,71.02491467935,-38.40464507615));
#1092 = CARTESIAN_POINT('',(-2.5,73.546438878967,-37.3681224733));
#1093 = CARTESIAN_POINT('',(-2.5,75.690219595387,-36.28315043855));
#1094 = CARTESIAN_POINT('',(-2.5,77.416842870327,-35.11552206412));
#1095 = CARTESIAN_POINT('',(-2.5,79.277133307579,-33.31059518824));
#1096 = CARTESIAN_POINT('',(-2.5,80.030340003663,-31.44477221989));
#1097 = CARTESIAN_POINT('',(-2.5,80.157101966882,-30.81609204723));
#1098 = CARTESIAN_POINT('',(-2.5,80.162919431733,-30.18333620715));
#1099 = CARTESIAN_POINT('',(-2.5,80.050092494394,-29.51781040935));
#1100 = CARTESIAN_POINT('',(-2.5,79.791925595546,-28.82133682541));
#1101 = CARTESIAN_POINT('',(-2.5,78.974847423968,-27.37049103818));
#1102 = CARTESIAN_POINT('',(-2.5,77.523594128155,-25.81222402742));
#1103 = CARTESIAN_POINT('',(-2.5,76.632033794557,-25.00861583954));
#1104 = CARTESIAN_POINT('',(-2.5,75.569142900592,-24.18252505232));
#1105 = CARTESIAN_POINT('',(-2.5,74.330109163594,-23.33527642635));
#1106 = CARTESIAN_POINT('',(-2.5,72.909936711593,-22.46751459464));
#1107 = CARTESIAN_POINT('',(-2.5,71.303318158692,-21.57945723486));
#1108 = CARTESIAN_POINT('',(-2.5,69.505146937085,-20.6714142189));
#1109 = PCURVE('',#46,#1110);
#1110 = DEFINITIONAL_REPRESENTATION('',(#1111),#1139);
#1111 = B_SPLINE_CURVE_WITH_KNOTS('',8,(#1112,#1113,#1114,#1115,#1116,
    #1117,#1118,#1119,#1120,#1121,#1122,#1123,#1124,#1125,#1126,#1127,
    #1128,#1129,#1130,#1131,#1132,#1133,#1134,#1135,#1136,#1137,#1138),
  .UNSPECIFIED.,.F.,.F.,(9,6,6,6,9),(0.,0.5,0.75,0.875,1.),
  .UNSPECIFIED.);
#1112 = CARTESIAN_POINT('',(-0.375,15.));
#1113 = CARTESIAN_POINT('',(-0.375,21.208199869242));
#1114 = CARTESIAN_POINT('',(-0.593818332378,28.542675234906));
#1115 = CARTESIAN_POINT('',(-1.038729453615,36.652053914685));
#1116 = CARTESIAN_POINT('',(-1.716819594778,45.189651463496));
#1117 = CARTESIAN_POINT('',(-2.634415375471,53.807101581206));
#1118 = CARTESIAN_POINT('',(-3.798400249944,62.155852060542));
#1119 = CARTESIAN_POINT('',(-5.925074456256,73.75474731999));
#1120 = CARTESIAN_POINT('',(-8.630262057014,83.172234882808));
#1121 = CARTESIAN_POINT('',(-9.595354923841,86.02491467935));
#1122 = CARTESIAN_POINT('',(-10.63187752669,88.546438878967));
#1123 = CARTESIAN_POINT('',(-11.71684956144,90.690219595387));
#1124 = CARTESIAN_POINT('',(-12.88447793587,92.416842870327));
#1125 = CARTESIAN_POINT('',(-14.68940481175,94.277133307579));
#1126 = CARTESIAN_POINT('',(-16.5552277801,95.030340003663));
#1127 = CARTESIAN_POINT('',(-17.18390795276,95.157101966882));
#1128 = CARTESIAN_POINT('',(-17.81666379285,95.162919431733));
#1129 = CARTESIAN_POINT('',(-18.48218959065,95.050092494394));
#1130 = CARTESIAN_POINT('',(-19.17866317458,94.791925595546));
#1131 = CARTESIAN_POINT('',(-20.62950896181,93.974847423968));
#1132 = CARTESIAN_POINT('',(-22.18777597257,92.523594128155));
#1133 = CARTESIAN_POINT('',(-22.99138416045,91.632033794557));
#1134 = CARTESIAN_POINT('',(-23.81747494767,90.569142900592));
#1135 = CARTESIAN_POINT('',(-24.66472357364,89.330109163594));
#1136 = CARTESIAN_POINT('',(-25.53248540535,87.909936711593));
#1137 = CARTESIAN_POINT('',(-26.42054276513,86.303318158692));
#1138 = CARTESIAN_POINT('',(-27.32858578109,84.505146937085));
#1139 = ( GEOMETRIC_REPRESENTATION_CONTEXT(2) 
PARAMETRIC_REPRESENTATION_CONTEXT() REPRESENTATION_CONTEXT('2D SPACE',''
  ) );
#1140 = PCURVE('',#307,#1141);
#1141 = DEFINITIONAL_REPRESENTATION('',(#1142),#1146);
#1142 = LINE('',#1143,#1144);
#1143 = CARTESIAN_POINT('',(5.,0.));
#1144 = VECTOR('',#1145,1.);
#1145 = DIRECTION('',(0.,1.));
#1146 = ( GEOMETRIC_REPRESENTATION_CONTEXT(2) 
PARAMETRIC_REPRESENTATION_CONTEXT() REPRESENTATION_CONTEXT('2D SPACE',''
  ) );
#1147 = ADVANCED_FACE('',(#1148),#127,.F.);
#1148 = FACE_BOUND('',#1149,.F.);
#1149 = EDGE_LOOP('',(#1150,#1151,#1152,#1153));
#1150 = ORIENTED_EDGE('',*,*,#818,.F.);
#1151 = ORIENTED_EDGE('',*,*,#115,.T.);
#1152 = ORIENTED_EDGE('',*,*,#658,.T.);
#1153 = ORIENTED_EDGE('',*,*,#1154,.F.);
#1154 = EDGE_CURVE('',#819,#557,#1155,.T.);
#1155 = SURFACE_CURVE('',#1156,(#1159,#1166),.PCURVE_S1.);
#1156 = B_SPLINE_CURVE_WITH_KNOTS('',1,(#1157,#1158),.UNSPECIFIED.,.F.,
  .F.,(2,2),(0.,5.),.PIECEWISE_BEZIER_KNOTS.);
#1157 = CARTESIAN_POINT('',(-2.5,69.843222442044,-20.00193311166));
#1158 = CARTESIAN_POINT('',(2.5,69.843222442044,-20.00193311166));
#1159 = PCURVE('',#127,#1160);
#1160 = DEFINITIONAL_REPRESENTATION('',(#1161),#1165);
#1161 = LINE('',#1162,#1163);
#1162 = CARTESIAN_POINT('',(0.,1.));
#1163 = VECTOR('',#1164,1.);
#1164 = DIRECTION('',(1.,0.));
#1165 = ( GEOMETRIC_REPRESENTATION_CONTEXT(2) 
PARAMETRIC_REPRESENTATION_CONTEXT() REPRESENTATION_CONTEXT('2D SPACE',''
  ) );
#1166 = PCURVE('',#608,#1167);
#1167 = DEFINITIONAL_REPRESENTATION('',(#1168),#1171);
#1168 = B_SPLINE_CURVE_WITH_KNOTS('',1,(#1169,#1170),.UNSPECIFIED.,.F.,
  .F.,(2,2),(0.,5.),.PIECEWISE_BEZIER_KNOTS.);
#1169 = CARTESIAN_POINT('',(0.,0.));
#1170 = CARTESIAN_POINT('',(5.,0.));
#1171 = ( GEOMETRIC_REPRESENTATION_CONTEXT(2) 
PARAMETRIC_REPRESENTATION_CONTEXT() REPRESENTATION_CONTEXT('2D SPACE',''
  ) );
#1172 = ADVANCED_FACE('',(#1173),#307,.F.);
#1173 = FACE_BOUND('',#1174,.F.);
#1174 = EDGE_LOOP('',(#1175,#1176,#1177,#1178));
#1175 = ORIENTED_EDGE('',*,*,#243,.F.);
#1176 = ORIENTED_EDGE('',*,*,#777,.T.);
#1177 = ORIENTED_EDGE('',*,*,#1079,.T.);
#1178 = ORIENTED_EDGE('',*,*,#1179,.F.);
#1179 = EDGE_CURVE('',#244,#1021,#1180,.T.);
#1180 = SURFACE_CURVE('',#1181,(#1184,#1191),.PCURVE_S1.);
#1181 = B_SPLINE_CURVE_WITH_KNOTS('',1,(#1182,#1183),.UNSPECIFIED.,.F.,
  .F.,(2,2),(0.,5.),.PIECEWISE_BEZIER_KNOTS.);
#1182 = CARTESIAN_POINT('',(2.5,69.505146937085,-20.6714142189));
#1183 = CARTESIAN_POINT('',(-2.5,69.505146937085,-20.6714142189));
#1184 = PCURVE('',#307,#1185);
#1185 = DEFINITIONAL_REPRESENTATION('',(#1186),#1190);
#1186 = LINE('',#1187,#1188);
#1187 = CARTESIAN_POINT('',(0.,1.));
#1188 = VECTOR('',#1189,1.);
#1189 = DIRECTION('',(1.,0.));
#1190 = ( GEOMETRIC_REPRESENTATION_CONTEXT(2) 
PARAMETRIC_REPRESENTATION_CONTEXT() REPRESENTATION_CONTEXT('2D SPACE',''
  ) );
#1191 = PCURVE('',#420,#1192);
#1192 = DEFINITIONAL_REPRESENTATION('',(#1193),#1196);
#1193 = B_SPLINE_CURVE_WITH_KNOTS('',1,(#1194,#1195),.UNSPECIFIED.,.F.,
  .F.,(2,2),(0.,5.),.PIECEWISE_BEZIER_KNOTS.);
#1194 = CARTESIAN_POINT('',(0.,0.));
#1195 = CARTESIAN_POINT('',(5.,0.));
#1196 = ( GEOMETRIC_REPRESENTATION_CONTEXT(2) 
PARAMETRIC_REPRESENTATION_CONTEXT() REPRESENTATION_CONTEXT('2D SPACE',''
  ) );
#1197 = ADVANCED_FACE('',(#1198),#608,.F.);
#1198 = FACE_BOUND('',#1199,.F.);
#1199 = EDGE_LOOP('',(#1200,#1201,#1202,#1203));
#1200 = ORIENTED_EDGE('',*,*,#889,.F.);
#1201 = ORIENTED_EDGE('',*,*,#1154,.T.);
#1202 = ORIENTED_EDGE('',*,*,#556,.T.);
#1203 = ORIENTED_EDGE('',*,*,#1204,.F.);
#1204 = EDGE_CURVE('',#890,#526,#1205,.T.);
#1205 = SURFACE_CURVE('',#1206,(#1209,#1216),.PCURVE_S1.);
#1206 = B_SPLINE_CURVE_WITH_KNOTS('',1,(#1207,#1208),.UNSPECIFIED.,.F.,
  .F.,(2,2),(0.,5.),.PIECEWISE_BEZIER_KNOTS.);
#1207 = CARTESIAN_POINT('',(-2.5,122.,39.625));
#1208 = CARTESIAN_POINT('',(2.5,122.,39.625));
#1209 = PCURVE('',#608,#1210);
#1210 = DEFINITIONAL_REPRESENTATION('',(#1211),#1215);
#1211 = LINE('',#1212,#1213);
#1212 = CARTESIAN_POINT('',(0.,1.));
#1213 = VECTOR('',#1214,1.);
#1214 = DIRECTION('',(1.,0.));
#1215 = ( GEOMETRIC_REPRESENTATION_CONTEXT(2) 
PARAMETRIC_REPRESENTATION_CONTEXT() REPRESENTATION_CONTEXT('2D SPACE',''
  ) );
#1216 = PCURVE('',#543,#1217);
#1217 = DEFINITIONAL_REPRESENTATION('',(#1218),#1221);
#1218 = B_SPLINE_CURVE_WITH_KNOTS('',1,(#1219,#1220),.UNSPECIFIED.,.F.,
  .F.,(2,2),(0.,5.),.PIECEWISE_BEZIER_KNOTS.);
#1219 = CARTESIAN_POINT('',(-2.5,-7.5));
#1220 = CARTESIAN_POINT('',(2.5,-7.5));
#1221 = ( GEOMETRIC_REPRESENTATION_CONTEXT(2) 
PARAMETRIC_REPRESENTATION_CONTEXT() REPRESENTATION_CONTEXT('2D SPACE',''
  ) );
#1222 = ADVANCED_FACE('',(#1223),#420,.F.);
#1223 = FACE_BOUND('',#1224,.F.);
#1224 = EDGE_LOOP('',(#1225,#1226,#1227,#1228));
#1225 = ORIENTED_EDGE('',*,*,#368,.F.);
#1226 = ORIENTED_EDGE('',*,*,#1179,.T.);
#1227 = ORIENTED_EDGE('',*,*,#1020,.T.);
#1228 = ORIENTED_EDGE('',*,*,#1229,.F.);
#1229 = EDGE_CURVE('',#369,#995,#1230,.T.);
#1230 = SURFACE_CURVE('',#1231,(#1234,#1241),.PCURVE_S1.);
#1231 = B_SPLINE_CURVE_WITH_KNOTS('',1,(#1232,#1233),.UNSPECIFIED.,.F.,
  .F.,(2,2),(0.,5.),.PIECEWISE_BEZIER_KNOTS.);
#1232 = CARTESIAN_POINT('',(2.5,122.,40.375));
#1233 = CARTESIAN_POINT('',(-2.5,122.,40.375));
#1234 = PCURVE('',#420,#1235);
#1235 = DEFINITIONAL_REPRESENTATION('',(#1236),#1240);
#1236 = LINE('',#1237,#1238);
#1237 = CARTESIAN_POINT('',(0.,1.));
#1238 = VECTOR('',#1239,1.);
#1239 = DIRECTION('',(1.,0.));
#1240 = ( GEOMETRIC_REPRESENTATION_CONTEXT(2) 
PARAMETRIC_REPRESENTATION_CONTEXT() REPRESENTATION_CONTEXT('2D SPACE',''
  ) );
#1241 = PCURVE('',#487,#1242);
#1242 = DEFINITIONAL_REPRESENTATION('',(#1243),#1246);
#1243 = B_SPLINE_CURVE_WITH_KNOTS('',1,(#1244,#1245),.UNSPECIFIED.,.F.,
  .F.,(2,2),(0.,5.),.PIECEWISE_BEZIER_KNOTS.);
#1244 = CARTESIAN_POINT('',(-2.5,-7.5));
#1245 = CARTESIAN_POINT('',(2.5,-7.5));
#1246 = ( GEOMETRIC_REPRESENTATION_CONTEXT(2) 
PARAMETRIC_REPRESENTATION_CONTEXT() REPRESENTATION_CONTEXT('2D SPACE',''
  ) );
#1247 = ADVANCED_FACE('',(#1248),#543,.F.);
#1248 = FACE_BOUND('',#1249,.F.);
#1249 = EDGE_LOOP('',(#1250,#1251,#1252,#1253));
#1250 = ORIENTED_EDGE('',*,*,#948,.F.);
#1251 = ORIENTED_EDGE('',*,*,#1204,.T.);
#1252 = ORIENTED_EDGE('',*,*,#525,.T.);
#1253 = ORIENTED_EDGE('',*,*,#1254,.F.);
#1254 = EDGE_CURVE('',#949,#501,#1255,.T.);
#1255 = SURFACE_CURVE('',#1256,(#1259,#1265),.PCURVE_S1.);
#1256 = B_SPLINE_CURVE_WITH_KNOTS('',1,(#1257,#1258),.UNSPECIFIED.,.F.,
  .F.,(2,2),(0.,5.),.PIECEWISE_BEZIER_KNOTS.);
#1257 = CARTESIAN_POINT('',(-2.5,137.,39.625));
#1258 = CARTESIAN_POINT('',(2.5,137.,39.625));
#1259 = PCURVE('',#543,#1260);
#1260 = DEFINITIONAL_REPRESENTATION('',(#1261),#1264);
#1261 = B_SPLINE_CURVE_WITH_KNOTS('',1,(#1262,#1263),.UNSPECIFIED.,.F.,
  .F.,(2,2),(0.,5.),.PIECEWISE_BEZIER_KNOTS.);
#1262 = CARTESIAN_POINT('',(-2.5,7.5));
#1263 = CARTESIAN_POINT('',(2.5,7.5));
#1264 = ( GEOMETRIC_REPRESENTATION_CONTEXT(2) 
PARAMETRIC_REPRESENTATION_CONTEXT() REPRESENTATION_CONTEXT('2D SPACE',''
  ) );
#1265 = PCURVE('',#514,#1266);
#1266 = DEFINITIONAL_REPRESENTATION('',(#1267),#1270);
#1267 = B_SPLINE_CURVE_WITH_KNOTS('',1,(#1268,#1269),.UNSPECIFIED.,.F.,
  .F.,(2,2),(0.,5.),.PIECEWISE_BEZIER_KNOTS.);
#1268 = CARTESIAN_POINT('',(0.375,-2.5));
#1269 = CARTESIAN_POINT('',(0.375,2.5));
#1270 = ( GEOMETRIC_REPRESENTATION_CONTEXT(2) 
PARAMETRIC_REPRESENTATION_CONTEXT() REPRESENTATION_CONTEXT('2D SPACE',''
  ) );
#1271 = ADVANCED_FACE('',(#1272),#487,.F.);
#1272 = FACE_BOUND('',#1273,.F.);
#1273 = EDGE_LOOP('',(#1274,#1275,#1276,#1277));
#1274 = ORIENTED_EDGE('',*,*,#469,.F.);
#1275 = ORIENTED_EDGE('',*,*,#1229,.T.);
#1276 = ORIENTED_EDGE('',*,*,#994,.T.);
#1277 = ORIENTED_EDGE('',*,*,#1278,.F.);
#1278 = EDGE_CURVE('',#470,#975,#1279,.T.);
#1279 = SURFACE_CURVE('',#1280,(#1283,#1289),.PCURVE_S1.);
#1280 = B_SPLINE_CURVE_WITH_KNOTS('',1,(#1281,#1282),.UNSPECIFIED.,.F.,
  .F.,(2,2),(0.,5.),.PIECEWISE_BEZIER_KNOTS.);
#1281 = CARTESIAN_POINT('',(2.5,137.,40.375));
#1282 = CARTESIAN_POINT('',(-2.5,137.,40.375));
#1283 = PCURVE('',#487,#1284);
#1284 = DEFINITIONAL_REPRESENTATION('',(#1285),#1288);
#1285 = B_SPLINE_CURVE_WITH_KNOTS('',1,(#1286,#1287),.UNSPECIFIED.,.F.,
  .F.,(2,2),(0.,5.),.PIECEWISE_BEZIER_KNOTS.);
#1286 = CARTESIAN_POINT('',(-2.5,7.5));
#1287 = CARTESIAN_POINT('',(2.5,7.5));
#1288 = ( GEOMETRIC_REPRESENTATION_CONTEXT(2) 
PARAMETRIC_REPRESENTATION_CONTEXT() REPRESENTATION_CONTEXT('2D SPACE',''
  ) );
#1289 = PCURVE('',#514,#1290);
#1290 = DEFINITIONAL_REPRESENTATION('',(#1291),#1294);
#1291 = B_SPLINE_CURVE_WITH_KNOTS('',1,(#1292,#1293),.UNSPECIFIED.,.F.,
  .F.,(2,2),(0.,5.),.PIECEWISE_BEZIER_KNOTS.);
#1292 = CARTESIAN_POINT('',(-0.375,2.5));
#1293 = CARTESIAN_POINT('',(-0.375,-2.5));
#1294 = ( GEOMETRIC_REPRESENTATION_CONTEXT(2) 
PARAMETRIC_REPRESENTATION_CONTEXT() REPRESENTATION_CONTEXT('2D SPACE',''
  ) );
#1295 = ADVANCED_FACE('',(#1296),#73,.T.);
#1296 = FACE_BOUND('',#1297,.T.);
#1297 = EDGE_LOOP('',(#1298,#1299,#1300,#1301));
#1298 = ORIENTED_EDGE('',*,*,#59,.T.);
#1299 = ORIENTED_EDGE('',*,*,#192,.T.);
#1300 = ORIENTED_EDGE('',*,*,#731,.T.);
#1301 = ORIENTED_EDGE('',*,*,#799,.T.);
#1302 = ADVANCED_FACE('',(#1303),#514,.F.);
#1303 = FACE_BOUND('',#1304,.F.);
#1304 = EDGE_LOOP('',(#1305,#1306,#1307,#1308));
#1305 = ORIENTED_EDGE('',*,*,#1254,.T.);
#1306 = ORIENTED_EDGE('',*,*,#500,.T.);
#1307 = ORIENTED_EDGE('',*,*,#1278,.T.);
#1308 = ORIENTED_EDGE('',*,*,#974,.T.);
#1309 = ( GEOMETRIC_REPRESENTATION_CONTEXT(3) 
GLOBAL_UNCERTAINTY_ASSIGNED_CONTEXT((#1313)) 
GLOBAL_UNIT_ASSIGNED_CONTEXT((#1310,#1311,#1312)) REPRESENTATION_CONTEXT
('Context #1','3D Context with UNIT and UNCERTAINTY') );
#1310 = ( LENGTH_UNIT() NAMED_UNIT(*) SI_UNIT(.MILLI.,.METRE.) );
#1311 = ( NAMED_UNIT(*) PLANE_ANGLE_UNIT() SI_UNIT($,.RADIAN.) );
#1312 = ( NAMED_UNIT(*) SI_UNIT($,.STERADIAN.) SOLID_ANGLE_UNIT() );
#1313 = UNCERTAINTY_MEASURE_WITH_UNIT(LENGTH_MEASURE(2.E-05),#1310,
  'distance_accuracy_value','confusion accuracy');
#1314 = PRODUCT_RELATED_PRODUCT_CATEGORY('part',$,(#7));
ENDSEC;
END-ISO-10303-21;
