ISO-10303-21;
HEADER;
FILE_DESCRIPTION(('Open CASCADE Model'),'2;1');
FILE_NAME('Open CASCADE Shape Model','2026-06-17T11:14:33',('Author'),(
    'Open CASCADE'),'Open CASCADE STEP processor 7.8','Open CASCADE 7.8'
  ,'Unknown');
FILE_SCHEMA(('AUTOMOTIVE_DESIGN { 1 0 10303 214 1 1 1 1 }'));
ENDSEC;
DATA;
#1 = APPLICATION_PROTOCOL_DEFINITION('international standard',
  'automotive_design',2000,#2);
#2 = APPLICATION_CONTEXT(
  'core data for automotive mechanical design processes');
#3 = SHAPE_DEFINITION_REPRESENTATION(#4,#10);
#4 = PRODUCT_DEFINITION_SHAPE('','',#5);
#5 = PRODUCT_DEFINITION('design','',#6,#9);
#6 = PRODUCT_DEFINITION_FORMATION('','',#7);
#7 = PRODUCT('Open CASCADE STEP translator 7.8 1',
  'Open CASCADE STEP translator 7.8 1','',(#8));
#8 = PRODUCT_CONTEXT('',#2,'mechanical');
#9 = PRODUCT_DEFINITION_CONTEXT('part definition',#2,'design');
#10 = ADVANCED_BREP_SHAPE_REPRESENTATION('',(#11,#15),#1345);
#11 = AXIS2_PLACEMENT_3D('',#12,#13,#14);
#12 = CARTESIAN_POINT('',(0.,0.,0.));
#13 = DIRECTION('',(0.,0.,1.));
#14 = DIRECTION('',(1.,0.,-0.));
#15 = MANIFOLD_SOLID_BREP('',#16);
#16 = CLOSED_SHELL('',(#17,#193,#750,#818,#1183,#1208,#1233,#1258,#1283,
    #1307,#1331,#1338));
#17 = ADVANCED_FACE('',(#18),#33,.F.);
#18 = FACE_BOUND('',#19,.F.);
#19 = EDGE_LOOP('',(#20,#58,#83,#114));
#20 = ORIENTED_EDGE('',*,*,#21,.F.);
#21 = EDGE_CURVE('',#22,#24,#26,.T.);
#22 = VERTEX_POINT('',#23);
#23 = CARTESIAN_POINT('',(-2.5,-30.,-48.25));
#24 = VERTEX_POINT('',#25);
#25 = CARTESIAN_POINT('',(-2.5,3.552713678801E-15,-48.25));
#26 = SURFACE_CURVE('',#27,(#32,#45),.PCURVE_S1.);
#27 = B_SPLINE_CURVE_WITH_KNOTS('',3,(#28,#29,#30,#31),.UNSPECIFIED.,.F.
  ,.F.,(4,4),(0.,1.),.PIECEWISE_BEZIER_KNOTS.);
#28 = CARTESIAN_POINT('',(-2.5,-30.,-48.25));
#29 = CARTESIAN_POINT('',(-2.5,-29.9,-48.25));
#30 = CARTESIAN_POINT('',(-2.5,-1.E-01,-48.25));
#31 = CARTESIAN_POINT('',(-2.5,8.881784197001E-15,-48.25));
#32 = PCURVE('',#33,#38);
#33 = PLANE('',#34);
#34 = AXIS2_PLACEMENT_3D('',#35,#36,#37);
#35 = CARTESIAN_POINT('',(0.,-15.,-48.25));
#36 = DIRECTION('',(3.993132729891E-16,2.414123714711E-16,1.));
#37 = DIRECTION('',(1.,5.020246460856E-19,-3.993132729891E-16));
#38 = DEFINITIONAL_REPRESENTATION('',(#39),#44);
#39 = B_SPLINE_CURVE_WITH_KNOTS('',3,(#40,#41,#42,#43),.UNSPECIFIED.,.F.
  ,.F.,(4,4),(0.,1.),.PIECEWISE_BEZIER_KNOTS.);
#40 = CARTESIAN_POINT('',(-2.5,-15.));
#41 = CARTESIAN_POINT('',(-2.5,-14.9));
#42 = CARTESIAN_POINT('',(-2.5,14.9));
#43 = CARTESIAN_POINT('',(-2.5,15.));
#44 = ( GEOMETRIC_REPRESENTATION_CONTEXT(2) 
PARAMETRIC_REPRESENTATION_CONTEXT() REPRESENTATION_CONTEXT('2D SPACE',''
  ) );
#45 = PCURVE('',#46,#51);
#46 = PLANE('',#47);
#47 = AXIS2_PLACEMENT_3D('',#48,#49,#50);
#48 = CARTESIAN_POINT('',(-2.5,-15.,-48.));
#49 = DIRECTION('',(1.,4.004753648206E-18,7.50286397206E-29));
#50 = DIRECTION('',(7.502906043423E-29,-1.050535618637E-16,-1.));
#51 = DEFINITIONAL_REPRESENTATION('',(#52),#57);
#52 = B_SPLINE_CURVE_WITH_KNOTS('',3,(#53,#54,#55,#56),.UNSPECIFIED.,.F.
  ,.F.,(4,4),(0.,1.),.PIECEWISE_BEZIER_KNOTS.);
#53 = CARTESIAN_POINT('',(0.25,-15.));
#54 = CARTESIAN_POINT('',(0.25,-14.9));
#55 = CARTESIAN_POINT('',(0.25,14.9));
#56 = CARTESIAN_POINT('',(0.25,15.));
#57 = ( GEOMETRIC_REPRESENTATION_CONTEXT(2) 
PARAMETRIC_REPRESENTATION_CONTEXT() REPRESENTATION_CONTEXT('2D SPACE',''
  ) );
#58 = ORIENTED_EDGE('',*,*,#59,.T.);
#59 = EDGE_CURVE('',#22,#60,#62,.T.);
#60 = VERTEX_POINT('',#61);
#61 = CARTESIAN_POINT('',(2.5,-30.,-48.25));
#62 = SURFACE_CURVE('',#63,(#66,#72),.PCURVE_S1.);
#63 = B_SPLINE_CURVE_WITH_KNOTS('',1,(#64,#65),.UNSPECIFIED.,.F.,.F.,(2,
    2),(0.,5.),.PIECEWISE_BEZIER_KNOTS.);
#64 = CARTESIAN_POINT('',(-2.5,-30.,-48.25));
#65 = CARTESIAN_POINT('',(2.5,-30.,-48.25));
#66 = PCURVE('',#33,#67);
#67 = DEFINITIONAL_REPRESENTATION('',(#68),#71);
#68 = B_SPLINE_CURVE_WITH_KNOTS('',1,(#69,#70),.UNSPECIFIED.,.F.,.F.,(2,
    2),(0.,5.),.PIECEWISE_BEZIER_KNOTS.);
#69 = CARTESIAN_POINT('',(-2.5,-15.));
#70 = CARTESIAN_POINT('',(2.5,-15.));
#71 = ( GEOMETRIC_REPRESENTATION_CONTEXT(2) 
PARAMETRIC_REPRESENTATION_CONTEXT() REPRESENTATION_CONTEXT('2D SPACE',''
  ) );
#72 = PCURVE('',#73,#78);
#73 = PLANE('',#74);
#74 = AXIS2_PLACEMENT_3D('',#75,#76,#77);
#75 = CARTESIAN_POINT('',(0.,-30.,-48.));
#76 = DIRECTION('',(-0.,-1.,-0.));
#77 = DIRECTION('',(0.,0.,-1.));
#78 = DEFINITIONAL_REPRESENTATION('',(#79),#82);
#79 = B_SPLINE_CURVE_WITH_KNOTS('',1,(#80,#81),.UNSPECIFIED.,.F.,.F.,(2,
    2),(0.,5.),.PIECEWISE_BEZIER_KNOTS.);
#80 = CARTESIAN_POINT('',(0.25,-2.5));
#81 = CARTESIAN_POINT('',(0.25,2.5));
#82 = ( GEOMETRIC_REPRESENTATION_CONTEXT(2) 
PARAMETRIC_REPRESENTATION_CONTEXT() REPRESENTATION_CONTEXT('2D SPACE',''
  ) );
#83 = ORIENTED_EDGE('',*,*,#84,.T.);
#84 = EDGE_CURVE('',#60,#85,#87,.T.);
#85 = VERTEX_POINT('',#86);
#86 = CARTESIAN_POINT('',(2.5,3.552713678801E-15,-48.25));
#87 = SURFACE_CURVE('',#88,(#93,#101),.PCURVE_S1.);
#88 = B_SPLINE_CURVE_WITH_KNOTS('',3,(#89,#90,#91,#92),.UNSPECIFIED.,.F.
  ,.F.,(4,4),(0.,1.),.PIECEWISE_BEZIER_KNOTS.);
#89 = CARTESIAN_POINT('',(2.5,-30.,-48.25));
#90 = CARTESIAN_POINT('',(2.5,-29.9,-48.25));
#91 = CARTESIAN_POINT('',(2.5,-1.E-01,-48.25));
#92 = CARTESIAN_POINT('',(2.5,8.881784197001E-15,-48.25));
#93 = PCURVE('',#33,#94);
#94 = DEFINITIONAL_REPRESENTATION('',(#95),#100);
#95 = B_SPLINE_CURVE_WITH_KNOTS('',3,(#96,#97,#98,#99),.UNSPECIFIED.,.F.
  ,.F.,(4,4),(0.,1.),.PIECEWISE_BEZIER_KNOTS.);
#96 = CARTESIAN_POINT('',(2.5,-15.));
#97 = CARTESIAN_POINT('',(2.5,-14.9));
#98 = CARTESIAN_POINT('',(2.5,14.9));
#99 = CARTESIAN_POINT('',(2.5,15.));
#100 = ( GEOMETRIC_REPRESENTATION_CONTEXT(2) 
PARAMETRIC_REPRESENTATION_CONTEXT() REPRESENTATION_CONTEXT('2D SPACE',''
  ) );
#101 = PCURVE('',#102,#107);
#102 = PLANE('',#103);
#103 = AXIS2_PLACEMENT_3D('',#104,#105,#106);
#104 = CARTESIAN_POINT('',(2.5,-15.,-48.));
#105 = DIRECTION('',(-1.,4.004753648206E-18,-8.641890313823E-29));
#106 = DIRECTION('',(-8.641843295783E-29,1.174055746947E-16,1.));
#107 = DEFINITIONAL_REPRESENTATION('',(#108),#113);
#108 = B_SPLINE_CURVE_WITH_KNOTS('',3,(#109,#110,#111,#112),
  .UNSPECIFIED.,.F.,.F.,(4,4),(0.,1.),.PIECEWISE_BEZIER_KNOTS.);
#109 = CARTESIAN_POINT('',(-0.25,-15.));
#110 = CARTESIAN_POINT('',(-0.25,-14.9));
#111 = CARTESIAN_POINT('',(-0.25,14.9));
#112 = CARTESIAN_POINT('',(-0.25,15.));
#113 = ( GEOMETRIC_REPRESENTATION_CONTEXT(2) 
PARAMETRIC_REPRESENTATION_CONTEXT() REPRESENTATION_CONTEXT('2D SPACE',''
  ) );
#114 = ORIENTED_EDGE('',*,*,#115,.F.);
#115 = EDGE_CURVE('',#24,#85,#116,.T.);
#116 = SURFACE_CURVE('',#117,(#120,#126),.PCURVE_S1.);
#117 = B_SPLINE_CURVE_WITH_KNOTS('',1,(#118,#119),.UNSPECIFIED.,.F.,.F.,
  (2,2),(0.,5.),.PIECEWISE_BEZIER_KNOTS.);
#118 = CARTESIAN_POINT('',(-2.5,8.881784197001E-15,-48.25));
#119 = CARTESIAN_POINT('',(2.5,8.881784197001E-15,-48.25));
#120 = PCURVE('',#33,#121);
#121 = DEFINITIONAL_REPRESENTATION('',(#122),#125);
#122 = B_SPLINE_CURVE_WITH_KNOTS('',1,(#123,#124),.UNSPECIFIED.,.F.,.F.,
  (2,2),(0.,5.),.PIECEWISE_BEZIER_KNOTS.);
#123 = CARTESIAN_POINT('',(-2.5,15.));
#124 = CARTESIAN_POINT('',(2.5,15.));
#125 = ( GEOMETRIC_REPRESENTATION_CONTEXT(2) 
PARAMETRIC_REPRESENTATION_CONTEXT() REPRESENTATION_CONTEXT('2D SPACE',''
  ) );
#126 = PCURVE('',#127,#188);
#127 = B_SPLINE_SURFACE_WITH_KNOTS('',1,11,(
    (#128,#129,#130,#131,#132,#133,#134,#135,#136,#137,#138,#139,#140
      ,#141,#142,#143,#144,#145,#146,#147,#148,#149,#150,#151,#152,#153
      ,#154,#155,#156,#157)
    ,(#158,#159,#160,#161,#162,#163,#164,#165,#166,#167,#168,#169,#170
      ,#171,#172,#173,#174,#175,#176,#177,#178,#179,#180,#181,#182,#183
      ,#184,#185,#186,#187
  )),.UNSPECIFIED.,.F.,.F.,.F.,(2,2),(12,9,9,12),(0.,5.),(0.,0.5,0.75,1.
    ),.UNSPECIFIED.);
#128 = CARTESIAN_POINT('',(-2.5,1.06581410364E-14,-48.25));
#129 = CARTESIAN_POINT('',(-2.5,4.529073009746,-48.24999999999));
#130 = CARTESIAN_POINT('',(-2.5,9.628247288951,-48.13825570103));
#131 = CARTESIAN_POINT('',(-2.5,15.180489929352,-47.91253854548));
#132 = CARTESIAN_POINT('',(-2.499999999999,21.068431468948,
    -47.57046262144));
#133 = CARTESIAN_POINT('',(-2.500000000001,27.17446100261,
    -47.10960657987));
#134 = CARTESIAN_POINT('',(-2.499999999999,33.380829851703,
    -46.52758109159));
#135 = CARTESIAN_POINT('',(-2.500000000001,39.569763792706,
    -45.8220418432));
#136 = CARTESIAN_POINT('',(-2.499999999999,45.623583844728,
    -44.99064807295));
#137 = CARTESIAN_POINT('',(-2.5,51.424835616158,-44.03096664561));
#138 = CARTESIAN_POINT('',(-2.5,59.572223007108,-42.39499917778));
#139 = CARTESIAN_POINT('',(-2.5,66.625563389292,-40.45733584661));
#140 = CARTESIAN_POINT('',(-2.5,68.840544584122,-39.77722829229));
#141 = CARTESIAN_POINT('',(-2.5,70.904902459624,-39.06347308101));
#142 = CARTESIAN_POINT('',(-2.5,72.804335182464,-38.31467787884));
#143 = CARTESIAN_POINT('',(-2.5,74.52441730287,-37.52943359616));
#144 = CARTESIAN_POINT('',(-2.5,76.050779335526,-36.70770878732));
#145 = CARTESIAN_POINT('',(-2.5,77.369751446653,-35.84934719326));
#146 = CARTESIAN_POINT('',(-2.5,78.468500580225,-34.95071690094));
#147 = CARTESIAN_POINT('',(-2.5,80.196995430046,-33.05718634203));
#148 = CARTESIAN_POINT('',(-2.5,80.894356198835,-30.96137689785));
#149 = CARTESIAN_POINT('',(-2.5,80.96283759597,-29.86438963399));
#150 = CARTESIAN_POINT('',(-2.5,80.723103139587,-28.69546932735));
#151 = CARTESIAN_POINT('',(-2.5,80.11345414802,-27.59017725765));
#152 = CARTESIAN_POINT('',(-2.5,79.303457482358,-26.41919788806));
#153 = CARTESIAN_POINT('',(-2.5,78.082864691863,-25.22567662458));
#154 = CARTESIAN_POINT('',(-2.5,76.565876765572,-24.00277966469));
#155 = CARTESIAN_POINT('',(-2.5,74.680528207691,-22.74243965699));
#156 = CARTESIAN_POINT('',(-2.5,72.426545397655,-21.446496972));
#157 = CARTESIAN_POINT('',(-2.5,69.786876524551,-20.1135132962));
#158 = CARTESIAN_POINT('',(2.5,1.06581410364E-14,-48.25));
#159 = CARTESIAN_POINT('',(2.5,4.529073009746,-48.24999999999));
#160 = CARTESIAN_POINT('',(2.5,9.628247288951,-48.13825570103));
#161 = CARTESIAN_POINT('',(2.5,15.180489929352,-47.91253854548));
#162 = CARTESIAN_POINT('',(2.499999999999,21.068431468948,
    -47.57046262144));
#163 = CARTESIAN_POINT('',(2.500000000001,27.17446100261,-47.10960657987
    ));
#164 = CARTESIAN_POINT('',(2.499999999999,33.380829851703,
    -46.52758109159));
#165 = CARTESIAN_POINT('',(2.500000000001,39.569763792706,-45.8220418432
    ));
#166 = CARTESIAN_POINT('',(2.499999999999,45.623583844728,
    -44.99064807295));
#167 = CARTESIAN_POINT('',(2.5,51.424835616158,-44.03096664561));
#168 = CARTESIAN_POINT('',(2.5,59.572223007108,-42.39499917778));
#169 = CARTESIAN_POINT('',(2.5,66.625563389292,-40.45733584661));
#170 = CARTESIAN_POINT('',(2.5,68.840544584122,-39.77722829229));
#171 = CARTESIAN_POINT('',(2.5,70.904902459624,-39.06347308101));
#172 = CARTESIAN_POINT('',(2.5,72.804335182464,-38.31467787884));
#173 = CARTESIAN_POINT('',(2.5,74.52441730287,-37.52943359616));
#174 = CARTESIAN_POINT('',(2.5,76.050779335526,-36.70770878732));
#175 = CARTESIAN_POINT('',(2.5,77.369751446653,-35.84934719326));
#176 = CARTESIAN_POINT('',(2.5,78.468500580225,-34.95071690094));
#177 = CARTESIAN_POINT('',(2.5,80.196995430046,-33.05718634203));
#178 = CARTESIAN_POINT('',(2.5,80.894356198835,-30.96137689785));
#179 = CARTESIAN_POINT('',(2.5,80.96283759597,-29.86438963399));
#180 = CARTESIAN_POINT('',(2.5,80.723103139587,-28.69546932735));
#181 = CARTESIAN_POINT('',(2.5,80.11345414802,-27.59017725765));
#182 = CARTESIAN_POINT('',(2.5,79.303457482358,-26.41919788806));
#183 = CARTESIAN_POINT('',(2.5,78.082864691863,-25.22567662458));
#184 = CARTESIAN_POINT('',(2.5,76.565876765572,-24.00277966469));
#185 = CARTESIAN_POINT('',(2.5,74.680528207691,-22.74243965699));
#186 = CARTESIAN_POINT('',(2.5,72.426545397655,-21.446496972));
#187 = CARTESIAN_POINT('',(2.5,69.786876524551,-20.1135132962));
#188 = DEFINITIONAL_REPRESENTATION('',(#189),#192);
#189 = B_SPLINE_CURVE_WITH_KNOTS('',1,(#190,#191),.UNSPECIFIED.,.F.,.F.,
  (2,2),(0.,5.),.PIECEWISE_BEZIER_KNOTS.);
#190 = CARTESIAN_POINT('',(0.,0.));
#191 = CARTESIAN_POINT('',(5.,0.));
#192 = ( GEOMETRIC_REPRESENTATION_CONTEXT(2) 
PARAMETRIC_REPRESENTATION_CONTEXT() REPRESENTATION_CONTEXT('2D SPACE',''
  ) );
#193 = ADVANCED_FACE('',(#194),#102,.F.);
#194 = FACE_BOUND('',#195,.F.);
#195 = EDGE_LOOP('',(#196,#197,#217,#248,#385,#486,#517,#542,#573,#675)
  );
#196 = ORIENTED_EDGE('',*,*,#84,.F.);
#197 = ORIENTED_EDGE('',*,*,#198,.T.);
#198 = EDGE_CURVE('',#60,#199,#201,.T.);
#199 = VERTEX_POINT('',#200);
#200 = CARTESIAN_POINT('',(2.5,-30.,-47.75));
#201 = SURFACE_CURVE('',#202,(#205,#211),.PCURVE_S1.);
#202 = B_SPLINE_CURVE_WITH_KNOTS('',1,(#203,#204),.UNSPECIFIED.,.F.,.F.,
  (2,2),(0.,0.5),.PIECEWISE_BEZIER_KNOTS.);
#203 = CARTESIAN_POINT('',(2.5,-30.,-48.25));
#204 = CARTESIAN_POINT('',(2.5,-30.,-47.75));
#205 = PCURVE('',#102,#206);
#206 = DEFINITIONAL_REPRESENTATION('',(#207),#210);
#207 = B_SPLINE_CURVE_WITH_KNOTS('',1,(#208,#209),.UNSPECIFIED.,.F.,.F.,
  (2,2),(0.,0.5),.PIECEWISE_BEZIER_KNOTS.);
#208 = CARTESIAN_POINT('',(-0.25,-15.));
#209 = CARTESIAN_POINT('',(0.25,-15.));
#210 = ( GEOMETRIC_REPRESENTATION_CONTEXT(2) 
PARAMETRIC_REPRESENTATION_CONTEXT() REPRESENTATION_CONTEXT('2D SPACE',''
  ) );
#211 = PCURVE('',#73,#212);
#212 = DEFINITIONAL_REPRESENTATION('',(#213),#216);
#213 = B_SPLINE_CURVE_WITH_KNOTS('',1,(#214,#215),.UNSPECIFIED.,.F.,.F.,
  (2,2),(0.,0.5),.PIECEWISE_BEZIER_KNOTS.);
#214 = CARTESIAN_POINT('',(0.25,2.5));
#215 = CARTESIAN_POINT('',(-0.25,2.5));
#216 = ( GEOMETRIC_REPRESENTATION_CONTEXT(2) 
PARAMETRIC_REPRESENTATION_CONTEXT() REPRESENTATION_CONTEXT('2D SPACE',''
  ) );
#217 = ORIENTED_EDGE('',*,*,#218,.T.);
#218 = EDGE_CURVE('',#199,#219,#221,.T.);
#219 = VERTEX_POINT('',#220);
#220 = CARTESIAN_POINT('',(2.5,3.552713678801E-15,-47.75));
#221 = SURFACE_CURVE('',#222,(#227,#235),.PCURVE_S1.);
#222 = B_SPLINE_CURVE_WITH_KNOTS('',3,(#223,#224,#225,#226),
  .UNSPECIFIED.,.F.,.F.,(4,4),(0.,1.),.PIECEWISE_BEZIER_KNOTS.);
#223 = CARTESIAN_POINT('',(2.5,-30.,-47.75));
#224 = CARTESIAN_POINT('',(2.5,-29.9,-47.75));
#225 = CARTESIAN_POINT('',(2.5,-1.E-01,-47.75));
#226 = CARTESIAN_POINT('',(2.5,8.881784197001E-15,-47.75));
#227 = PCURVE('',#102,#228);
#228 = DEFINITIONAL_REPRESENTATION('',(#229),#234);
#229 = B_SPLINE_CURVE_WITH_KNOTS('',3,(#230,#231,#232,#233),
  .UNSPECIFIED.,.F.,.F.,(4,4),(0.,1.),.PIECEWISE_BEZIER_KNOTS.);
#230 = CARTESIAN_POINT('',(0.25,-15.));
#231 = CARTESIAN_POINT('',(0.25,-14.9));
#232 = CARTESIAN_POINT('',(0.25,14.9));
#233 = CARTESIAN_POINT('',(0.25,15.));
#234 = ( GEOMETRIC_REPRESENTATION_CONTEXT(2) 
PARAMETRIC_REPRESENTATION_CONTEXT() REPRESENTATION_CONTEXT('2D SPACE',''
  ) );
#235 = PCURVE('',#236,#241);
#236 = PLANE('',#237);
#237 = AXIS2_PLACEMENT_3D('',#238,#239,#240);
#238 = CARTESIAN_POINT('',(0.,-15.,-47.75));
#239 = DIRECTION('',(7.046704817456E-17,-1.513640280901E-16,-1.));
#240 = DIRECTION('',(-1.,5.020246460857E-19,-7.046704817456E-17));
#241 = DEFINITIONAL_REPRESENTATION('',(#242),#247);
#242 = B_SPLINE_CURVE_WITH_KNOTS('',3,(#243,#244,#245,#246),
  .UNSPECIFIED.,.F.,.F.,(4,4),(0.,1.),.PIECEWISE_BEZIER_KNOTS.);
#243 = CARTESIAN_POINT('',(-2.5,-15.));
#244 = CARTESIAN_POINT('',(-2.5,-14.9));
#245 = CARTESIAN_POINT('',(-2.5,14.9));
#246 = CARTESIAN_POINT('',(-2.5,15.));
#247 = ( GEOMETRIC_REPRESENTATION_CONTEXT(2) 
PARAMETRIC_REPRESENTATION_CONTEXT() REPRESENTATION_CONTEXT('2D SPACE',''
  ) );
#248 = ORIENTED_EDGE('',*,*,#249,.T.);
#249 = EDGE_CURVE('',#219,#250,#252,.T.);
#250 = VERTEX_POINT('',#251);
#251 = CARTESIAN_POINT('',(2.5,69.561492854578,-20.55983403436));
#252 = SURFACE_CURVE('',#253,(#284,#318),.PCURVE_S1.);
#253 = B_SPLINE_CURVE_WITH_KNOTS('',11,(#254,#255,#256,#257,#258,#259,
    #260,#261,#262,#263,#264,#265,#266,#267,#268,#269,#270,#271,#272,
    #273,#274,#275,#276,#277,#278,#279,#280,#281,#282,#283),
  .UNSPECIFIED.,.F.,.F.,(12,9,9,12),(0.,0.5,0.75,1.),.UNSPECIFIED.);
#254 = CARTESIAN_POINT('',(2.5,0.,-47.75));
#255 = CARTESIAN_POINT('',(2.5,4.517858162236,-47.74999999999));
#256 = CARTESIAN_POINT('',(2.5,9.608437871449,-47.6385324012));
#257 = CARTESIAN_POINT('',(2.5,15.153086326803,-47.41311361334));
#258 = CARTESIAN_POINT('',(2.499999999999,21.033487281169,
    -47.07141740057));
#259 = CARTESIAN_POINT('',(2.500000000001,27.131565930624,
    -46.61115296393));
#260 = CARTESIAN_POINT('',(2.499999999999,33.329385244602,
    -46.02999748494));
#261 = CARTESIAN_POINT('',(2.500000000001,39.509033737642,
    -45.32558312894));
#262 = CARTESIAN_POINT('',(2.499999999999,45.552504681401,
    -44.49553851002));
#263 = CARTESIAN_POINT('',(2.5,51.341566758482,-43.53758461543));
#264 = CARTESIAN_POINT('',(2.5,59.465655855647,-41.90573547957));
#265 = CARTESIAN_POINT('',(2.5,66.482507689167,-39.97793444312));
#266 = CARTESIAN_POINT('',(2.5,68.683542711206,-39.30255954932));
#267 = CARTESIAN_POINT('',(2.5,70.731692483958,-38.5932489684));
#268 = CARTESIAN_POINT('',(2.5,72.611798126999,-37.85080601586));
#269 = CARTESIAN_POINT('',(2.5,74.308824376638,-37.07605076274));
#270 = CARTESIAN_POINT('',(2.5,75.807680004363,-36.26842563635));
#271 = CARTESIAN_POINT('',(2.5,77.092574130472,-35.42749787713));
#272 = CARTESIAN_POINT('',(2.5,78.146879097253,-34.55631037974));
#273 = CARTESIAN_POINT('',(2.5,79.763946747186,-32.76797044929));
#274 = CARTESIAN_POINT('',(2.5,80.373214221643,-30.89508351039));
#275 = CARTESIAN_POINT('',(2.5,80.418852668374,-29.93542709079));
#276 = CARTESIAN_POINT('',(2.5,80.204051977205,-28.97481920361));
#277 = CARTESIAN_POINT('',(2.5,79.761050116206,-27.87710955054));
#278 = CARTESIAN_POINT('',(2.5,78.890819510589,-26.77102465011));
#279 = CARTESIAN_POINT('',(2.5,77.774147897523,-25.61283007762));
#280 = CARTESIAN_POINT('',(2.5,76.267373574268,-24.40877061731));
#281 = CARTESIAN_POINT('',(2.5,74.413001323028,-23.16632460196));
#282 = CARTESIAN_POINT('',(2.5,72.181844050703,-21.88306264264));
#283 = CARTESIAN_POINT('',(2.5,69.561492854578,-20.55983403436));
#284 = PCURVE('',#102,#285);
#285 = DEFINITIONAL_REPRESENTATION('',(#286),#317);
#286 = B_SPLINE_CURVE_WITH_KNOTS('',11,(#287,#288,#289,#290,#291,#292,
    #293,#294,#295,#296,#297,#298,#299,#300,#301,#302,#303,#304,#305,
    #306,#307,#308,#309,#310,#311,#312,#313,#314,#315,#316),
  .UNSPECIFIED.,.F.,.F.,(12,9,9,12),(0.,0.5,0.75,1.),.UNSPECIFIED.);
#287 = CARTESIAN_POINT('',(0.25,15.));
#288 = CARTESIAN_POINT('',(0.250000000001,19.517858162236));
#289 = CARTESIAN_POINT('',(0.361467598795,24.608437871449));
#290 = CARTESIAN_POINT('',(0.586886386653,30.153086326803));
#291 = CARTESIAN_POINT('',(0.928582599422,36.033487281169));
#292 = CARTESIAN_POINT('',(1.388847036065,42.131565930624));
#293 = CARTESIAN_POINT('',(1.970002515057,48.329385244602));
#294 = CARTESIAN_POINT('',(2.674416871052,54.509033737642));
#295 = CARTESIAN_POINT('',(3.504461489979,60.552504681401));
#296 = CARTESIAN_POINT('',(4.462415384562,66.341566758482));
#297 = CARTESIAN_POINT('',(6.094264520425,74.465655855647));
#298 = CARTESIAN_POINT('',(8.022065556879,81.482507689167));
#299 = CARTESIAN_POINT('',(8.697440450675,83.683542711206));
#300 = CARTESIAN_POINT('',(9.4067510316,85.731692483958));
#301 = CARTESIAN_POINT('',(10.149193984135,87.611798126999));
#302 = CARTESIAN_POINT('',(10.923949237256,89.308824376638));
#303 = CARTESIAN_POINT('',(11.731574363648,90.807680004363));
#304 = CARTESIAN_POINT('',(12.572502122868,92.092574130472));
#305 = CARTESIAN_POINT('',(13.443689620255,93.146879097253));
#306 = CARTESIAN_POINT('',(15.232029550706,94.763946747186));
#307 = CARTESIAN_POINT('',(17.104916489604,95.373214221643));
#308 = CARTESIAN_POINT('',(18.064572909209,95.418852668374));
#309 = CARTESIAN_POINT('',(19.025180796388,95.204051977205));
#310 = CARTESIAN_POINT('',(20.122890449455,94.761050116206));
#311 = CARTESIAN_POINT('',(21.228975349888,93.890819510589));
#312 = CARTESIAN_POINT('',(22.38716992238,92.774147897523));
#313 = CARTESIAN_POINT('',(23.591229382686,91.267373574268));
#314 = CARTESIAN_POINT('',(24.833675398041,89.413001323028));
#315 = CARTESIAN_POINT('',(26.116937357353,87.181844050703));
#316 = CARTESIAN_POINT('',(27.440165965638,84.561492854578));
#317 = ( GEOMETRIC_REPRESENTATION_CONTEXT(2) 
PARAMETRIC_REPRESENTATION_CONTEXT() REPRESENTATION_CONTEXT('2D SPACE',''
  ) );
#318 = PCURVE('',#319,#380);
#319 = B_SPLINE_SURFACE_WITH_KNOTS('',1,11,(
    (#320,#321,#322,#323,#324,#325,#326,#327,#328,#329,#330,#331,#332
      ,#333,#334,#335,#336,#337,#338,#339,#340,#341,#342,#343,#344,#345
      ,#346,#347,#348,#349)
    ,(#350,#351,#352,#353,#354,#355,#356,#357,#358,#359,#360,#361,#362
      ,#363,#364,#365,#366,#367,#368,#369,#370,#371,#372,#373,#374,#375
      ,#376,#377,#378,#379
  )),.UNSPECIFIED.,.F.,.F.,.F.,(2,2),(12,9,9,12),(0.,5.),(0.,0.5,0.75,1.
    ),.UNSPECIFIED.);
#320 = CARTESIAN_POINT('',(2.5,0.,-47.75));
#321 = CARTESIAN_POINT('',(2.5,4.517858162236,-47.74999999999));
#322 = CARTESIAN_POINT('',(2.5,9.608437871449,-47.6385324012));
#323 = CARTESIAN_POINT('',(2.5,15.153086326803,-47.41311361334));
#324 = CARTESIAN_POINT('',(2.499999999999,21.033487281169,
    -47.07141740057));
#325 = CARTESIAN_POINT('',(2.500000000001,27.131565930624,
    -46.61115296393));
#326 = CARTESIAN_POINT('',(2.499999999999,33.329385244602,
    -46.02999748494));
#327 = CARTESIAN_POINT('',(2.500000000001,39.509033737642,
    -45.32558312894));
#328 = CARTESIAN_POINT('',(2.499999999999,45.552504681401,
    -44.49553851002));
#329 = CARTESIAN_POINT('',(2.5,51.341566758482,-43.53758461543));
#330 = CARTESIAN_POINT('',(2.5,59.465655855647,-41.90573547957));
#331 = CARTESIAN_POINT('',(2.5,66.482507689167,-39.97793444312));
#332 = CARTESIAN_POINT('',(2.5,68.683542711206,-39.30255954932));
#333 = CARTESIAN_POINT('',(2.5,70.731692483958,-38.5932489684));
#334 = CARTESIAN_POINT('',(2.5,72.611798126999,-37.85080601586));
#335 = CARTESIAN_POINT('',(2.5,74.308824376638,-37.07605076274));
#336 = CARTESIAN_POINT('',(2.5,75.807680004363,-36.26842563635));
#337 = CARTESIAN_POINT('',(2.5,77.092574130472,-35.42749787713));
#338 = CARTESIAN_POINT('',(2.5,78.146879097253,-34.55631037974));
#339 = CARTESIAN_POINT('',(2.5,79.763946747186,-32.76797044929));
#340 = CARTESIAN_POINT('',(2.5,80.373214221643,-30.89508351039));
#341 = CARTESIAN_POINT('',(2.5,80.418852668374,-29.93542709079));
#342 = CARTESIAN_POINT('',(2.5,80.204051977205,-28.97481920361));
#343 = CARTESIAN_POINT('',(2.5,79.761050116206,-27.87710955054));
#344 = CARTESIAN_POINT('',(2.5,78.890819510589,-26.77102465011));
#345 = CARTESIAN_POINT('',(2.5,77.774147897523,-25.61283007762));
#346 = CARTESIAN_POINT('',(2.5,76.267373574268,-24.40877061731));
#347 = CARTESIAN_POINT('',(2.5,74.413001323028,-23.16632460196));
#348 = CARTESIAN_POINT('',(2.5,72.181844050703,-21.88306264264));
#349 = CARTESIAN_POINT('',(2.5,69.561492854578,-20.55983403436));
#350 = CARTESIAN_POINT('',(-2.5,0.,-47.75));
#351 = CARTESIAN_POINT('',(-2.5,4.517858162236,-47.74999999999));
#352 = CARTESIAN_POINT('',(-2.5,9.608437871449,-47.6385324012));
#353 = CARTESIAN_POINT('',(-2.5,15.153086326803,-47.41311361334));
#354 = CARTESIAN_POINT('',(-2.499999999999,21.033487281169,
    -47.07141740057));
#355 = CARTESIAN_POINT('',(-2.500000000001,27.131565930624,
    -46.61115296393));
#356 = CARTESIAN_POINT('',(-2.499999999999,33.329385244602,
    -46.02999748494));
#357 = CARTESIAN_POINT('',(-2.500000000001,39.509033737642,
    -45.32558312894));
#358 = CARTESIAN_POINT('',(-2.499999999999,45.552504681401,
    -44.49553851002));
#359 = CARTESIAN_POINT('',(-2.5,51.341566758482,-43.53758461543));
#360 = CARTESIAN_POINT('',(-2.5,59.465655855647,-41.90573547957));
#361 = CARTESIAN_POINT('',(-2.5,66.482507689167,-39.97793444312));
#362 = CARTESIAN_POINT('',(-2.5,68.683542711206,-39.30255954932));
#363 = CARTESIAN_POINT('',(-2.5,70.731692483958,-38.5932489684));
#364 = CARTESIAN_POINT('',(-2.5,72.611798126999,-37.85080601586));
#365 = CARTESIAN_POINT('',(-2.5,74.308824376638,-37.07605076274));
#366 = CARTESIAN_POINT('',(-2.5,75.807680004363,-36.26842563635));
#367 = CARTESIAN_POINT('',(-2.5,77.092574130472,-35.42749787713));
#368 = CARTESIAN_POINT('',(-2.5,78.146879097253,-34.55631037974));
#369 = CARTESIAN_POINT('',(-2.5,79.763946747186,-32.76797044929));
#370 = CARTESIAN_POINT('',(-2.5,80.373214221643,-30.89508351039));
#371 = CARTESIAN_POINT('',(-2.5,80.418852668374,-29.93542709079));
#372 = CARTESIAN_POINT('',(-2.5,80.204051977205,-28.97481920361));
#373 = CARTESIAN_POINT('',(-2.5,79.761050116206,-27.87710955054));
#374 = CARTESIAN_POINT('',(-2.5,78.890819510589,-26.77102465011));
#375 = CARTESIAN_POINT('',(-2.5,77.774147897523,-25.61283007762));
#376 = CARTESIAN_POINT('',(-2.5,76.267373574268,-24.40877061731));
#377 = CARTESIAN_POINT('',(-2.5,74.413001323028,-23.16632460196));
#378 = CARTESIAN_POINT('',(-2.5,72.181844050703,-21.88306264264));
#379 = CARTESIAN_POINT('',(-2.5,69.561492854578,-20.55983403436));
#380 = DEFINITIONAL_REPRESENTATION('',(#381),#384);
#381 = B_SPLINE_CURVE_WITH_KNOTS('',1,(#382,#383),.UNSPECIFIED.,.F.,.F.,
  (2,2),(0.,1.),.PIECEWISE_BEZIER_KNOTS.);
#382 = CARTESIAN_POINT('',(0.,0.));
#383 = CARTESIAN_POINT('',(0.,1.));
#384 = ( GEOMETRIC_REPRESENTATION_CONTEXT(2) 
PARAMETRIC_REPRESENTATION_CONTEXT() REPRESENTATION_CONTEXT('2D SPACE',''
  ) );
#385 = ORIENTED_EDGE('',*,*,#386,.T.);
#386 = EDGE_CURVE('',#250,#387,#389,.T.);
#387 = VERTEX_POINT('',#388);
#388 = CARTESIAN_POINT('',(2.5,122.,40.25));
#389 = SURFACE_CURVE('',#390,(#412,#437),.PCURVE_S1.);
#390 = B_SPLINE_CURVE_WITH_KNOTS('',11,(#391,#392,#393,#394,#395,#396,
    #397,#398,#399,#400,#401,#402,#403,#404,#405,#406,#407,#408,#409,
    #410,#411),.UNSPECIFIED.,.F.,.F.,(12,9,12),(0.,0.5,1.),
  .UNSPECIFIED.);
#391 = CARTESIAN_POINT('',(2.5,69.561492854578,-20.55983403436));
#392 = CARTESIAN_POINT('',(2.5,64.337082004661,-17.9216037436));
#393 = CARTESIAN_POINT('',(2.5,60.279863799797,-14.9784685512));
#394 = CARTESIAN_POINT('',(2.5,57.31986664269,-11.7727710496));
#395 = CARTESIAN_POINT('',(2.499999999999,55.403514810978,
    -8.361685477687));
#396 = CARTESIAN_POINT('',(2.500000000001,54.411709991612,
    -4.744213411803));
#397 = CARTESIAN_POINT('',(2.499999999999,54.44502402184,-1.026437682577
    ));
#398 = CARTESIAN_POINT('',(2.500000000001,55.233891300713,2.69352253518)
  );
#399 = CARTESIAN_POINT('',(2.5,56.814223951931,6.444430708384));
#400 = CARTESIAN_POINT('',(2.5,59.074416968369,10.140986575468));
#401 = CARTESIAN_POINT('',(2.5,64.834369183903,17.359218250449));
#402 = CARTESIAN_POINT('',(2.5,72.793038020944,24.03661337743));
#403 = CARTESIAN_POINT('',(2.5,77.253103399651,27.193956670503));
#404 = CARTESIAN_POINT('',(2.5,82.125123904569,30.123151208527));
#405 = CARTESIAN_POINT('',(2.5,87.340438536971,32.776985839216));
#406 = CARTESIAN_POINT('',(2.5,92.830451269959,35.108001038156));
#407 = CARTESIAN_POINT('',(2.5,98.526588848518,37.068592817079));
#408 = CARTESIAN_POINT('',(2.5,104.36026625194,38.611052243732));
#409 = CARTESIAN_POINT('',(2.5,110.26285981964,39.687540574725));
#410 = CARTESIAN_POINT('',(2.5,116.16568803962,40.249999999999));
#411 = CARTESIAN_POINT('',(2.5,122.,40.25));
#412 = PCURVE('',#102,#413);
#413 = DEFINITIONAL_REPRESENTATION('',(#414),#436);
#414 = B_SPLINE_CURVE_WITH_KNOTS('',11,(#415,#416,#417,#418,#419,#420,
    #421,#422,#423,#424,#425,#426,#427,#428,#429,#430,#431,#432,#433,
    #434,#435),.UNSPECIFIED.,.F.,.F.,(12,9,12),(0.,0.5,1.),
  .UNSPECIFIED.);
#415 = CARTESIAN_POINT('',(27.440165965638,84.561492854578));
#416 = CARTESIAN_POINT('',(30.078396256392,79.337082004661));
#417 = CARTESIAN_POINT('',(33.021531448792,75.279863799797));
#418 = CARTESIAN_POINT('',(36.227228950397,72.31986664269));
#419 = CARTESIAN_POINT('',(39.638314522313,70.403514810978));
#420 = CARTESIAN_POINT('',(43.255786588197,69.411709991612));
#421 = CARTESIAN_POINT('',(46.973562317423,69.44502402184));
#422 = CARTESIAN_POINT('',(50.69352253518,70.233891300713));
#423 = CARTESIAN_POINT('',(54.444430708384,71.814223951931));
#424 = CARTESIAN_POINT('',(58.140986575468,74.074416968369));
#425 = CARTESIAN_POINT('',(65.359218250449,79.834369183903));
#426 = CARTESIAN_POINT('',(72.03661337743,87.793038020944));
#427 = CARTESIAN_POINT('',(75.193956670503,92.253103399651));
#428 = CARTESIAN_POINT('',(78.123151208527,97.125123904569));
#429 = CARTESIAN_POINT('',(80.776985839216,102.34043853697));
#430 = CARTESIAN_POINT('',(83.108001038156,107.83045126995));
#431 = CARTESIAN_POINT('',(85.068592817079,113.52658884851));
#432 = CARTESIAN_POINT('',(86.611052243732,119.36026625194));
#433 = CARTESIAN_POINT('',(87.687540574725,125.26285981964));
#434 = CARTESIAN_POINT('',(88.249999999999,131.16568803962));
#435 = CARTESIAN_POINT('',(88.25,137.));
#436 = ( GEOMETRIC_REPRESENTATION_CONTEXT(2) 
PARAMETRIC_REPRESENTATION_CONTEXT() REPRESENTATION_CONTEXT('2D SPACE',''
  ) );
#437 = PCURVE('',#438,#481);
#438 = B_SPLINE_SURFACE_WITH_KNOTS('',1,11,(
    (#439,#440,#441,#442,#443,#444,#445,#446,#447,#448,#449,#450,#451
      ,#452,#453,#454,#455,#456,#457,#458,#459)
    ,(#460,#461,#462,#463,#464,#465,#466,#467,#468,#469,#470,#471,#472
      ,#473,#474,#475,#476,#477,#478,#479,#480
  )),.UNSPECIFIED.,.F.,.F.,.F.,(2,2),(12,9,12),(0.,5.),(0.,0.5,1.),
  .UNSPECIFIED.);
#439 = CARTESIAN_POINT('',(2.5,69.561492854578,-20.55983403436));
#440 = CARTESIAN_POINT('',(2.5,64.337082004661,-17.9216037436));
#441 = CARTESIAN_POINT('',(2.5,60.279863799797,-14.9784685512));
#442 = CARTESIAN_POINT('',(2.5,57.31986664269,-11.7727710496));
#443 = CARTESIAN_POINT('',(2.499999999999,55.403514810978,
    -8.361685477687));
#444 = CARTESIAN_POINT('',(2.500000000001,54.411709991612,
    -4.744213411803));
#445 = CARTESIAN_POINT('',(2.499999999999,54.44502402184,-1.026437682577
    ));
#446 = CARTESIAN_POINT('',(2.500000000001,55.233891300713,2.69352253518)
  );
#447 = CARTESIAN_POINT('',(2.5,56.814223951931,6.444430708384));
#448 = CARTESIAN_POINT('',(2.5,59.074416968369,10.140986575468));
#449 = CARTESIAN_POINT('',(2.5,64.834369183903,17.359218250449));
#450 = CARTESIAN_POINT('',(2.5,72.793038020944,24.03661337743));
#451 = CARTESIAN_POINT('',(2.5,77.253103399651,27.193956670503));
#452 = CARTESIAN_POINT('',(2.5,82.125123904569,30.123151208527));
#453 = CARTESIAN_POINT('',(2.5,87.340438536971,32.776985839216));
#454 = CARTESIAN_POINT('',(2.5,92.830451269959,35.108001038156));
#455 = CARTESIAN_POINT('',(2.5,98.526588848518,37.068592817079));
#456 = CARTESIAN_POINT('',(2.5,104.36026625194,38.611052243732));
#457 = CARTESIAN_POINT('',(2.5,110.26285981964,39.687540574725));
#458 = CARTESIAN_POINT('',(2.5,116.16568803962,40.249999999999));
#459 = CARTESIAN_POINT('',(2.5,122.,40.25));
#460 = CARTESIAN_POINT('',(-2.5,69.561492854578,-20.55983403436));
#461 = CARTESIAN_POINT('',(-2.5,64.337082004661,-17.9216037436));
#462 = CARTESIAN_POINT('',(-2.5,60.279863799797,-14.9784685512));
#463 = CARTESIAN_POINT('',(-2.5,57.31986664269,-11.7727710496));
#464 = CARTESIAN_POINT('',(-2.499999999999,55.403514810978,
    -8.361685477687));
#465 = CARTESIAN_POINT('',(-2.500000000001,54.411709991612,
    -4.744213411803));
#466 = CARTESIAN_POINT('',(-2.499999999999,54.44502402184,
    -1.026437682577));
#467 = CARTESIAN_POINT('',(-2.500000000001,55.233891300713,2.69352253518
    ));
#468 = CARTESIAN_POINT('',(-2.5,56.814223951931,6.444430708384));
#469 = CARTESIAN_POINT('',(-2.5,59.074416968369,10.140986575468));
#470 = CARTESIAN_POINT('',(-2.5,64.834369183903,17.359218250449));
#471 = CARTESIAN_POINT('',(-2.5,72.793038020944,24.03661337743));
#472 = CARTESIAN_POINT('',(-2.5,77.253103399651,27.193956670503));
#473 = CARTESIAN_POINT('',(-2.5,82.125123904569,30.123151208527));
#474 = CARTESIAN_POINT('',(-2.5,87.340438536971,32.776985839216));
#475 = CARTESIAN_POINT('',(-2.5,92.830451269959,35.108001038156));
#476 = CARTESIAN_POINT('',(-2.5,98.526588848518,37.068592817079));
#477 = CARTESIAN_POINT('',(-2.5,104.36026625194,38.611052243732));
#478 = CARTESIAN_POINT('',(-2.5,110.26285981964,39.687540574725));
#479 = CARTESIAN_POINT('',(-2.5,116.16568803962,40.249999999999));
#480 = CARTESIAN_POINT('',(-2.5,122.,40.25));
#481 = DEFINITIONAL_REPRESENTATION('',(#482),#485);
#482 = B_SPLINE_CURVE_WITH_KNOTS('',1,(#483,#484),.UNSPECIFIED.,.F.,.F.,
  (2,2),(0.,1.),.PIECEWISE_BEZIER_KNOTS.);
#483 = CARTESIAN_POINT('',(0.,0.));
#484 = CARTESIAN_POINT('',(0.,1.));
#485 = ( GEOMETRIC_REPRESENTATION_CONTEXT(2) 
PARAMETRIC_REPRESENTATION_CONTEXT() REPRESENTATION_CONTEXT('2D SPACE',''
  ) );
#486 = ORIENTED_EDGE('',*,*,#487,.T.);
#487 = EDGE_CURVE('',#387,#488,#490,.T.);
#488 = VERTEX_POINT('',#489);
#489 = CARTESIAN_POINT('',(2.5,137.,40.25));
#490 = SURFACE_CURVE('',#491,(#496,#504),.PCURVE_S1.);
#491 = B_SPLINE_CURVE_WITH_KNOTS('',3,(#492,#493,#494,#495),
  .UNSPECIFIED.,.F.,.F.,(4,4),(0.,1.),.PIECEWISE_BEZIER_KNOTS.);
#492 = CARTESIAN_POINT('',(2.5,122.,40.25));
#493 = CARTESIAN_POINT('',(2.5,122.1,40.25));
#494 = CARTESIAN_POINT('',(2.5,136.9,40.25));
#495 = CARTESIAN_POINT('',(2.5,137.,40.25));
#496 = PCURVE('',#102,#497);
#497 = DEFINITIONAL_REPRESENTATION('',(#498),#503);
#498 = B_SPLINE_CURVE_WITH_KNOTS('',3,(#499,#500,#501,#502),
  .UNSPECIFIED.,.F.,.F.,(4,4),(0.,1.),.PIECEWISE_BEZIER_KNOTS.);
#499 = CARTESIAN_POINT('',(88.25,137.));
#500 = CARTESIAN_POINT('',(88.25,137.1));
#501 = CARTESIAN_POINT('',(88.25,151.9));
#502 = CARTESIAN_POINT('',(88.25,152.));
#503 = ( GEOMETRIC_REPRESENTATION_CONTEXT(2) 
PARAMETRIC_REPRESENTATION_CONTEXT() REPRESENTATION_CONTEXT('2D SPACE',''
  ) );
#504 = PCURVE('',#505,#510);
#505 = PLANE('',#506);
#506 = AXIS2_PLACEMENT_3D('',#507,#508,#509);
#507 = CARTESIAN_POINT('',(0.,129.5,40.25));
#508 = DIRECTION('',(-3.523352408728E-17,1.001929792404E-16,-1.));
#509 = DIRECTION('',(-1.,-5.165465746943E-17,3.523352408728E-17));
#510 = DEFINITIONAL_REPRESENTATION('',(#511),#516);
#511 = B_SPLINE_CURVE_WITH_KNOTS('',3,(#512,#513,#514,#515),
  .UNSPECIFIED.,.F.,.F.,(4,4),(0.,1.),.PIECEWISE_BEZIER_KNOTS.);
#512 = CARTESIAN_POINT('',(-2.5,-7.5));
#513 = CARTESIAN_POINT('',(-2.5,-7.4));
#514 = CARTESIAN_POINT('',(-2.5,7.4));
#515 = CARTESIAN_POINT('',(-2.5,7.5));
#516 = ( GEOMETRIC_REPRESENTATION_CONTEXT(2) 
PARAMETRIC_REPRESENTATION_CONTEXT() REPRESENTATION_CONTEXT('2D SPACE',''
  ) );
#517 = ORIENTED_EDGE('',*,*,#518,.F.);
#518 = EDGE_CURVE('',#519,#488,#521,.T.);
#519 = VERTEX_POINT('',#520);
#520 = CARTESIAN_POINT('',(2.5,137.,39.75));
#521 = SURFACE_CURVE('',#522,(#525,#531),.PCURVE_S1.);
#522 = B_SPLINE_CURVE_WITH_KNOTS('',1,(#523,#524),.UNSPECIFIED.,.F.,.F.,
  (2,2),(0.,0.5),.PIECEWISE_BEZIER_KNOTS.);
#523 = CARTESIAN_POINT('',(2.5,137.,39.75));
#524 = CARTESIAN_POINT('',(2.5,137.,40.25));
#525 = PCURVE('',#102,#526);
#526 = DEFINITIONAL_REPRESENTATION('',(#527),#530);
#527 = B_SPLINE_CURVE_WITH_KNOTS('',1,(#528,#529),.UNSPECIFIED.,.F.,.F.,
  (2,2),(0.,0.5),.PIECEWISE_BEZIER_KNOTS.);
#528 = CARTESIAN_POINT('',(87.75,152.));
#529 = CARTESIAN_POINT('',(88.25,152.));
#530 = ( GEOMETRIC_REPRESENTATION_CONTEXT(2) 
PARAMETRIC_REPRESENTATION_CONTEXT() REPRESENTATION_CONTEXT('2D SPACE',''
  ) );
#531 = PCURVE('',#532,#537);
#532 = PLANE('',#533);
#533 = AXIS2_PLACEMENT_3D('',#534,#535,#536);
#534 = CARTESIAN_POINT('',(0.,137.,40.));
#535 = DIRECTION('',(-0.,-1.,-0.));
#536 = DIRECTION('',(0.,0.,-1.));
#537 = DEFINITIONAL_REPRESENTATION('',(#538),#541);
#538 = B_SPLINE_CURVE_WITH_KNOTS('',1,(#539,#540),.UNSPECIFIED.,.F.,.F.,
  (2,2),(0.,0.5),.PIECEWISE_BEZIER_KNOTS.);
#539 = CARTESIAN_POINT('',(0.25,2.5));
#540 = CARTESIAN_POINT('',(-0.25,2.5));
#541 = ( GEOMETRIC_REPRESENTATION_CONTEXT(2) 
PARAMETRIC_REPRESENTATION_CONTEXT() REPRESENTATION_CONTEXT('2D SPACE',''
  ) );
#542 = ORIENTED_EDGE('',*,*,#543,.F.);
#543 = EDGE_CURVE('',#544,#519,#546,.T.);
#544 = VERTEX_POINT('',#545);
#545 = CARTESIAN_POINT('',(2.5,122.,39.75));
#546 = SURFACE_CURVE('',#547,(#552,#560),.PCURVE_S1.);
#547 = B_SPLINE_CURVE_WITH_KNOTS('',3,(#548,#549,#550,#551),
  .UNSPECIFIED.,.F.,.F.,(4,4),(0.,1.),.PIECEWISE_BEZIER_KNOTS.);
#548 = CARTESIAN_POINT('',(2.5,122.,39.75));
#549 = CARTESIAN_POINT('',(2.5,122.1,39.75));
#550 = CARTESIAN_POINT('',(2.5,136.9,39.75));
#551 = CARTESIAN_POINT('',(2.5,137.,39.75));
#552 = PCURVE('',#102,#553);
#553 = DEFINITIONAL_REPRESENTATION('',(#554),#559);
#554 = B_SPLINE_CURVE_WITH_KNOTS('',3,(#555,#556,#557,#558),
  .UNSPECIFIED.,.F.,.F.,(4,4),(0.,1.),.PIECEWISE_BEZIER_KNOTS.);
#555 = CARTESIAN_POINT('',(87.75,137.));
#556 = CARTESIAN_POINT('',(87.75,137.1));
#557 = CARTESIAN_POINT('',(87.75,151.9));
#558 = CARTESIAN_POINT('',(87.75,152.));
#559 = ( GEOMETRIC_REPRESENTATION_CONTEXT(2) 
PARAMETRIC_REPRESENTATION_CONTEXT() REPRESENTATION_CONTEXT('2D SPACE',''
  ) );
#560 = PCURVE('',#561,#566);
#561 = PLANE('',#562);
#562 = AXIS2_PLACEMENT_3D('',#563,#564,#565);
#563 = CARTESIAN_POINT('',(0.,129.5,39.75));
#564 = DIRECTION('',(-1.409340963491E-16,-4.348746278988E-16,1.));
#565 = DIRECTION('',(1.,-5.165465746943E-17,1.409340963491E-16));
#566 = DEFINITIONAL_REPRESENTATION('',(#567),#572);
#567 = B_SPLINE_CURVE_WITH_KNOTS('',3,(#568,#569,#570,#571),
  .UNSPECIFIED.,.F.,.F.,(4,4),(0.,1.),.PIECEWISE_BEZIER_KNOTS.);
#568 = CARTESIAN_POINT('',(2.5,-7.5));
#569 = CARTESIAN_POINT('',(2.5,-7.4));
#570 = CARTESIAN_POINT('',(2.5,7.4));
#571 = CARTESIAN_POINT('',(2.5,7.5));
#572 = ( GEOMETRIC_REPRESENTATION_CONTEXT(2) 
PARAMETRIC_REPRESENTATION_CONTEXT() REPRESENTATION_CONTEXT('2D SPACE',''
  ) );
#573 = ORIENTED_EDGE('',*,*,#574,.F.);
#574 = EDGE_CURVE('',#575,#544,#577,.T.);
#575 = VERTEX_POINT('',#576);
#576 = CARTESIAN_POINT('',(2.5,69.786876524551,-20.1135132962));
#577 = SURFACE_CURVE('',#578,(#600,#625),.PCURVE_S1.);
#578 = B_SPLINE_CURVE_WITH_KNOTS('',11,(#579,#580,#581,#582,#583,#584,
    #585,#586,#587,#588,#589,#590,#591,#592,#593,#594,#595,#596,#597,
    #598,#599),.UNSPECIFIED.,.F.,.F.,(12,9,12),(0.,0.5,1.),
  .UNSPECIFIED.);
#579 = CARTESIAN_POINT('',(2.5,69.786876524551,-20.1135132962));
#580 = CARTESIAN_POINT('',(2.5,64.617808576703,-17.50323014146));
#581 = CARTESIAN_POINT('',(2.5,60.624831107128,-14.60200893205));
#582 = CARTESIAN_POINT('',(2.5,57.739874710872,-11.46287025648));
#583 = CARTESIAN_POINT('',(2.499999999999,55.878474108059,
    -8.124003056813));
#584 = CARTESIAN_POINT('',(2.500000000001,55.021686609509,
    -4.681768937658));
#585 = CARTESIAN_POINT('',(2.499999999999,54.930899375691,
    -1.125448249348));
#586 = CARTESIAN_POINT('',(2.500000000001,55.73763700538,2.547715001976)
  );
#587 = CARTESIAN_POINT('',(2.5,57.267946372561,6.213594168443));
#588 = CARTESIAN_POINT('',(2.5,59.495391482171,9.862126330663));
#589 = CARTESIAN_POINT('',(2.5,65.188625729495,16.999945731653));
#590 = CARTESIAN_POINT('',(2.5,73.086799767898,23.628898991542));
#591 = CARTESIAN_POINT('',(2.5,77.518028927815,26.766941038681));
#592 = CARTESIAN_POINT('',(2.5,82.362135060195,29.679979806667));
#593 = CARTESIAN_POINT('',(2.5,87.549738161471,32.319863266879));
#594 = CARTESIAN_POINT('',(2.5,93.011393256426,34.638687762707));
#595 = CARTESIAN_POINT('',(2.5,98.67763259762,36.588694101544));
#596 = CARTESIAN_POINT('',(2.5,104.47900020377,38.122228034617));
#597 = CARTESIAN_POINT('',(2.5,110.34607873301,39.191765124409));
#598 = CARTESIAN_POINT('',(2.5,116.20950869523,39.75));
#599 = CARTESIAN_POINT('',(2.5,122.,39.75));
#600 = PCURVE('',#102,#601);
#601 = DEFINITIONAL_REPRESENTATION('',(#602),#624);
#602 = B_SPLINE_CURVE_WITH_KNOTS('',11,(#603,#604,#605,#606,#607,#608,
    #609,#610,#611,#612,#613,#614,#615,#616,#617,#618,#619,#620,#621,
    #622,#623),.UNSPECIFIED.,.F.,.F.,(12,9,12),(0.,0.5,1.),
  .UNSPECIFIED.);
#603 = CARTESIAN_POINT('',(27.886486703796,84.786876524551));
#604 = CARTESIAN_POINT('',(30.496769858536,79.617808576703));
#605 = CARTESIAN_POINT('',(33.397991067949,75.624831107128));
#606 = CARTESIAN_POINT('',(36.53712974352,72.739874710872));
#607 = CARTESIAN_POINT('',(39.875996943187,70.878474108059));
#608 = CARTESIAN_POINT('',(43.318231062342,70.021686609509));
#609 = CARTESIAN_POINT('',(46.874551750652,69.930899375691));
#610 = CARTESIAN_POINT('',(50.547715001976,70.73763700538));
#611 = CARTESIAN_POINT('',(54.213594168443,72.267946372561));
#612 = CARTESIAN_POINT('',(57.862126330663,74.495391482171));
#613 = CARTESIAN_POINT('',(64.999945731653,80.188625729495));
#614 = CARTESIAN_POINT('',(71.628898991542,88.086799767898));
#615 = CARTESIAN_POINT('',(74.766941038681,92.518028927815));
#616 = CARTESIAN_POINT('',(77.679979806667,97.362135060195));
#617 = CARTESIAN_POINT('',(80.319863266879,102.54973816147));
#618 = CARTESIAN_POINT('',(82.638687762707,108.01139325642));
#619 = CARTESIAN_POINT('',(84.588694101544,113.67763259762));
#620 = CARTESIAN_POINT('',(86.122228034617,119.47900020377));
#621 = CARTESIAN_POINT('',(87.191765124409,125.34607873301));
#622 = CARTESIAN_POINT('',(87.75,131.20950869523));
#623 = CARTESIAN_POINT('',(87.75,137.));
#624 = ( GEOMETRIC_REPRESENTATION_CONTEXT(2) 
PARAMETRIC_REPRESENTATION_CONTEXT() REPRESENTATION_CONTEXT('2D SPACE',''
  ) );
#625 = PCURVE('',#626,#669);
#626 = B_SPLINE_SURFACE_WITH_KNOTS('',1,11,(
    (#627,#628,#629,#630,#631,#632,#633,#634,#635,#636,#637,#638,#639
      ,#640,#641,#642,#643,#644,#645,#646,#647)
    ,(#648,#649,#650,#651,#652,#653,#654,#655,#656,#657,#658,#659,#660
      ,#661,#662,#663,#664,#665,#666,#667,#668
  )),.UNSPECIFIED.,.F.,.F.,.F.,(2,2),(12,9,12),(0.,5.),(0.,0.5,1.),
  .UNSPECIFIED.);
#627 = CARTESIAN_POINT('',(-2.5,69.786876524551,-20.1135132962));
#628 = CARTESIAN_POINT('',(-2.5,64.617808576703,-17.50323014146));
#629 = CARTESIAN_POINT('',(-2.5,60.624831107128,-14.60200893205));
#630 = CARTESIAN_POINT('',(-2.5,57.739874710872,-11.46287025648));
#631 = CARTESIAN_POINT('',(-2.499999999999,55.878474108059,
    -8.124003056813));
#632 = CARTESIAN_POINT('',(-2.500000000001,55.021686609509,
    -4.681768937658));
#633 = CARTESIAN_POINT('',(-2.499999999999,54.930899375691,
    -1.125448249348));
#634 = CARTESIAN_POINT('',(-2.500000000001,55.73763700538,2.547715001976
    ));
#635 = CARTESIAN_POINT('',(-2.5,57.267946372561,6.213594168443));
#636 = CARTESIAN_POINT('',(-2.5,59.495391482171,9.862126330663));
#637 = CARTESIAN_POINT('',(-2.5,65.188625729495,16.999945731653));
#638 = CARTESIAN_POINT('',(-2.5,73.086799767898,23.628898991542));
#639 = CARTESIAN_POINT('',(-2.5,77.518028927815,26.766941038681));
#640 = CARTESIAN_POINT('',(-2.5,82.362135060195,29.679979806667));
#641 = CARTESIAN_POINT('',(-2.5,87.549738161471,32.319863266879));
#642 = CARTESIAN_POINT('',(-2.5,93.011393256426,34.638687762707));
#643 = CARTESIAN_POINT('',(-2.5,98.67763259762,36.588694101544));
#644 = CARTESIAN_POINT('',(-2.5,104.47900020377,38.122228034617));
#645 = CARTESIAN_POINT('',(-2.5,110.34607873301,39.191765124409));
#646 = CARTESIAN_POINT('',(-2.5,116.20950869523,39.75));
#647 = CARTESIAN_POINT('',(-2.5,122.,39.75));
#648 = CARTESIAN_POINT('',(2.5,69.786876524551,-20.1135132962));
#649 = CARTESIAN_POINT('',(2.5,64.617808576703,-17.50323014146));
#650 = CARTESIAN_POINT('',(2.5,60.624831107128,-14.60200893205));
#651 = CARTESIAN_POINT('',(2.5,57.739874710872,-11.46287025648));
#652 = CARTESIAN_POINT('',(2.499999999999,55.878474108059,
    -8.124003056813));
#653 = CARTESIAN_POINT('',(2.500000000001,55.021686609509,
    -4.681768937658));
#654 = CARTESIAN_POINT('',(2.499999999999,54.930899375691,
    -1.125448249348));
#655 = CARTESIAN_POINT('',(2.500000000001,55.73763700538,2.547715001976)
  );
#656 = CARTESIAN_POINT('',(2.5,57.267946372561,6.213594168443));
#657 = CARTESIAN_POINT('',(2.5,59.495391482171,9.862126330663));
#658 = CARTESIAN_POINT('',(2.5,65.188625729495,16.999945731653));
#659 = CARTESIAN_POINT('',(2.5,73.086799767898,23.628898991542));
#660 = CARTESIAN_POINT('',(2.5,77.518028927815,26.766941038681));
#661 = CARTESIAN_POINT('',(2.5,82.362135060195,29.679979806667));
#662 = CARTESIAN_POINT('',(2.5,87.549738161471,32.319863266879));
#663 = CARTESIAN_POINT('',(2.5,93.011393256426,34.638687762707));
#664 = CARTESIAN_POINT('',(2.5,98.67763259762,36.588694101544));
#665 = CARTESIAN_POINT('',(2.5,104.47900020377,38.122228034617));
#666 = CARTESIAN_POINT('',(2.5,110.34607873301,39.191765124409));
#667 = CARTESIAN_POINT('',(2.5,116.20950869523,39.75));
#668 = CARTESIAN_POINT('',(2.5,122.,39.75));
#669 = DEFINITIONAL_REPRESENTATION('',(#670),#674);
#670 = LINE('',#671,#672);
#671 = CARTESIAN_POINT('',(5.,0.));
#672 = VECTOR('',#673,1.);
#673 = DIRECTION('',(0.,1.));
#674 = ( GEOMETRIC_REPRESENTATION_CONTEXT(2) 
PARAMETRIC_REPRESENTATION_CONTEXT() REPRESENTATION_CONTEXT('2D SPACE',''
  ) );
#675 = ORIENTED_EDGE('',*,*,#676,.F.);
#676 = EDGE_CURVE('',#85,#575,#677,.T.);
#677 = SURFACE_CURVE('',#678,(#709,#743),.PCURVE_S1.);
#678 = B_SPLINE_CURVE_WITH_KNOTS('',11,(#679,#680,#681,#682,#683,#684,
    #685,#686,#687,#688,#689,#690,#691,#692,#693,#694,#695,#696,#697,
    #698,#699,#700,#701,#702,#703,#704,#705,#706,#707,#708),
  .UNSPECIFIED.,.F.,.F.,(12,9,9,12),(0.,0.5,0.75,1.),.UNSPECIFIED.);
#679 = CARTESIAN_POINT('',(2.5,1.06581410364E-14,-48.25));
#680 = CARTESIAN_POINT('',(2.5,4.529073009746,-48.24999999999));
#681 = CARTESIAN_POINT('',(2.5,9.628247288951,-48.13825570103));
#682 = CARTESIAN_POINT('',(2.5,15.180489929352,-47.91253854548));
#683 = CARTESIAN_POINT('',(2.499999999999,21.068431468948,
    -47.57046262144));
#684 = CARTESIAN_POINT('',(2.500000000001,27.17446100261,-47.10960657987
    ));
#685 = CARTESIAN_POINT('',(2.499999999999,33.380829851703,
    -46.52758109159));
#686 = CARTESIAN_POINT('',(2.500000000001,39.569763792706,-45.8220418432
    ));
#687 = CARTESIAN_POINT('',(2.499999999999,45.623583844728,
    -44.99064807295));
#688 = CARTESIAN_POINT('',(2.5,51.424835616158,-44.03096664561));
#689 = CARTESIAN_POINT('',(2.5,59.572223007108,-42.39499917778));
#690 = CARTESIAN_POINT('',(2.5,66.625563389292,-40.45733584661));
#691 = CARTESIAN_POINT('',(2.5,68.840544584122,-39.77722829229));
#692 = CARTESIAN_POINT('',(2.5,70.904902459624,-39.06347308101));
#693 = CARTESIAN_POINT('',(2.5,72.804335182464,-38.31467787884));
#694 = CARTESIAN_POINT('',(2.5,74.52441730287,-37.52943359616));
#695 = CARTESIAN_POINT('',(2.5,76.050779335526,-36.70770878732));
#696 = CARTESIAN_POINT('',(2.5,77.369751446653,-35.84934719326));
#697 = CARTESIAN_POINT('',(2.5,78.468500580225,-34.95071690094));
#698 = CARTESIAN_POINT('',(2.5,80.196995430046,-33.05718634203));
#699 = CARTESIAN_POINT('',(2.5,80.894356198835,-30.96137689785));
#700 = CARTESIAN_POINT('',(2.5,80.96283759597,-29.86438963399));
#701 = CARTESIAN_POINT('',(2.5,80.723103139587,-28.69546932735));
#702 = CARTESIAN_POINT('',(2.5,80.11345414802,-27.59017725765));
#703 = CARTESIAN_POINT('',(2.5,79.303457482358,-26.41919788806));
#704 = CARTESIAN_POINT('',(2.5,78.082864691863,-25.22567662458));
#705 = CARTESIAN_POINT('',(2.5,76.565876765572,-24.00277966469));
#706 = CARTESIAN_POINT('',(2.5,74.680528207691,-22.74243965699));
#707 = CARTESIAN_POINT('',(2.5,72.426545397655,-21.446496972));
#708 = CARTESIAN_POINT('',(2.5,69.786876524551,-20.1135132962));
#709 = PCURVE('',#102,#710);
#710 = DEFINITIONAL_REPRESENTATION('',(#711),#742);
#711 = B_SPLINE_CURVE_WITH_KNOTS('',11,(#712,#713,#714,#715,#716,#717,
    #718,#719,#720,#721,#722,#723,#724,#725,#726,#727,#728,#729,#730,
    #731,#732,#733,#734,#735,#736,#737,#738,#739,#740,#741),
  .UNSPECIFIED.,.F.,.F.,(12,9,9,12),(0.,0.5,0.75,1.),.UNSPECIFIED.);
#712 = CARTESIAN_POINT('',(-0.25,15.));
#713 = CARTESIAN_POINT('',(-0.249999999999,19.529073009746));
#714 = CARTESIAN_POINT('',(-0.138255701034,24.628247288951));
#715 = CARTESIAN_POINT('',(8.746145451201E-02,30.180489929352));
#716 = CARTESIAN_POINT('',(0.429537378558,36.068431468948));
#717 = CARTESIAN_POINT('',(0.890393420125,42.17446100261));
#718 = CARTESIAN_POINT('',(1.472418908411,48.380829851703));
#719 = CARTESIAN_POINT('',(2.177958156798,54.569763792706));
#720 = CARTESIAN_POINT('',(3.009351927042,60.623583844728));
#721 = CARTESIAN_POINT('',(3.969033354383,66.424835616158));
#722 = CARTESIAN_POINT('',(5.605000822218,74.572223007108));
#723 = CARTESIAN_POINT('',(7.542664153388,81.625563389292));
#724 = CARTESIAN_POINT('',(8.22277170771,83.840544584122));
#725 = CARTESIAN_POINT('',(8.936526918988,85.904902459624));
#726 = CARTESIAN_POINT('',(9.685322121159,87.804335182464));
#727 = CARTESIAN_POINT('',(10.470566403832,89.52441730287));
#728 = CARTESIAN_POINT('',(11.292291212674,91.050779335526));
#729 = CARTESIAN_POINT('',(12.150652806732,92.369751446653));
#730 = CARTESIAN_POINT('',(13.04928309906,93.468500580225));
#731 = CARTESIAN_POINT('',(14.942813657966,95.196995430046));
#732 = CARTESIAN_POINT('',(17.038623102144,95.894356198835));
#733 = CARTESIAN_POINT('',(18.135610366003,95.96283759597));
#734 = CARTESIAN_POINT('',(19.304530672645,95.723103139587));
#735 = CARTESIAN_POINT('',(20.409822742344,95.11345414802));
#736 = CARTESIAN_POINT('',(21.580802111936,94.303457482358));
#737 = CARTESIAN_POINT('',(22.774323375413,93.082864691863));
#738 = CARTESIAN_POINT('',(23.997220335304,91.565876765572));
#739 = CARTESIAN_POINT('',(25.257560343005,89.680528207691));
#740 = CARTESIAN_POINT('',(26.553503028,87.426545397655));
#741 = CARTESIAN_POINT('',(27.886486703796,84.786876524551));
#742 = ( GEOMETRIC_REPRESENTATION_CONTEXT(2) 
PARAMETRIC_REPRESENTATION_CONTEXT() REPRESENTATION_CONTEXT('2D SPACE',''
  ) );
#743 = PCURVE('',#127,#744);
#744 = DEFINITIONAL_REPRESENTATION('',(#745),#749);
#745 = LINE('',#746,#747);
#746 = CARTESIAN_POINT('',(5.,0.));
#747 = VECTOR('',#748,1.);
#748 = DIRECTION('',(0.,1.));
#749 = ( GEOMETRIC_REPRESENTATION_CONTEXT(2) 
PARAMETRIC_REPRESENTATION_CONTEXT() REPRESENTATION_CONTEXT('2D SPACE',''
  ) );
#750 = ADVANCED_FACE('',(#751),#236,.F.);
#751 = FACE_BOUND('',#752,.F.);
#752 = EDGE_LOOP('',(#753,#754,#774,#800));
#753 = ORIENTED_EDGE('',*,*,#218,.F.);
#754 = ORIENTED_EDGE('',*,*,#755,.T.);
#755 = EDGE_CURVE('',#199,#756,#758,.T.);
#756 = VERTEX_POINT('',#757);
#757 = CARTESIAN_POINT('',(-2.5,-30.,-47.75));
#758 = SURFACE_CURVE('',#759,(#762,#768),.PCURVE_S1.);
#759 = B_SPLINE_CURVE_WITH_KNOTS('',1,(#760,#761),.UNSPECIFIED.,.F.,.F.,
  (2,2),(0.,5.),.PIECEWISE_BEZIER_KNOTS.);
#760 = CARTESIAN_POINT('',(2.5,-30.,-47.75));
#761 = CARTESIAN_POINT('',(-2.5,-30.,-47.75));
#762 = PCURVE('',#236,#763);
#763 = DEFINITIONAL_REPRESENTATION('',(#764),#767);
#764 = B_SPLINE_CURVE_WITH_KNOTS('',1,(#765,#766),.UNSPECIFIED.,.F.,.F.,
  (2,2),(0.,5.),.PIECEWISE_BEZIER_KNOTS.);
#765 = CARTESIAN_POINT('',(-2.5,-15.));
#766 = CARTESIAN_POINT('',(2.5,-15.));
#767 = ( GEOMETRIC_REPRESENTATION_CONTEXT(2) 
PARAMETRIC_REPRESENTATION_CONTEXT() REPRESENTATION_CONTEXT('2D SPACE',''
  ) );
#768 = PCURVE('',#73,#769);
#769 = DEFINITIONAL_REPRESENTATION('',(#770),#773);
#770 = B_SPLINE_CURVE_WITH_KNOTS('',1,(#771,#772),.UNSPECIFIED.,.F.,.F.,
  (2,2),(0.,5.),.PIECEWISE_BEZIER_KNOTS.);
#771 = CARTESIAN_POINT('',(-0.25,2.5));
#772 = CARTESIAN_POINT('',(-0.25,-2.5));
#773 = ( GEOMETRIC_REPRESENTATION_CONTEXT(2) 
PARAMETRIC_REPRESENTATION_CONTEXT() REPRESENTATION_CONTEXT('2D SPACE',''
  ) );
#774 = ORIENTED_EDGE('',*,*,#775,.T.);
#775 = EDGE_CURVE('',#756,#776,#778,.T.);
#776 = VERTEX_POINT('',#777);
#777 = CARTESIAN_POINT('',(-2.5,3.552713678801E-15,-47.75));
#778 = SURFACE_CURVE('',#779,(#784,#792),.PCURVE_S1.);
#779 = B_SPLINE_CURVE_WITH_KNOTS('',3,(#780,#781,#782,#783),
  .UNSPECIFIED.,.F.,.F.,(4,4),(0.,1.),.PIECEWISE_BEZIER_KNOTS.);
#780 = CARTESIAN_POINT('',(-2.5,-30.,-47.75));
#781 = CARTESIAN_POINT('',(-2.5,-29.9,-47.75));
#782 = CARTESIAN_POINT('',(-2.5,-1.E-01,-47.75));
#783 = CARTESIAN_POINT('',(-2.5,8.881784197001E-15,-47.75));
#784 = PCURVE('',#236,#785);
#785 = DEFINITIONAL_REPRESENTATION('',(#786),#791);
#786 = B_SPLINE_CURVE_WITH_KNOTS('',3,(#787,#788,#789,#790),
  .UNSPECIFIED.,.F.,.F.,(4,4),(0.,1.),.PIECEWISE_BEZIER_KNOTS.);
#787 = CARTESIAN_POINT('',(2.5,-15.));
#788 = CARTESIAN_POINT('',(2.5,-14.9));
#789 = CARTESIAN_POINT('',(2.5,14.9));
#790 = CARTESIAN_POINT('',(2.5,15.));
#791 = ( GEOMETRIC_REPRESENTATION_CONTEXT(2) 
PARAMETRIC_REPRESENTATION_CONTEXT() REPRESENTATION_CONTEXT('2D SPACE',''
  ) );
#792 = PCURVE('',#46,#793);
#793 = DEFINITIONAL_REPRESENTATION('',(#794),#799);
#794 = B_SPLINE_CURVE_WITH_KNOTS('',3,(#795,#796,#797,#798),
  .UNSPECIFIED.,.F.,.F.,(4,4),(0.,1.),.PIECEWISE_BEZIER_KNOTS.);
#795 = CARTESIAN_POINT('',(-0.25,-15.));
#796 = CARTESIAN_POINT('',(-0.25,-14.9));
#797 = CARTESIAN_POINT('',(-0.25,14.9));
#798 = CARTESIAN_POINT('',(-0.25,15.));
#799 = ( GEOMETRIC_REPRESENTATION_CONTEXT(2) 
PARAMETRIC_REPRESENTATION_CONTEXT() REPRESENTATION_CONTEXT('2D SPACE',''
  ) );
#800 = ORIENTED_EDGE('',*,*,#801,.F.);
#801 = EDGE_CURVE('',#219,#776,#802,.T.);
#802 = SURFACE_CURVE('',#803,(#806,#812),.PCURVE_S1.);
#803 = B_SPLINE_CURVE_WITH_KNOTS('',1,(#804,#805),.UNSPECIFIED.,.F.,.F.,
  (2,2),(0.,5.),.PIECEWISE_BEZIER_KNOTS.);
#804 = CARTESIAN_POINT('',(2.5,8.881784197001E-15,-47.75));
#805 = CARTESIAN_POINT('',(-2.5,8.881784197001E-15,-47.75));
#806 = PCURVE('',#236,#807);
#807 = DEFINITIONAL_REPRESENTATION('',(#808),#811);
#808 = B_SPLINE_CURVE_WITH_KNOTS('',1,(#809,#810),.UNSPECIFIED.,.F.,.F.,
  (2,2),(0.,5.),.PIECEWISE_BEZIER_KNOTS.);
#809 = CARTESIAN_POINT('',(-2.5,15.));
#810 = CARTESIAN_POINT('',(2.5,15.));
#811 = ( GEOMETRIC_REPRESENTATION_CONTEXT(2) 
PARAMETRIC_REPRESENTATION_CONTEXT() REPRESENTATION_CONTEXT('2D SPACE',''
  ) );
#812 = PCURVE('',#319,#813);
#813 = DEFINITIONAL_REPRESENTATION('',(#814),#817);
#814 = B_SPLINE_CURVE_WITH_KNOTS('',1,(#815,#816),.UNSPECIFIED.,.F.,.F.,
  (2,2),(0.,5.),.PIECEWISE_BEZIER_KNOTS.);
#815 = CARTESIAN_POINT('',(0.,0.));
#816 = CARTESIAN_POINT('',(5.,0.));
#817 = ( GEOMETRIC_REPRESENTATION_CONTEXT(2) 
PARAMETRIC_REPRESENTATION_CONTEXT() REPRESENTATION_CONTEXT('2D SPACE',''
  ) );
#818 = ADVANCED_FACE('',(#819),#46,.F.);
#819 = FACE_BOUND('',#820,.F.);
#820 = EDGE_LOOP('',(#821,#822,#840,#841,#918,#977,#1003,#1023,#1049,
    #1108));
#821 = ORIENTED_EDGE('',*,*,#775,.F.);
#822 = ORIENTED_EDGE('',*,*,#823,.T.);
#823 = EDGE_CURVE('',#756,#22,#824,.T.);
#824 = SURFACE_CURVE('',#825,(#828,#834),.PCURVE_S1.);
#825 = B_SPLINE_CURVE_WITH_KNOTS('',1,(#826,#827),.UNSPECIFIED.,.F.,.F.,
  (2,2),(0.,0.5),.PIECEWISE_BEZIER_KNOTS.);
#826 = CARTESIAN_POINT('',(-2.5,-30.,-47.75));
#827 = CARTESIAN_POINT('',(-2.5,-30.,-48.25));
#828 = PCURVE('',#46,#829);
#829 = DEFINITIONAL_REPRESENTATION('',(#830),#833);
#830 = B_SPLINE_CURVE_WITH_KNOTS('',1,(#831,#832),.UNSPECIFIED.,.F.,.F.,
  (2,2),(0.,0.5),.PIECEWISE_BEZIER_KNOTS.);
#831 = CARTESIAN_POINT('',(-0.25,-15.));
#832 = CARTESIAN_POINT('',(0.25,-15.));
#833 = ( GEOMETRIC_REPRESENTATION_CONTEXT(2) 
PARAMETRIC_REPRESENTATION_CONTEXT() REPRESENTATION_CONTEXT('2D SPACE',''
  ) );
#834 = PCURVE('',#73,#835);
#835 = DEFINITIONAL_REPRESENTATION('',(#836),#839);
#836 = B_SPLINE_CURVE_WITH_KNOTS('',1,(#837,#838),.UNSPECIFIED.,.F.,.F.,
  (2,2),(0.,0.5),.PIECEWISE_BEZIER_KNOTS.);
#837 = CARTESIAN_POINT('',(-0.25,-2.5));
#838 = CARTESIAN_POINT('',(0.25,-2.5));
#839 = ( GEOMETRIC_REPRESENTATION_CONTEXT(2) 
PARAMETRIC_REPRESENTATION_CONTEXT() REPRESENTATION_CONTEXT('2D SPACE',''
  ) );
#840 = ORIENTED_EDGE('',*,*,#21,.T.);
#841 = ORIENTED_EDGE('',*,*,#842,.T.);
#842 = EDGE_CURVE('',#24,#843,#845,.T.);
#843 = VERTEX_POINT('',#844);
#844 = CARTESIAN_POINT('',(-2.5,69.786876524551,-20.1135132962));
#845 = SURFACE_CURVE('',#846,(#877,#911),.PCURVE_S1.);
#846 = B_SPLINE_CURVE_WITH_KNOTS('',11,(#847,#848,#849,#850,#851,#852,
    #853,#854,#855,#856,#857,#858,#859,#860,#861,#862,#863,#864,#865,
    #866,#867,#868,#869,#870,#871,#872,#873,#874,#875,#876),
  .UNSPECIFIED.,.F.,.F.,(12,9,9,12),(0.,0.5,0.75,1.),.UNSPECIFIED.);
#847 = CARTESIAN_POINT('',(-2.5,1.06581410364E-14,-48.25));
#848 = CARTESIAN_POINT('',(-2.5,4.529073009746,-48.24999999999));
#849 = CARTESIAN_POINT('',(-2.5,9.628247288951,-48.13825570103));
#850 = CARTESIAN_POINT('',(-2.5,15.180489929352,-47.91253854548));
#851 = CARTESIAN_POINT('',(-2.499999999999,21.068431468948,
    -47.57046262144));
#852 = CARTESIAN_POINT('',(-2.500000000001,27.17446100261,
    -47.10960657987));
#853 = CARTESIAN_POINT('',(-2.499999999999,33.380829851703,
    -46.52758109159));
#854 = CARTESIAN_POINT('',(-2.500000000001,39.569763792706,
    -45.8220418432));
#855 = CARTESIAN_POINT('',(-2.499999999999,45.623583844728,
    -44.99064807295));
#856 = CARTESIAN_POINT('',(-2.5,51.424835616158,-44.03096664561));
#857 = CARTESIAN_POINT('',(-2.5,59.572223007108,-42.39499917778));
#858 = CARTESIAN_POINT('',(-2.5,66.625563389292,-40.45733584661));
#859 = CARTESIAN_POINT('',(-2.5,68.840544584122,-39.77722829229));
#860 = CARTESIAN_POINT('',(-2.5,70.904902459624,-39.06347308101));
#861 = CARTESIAN_POINT('',(-2.5,72.804335182464,-38.31467787884));
#862 = CARTESIAN_POINT('',(-2.5,74.52441730287,-37.52943359616));
#863 = CARTESIAN_POINT('',(-2.5,76.050779335526,-36.70770878732));
#864 = CARTESIAN_POINT('',(-2.5,77.369751446653,-35.84934719326));
#865 = CARTESIAN_POINT('',(-2.5,78.468500580225,-34.95071690094));
#866 = CARTESIAN_POINT('',(-2.5,80.196995430046,-33.05718634203));
#867 = CARTESIAN_POINT('',(-2.5,80.894356198835,-30.96137689785));
#868 = CARTESIAN_POINT('',(-2.5,80.96283759597,-29.86438963399));
#869 = CARTESIAN_POINT('',(-2.5,80.723103139587,-28.69546932735));
#870 = CARTESIAN_POINT('',(-2.5,80.11345414802,-27.59017725765));
#871 = CARTESIAN_POINT('',(-2.5,79.303457482358,-26.41919788806));
#872 = CARTESIAN_POINT('',(-2.5,78.082864691863,-25.22567662458));
#873 = CARTESIAN_POINT('',(-2.5,76.565876765572,-24.00277966469));
#874 = CARTESIAN_POINT('',(-2.5,74.680528207691,-22.74243965699));
#875 = CARTESIAN_POINT('',(-2.5,72.426545397655,-21.446496972));
#876 = CARTESIAN_POINT('',(-2.5,69.786876524551,-20.1135132962));
#877 = PCURVE('',#46,#878);
#878 = DEFINITIONAL_REPRESENTATION('',(#879),#910);
#879 = B_SPLINE_CURVE_WITH_KNOTS('',11,(#880,#881,#882,#883,#884,#885,
    #886,#887,#888,#889,#890,#891,#892,#893,#894,#895,#896,#897,#898,
    #899,#900,#901,#902,#903,#904,#905,#906,#907,#908,#909),
  .UNSPECIFIED.,.F.,.F.,(12,9,9,12),(0.,0.5,0.75,1.),.UNSPECIFIED.);
#880 = CARTESIAN_POINT('',(0.25,15.));
#881 = CARTESIAN_POINT('',(0.249999999999,19.529073009746));
#882 = CARTESIAN_POINT('',(0.138255701034,24.628247288951));
#883 = CARTESIAN_POINT('',(-8.746145451191E-02,30.180489929352));
#884 = CARTESIAN_POINT('',(-0.429537378558,36.068431468948));
#885 = CARTESIAN_POINT('',(-0.890393420125,42.17446100261));
#886 = CARTESIAN_POINT('',(-1.47241890841,48.380829851703));
#887 = CARTESIAN_POINT('',(-2.177958156798,54.569763792706));
#888 = CARTESIAN_POINT('',(-3.009351927042,60.623583844728));
#889 = CARTESIAN_POINT('',(-3.969033354382,66.424835616158));
#890 = CARTESIAN_POINT('',(-5.605000822218,74.572223007108));
#891 = CARTESIAN_POINT('',(-7.542664153388,81.625563389292));
#892 = CARTESIAN_POINT('',(-8.222771707709,83.840544584122));
#893 = CARTESIAN_POINT('',(-8.936526918988,85.904902459624));
#894 = CARTESIAN_POINT('',(-9.685322121159,87.804335182464));
#895 = CARTESIAN_POINT('',(-10.47056640383,89.52441730287));
#896 = CARTESIAN_POINT('',(-11.29229121267,91.050779335526));
#897 = CARTESIAN_POINT('',(-12.15065280673,92.369751446653));
#898 = CARTESIAN_POINT('',(-13.04928309906,93.468500580225));
#899 = CARTESIAN_POINT('',(-14.94281365796,95.196995430046));
#900 = CARTESIAN_POINT('',(-17.03862310214,95.894356198835));
#901 = CARTESIAN_POINT('',(-18.135610366,95.96283759597));
#902 = CARTESIAN_POINT('',(-19.30453067264,95.723103139587));
#903 = CARTESIAN_POINT('',(-20.40982274234,95.11345414802));
#904 = CARTESIAN_POINT('',(-21.58080211193,94.303457482358));
#905 = CARTESIAN_POINT('',(-22.77432337541,93.082864691863));
#906 = CARTESIAN_POINT('',(-23.9972203353,91.565876765572));
#907 = CARTESIAN_POINT('',(-25.257560343,89.680528207691));
#908 = CARTESIAN_POINT('',(-26.553503028,87.426545397655));
#909 = CARTESIAN_POINT('',(-27.88648670379,84.786876524551));
#910 = ( GEOMETRIC_REPRESENTATION_CONTEXT(2) 
PARAMETRIC_REPRESENTATION_CONTEXT() REPRESENTATION_CONTEXT('2D SPACE',''
  ) );
#911 = PCURVE('',#127,#912);
#912 = DEFINITIONAL_REPRESENTATION('',(#913),#917);
#913 = LINE('',#914,#915);
#914 = CARTESIAN_POINT('',(0.,0.));
#915 = VECTOR('',#916,1.);
#916 = DIRECTION('',(0.,1.));
#917 = ( GEOMETRIC_REPRESENTATION_CONTEXT(2) 
PARAMETRIC_REPRESENTATION_CONTEXT() REPRESENTATION_CONTEXT('2D SPACE',''
  ) );
#918 = ORIENTED_EDGE('',*,*,#919,.T.);
#919 = EDGE_CURVE('',#843,#920,#922,.T.);
#920 = VERTEX_POINT('',#921);
#921 = CARTESIAN_POINT('',(-2.5,122.,39.75));
#922 = SURFACE_CURVE('',#923,(#945,#970),.PCURVE_S1.);
#923 = B_SPLINE_CURVE_WITH_KNOTS('',11,(#924,#925,#926,#927,#928,#929,
    #930,#931,#932,#933,#934,#935,#936,#937,#938,#939,#940,#941,#942,
    #943,#944),.UNSPECIFIED.,.F.,.F.,(12,9,12),(0.,0.5,1.),
  .UNSPECIFIED.);
#924 = CARTESIAN_POINT('',(-2.5,69.786876524551,-20.1135132962));
#925 = CARTESIAN_POINT('',(-2.5,64.617808576703,-17.50323014146));
#926 = CARTESIAN_POINT('',(-2.5,60.624831107128,-14.60200893205));
#927 = CARTESIAN_POINT('',(-2.5,57.739874710872,-11.46287025648));
#928 = CARTESIAN_POINT('',(-2.499999999999,55.878474108059,
    -8.124003056813));
#929 = CARTESIAN_POINT('',(-2.500000000001,55.021686609509,
    -4.681768937658));
#930 = CARTESIAN_POINT('',(-2.499999999999,54.930899375691,
    -1.125448249348));
#931 = CARTESIAN_POINT('',(-2.500000000001,55.73763700538,2.547715001976
    ));
#932 = CARTESIAN_POINT('',(-2.5,57.267946372561,6.213594168443));
#933 = CARTESIAN_POINT('',(-2.5,59.495391482171,9.862126330663));
#934 = CARTESIAN_POINT('',(-2.5,65.188625729495,16.999945731653));
#935 = CARTESIAN_POINT('',(-2.5,73.086799767898,23.628898991542));
#936 = CARTESIAN_POINT('',(-2.5,77.518028927815,26.766941038681));
#937 = CARTESIAN_POINT('',(-2.5,82.362135060195,29.679979806667));
#938 = CARTESIAN_POINT('',(-2.5,87.549738161471,32.319863266879));
#939 = CARTESIAN_POINT('',(-2.5,93.011393256426,34.638687762707));
#940 = CARTESIAN_POINT('',(-2.5,98.67763259762,36.588694101544));
#941 = CARTESIAN_POINT('',(-2.5,104.47900020377,38.122228034617));
#942 = CARTESIAN_POINT('',(-2.5,110.34607873301,39.191765124409));
#943 = CARTESIAN_POINT('',(-2.5,116.20950869523,39.75));
#944 = CARTESIAN_POINT('',(-2.5,122.,39.75));
#945 = PCURVE('',#46,#946);
#946 = DEFINITIONAL_REPRESENTATION('',(#947),#969);
#947 = B_SPLINE_CURVE_WITH_KNOTS('',11,(#948,#949,#950,#951,#952,#953,
    #954,#955,#956,#957,#958,#959,#960,#961,#962,#963,#964,#965,#966,
    #967,#968),.UNSPECIFIED.,.F.,.F.,(12,9,12),(0.,0.5,1.),
  .UNSPECIFIED.);
#948 = CARTESIAN_POINT('',(-27.88648670379,84.786876524551));
#949 = CARTESIAN_POINT('',(-30.49676985853,79.617808576703));
#950 = CARTESIAN_POINT('',(-33.39799106794,75.624831107128));
#951 = CARTESIAN_POINT('',(-36.53712974352,72.739874710872));
#952 = CARTESIAN_POINT('',(-39.87599694318,70.878474108059));
#953 = CARTESIAN_POINT('',(-43.31823106234,70.021686609509));
#954 = CARTESIAN_POINT('',(-46.87455175065,69.930899375691));
#955 = CARTESIAN_POINT('',(-50.54771500197,70.73763700538));
#956 = CARTESIAN_POINT('',(-54.21359416844,72.267946372561));
#957 = CARTESIAN_POINT('',(-57.86212633066,74.495391482171));
#958 = CARTESIAN_POINT('',(-64.99994573165,80.188625729495));
#959 = CARTESIAN_POINT('',(-71.62889899154,88.086799767898));
#960 = CARTESIAN_POINT('',(-74.76694103868,92.518028927815));
#961 = CARTESIAN_POINT('',(-77.67997980666,97.362135060195));
#962 = CARTESIAN_POINT('',(-80.31986326687,102.54973816147));
#963 = CARTESIAN_POINT('',(-82.6386877627,108.01139325642));
#964 = CARTESIAN_POINT('',(-84.58869410154,113.67763259762));
#965 = CARTESIAN_POINT('',(-86.12222803461,119.47900020377));
#966 = CARTESIAN_POINT('',(-87.1917651244,125.34607873301));
#967 = CARTESIAN_POINT('',(-87.75,131.20950869523));
#968 = CARTESIAN_POINT('',(-87.75,137.));
#969 = ( GEOMETRIC_REPRESENTATION_CONTEXT(2) 
PARAMETRIC_REPRESENTATION_CONTEXT() REPRESENTATION_CONTEXT('2D SPACE',''
  ) );
#970 = PCURVE('',#626,#971);
#971 = DEFINITIONAL_REPRESENTATION('',(#972),#976);
#972 = LINE('',#973,#974);
#973 = CARTESIAN_POINT('',(0.,0.));
#974 = VECTOR('',#975,1.);
#975 = DIRECTION('',(0.,1.));
#976 = ( GEOMETRIC_REPRESENTATION_CONTEXT(2) 
PARAMETRIC_REPRESENTATION_CONTEXT() REPRESENTATION_CONTEXT('2D SPACE',''
  ) );
#977 = ORIENTED_EDGE('',*,*,#978,.T.);
#978 = EDGE_CURVE('',#920,#979,#981,.T.);
#979 = VERTEX_POINT('',#980);
#980 = CARTESIAN_POINT('',(-2.5,137.,39.75));
#981 = SURFACE_CURVE('',#982,(#987,#995),.PCURVE_S1.);
#982 = B_SPLINE_CURVE_WITH_KNOTS('',3,(#983,#984,#985,#986),
  .UNSPECIFIED.,.F.,.F.,(4,4),(0.,1.),.PIECEWISE_BEZIER_KNOTS.);
#983 = CARTESIAN_POINT('',(-2.5,122.,39.75));
#984 = CARTESIAN_POINT('',(-2.5,122.1,39.75));
#985 = CARTESIAN_POINT('',(-2.5,136.9,39.75));
#986 = CARTESIAN_POINT('',(-2.5,137.,39.75));
#987 = PCURVE('',#46,#988);
#988 = DEFINITIONAL_REPRESENTATION('',(#989),#994);
#989 = B_SPLINE_CURVE_WITH_KNOTS('',3,(#990,#991,#992,#993),
  .UNSPECIFIED.,.F.,.F.,(4,4),(0.,1.),.PIECEWISE_BEZIER_KNOTS.);
#990 = CARTESIAN_POINT('',(-87.75,137.));
#991 = CARTESIAN_POINT('',(-87.75,137.1));
#992 = CARTESIAN_POINT('',(-87.75,151.9));
#993 = CARTESIAN_POINT('',(-87.75,152.));
#994 = ( GEOMETRIC_REPRESENTATION_CONTEXT(2) 
PARAMETRIC_REPRESENTATION_CONTEXT() REPRESENTATION_CONTEXT('2D SPACE',''
  ) );
#995 = PCURVE('',#561,#996);
#996 = DEFINITIONAL_REPRESENTATION('',(#997),#1002);
#997 = B_SPLINE_CURVE_WITH_KNOTS('',3,(#998,#999,#1000,#1001),
  .UNSPECIFIED.,.F.,.F.,(4,4),(0.,1.),.PIECEWISE_BEZIER_KNOTS.);
#998 = CARTESIAN_POINT('',(-2.5,-7.5));
#999 = CARTESIAN_POINT('',(-2.5,-7.4));
#1000 = CARTESIAN_POINT('',(-2.5,7.4));
#1001 = CARTESIAN_POINT('',(-2.5,7.5));
#1002 = ( GEOMETRIC_REPRESENTATION_CONTEXT(2) 
PARAMETRIC_REPRESENTATION_CONTEXT() REPRESENTATION_CONTEXT('2D SPACE',''
  ) );
#1003 = ORIENTED_EDGE('',*,*,#1004,.F.);
#1004 = EDGE_CURVE('',#1005,#979,#1007,.T.);
#1005 = VERTEX_POINT('',#1006);
#1006 = CARTESIAN_POINT('',(-2.5,137.,40.25));
#1007 = SURFACE_CURVE('',#1008,(#1011,#1017),.PCURVE_S1.);
#1008 = B_SPLINE_CURVE_WITH_KNOTS('',1,(#1009,#1010),.UNSPECIFIED.,.F.,
  .F.,(2,2),(0.,0.5),.PIECEWISE_BEZIER_KNOTS.);
#1009 = CARTESIAN_POINT('',(-2.5,137.,40.25));
#1010 = CARTESIAN_POINT('',(-2.5,137.,39.75));
#1011 = PCURVE('',#46,#1012);
#1012 = DEFINITIONAL_REPRESENTATION('',(#1013),#1016);
#1013 = B_SPLINE_CURVE_WITH_KNOTS('',1,(#1014,#1015),.UNSPECIFIED.,.F.,
  .F.,(2,2),(0.,0.5),.PIECEWISE_BEZIER_KNOTS.);
#1014 = CARTESIAN_POINT('',(-88.25,152.));
#1015 = CARTESIAN_POINT('',(-87.75,152.));
#1016 = ( GEOMETRIC_REPRESENTATION_CONTEXT(2) 
PARAMETRIC_REPRESENTATION_CONTEXT() REPRESENTATION_CONTEXT('2D SPACE',''
  ) );
#1017 = PCURVE('',#532,#1018);
#1018 = DEFINITIONAL_REPRESENTATION('',(#1019),#1022);
#1019 = B_SPLINE_CURVE_WITH_KNOTS('',1,(#1020,#1021),.UNSPECIFIED.,.F.,
  .F.,(2,2),(0.,0.5),.PIECEWISE_BEZIER_KNOTS.);
#1020 = CARTESIAN_POINT('',(-0.25,-2.5));
#1021 = CARTESIAN_POINT('',(0.25,-2.5));
#1022 = ( GEOMETRIC_REPRESENTATION_CONTEXT(2) 
PARAMETRIC_REPRESENTATION_CONTEXT() REPRESENTATION_CONTEXT('2D SPACE',''
  ) );
#1023 = ORIENTED_EDGE('',*,*,#1024,.F.);
#1024 = EDGE_CURVE('',#1025,#1005,#1027,.T.);
#1025 = VERTEX_POINT('',#1026);
#1026 = CARTESIAN_POINT('',(-2.5,122.,40.25));
#1027 = SURFACE_CURVE('',#1028,(#1033,#1041),.PCURVE_S1.);
#1028 = B_SPLINE_CURVE_WITH_KNOTS('',3,(#1029,#1030,#1031,#1032),
  .UNSPECIFIED.,.F.,.F.,(4,4),(0.,1.),.PIECEWISE_BEZIER_KNOTS.);
#1029 = CARTESIAN_POINT('',(-2.5,122.,40.25));
#1030 = CARTESIAN_POINT('',(-2.5,122.1,40.25));
#1031 = CARTESIAN_POINT('',(-2.5,136.9,40.25));
#1032 = CARTESIAN_POINT('',(-2.5,137.,40.25));
#1033 = PCURVE('',#46,#1034);
#1034 = DEFINITIONAL_REPRESENTATION('',(#1035),#1040);
#1035 = B_SPLINE_CURVE_WITH_KNOTS('',3,(#1036,#1037,#1038,#1039),
  .UNSPECIFIED.,.F.,.F.,(4,4),(0.,1.),.PIECEWISE_BEZIER_KNOTS.);
#1036 = CARTESIAN_POINT('',(-88.25,137.));
#1037 = CARTESIAN_POINT('',(-88.25,137.1));
#1038 = CARTESIAN_POINT('',(-88.25,151.9));
#1039 = CARTESIAN_POINT('',(-88.25,152.));
#1040 = ( GEOMETRIC_REPRESENTATION_CONTEXT(2) 
PARAMETRIC_REPRESENTATION_CONTEXT() REPRESENTATION_CONTEXT('2D SPACE',''
  ) );
#1041 = PCURVE('',#505,#1042);
#1042 = DEFINITIONAL_REPRESENTATION('',(#1043),#1048);
#1043 = B_SPLINE_CURVE_WITH_KNOTS('',3,(#1044,#1045,#1046,#1047),
  .UNSPECIFIED.,.F.,.F.,(4,4),(0.,1.),.PIECEWISE_BEZIER_KNOTS.);
#1044 = CARTESIAN_POINT('',(2.5,-7.5));
#1045 = CARTESIAN_POINT('',(2.5,-7.4));
#1046 = CARTESIAN_POINT('',(2.5,7.4));
#1047 = CARTESIAN_POINT('',(2.5,7.5));
#1048 = ( GEOMETRIC_REPRESENTATION_CONTEXT(2) 
PARAMETRIC_REPRESENTATION_CONTEXT() REPRESENTATION_CONTEXT('2D SPACE',''
  ) );
#1049 = ORIENTED_EDGE('',*,*,#1050,.F.);
#1050 = EDGE_CURVE('',#1051,#1025,#1053,.T.);
#1051 = VERTEX_POINT('',#1052);
#1052 = CARTESIAN_POINT('',(-2.5,69.561492854578,-20.55983403436));
#1053 = SURFACE_CURVE('',#1054,(#1076,#1101),.PCURVE_S1.);
#1054 = B_SPLINE_CURVE_WITH_KNOTS('',11,(#1055,#1056,#1057,#1058,#1059,
    #1060,#1061,#1062,#1063,#1064,#1065,#1066,#1067,#1068,#1069,#1070,
    #1071,#1072,#1073,#1074,#1075),.UNSPECIFIED.,.F.,.F.,(12,9,12),(0.,
    0.5,1.),.UNSPECIFIED.);
#1055 = CARTESIAN_POINT('',(-2.5,69.561492854578,-20.55983403436));
#1056 = CARTESIAN_POINT('',(-2.5,64.337082004661,-17.9216037436));
#1057 = CARTESIAN_POINT('',(-2.5,60.279863799797,-14.9784685512));
#1058 = CARTESIAN_POINT('',(-2.5,57.31986664269,-11.7727710496));
#1059 = CARTESIAN_POINT('',(-2.499999999999,55.403514810978,
    -8.361685477687));
#1060 = CARTESIAN_POINT('',(-2.500000000001,54.411709991612,
    -4.744213411803));
#1061 = CARTESIAN_POINT('',(-2.499999999999,54.44502402184,
    -1.026437682577));
#1062 = CARTESIAN_POINT('',(-2.500000000001,55.233891300713,
    2.69352253518));
#1063 = CARTESIAN_POINT('',(-2.5,56.814223951931,6.444430708384));
#1064 = CARTESIAN_POINT('',(-2.5,59.074416968369,10.140986575468));
#1065 = CARTESIAN_POINT('',(-2.5,64.834369183903,17.359218250449));
#1066 = CARTESIAN_POINT('',(-2.5,72.793038020944,24.03661337743));
#1067 = CARTESIAN_POINT('',(-2.5,77.253103399651,27.193956670503));
#1068 = CARTESIAN_POINT('',(-2.5,82.125123904569,30.123151208527));
#1069 = CARTESIAN_POINT('',(-2.5,87.340438536971,32.776985839216));
#1070 = CARTESIAN_POINT('',(-2.5,92.830451269959,35.108001038156));
#1071 = CARTESIAN_POINT('',(-2.5,98.526588848518,37.068592817079));
#1072 = CARTESIAN_POINT('',(-2.5,104.36026625194,38.611052243732));
#1073 = CARTESIAN_POINT('',(-2.5,110.26285981964,39.687540574725));
#1074 = CARTESIAN_POINT('',(-2.5,116.16568803962,40.249999999999));
#1075 = CARTESIAN_POINT('',(-2.5,122.,40.25));
#1076 = PCURVE('',#46,#1077);
#1077 = DEFINITIONAL_REPRESENTATION('',(#1078),#1100);
#1078 = B_SPLINE_CURVE_WITH_KNOTS('',11,(#1079,#1080,#1081,#1082,#1083,
    #1084,#1085,#1086,#1087,#1088,#1089,#1090,#1091,#1092,#1093,#1094,
    #1095,#1096,#1097,#1098,#1099),.UNSPECIFIED.,.F.,.F.,(12,9,12),(0.,
    0.5,1.),.UNSPECIFIED.);
#1079 = CARTESIAN_POINT('',(-27.44016596563,84.561492854578));
#1080 = CARTESIAN_POINT('',(-30.07839625639,79.337082004661));
#1081 = CARTESIAN_POINT('',(-33.02153144879,75.279863799797));
#1082 = CARTESIAN_POINT('',(-36.22722895039,72.31986664269));
#1083 = CARTESIAN_POINT('',(-39.63831452231,70.403514810978));
#1084 = CARTESIAN_POINT('',(-43.25578658819,69.411709991612));
#1085 = CARTESIAN_POINT('',(-46.97356231742,69.44502402184));
#1086 = CARTESIAN_POINT('',(-50.69352253518,70.233891300713));
#1087 = CARTESIAN_POINT('',(-54.44443070838,71.814223951931));
#1088 = CARTESIAN_POINT('',(-58.14098657546,74.074416968369));
#1089 = CARTESIAN_POINT('',(-65.35921825044,79.834369183903));
#1090 = CARTESIAN_POINT('',(-72.03661337743,87.793038020944));
#1091 = CARTESIAN_POINT('',(-75.1939566705,92.253103399651));
#1092 = CARTESIAN_POINT('',(-78.12315120852,97.125123904569));
#1093 = CARTESIAN_POINT('',(-80.77698583921,102.34043853697));
#1094 = CARTESIAN_POINT('',(-83.10800103815,107.83045126995));
#1095 = CARTESIAN_POINT('',(-85.06859281707,113.52658884851));
#1096 = CARTESIAN_POINT('',(-86.61105224373,119.36026625194));
#1097 = CARTESIAN_POINT('',(-87.68754057472,125.26285981964));
#1098 = CARTESIAN_POINT('',(-88.24999999999,131.16568803962));
#1099 = CARTESIAN_POINT('',(-88.25,137.));
#1100 = ( GEOMETRIC_REPRESENTATION_CONTEXT(2) 
PARAMETRIC_REPRESENTATION_CONTEXT() REPRESENTATION_CONTEXT('2D SPACE',''
  ) );
#1101 = PCURVE('',#438,#1102);
#1102 = DEFINITIONAL_REPRESENTATION('',(#1103),#1107);
#1103 = LINE('',#1104,#1105);
#1104 = CARTESIAN_POINT('',(5.,0.));
#1105 = VECTOR('',#1106,1.);
#1106 = DIRECTION('',(0.,1.));
#1107 = ( GEOMETRIC_REPRESENTATION_CONTEXT(2) 
PARAMETRIC_REPRESENTATION_CONTEXT() REPRESENTATION_CONTEXT('2D SPACE',''
  ) );
#1108 = ORIENTED_EDGE('',*,*,#1109,.F.);
#1109 = EDGE_CURVE('',#776,#1051,#1110,.T.);
#1110 = SURFACE_CURVE('',#1111,(#1142,#1176),.PCURVE_S1.);
#1111 = B_SPLINE_CURVE_WITH_KNOTS('',11,(#1112,#1113,#1114,#1115,#1116,
    #1117,#1118,#1119,#1120,#1121,#1122,#1123,#1124,#1125,#1126,#1127,
    #1128,#1129,#1130,#1131,#1132,#1133,#1134,#1135,#1136,#1137,#1138,
    #1139,#1140,#1141),.UNSPECIFIED.,.F.,.F.,(12,9,9,12),(0.,0.5,0.75,1.
    ),.UNSPECIFIED.);
#1112 = CARTESIAN_POINT('',(-2.5,0.,-47.75));
#1113 = CARTESIAN_POINT('',(-2.5,4.517858162236,-47.74999999999));
#1114 = CARTESIAN_POINT('',(-2.5,9.608437871449,-47.6385324012));
#1115 = CARTESIAN_POINT('',(-2.5,15.153086326803,-47.41311361334));
#1116 = CARTESIAN_POINT('',(-2.499999999999,21.033487281169,
    -47.07141740057));
#1117 = CARTESIAN_POINT('',(-2.500000000001,27.131565930624,
    -46.61115296393));
#1118 = CARTESIAN_POINT('',(-2.499999999999,33.329385244602,
    -46.02999748494));
#1119 = CARTESIAN_POINT('',(-2.500000000001,39.509033737642,
    -45.32558312894));
#1120 = CARTESIAN_POINT('',(-2.499999999999,45.552504681401,
    -44.49553851002));
#1121 = CARTESIAN_POINT('',(-2.5,51.341566758482,-43.53758461543));
#1122 = CARTESIAN_POINT('',(-2.5,59.465655855647,-41.90573547957));
#1123 = CARTESIAN_POINT('',(-2.5,66.482507689167,-39.97793444312));
#1124 = CARTESIAN_POINT('',(-2.5,68.683542711206,-39.30255954932));
#1125 = CARTESIAN_POINT('',(-2.5,70.731692483958,-38.5932489684));
#1126 = CARTESIAN_POINT('',(-2.5,72.611798126999,-37.85080601586));
#1127 = CARTESIAN_POINT('',(-2.5,74.308824376638,-37.07605076274));
#1128 = CARTESIAN_POINT('',(-2.5,75.807680004363,-36.26842563635));
#1129 = CARTESIAN_POINT('',(-2.5,77.092574130472,-35.42749787713));
#1130 = CARTESIAN_POINT('',(-2.5,78.146879097253,-34.55631037974));
#1131 = CARTESIAN_POINT('',(-2.5,79.763946747186,-32.76797044929));
#1132 = CARTESIAN_POINT('',(-2.5,80.373214221643,-30.89508351039));
#1133 = CARTESIAN_POINT('',(-2.5,80.418852668374,-29.93542709079));
#1134 = CARTESIAN_POINT('',(-2.5,80.204051977205,-28.97481920361));
#1135 = CARTESIAN_POINT('',(-2.5,79.761050116206,-27.87710955054));
#1136 = CARTESIAN_POINT('',(-2.5,78.890819510589,-26.77102465011));
#1137 = CARTESIAN_POINT('',(-2.5,77.774147897523,-25.61283007762));
#1138 = CARTESIAN_POINT('',(-2.5,76.267373574268,-24.40877061731));
#1139 = CARTESIAN_POINT('',(-2.5,74.413001323028,-23.16632460196));
#1140 = CARTESIAN_POINT('',(-2.5,72.181844050703,-21.88306264264));
#1141 = CARTESIAN_POINT('',(-2.5,69.561492854578,-20.55983403436));
#1142 = PCURVE('',#46,#1143);
#1143 = DEFINITIONAL_REPRESENTATION('',(#1144),#1175);
#1144 = B_SPLINE_CURVE_WITH_KNOTS('',11,(#1145,#1146,#1147,#1148,#1149,
    #1150,#1151,#1152,#1153,#1154,#1155,#1156,#1157,#1158,#1159,#1160,
    #1161,#1162,#1163,#1164,#1165,#1166,#1167,#1168,#1169,#1170,#1171,
    #1172,#1173,#1174),.UNSPECIFIED.,.F.,.F.,(12,9,9,12),(0.,0.5,0.75,1.
    ),.UNSPECIFIED.);
#1145 = CARTESIAN_POINT('',(-0.25,15.));
#1146 = CARTESIAN_POINT('',(-0.250000000001,19.517858162236));
#1147 = CARTESIAN_POINT('',(-0.361467598795,24.608437871449));
#1148 = CARTESIAN_POINT('',(-0.586886386653,30.153086326803));
#1149 = CARTESIAN_POINT('',(-0.928582599422,36.033487281169));
#1150 = CARTESIAN_POINT('',(-1.388847036065,42.131565930624));
#1151 = CARTESIAN_POINT('',(-1.970002515056,48.329385244602));
#1152 = CARTESIAN_POINT('',(-2.674416871052,54.509033737642));
#1153 = CARTESIAN_POINT('',(-3.504461489979,60.552504681401));
#1154 = CARTESIAN_POINT('',(-4.462415384562,66.341566758482));
#1155 = CARTESIAN_POINT('',(-6.094264520425,74.465655855647));
#1156 = CARTESIAN_POINT('',(-8.022065556879,81.482507689167));
#1157 = CARTESIAN_POINT('',(-8.697440450675,83.683542711206));
#1158 = CARTESIAN_POINT('',(-9.4067510316,85.731692483958));
#1159 = CARTESIAN_POINT('',(-10.14919398413,87.611798126999));
#1160 = CARTESIAN_POINT('',(-10.92394923725,89.308824376638));
#1161 = CARTESIAN_POINT('',(-11.73157436364,90.807680004363));
#1162 = CARTESIAN_POINT('',(-12.57250212286,92.092574130472));
#1163 = CARTESIAN_POINT('',(-13.44368962025,93.146879097253));
#1164 = CARTESIAN_POINT('',(-15.2320295507,94.763946747186));
#1165 = CARTESIAN_POINT('',(-17.1049164896,95.373214221643));
#1166 = CARTESIAN_POINT('',(-18.0645729092,95.418852668374));
#1167 = CARTESIAN_POINT('',(-19.02518079638,95.204051977205));
#1168 = CARTESIAN_POINT('',(-20.12289044945,94.761050116206));
#1169 = CARTESIAN_POINT('',(-21.22897534988,93.890819510589));
#1170 = CARTESIAN_POINT('',(-22.38716992237,92.774147897523));
#1171 = CARTESIAN_POINT('',(-23.59122938268,91.267373574268));
#1172 = CARTESIAN_POINT('',(-24.83367539804,89.413001323028));
#1173 = CARTESIAN_POINT('',(-26.11693735735,87.181844050703));
#1174 = CARTESIAN_POINT('',(-27.44016596563,84.561492854578));
#1175 = ( GEOMETRIC_REPRESENTATION_CONTEXT(2) 
PARAMETRIC_REPRESENTATION_CONTEXT() REPRESENTATION_CONTEXT('2D SPACE',''
  ) );
#1176 = PCURVE('',#319,#1177);
#1177 = DEFINITIONAL_REPRESENTATION('',(#1178),#1182);
#1178 = LINE('',#1179,#1180);
#1179 = CARTESIAN_POINT('',(5.,0.));
#1180 = VECTOR('',#1181,1.);
#1181 = DIRECTION('',(0.,1.));
#1182 = ( GEOMETRIC_REPRESENTATION_CONTEXT(2) 
PARAMETRIC_REPRESENTATION_CONTEXT() REPRESENTATION_CONTEXT('2D SPACE',''
  ) );
#1183 = ADVANCED_FACE('',(#1184),#127,.F.);
#1184 = FACE_BOUND('',#1185,.F.);
#1185 = EDGE_LOOP('',(#1186,#1187,#1188,#1189));
#1186 = ORIENTED_EDGE('',*,*,#842,.F.);
#1187 = ORIENTED_EDGE('',*,*,#115,.T.);
#1188 = ORIENTED_EDGE('',*,*,#676,.T.);
#1189 = ORIENTED_EDGE('',*,*,#1190,.F.);
#1190 = EDGE_CURVE('',#843,#575,#1191,.T.);
#1191 = SURFACE_CURVE('',#1192,(#1195,#1202),.PCURVE_S1.);
#1192 = B_SPLINE_CURVE_WITH_KNOTS('',1,(#1193,#1194),.UNSPECIFIED.,.F.,
  .F.,(2,2),(0.,5.),.PIECEWISE_BEZIER_KNOTS.);
#1193 = CARTESIAN_POINT('',(-2.5,69.786876524551,-20.1135132962));
#1194 = CARTESIAN_POINT('',(2.5,69.786876524551,-20.1135132962));
#1195 = PCURVE('',#127,#1196);
#1196 = DEFINITIONAL_REPRESENTATION('',(#1197),#1201);
#1197 = LINE('',#1198,#1199);
#1198 = CARTESIAN_POINT('',(0.,1.));
#1199 = VECTOR('',#1200,1.);
#1200 = DIRECTION('',(1.,0.));
#1201 = ( GEOMETRIC_REPRESENTATION_CONTEXT(2) 
PARAMETRIC_REPRESENTATION_CONTEXT() REPRESENTATION_CONTEXT('2D SPACE',''
  ) );
#1202 = PCURVE('',#626,#1203);
#1203 = DEFINITIONAL_REPRESENTATION('',(#1204),#1207);
#1204 = B_SPLINE_CURVE_WITH_KNOTS('',1,(#1205,#1206),.UNSPECIFIED.,.F.,
  .F.,(2,2),(0.,5.),.PIECEWISE_BEZIER_KNOTS.);
#1205 = CARTESIAN_POINT('',(0.,0.));
#1206 = CARTESIAN_POINT('',(5.,0.));
#1207 = ( GEOMETRIC_REPRESENTATION_CONTEXT(2) 
PARAMETRIC_REPRESENTATION_CONTEXT() REPRESENTATION_CONTEXT('2D SPACE',''
  ) );
#1208 = ADVANCED_FACE('',(#1209),#319,.F.);
#1209 = FACE_BOUND('',#1210,.F.);
#1210 = EDGE_LOOP('',(#1211,#1212,#1213,#1214));
#1211 = ORIENTED_EDGE('',*,*,#249,.F.);
#1212 = ORIENTED_EDGE('',*,*,#801,.T.);
#1213 = ORIENTED_EDGE('',*,*,#1109,.T.);
#1214 = ORIENTED_EDGE('',*,*,#1215,.F.);
#1215 = EDGE_CURVE('',#250,#1051,#1216,.T.);
#1216 = SURFACE_CURVE('',#1217,(#1220,#1227),.PCURVE_S1.);
#1217 = B_SPLINE_CURVE_WITH_KNOTS('',1,(#1218,#1219),.UNSPECIFIED.,.F.,
  .F.,(2,2),(0.,5.),.PIECEWISE_BEZIER_KNOTS.);
#1218 = CARTESIAN_POINT('',(2.5,69.561492854578,-20.55983403436));
#1219 = CARTESIAN_POINT('',(-2.5,69.561492854578,-20.55983403436));
#1220 = PCURVE('',#319,#1221);
#1221 = DEFINITIONAL_REPRESENTATION('',(#1222),#1226);
#1222 = LINE('',#1223,#1224);
#1223 = CARTESIAN_POINT('',(0.,1.));
#1224 = VECTOR('',#1225,1.);
#1225 = DIRECTION('',(1.,0.));
#1226 = ( GEOMETRIC_REPRESENTATION_CONTEXT(2) 
PARAMETRIC_REPRESENTATION_CONTEXT() REPRESENTATION_CONTEXT('2D SPACE',''
  ) );
#1227 = PCURVE('',#438,#1228);
#1228 = DEFINITIONAL_REPRESENTATION('',(#1229),#1232);
#1229 = B_SPLINE_CURVE_WITH_KNOTS('',1,(#1230,#1231),.UNSPECIFIED.,.F.,
  .F.,(2,2),(0.,5.),.PIECEWISE_BEZIER_KNOTS.);
#1230 = CARTESIAN_POINT('',(0.,0.));
#1231 = CARTESIAN_POINT('',(5.,0.));
#1232 = ( GEOMETRIC_REPRESENTATION_CONTEXT(2) 
PARAMETRIC_REPRESENTATION_CONTEXT() REPRESENTATION_CONTEXT('2D SPACE',''
  ) );
#1233 = ADVANCED_FACE('',(#1234),#626,.F.);
#1234 = FACE_BOUND('',#1235,.F.);
#1235 = EDGE_LOOP('',(#1236,#1237,#1238,#1239));
#1236 = ORIENTED_EDGE('',*,*,#919,.F.);
#1237 = ORIENTED_EDGE('',*,*,#1190,.T.);
#1238 = ORIENTED_EDGE('',*,*,#574,.T.);
#1239 = ORIENTED_EDGE('',*,*,#1240,.F.);
#1240 = EDGE_CURVE('',#920,#544,#1241,.T.);
#1241 = SURFACE_CURVE('',#1242,(#1245,#1252),.PCURVE_S1.);
#1242 = B_SPLINE_CURVE_WITH_KNOTS('',1,(#1243,#1244),.UNSPECIFIED.,.F.,
  .F.,(2,2),(0.,5.),.PIECEWISE_BEZIER_KNOTS.);
#1243 = CARTESIAN_POINT('',(-2.5,122.,39.75));
#1244 = CARTESIAN_POINT('',(2.5,122.,39.75));
#1245 = PCURVE('',#626,#1246);
#1246 = DEFINITIONAL_REPRESENTATION('',(#1247),#1251);
#1247 = LINE('',#1248,#1249);
#1248 = CARTESIAN_POINT('',(0.,1.));
#1249 = VECTOR('',#1250,1.);
#1250 = DIRECTION('',(1.,0.));
#1251 = ( GEOMETRIC_REPRESENTATION_CONTEXT(2) 
PARAMETRIC_REPRESENTATION_CONTEXT() REPRESENTATION_CONTEXT('2D SPACE',''
  ) );
#1252 = PCURVE('',#561,#1253);
#1253 = DEFINITIONAL_REPRESENTATION('',(#1254),#1257);
#1254 = B_SPLINE_CURVE_WITH_KNOTS('',1,(#1255,#1256),.UNSPECIFIED.,.F.,
  .F.,(2,2),(0.,5.),.PIECEWISE_BEZIER_KNOTS.);
#1255 = CARTESIAN_POINT('',(-2.5,-7.5));
#1256 = CARTESIAN_POINT('',(2.5,-7.5));
#1257 = ( GEOMETRIC_REPRESENTATION_CONTEXT(2) 
PARAMETRIC_REPRESENTATION_CONTEXT() REPRESENTATION_CONTEXT('2D SPACE',''
  ) );
#1258 = ADVANCED_FACE('',(#1259),#438,.F.);
#1259 = FACE_BOUND('',#1260,.F.);
#1260 = EDGE_LOOP('',(#1261,#1262,#1263,#1264));
#1261 = ORIENTED_EDGE('',*,*,#386,.F.);
#1262 = ORIENTED_EDGE('',*,*,#1215,.T.);
#1263 = ORIENTED_EDGE('',*,*,#1050,.T.);
#1264 = ORIENTED_EDGE('',*,*,#1265,.F.);
#1265 = EDGE_CURVE('',#387,#1025,#1266,.T.);
#1266 = SURFACE_CURVE('',#1267,(#1270,#1277),.PCURVE_S1.);
#1267 = B_SPLINE_CURVE_WITH_KNOTS('',1,(#1268,#1269),.UNSPECIFIED.,.F.,
  .F.,(2,2),(0.,5.),.PIECEWISE_BEZIER_KNOTS.);
#1268 = CARTESIAN_POINT('',(2.5,122.,40.25));
#1269 = CARTESIAN_POINT('',(-2.5,122.,40.25));
#1270 = PCURVE('',#438,#1271);
#1271 = DEFINITIONAL_REPRESENTATION('',(#1272),#1276);
#1272 = LINE('',#1273,#1274);
#1273 = CARTESIAN_POINT('',(0.,1.));
#1274 = VECTOR('',#1275,1.);
#1275 = DIRECTION('',(1.,0.));
#1276 = ( GEOMETRIC_REPRESENTATION_CONTEXT(2) 
PARAMETRIC_REPRESENTATION_CONTEXT() REPRESENTATION_CONTEXT('2D SPACE',''
  ) );
#1277 = PCURVE('',#505,#1278);
#1278 = DEFINITIONAL_REPRESENTATION('',(#1279),#1282);
#1279 = B_SPLINE_CURVE_WITH_KNOTS('',1,(#1280,#1281),.UNSPECIFIED.,.F.,
  .F.,(2,2),(0.,5.),.PIECEWISE_BEZIER_KNOTS.);
#1280 = CARTESIAN_POINT('',(-2.5,-7.5));
#1281 = CARTESIAN_POINT('',(2.5,-7.5));
#1282 = ( GEOMETRIC_REPRESENTATION_CONTEXT(2) 
PARAMETRIC_REPRESENTATION_CONTEXT() REPRESENTATION_CONTEXT('2D SPACE',''
  ) );
#1283 = ADVANCED_FACE('',(#1284),#561,.F.);
#1284 = FACE_BOUND('',#1285,.F.);
#1285 = EDGE_LOOP('',(#1286,#1287,#1288,#1289));
#1286 = ORIENTED_EDGE('',*,*,#978,.F.);
#1287 = ORIENTED_EDGE('',*,*,#1240,.T.);
#1288 = ORIENTED_EDGE('',*,*,#543,.T.);
#1289 = ORIENTED_EDGE('',*,*,#1290,.F.);
#1290 = EDGE_CURVE('',#979,#519,#1291,.T.);
#1291 = SURFACE_CURVE('',#1292,(#1295,#1301),.PCURVE_S1.);
#1292 = B_SPLINE_CURVE_WITH_KNOTS('',1,(#1293,#1294),.UNSPECIFIED.,.F.,
  .F.,(2,2),(0.,5.),.PIECEWISE_BEZIER_KNOTS.);
#1293 = CARTESIAN_POINT('',(-2.5,137.,39.75));
#1294 = CARTESIAN_POINT('',(2.5,137.,39.75));
#1295 = PCURVE('',#561,#1296);
#1296 = DEFINITIONAL_REPRESENTATION('',(#1297),#1300);
#1297 = B_SPLINE_CURVE_WITH_KNOTS('',1,(#1298,#1299),.UNSPECIFIED.,.F.,
  .F.,(2,2),(0.,5.),.PIECEWISE_BEZIER_KNOTS.);
#1298 = CARTESIAN_POINT('',(-2.5,7.5));
#1299 = CARTESIAN_POINT('',(2.5,7.5));
#1300 = ( GEOMETRIC_REPRESENTATION_CONTEXT(2) 
PARAMETRIC_REPRESENTATION_CONTEXT() REPRESENTATION_CONTEXT('2D SPACE',''
  ) );
#1301 = PCURVE('',#532,#1302);
#1302 = DEFINITIONAL_REPRESENTATION('',(#1303),#1306);
#1303 = B_SPLINE_CURVE_WITH_KNOTS('',1,(#1304,#1305),.UNSPECIFIED.,.F.,
  .F.,(2,2),(0.,5.),.PIECEWISE_BEZIER_KNOTS.);
#1304 = CARTESIAN_POINT('',(0.25,-2.5));
#1305 = CARTESIAN_POINT('',(0.25,2.5));
#1306 = ( GEOMETRIC_REPRESENTATION_CONTEXT(2) 
PARAMETRIC_REPRESENTATION_CONTEXT() REPRESENTATION_CONTEXT('2D SPACE',''
  ) );
#1307 = ADVANCED_FACE('',(#1308),#505,.F.);
#1308 = FACE_BOUND('',#1309,.F.);
#1309 = EDGE_LOOP('',(#1310,#1311,#1312,#1313));
#1310 = ORIENTED_EDGE('',*,*,#487,.F.);
#1311 = ORIENTED_EDGE('',*,*,#1265,.T.);
#1312 = ORIENTED_EDGE('',*,*,#1024,.T.);
#1313 = ORIENTED_EDGE('',*,*,#1314,.F.);
#1314 = EDGE_CURVE('',#488,#1005,#1315,.T.);
#1315 = SURFACE_CURVE('',#1316,(#1319,#1325),.PCURVE_S1.);
#1316 = B_SPLINE_CURVE_WITH_KNOTS('',1,(#1317,#1318),.UNSPECIFIED.,.F.,
  .F.,(2,2),(0.,5.),.PIECEWISE_BEZIER_KNOTS.);
#1317 = CARTESIAN_POINT('',(2.5,137.,40.25));
#1318 = CARTESIAN_POINT('',(-2.5,137.,40.25));
#1319 = PCURVE('',#505,#1320);
#1320 = DEFINITIONAL_REPRESENTATION('',(#1321),#1324);
#1321 = B_SPLINE_CURVE_WITH_KNOTS('',1,(#1322,#1323),.UNSPECIFIED.,.F.,
  .F.,(2,2),(0.,5.),.PIECEWISE_BEZIER_KNOTS.);
#1322 = CARTESIAN_POINT('',(-2.5,7.5));
#1323 = CARTESIAN_POINT('',(2.5,7.5));
#1324 = ( GEOMETRIC_REPRESENTATION_CONTEXT(2) 
PARAMETRIC_REPRESENTATION_CONTEXT() REPRESENTATION_CONTEXT('2D SPACE',''
  ) );
#1325 = PCURVE('',#532,#1326);
#1326 = DEFINITIONAL_REPRESENTATION('',(#1327),#1330);
#1327 = B_SPLINE_CURVE_WITH_KNOTS('',1,(#1328,#1329),.UNSPECIFIED.,.F.,
  .F.,(2,2),(0.,5.),.PIECEWISE_BEZIER_KNOTS.);
#1328 = CARTESIAN_POINT('',(-0.25,2.5));
#1329 = CARTESIAN_POINT('',(-0.25,-2.5));
#1330 = ( GEOMETRIC_REPRESENTATION_CONTEXT(2) 
PARAMETRIC_REPRESENTATION_CONTEXT() REPRESENTATION_CONTEXT('2D SPACE',''
  ) );
#1331 = ADVANCED_FACE('',(#1332),#73,.T.);
#1332 = FACE_BOUND('',#1333,.T.);
#1333 = EDGE_LOOP('',(#1334,#1335,#1336,#1337));
#1334 = ORIENTED_EDGE('',*,*,#59,.T.);
#1335 = ORIENTED_EDGE('',*,*,#198,.T.);
#1336 = ORIENTED_EDGE('',*,*,#755,.T.);
#1337 = ORIENTED_EDGE('',*,*,#823,.T.);
#1338 = ADVANCED_FACE('',(#1339),#532,.F.);
#1339 = FACE_BOUND('',#1340,.F.);
#1340 = EDGE_LOOP('',(#1341,#1342,#1343,#1344));
#1341 = ORIENTED_EDGE('',*,*,#1290,.T.);
#1342 = ORIENTED_EDGE('',*,*,#518,.T.);
#1343 = ORIENTED_EDGE('',*,*,#1314,.T.);
#1344 = ORIENTED_EDGE('',*,*,#1004,.T.);
#1345 = ( GEOMETRIC_REPRESENTATION_CONTEXT(3) 
GLOBAL_UNCERTAINTY_ASSIGNED_CONTEXT((#1349)) 
GLOBAL_UNIT_ASSIGNED_CONTEXT((#1346,#1347,#1348)) REPRESENTATION_CONTEXT
('Context #1','3D Context with UNIT and UNCERTAINTY') );
#1346 = ( LENGTH_UNIT() NAMED_UNIT(*) SI_UNIT(.MILLI.,.METRE.) );
#1347 = ( NAMED_UNIT(*) PLANE_ANGLE_UNIT() SI_UNIT($,.RADIAN.) );
#1348 = ( NAMED_UNIT(*) SI_UNIT($,.STERADIAN.) SOLID_ANGLE_UNIT() );
#1349 = UNCERTAINTY_MEASURE_WITH_UNIT(LENGTH_MEASURE(2.E-05),#1346,
  'distance_accuracy_value','confusion accuracy');
#1350 = PRODUCT_RELATED_PRODUCT_CATEGORY('part',$,(#7));
ENDSEC;
END-ISO-10303-21;
