ISO-10303-21;
HEADER;
FILE_DESCRIPTION(('Open CASCADE Model'),'2;1');
FILE_NAME('Open CASCADE Shape Model','2026-06-24T17:01:54',('Author'),(
    'Open CASCADE'),'Open CASCADE STEP processor 7.8','Open CASCADE 7.8'
  ,'Unknown');
FILE_SCHEMA(('AUTOMOTIVE_DESIGN { 1 0 10303 214 1 1 1 1 }'));
ENDSEC;
DATA;
#1 = APPLICATION_PROTOCOL_DEFINITION('international standard',
  'automotive_design',2000,#2);
#2 = APPLICATION_CONTEXT(
  'core data for automotive mechanical design processes');
#3 = SHAPE_DEFINITION_REPRESENTATION(#4,#10);
#4 = PRODUCT_DEFINITION_SHAPE('','',#5);
#5 = PRODUCT_DEFINITION('design','',#6,#9);
#6 = PRODUCT_DEFINITION_FORMATION('','',#7);
#7 = PRODUCT('Open CASCADE STEP translator 7.8 1',
  'Open CASCADE STEP translator 7.8 1','',(#8));
#8 = PRODUCT_CONTEXT('',#2,'mechanical');
#9 = PRODUCT_DEFINITION_CONTEXT('part definition',#2,'design');
#10 = ADVANCED_BREP_SHAPE_REPRESENTATION('',(#11,#15),#1381);
#11 = AXIS2_PLACEMENT_3D('',#12,#13,#14);
#12 = CARTESIAN_POINT('',(0.,0.,0.));
#13 = DIRECTION('',(0.,0.,1.));
#14 = DIRECTION('',(1.,0.,-0.));
#15 = MANIFOLD_SOLID_BREP('',#16);
#16 = CLOSED_SHELL('',(#17,#181,#774,#842,#1219,#1244,#1269,#1294,#1319,
    #1343,#1367,#1374));
#17 = ADVANCED_FACE('',(#18),#33,.F.);
#18 = FACE_BOUND('',#19,.F.);
#19 = EDGE_LOOP('',(#20,#58,#83,#114));
#20 = ORIENTED_EDGE('',*,*,#21,.F.);
#21 = EDGE_CURVE('',#22,#24,#26,.T.);
#22 = VERTEX_POINT('',#23);
#23 = CARTESIAN_POINT('',(-2.5,-30.,-58.375));
#24 = VERTEX_POINT('',#25);
#25 = CARTESIAN_POINT('',(-2.5,3.552713678801E-15,-58.375));
#26 = SURFACE_CURVE('',#27,(#32,#45),.PCURVE_S1.);
#27 = B_SPLINE_CURVE_WITH_KNOTS('',3,(#28,#29,#30,#31),.UNSPECIFIED.,.F.
  ,.F.,(4,4),(0.,1.),.PIECEWISE_BEZIER_KNOTS.);
#28 = CARTESIAN_POINT('',(-2.5,-30.,-58.375));
#29 = CARTESIAN_POINT('',(-2.5,-29.9,-58.375));
#30 = CARTESIAN_POINT('',(-2.5,-1.E-01,-58.375));
#31 = CARTESIAN_POINT('',(-2.5,8.881784197001E-15,-58.375));
#32 = PCURVE('',#33,#38);
#33 = PLANE('',#34);
#34 = AXIS2_PLACEMENT_3D('',#35,#36,#37);
#35 = CARTESIAN_POINT('',(0.,-15.,-58.375));
#36 = DIRECTION('',(1.057005722618E-16,1.775846287648E-16,1.));
#37 = DIRECTION('',(1.,5.020246460857E-19,-1.057005722618E-16));
#38 = DEFINITIONAL_REPRESENTATION('',(#39),#44);
#39 = B_SPLINE_CURVE_WITH_KNOTS('',3,(#40,#41,#42,#43),.UNSPECIFIED.,.F.
  ,.F.,(4,4),(0.,1.),.PIECEWISE_BEZIER_KNOTS.);
#40 = CARTESIAN_POINT('',(-2.5,-15.));
#41 = CARTESIAN_POINT('',(-2.5,-14.9));
#42 = CARTESIAN_POINT('',(-2.5,14.9));
#43 = CARTESIAN_POINT('',(-2.5,15.));
#44 = ( GEOMETRIC_REPRESENTATION_CONTEXT(2) 
PARAMETRIC_REPRESENTATION_CONTEXT() REPRESENTATION_CONTEXT('2D SPACE',''
  ) );
#45 = PCURVE('',#46,#51);
#46 = PLANE('',#47);
#47 = AXIS2_PLACEMENT_3D('',#48,#49,#50);
#48 = CARTESIAN_POINT('',(-2.5,-15.,-58.));
#49 = DIRECTION('',(1.,4.276662250411E-18,-2.36169962921E-29));
#50 = DIRECTION('',(-2.361654676448E-29,-1.05111787984E-16,-1.));
#51 = DEFINITIONAL_REPRESENTATION('',(#52),#57);
#52 = B_SPLINE_CURVE_WITH_KNOTS('',3,(#53,#54,#55,#56),.UNSPECIFIED.,.F.
  ,.F.,(4,4),(0.,1.),.PIECEWISE_BEZIER_KNOTS.);
#53 = CARTESIAN_POINT('',(0.375,-15.));
#54 = CARTESIAN_POINT('',(0.375,-14.9));
#55 = CARTESIAN_POINT('',(0.375,14.9));
#56 = CARTESIAN_POINT('',(0.375,15.));
#57 = ( GEOMETRIC_REPRESENTATION_CONTEXT(2) 
PARAMETRIC_REPRESENTATION_CONTEXT() REPRESENTATION_CONTEXT('2D SPACE',''
  ) );
#58 = ORIENTED_EDGE('',*,*,#59,.T.);
#59 = EDGE_CURVE('',#22,#60,#62,.T.);
#60 = VERTEX_POINT('',#61);
#61 = CARTESIAN_POINT('',(2.5,-30.,-58.375));
#62 = SURFACE_CURVE('',#63,(#66,#72),.PCURVE_S1.);
#63 = B_SPLINE_CURVE_WITH_KNOTS('',1,(#64,#65),.UNSPECIFIED.,.F.,.F.,(2,
    2),(0.,5.),.PIECEWISE_BEZIER_KNOTS.);
#64 = CARTESIAN_POINT('',(-2.5,-30.,-58.375));
#65 = CARTESIAN_POINT('',(2.5,-30.,-58.375));
#66 = PCURVE('',#33,#67);
#67 = DEFINITIONAL_REPRESENTATION('',(#68),#71);
#68 = B_SPLINE_CURVE_WITH_KNOTS('',1,(#69,#70),.UNSPECIFIED.,.F.,.F.,(2,
    2),(0.,5.),.PIECEWISE_BEZIER_KNOTS.);
#69 = CARTESIAN_POINT('',(-2.5,-15.));
#70 = CARTESIAN_POINT('',(2.5,-15.));
#71 = ( GEOMETRIC_REPRESENTATION_CONTEXT(2) 
PARAMETRIC_REPRESENTATION_CONTEXT() REPRESENTATION_CONTEXT('2D SPACE',''
  ) );
#72 = PCURVE('',#73,#78);
#73 = PLANE('',#74);
#74 = AXIS2_PLACEMENT_3D('',#75,#76,#77);
#75 = CARTESIAN_POINT('',(0.,-30.,-58.));
#76 = DIRECTION('',(-0.,-1.,-0.));
#77 = DIRECTION('',(0.,0.,-1.));
#78 = DEFINITIONAL_REPRESENTATION('',(#79),#82);
#79 = B_SPLINE_CURVE_WITH_KNOTS('',1,(#80,#81),.UNSPECIFIED.,.F.,.F.,(2,
    2),(0.,5.),.PIECEWISE_BEZIER_KNOTS.);
#80 = CARTESIAN_POINT('',(0.375,-2.5));
#81 = CARTESIAN_POINT('',(0.375,2.5));
#82 = ( GEOMETRIC_REPRESENTATION_CONTEXT(2) 
PARAMETRIC_REPRESENTATION_CONTEXT() REPRESENTATION_CONTEXT('2D SPACE',''
  ) );
#83 = ORIENTED_EDGE('',*,*,#84,.T.);
#84 = EDGE_CURVE('',#60,#85,#87,.T.);
#85 = VERTEX_POINT('',#86);
#86 = CARTESIAN_POINT('',(2.5,3.552713678801E-15,-58.375));
#87 = SURFACE_CURVE('',#88,(#93,#101),.PCURVE_S1.);
#88 = B_SPLINE_CURVE_WITH_KNOTS('',3,(#89,#90,#91,#92),.UNSPECIFIED.,.F.
  ,.F.,(4,4),(0.,1.),.PIECEWISE_BEZIER_KNOTS.);
#89 = CARTESIAN_POINT('',(2.5,-30.,-58.375));
#90 = CARTESIAN_POINT('',(2.5,-29.9,-58.375));
#91 = CARTESIAN_POINT('',(2.5,-1.E-01,-58.375));
#92 = CARTESIAN_POINT('',(2.5,8.881784197001E-15,-58.375));
#93 = PCURVE('',#33,#94);
#94 = DEFINITIONAL_REPRESENTATION('',(#95),#100);
#95 = B_SPLINE_CURVE_WITH_KNOTS('',3,(#96,#97,#98,#99),.UNSPECIFIED.,.F.
  ,.F.,(4,4),(0.,1.),.PIECEWISE_BEZIER_KNOTS.);
#96 = CARTESIAN_POINT('',(2.5,-15.));
#97 = CARTESIAN_POINT('',(2.5,-14.9));
#98 = CARTESIAN_POINT('',(2.5,14.9));
#99 = CARTESIAN_POINT('',(2.5,15.));
#100 = ( GEOMETRIC_REPRESENTATION_CONTEXT(2) 
PARAMETRIC_REPRESENTATION_CONTEXT() REPRESENTATION_CONTEXT('2D SPACE',''
  ) );
#101 = PCURVE('',#102,#107);
#102 = PLANE('',#103);
#103 = AXIS2_PLACEMENT_3D('',#104,#105,#106);
#104 = CARTESIAN_POINT('',(2.5,-15.,-58.));
#105 = DIRECTION('',(-1.,4.276662250411E-18,1.405147145863E-29));
#106 = DIRECTION('',(1.405197566563E-29,1.178973154113E-16,1.));
#107 = DEFINITIONAL_REPRESENTATION('',(#108),#113);
#108 = B_SPLINE_CURVE_WITH_KNOTS('',3,(#109,#110,#111,#112),
  .UNSPECIFIED.,.F.,.F.,(4,4),(0.,1.),.PIECEWISE_BEZIER_KNOTS.);
#109 = CARTESIAN_POINT('',(-0.375,-15.));
#110 = CARTESIAN_POINT('',(-0.375,-14.9));
#111 = CARTESIAN_POINT('',(-0.375,14.9));
#112 = CARTESIAN_POINT('',(-0.375,15.));
#113 = ( GEOMETRIC_REPRESENTATION_CONTEXT(2) 
PARAMETRIC_REPRESENTATION_CONTEXT() REPRESENTATION_CONTEXT('2D SPACE',''
  ) );
#114 = ORIENTED_EDGE('',*,*,#115,.F.);
#115 = EDGE_CURVE('',#24,#85,#116,.T.);
#116 = SURFACE_CURVE('',#117,(#120,#126),.PCURVE_S1.);
#117 = B_SPLINE_CURVE_WITH_KNOTS('',1,(#118,#119),.UNSPECIFIED.,.F.,.F.,
  (2,2),(0.,5.),.PIECEWISE_BEZIER_KNOTS.);
#118 = CARTESIAN_POINT('',(-2.5,8.881784197001E-15,-58.375));
#119 = CARTESIAN_POINT('',(2.5,8.881784197001E-15,-58.375));
#120 = PCURVE('',#33,#121);
#121 = DEFINITIONAL_REPRESENTATION('',(#122),#125);
#122 = B_SPLINE_CURVE_WITH_KNOTS('',1,(#123,#124),.UNSPECIFIED.,.F.,.F.,
  (2,2),(0.,5.),.PIECEWISE_BEZIER_KNOTS.);
#123 = CARTESIAN_POINT('',(-2.5,15.));
#124 = CARTESIAN_POINT('',(2.5,15.));
#125 = ( GEOMETRIC_REPRESENTATION_CONTEXT(2) 
PARAMETRIC_REPRESENTATION_CONTEXT() REPRESENTATION_CONTEXT('2D SPACE',''
  ) );
#126 = PCURVE('',#127,#176);
#127 = B_SPLINE_SURFACE_WITH_KNOTS('',1,9,(
    (#128,#129,#130,#131,#132,#133,#134,#135,#136,#137,#138,#139,#140
      ,#141,#142,#143,#144,#145,#146,#147,#148,#149,#150,#151)
    ,(#152,#153,#154,#155,#156,#157,#158,#159,#160,#161,#162,#163,#164
      ,#165,#166,#167,#168,#169,#170,#171,#172,#173,#174,#175
  )),.UNSPECIFIED.,.F.,.F.,.F.,(2,2),(10,7,7,10),(0.,5.),(0.,0.5,0.75,1.
    ),.UNSPECIFIED.);
#128 = CARTESIAN_POINT('',(-2.5,-7.105427357601E-15,-58.375));
#129 = CARTESIAN_POINT('',(-2.5,5.578189302651,-58.375));
#130 = CARTESIAN_POINT('',(-2.5,12.404784823466,-57.78198915987));
#131 = CARTESIAN_POINT('',(-2.5,20.241742828994,-56.64603519902));
#132 = CARTESIAN_POINT('',(-2.5,28.830478036587,-55.00707548726));
#133 = CARTESIAN_POINT('',(-2.5,37.918340261757,-52.91045556342));
#134 = CARTESIAN_POINT('',(-2.5,47.252078375514,-50.40091472728));
#135 = CARTESIAN_POINT('',(-2.5,56.574625939141,-47.52038038081));
#136 = CARTESIAN_POINT('',(-2.5,70.161240512909,-42.70992575052));
#137 = CARTESIAN_POINT('',(-2.5,82.579588722065,-37.26083470941));
#138 = CARTESIAN_POINT('',(-2.5,86.557498676332,-35.37887831416));
#139 = CARTESIAN_POINT('',(-2.5,90.342051211038,-33.43657890202));
#140 = CARTESIAN_POINT('',(-2.5,93.901534097813,-31.43914545869));
#141 = CARTESIAN_POINT('',(-2.5,97.204408662835,-29.39169353455));
#142 = CARTESIAN_POINT('',(-2.5,100.21925377331,-27.29906332241));
#143 = CARTESIAN_POINT('',(-2.5,105.60991822219,-23.03195375008));
#144 = CARTESIAN_POINT('',(-2.5,109.59513354447,-18.61405354056));
#145 = CARTESIAN_POINT('',(-2.5,111.20560453727,-16.37101883827));
#146 = CARTESIAN_POINT('',(-2.5,112.39363896054,-14.09260257628));
#147 = CARTESIAN_POINT('',(-2.5,113.14691600616,-11.79450979531));
#148 = CARTESIAN_POINT('',(-2.5,113.39317791893,-9.438163857248));
#149 = CARTESIAN_POINT('',(-2.5,113.09560101898,-7.093889054321));
#150 = CARTESIAN_POINT('',(-2.5,112.24148005571,-4.764628866581));
#151 = CARTESIAN_POINT('',(-2.5,110.80558740417,-2.456901023705));
#152 = CARTESIAN_POINT('',(2.5,-7.105427357601E-15,-58.375));
#153 = CARTESIAN_POINT('',(2.5,5.578189302651,-58.375));
#154 = CARTESIAN_POINT('',(2.5,12.404784823466,-57.78198915987));
#155 = CARTESIAN_POINT('',(2.5,20.241742828994,-56.64603519902));
#156 = CARTESIAN_POINT('',(2.5,28.830478036587,-55.00707548726));
#157 = CARTESIAN_POINT('',(2.5,37.918340261757,-52.91045556342));
#158 = CARTESIAN_POINT('',(2.5,47.252078375514,-50.40091472728));
#159 = CARTESIAN_POINT('',(2.5,56.574625939141,-47.52038038081));
#160 = CARTESIAN_POINT('',(2.5,70.161240512909,-42.70992575052));
#161 = CARTESIAN_POINT('',(2.5,82.579588722065,-37.26083470941));
#162 = CARTESIAN_POINT('',(2.5,86.557498676332,-35.37887831416));
#163 = CARTESIAN_POINT('',(2.5,90.342051211038,-33.43657890202));
#164 = CARTESIAN_POINT('',(2.5,93.901534097813,-31.43914545869));
#165 = CARTESIAN_POINT('',(2.5,97.204408662835,-29.39169353455));
#166 = CARTESIAN_POINT('',(2.5,100.21925377331,-27.29906332241));
#167 = CARTESIAN_POINT('',(2.5,105.60991822219,-23.03195375008));
#168 = CARTESIAN_POINT('',(2.5,109.59513354447,-18.61405354056));
#169 = CARTESIAN_POINT('',(2.5,111.20560453727,-16.37101883827));
#170 = CARTESIAN_POINT('',(2.5,112.39363896054,-14.09260257628));
#171 = CARTESIAN_POINT('',(2.5,113.14691600616,-11.79450979531));
#172 = CARTESIAN_POINT('',(2.5,113.39317791893,-9.438163857248));
#173 = CARTESIAN_POINT('',(2.5,113.09560101898,-7.093889054321));
#174 = CARTESIAN_POINT('',(2.5,112.24148005571,-4.764628866581));
#175 = CARTESIAN_POINT('',(2.5,110.80558740417,-2.456901023705));
#176 = DEFINITIONAL_REPRESENTATION('',(#177),#180);
#177 = B_SPLINE_CURVE_WITH_KNOTS('',1,(#178,#179),.UNSPECIFIED.,.F.,.F.,
  (2,2),(0.,5.),.PIECEWISE_BEZIER_KNOTS.);
#178 = CARTESIAN_POINT('',(0.,0.));
#179 = CARTESIAN_POINT('',(5.,0.));
#180 = ( GEOMETRIC_REPRESENTATION_CONTEXT(2) 
PARAMETRIC_REPRESENTATION_CONTEXT() REPRESENTATION_CONTEXT('2D SPACE',''
  ) );
#181 = ADVANCED_FACE('',(#182),#102,.F.);
#182 = FACE_BOUND('',#183,.F.);
#183 = EDGE_LOOP('',(#184,#185,#205,#236,#349,#486,#517,#542,#573,#711)
  );
#184 = ORIENTED_EDGE('',*,*,#84,.F.);
#185 = ORIENTED_EDGE('',*,*,#186,.T.);
#186 = EDGE_CURVE('',#60,#187,#189,.T.);
#187 = VERTEX_POINT('',#188);
#188 = CARTESIAN_POINT('',(2.5,-30.,-57.625));
#189 = SURFACE_CURVE('',#190,(#193,#199),.PCURVE_S1.);
#190 = B_SPLINE_CURVE_WITH_KNOTS('',1,(#191,#192),.UNSPECIFIED.,.F.,.F.,
  (2,2),(0.,0.75),.PIECEWISE_BEZIER_KNOTS.);
#191 = CARTESIAN_POINT('',(2.5,-30.,-58.375));
#192 = CARTESIAN_POINT('',(2.5,-30.,-57.625));
#193 = PCURVE('',#102,#194);
#194 = DEFINITIONAL_REPRESENTATION('',(#195),#198);
#195 = B_SPLINE_CURVE_WITH_KNOTS('',1,(#196,#197),.UNSPECIFIED.,.F.,.F.,
  (2,2),(0.,0.75),.PIECEWISE_BEZIER_KNOTS.);
#196 = CARTESIAN_POINT('',(-0.375,-15.));
#197 = CARTESIAN_POINT('',(0.375,-15.));
#198 = ( GEOMETRIC_REPRESENTATION_CONTEXT(2) 
PARAMETRIC_REPRESENTATION_CONTEXT() REPRESENTATION_CONTEXT('2D SPACE',''
  ) );
#199 = PCURVE('',#73,#200);
#200 = DEFINITIONAL_REPRESENTATION('',(#201),#204);
#201 = B_SPLINE_CURVE_WITH_KNOTS('',1,(#202,#203),.UNSPECIFIED.,.F.,.F.,
  (2,2),(0.,0.75),.PIECEWISE_BEZIER_KNOTS.);
#202 = CARTESIAN_POINT('',(0.375,2.5));
#203 = CARTESIAN_POINT('',(-0.375,2.5));
#204 = ( GEOMETRIC_REPRESENTATION_CONTEXT(2) 
PARAMETRIC_REPRESENTATION_CONTEXT() REPRESENTATION_CONTEXT('2D SPACE',''
  ) );
#205 = ORIENTED_EDGE('',*,*,#206,.T.);
#206 = EDGE_CURVE('',#187,#207,#209,.T.);
#207 = VERTEX_POINT('',#208);
#208 = CARTESIAN_POINT('',(2.5,3.552713678801E-15,-57.625));
#209 = SURFACE_CURVE('',#210,(#215,#223),.PCURVE_S1.);
#210 = B_SPLINE_CURVE_WITH_KNOTS('',3,(#211,#212,#213,#214),
  .UNSPECIFIED.,.F.,.F.,(4,4),(0.,1.),.PIECEWISE_BEZIER_KNOTS.);
#211 = CARTESIAN_POINT('',(2.5,-30.,-57.625));
#212 = CARTESIAN_POINT('',(2.5,-29.9,-57.625));
#213 = CARTESIAN_POINT('',(2.5,-1.E-01,-57.625));
#214 = CARTESIAN_POINT('',(2.5,8.881784197001E-15,-57.625));
#215 = PCURVE('',#102,#216);
#216 = DEFINITIONAL_REPRESENTATION('',(#217),#222);
#217 = B_SPLINE_CURVE_WITH_KNOTS('',3,(#218,#219,#220,#221),
  .UNSPECIFIED.,.F.,.F.,(4,4),(0.,1.),.PIECEWISE_BEZIER_KNOTS.);
#218 = CARTESIAN_POINT('',(0.375,-15.));
#219 = CARTESIAN_POINT('',(0.375,-14.9));
#220 = CARTESIAN_POINT('',(0.375,14.9));
#221 = CARTESIAN_POINT('',(0.375,15.));
#222 = ( GEOMETRIC_REPRESENTATION_CONTEXT(2) 
PARAMETRIC_REPRESENTATION_CONTEXT() REPRESENTATION_CONTEXT('2D SPACE',''
  ) );
#223 = PCURVE('',#224,#229);
#224 = PLANE('',#225);
#225 = AXIS2_PLACEMENT_3D('',#226,#227,#228);
#226 = CARTESIAN_POINT('',(0.,-15.,-57.625));
#227 = DIRECTION('',(4.815248291928E-16,-6.252836168543E-17,-1.));
#228 = DIRECTION('',(-1.,5.020246460857E-19,-4.815248291928E-16));
#229 = DEFINITIONAL_REPRESENTATION('',(#230),#235);
#230 = B_SPLINE_CURVE_WITH_KNOTS('',3,(#231,#232,#233,#234),
  .UNSPECIFIED.,.F.,.F.,(4,4),(0.,1.),.PIECEWISE_BEZIER_KNOTS.);
#231 = CARTESIAN_POINT('',(-2.5,-15.));
#232 = CARTESIAN_POINT('',(-2.5,-14.9));
#233 = CARTESIAN_POINT('',(-2.5,14.9));
#234 = CARTESIAN_POINT('',(-2.5,15.));
#235 = ( GEOMETRIC_REPRESENTATION_CONTEXT(2) 
PARAMETRIC_REPRESENTATION_CONTEXT() REPRESENTATION_CONTEXT('2D SPACE',''
  ) );
#236 = ORIENTED_EDGE('',*,*,#237,.T.);
#237 = EDGE_CURVE('',#207,#238,#240,.T.);
#238 = VERTEX_POINT('',#239);
#239 = CARTESIAN_POINT('',(2.5,110.16879162241,-2.853122088676));
#240 = SURFACE_CURVE('',#241,(#266,#294),.PCURVE_S1.);
#241 = B_SPLINE_CURVE_WITH_KNOTS('',9,(#242,#243,#244,#245,#246,#247,
    #248,#249,#250,#251,#252,#253,#254,#255,#256,#257,#258,#259,#260,
    #261,#262,#263,#264,#265),.UNSPECIFIED.,.F.,.F.,(10,7,7,10),(0.,0.5,
    0.75,1.),.UNSPECIFIED.);
#242 = CARTESIAN_POINT('',(2.5,-7.105427357601E-15,-57.625));
#243 = CARTESIAN_POINT('',(2.5,5.507316741927,-57.62499999999));
#244 = CARTESIAN_POINT('',(2.5,12.300059593811,-57.03952353967));
#245 = CARTESIAN_POINT('',(2.5,20.105205942327,-55.90631866505));
#246 = CARTESIAN_POINT('',(2.5,28.670274723383,-54.2732637718));
#247 = CARTESIAN_POINT('',(2.5,37.736849774677,-52.18282908648));
#248 = CARTESIAN_POINT('',(2.5,47.047115878458,-49.67809107479));
#249 = CARTESIAN_POINT('',(2.5,56.347073126669,-46.80493810019));
#250 = CARTESIAN_POINT('',(2.5,69.895367141967,-42.00747268718));
#251 = CARTESIAN_POINT('',(2.5,82.263755298624,-36.58014556469));
#252 = CARTESIAN_POINT('',(2.5,86.223299481476,-34.70666197383));
#253 = CARTESIAN_POINT('',(2.5,89.987526472394,-32.77453110564));
#254 = CARTESIAN_POINT('',(2.5,93.524265206401,-30.78952094509));
#255 = CARTESIAN_POINT('',(2.5,96.80117106397,-28.75749291248));
#256 = CARTESIAN_POINT('',(2.5,99.785781884556,-26.68458378569));
#257 = CARTESIAN_POINT('',(2.5,105.10561372803,-22.47044985713));
#258 = CARTESIAN_POINT('',(2.5,108.99853038522,-18.15068480246));
#259 = CARTESIAN_POINT('',(2.5,110.5551510106,-15.9717584025));
#260 = CARTESIAN_POINT('',(2.5,111.69835054057,-13.78606206279));
#261 = CARTESIAN_POINT('',(2.5,112.37656648996,-11.58886771327));
#262 = CARTESIAN_POINT('',(2.5,112.59817332056,-9.429728962747));
#263 = CARTESIAN_POINT('',(2.5,112.33611141896,-7.249298489652));
#264 = CARTESIAN_POINT('',(2.5,111.53920274237,-5.055609784628));
#265 = CARTESIAN_POINT('',(2.5,110.16879162241,-2.853122088676));
#266 = PCURVE('',#102,#267);
#267 = DEFINITIONAL_REPRESENTATION('',(#268),#293);
#268 = B_SPLINE_CURVE_WITH_KNOTS('',9,(#269,#270,#271,#272,#273,#274,
    #275,#276,#277,#278,#279,#280,#281,#282,#283,#284,#285,#286,#287,
    #288,#289,#290,#291,#292),.UNSPECIFIED.,.F.,.F.,(10,7,7,10),(0.,0.5,
    0.75,1.),.UNSPECIFIED.);
#269 = CARTESIAN_POINT('',(0.375,15.));
#270 = CARTESIAN_POINT('',(0.375000000001,20.507316741927));
#271 = CARTESIAN_POINT('',(0.960476460326,27.300059593811));
#272 = CARTESIAN_POINT('',(2.093681334943,35.105205942327));
#273 = CARTESIAN_POINT('',(3.726736228193,43.670274723383));
#274 = CARTESIAN_POINT('',(5.817170913518,52.736849774677));
#275 = CARTESIAN_POINT('',(8.321908925203,62.047115878458));
#276 = CARTESIAN_POINT('',(11.195061899806,71.347073126669));
#277 = CARTESIAN_POINT('',(15.992527312816,84.895367141967));
#278 = CARTESIAN_POINT('',(21.41985443531,97.263755298624));
#279 = CARTESIAN_POINT('',(23.293338026161,101.22329948147));
#280 = CARTESIAN_POINT('',(25.225468894355,104.98752647239));
#281 = CARTESIAN_POINT('',(27.210479054906,108.5242652064));
#282 = CARTESIAN_POINT('',(29.242507087517,111.80117106397));
#283 = CARTESIAN_POINT('',(31.315416214309,114.78578188455));
#284 = CARTESIAN_POINT('',(35.52955014287,120.10561372803));
#285 = CARTESIAN_POINT('',(39.849315197538,123.99853038522));
#286 = CARTESIAN_POINT('',(42.028241597493,125.5551510106));
#287 = CARTESIAN_POINT('',(44.213937937204,126.69835054057));
#288 = CARTESIAN_POINT('',(46.411132286728,127.37656648996));
#289 = CARTESIAN_POINT('',(48.570271037253,127.59817332056));
#290 = CARTESIAN_POINT('',(50.750701510348,127.33611141896));
#291 = CARTESIAN_POINT('',(52.944390215372,126.53920274237));
#292 = CARTESIAN_POINT('',(55.146877911324,125.16879162241));
#293 = ( GEOMETRIC_REPRESENTATION_CONTEXT(2) 
PARAMETRIC_REPRESENTATION_CONTEXT() REPRESENTATION_CONTEXT('2D SPACE',''
  ) );
#294 = PCURVE('',#295,#344);
#295 = B_SPLINE_SURFACE_WITH_KNOTS('',1,9,(
    (#296,#297,#298,#299,#300,#301,#302,#303,#304,#305,#306,#307,#308
      ,#309,#310,#311,#312,#313,#314,#315,#316,#317,#318,#319)
    ,(#320,#321,#322,#323,#324,#325,#326,#327,#328,#329,#330,#331,#332
      ,#333,#334,#335,#336,#337,#338,#339,#340,#341,#342,#343
  )),.UNSPECIFIED.,.F.,.F.,.F.,(2,2),(10,7,7,10),(0.,5.),(0.,0.5,0.75,1.
    ),.UNSPECIFIED.);
#296 = CARTESIAN_POINT('',(2.5,-7.105427357601E-15,-57.625));
#297 = CARTESIAN_POINT('',(2.5,5.507316741927,-57.62499999999));
#298 = CARTESIAN_POINT('',(2.5,12.300059593811,-57.03952353967));
#299 = CARTESIAN_POINT('',(2.5,20.105205942327,-55.90631866505));
#300 = CARTESIAN_POINT('',(2.5,28.670274723383,-54.2732637718));
#301 = CARTESIAN_POINT('',(2.5,37.736849774677,-52.18282908648));
#302 = CARTESIAN_POINT('',(2.5,47.047115878458,-49.67809107479));
#303 = CARTESIAN_POINT('',(2.5,56.347073126669,-46.80493810019));
#304 = CARTESIAN_POINT('',(2.5,69.895367141967,-42.00747268718));
#305 = CARTESIAN_POINT('',(2.5,82.263755298624,-36.58014556469));
#306 = CARTESIAN_POINT('',(2.5,86.223299481476,-34.70666197383));
#307 = CARTESIAN_POINT('',(2.5,89.987526472394,-32.77453110564));
#308 = CARTESIAN_POINT('',(2.5,93.524265206401,-30.78952094509));
#309 = CARTESIAN_POINT('',(2.5,96.80117106397,-28.75749291248));
#310 = CARTESIAN_POINT('',(2.5,99.785781884556,-26.68458378569));
#311 = CARTESIAN_POINT('',(2.5,105.10561372803,-22.47044985713));
#312 = CARTESIAN_POINT('',(2.5,108.99853038522,-18.15068480246));
#313 = CARTESIAN_POINT('',(2.5,110.5551510106,-15.9717584025));
#314 = CARTESIAN_POINT('',(2.5,111.69835054057,-13.78606206279));
#315 = CARTESIAN_POINT('',(2.5,112.37656648996,-11.58886771327));
#316 = CARTESIAN_POINT('',(2.5,112.59817332056,-9.429728962747));
#317 = CARTESIAN_POINT('',(2.5,112.33611141896,-7.249298489652));
#318 = CARTESIAN_POINT('',(2.5,111.53920274237,-5.055609784628));
#319 = CARTESIAN_POINT('',(2.5,110.16879162241,-2.853122088676));
#320 = CARTESIAN_POINT('',(-2.5,-7.105427357601E-15,-57.625));
#321 = CARTESIAN_POINT('',(-2.5,5.507316741927,-57.62499999999));
#322 = CARTESIAN_POINT('',(-2.5,12.300059593811,-57.03952353967));
#323 = CARTESIAN_POINT('',(-2.5,20.105205942327,-55.90631866505));
#324 = CARTESIAN_POINT('',(-2.5,28.670274723383,-54.2732637718));
#325 = CARTESIAN_POINT('',(-2.5,37.736849774677,-52.18282908648));
#326 = CARTESIAN_POINT('',(-2.5,47.047115878458,-49.67809107479));
#327 = CARTESIAN_POINT('',(-2.5,56.347073126669,-46.80493810019));
#328 = CARTESIAN_POINT('',(-2.5,69.895367141967,-42.00747268718));
#329 = CARTESIAN_POINT('',(-2.5,82.263755298624,-36.58014556469));
#330 = CARTESIAN_POINT('',(-2.5,86.223299481476,-34.70666197383));
#331 = CARTESIAN_POINT('',(-2.5,89.987526472394,-32.77453110564));
#332 = CARTESIAN_POINT('',(-2.5,93.524265206401,-30.78952094509));
#333 = CARTESIAN_POINT('',(-2.5,96.80117106397,-28.75749291248));
#334 = CARTESIAN_POINT('',(-2.5,99.785781884556,-26.68458378569));
#335 = CARTESIAN_POINT('',(-2.5,105.10561372803,-22.47044985713));
#336 = CARTESIAN_POINT('',(-2.5,108.99853038522,-18.15068480246));
#337 = CARTESIAN_POINT('',(-2.5,110.5551510106,-15.9717584025));
#338 = CARTESIAN_POINT('',(-2.5,111.69835054057,-13.78606206279));
#339 = CARTESIAN_POINT('',(-2.5,112.37656648996,-11.58886771327));
#340 = CARTESIAN_POINT('',(-2.5,112.59817332056,-9.429728962747));
#341 = CARTESIAN_POINT('',(-2.5,112.33611141896,-7.249298489652));
#342 = CARTESIAN_POINT('',(-2.5,111.53920274237,-5.055609784628));
#343 = CARTESIAN_POINT('',(-2.5,110.16879162241,-2.853122088676));
#344 = DEFINITIONAL_REPRESENTATION('',(#345),#348);
#345 = B_SPLINE_CURVE_WITH_KNOTS('',1,(#346,#347),.UNSPECIFIED.,.F.,.F.,
  (2,2),(0.,1.),.PIECEWISE_BEZIER_KNOTS.);
#346 = CARTESIAN_POINT('',(0.,0.));
#347 = CARTESIAN_POINT('',(0.,1.));
#348 = ( GEOMETRIC_REPRESENTATION_CONTEXT(2) 
PARAMETRIC_REPRESENTATION_CONTEXT() REPRESENTATION_CONTEXT('2D SPACE',''
  ) );
#349 = ORIENTED_EDGE('',*,*,#350,.T.);
#350 = EDGE_CURVE('',#238,#351,#353,.T.);
#351 = VERTEX_POINT('',#352);
#352 = CARTESIAN_POINT('',(2.5,114.,52.375));
#353 = SURFACE_CURVE('',#354,(#385,#419),.PCURVE_S1.);
#354 = B_SPLINE_CURVE_WITH_KNOTS('',11,(#355,#356,#357,#358,#359,#360,
    #361,#362,#363,#364,#365,#366,#367,#368,#369,#370,#371,#372,#373,
    #374,#375,#376,#377,#378,#379,#380,#381,#382,#383,#384),
  .UNSPECIFIED.,.F.,.F.,(12,9,9,12),(0.,0.174164445098,0.587082222549,1.
    ),.UNSPECIFIED.);
#355 = CARTESIAN_POINT('',(2.5,110.16879162241,-2.853122088676));
#356 = CARTESIAN_POINT('',(2.5,109.48686164609,-1.757142670198));
#357 = CARTESIAN_POINT('',(2.5,108.77292156348,-0.646724193986));
#358 = CARTESIAN_POINT('',(2.5,108.03032189486,0.476770238152));
#359 = CARTESIAN_POINT('',(2.5,107.26241275988,1.611995068216));
#360 = CARTESIAN_POINT('',(2.5,106.47254352577,2.757620274204));
#361 = CARTESIAN_POINT('',(2.5,105.66406245727,3.912329362292));
#362 = CARTESIAN_POINT('',(2.5,104.84031636423,5.074817359032));
#363 = CARTESIAN_POINT('',(2.5,104.0046502518,6.243788803526));
#364 = CARTESIAN_POINT('',(2.5,103.16040696829,7.417955739626));
#365 = CARTESIAN_POINT('',(2.5,100.29693691389,11.389086620263));
#366 = CARTESIAN_POINT('',(2.5,97.411885274178,15.390147375572));
#367 = CARTESIAN_POINT('',(2.499999999999,95.41662121285,18.202265050402
    ));
#368 = CARTESIAN_POINT('',(2.500000000001,93.49938219209,20.99477926975)
  );
#369 = CARTESIAN_POINT('',(2.499999999998,91.704693632641,
    23.751781587987));
#370 = CARTESIAN_POINT('',(2.500000000002,90.077165328243,
    26.457429546519));
#371 = CARTESIAN_POINT('',(2.499999999999,88.660977393238,
    29.094951051333));
#372 = CARTESIAN_POINT('',(2.5,87.49990965746,31.648115697006));
#373 = CARTESIAN_POINT('',(2.5,86.638392750621,34.103973701919));
#374 = CARTESIAN_POINT('',(2.5,85.609209087007,38.801318607858));
#375 = CARTESIAN_POINT('',(2.5,86.182982731674,43.00112231826));
#376 = CARTESIAN_POINT('',(2.5,86.924947493202,44.955210340654));
#377 = CARTESIAN_POINT('',(2.500000000001,88.166199555157,
    46.767809537317));
#378 = CARTESIAN_POINT('',(2.499999999998,90.037972407076,
    48.291249508626));
#379 = CARTESIAN_POINT('',(2.500000000002,92.3040658327,49.58601380016)
  );
#380 = CARTESIAN_POINT('',(2.499999999998,95.288107959836,
    50.684801797022));
#381 = CARTESIAN_POINT('',(2.500000000001,98.866031596855,
    51.508489064359));
#382 = CARTESIAN_POINT('',(2.5,103.1553216627,52.081279351953));
#383 = CARTESIAN_POINT('',(2.5,108.18403953771,52.375000000001));
#384 = CARTESIAN_POINT('',(2.5,114.,52.375));
#385 = PCURVE('',#102,#386);
#386 = DEFINITIONAL_REPRESENTATION('',(#387),#418);
#387 = B_SPLINE_CURVE_WITH_KNOTS('',11,(#388,#389,#390,#391,#392,#393,
    #394,#395,#396,#397,#398,#399,#400,#401,#402,#403,#404,#405,#406,
    #407,#408,#409,#410,#411,#412,#413,#414,#415,#416,#417),
  .UNSPECIFIED.,.F.,.F.,(12,9,9,12),(0.,0.174164445098,0.587082222549,1.
    ),.UNSPECIFIED.);
#388 = CARTESIAN_POINT('',(55.146877911324,125.16879162241));
#389 = CARTESIAN_POINT('',(56.242857329802,124.48686164609));
#390 = CARTESIAN_POINT('',(57.353275806014,123.77292156348));
#391 = CARTESIAN_POINT('',(58.476770238152,123.03032189486));
#392 = CARTESIAN_POINT('',(59.611995068216,122.26241275988));
#393 = CARTESIAN_POINT('',(60.757620274204,121.47254352577));
#394 = CARTESIAN_POINT('',(61.912329362292,120.66406245727));
#395 = CARTESIAN_POINT('',(63.074817359032,119.84031636423));
#396 = CARTESIAN_POINT('',(64.243788803526,119.0046502518));
#397 = CARTESIAN_POINT('',(65.417955739626,118.16040696829));
#398 = CARTESIAN_POINT('',(69.389086620263,115.29693691389));
#399 = CARTESIAN_POINT('',(73.390147375572,112.41188527417));
#400 = CARTESIAN_POINT('',(76.202265050402,110.41662121285));
#401 = CARTESIAN_POINT('',(78.99477926975,108.49938219209));
#402 = CARTESIAN_POINT('',(81.751781587987,106.70469363264));
#403 = CARTESIAN_POINT('',(84.457429546519,105.07716532824));
#404 = CARTESIAN_POINT('',(87.094951051333,103.66097739323));
#405 = CARTESIAN_POINT('',(89.648115697006,102.49990965746));
#406 = CARTESIAN_POINT('',(92.103973701919,101.63839275062));
#407 = CARTESIAN_POINT('',(96.801318607858,100.609209087));
#408 = CARTESIAN_POINT('',(101.00112231826,101.18298273167));
#409 = CARTESIAN_POINT('',(102.95521034065,101.9249474932));
#410 = CARTESIAN_POINT('',(104.76780953731,103.16619955515));
#411 = CARTESIAN_POINT('',(106.29124950862,105.03797240707));
#412 = CARTESIAN_POINT('',(107.58601380016,107.3040658327));
#413 = CARTESIAN_POINT('',(108.68480179702,110.28810795983));
#414 = CARTESIAN_POINT('',(109.50848906435,113.86603159685));
#415 = CARTESIAN_POINT('',(110.08127935195,118.1553216627));
#416 = CARTESIAN_POINT('',(110.375,123.18403953771));
#417 = CARTESIAN_POINT('',(110.375,129.));
#418 = ( GEOMETRIC_REPRESENTATION_CONTEXT(2) 
PARAMETRIC_REPRESENTATION_CONTEXT() REPRESENTATION_CONTEXT('2D SPACE',''
  ) );
#419 = PCURVE('',#420,#481);
#420 = B_SPLINE_SURFACE_WITH_KNOTS('',1,11,(
    (#421,#422,#423,#424,#425,#426,#427,#428,#429,#430,#431,#432,#433
      ,#434,#435,#436,#437,#438,#439,#440,#441,#442,#443,#444,#445,#446
      ,#447,#448,#449,#450)
    ,(#451,#452,#453,#454,#455,#456,#457,#458,#459,#460,#461,#462,#463
      ,#464,#465,#466,#467,#468,#469,#470,#471,#472,#473,#474,#475,#476
      ,#477,#478,#479,#480
  )),.UNSPECIFIED.,.F.,.F.,.F.,(2,2),(12,9,9,12),(0.,5.),(0.,
    0.174164445098,0.587082222549,1.),.UNSPECIFIED.);
#421 = CARTESIAN_POINT('',(2.5,110.16879162241,-2.853122088676));
#422 = CARTESIAN_POINT('',(2.5,109.48686164609,-1.757142670198));
#423 = CARTESIAN_POINT('',(2.5,108.77292156348,-0.646724193986));
#424 = CARTESIAN_POINT('',(2.5,108.03032189486,0.476770238152));
#425 = CARTESIAN_POINT('',(2.5,107.26241275988,1.611995068216));
#426 = CARTESIAN_POINT('',(2.5,106.47254352577,2.757620274204));
#427 = CARTESIAN_POINT('',(2.5,105.66406245727,3.912329362292));
#428 = CARTESIAN_POINT('',(2.5,104.84031636423,5.074817359032));
#429 = CARTESIAN_POINT('',(2.5,104.0046502518,6.243788803526));
#430 = CARTESIAN_POINT('',(2.5,103.16040696829,7.417955739626));
#431 = CARTESIAN_POINT('',(2.5,100.29693691389,11.389086620263));
#432 = CARTESIAN_POINT('',(2.5,97.411885274178,15.390147375572));
#433 = CARTESIAN_POINT('',(2.499999999999,95.41662121285,18.202265050402
    ));
#434 = CARTESIAN_POINT('',(2.500000000001,93.49938219209,20.99477926975)
  );
#435 = CARTESIAN_POINT('',(2.499999999998,91.704693632641,
    23.751781587987));
#436 = CARTESIAN_POINT('',(2.500000000002,90.077165328243,
    26.457429546519));
#437 = CARTESIAN_POINT('',(2.499999999999,88.660977393238,
    29.094951051333));
#438 = CARTESIAN_POINT('',(2.5,87.49990965746,31.648115697006));
#439 = CARTESIAN_POINT('',(2.5,86.638392750621,34.103973701919));
#440 = CARTESIAN_POINT('',(2.5,85.609209087007,38.801318607858));
#441 = CARTESIAN_POINT('',(2.5,86.182982731674,43.00112231826));
#442 = CARTESIAN_POINT('',(2.5,86.924947493202,44.955210340654));
#443 = CARTESIAN_POINT('',(2.500000000001,88.166199555157,
    46.767809537317));
#444 = CARTESIAN_POINT('',(2.499999999998,90.037972407076,
    48.291249508626));
#445 = CARTESIAN_POINT('',(2.500000000002,92.3040658327,49.58601380016)
  );
#446 = CARTESIAN_POINT('',(2.499999999998,95.288107959836,
    50.684801797022));
#447 = CARTESIAN_POINT('',(2.500000000001,98.866031596855,
    51.508489064359));
#448 = CARTESIAN_POINT('',(2.5,103.1553216627,52.081279351953));
#449 = CARTESIAN_POINT('',(2.5,108.18403953771,52.375000000001));
#450 = CARTESIAN_POINT('',(2.5,114.,52.375));
#451 = CARTESIAN_POINT('',(-2.5,110.16879162241,-2.853122088676));
#452 = CARTESIAN_POINT('',(-2.5,109.48686164609,-1.757142670198));
#453 = CARTESIAN_POINT('',(-2.5,108.77292156348,-0.646724193986));
#454 = CARTESIAN_POINT('',(-2.5,108.03032189486,0.476770238152));
#455 = CARTESIAN_POINT('',(-2.5,107.26241275988,1.611995068216));
#456 = CARTESIAN_POINT('',(-2.5,106.47254352577,2.757620274204));
#457 = CARTESIAN_POINT('',(-2.5,105.66406245727,3.912329362292));
#458 = CARTESIAN_POINT('',(-2.5,104.84031636423,5.074817359032));
#459 = CARTESIAN_POINT('',(-2.5,104.0046502518,6.243788803526));
#460 = CARTESIAN_POINT('',(-2.5,103.16040696829,7.417955739626));
#461 = CARTESIAN_POINT('',(-2.5,100.29693691389,11.389086620262));
#462 = CARTESIAN_POINT('',(-2.5,97.411885274177,15.390147375573));
#463 = CARTESIAN_POINT('',(-2.499999999999,95.416621212852,
    18.202265050399));
#464 = CARTESIAN_POINT('',(-2.500000000001,93.499382192087,
    20.994779269755));
#465 = CARTESIAN_POINT('',(-2.499999999998,91.704693632646,
    23.751781587981));
#466 = CARTESIAN_POINT('',(-2.500000000002,90.077165328237,
    26.457429546524));
#467 = CARTESIAN_POINT('',(-2.499999999999,88.660977393244,
    29.09495105133));
#468 = CARTESIAN_POINT('',(-2.5,87.499909657456,31.648115697007));
#469 = CARTESIAN_POINT('',(-2.5,86.638392750622,34.103973701919));
#470 = CARTESIAN_POINT('',(-2.5,85.609209087006,38.801318607857));
#471 = CARTESIAN_POINT('',(-2.5,86.182982731675,43.001122318262));
#472 = CARTESIAN_POINT('',(-2.5,86.924947493196,44.955210340647));
#473 = CARTESIAN_POINT('',(-2.500000000001,88.166199555169,
    46.767809537332));
#474 = CARTESIAN_POINT('',(-2.499999999998,90.037972407059,
    48.291249508607));
#475 = CARTESIAN_POINT('',(-2.500000000002,92.304065832718,
    49.586013800179));
#476 = CARTESIAN_POINT('',(-2.499999999998,95.288107959822,
    50.684801797007));
#477 = CARTESIAN_POINT('',(-2.500000000001,98.866031596863,
    51.508489064368));
#478 = CARTESIAN_POINT('',(-2.5,103.1553216627,52.08127935195));
#479 = CARTESIAN_POINT('',(-2.5,108.18403953771,52.375000000002));
#480 = CARTESIAN_POINT('',(-2.5,114.,52.375));
#481 = DEFINITIONAL_REPRESENTATION('',(#482),#485);
#482 = B_SPLINE_CURVE_WITH_KNOTS('',1,(#483,#484),.UNSPECIFIED.,.F.,.F.,
  (2,2),(0.,1.),.PIECEWISE_BEZIER_KNOTS.);
#483 = CARTESIAN_POINT('',(0.,0.));
#484 = CARTESIAN_POINT('',(0.,1.));
#485 = ( GEOMETRIC_REPRESENTATION_CONTEXT(2) 
PARAMETRIC_REPRESENTATION_CONTEXT() REPRESENTATION_CONTEXT('2D SPACE',''
  ) );
#486 = ORIENTED_EDGE('',*,*,#487,.T.);
#487 = EDGE_CURVE('',#351,#488,#490,.T.);
#488 = VERTEX_POINT('',#489);
#489 = CARTESIAN_POINT('',(2.5,129.,52.375));
#490 = SURFACE_CURVE('',#491,(#496,#504),.PCURVE_S1.);
#491 = B_SPLINE_CURVE_WITH_KNOTS('',3,(#492,#493,#494,#495),
  .UNSPECIFIED.,.F.,.F.,(4,4),(0.,1.),.PIECEWISE_BEZIER_KNOTS.);
#492 = CARTESIAN_POINT('',(2.5,114.,52.375));
#493 = CARTESIAN_POINT('',(2.5,114.1,52.375));
#494 = CARTESIAN_POINT('',(2.5,128.9,52.375));
#495 = CARTESIAN_POINT('',(2.5,129.,52.375));
#496 = PCURVE('',#102,#497);
#497 = DEFINITIONAL_REPRESENTATION('',(#498),#503);
#498 = B_SPLINE_CURVE_WITH_KNOTS('',3,(#499,#500,#501,#502),
  .UNSPECIFIED.,.F.,.F.,(4,4),(0.,1.),.PIECEWISE_BEZIER_KNOTS.);
#499 = CARTESIAN_POINT('',(110.375,129.));
#500 = CARTESIAN_POINT('',(110.375,129.1));
#501 = CARTESIAN_POINT('',(110.375,143.9));
#502 = CARTESIAN_POINT('',(110.375,144.));
#503 = ( GEOMETRIC_REPRESENTATION_CONTEXT(2) 
PARAMETRIC_REPRESENTATION_CONTEXT() REPRESENTATION_CONTEXT('2D SPACE',''
  ) );
#504 = PCURVE('',#505,#510);
#505 = PLANE('',#506);
#506 = AXIS2_PLACEMENT_3D('',#507,#508,#509);
#507 = CARTESIAN_POINT('',(0.,121.5,52.375));
#508 = DIRECTION('',(-2.114011445237E-16,9.184356430369E-17,-1.));
#509 = DIRECTION('',(-1.,-8.609109578238E-18,2.114011445237E-16));
#510 = DEFINITIONAL_REPRESENTATION('',(#511),#516);
#511 = B_SPLINE_CURVE_WITH_KNOTS('',3,(#512,#513,#514,#515),
  .UNSPECIFIED.,.F.,.F.,(4,4),(0.,1.),.PIECEWISE_BEZIER_KNOTS.);
#512 = CARTESIAN_POINT('',(-2.5,-7.5));
#513 = CARTESIAN_POINT('',(-2.5,-7.4));
#514 = CARTESIAN_POINT('',(-2.5,7.4));
#515 = CARTESIAN_POINT('',(-2.5,7.5));
#516 = ( GEOMETRIC_REPRESENTATION_CONTEXT(2) 
PARAMETRIC_REPRESENTATION_CONTEXT() REPRESENTATION_CONTEXT('2D SPACE',''
  ) );
#517 = ORIENTED_EDGE('',*,*,#518,.F.);
#518 = EDGE_CURVE('',#519,#488,#521,.T.);
#519 = VERTEX_POINT('',#520);
#520 = CARTESIAN_POINT('',(2.5,129.,51.625));
#521 = SURFACE_CURVE('',#522,(#525,#531),.PCURVE_S1.);
#522 = B_SPLINE_CURVE_WITH_KNOTS('',1,(#523,#524),.UNSPECIFIED.,.F.,.F.,
  (2,2),(0.,0.75),.PIECEWISE_BEZIER_KNOTS.);
#523 = CARTESIAN_POINT('',(2.5,129.,51.625));
#524 = CARTESIAN_POINT('',(2.5,129.,52.375));
#525 = PCURVE('',#102,#526);
#526 = DEFINITIONAL_REPRESENTATION('',(#527),#530);
#527 = B_SPLINE_CURVE_WITH_KNOTS('',1,(#528,#529),.UNSPECIFIED.,.F.,.F.,
  (2,2),(0.,0.75),.PIECEWISE_BEZIER_KNOTS.);
#528 = CARTESIAN_POINT('',(109.625,144.));
#529 = CARTESIAN_POINT('',(110.375,144.));
#530 = ( GEOMETRIC_REPRESENTATION_CONTEXT(2) 
PARAMETRIC_REPRESENTATION_CONTEXT() REPRESENTATION_CONTEXT('2D SPACE',''
  ) );
#531 = PCURVE('',#532,#537);
#532 = PLANE('',#533);
#533 = AXIS2_PLACEMENT_3D('',#534,#535,#536);
#534 = CARTESIAN_POINT('',(0.,129.,52.));
#535 = DIRECTION('',(-0.,-1.,-0.));
#536 = DIRECTION('',(0.,0.,-1.));
#537 = DEFINITIONAL_REPRESENTATION('',(#538),#541);
#538 = B_SPLINE_CURVE_WITH_KNOTS('',1,(#539,#540),.UNSPECIFIED.,.F.,.F.,
  (2,2),(0.,0.75),.PIECEWISE_BEZIER_KNOTS.);
#539 = CARTESIAN_POINT('',(0.375,2.5));
#540 = CARTESIAN_POINT('',(-0.375,2.5));
#541 = ( GEOMETRIC_REPRESENTATION_CONTEXT(2) 
PARAMETRIC_REPRESENTATION_CONTEXT() REPRESENTATION_CONTEXT('2D SPACE',''
  ) );
#542 = ORIENTED_EDGE('',*,*,#543,.F.);
#543 = EDGE_CURVE('',#544,#519,#546,.T.);
#544 = VERTEX_POINT('',#545);
#545 = CARTESIAN_POINT('',(2.5,114.,51.625));
#546 = SURFACE_CURVE('',#547,(#552,#560),.PCURVE_S1.);
#547 = B_SPLINE_CURVE_WITH_KNOTS('',3,(#548,#549,#550,#551),
  .UNSPECIFIED.,.F.,.F.,(4,4),(0.,1.),.PIECEWISE_BEZIER_KNOTS.);
#548 = CARTESIAN_POINT('',(2.5,114.,51.625));
#549 = CARTESIAN_POINT('',(2.5,114.1,51.625));
#550 = CARTESIAN_POINT('',(2.5,128.9,51.625));
#551 = CARTESIAN_POINT('',(2.5,129.,51.625));
#552 = PCURVE('',#102,#553);
#553 = DEFINITIONAL_REPRESENTATION('',(#554),#559);
#554 = B_SPLINE_CURVE_WITH_KNOTS('',3,(#555,#556,#557,#558),
  .UNSPECIFIED.,.F.,.F.,(4,4),(0.,1.),.PIECEWISE_BEZIER_KNOTS.);
#555 = CARTESIAN_POINT('',(109.625,129.));
#556 = CARTESIAN_POINT('',(109.625,129.1));
#557 = CARTESIAN_POINT('',(109.625,143.9));
#558 = CARTESIAN_POINT('',(109.625,144.));
#559 = ( GEOMETRIC_REPRESENTATION_CONTEXT(2) 
PARAMETRIC_REPRESENTATION_CONTEXT() REPRESENTATION_CONTEXT('2D SPACE',''
  ) );
#560 = PCURVE('',#561,#566);
#561 = PLANE('',#562);
#562 = AXIS2_PLACEMENT_3D('',#563,#564,#565);
#563 = CARTESIAN_POINT('',(0.,121.5,51.625));
#564 = DIRECTION('',(-1.526786043782E-16,-5.279413850397E-16,1.));
#565 = DIRECTION('',(1.,-8.609109578238E-18,1.526786043782E-16));
#566 = DEFINITIONAL_REPRESENTATION('',(#567),#572);
#567 = B_SPLINE_CURVE_WITH_KNOTS('',3,(#568,#569,#570,#571),
  .UNSPECIFIED.,.F.,.F.,(4,4),(0.,1.),.PIECEWISE_BEZIER_KNOTS.);
#568 = CARTESIAN_POINT('',(2.5,-7.5));
#569 = CARTESIAN_POINT('',(2.5,-7.4));
#570 = CARTESIAN_POINT('',(2.5,7.4));
#571 = CARTESIAN_POINT('',(2.5,7.5));
#572 = ( GEOMETRIC_REPRESENTATION_CONTEXT(2) 
PARAMETRIC_REPRESENTATION_CONTEXT() REPRESENTATION_CONTEXT('2D SPACE',''
  ) );
#573 = ORIENTED_EDGE('',*,*,#574,.F.);
#574 = EDGE_CURVE('',#575,#544,#577,.T.);
#575 = VERTEX_POINT('',#576);
#576 = CARTESIAN_POINT('',(2.5,110.80558740417,-2.456901023705));
#577 = SURFACE_CURVE('',#578,(#609,#643),.PCURVE_S1.);
#578 = B_SPLINE_CURVE_WITH_KNOTS('',11,(#579,#580,#581,#582,#583,#584,
    #585,#586,#587,#588,#589,#590,#591,#592,#593,#594,#595,#596,#597,
    #598,#599,#600,#601,#602,#603,#604,#605,#606,#607,#608),
  .UNSPECIFIED.,.F.,.F.,(12,9,9,12),(0.,0.174164445098,0.587082222549,1.
    ),.UNSPECIFIED.);
#579 = CARTESIAN_POINT('',(2.5,110.80558740417,-2.456901023705));
#580 = CARTESIAN_POINT('',(2.5,110.11820188115,-1.352153598073));
#581 = CARTESIAN_POINT('',(2.5,109.39945302431,-0.234302649537));
#582 = CARTESIAN_POINT('',(2.5,108.65266344613,0.895465488397));
#583 = CARTESIAN_POINT('',(2.5,107.88115615997,2.035946938424));
#584 = CARTESIAN_POINT('',(2.5,107.08825493119,3.185922287231));
#585 = CARTESIAN_POINT('',(2.5,106.27728462823,4.34415859334));
#586 = CARTESIAN_POINT('',(2.5,105.45157157376,5.50941139488));
#587 = CARTESIAN_POINT('',(2.5,104.61444389572,6.680426717447));
#588 = CARTESIAN_POINT('',(2.5,103.76923187849,7.855943081875));
#589 = CARTESIAN_POINT('',(2.5,100.9041321834,11.829333988403));
#590 = CARTESIAN_POINT('',(2.5,98.022944177333,15.825036561292));
#591 = CARTESIAN_POINT('',(2.499999999999,96.032881420456,
    18.629222176647));
#592 = CARTESIAN_POINT('',(2.500000000001,94.124016294499,
    21.410904892478));
#593 = CARTESIAN_POINT('',(2.499999999998,92.340752092979,
    24.152018406875));
#594 = CARTESIAN_POINT('',(2.500000000002,90.72740773612,26.834430430867
    ));
#595 = CARTESIAN_POINT('',(2.499999999999,89.328731823866,
    29.440938310918));
#596 = CARTESIAN_POINT('',(2.5,88.189873240372,31.953797704895));
#597 = CARTESIAN_POINT('',(2.5,87.355330070153,34.351983646867));
#598 = CARTESIAN_POINT('',(2.5,86.37798349221,38.870816954049));
#599 = CARTESIAN_POINT('',(2.5,86.924574287712,42.767473105267));
#600 = CARTESIAN_POINT('',(2.5,87.613444130777,44.547710678247));
#601 = CARTESIAN_POINT('',(2.500000000001,88.762607772222,
    46.121557993996));
#602 = CARTESIAN_POINT('',(2.499999999998,90.329760436254,
    47.602710704515));
#603 = CARTESIAN_POINT('',(2.500000000002,92.640031053861,
    48.896710516788));
#604 = CARTESIAN_POINT('',(2.499999999998,95.458720210641,
    49.936883298008));
#605 = CARTESIAN_POINT('',(2.500000000001,98.998823813024,
    50.768378735623));
#606 = CARTESIAN_POINT('',(2.5,103.23178565568,51.33301833218));
#607 = CARTESIAN_POINT('',(2.5,108.21847307272,51.625));
#608 = CARTESIAN_POINT('',(2.5,114.,51.625));
#609 = PCURVE('',#102,#610);
#610 = DEFINITIONAL_REPRESENTATION('',(#611),#642);
#611 = B_SPLINE_CURVE_WITH_KNOTS('',11,(#612,#613,#614,#615,#616,#617,
    #618,#619,#620,#621,#622,#623,#624,#625,#626,#627,#628,#629,#630,
    #631,#632,#633,#634,#635,#636,#637,#638,#639,#640,#641),
  .UNSPECIFIED.,.F.,.F.,(12,9,9,12),(0.,0.174164445098,0.587082222549,1.
    ),.UNSPECIFIED.);
#612 = CARTESIAN_POINT('',(55.543098976295,125.80558740417));
#613 = CARTESIAN_POINT('',(56.647846401927,125.11820188115));
#614 = CARTESIAN_POINT('',(57.765697350463,124.39945302431));
#615 = CARTESIAN_POINT('',(58.895465488397,123.65266344613));
#616 = CARTESIAN_POINT('',(60.035946938424,122.88115615997));
#617 = CARTESIAN_POINT('',(61.185922287231,122.08825493119));
#618 = CARTESIAN_POINT('',(62.34415859334,121.27728462823));
#619 = CARTESIAN_POINT('',(63.50941139488,120.45157157376));
#620 = CARTESIAN_POINT('',(64.680426717447,119.61444389572));
#621 = CARTESIAN_POINT('',(65.855943081874,118.76923187849));
#622 = CARTESIAN_POINT('',(69.829333988403,115.9041321834));
#623 = CARTESIAN_POINT('',(73.825036561292,113.02294417733));
#624 = CARTESIAN_POINT('',(76.629222176647,111.03288142045));
#625 = CARTESIAN_POINT('',(79.410904892478,109.12401629449));
#626 = CARTESIAN_POINT('',(82.152018406875,107.34075209297));
#627 = CARTESIAN_POINT('',(84.834430430867,105.72740773612));
#628 = CARTESIAN_POINT('',(87.440938310918,104.32873182386));
#629 = CARTESIAN_POINT('',(89.953797704895,103.18987324037));
#630 = CARTESIAN_POINT('',(92.351983646867,102.35533007015));
#631 = CARTESIAN_POINT('',(96.870816954049,101.37798349221));
#632 = CARTESIAN_POINT('',(100.76747310526,101.92457428771));
#633 = CARTESIAN_POINT('',(102.54771067824,102.61344413077));
#634 = CARTESIAN_POINT('',(104.12155799399,103.76260777222));
#635 = CARTESIAN_POINT('',(105.60271070451,105.32976043625));
#636 = CARTESIAN_POINT('',(106.89671051678,107.64003105386));
#637 = CARTESIAN_POINT('',(107.936883298,110.45872021064));
#638 = CARTESIAN_POINT('',(108.76837873562,113.99882381302));
#639 = CARTESIAN_POINT('',(109.33301833218,118.23178565568));
#640 = CARTESIAN_POINT('',(109.625,123.21847307272));
#641 = CARTESIAN_POINT('',(109.625,129.));
#642 = ( GEOMETRIC_REPRESENTATION_CONTEXT(2) 
PARAMETRIC_REPRESENTATION_CONTEXT() REPRESENTATION_CONTEXT('2D SPACE',''
  ) );
#643 = PCURVE('',#644,#705);
#644 = B_SPLINE_SURFACE_WITH_KNOTS('',1,11,(
    (#645,#646,#647,#648,#649,#650,#651,#652,#653,#654,#655,#656,#657
      ,#658,#659,#660,#661,#662,#663,#664,#665,#666,#667,#668,#669,#670
      ,#671,#672,#673,#674)
    ,(#675,#676,#677,#678,#679,#680,#681,#682,#683,#684,#685,#686,#687
      ,#688,#689,#690,#691,#692,#693,#694,#695,#696,#697,#698,#699,#700
      ,#701,#702,#703,#704
  )),.UNSPECIFIED.,.F.,.F.,.F.,(2,2),(12,9,9,12),(0.,5.),(0.,
    0.174164445098,0.587082222549,1.),.UNSPECIFIED.);
#645 = CARTESIAN_POINT('',(-2.5,110.80558740417,-2.456901023705));
#646 = CARTESIAN_POINT('',(-2.5,110.11820188115,-1.352153598073));
#647 = CARTESIAN_POINT('',(-2.5,109.39945302431,-0.234302649537));
#648 = CARTESIAN_POINT('',(-2.5,108.65266344613,0.895465488396));
#649 = CARTESIAN_POINT('',(-2.5,107.88115615997,2.035946938425));
#650 = CARTESIAN_POINT('',(-2.5,107.08825493119,3.18592228723));
#651 = CARTESIAN_POINT('',(-2.5,106.27728462823,4.34415859334));
#652 = CARTESIAN_POINT('',(-2.5,105.45157157376,5.509411394879));
#653 = CARTESIAN_POINT('',(-2.5,104.61444389572,6.680426717447));
#654 = CARTESIAN_POINT('',(-2.5,103.76923187849,7.855943081874));
#655 = CARTESIAN_POINT('',(-2.5,100.9041321834,11.829333988403));
#656 = CARTESIAN_POINT('',(-2.5,98.022944177333,15.825036561291));
#657 = CARTESIAN_POINT('',(-2.499999999999,96.032881420456,
    18.629222176649));
#658 = CARTESIAN_POINT('',(-2.500000000001,94.124016294499,
    21.410904892474));
#659 = CARTESIAN_POINT('',(-2.499999999998,92.340752092979,
    24.152018406881));
#660 = CARTESIAN_POINT('',(-2.500000000002,90.72740773612,
    26.834430430861));
#661 = CARTESIAN_POINT('',(-2.499999999999,89.328731823866,
    29.440938310923));
#662 = CARTESIAN_POINT('',(-2.5,88.189873240372,31.953797704892));
#663 = CARTESIAN_POINT('',(-2.5,87.355330070153,34.351983646867));
#664 = CARTESIAN_POINT('',(-2.5,86.37798349221,38.870816954048));
#665 = CARTESIAN_POINT('',(-2.5,86.924574287712,42.767473105268));
#666 = CARTESIAN_POINT('',(-2.5,87.613444130777,44.547710678242));
#667 = CARTESIAN_POINT('',(-2.500000000001,88.762607772222,
    46.121557994007));
#668 = CARTESIAN_POINT('',(-2.499999999998,90.329760436254,
    47.602710704499));
#669 = CARTESIAN_POINT('',(-2.500000000002,92.640031053861,
    48.896710516805));
#670 = CARTESIAN_POINT('',(-2.499999999998,95.458720210641,
    49.936883297995));
#671 = CARTESIAN_POINT('',(-2.500000000001,98.998823813024,
    50.768378735631));
#672 = CARTESIAN_POINT('',(-2.5,103.23178565568,51.333018332177));
#673 = CARTESIAN_POINT('',(-2.5,108.21847307272,51.625000000001));
#674 = CARTESIAN_POINT('',(-2.5,114.,51.625));
#675 = CARTESIAN_POINT('',(2.5,110.80558740417,-2.456901023705));
#676 = CARTESIAN_POINT('',(2.5,110.11820188115,-1.352153598073));
#677 = CARTESIAN_POINT('',(2.5,109.39945302431,-0.234302649537));
#678 = CARTESIAN_POINT('',(2.5,108.65266344613,0.895465488397));
#679 = CARTESIAN_POINT('',(2.5,107.88115615997,2.035946938424));
#680 = CARTESIAN_POINT('',(2.5,107.08825493119,3.185922287231));
#681 = CARTESIAN_POINT('',(2.5,106.27728462823,4.34415859334));
#682 = CARTESIAN_POINT('',(2.5,105.45157157376,5.50941139488));
#683 = CARTESIAN_POINT('',(2.5,104.61444389572,6.680426717447));
#684 = CARTESIAN_POINT('',(2.5,103.76923187849,7.855943081875));
#685 = CARTESIAN_POINT('',(2.5,100.9041321834,11.829333988403));
#686 = CARTESIAN_POINT('',(2.5,98.022944177333,15.825036561292));
#687 = CARTESIAN_POINT('',(2.499999999999,96.032881420456,
    18.629222176647));
#688 = CARTESIAN_POINT('',(2.500000000001,94.124016294499,
    21.410904892478));
#689 = CARTESIAN_POINT('',(2.499999999998,92.340752092979,
    24.152018406875));
#690 = CARTESIAN_POINT('',(2.500000000002,90.72740773612,26.834430430867
    ));
#691 = CARTESIAN_POINT('',(2.499999999999,89.328731823866,
    29.440938310918));
#692 = CARTESIAN_POINT('',(2.5,88.189873240372,31.953797704895));
#693 = CARTESIAN_POINT('',(2.5,87.355330070153,34.351983646867));
#694 = CARTESIAN_POINT('',(2.5,86.37798349221,38.870816954049));
#695 = CARTESIAN_POINT('',(2.5,86.924574287712,42.767473105267));
#696 = CARTESIAN_POINT('',(2.5,87.613444130777,44.547710678247));
#697 = CARTESIAN_POINT('',(2.500000000001,88.762607772222,
    46.121557993996));
#698 = CARTESIAN_POINT('',(2.499999999998,90.329760436254,
    47.602710704515));
#699 = CARTESIAN_POINT('',(2.500000000002,92.640031053861,
    48.896710516788));
#700 = CARTESIAN_POINT('',(2.499999999998,95.458720210641,
    49.936883298008));
#701 = CARTESIAN_POINT('',(2.500000000001,98.998823813024,
    50.768378735623));
#702 = CARTESIAN_POINT('',(2.5,103.23178565568,51.33301833218));
#703 = CARTESIAN_POINT('',(2.5,108.21847307272,51.625));
#704 = CARTESIAN_POINT('',(2.5,114.,51.625));
#705 = DEFINITIONAL_REPRESENTATION('',(#706),#710);
#706 = LINE('',#707,#708);
#707 = CARTESIAN_POINT('',(5.,0.));
#708 = VECTOR('',#709,1.);
#709 = DIRECTION('',(0.,1.));
#710 = ( GEOMETRIC_REPRESENTATION_CONTEXT(2) 
PARAMETRIC_REPRESENTATION_CONTEXT() REPRESENTATION_CONTEXT('2D SPACE',''
  ) );
#711 = ORIENTED_EDGE('',*,*,#712,.F.);
#712 = EDGE_CURVE('',#85,#575,#713,.T.);
#713 = SURFACE_CURVE('',#714,(#739,#767),.PCURVE_S1.);
#714 = B_SPLINE_CURVE_WITH_KNOTS('',9,(#715,#716,#717,#718,#719,#720,
    #721,#722,#723,#724,#725,#726,#727,#728,#729,#730,#731,#732,#733,
    #734,#735,#736,#737,#738),.UNSPECIFIED.,.F.,.F.,(10,7,7,10),(0.,0.5,
    0.75,1.),.UNSPECIFIED.);
#715 = CARTESIAN_POINT('',(2.5,-7.105427357601E-15,-58.375));
#716 = CARTESIAN_POINT('',(2.5,5.578189302651,-58.375));
#717 = CARTESIAN_POINT('',(2.5,12.404784823466,-57.78198915987));
#718 = CARTESIAN_POINT('',(2.5,20.241742828994,-56.64603519902));
#719 = CARTESIAN_POINT('',(2.5,28.830478036587,-55.00707548726));
#720 = CARTESIAN_POINT('',(2.5,37.918340261757,-52.91045556342));
#721 = CARTESIAN_POINT('',(2.5,47.252078375514,-50.40091472728));
#722 = CARTESIAN_POINT('',(2.5,56.574625939141,-47.52038038081));
#723 = CARTESIAN_POINT('',(2.5,70.161240512909,-42.70992575052));
#724 = CARTESIAN_POINT('',(2.5,82.579588722065,-37.26083470941));
#725 = CARTESIAN_POINT('',(2.5,86.557498676332,-35.37887831416));
#726 = CARTESIAN_POINT('',(2.5,90.342051211038,-33.43657890202));
#727 = CARTESIAN_POINT('',(2.5,93.901534097813,-31.43914545869));
#728 = CARTESIAN_POINT('',(2.5,97.204408662835,-29.39169353455));
#729 = CARTESIAN_POINT('',(2.5,100.21925377331,-27.29906332241));
#730 = CARTESIAN_POINT('',(2.5,105.60991822219,-23.03195375008));
#731 = CARTESIAN_POINT('',(2.5,109.59513354447,-18.61405354056));
#732 = CARTESIAN_POINT('',(2.5,111.20560453727,-16.37101883827));
#733 = CARTESIAN_POINT('',(2.5,112.39363896054,-14.09260257628));
#734 = CARTESIAN_POINT('',(2.5,113.14691600616,-11.79450979531));
#735 = CARTESIAN_POINT('',(2.5,113.39317791893,-9.438163857248));
#736 = CARTESIAN_POINT('',(2.5,113.09560101898,-7.093889054321));
#737 = CARTESIAN_POINT('',(2.5,112.24148005571,-4.764628866581));
#738 = CARTESIAN_POINT('',(2.5,110.80558740417,-2.456901023705));
#739 = PCURVE('',#102,#740);
#740 = DEFINITIONAL_REPRESENTATION('',(#741),#766);
#741 = B_SPLINE_CURVE_WITH_KNOTS('',9,(#742,#743,#744,#745,#746,#747,
    #748,#749,#750,#751,#752,#753,#754,#755,#756,#757,#758,#759,#760,
    #761,#762,#763,#764,#765),.UNSPECIFIED.,.F.,.F.,(10,7,7,10),(0.,0.5,
    0.75,1.),.UNSPECIFIED.);
#742 = CARTESIAN_POINT('',(-0.375,15.));
#743 = CARTESIAN_POINT('',(-0.375,20.578189302651));
#744 = CARTESIAN_POINT('',(0.218010840122,27.404784823466));
#745 = CARTESIAN_POINT('',(1.353964800977,35.241742828994));
#746 = CARTESIAN_POINT('',(2.992924512738,43.830478036587));
#747 = CARTESIAN_POINT('',(5.08954443658,52.918340261757));
#748 = CARTESIAN_POINT('',(7.599085272716,62.252078375514));
#749 = CARTESIAN_POINT('',(10.479619619189,71.574625939141));
#750 = CARTESIAN_POINT('',(15.290074249478,85.161240512909));
#751 = CARTESIAN_POINT('',(20.739165290581,97.579588722065));
#752 = CARTESIAN_POINT('',(22.621121685835,101.55749867633));
#753 = CARTESIAN_POINT('',(24.563421097979,105.34205121103));
#754 = CARTESIAN_POINT('',(26.560854541305,108.90153409781));
#755 = CARTESIAN_POINT('',(28.608306465447,112.20440866283));
#756 = CARTESIAN_POINT('',(30.70093667759,115.21925377331));
#757 = CARTESIAN_POINT('',(34.968046249914,120.60991822219));
#758 = CARTESIAN_POINT('',(39.385946459434,124.59513354447));
#759 = CARTESIAN_POINT('',(41.628981161721,126.20560453727));
#760 = CARTESIAN_POINT('',(43.907397423713,127.39363896054));
#761 = CARTESIAN_POINT('',(46.205490204683,128.14691600616));
#762 = CARTESIAN_POINT('',(48.561836142752,128.39317791893));
#763 = CARTESIAN_POINT('',(50.906110945679,128.09560101898));
#764 = CARTESIAN_POINT('',(53.235371133419,127.24148005571));
#765 = CARTESIAN_POINT('',(55.543098976295,125.80558740417));
#766 = ( GEOMETRIC_REPRESENTATION_CONTEXT(2) 
PARAMETRIC_REPRESENTATION_CONTEXT() REPRESENTATION_CONTEXT('2D SPACE',''
  ) );
#767 = PCURVE('',#127,#768);
#768 = DEFINITIONAL_REPRESENTATION('',(#769),#773);
#769 = LINE('',#770,#771);
#770 = CARTESIAN_POINT('',(5.,0.));
#771 = VECTOR('',#772,1.);
#772 = DIRECTION('',(0.,1.));
#773 = ( GEOMETRIC_REPRESENTATION_CONTEXT(2) 
PARAMETRIC_REPRESENTATION_CONTEXT() REPRESENTATION_CONTEXT('2D SPACE',''
  ) );
#774 = ADVANCED_FACE('',(#775),#224,.F.);
#775 = FACE_BOUND('',#776,.F.);
#776 = EDGE_LOOP('',(#777,#778,#798,#824));
#777 = ORIENTED_EDGE('',*,*,#206,.F.);
#778 = ORIENTED_EDGE('',*,*,#779,.T.);
#779 = EDGE_CURVE('',#187,#780,#782,.T.);
#780 = VERTEX_POINT('',#781);
#781 = CARTESIAN_POINT('',(-2.5,-30.,-57.625));
#782 = SURFACE_CURVE('',#783,(#786,#792),.PCURVE_S1.);
#783 = B_SPLINE_CURVE_WITH_KNOTS('',1,(#784,#785),.UNSPECIFIED.,.F.,.F.,
  (2,2),(0.,5.),.PIECEWISE_BEZIER_KNOTS.);
#784 = CARTESIAN_POINT('',(2.5,-30.,-57.625));
#785 = CARTESIAN_POINT('',(-2.5,-30.,-57.625));
#786 = PCURVE('',#224,#787);
#787 = DEFINITIONAL_REPRESENTATION('',(#788),#791);
#788 = B_SPLINE_CURVE_WITH_KNOTS('',1,(#789,#790),.UNSPECIFIED.,.F.,.F.,
  (2,2),(0.,5.),.PIECEWISE_BEZIER_KNOTS.);
#789 = CARTESIAN_POINT('',(-2.5,-15.));
#790 = CARTESIAN_POINT('',(2.5,-15.));
#791 = ( GEOMETRIC_REPRESENTATION_CONTEXT(2) 
PARAMETRIC_REPRESENTATION_CONTEXT() REPRESENTATION_CONTEXT('2D SPACE',''
  ) );
#792 = PCURVE('',#73,#793);
#793 = DEFINITIONAL_REPRESENTATION('',(#794),#797);
#794 = B_SPLINE_CURVE_WITH_KNOTS('',1,(#795,#796),.UNSPECIFIED.,.F.,.F.,
  (2,2),(0.,5.),.PIECEWISE_BEZIER_KNOTS.);
#795 = CARTESIAN_POINT('',(-0.375,2.5));
#796 = CARTESIAN_POINT('',(-0.375,-2.5));
#797 = ( GEOMETRIC_REPRESENTATION_CONTEXT(2) 
PARAMETRIC_REPRESENTATION_CONTEXT() REPRESENTATION_CONTEXT('2D SPACE',''
  ) );
#798 = ORIENTED_EDGE('',*,*,#799,.T.);
#799 = EDGE_CURVE('',#780,#800,#802,.T.);
#800 = VERTEX_POINT('',#801);
#801 = CARTESIAN_POINT('',(-2.5,3.552713678801E-15,-57.625));
#802 = SURFACE_CURVE('',#803,(#808,#816),.PCURVE_S1.);
#803 = B_SPLINE_CURVE_WITH_KNOTS('',3,(#804,#805,#806,#807),
  .UNSPECIFIED.,.F.,.F.,(4,4),(0.,1.),.PIECEWISE_BEZIER_KNOTS.);
#804 = CARTESIAN_POINT('',(-2.5,-30.,-57.625));
#805 = CARTESIAN_POINT('',(-2.5,-29.9,-57.625));
#806 = CARTESIAN_POINT('',(-2.5,-1.E-01,-57.625));
#807 = CARTESIAN_POINT('',(-2.5,8.881784197001E-15,-57.625));
#808 = PCURVE('',#224,#809);
#809 = DEFINITIONAL_REPRESENTATION('',(#810),#815);
#810 = B_SPLINE_CURVE_WITH_KNOTS('',3,(#811,#812,#813,#814),
  .UNSPECIFIED.,.F.,.F.,(4,4),(0.,1.),.PIECEWISE_BEZIER_KNOTS.);
#811 = CARTESIAN_POINT('',(2.5,-15.));
#812 = CARTESIAN_POINT('',(2.5,-14.9));
#813 = CARTESIAN_POINT('',(2.5,14.9));
#814 = CARTESIAN_POINT('',(2.5,15.));
#815 = ( GEOMETRIC_REPRESENTATION_CONTEXT(2) 
PARAMETRIC_REPRESENTATION_CONTEXT() REPRESENTATION_CONTEXT('2D SPACE',''
  ) );
#816 = PCURVE('',#46,#817);
#817 = DEFINITIONAL_REPRESENTATION('',(#818),#823);
#818 = B_SPLINE_CURVE_WITH_KNOTS('',3,(#819,#820,#821,#822),
  .UNSPECIFIED.,.F.,.F.,(4,4),(0.,1.),.PIECEWISE_BEZIER_KNOTS.);
#819 = CARTESIAN_POINT('',(-0.375,-15.));
#820 = CARTESIAN_POINT('',(-0.375,-14.9));
#821 = CARTESIAN_POINT('',(-0.375,14.9));
#822 = CARTESIAN_POINT('',(-0.375,15.));
#823 = ( GEOMETRIC_REPRESENTATION_CONTEXT(2) 
PARAMETRIC_REPRESENTATION_CONTEXT() REPRESENTATION_CONTEXT('2D SPACE',''
  ) );
#824 = ORIENTED_EDGE('',*,*,#825,.F.);
#825 = EDGE_CURVE('',#207,#800,#826,.T.);
#826 = SURFACE_CURVE('',#827,(#830,#836),.PCURVE_S1.);
#827 = B_SPLINE_CURVE_WITH_KNOTS('',1,(#828,#829),.UNSPECIFIED.,.F.,.F.,
  (2,2),(0.,5.),.PIECEWISE_BEZIER_KNOTS.);
#828 = CARTESIAN_POINT('',(2.5,8.881784197001E-15,-57.625));
#829 = CARTESIAN_POINT('',(-2.5,8.881784197001E-15,-57.625));
#830 = PCURVE('',#224,#831);
#831 = DEFINITIONAL_REPRESENTATION('',(#832),#835);
#832 = B_SPLINE_CURVE_WITH_KNOTS('',1,(#833,#834),.UNSPECIFIED.,.F.,.F.,
  (2,2),(0.,5.),.PIECEWISE_BEZIER_KNOTS.);
#833 = CARTESIAN_POINT('',(-2.5,15.));
#834 = CARTESIAN_POINT('',(2.5,15.));
#835 = ( GEOMETRIC_REPRESENTATION_CONTEXT(2) 
PARAMETRIC_REPRESENTATION_CONTEXT() REPRESENTATION_CONTEXT('2D SPACE',''
  ) );
#836 = PCURVE('',#295,#837);
#837 = DEFINITIONAL_REPRESENTATION('',(#838),#841);
#838 = B_SPLINE_CURVE_WITH_KNOTS('',1,(#839,#840),.UNSPECIFIED.,.F.,.F.,
  (2,2),(0.,5.),.PIECEWISE_BEZIER_KNOTS.);
#839 = CARTESIAN_POINT('',(0.,0.));
#840 = CARTESIAN_POINT('',(5.,0.));
#841 = ( GEOMETRIC_REPRESENTATION_CONTEXT(2) 
PARAMETRIC_REPRESENTATION_CONTEXT() REPRESENTATION_CONTEXT('2D SPACE',''
  ) );
#842 = ADVANCED_FACE('',(#843),#46,.F.);
#843 = FACE_BOUND('',#844,.F.);
#844 = EDGE_LOOP('',(#845,#846,#864,#865,#930,#1007,#1033,#1053,#1079,
    #1156));
#845 = ORIENTED_EDGE('',*,*,#799,.F.);
#846 = ORIENTED_EDGE('',*,*,#847,.T.);
#847 = EDGE_CURVE('',#780,#22,#848,.T.);
#848 = SURFACE_CURVE('',#849,(#852,#858),.PCURVE_S1.);
#849 = B_SPLINE_CURVE_WITH_KNOTS('',1,(#850,#851),.UNSPECIFIED.,.F.,.F.,
  (2,2),(0.,0.75),.PIECEWISE_BEZIER_KNOTS.);
#850 = CARTESIAN_POINT('',(-2.5,-30.,-57.625));
#851 = CARTESIAN_POINT('',(-2.5,-30.,-58.375));
#852 = PCURVE('',#46,#853);
#853 = DEFINITIONAL_REPRESENTATION('',(#854),#857);
#854 = B_SPLINE_CURVE_WITH_KNOTS('',1,(#855,#856),.UNSPECIFIED.,.F.,.F.,
  (2,2),(0.,0.75),.PIECEWISE_BEZIER_KNOTS.);
#855 = CARTESIAN_POINT('',(-0.375,-15.));
#856 = CARTESIAN_POINT('',(0.375,-15.));
#857 = ( GEOMETRIC_REPRESENTATION_CONTEXT(2) 
PARAMETRIC_REPRESENTATION_CONTEXT() REPRESENTATION_CONTEXT('2D SPACE',''
  ) );
#858 = PCURVE('',#73,#859);
#859 = DEFINITIONAL_REPRESENTATION('',(#860),#863);
#860 = B_SPLINE_CURVE_WITH_KNOTS('',1,(#861,#862),.UNSPECIFIED.,.F.,.F.,
  (2,2),(0.,0.75),.PIECEWISE_BEZIER_KNOTS.);
#861 = CARTESIAN_POINT('',(-0.375,-2.5));
#862 = CARTESIAN_POINT('',(0.375,-2.5));
#863 = ( GEOMETRIC_REPRESENTATION_CONTEXT(2) 
PARAMETRIC_REPRESENTATION_CONTEXT() REPRESENTATION_CONTEXT('2D SPACE',''
  ) );
#864 = ORIENTED_EDGE('',*,*,#21,.T.);
#865 = ORIENTED_EDGE('',*,*,#866,.T.);
#866 = EDGE_CURVE('',#24,#867,#869,.T.);
#867 = VERTEX_POINT('',#868);
#868 = CARTESIAN_POINT('',(-2.5,110.80558740417,-2.456901023705));
#869 = SURFACE_CURVE('',#870,(#895,#923),.PCURVE_S1.);
#870 = B_SPLINE_CURVE_WITH_KNOTS('',9,(#871,#872,#873,#874,#875,#876,
    #877,#878,#879,#880,#881,#882,#883,#884,#885,#886,#887,#888,#889,
    #890,#891,#892,#893,#894),.UNSPECIFIED.,.F.,.F.,(10,7,7,10),(0.,0.5,
    0.75,1.),.UNSPECIFIED.);
#871 = CARTESIAN_POINT('',(-2.5,-7.105427357601E-15,-58.375));
#872 = CARTESIAN_POINT('',(-2.5,5.578189302651,-58.375));
#873 = CARTESIAN_POINT('',(-2.5,12.404784823466,-57.78198915987));
#874 = CARTESIAN_POINT('',(-2.5,20.241742828994,-56.64603519902));
#875 = CARTESIAN_POINT('',(-2.5,28.830478036587,-55.00707548726));
#876 = CARTESIAN_POINT('',(-2.5,37.918340261757,-52.91045556342));
#877 = CARTESIAN_POINT('',(-2.5,47.252078375514,-50.40091472728));
#878 = CARTESIAN_POINT('',(-2.5,56.574625939141,-47.52038038081));
#879 = CARTESIAN_POINT('',(-2.5,70.161240512909,-42.70992575052));
#880 = CARTESIAN_POINT('',(-2.5,82.579588722065,-37.26083470941));
#881 = CARTESIAN_POINT('',(-2.5,86.557498676332,-35.37887831416));
#882 = CARTESIAN_POINT('',(-2.5,90.342051211038,-33.43657890202));
#883 = CARTESIAN_POINT('',(-2.5,93.901534097813,-31.43914545869));
#884 = CARTESIAN_POINT('',(-2.5,97.204408662835,-29.39169353455));
#885 = CARTESIAN_POINT('',(-2.5,100.21925377331,-27.29906332241));
#886 = CARTESIAN_POINT('',(-2.5,105.60991822219,-23.03195375008));
#887 = CARTESIAN_POINT('',(-2.5,109.59513354447,-18.61405354056));
#888 = CARTESIAN_POINT('',(-2.5,111.20560453727,-16.37101883827));
#889 = CARTESIAN_POINT('',(-2.5,112.39363896054,-14.09260257628));
#890 = CARTESIAN_POINT('',(-2.5,113.14691600616,-11.79450979531));
#891 = CARTESIAN_POINT('',(-2.5,113.39317791893,-9.438163857248));
#892 = CARTESIAN_POINT('',(-2.5,113.09560101898,-7.093889054321));
#893 = CARTESIAN_POINT('',(-2.5,112.24148005571,-4.764628866581));
#894 = CARTESIAN_POINT('',(-2.5,110.80558740417,-2.456901023705));
#895 = PCURVE('',#46,#896);
#896 = DEFINITIONAL_REPRESENTATION('',(#897),#922);
#897 = B_SPLINE_CURVE_WITH_KNOTS('',9,(#898,#899,#900,#901,#902,#903,
    #904,#905,#906,#907,#908,#909,#910,#911,#912,#913,#914,#915,#916,
    #917,#918,#919,#920,#921),.UNSPECIFIED.,.F.,.F.,(10,7,7,10),(0.,0.5,
    0.75,1.),.UNSPECIFIED.);
#898 = CARTESIAN_POINT('',(0.375,15.));
#899 = CARTESIAN_POINT('',(0.375,20.578189302651));
#900 = CARTESIAN_POINT('',(-0.218010840122,27.404784823466));
#901 = CARTESIAN_POINT('',(-1.353964800977,35.241742828994));
#902 = CARTESIAN_POINT('',(-2.992924512738,43.830478036587));
#903 = CARTESIAN_POINT('',(-5.08954443658,52.918340261757));
#904 = CARTESIAN_POINT('',(-7.599085272716,62.252078375514));
#905 = CARTESIAN_POINT('',(-10.47961961918,71.574625939141));
#906 = CARTESIAN_POINT('',(-15.29007424947,85.161240512909));
#907 = CARTESIAN_POINT('',(-20.73916529058,97.579588722065));
#908 = CARTESIAN_POINT('',(-22.62112168583,101.55749867633));
#909 = CARTESIAN_POINT('',(-24.56342109797,105.34205121103));
#910 = CARTESIAN_POINT('',(-26.5608545413,108.90153409781));
#911 = CARTESIAN_POINT('',(-28.60830646544,112.20440866283));
#912 = CARTESIAN_POINT('',(-30.70093667759,115.21925377331));
#913 = CARTESIAN_POINT('',(-34.96804624991,120.60991822219));
#914 = CARTESIAN_POINT('',(-39.38594645943,124.59513354447));
#915 = CARTESIAN_POINT('',(-41.62898116172,126.20560453727));
#916 = CARTESIAN_POINT('',(-43.90739742371,127.39363896054));
#917 = CARTESIAN_POINT('',(-46.20549020468,128.14691600616));
#918 = CARTESIAN_POINT('',(-48.56183614275,128.39317791893));
#919 = CARTESIAN_POINT('',(-50.90611094567,128.09560101898));
#920 = CARTESIAN_POINT('',(-53.23537113341,127.24148005571));
#921 = CARTESIAN_POINT('',(-55.54309897629,125.80558740417));
#922 = ( GEOMETRIC_REPRESENTATION_CONTEXT(2) 
PARAMETRIC_REPRESENTATION_CONTEXT() REPRESENTATION_CONTEXT('2D SPACE',''
  ) );
#923 = PCURVE('',#127,#924);
#924 = DEFINITIONAL_REPRESENTATION('',(#925),#929);
#925 = LINE('',#926,#927);
#926 = CARTESIAN_POINT('',(0.,0.));
#927 = VECTOR('',#928,1.);
#928 = DIRECTION('',(0.,1.));
#929 = ( GEOMETRIC_REPRESENTATION_CONTEXT(2) 
PARAMETRIC_REPRESENTATION_CONTEXT() REPRESENTATION_CONTEXT('2D SPACE',''
  ) );
#930 = ORIENTED_EDGE('',*,*,#931,.T.);
#931 = EDGE_CURVE('',#867,#932,#934,.T.);
#932 = VERTEX_POINT('',#933);
#933 = CARTESIAN_POINT('',(-2.5,114.,51.625));
#934 = SURFACE_CURVE('',#935,(#966,#1000),.PCURVE_S1.);
#935 = B_SPLINE_CURVE_WITH_KNOTS('',11,(#936,#937,#938,#939,#940,#941,
    #942,#943,#944,#945,#946,#947,#948,#949,#950,#951,#952,#953,#954,
    #955,#956,#957,#958,#959,#960,#961,#962,#963,#964,#965),
  .UNSPECIFIED.,.F.,.F.,(12,9,9,12),(0.,0.174164445098,0.587082222549,1.
    ),.UNSPECIFIED.);
#936 = CARTESIAN_POINT('',(-2.5,110.80558740417,-2.456901023705));
#937 = CARTESIAN_POINT('',(-2.5,110.11820188115,-1.352153598073));
#938 = CARTESIAN_POINT('',(-2.5,109.39945302431,-0.234302649537));
#939 = CARTESIAN_POINT('',(-2.5,108.65266344613,0.895465488396));
#940 = CARTESIAN_POINT('',(-2.5,107.88115615997,2.035946938425));
#941 = CARTESIAN_POINT('',(-2.5,107.08825493119,3.18592228723));
#942 = CARTESIAN_POINT('',(-2.5,106.27728462823,4.34415859334));
#943 = CARTESIAN_POINT('',(-2.5,105.45157157376,5.509411394879));
#944 = CARTESIAN_POINT('',(-2.5,104.61444389572,6.680426717447));
#945 = CARTESIAN_POINT('',(-2.5,103.76923187849,7.855943081874));
#946 = CARTESIAN_POINT('',(-2.5,100.9041321834,11.829333988403));
#947 = CARTESIAN_POINT('',(-2.5,98.022944177333,15.825036561291));
#948 = CARTESIAN_POINT('',(-2.499999999999,96.032881420456,
    18.629222176649));
#949 = CARTESIAN_POINT('',(-2.500000000001,94.124016294499,
    21.410904892474));
#950 = CARTESIAN_POINT('',(-2.499999999998,92.340752092979,
    24.152018406881));
#951 = CARTESIAN_POINT('',(-2.500000000002,90.72740773612,
    26.834430430861));
#952 = CARTESIAN_POINT('',(-2.499999999999,89.328731823866,
    29.440938310923));
#953 = CARTESIAN_POINT('',(-2.5,88.189873240372,31.953797704892));
#954 = CARTESIAN_POINT('',(-2.5,87.355330070153,34.351983646867));
#955 = CARTESIAN_POINT('',(-2.5,86.37798349221,38.870816954048));
#956 = CARTESIAN_POINT('',(-2.5,86.924574287712,42.767473105268));
#957 = CARTESIAN_POINT('',(-2.5,87.613444130777,44.547710678242));
#958 = CARTESIAN_POINT('',(-2.500000000001,88.762607772222,
    46.121557994007));
#959 = CARTESIAN_POINT('',(-2.499999999998,90.329760436254,
    47.602710704499));
#960 = CARTESIAN_POINT('',(-2.500000000002,92.640031053861,
    48.896710516805));
#961 = CARTESIAN_POINT('',(-2.499999999998,95.458720210641,
    49.936883297995));
#962 = CARTESIAN_POINT('',(-2.500000000001,98.998823813024,
    50.768378735631));
#963 = CARTESIAN_POINT('',(-2.5,103.23178565568,51.333018332177));
#964 = CARTESIAN_POINT('',(-2.5,108.21847307272,51.625000000001));
#965 = CARTESIAN_POINT('',(-2.5,114.,51.625));
#966 = PCURVE('',#46,#967);
#967 = DEFINITIONAL_REPRESENTATION('',(#968),#999);
#968 = B_SPLINE_CURVE_WITH_KNOTS('',11,(#969,#970,#971,#972,#973,#974,
    #975,#976,#977,#978,#979,#980,#981,#982,#983,#984,#985,#986,#987,
    #988,#989,#990,#991,#992,#993,#994,#995,#996,#997,#998),
  .UNSPECIFIED.,.F.,.F.,(12,9,9,12),(0.,0.174164445098,0.587082222549,1.
    ),.UNSPECIFIED.);
#969 = CARTESIAN_POINT('',(-55.54309897629,125.80558740417));
#970 = CARTESIAN_POINT('',(-56.64784640192,125.11820188115));
#971 = CARTESIAN_POINT('',(-57.76569735046,124.39945302431));
#972 = CARTESIAN_POINT('',(-58.89546548839,123.65266344613));
#973 = CARTESIAN_POINT('',(-60.03594693842,122.88115615997));
#974 = CARTESIAN_POINT('',(-61.18592228723,122.08825493119));
#975 = CARTESIAN_POINT('',(-62.34415859334,121.27728462823));
#976 = CARTESIAN_POINT('',(-63.50941139487,120.45157157376));
#977 = CARTESIAN_POINT('',(-64.68042671744,119.61444389572));
#978 = CARTESIAN_POINT('',(-65.85594308187,118.76923187849));
#979 = CARTESIAN_POINT('',(-69.8293339884,115.9041321834));
#980 = CARTESIAN_POINT('',(-73.82503656129,113.02294417733));
#981 = CARTESIAN_POINT('',(-76.62922217664,111.03288142045));
#982 = CARTESIAN_POINT('',(-79.41090489247,109.12401629449));
#983 = CARTESIAN_POINT('',(-82.15201840688,107.34075209297));
#984 = CARTESIAN_POINT('',(-84.83443043086,105.72740773612));
#985 = CARTESIAN_POINT('',(-87.44093831092,104.32873182386));
#986 = CARTESIAN_POINT('',(-89.95379770489,103.18987324037));
#987 = CARTESIAN_POINT('',(-92.35198364686,102.35533007015));
#988 = CARTESIAN_POINT('',(-96.87081695404,101.37798349221));
#989 = CARTESIAN_POINT('',(-100.7674731052,101.92457428771));
#990 = CARTESIAN_POINT('',(-102.5477106782,102.61344413077));
#991 = CARTESIAN_POINT('',(-104.121557994,103.76260777222));
#992 = CARTESIAN_POINT('',(-105.6027107044,105.32976043625));
#993 = CARTESIAN_POINT('',(-106.8967105168,107.64003105386));
#994 = CARTESIAN_POINT('',(-107.9368832979,110.45872021064));
#995 = CARTESIAN_POINT('',(-108.7683787356,113.99882381302));
#996 = CARTESIAN_POINT('',(-109.3330183321,118.23178565568));
#997 = CARTESIAN_POINT('',(-109.625,123.21847307272));
#998 = CARTESIAN_POINT('',(-109.625,129.));
#999 = ( GEOMETRIC_REPRESENTATION_CONTEXT(2) 
PARAMETRIC_REPRESENTATION_CONTEXT() REPRESENTATION_CONTEXT('2D SPACE',''
  ) );
#1000 = PCURVE('',#644,#1001);
#1001 = DEFINITIONAL_REPRESENTATION('',(#1002),#1006);
#1002 = LINE('',#1003,#1004);
#1003 = CARTESIAN_POINT('',(0.,0.));
#1004 = VECTOR('',#1005,1.);
#1005 = DIRECTION('',(0.,1.));
#1006 = ( GEOMETRIC_REPRESENTATION_CONTEXT(2) 
PARAMETRIC_REPRESENTATION_CONTEXT() REPRESENTATION_CONTEXT('2D SPACE',''
  ) );
#1007 = ORIENTED_EDGE('',*,*,#1008,.T.);
#1008 = EDGE_CURVE('',#932,#1009,#1011,.T.);
#1009 = VERTEX_POINT('',#1010);
#1010 = CARTESIAN_POINT('',(-2.5,129.,51.625));
#1011 = SURFACE_CURVE('',#1012,(#1017,#1025),.PCURVE_S1.);
#1012 = B_SPLINE_CURVE_WITH_KNOTS('',3,(#1013,#1014,#1015,#1016),
  .UNSPECIFIED.,.F.,.F.,(4,4),(0.,1.),.PIECEWISE_BEZIER_KNOTS.);
#1013 = CARTESIAN_POINT('',(-2.5,114.,51.625));
#1014 = CARTESIAN_POINT('',(-2.5,114.1,51.625));
#1015 = CARTESIAN_POINT('',(-2.5,128.9,51.625));
#1016 = CARTESIAN_POINT('',(-2.5,129.,51.625));
#1017 = PCURVE('',#46,#1018);
#1018 = DEFINITIONAL_REPRESENTATION('',(#1019),#1024);
#1019 = B_SPLINE_CURVE_WITH_KNOTS('',3,(#1020,#1021,#1022,#1023),
  .UNSPECIFIED.,.F.,.F.,(4,4),(0.,1.),.PIECEWISE_BEZIER_KNOTS.);
#1020 = CARTESIAN_POINT('',(-109.625,129.));
#1021 = CARTESIAN_POINT('',(-109.625,129.1));
#1022 = CARTESIAN_POINT('',(-109.625,143.9));
#1023 = CARTESIAN_POINT('',(-109.625,144.));
#1024 = ( GEOMETRIC_REPRESENTATION_CONTEXT(2) 
PARAMETRIC_REPRESENTATION_CONTEXT() REPRESENTATION_CONTEXT('2D SPACE',''
  ) );
#1025 = PCURVE('',#561,#1026);
#1026 = DEFINITIONAL_REPRESENTATION('',(#1027),#1032);
#1027 = B_SPLINE_CURVE_WITH_KNOTS('',3,(#1028,#1029,#1030,#1031),
  .UNSPECIFIED.,.F.,.F.,(4,4),(0.,1.),.PIECEWISE_BEZIER_KNOTS.);
#1028 = CARTESIAN_POINT('',(-2.5,-7.5));
#1029 = CARTESIAN_POINT('',(-2.5,-7.4));
#1030 = CARTESIAN_POINT('',(-2.5,7.4));
#1031 = CARTESIAN_POINT('',(-2.5,7.5));
#1032 = ( GEOMETRIC_REPRESENTATION_CONTEXT(2) 
PARAMETRIC_REPRESENTATION_CONTEXT() REPRESENTATION_CONTEXT('2D SPACE',''
  ) );
#1033 = ORIENTED_EDGE('',*,*,#1034,.F.);
#1034 = EDGE_CURVE('',#1035,#1009,#1037,.T.);
#1035 = VERTEX_POINT('',#1036);
#1036 = CARTESIAN_POINT('',(-2.5,129.,52.375));
#1037 = SURFACE_CURVE('',#1038,(#1041,#1047),.PCURVE_S1.);
#1038 = B_SPLINE_CURVE_WITH_KNOTS('',1,(#1039,#1040),.UNSPECIFIED.,.F.,
  .F.,(2,2),(0.,0.75),.PIECEWISE_BEZIER_KNOTS.);
#1039 = CARTESIAN_POINT('',(-2.5,129.,52.375));
#1040 = CARTESIAN_POINT('',(-2.5,129.,51.625));
#1041 = PCURVE('',#46,#1042);
#1042 = DEFINITIONAL_REPRESENTATION('',(#1043),#1046);
#1043 = B_SPLINE_CURVE_WITH_KNOTS('',1,(#1044,#1045),.UNSPECIFIED.,.F.,
  .F.,(2,2),(0.,0.75),.PIECEWISE_BEZIER_KNOTS.);
#1044 = CARTESIAN_POINT('',(-110.375,144.));
#1045 = CARTESIAN_POINT('',(-109.625,144.));
#1046 = ( GEOMETRIC_REPRESENTATION_CONTEXT(2) 
PARAMETRIC_REPRESENTATION_CONTEXT() REPRESENTATION_CONTEXT('2D SPACE',''
  ) );
#1047 = PCURVE('',#532,#1048);
#1048 = DEFINITIONAL_REPRESENTATION('',(#1049),#1052);
#1049 = B_SPLINE_CURVE_WITH_KNOTS('',1,(#1050,#1051),.UNSPECIFIED.,.F.,
  .F.,(2,2),(0.,0.75),.PIECEWISE_BEZIER_KNOTS.);
#1050 = CARTESIAN_POINT('',(-0.375,-2.5));
#1051 = CARTESIAN_POINT('',(0.375,-2.5));
#1052 = ( GEOMETRIC_REPRESENTATION_CONTEXT(2) 
PARAMETRIC_REPRESENTATION_CONTEXT() REPRESENTATION_CONTEXT('2D SPACE',''
  ) );
#1053 = ORIENTED_EDGE('',*,*,#1054,.F.);
#1054 = EDGE_CURVE('',#1055,#1035,#1057,.T.);
#1055 = VERTEX_POINT('',#1056);
#1056 = CARTESIAN_POINT('',(-2.5,114.,52.375));
#1057 = SURFACE_CURVE('',#1058,(#1063,#1071),.PCURVE_S1.);
#1058 = B_SPLINE_CURVE_WITH_KNOTS('',3,(#1059,#1060,#1061,#1062),
  .UNSPECIFIED.,.F.,.F.,(4,4),(0.,1.),.PIECEWISE_BEZIER_KNOTS.);
#1059 = CARTESIAN_POINT('',(-2.5,114.,52.375));
#1060 = CARTESIAN_POINT('',(-2.5,114.1,52.375));
#1061 = CARTESIAN_POINT('',(-2.5,128.9,52.375));
#1062 = CARTESIAN_POINT('',(-2.5,129.,52.375));
#1063 = PCURVE('',#46,#1064);
#1064 = DEFINITIONAL_REPRESENTATION('',(#1065),#1070);
#1065 = B_SPLINE_CURVE_WITH_KNOTS('',3,(#1066,#1067,#1068,#1069),
  .UNSPECIFIED.,.F.,.F.,(4,4),(0.,1.),.PIECEWISE_BEZIER_KNOTS.);
#1066 = CARTESIAN_POINT('',(-110.375,129.));
#1067 = CARTESIAN_POINT('',(-110.375,129.1));
#1068 = CARTESIAN_POINT('',(-110.375,143.9));
#1069 = CARTESIAN_POINT('',(-110.375,144.));
#1070 = ( GEOMETRIC_REPRESENTATION_CONTEXT(2) 
PARAMETRIC_REPRESENTATION_CONTEXT() REPRESENTATION_CONTEXT('2D SPACE',''
  ) );
#1071 = PCURVE('',#505,#1072);
#1072 = DEFINITIONAL_REPRESENTATION('',(#1073),#1078);
#1073 = B_SPLINE_CURVE_WITH_KNOTS('',3,(#1074,#1075,#1076,#1077),
  .UNSPECIFIED.,.F.,.F.,(4,4),(0.,1.),.PIECEWISE_BEZIER_KNOTS.);
#1074 = CARTESIAN_POINT('',(2.5,-7.5));
#1075 = CARTESIAN_POINT('',(2.5,-7.4));
#1076 = CARTESIAN_POINT('',(2.5,7.4));
#1077 = CARTESIAN_POINT('',(2.5,7.5));
#1078 = ( GEOMETRIC_REPRESENTATION_CONTEXT(2) 
PARAMETRIC_REPRESENTATION_CONTEXT() REPRESENTATION_CONTEXT('2D SPACE',''
  ) );
#1079 = ORIENTED_EDGE('',*,*,#1080,.F.);
#1080 = EDGE_CURVE('',#1081,#1055,#1083,.T.);
#1081 = VERTEX_POINT('',#1082);
#1082 = CARTESIAN_POINT('',(-2.5,110.16879162241,-2.853122088676));
#1083 = SURFACE_CURVE('',#1084,(#1115,#1149),.PCURVE_S1.);
#1084 = B_SPLINE_CURVE_WITH_KNOTS('',11,(#1085,#1086,#1087,#1088,#1089,
    #1090,#1091,#1092,#1093,#1094,#1095,#1096,#1097,#1098,#1099,#1100,
    #1101,#1102,#1103,#1104,#1105,#1106,#1107,#1108,#1109,#1110,#1111,
    #1112,#1113,#1114),.UNSPECIFIED.,.F.,.F.,(12,9,9,12),(0.,
    0.174164445098,0.587082222549,1.),.UNSPECIFIED.);
#1085 = CARTESIAN_POINT('',(-2.5,110.16879162241,-2.853122088676));
#1086 = CARTESIAN_POINT('',(-2.5,109.48686164609,-1.757142670198));
#1087 = CARTESIAN_POINT('',(-2.5,108.77292156348,-0.646724193986));
#1088 = CARTESIAN_POINT('',(-2.5,108.03032189486,0.476770238152));
#1089 = CARTESIAN_POINT('',(-2.5,107.26241275988,1.611995068216));
#1090 = CARTESIAN_POINT('',(-2.5,106.47254352577,2.757620274204));
#1091 = CARTESIAN_POINT('',(-2.5,105.66406245727,3.912329362292));
#1092 = CARTESIAN_POINT('',(-2.5,104.84031636423,5.074817359032));
#1093 = CARTESIAN_POINT('',(-2.5,104.0046502518,6.243788803526));
#1094 = CARTESIAN_POINT('',(-2.5,103.16040696829,7.417955739626));
#1095 = CARTESIAN_POINT('',(-2.5,100.29693691389,11.389086620262));
#1096 = CARTESIAN_POINT('',(-2.5,97.411885274177,15.390147375573));
#1097 = CARTESIAN_POINT('',(-2.499999999999,95.416621212852,
    18.202265050399));
#1098 = CARTESIAN_POINT('',(-2.500000000001,93.499382192087,
    20.994779269755));
#1099 = CARTESIAN_POINT('',(-2.499999999998,91.704693632646,
    23.751781587981));
#1100 = CARTESIAN_POINT('',(-2.500000000002,90.077165328237,
    26.457429546524));
#1101 = CARTESIAN_POINT('',(-2.499999999999,88.660977393244,
    29.09495105133));
#1102 = CARTESIAN_POINT('',(-2.5,87.499909657456,31.648115697007));
#1103 = CARTESIAN_POINT('',(-2.5,86.638392750622,34.103973701919));
#1104 = CARTESIAN_POINT('',(-2.5,85.609209087006,38.801318607857));
#1105 = CARTESIAN_POINT('',(-2.5,86.182982731675,43.001122318262));
#1106 = CARTESIAN_POINT('',(-2.5,86.924947493196,44.955210340647));
#1107 = CARTESIAN_POINT('',(-2.500000000001,88.166199555169,
    46.767809537332));
#1108 = CARTESIAN_POINT('',(-2.499999999998,90.037972407059,
    48.291249508607));
#1109 = CARTESIAN_POINT('',(-2.500000000002,92.304065832718,
    49.586013800179));
#1110 = CARTESIAN_POINT('',(-2.499999999998,95.288107959822,
    50.684801797007));
#1111 = CARTESIAN_POINT('',(-2.500000000001,98.866031596863,
    51.508489064368));
#1112 = CARTESIAN_POINT('',(-2.5,103.1553216627,52.08127935195));
#1113 = CARTESIAN_POINT('',(-2.5,108.18403953771,52.375000000002));
#1114 = CARTESIAN_POINT('',(-2.5,114.,52.375));
#1115 = PCURVE('',#46,#1116);
#1116 = DEFINITIONAL_REPRESENTATION('',(#1117),#1148);
#1117 = B_SPLINE_CURVE_WITH_KNOTS('',11,(#1118,#1119,#1120,#1121,#1122,
    #1123,#1124,#1125,#1126,#1127,#1128,#1129,#1130,#1131,#1132,#1133,
    #1134,#1135,#1136,#1137,#1138,#1139,#1140,#1141,#1142,#1143,#1144,
    #1145,#1146,#1147),.UNSPECIFIED.,.F.,.F.,(12,9,9,12),(0.,
    0.174164445098,0.587082222549,1.),.UNSPECIFIED.);
#1118 = CARTESIAN_POINT('',(-55.14687791132,125.16879162241));
#1119 = CARTESIAN_POINT('',(-56.2428573298,124.48686164609));
#1120 = CARTESIAN_POINT('',(-57.35327580601,123.77292156348));
#1121 = CARTESIAN_POINT('',(-58.47677023815,123.03032189486));
#1122 = CARTESIAN_POINT('',(-59.61199506821,122.26241275988));
#1123 = CARTESIAN_POINT('',(-60.7576202742,121.47254352577));
#1124 = CARTESIAN_POINT('',(-61.91232936229,120.66406245727));
#1125 = CARTESIAN_POINT('',(-63.07481735903,119.84031636423));
#1126 = CARTESIAN_POINT('',(-64.24378880352,119.0046502518));
#1127 = CARTESIAN_POINT('',(-65.41795573962,118.16040696829));
#1128 = CARTESIAN_POINT('',(-69.38908662026,115.29693691389));
#1129 = CARTESIAN_POINT('',(-73.39014737557,112.41188527417));
#1130 = CARTESIAN_POINT('',(-76.20226505039,110.41662121285));
#1131 = CARTESIAN_POINT('',(-78.99477926975,108.49938219208));
#1132 = CARTESIAN_POINT('',(-81.75178158798,106.70469363264));
#1133 = CARTESIAN_POINT('',(-84.45742954652,105.07716532823));
#1134 = CARTESIAN_POINT('',(-87.09495105133,103.66097739324));
#1135 = CARTESIAN_POINT('',(-89.648115697,102.49990965745));
#1136 = CARTESIAN_POINT('',(-92.10397370191,101.63839275062));
#1137 = CARTESIAN_POINT('',(-96.80131860785,100.609209087));
#1138 = CARTESIAN_POINT('',(-101.0011223182,101.18298273167));
#1139 = CARTESIAN_POINT('',(-102.9552103406,101.92494749319));
#1140 = CARTESIAN_POINT('',(-104.7678095373,103.16619955516));
#1141 = CARTESIAN_POINT('',(-106.2912495086,105.03797240705));
#1142 = CARTESIAN_POINT('',(-107.5860138001,107.30406583271));
#1143 = CARTESIAN_POINT('',(-108.684801797,110.28810795982));
#1144 = CARTESIAN_POINT('',(-109.5084890643,113.86603159686));
#1145 = CARTESIAN_POINT('',(-110.0812793519,118.1553216627));
#1146 = CARTESIAN_POINT('',(-110.375,123.18403953771));
#1147 = CARTESIAN_POINT('',(-110.375,129.));
#1148 = ( GEOMETRIC_REPRESENTATION_CONTEXT(2) 
PARAMETRIC_REPRESENTATION_CONTEXT() REPRESENTATION_CONTEXT('2D SPACE',''
  ) );
#1149 = PCURVE('',#420,#1150);
#1150 = DEFINITIONAL_REPRESENTATION('',(#1151),#1155);
#1151 = LINE('',#1152,#1153);
#1152 = CARTESIAN_POINT('',(5.,0.));
#1153 = VECTOR('',#1154,1.);
#1154 = DIRECTION('',(0.,1.));
#1155 = ( GEOMETRIC_REPRESENTATION_CONTEXT(2) 
PARAMETRIC_REPRESENTATION_CONTEXT() REPRESENTATION_CONTEXT('2D SPACE',''
  ) );
#1156 = ORIENTED_EDGE('',*,*,#1157,.F.);
#1157 = EDGE_CURVE('',#800,#1081,#1158,.T.);
#1158 = SURFACE_CURVE('',#1159,(#1184,#1212),.PCURVE_S1.);
#1159 = B_SPLINE_CURVE_WITH_KNOTS('',9,(#1160,#1161,#1162,#1163,#1164,
    #1165,#1166,#1167,#1168,#1169,#1170,#1171,#1172,#1173,#1174,#1175,
    #1176,#1177,#1178,#1179,#1180,#1181,#1182,#1183),.UNSPECIFIED.,.F.,
  .F.,(10,7,7,10),(0.,0.5,0.75,1.),.UNSPECIFIED.);
#1160 = CARTESIAN_POINT('',(-2.5,-7.105427357601E-15,-57.625));
#1161 = CARTESIAN_POINT('',(-2.5,5.507316741927,-57.62499999999));
#1162 = CARTESIAN_POINT('',(-2.5,12.300059593811,-57.03952353967));
#1163 = CARTESIAN_POINT('',(-2.5,20.105205942327,-55.90631866505));
#1164 = CARTESIAN_POINT('',(-2.5,28.670274723383,-54.2732637718));
#1165 = CARTESIAN_POINT('',(-2.5,37.736849774677,-52.18282908648));
#1166 = CARTESIAN_POINT('',(-2.5,47.047115878458,-49.67809107479));
#1167 = CARTESIAN_POINT('',(-2.5,56.347073126669,-46.80493810019));
#1168 = CARTESIAN_POINT('',(-2.5,69.895367141967,-42.00747268718));
#1169 = CARTESIAN_POINT('',(-2.5,82.263755298624,-36.58014556469));
#1170 = CARTESIAN_POINT('',(-2.5,86.223299481476,-34.70666197383));
#1171 = CARTESIAN_POINT('',(-2.5,89.987526472394,-32.77453110564));
#1172 = CARTESIAN_POINT('',(-2.5,93.524265206401,-30.78952094509));
#1173 = CARTESIAN_POINT('',(-2.5,96.80117106397,-28.75749291248));
#1174 = CARTESIAN_POINT('',(-2.5,99.785781884556,-26.68458378569));
#1175 = CARTESIAN_POINT('',(-2.5,105.10561372803,-22.47044985713));
#1176 = CARTESIAN_POINT('',(-2.5,108.99853038522,-18.15068480246));
#1177 = CARTESIAN_POINT('',(-2.5,110.5551510106,-15.9717584025));
#1178 = CARTESIAN_POINT('',(-2.5,111.69835054057,-13.78606206279));
#1179 = CARTESIAN_POINT('',(-2.5,112.37656648996,-11.58886771327));
#1180 = CARTESIAN_POINT('',(-2.5,112.59817332056,-9.429728962747));
#1181 = CARTESIAN_POINT('',(-2.5,112.33611141896,-7.249298489652));
#1182 = CARTESIAN_POINT('',(-2.5,111.53920274237,-5.055609784628));
#1183 = CARTESIAN_POINT('',(-2.5,110.16879162241,-2.853122088676));
#1184 = PCURVE('',#46,#1185);
#1185 = DEFINITIONAL_REPRESENTATION('',(#1186),#1211);
#1186 = B_SPLINE_CURVE_WITH_KNOTS('',9,(#1187,#1188,#1189,#1190,#1191,
    #1192,#1193,#1194,#1195,#1196,#1197,#1198,#1199,#1200,#1201,#1202,
    #1203,#1204,#1205,#1206,#1207,#1208,#1209,#1210),.UNSPECIFIED.,.F.,
  .F.,(10,7,7,10),(0.,0.5,0.75,1.),.UNSPECIFIED.);
#1187 = CARTESIAN_POINT('',(-0.375,15.));
#1188 = CARTESIAN_POINT('',(-0.375000000001,20.507316741927));
#1189 = CARTESIAN_POINT('',(-0.960476460326,27.300059593811));
#1190 = CARTESIAN_POINT('',(-2.093681334943,35.105205942327));
#1191 = CARTESIAN_POINT('',(-3.726736228193,43.670274723383));
#1192 = CARTESIAN_POINT('',(-5.817170913518,52.736849774677));
#1193 = CARTESIAN_POINT('',(-8.321908925203,62.047115878458));
#1194 = CARTESIAN_POINT('',(-11.1950618998,71.347073126669));
#1195 = CARTESIAN_POINT('',(-15.99252731281,84.895367141967));
#1196 = CARTESIAN_POINT('',(-21.41985443531,97.263755298624));
#1197 = CARTESIAN_POINT('',(-23.29333802616,101.22329948147));
#1198 = CARTESIAN_POINT('',(-25.22546889435,104.98752647239));
#1199 = CARTESIAN_POINT('',(-27.2104790549,108.5242652064));
#1200 = CARTESIAN_POINT('',(-29.24250708751,111.80117106397));
#1201 = CARTESIAN_POINT('',(-31.3154162143,114.78578188455));
#1202 = CARTESIAN_POINT('',(-35.52955014287,120.10561372803));
#1203 = CARTESIAN_POINT('',(-39.84931519753,123.99853038522));
#1204 = CARTESIAN_POINT('',(-42.02824159749,125.5551510106));
#1205 = CARTESIAN_POINT('',(-44.2139379372,126.69835054057));
#1206 = CARTESIAN_POINT('',(-46.41113228672,127.37656648996));
#1207 = CARTESIAN_POINT('',(-48.57027103725,127.59817332056));
#1208 = CARTESIAN_POINT('',(-50.75070151034,127.33611141896));
#1209 = CARTESIAN_POINT('',(-52.94439021537,126.53920274237));
#1210 = CARTESIAN_POINT('',(-55.14687791132,125.16879162241));
#1211 = ( GEOMETRIC_REPRESENTATION_CONTEXT(2) 
PARAMETRIC_REPRESENTATION_CONTEXT() REPRESENTATION_CONTEXT('2D SPACE',''
  ) );
#1212 = PCURVE('',#295,#1213);
#1213 = DEFINITIONAL_REPRESENTATION('',(#1214),#1218);
#1214 = LINE('',#1215,#1216);
#1215 = CARTESIAN_POINT('',(5.,0.));
#1216 = VECTOR('',#1217,1.);
#1217 = DIRECTION('',(0.,1.));
#1218 = ( GEOMETRIC_REPRESENTATION_CONTEXT(2) 
PARAMETRIC_REPRESENTATION_CONTEXT() REPRESENTATION_CONTEXT('2D SPACE',''
  ) );
#1219 = ADVANCED_FACE('',(#1220),#127,.F.);
#1220 = FACE_BOUND('',#1221,.F.);
#1221 = EDGE_LOOP('',(#1222,#1223,#1224,#1225));
#1222 = ORIENTED_EDGE('',*,*,#866,.F.);
#1223 = ORIENTED_EDGE('',*,*,#115,.T.);
#1224 = ORIENTED_EDGE('',*,*,#712,.T.);
#1225 = ORIENTED_EDGE('',*,*,#1226,.F.);
#1226 = EDGE_CURVE('',#867,#575,#1227,.T.);
#1227 = SURFACE_CURVE('',#1228,(#1231,#1238),.PCURVE_S1.);
#1228 = B_SPLINE_CURVE_WITH_KNOTS('',1,(#1229,#1230),.UNSPECIFIED.,.F.,
  .F.,(2,2),(0.,5.),.PIECEWISE_BEZIER_KNOTS.);
#1229 = CARTESIAN_POINT('',(-2.5,110.80558740417,-2.456901023705));
#1230 = CARTESIAN_POINT('',(2.5,110.80558740417,-2.456901023705));
#1231 = PCURVE('',#127,#1232);
#1232 = DEFINITIONAL_REPRESENTATION('',(#1233),#1237);
#1233 = LINE('',#1234,#1235);
#1234 = CARTESIAN_POINT('',(0.,1.));
#1235 = VECTOR('',#1236,1.);
#1236 = DIRECTION('',(1.,0.));
#1237 = ( GEOMETRIC_REPRESENTATION_CONTEXT(2) 
PARAMETRIC_REPRESENTATION_CONTEXT() REPRESENTATION_CONTEXT('2D SPACE',''
  ) );
#1238 = PCURVE('',#644,#1239);
#1239 = DEFINITIONAL_REPRESENTATION('',(#1240),#1243);
#1240 = B_SPLINE_CURVE_WITH_KNOTS('',1,(#1241,#1242),.UNSPECIFIED.,.F.,
  .F.,(2,2),(0.,5.),.PIECEWISE_BEZIER_KNOTS.);
#1241 = CARTESIAN_POINT('',(0.,0.));
#1242 = CARTESIAN_POINT('',(5.,0.));
#1243 = ( GEOMETRIC_REPRESENTATION_CONTEXT(2) 
PARAMETRIC_REPRESENTATION_CONTEXT() REPRESENTATION_CONTEXT('2D SPACE',''
  ) );
#1244 = ADVANCED_FACE('',(#1245),#295,.F.);
#1245 = FACE_BOUND('',#1246,.F.);
#1246 = EDGE_LOOP('',(#1247,#1248,#1249,#1250));
#1247 = ORIENTED_EDGE('',*,*,#237,.F.);
#1248 = ORIENTED_EDGE('',*,*,#825,.T.);
#1249 = ORIENTED_EDGE('',*,*,#1157,.T.);
#1250 = ORIENTED_EDGE('',*,*,#1251,.F.);
#1251 = EDGE_CURVE('',#238,#1081,#1252,.T.);
#1252 = SURFACE_CURVE('',#1253,(#1256,#1263),.PCURVE_S1.);
#1253 = B_SPLINE_CURVE_WITH_KNOTS('',1,(#1254,#1255),.UNSPECIFIED.,.F.,
  .F.,(2,2),(0.,5.),.PIECEWISE_BEZIER_KNOTS.);
#1254 = CARTESIAN_POINT('',(2.5,110.16879162241,-2.853122088676));
#1255 = CARTESIAN_POINT('',(-2.5,110.16879162241,-2.853122088676));
#1256 = PCURVE('',#295,#1257);
#1257 = DEFINITIONAL_REPRESENTATION('',(#1258),#1262);
#1258 = LINE('',#1259,#1260);
#1259 = CARTESIAN_POINT('',(0.,1.));
#1260 = VECTOR('',#1261,1.);
#1261 = DIRECTION('',(1.,0.));
#1262 = ( GEOMETRIC_REPRESENTATION_CONTEXT(2) 
PARAMETRIC_REPRESENTATION_CONTEXT() REPRESENTATION_CONTEXT('2D SPACE',''
  ) );
#1263 = PCURVE('',#420,#1264);
#1264 = DEFINITIONAL_REPRESENTATION('',(#1265),#1268);
#1265 = B_SPLINE_CURVE_WITH_KNOTS('',1,(#1266,#1267),.UNSPECIFIED.,.F.,
  .F.,(2,2),(0.,5.),.PIECEWISE_BEZIER_KNOTS.);
#1266 = CARTESIAN_POINT('',(0.,0.));
#1267 = CARTESIAN_POINT('',(5.,0.));
#1268 = ( GEOMETRIC_REPRESENTATION_CONTEXT(2) 
PARAMETRIC_REPRESENTATION_CONTEXT() REPRESENTATION_CONTEXT('2D SPACE',''
  ) );
#1269 = ADVANCED_FACE('',(#1270),#644,.F.);
#1270 = FACE_BOUND('',#1271,.F.);
#1271 = EDGE_LOOP('',(#1272,#1273,#1274,#1275));
#1272 = ORIENTED_EDGE('',*,*,#931,.F.);
#1273 = ORIENTED_EDGE('',*,*,#1226,.T.);
#1274 = ORIENTED_EDGE('',*,*,#574,.T.);
#1275 = ORIENTED_EDGE('',*,*,#1276,.F.);
#1276 = EDGE_CURVE('',#932,#544,#1277,.T.);
#1277 = SURFACE_CURVE('',#1278,(#1281,#1288),.PCURVE_S1.);
#1278 = B_SPLINE_CURVE_WITH_KNOTS('',1,(#1279,#1280),.UNSPECIFIED.,.F.,
  .F.,(2,2),(0.,5.),.PIECEWISE_BEZIER_KNOTS.);
#1279 = CARTESIAN_POINT('',(-2.5,114.,51.625));
#1280 = CARTESIAN_POINT('',(2.5,114.,51.625));
#1281 = PCURVE('',#644,#1282);
#1282 = DEFINITIONAL_REPRESENTATION('',(#1283),#1287);
#1283 = LINE('',#1284,#1285);
#1284 = CARTESIAN_POINT('',(0.,1.));
#1285 = VECTOR('',#1286,1.);
#1286 = DIRECTION('',(1.,0.));
#1287 = ( GEOMETRIC_REPRESENTATION_CONTEXT(2) 
PARAMETRIC_REPRESENTATION_CONTEXT() REPRESENTATION_CONTEXT('2D SPACE',''
  ) );
#1288 = PCURVE('',#561,#1289);
#1289 = DEFINITIONAL_REPRESENTATION('',(#1290),#1293);
#1290 = B_SPLINE_CURVE_WITH_KNOTS('',1,(#1291,#1292),.UNSPECIFIED.,.F.,
  .F.,(2,2),(0.,5.),.PIECEWISE_BEZIER_KNOTS.);
#1291 = CARTESIAN_POINT('',(-2.5,-7.5));
#1292 = CARTESIAN_POINT('',(2.5,-7.5));
#1293 = ( GEOMETRIC_REPRESENTATION_CONTEXT(2) 
PARAMETRIC_REPRESENTATION_CONTEXT() REPRESENTATION_CONTEXT('2D SPACE',''
  ) );
#1294 = ADVANCED_FACE('',(#1295),#420,.F.);
#1295 = FACE_BOUND('',#1296,.F.);
#1296 = EDGE_LOOP('',(#1297,#1298,#1299,#1300));
#1297 = ORIENTED_EDGE('',*,*,#350,.F.);
#1298 = ORIENTED_EDGE('',*,*,#1251,.T.);
#1299 = ORIENTED_EDGE('',*,*,#1080,.T.);
#1300 = ORIENTED_EDGE('',*,*,#1301,.F.);
#1301 = EDGE_CURVE('',#351,#1055,#1302,.T.);
#1302 = SURFACE_CURVE('',#1303,(#1306,#1313),.PCURVE_S1.);
#1303 = B_SPLINE_CURVE_WITH_KNOTS('',1,(#1304,#1305),.UNSPECIFIED.,.F.,
  .F.,(2,2),(0.,5.),.PIECEWISE_BEZIER_KNOTS.);
#1304 = CARTESIAN_POINT('',(2.5,114.,52.375));
#1305 = CARTESIAN_POINT('',(-2.5,114.,52.375));
#1306 = PCURVE('',#420,#1307);
#1307 = DEFINITIONAL_REPRESENTATION('',(#1308),#1312);
#1308 = LINE('',#1309,#1310);
#1309 = CARTESIAN_POINT('',(0.,1.));
#1310 = VECTOR('',#1311,1.);
#1311 = DIRECTION('',(1.,0.));
#1312 = ( GEOMETRIC_REPRESENTATION_CONTEXT(2) 
PARAMETRIC_REPRESENTATION_CONTEXT() REPRESENTATION_CONTEXT('2D SPACE',''
  ) );
#1313 = PCURVE('',#505,#1314);
#1314 = DEFINITIONAL_REPRESENTATION('',(#1315),#1318);
#1315 = B_SPLINE_CURVE_WITH_KNOTS('',1,(#1316,#1317),.UNSPECIFIED.,.F.,
  .F.,(2,2),(0.,5.),.PIECEWISE_BEZIER_KNOTS.);
#1316 = CARTESIAN_POINT('',(-2.5,-7.5));
#1317 = CARTESIAN_POINT('',(2.5,-7.5));
#1318 = ( GEOMETRIC_REPRESENTATION_CONTEXT(2) 
PARAMETRIC_REPRESENTATION_CONTEXT() REPRESENTATION_CONTEXT('2D SPACE',''
  ) );
#1319 = ADVANCED_FACE('',(#1320),#561,.F.);
#1320 = FACE_BOUND('',#1321,.F.);
#1321 = EDGE_LOOP('',(#1322,#1323,#1324,#1325));
#1322 = ORIENTED_EDGE('',*,*,#1008,.F.);
#1323 = ORIENTED_EDGE('',*,*,#1276,.T.);
#1324 = ORIENTED_EDGE('',*,*,#543,.T.);
#1325 = ORIENTED_EDGE('',*,*,#1326,.F.);
#1326 = EDGE_CURVE('',#1009,#519,#1327,.T.);
#1327 = SURFACE_CURVE('',#1328,(#1331,#1337),.PCURVE_S1.);
#1328 = B_SPLINE_CURVE_WITH_KNOTS('',1,(#1329,#1330),.UNSPECIFIED.,.F.,
  .F.,(2,2),(0.,5.),.PIECEWISE_BEZIER_KNOTS.);
#1329 = CARTESIAN_POINT('',(-2.5,129.,51.625));
#1330 = CARTESIAN_POINT('',(2.5,129.,51.625));
#1331 = PCURVE('',#561,#1332);
#1332 = DEFINITIONAL_REPRESENTATION('',(#1333),#1336);
#1333 = B_SPLINE_CURVE_WITH_KNOTS('',1,(#1334,#1335),.UNSPECIFIED.,.F.,
  .F.,(2,2),(0.,5.),.PIECEWISE_BEZIER_KNOTS.);
#1334 = CARTESIAN_POINT('',(-2.5,7.5));
#1335 = CARTESIAN_POINT('',(2.5,7.5));
#1336 = ( GEOMETRIC_REPRESENTATION_CONTEXT(2) 
PARAMETRIC_REPRESENTATION_CONTEXT() REPRESENTATION_CONTEXT('2D SPACE',''
  ) );
#1337 = PCURVE('',#532,#1338);
#1338 = DEFINITIONAL_REPRESENTATION('',(#1339),#1342);
#1339 = B_SPLINE_CURVE_WITH_KNOTS('',1,(#1340,#1341),.UNSPECIFIED.,.F.,
  .F.,(2,2),(0.,5.),.PIECEWISE_BEZIER_KNOTS.);
#1340 = CARTESIAN_POINT('',(0.375,-2.5));
#1341 = CARTESIAN_POINT('',(0.375,2.5));
#1342 = ( GEOMETRIC_REPRESENTATION_CONTEXT(2) 
PARAMETRIC_REPRESENTATION_CONTEXT() REPRESENTATION_CONTEXT('2D SPACE',''
  ) );
#1343 = ADVANCED_FACE('',(#1344),#505,.F.);
#1344 = FACE_BOUND('',#1345,.F.);
#1345 = EDGE_LOOP('',(#1346,#1347,#1348,#1349));
#1346 = ORIENTED_EDGE('',*,*,#487,.F.);
#1347 = ORIENTED_EDGE('',*,*,#1301,.T.);
#1348 = ORIENTED_EDGE('',*,*,#1054,.T.);
#1349 = ORIENTED_EDGE('',*,*,#1350,.F.);
#1350 = EDGE_CURVE('',#488,#1035,#1351,.T.);
#1351 = SURFACE_CURVE('',#1352,(#1355,#1361),.PCURVE_S1.);
#1352 = B_SPLINE_CURVE_WITH_KNOTS('',1,(#1353,#1354),.UNSPECIFIED.,.F.,
  .F.,(2,2),(0.,5.),.PIECEWISE_BEZIER_KNOTS.);
#1353 = CARTESIAN_POINT('',(2.5,129.,52.375));
#1354 = CARTESIAN_POINT('',(-2.5,129.,52.375));
#1355 = PCURVE('',#505,#1356);
#1356 = DEFINITIONAL_REPRESENTATION('',(#1357),#1360);
#1357 = B_SPLINE_CURVE_WITH_KNOTS('',1,(#1358,#1359),.UNSPECIFIED.,.F.,
  .F.,(2,2),(0.,5.),.PIECEWISE_BEZIER_KNOTS.);
#1358 = CARTESIAN_POINT('',(-2.5,7.5));
#1359 = CARTESIAN_POINT('',(2.5,7.5));
#1360 = ( GEOMETRIC_REPRESENTATION_CONTEXT(2) 
PARAMETRIC_REPRESENTATION_CONTEXT() REPRESENTATION_CONTEXT('2D SPACE',''
  ) );
#1361 = PCURVE('',#532,#1362);
#1362 = DEFINITIONAL_REPRESENTATION('',(#1363),#1366);
#1363 = B_SPLINE_CURVE_WITH_KNOTS('',1,(#1364,#1365),.UNSPECIFIED.,.F.,
  .F.,(2,2),(0.,5.),.PIECEWISE_BEZIER_KNOTS.);
#1364 = CARTESIAN_POINT('',(-0.375,2.5));
#1365 = CARTESIAN_POINT('',(-0.375,-2.5));
#1366 = ( GEOMETRIC_REPRESENTATION_CONTEXT(2) 
PARAMETRIC_REPRESENTATION_CONTEXT() REPRESENTATION_CONTEXT('2D SPACE',''
  ) );
#1367 = ADVANCED_FACE('',(#1368),#73,.T.);
#1368 = FACE_BOUND('',#1369,.T.);
#1369 = EDGE_LOOP('',(#1370,#1371,#1372,#1373));
#1370 = ORIENTED_EDGE('',*,*,#59,.T.);
#1371 = ORIENTED_EDGE('',*,*,#186,.T.);
#1372 = ORIENTED_EDGE('',*,*,#779,.T.);
#1373 = ORIENTED_EDGE('',*,*,#847,.T.);
#1374 = ADVANCED_FACE('',(#1375),#532,.F.);
#1375 = FACE_BOUND('',#1376,.F.);
#1376 = EDGE_LOOP('',(#1377,#1378,#1379,#1380));
#1377 = ORIENTED_EDGE('',*,*,#1326,.T.);
#1378 = ORIENTED_EDGE('',*,*,#518,.T.);
#1379 = ORIENTED_EDGE('',*,*,#1350,.T.);
#1380 = ORIENTED_EDGE('',*,*,#1034,.T.);
#1381 = ( GEOMETRIC_REPRESENTATION_CONTEXT(3) 
GLOBAL_UNCERTAINTY_ASSIGNED_CONTEXT((#1385)) 
GLOBAL_UNIT_ASSIGNED_CONTEXT((#1382,#1383,#1384)) REPRESENTATION_CONTEXT
('Context #1','3D Context with UNIT and UNCERTAINTY') );
#1382 = ( LENGTH_UNIT() NAMED_UNIT(*) SI_UNIT(.MILLI.,.METRE.) );
#1383 = ( NAMED_UNIT(*) PLANE_ANGLE_UNIT() SI_UNIT($,.RADIAN.) );
#1384 = ( NAMED_UNIT(*) SI_UNIT($,.STERADIAN.) SOLID_ANGLE_UNIT() );
#1385 = UNCERTAINTY_MEASURE_WITH_UNIT(LENGTH_MEASURE(2.E-05),#1382,
  'distance_accuracy_value','confusion accuracy');
#1386 = PRODUCT_RELATED_PRODUCT_CATEGORY('part',$,(#7));
ENDSEC;
END-ISO-10303-21;
