ISO-10303-21;
HEADER;
FILE_DESCRIPTION(('Open CASCADE Model'),'2;1');
FILE_NAME('Open CASCADE Shape Model','2026-06-24T17:01:54',('Author'),(
    'Open CASCADE'),'Open CASCADE STEP processor 7.8','Open CASCADE 7.8'
  ,'Unknown');
FILE_SCHEMA(('AUTOMOTIVE_DESIGN { 1 0 10303 214 1 1 1 1 }'));
ENDSEC;
DATA;
#1 = APPLICATION_PROTOCOL_DEFINITION('international standard',
  'automotive_design',2000,#2);
#2 = APPLICATION_CONTEXT(
  'core data for automotive mechanical design processes');
#3 = SHAPE_DEFINITION_REPRESENTATION(#4,#10);
#4 = PRODUCT_DEFINITION_SHAPE('','',#5);
#5 = PRODUCT_DEFINITION('design','',#6,#9);
#6 = PRODUCT_DEFINITION_FORMATION('','',#7);
#7 = PRODUCT('Open CASCADE STEP translator 7.8 2',
  'Open CASCADE STEP translator 7.8 2','',(#8));
#8 = PRODUCT_CONTEXT('',#2,'mechanical');
#9 = PRODUCT_DEFINITION_CONTEXT('part definition',#2,'design');
#10 = ADVANCED_BREP_SHAPE_REPRESENTATION('',(#11,#15),#1273);
#11 = AXIS2_PLACEMENT_3D('',#12,#13,#14);
#12 = CARTESIAN_POINT('',(0.,0.,0.));
#13 = DIRECTION('',(0.,0.,1.));
#14 = DIRECTION('',(1.,0.,-0.));
#15 = MANIFOLD_SOLID_BREP('',#16);
#16 = CLOSED_SHELL('',(#17,#193,#702,#770,#1111,#1136,#1161,#1186,#1211,
    #1235,#1259,#1266));
#17 = ADVANCED_FACE('',(#18),#33,.F.);
#18 = FACE_BOUND('',#19,.F.);
#19 = EDGE_LOOP('',(#20,#58,#83,#114));
#20 = ORIENTED_EDGE('',*,*,#21,.F.);
#21 = EDGE_CURVE('',#22,#24,#26,.T.);
#22 = VERTEX_POINT('',#23);
#23 = CARTESIAN_POINT('',(-2.5,-30.,-58.375));
#24 = VERTEX_POINT('',#25);
#25 = CARTESIAN_POINT('',(-2.5,3.552713678801E-15,-58.375));
#26 = SURFACE_CURVE('',#27,(#32,#45),.PCURVE_S1.);
#27 = B_SPLINE_CURVE_WITH_KNOTS('',3,(#28,#29,#30,#31),.UNSPECIFIED.,.F.
  ,.F.,(4,4),(0.,1.),.PIECEWISE_BEZIER_KNOTS.);
#28 = CARTESIAN_POINT('',(-2.5,-30.,-58.375));
#29 = CARTESIAN_POINT('',(-2.5,-29.9,-58.375));
#30 = CARTESIAN_POINT('',(-2.5,-1.E-01,-58.375));
#31 = CARTESIAN_POINT('',(-2.5,8.881784197001E-15,-58.375));
#32 = PCURVE('',#33,#38);
#33 = PLANE('',#34);
#34 = AXIS2_PLACEMENT_3D('',#35,#36,#37);
#35 = CARTESIAN_POINT('',(0.,-15.,-58.375));
#36 = DIRECTION('',(1.057005722618E-16,1.775846287648E-16,1.));
#37 = DIRECTION('',(1.,5.020246460857E-19,-1.057005722618E-16));
#38 = DEFINITIONAL_REPRESENTATION('',(#39),#44);
#39 = B_SPLINE_CURVE_WITH_KNOTS('',3,(#40,#41,#42,#43),.UNSPECIFIED.,.F.
  ,.F.,(4,4),(0.,1.),.PIECEWISE_BEZIER_KNOTS.);
#40 = CARTESIAN_POINT('',(-2.5,-15.));
#41 = CARTESIAN_POINT('',(-2.5,-14.9));
#42 = CARTESIAN_POINT('',(-2.5,14.9));
#43 = CARTESIAN_POINT('',(-2.5,15.));
#44 = ( GEOMETRIC_REPRESENTATION_CONTEXT(2) 
PARAMETRIC_REPRESENTATION_CONTEXT() REPRESENTATION_CONTEXT('2D SPACE',''
  ) );
#45 = PCURVE('',#46,#51);
#46 = PLANE('',#47);
#47 = AXIS2_PLACEMENT_3D('',#48,#49,#50);
#48 = CARTESIAN_POINT('',(-2.5,-15.,-58.));
#49 = DIRECTION('',(1.,4.276662250411E-18,-2.36169962921E-29));
#50 = DIRECTION('',(-2.361654676448E-29,-1.05111787984E-16,-1.));
#51 = DEFINITIONAL_REPRESENTATION('',(#52),#57);
#52 = B_SPLINE_CURVE_WITH_KNOTS('',3,(#53,#54,#55,#56),.UNSPECIFIED.,.F.
  ,.F.,(4,4),(0.,1.),.PIECEWISE_BEZIER_KNOTS.);
#53 = CARTESIAN_POINT('',(0.375,-15.));
#54 = CARTESIAN_POINT('',(0.375,-14.9));
#55 = CARTESIAN_POINT('',(0.375,14.9));
#56 = CARTESIAN_POINT('',(0.375,15.));
#57 = ( GEOMETRIC_REPRESENTATION_CONTEXT(2) 
PARAMETRIC_REPRESENTATION_CONTEXT() REPRESENTATION_CONTEXT('2D SPACE',''
  ) );
#58 = ORIENTED_EDGE('',*,*,#59,.T.);
#59 = EDGE_CURVE('',#22,#60,#62,.T.);
#60 = VERTEX_POINT('',#61);
#61 = CARTESIAN_POINT('',(2.5,-30.,-58.375));
#62 = SURFACE_CURVE('',#63,(#66,#72),.PCURVE_S1.);
#63 = B_SPLINE_CURVE_WITH_KNOTS('',1,(#64,#65),.UNSPECIFIED.,.F.,.F.,(2,
    2),(0.,5.),.PIECEWISE_BEZIER_KNOTS.);
#64 = CARTESIAN_POINT('',(-2.5,-30.,-58.375));
#65 = CARTESIAN_POINT('',(2.5,-30.,-58.375));
#66 = PCURVE('',#33,#67);
#67 = DEFINITIONAL_REPRESENTATION('',(#68),#71);
#68 = B_SPLINE_CURVE_WITH_KNOTS('',1,(#69,#70),.UNSPECIFIED.,.F.,.F.,(2,
    2),(0.,5.),.PIECEWISE_BEZIER_KNOTS.);
#69 = CARTESIAN_POINT('',(-2.5,-15.));
#70 = CARTESIAN_POINT('',(2.5,-15.));
#71 = ( GEOMETRIC_REPRESENTATION_CONTEXT(2) 
PARAMETRIC_REPRESENTATION_CONTEXT() REPRESENTATION_CONTEXT('2D SPACE',''
  ) );
#72 = PCURVE('',#73,#78);
#73 = PLANE('',#74);
#74 = AXIS2_PLACEMENT_3D('',#75,#76,#77);
#75 = CARTESIAN_POINT('',(0.,-30.,-58.));
#76 = DIRECTION('',(-0.,-1.,-0.));
#77 = DIRECTION('',(0.,0.,-1.));
#78 = DEFINITIONAL_REPRESENTATION('',(#79),#82);
#79 = B_SPLINE_CURVE_WITH_KNOTS('',1,(#80,#81),.UNSPECIFIED.,.F.,.F.,(2,
    2),(0.,5.),.PIECEWISE_BEZIER_KNOTS.);
#80 = CARTESIAN_POINT('',(0.375,-2.5));
#81 = CARTESIAN_POINT('',(0.375,2.5));
#82 = ( GEOMETRIC_REPRESENTATION_CONTEXT(2) 
PARAMETRIC_REPRESENTATION_CONTEXT() REPRESENTATION_CONTEXT('2D SPACE',''
  ) );
#83 = ORIENTED_EDGE('',*,*,#84,.T.);
#84 = EDGE_CURVE('',#60,#85,#87,.T.);
#85 = VERTEX_POINT('',#86);
#86 = CARTESIAN_POINT('',(2.5,3.552713678801E-15,-58.375));
#87 = SURFACE_CURVE('',#88,(#93,#101),.PCURVE_S1.);
#88 = B_SPLINE_CURVE_WITH_KNOTS('',3,(#89,#90,#91,#92),.UNSPECIFIED.,.F.
  ,.F.,(4,4),(0.,1.),.PIECEWISE_BEZIER_KNOTS.);
#89 = CARTESIAN_POINT('',(2.5,-30.,-58.375));
#90 = CARTESIAN_POINT('',(2.5,-29.9,-58.375));
#91 = CARTESIAN_POINT('',(2.5,-1.E-01,-58.375));
#92 = CARTESIAN_POINT('',(2.5,8.881784197001E-15,-58.375));
#93 = PCURVE('',#33,#94);
#94 = DEFINITIONAL_REPRESENTATION('',(#95),#100);
#95 = B_SPLINE_CURVE_WITH_KNOTS('',3,(#96,#97,#98,#99),.UNSPECIFIED.,.F.
  ,.F.,(4,4),(0.,1.),.PIECEWISE_BEZIER_KNOTS.);
#96 = CARTESIAN_POINT('',(2.5,-15.));
#97 = CARTESIAN_POINT('',(2.5,-14.9));
#98 = CARTESIAN_POINT('',(2.5,14.9));
#99 = CARTESIAN_POINT('',(2.5,15.));
#100 = ( GEOMETRIC_REPRESENTATION_CONTEXT(2) 
PARAMETRIC_REPRESENTATION_CONTEXT() REPRESENTATION_CONTEXT('2D SPACE',''
  ) );
#101 = PCURVE('',#102,#107);
#102 = PLANE('',#103);
#103 = AXIS2_PLACEMENT_3D('',#104,#105,#106);
#104 = CARTESIAN_POINT('',(2.5,-15.,-58.));
#105 = DIRECTION('',(-1.,4.276662250411E-18,1.405147145863E-29));
#106 = DIRECTION('',(1.405197566563E-29,1.178973154113E-16,1.));
#107 = DEFINITIONAL_REPRESENTATION('',(#108),#113);
#108 = B_SPLINE_CURVE_WITH_KNOTS('',3,(#109,#110,#111,#112),
  .UNSPECIFIED.,.F.,.F.,(4,4),(0.,1.),.PIECEWISE_BEZIER_KNOTS.);
#109 = CARTESIAN_POINT('',(-0.375,-15.));
#110 = CARTESIAN_POINT('',(-0.375,-14.9));
#111 = CARTESIAN_POINT('',(-0.375,14.9));
#112 = CARTESIAN_POINT('',(-0.375,15.));
#113 = ( GEOMETRIC_REPRESENTATION_CONTEXT(2) 
PARAMETRIC_REPRESENTATION_CONTEXT() REPRESENTATION_CONTEXT('2D SPACE',''
  ) );
#114 = ORIENTED_EDGE('',*,*,#115,.F.);
#115 = EDGE_CURVE('',#24,#85,#116,.T.);
#116 = SURFACE_CURVE('',#117,(#120,#126),.PCURVE_S1.);
#117 = B_SPLINE_CURVE_WITH_KNOTS('',1,(#118,#119),.UNSPECIFIED.,.F.,.F.,
  (2,2),(0.,5.),.PIECEWISE_BEZIER_KNOTS.);
#118 = CARTESIAN_POINT('',(-2.5,8.881784197001E-15,-58.375));
#119 = CARTESIAN_POINT('',(2.5,8.881784197001E-15,-58.375));
#120 = PCURVE('',#33,#121);
#121 = DEFINITIONAL_REPRESENTATION('',(#122),#125);
#122 = B_SPLINE_CURVE_WITH_KNOTS('',1,(#123,#124),.UNSPECIFIED.,.F.,.F.,
  (2,2),(0.,5.),.PIECEWISE_BEZIER_KNOTS.);
#123 = CARTESIAN_POINT('',(-2.5,15.));
#124 = CARTESIAN_POINT('',(2.5,15.));
#125 = ( GEOMETRIC_REPRESENTATION_CONTEXT(2) 
PARAMETRIC_REPRESENTATION_CONTEXT() REPRESENTATION_CONTEXT('2D SPACE',''
  ) );
#126 = PCURVE('',#127,#188);
#127 = B_SPLINE_SURFACE_WITH_KNOTS('',1,11,(
    (#128,#129,#130,#131,#132,#133,#134,#135,#136,#137,#138,#139,#140
      ,#141,#142,#143,#144,#145,#146,#147,#148,#149,#150,#151,#152,#153
      ,#154,#155,#156,#157)
    ,(#158,#159,#160,#161,#162,#163,#164,#165,#166,#167,#168,#169,#170
      ,#171,#172,#173,#174,#175,#176,#177,#178,#179,#180,#181,#182,#183
      ,#184,#185,#186,#187
  )),.UNSPECIFIED.,.F.,.F.,.F.,(2,2),(12,9,9,12),(0.,5.),(0.,
    0.209393204226,0.604696602113,1.),.UNSPECIFIED.);
#128 = CARTESIAN_POINT('',(-2.5,0.,-58.375));
#129 = CARTESIAN_POINT('',(-2.5,2.91110104011,-58.37499999999));
#130 = CARTESIAN_POINT('',(-2.5,5.763374902673,-58.41470283327));
#131 = CARTESIAN_POINT('',(-2.499999999999,8.554850077011,
    -58.48905521487));
#132 = CARTESIAN_POINT('',(-2.500000000001,11.283554290401,
    -58.59300409719));
#133 = CARTESIAN_POINT('',(-2.499999999999,13.947516729729,
    -58.72149630137));
#134 = CARTESIAN_POINT('',(-2.500000000001,16.544770263016,
    -58.86947815046));
#135 = CARTESIAN_POINT('',(-2.5,19.073353661193,-59.03189510022));
#136 = CARTESIAN_POINT('',(-2.5,21.531313819496,-59.20369137245));
#137 = CARTESIAN_POINT('',(-2.5,23.916707979323,-59.37980958617));
#138 = CARTESIAN_POINT('',(-2.5,30.590239508897,-59.88628340746));
#139 = CARTESIAN_POINT('',(-2.500000000001,36.62652207941,
    -60.34439454193));
#140 = CARTESIAN_POINT('',(-2.499999999998,40.286529733409,
    -60.58775120007));
#141 = CARTESIAN_POINT('',(-2.500000000003,43.654063789796,
    -60.75221713636));
#142 = CARTESIAN_POINT('',(-2.499999999996,46.696419211175,
    -60.75982504789));
#143 = CARTESIAN_POINT('',(-2.500000000004,49.440135336973,
    -60.68145730299));
#144 = CARTESIAN_POINT('',(-2.499999999997,51.837000485293,
    -60.30675132047));
#145 = CARTESIAN_POINT('',(-2.500000000001,53.877610663379,
    -59.80779114636));
#146 = CARTESIAN_POINT('',(-2.5,55.624238338922,-58.9765535016));
#147 = CARTESIAN_POINT('',(-2.5,58.318456920479,-56.63532718598));
#148 = CARTESIAN_POINT('',(-2.5,59.315734551043,-52.93009389327));
#149 = CARTESIAN_POINT('',(-2.500000000001,59.35914139367,
    -50.73368210196));
#150 = CARTESIAN_POINT('',(-2.499999999999,58.978256367632,
    -48.22082284496));
#151 = CARTESIAN_POINT('',(-2.500000000001,58.20103809406,
    -45.22317017362));
#152 = CARTESIAN_POINT('',(-2.499999999999,56.925713542232,
    -41.82366206524));
#153 = CARTESIAN_POINT('',(-2.5,55.231277566375,-37.8977379216));
#154 = CARTESIAN_POINT('',(-2.5,53.041021611388,-33.45715673933));
#155 = CARTESIAN_POINT('',(-2.5,50.369711408603,-28.44864806602));
#156 = CARTESIAN_POINT('',(-2.5,47.195940461663,-22.84188031575));
#157 = CARTESIAN_POINT('',(-2.5,43.507148510327,-16.60178285747));
#158 = CARTESIAN_POINT('',(2.5,0.,-58.375));
#159 = CARTESIAN_POINT('',(2.5,2.91110104011,-58.37499999999));
#160 = CARTESIAN_POINT('',(2.5,5.763374902673,-58.41470283327));
#161 = CARTESIAN_POINT('',(2.499999999999,8.554850077011,-58.48905521487
    ));
#162 = CARTESIAN_POINT('',(2.500000000001,11.283554290401,
    -58.59300409719));
#163 = CARTESIAN_POINT('',(2.499999999999,13.947516729729,
    -58.72149630137));
#164 = CARTESIAN_POINT('',(2.500000000001,16.544770263016,
    -58.86947815046));
#165 = CARTESIAN_POINT('',(2.5,19.073353661193,-59.03189510022));
#166 = CARTESIAN_POINT('',(2.5,21.531313819496,-59.20369137245));
#167 = CARTESIAN_POINT('',(2.5,23.916707979323,-59.37980958617));
#168 = CARTESIAN_POINT('',(2.5,30.590239508897,-59.88628340746));
#169 = CARTESIAN_POINT('',(2.500000000001,36.62652207941,-60.34439454193
    ));
#170 = CARTESIAN_POINT('',(2.499999999998,40.286529733409,
    -60.58775120007));
#171 = CARTESIAN_POINT('',(2.500000000003,43.654063789796,
    -60.75221713637));
#172 = CARTESIAN_POINT('',(2.499999999996,46.696419211175,
    -60.75982504787));
#173 = CARTESIAN_POINT('',(2.500000000004,49.440135336973,
    -60.68145730301));
#174 = CARTESIAN_POINT('',(2.499999999997,51.837000485293,
    -60.30675132047));
#175 = CARTESIAN_POINT('',(2.500000000001,53.877610663379,
    -59.80779114636));
#176 = CARTESIAN_POINT('',(2.5,55.624238338922,-58.97655350159));
#177 = CARTESIAN_POINT('',(2.5,58.318456920479,-56.63532718598));
#178 = CARTESIAN_POINT('',(2.5,59.315734551043,-52.93009389327));
#179 = CARTESIAN_POINT('',(2.500000000001,59.35914139367,-50.73368210196
    ));
#180 = CARTESIAN_POINT('',(2.499999999999,58.978256367632,
    -48.22082284495));
#181 = CARTESIAN_POINT('',(2.500000000001,58.20103809406,-45.22317017363
    ));
#182 = CARTESIAN_POINT('',(2.499999999999,56.925713542232,
    -41.82366206523));
#183 = CARTESIAN_POINT('',(2.5,55.231277566375,-37.8977379216));
#184 = CARTESIAN_POINT('',(2.5,53.041021611388,-33.45715673933));
#185 = CARTESIAN_POINT('',(2.5,50.369711408603,-28.44864806602));
#186 = CARTESIAN_POINT('',(2.5,47.195940461663,-22.84188031575));
#187 = CARTESIAN_POINT('',(2.5,43.507148510327,-16.60178285747));
#188 = DEFINITIONAL_REPRESENTATION('',(#189),#192);
#189 = B_SPLINE_CURVE_WITH_KNOTS('',1,(#190,#191),.UNSPECIFIED.,.F.,.F.,
  (2,2),(0.,5.),.PIECEWISE_BEZIER_KNOTS.);
#190 = CARTESIAN_POINT('',(0.,0.));
#191 = CARTESIAN_POINT('',(5.,0.));
#192 = ( GEOMETRIC_REPRESENTATION_CONTEXT(2) 
PARAMETRIC_REPRESENTATION_CONTEXT() REPRESENTATION_CONTEXT('2D SPACE',''
  ) );
#193 = ADVANCED_FACE('',(#194),#102,.F.);
#194 = FACE_BOUND('',#195,.F.);
#195 = EDGE_LOOP('',(#196,#197,#217,#248,#385,#462,#493,#518,#549,#627)
  );
#196 = ORIENTED_EDGE('',*,*,#84,.F.);
#197 = ORIENTED_EDGE('',*,*,#198,.T.);
#198 = EDGE_CURVE('',#60,#199,#201,.T.);
#199 = VERTEX_POINT('',#200);
#200 = CARTESIAN_POINT('',(2.5,-30.,-57.625));
#201 = SURFACE_CURVE('',#202,(#205,#211),.PCURVE_S1.);
#202 = B_SPLINE_CURVE_WITH_KNOTS('',1,(#203,#204),.UNSPECIFIED.,.F.,.F.,
  (2,2),(0.,0.75),.PIECEWISE_BEZIER_KNOTS.);
#203 = CARTESIAN_POINT('',(2.5,-30.,-58.375));
#204 = CARTESIAN_POINT('',(2.5,-30.,-57.625));
#205 = PCURVE('',#102,#206);
#206 = DEFINITIONAL_REPRESENTATION('',(#207),#210);
#207 = B_SPLINE_CURVE_WITH_KNOTS('',1,(#208,#209),.UNSPECIFIED.,.F.,.F.,
  (2,2),(0.,0.75),.PIECEWISE_BEZIER_KNOTS.);
#208 = CARTESIAN_POINT('',(-0.375,-15.));
#209 = CARTESIAN_POINT('',(0.375,-15.));
#210 = ( GEOMETRIC_REPRESENTATION_CONTEXT(2) 
PARAMETRIC_REPRESENTATION_CONTEXT() REPRESENTATION_CONTEXT('2D SPACE',''
  ) );
#211 = PCURVE('',#73,#212);
#212 = DEFINITIONAL_REPRESENTATION('',(#213),#216);
#213 = B_SPLINE_CURVE_WITH_KNOTS('',1,(#214,#215),.UNSPECIFIED.,.F.,.F.,
  (2,2),(0.,0.75),.PIECEWISE_BEZIER_KNOTS.);
#214 = CARTESIAN_POINT('',(0.375,2.5));
#215 = CARTESIAN_POINT('',(-0.375,2.5));
#216 = ( GEOMETRIC_REPRESENTATION_CONTEXT(2) 
PARAMETRIC_REPRESENTATION_CONTEXT() REPRESENTATION_CONTEXT('2D SPACE',''
  ) );
#217 = ORIENTED_EDGE('',*,*,#218,.T.);
#218 = EDGE_CURVE('',#199,#219,#221,.T.);
#219 = VERTEX_POINT('',#220);
#220 = CARTESIAN_POINT('',(2.5,3.552713678801E-15,-57.625));
#221 = SURFACE_CURVE('',#222,(#227,#235),.PCURVE_S1.);
#222 = B_SPLINE_CURVE_WITH_KNOTS('',3,(#223,#224,#225,#226),
  .UNSPECIFIED.,.F.,.F.,(4,4),(0.,1.),.PIECEWISE_BEZIER_KNOTS.);
#223 = CARTESIAN_POINT('',(2.5,-30.,-57.625));
#224 = CARTESIAN_POINT('',(2.5,-29.9,-57.625));
#225 = CARTESIAN_POINT('',(2.5,-1.E-01,-57.625));
#226 = CARTESIAN_POINT('',(2.5,8.881784197001E-15,-57.625));
#227 = PCURVE('',#102,#228);
#228 = DEFINITIONAL_REPRESENTATION('',(#229),#234);
#229 = B_SPLINE_CURVE_WITH_KNOTS('',3,(#230,#231,#232,#233),
  .UNSPECIFIED.,.F.,.F.,(4,4),(0.,1.),.PIECEWISE_BEZIER_KNOTS.);
#230 = CARTESIAN_POINT('',(0.375,-15.));
#231 = CARTESIAN_POINT('',(0.375,-14.9));
#232 = CARTESIAN_POINT('',(0.375,14.9));
#233 = CARTESIAN_POINT('',(0.375,15.));
#234 = ( GEOMETRIC_REPRESENTATION_CONTEXT(2) 
PARAMETRIC_REPRESENTATION_CONTEXT() REPRESENTATION_CONTEXT('2D SPACE',''
  ) );
#235 = PCURVE('',#236,#241);
#236 = PLANE('',#237);
#237 = AXIS2_PLACEMENT_3D('',#238,#239,#240);
#238 = CARTESIAN_POINT('',(0.,-15.,-57.625));
#239 = DIRECTION('',(4.815248291928E-16,-6.252836168543E-17,-1.));
#240 = DIRECTION('',(-1.,5.020246460857E-19,-4.815248291928E-16));
#241 = DEFINITIONAL_REPRESENTATION('',(#242),#247);
#242 = B_SPLINE_CURVE_WITH_KNOTS('',3,(#243,#244,#245,#246),
  .UNSPECIFIED.,.F.,.F.,(4,4),(0.,1.),.PIECEWISE_BEZIER_KNOTS.);
#243 = CARTESIAN_POINT('',(-2.5,-15.));
#244 = CARTESIAN_POINT('',(-2.5,-14.9));
#245 = CARTESIAN_POINT('',(-2.5,14.9));
#246 = CARTESIAN_POINT('',(-2.5,15.));
#247 = ( GEOMETRIC_REPRESENTATION_CONTEXT(2) 
PARAMETRIC_REPRESENTATION_CONTEXT() REPRESENTATION_CONTEXT('2D SPACE',''
  ) );
#248 = ORIENTED_EDGE('',*,*,#249,.T.);
#249 = EDGE_CURVE('',#219,#250,#252,.T.);
#250 = VERTEX_POINT('',#251);
#251 = CARTESIAN_POINT('',(2.5,42.861519858238,-16.9834419247));
#252 = SURFACE_CURVE('',#253,(#284,#318),.PCURVE_S1.);
#253 = B_SPLINE_CURVE_WITH_KNOTS('',11,(#254,#255,#256,#257,#258,#259,
    #260,#261,#262,#263,#264,#265,#266,#267,#268,#269,#270,#271,#272,
    #273,#274,#275,#276,#277,#278,#279,#280,#281,#282,#283),
  .UNSPECIFIED.,.F.,.F.,(12,9,9,12),(0.,0.209393204226,0.604696602113,1.
    ),.UNSPECIFIED.);
#254 = CARTESIAN_POINT('',(2.5,-1.7763568394E-15,-57.625));
#255 = CARTESIAN_POINT('',(2.5,2.920399966259,-57.62499999999));
#256 = CARTESIAN_POINT('',(2.5,5.781283490462,-57.66482965598));
#257 = CARTESIAN_POINT('',(2.499999999999,8.580642259903,-57.7394053309)
  );
#258 = CARTESIAN_POINT('',(2.500000000001,11.316468723927,
    -57.84364315093));
#259 = CARTESIAN_POINT('',(2.499999999999,13.986753872276,
    -57.97245937247));
#260 = CARTESIAN_POINT('',(2.500000000001,16.589485013515,
    -58.12077075141));
#261 = CARTESIAN_POINT('',(2.5,19.122643553393,-58.28349490944));
#262 = CARTESIAN_POINT('',(2.5,21.584202773214,-58.45555070344));
#263 = CARTESIAN_POINT('',(2.5,23.972125608275,-58.6318585923));
#264 = CARTESIAN_POINT('',(2.5,30.649523531644,-59.13862584551));
#265 = CARTESIAN_POINT('',(2.500000000001,36.678506922557,-59.5961830239
    ));
#266 = CARTESIAN_POINT('',(2.499999999998,40.329618985126,
    -59.84151680774));
#267 = CARTESIAN_POINT('',(2.500000000003,43.670218692649,
    -59.98763532457));
#268 = CARTESIAN_POINT('',(2.499999999996,46.706233725744,
    -60.04430185352));
#269 = CARTESIAN_POINT('',(2.500000000004,49.384347389969,
    -59.87243000463));
#270 = CARTESIAN_POINT('',(2.499999999997,51.725994010092,
    -59.61417833486));
#271 = CARTESIAN_POINT('',(2.500000000001,53.71380022371,-59.0292587764)
  );
#272 = CARTESIAN_POINT('',(2.5,55.258716206547,-58.25749058473));
#273 = CARTESIAN_POINT('',(2.5,57.620284763499,-56.21804497458));
#274 = CARTESIAN_POINT('',(2.5,58.517084490503,-52.92046974389));
#275 = CARTESIAN_POINT('',(2.500000000001,58.603511525428,
    -50.89173910123));
#276 = CARTESIAN_POINT('',(2.499999999999,58.270248271618,
    -48.38751372901));
#277 = CARTESIAN_POINT('',(2.500000000001,57.462558752143,
    -45.50793555319));
#278 = CARTESIAN_POINT('',(2.499999999999,56.255438641336,
    -42.10186257329));
#279 = CARTESIAN_POINT('',(2.5,54.543115729308,-38.22565136496));
#280 = CARTESIAN_POINT('',(2.5,52.375521214793,-33.7993389084));
#281 = CARTESIAN_POINT('',(2.5,49.711112010635,-28.80799163336));
#282 = CARTESIAN_POINT('',(2.5,46.544517257035,-23.21373710271));
#283 = CARTESIAN_POINT('',(2.5,42.861519858238,-16.9834419247));
#284 = PCURVE('',#102,#285);
#285 = DEFINITIONAL_REPRESENTATION('',(#286),#317);
#286 = B_SPLINE_CURVE_WITH_KNOTS('',11,(#287,#288,#289,#290,#291,#292,
    #293,#294,#295,#296,#297,#298,#299,#300,#301,#302,#303,#304,#305,
    #306,#307,#308,#309,#310,#311,#312,#313,#314,#315,#316),
  .UNSPECIFIED.,.F.,.F.,(12,9,9,12),(0.,0.209393204226,0.604696602113,1.
    ),.UNSPECIFIED.);
#287 = CARTESIAN_POINT('',(0.375,15.));
#288 = CARTESIAN_POINT('',(0.375000000004,17.920399966259));
#289 = CARTESIAN_POINT('',(0.335170344017,20.781283490462));
#290 = CARTESIAN_POINT('',(0.260594669096,23.580642259903));
#291 = CARTESIAN_POINT('',(0.156356849062,26.316468723927));
#292 = CARTESIAN_POINT('',(2.754062752954E-02,28.986753872276));
#293 = CARTESIAN_POINT('',(-0.120770751419,31.589485013515));
#294 = CARTESIAN_POINT('',(-0.28349490944,34.122643553393));
#295 = CARTESIAN_POINT('',(-0.455550703444,36.584202773214));
#296 = CARTESIAN_POINT('',(-0.631858592304,38.972125608275));
#297 = CARTESIAN_POINT('',(-1.138625845515,45.649523531644));
#298 = CARTESIAN_POINT('',(-1.596183023909,51.678506922557));
#299 = CARTESIAN_POINT('',(-1.841516807747,55.329618985126));
#300 = CARTESIAN_POINT('',(-1.987635324579,58.670218692649));
#301 = CARTESIAN_POINT('',(-2.044301853529,61.706233725744));
#302 = CARTESIAN_POINT('',(-1.872430004637,64.384347389969));
#303 = CARTESIAN_POINT('',(-1.614178334867,66.725994010092));
#304 = CARTESIAN_POINT('',(-1.029258776405,68.71380022371));
#305 = CARTESIAN_POINT('',(-0.257490584733,70.258716206547));
#306 = CARTESIAN_POINT('',(1.781955025412,72.620284763499));
#307 = CARTESIAN_POINT('',(5.07953025611,73.517084490503));
#308 = CARTESIAN_POINT('',(7.108260898767,73.603511525428));
#309 = CARTESIAN_POINT('',(9.612486270987,73.270248271618));
#310 = CARTESIAN_POINT('',(12.492064446809,72.462558752143));
#311 = CARTESIAN_POINT('',(15.89813742671,71.255438641336));
#312 = CARTESIAN_POINT('',(19.774348635031,69.543115729308));
#313 = CARTESIAN_POINT('',(24.200661091594,67.375521214793));
#314 = CARTESIAN_POINT('',(29.19200836664,64.711112010635));
#315 = CARTESIAN_POINT('',(34.786262897282,61.544517257035));
#316 = CARTESIAN_POINT('',(41.016558075295,57.861519858238));
#317 = ( GEOMETRIC_REPRESENTATION_CONTEXT(2) 
PARAMETRIC_REPRESENTATION_CONTEXT() REPRESENTATION_CONTEXT('2D SPACE',''
  ) );
#318 = PCURVE('',#319,#380);
#319 = B_SPLINE_SURFACE_WITH_KNOTS('',1,11,(
    (#320,#321,#322,#323,#324,#325,#326,#327,#328,#329,#330,#331,#332
      ,#333,#334,#335,#336,#337,#338,#339,#340,#341,#342,#343,#344,#345
      ,#346,#347,#348,#349)
    ,(#350,#351,#352,#353,#354,#355,#356,#357,#358,#359,#360,#361,#362
      ,#363,#364,#365,#366,#367,#368,#369,#370,#371,#372,#373,#374,#375
      ,#376,#377,#378,#379
  )),.UNSPECIFIED.,.F.,.F.,.F.,(2,2),(12,9,9,12),(0.,5.),(0.,
    0.209393204226,0.604696602113,1.),.UNSPECIFIED.);
#320 = CARTESIAN_POINT('',(2.5,-1.7763568394E-15,-57.625));
#321 = CARTESIAN_POINT('',(2.5,2.920399966259,-57.62499999999));
#322 = CARTESIAN_POINT('',(2.5,5.781283490462,-57.66482965598));
#323 = CARTESIAN_POINT('',(2.499999999999,8.580642259903,-57.7394053309)
  );
#324 = CARTESIAN_POINT('',(2.500000000001,11.316468723927,
    -57.84364315093));
#325 = CARTESIAN_POINT('',(2.499999999999,13.986753872276,
    -57.97245937247));
#326 = CARTESIAN_POINT('',(2.500000000001,16.589485013515,
    -58.12077075141));
#327 = CARTESIAN_POINT('',(2.5,19.122643553393,-58.28349490944));
#328 = CARTESIAN_POINT('',(2.5,21.584202773214,-58.45555070344));
#329 = CARTESIAN_POINT('',(2.5,23.972125608275,-58.6318585923));
#330 = CARTESIAN_POINT('',(2.5,30.649523531644,-59.13862584551));
#331 = CARTESIAN_POINT('',(2.500000000001,36.678506922557,-59.5961830239
    ));
#332 = CARTESIAN_POINT('',(2.499999999998,40.329618985126,
    -59.84151680774));
#333 = CARTESIAN_POINT('',(2.500000000003,43.670218692649,
    -59.98763532457));
#334 = CARTESIAN_POINT('',(2.499999999996,46.706233725744,
    -60.04430185352));
#335 = CARTESIAN_POINT('',(2.500000000004,49.384347389969,
    -59.87243000463));
#336 = CARTESIAN_POINT('',(2.499999999997,51.725994010092,
    -59.61417833486));
#337 = CARTESIAN_POINT('',(2.500000000001,53.71380022371,-59.0292587764)
  );
#338 = CARTESIAN_POINT('',(2.5,55.258716206547,-58.25749058473));
#339 = CARTESIAN_POINT('',(2.5,57.620284763499,-56.21804497458));
#340 = CARTESIAN_POINT('',(2.5,58.517084490503,-52.92046974389));
#341 = CARTESIAN_POINT('',(2.500000000001,58.603511525428,
    -50.89173910123));
#342 = CARTESIAN_POINT('',(2.499999999999,58.270248271618,
    -48.38751372901));
#343 = CARTESIAN_POINT('',(2.500000000001,57.462558752143,
    -45.50793555319));
#344 = CARTESIAN_POINT('',(2.499999999999,56.255438641336,
    -42.10186257329));
#345 = CARTESIAN_POINT('',(2.5,54.543115729308,-38.22565136496));
#346 = CARTESIAN_POINT('',(2.5,52.375521214793,-33.7993389084));
#347 = CARTESIAN_POINT('',(2.5,49.711112010635,-28.80799163336));
#348 = CARTESIAN_POINT('',(2.5,46.544517257035,-23.21373710271));
#349 = CARTESIAN_POINT('',(2.5,42.861519858238,-16.9834419247));
#350 = CARTESIAN_POINT('',(-2.5,-1.7763568394E-15,-57.625));
#351 = CARTESIAN_POINT('',(-2.5,2.920399966259,-57.62499999999));
#352 = CARTESIAN_POINT('',(-2.5,5.781283490462,-57.66482965598));
#353 = CARTESIAN_POINT('',(-2.499999999999,8.580642259903,-57.7394053309
    ));
#354 = CARTESIAN_POINT('',(-2.500000000001,11.316468723927,
    -57.84364315093));
#355 = CARTESIAN_POINT('',(-2.499999999999,13.986753872276,
    -57.97245937247));
#356 = CARTESIAN_POINT('',(-2.500000000001,16.589485013514,
    -58.12077075142));
#357 = CARTESIAN_POINT('',(-2.5,19.122643553394,-58.28349490943));
#358 = CARTESIAN_POINT('',(-2.5,21.584202773213,-58.45555070344));
#359 = CARTESIAN_POINT('',(-2.5,23.972125608275,-58.6318585923));
#360 = CARTESIAN_POINT('',(-2.5,30.649523531643,-59.13862584551));
#361 = CARTESIAN_POINT('',(-2.500000000001,36.678506922558,
    -59.5961830239));
#362 = CARTESIAN_POINT('',(-2.499999999998,40.329618985124,
    -59.84151680775));
#363 = CARTESIAN_POINT('',(-2.500000000003,43.670218692652,
    -59.98763532456));
#364 = CARTESIAN_POINT('',(-2.499999999996,46.706233725739,
    -60.04430185354));
#365 = CARTESIAN_POINT('',(-2.500000000004,49.384347389975,
    -59.87243000462));
#366 = CARTESIAN_POINT('',(-2.499999999997,51.725994010088,
    -59.61417833487));
#367 = CARTESIAN_POINT('',(-2.500000000001,53.713800223712,
    -59.02925877639));
#368 = CARTESIAN_POINT('',(-2.5,55.258716206547,-58.25749058473));
#369 = CARTESIAN_POINT('',(-2.5,57.620284763498,-56.21804497458));
#370 = CARTESIAN_POINT('',(-2.5,58.517084490503,-52.92046974388));
#371 = CARTESIAN_POINT('',(-2.500000000001,58.603511525425,
    -50.89173910123));
#372 = CARTESIAN_POINT('',(-2.499999999999,58.270248271625,-48.387513729
    ));
#373 = CARTESIAN_POINT('',(-2.500000000001,57.462558752133,
    -45.5079355532));
#374 = CARTESIAN_POINT('',(-2.499999999999,56.255438641348,
    -42.10186257327));
#375 = CARTESIAN_POINT('',(-2.5,54.543115729299,-38.22565136498));
#376 = CARTESIAN_POINT('',(-2.5,52.375521214798,-33.79933890839));
#377 = CARTESIAN_POINT('',(-2.5,49.711112010633,-28.80799163336));
#378 = CARTESIAN_POINT('',(-2.5,46.544517257036,-23.21373710271));
#379 = CARTESIAN_POINT('',(-2.5,42.861519858238,-16.9834419247));
#380 = DEFINITIONAL_REPRESENTATION('',(#381),#384);
#381 = B_SPLINE_CURVE_WITH_KNOTS('',1,(#382,#383),.UNSPECIFIED.,.F.,.F.,
  (2,2),(0.,1.),.PIECEWISE_BEZIER_KNOTS.);
#382 = CARTESIAN_POINT('',(0.,0.));
#383 = CARTESIAN_POINT('',(0.,1.));
#384 = ( GEOMETRIC_REPRESENTATION_CONTEXT(2) 
PARAMETRIC_REPRESENTATION_CONTEXT() REPRESENTATION_CONTEXT('2D SPACE',''
  ) );
#385 = ORIENTED_EDGE('',*,*,#386,.T.);
#386 = EDGE_CURVE('',#250,#387,#389,.T.);
#387 = VERTEX_POINT('',#388);
#388 = CARTESIAN_POINT('',(2.5,54.,52.375));
#389 = SURFACE_CURVE('',#390,(#406,#425),.PCURVE_S1.);
#390 = B_SPLINE_CURVE_WITH_KNOTS('',8,(#391,#392,#393,#394,#395,#396,
    #397,#398,#399,#400,#401,#402,#403,#404,#405),.UNSPECIFIED.,.F.,.F.,
  (9,6,9),(0.,0.5,1.),.UNSPECIFIED.);
#391 = CARTESIAN_POINT('',(2.5,42.861519858238,-16.9834419247));
#392 = CARTESIAN_POINT('',(2.5,36.372432891527,-6.006261421783));
#393 = CARTESIAN_POINT('',(2.5,31.467343965816,3.685491362673));
#394 = CARTESIAN_POINT('',(2.5,28.005427474183,12.176954064256));
#395 = CARTESIAN_POINT('',(2.5,25.847095650766,19.558422830065));
#396 = CARTESIAN_POINT('',(2.5,24.851708970545,25.90640416265));
#397 = CARTESIAN_POINT('',(2.5,24.879283735036,31.328755570146));
#398 = CARTESIAN_POINT('',(2.5,26.744923707107,40.46631634167));
#399 = CARTESIAN_POINT('',(2.5,31.654200268747,46.458152490514));
#400 = CARTESIAN_POINT('',(2.5,34.728413150241,48.735289150733));
#401 = CARTESIAN_POINT('',(2.5,38.245809066771,50.3575078469));
#402 = CARTESIAN_POINT('',(2.5,42.067113689925,51.455291315756));
#403 = CARTESIAN_POINT('',(2.5,46.060674501523,52.096605716979));
#404 = CARTESIAN_POINT('',(2.5,50.08442675242,52.375));
#405 = CARTESIAN_POINT('',(2.5,54.,52.375));
#406 = PCURVE('',#102,#407);
#407 = DEFINITIONAL_REPRESENTATION('',(#408),#424);
#408 = B_SPLINE_CURVE_WITH_KNOTS('',8,(#409,#410,#411,#412,#413,#414,
    #415,#416,#417,#418,#419,#420,#421,#422,#423),.UNSPECIFIED.,.F.,.F.,
  (9,6,9),(0.,0.5,1.),.UNSPECIFIED.);
#409 = CARTESIAN_POINT('',(41.016558075295,57.861519858238));
#410 = CARTESIAN_POINT('',(51.993738578217,51.372432891527));
#411 = CARTESIAN_POINT('',(61.685491362673,46.467343965816));
#412 = CARTESIAN_POINT('',(70.176954064256,43.005427474183));
#413 = CARTESIAN_POINT('',(77.558422830065,40.847095650766));
#414 = CARTESIAN_POINT('',(83.90640416265,39.851708970545));
#415 = CARTESIAN_POINT('',(89.328755570146,39.879283735036));
#416 = CARTESIAN_POINT('',(98.46631634167,41.744923707107));
#417 = CARTESIAN_POINT('',(104.45815249051,46.654200268747));
#418 = CARTESIAN_POINT('',(106.73528915073,49.728413150241));
#419 = CARTESIAN_POINT('',(108.3575078469,53.245809066771));
#420 = CARTESIAN_POINT('',(109.45529131575,57.067113689925));
#421 = CARTESIAN_POINT('',(110.09660571697,61.060674501523));
#422 = CARTESIAN_POINT('',(110.375,65.08442675242));
#423 = CARTESIAN_POINT('',(110.375,69.));
#424 = ( GEOMETRIC_REPRESENTATION_CONTEXT(2) 
PARAMETRIC_REPRESENTATION_CONTEXT() REPRESENTATION_CONTEXT('2D SPACE',''
  ) );
#425 = PCURVE('',#426,#457);
#426 = B_SPLINE_SURFACE_WITH_KNOTS('',1,8,(
    (#427,#428,#429,#430,#431,#432,#433,#434,#435,#436,#437,#438,#439
      ,#440,#441)
    ,(#442,#443,#444,#445,#446,#447,#448,#449,#450,#451,#452,#453,#454
      ,#455,#456
    )),.UNSPECIFIED.,.F.,.F.,.F.,(2,2),(9,6,9),(0.,5.),(0.,0.5,1.),
  .UNSPECIFIED.);
#427 = CARTESIAN_POINT('',(2.5,42.861519858238,-16.9834419247));
#428 = CARTESIAN_POINT('',(2.5,36.372432891527,-6.006261421783));
#429 = CARTESIAN_POINT('',(2.5,31.467343965816,3.685491362673));
#430 = CARTESIAN_POINT('',(2.5,28.005427474183,12.176954064256));
#431 = CARTESIAN_POINT('',(2.5,25.847095650766,19.558422830065));
#432 = CARTESIAN_POINT('',(2.5,24.851708970545,25.90640416265));
#433 = CARTESIAN_POINT('',(2.5,24.879283735036,31.328755570146));
#434 = CARTESIAN_POINT('',(2.5,26.744923707107,40.46631634167));
#435 = CARTESIAN_POINT('',(2.5,31.654200268747,46.458152490514));
#436 = CARTESIAN_POINT('',(2.5,34.728413150241,48.735289150733));
#437 = CARTESIAN_POINT('',(2.5,38.245809066771,50.3575078469));
#438 = CARTESIAN_POINT('',(2.5,42.067113689925,51.455291315756));
#439 = CARTESIAN_POINT('',(2.5,46.060674501523,52.096605716979));
#440 = CARTESIAN_POINT('',(2.5,50.08442675242,52.375));
#441 = CARTESIAN_POINT('',(2.5,54.,52.375));
#442 = CARTESIAN_POINT('',(-2.5,42.861519858238,-16.9834419247));
#443 = CARTESIAN_POINT('',(-2.5,36.372432891527,-6.006261421783));
#444 = CARTESIAN_POINT('',(-2.5,31.467343965816,3.685491362673));
#445 = CARTESIAN_POINT('',(-2.5,28.005427474183,12.176954064256));
#446 = CARTESIAN_POINT('',(-2.5,25.847095650766,19.558422830065));
#447 = CARTESIAN_POINT('',(-2.5,24.851708970545,25.90640416265));
#448 = CARTESIAN_POINT('',(-2.5,24.879283735036,31.328755570146));
#449 = CARTESIAN_POINT('',(-2.5,26.744923707107,40.46631634167));
#450 = CARTESIAN_POINT('',(-2.5,31.654200268747,46.458152490514));
#451 = CARTESIAN_POINT('',(-2.5,34.728413150241,48.735289150733));
#452 = CARTESIAN_POINT('',(-2.5,38.245809066771,50.3575078469));
#453 = CARTESIAN_POINT('',(-2.5,42.067113689925,51.455291315755));
#454 = CARTESIAN_POINT('',(-2.5,46.060674501523,52.096605716979));
#455 = CARTESIAN_POINT('',(-2.5,50.08442675242,52.375));
#456 = CARTESIAN_POINT('',(-2.5,54.,52.375));
#457 = DEFINITIONAL_REPRESENTATION('',(#458),#461);
#458 = B_SPLINE_CURVE_WITH_KNOTS('',1,(#459,#460),.UNSPECIFIED.,.F.,.F.,
  (2,2),(0.,1.),.PIECEWISE_BEZIER_KNOTS.);
#459 = CARTESIAN_POINT('',(0.,0.));
#460 = CARTESIAN_POINT('',(0.,1.));
#461 = ( GEOMETRIC_REPRESENTATION_CONTEXT(2) 
PARAMETRIC_REPRESENTATION_CONTEXT() REPRESENTATION_CONTEXT('2D SPACE',''
  ) );
#462 = ORIENTED_EDGE('',*,*,#463,.T.);
#463 = EDGE_CURVE('',#387,#464,#466,.T.);
#464 = VERTEX_POINT('',#465);
#465 = CARTESIAN_POINT('',(2.5,69.,52.375));
#466 = SURFACE_CURVE('',#467,(#472,#480),.PCURVE_S1.);
#467 = B_SPLINE_CURVE_WITH_KNOTS('',3,(#468,#469,#470,#471),
  .UNSPECIFIED.,.F.,.F.,(4,4),(0.,1.),.PIECEWISE_BEZIER_KNOTS.);
#468 = CARTESIAN_POINT('',(2.5,54.,52.375));
#469 = CARTESIAN_POINT('',(2.5,55.,52.375));
#470 = CARTESIAN_POINT('',(2.5,68.9,52.375));
#471 = CARTESIAN_POINT('',(2.5,69.,52.375));
#472 = PCURVE('',#102,#473);
#473 = DEFINITIONAL_REPRESENTATION('',(#474),#479);
#474 = B_SPLINE_CURVE_WITH_KNOTS('',3,(#475,#476,#477,#478),
  .UNSPECIFIED.,.F.,.F.,(4,4),(0.,1.),.PIECEWISE_BEZIER_KNOTS.);
#475 = CARTESIAN_POINT('',(110.375,69.));
#476 = CARTESIAN_POINT('',(110.375,70.));
#477 = CARTESIAN_POINT('',(110.375,83.9));
#478 = CARTESIAN_POINT('',(110.375,84.));
#479 = ( GEOMETRIC_REPRESENTATION_CONTEXT(2) 
PARAMETRIC_REPRESENTATION_CONTEXT() REPRESENTATION_CONTEXT('2D SPACE',''
  ) );
#480 = PCURVE('',#481,#486);
#481 = PLANE('',#482);
#482 = AXIS2_PLACEMENT_3D('',#483,#484,#485);
#483 = CARTESIAN_POINT('',(0.,61.7025,52.375));
#484 = DIRECTION('',(-2.114011445237E-16,7.450122428127E-17,-1.));
#485 = DIRECTION('',(-1.,4.42332081499E-18,2.114011445237E-16));
#486 = DEFINITIONAL_REPRESENTATION('',(#487),#492);
#487 = B_SPLINE_CURVE_WITH_KNOTS('',3,(#488,#489,#490,#491),
  .UNSPECIFIED.,.F.,.F.,(4,4),(0.,1.),.PIECEWISE_BEZIER_KNOTS.);
#488 = CARTESIAN_POINT('',(-2.5,-7.7025));
#489 = CARTESIAN_POINT('',(-2.5,-6.7025));
#490 = CARTESIAN_POINT('',(-2.5,7.1975));
#491 = CARTESIAN_POINT('',(-2.5,7.2975));
#492 = ( GEOMETRIC_REPRESENTATION_CONTEXT(2) 
PARAMETRIC_REPRESENTATION_CONTEXT() REPRESENTATION_CONTEXT('2D SPACE',''
  ) );
#493 = ORIENTED_EDGE('',*,*,#494,.F.);
#494 = EDGE_CURVE('',#495,#464,#497,.T.);
#495 = VERTEX_POINT('',#496);
#496 = CARTESIAN_POINT('',(2.5,69.,51.625));
#497 = SURFACE_CURVE('',#498,(#501,#507),.PCURVE_S1.);
#498 = B_SPLINE_CURVE_WITH_KNOTS('',1,(#499,#500),.UNSPECIFIED.,.F.,.F.,
  (2,2),(0.,0.75),.PIECEWISE_BEZIER_KNOTS.);
#499 = CARTESIAN_POINT('',(2.5,69.,51.625));
#500 = CARTESIAN_POINT('',(2.5,69.,52.375));
#501 = PCURVE('',#102,#502);
#502 = DEFINITIONAL_REPRESENTATION('',(#503),#506);
#503 = B_SPLINE_CURVE_WITH_KNOTS('',1,(#504,#505),.UNSPECIFIED.,.F.,.F.,
  (2,2),(0.,0.75),.PIECEWISE_BEZIER_KNOTS.);
#504 = CARTESIAN_POINT('',(109.625,84.));
#505 = CARTESIAN_POINT('',(110.375,84.));
#506 = ( GEOMETRIC_REPRESENTATION_CONTEXT(2) 
PARAMETRIC_REPRESENTATION_CONTEXT() REPRESENTATION_CONTEXT('2D SPACE',''
  ) );
#507 = PCURVE('',#508,#513);
#508 = PLANE('',#509);
#509 = AXIS2_PLACEMENT_3D('',#510,#511,#512);
#510 = CARTESIAN_POINT('',(0.,69.,52.));
#511 = DIRECTION('',(-0.,-1.,-0.));
#512 = DIRECTION('',(0.,0.,-1.));
#513 = DEFINITIONAL_REPRESENTATION('',(#514),#517);
#514 = B_SPLINE_CURVE_WITH_KNOTS('',1,(#515,#516),.UNSPECIFIED.,.F.,.F.,
  (2,2),(0.,0.75),.PIECEWISE_BEZIER_KNOTS.);
#515 = CARTESIAN_POINT('',(0.375,2.5));
#516 = CARTESIAN_POINT('',(-0.375,2.5));
#517 = ( GEOMETRIC_REPRESENTATION_CONTEXT(2) 
PARAMETRIC_REPRESENTATION_CONTEXT() REPRESENTATION_CONTEXT('2D SPACE',''
  ) );
#518 = ORIENTED_EDGE('',*,*,#519,.F.);
#519 = EDGE_CURVE('',#520,#495,#522,.T.);
#520 = VERTEX_POINT('',#521);
#521 = CARTESIAN_POINT('',(2.5,54.,51.625));
#522 = SURFACE_CURVE('',#523,(#528,#536),.PCURVE_S1.);
#523 = B_SPLINE_CURVE_WITH_KNOTS('',3,(#524,#525,#526,#527),
  .UNSPECIFIED.,.F.,.F.,(4,4),(0.,1.),.PIECEWISE_BEZIER_KNOTS.);
#524 = CARTESIAN_POINT('',(2.5,54.,51.625));
#525 = CARTESIAN_POINT('',(2.5,55.,51.625));
#526 = CARTESIAN_POINT('',(2.5,68.9,51.625));
#527 = CARTESIAN_POINT('',(2.5,69.,51.625));
#528 = PCURVE('',#102,#529);
#529 = DEFINITIONAL_REPRESENTATION('',(#530),#535);
#530 = B_SPLINE_CURVE_WITH_KNOTS('',3,(#531,#532,#533,#534),
  .UNSPECIFIED.,.F.,.F.,(4,4),(0.,1.),.PIECEWISE_BEZIER_KNOTS.);
#531 = CARTESIAN_POINT('',(109.625,69.));
#532 = CARTESIAN_POINT('',(109.625,70.));
#533 = CARTESIAN_POINT('',(109.625,83.9));
#534 = CARTESIAN_POINT('',(109.625,84.));
#535 = ( GEOMETRIC_REPRESENTATION_CONTEXT(2) 
PARAMETRIC_REPRESENTATION_CONTEXT() REPRESENTATION_CONTEXT('2D SPACE',''
  ) );
#536 = PCURVE('',#537,#542);
#537 = PLANE('',#538);
#538 = AXIS2_PLACEMENT_3D('',#539,#540,#541);
#539 = CARTESIAN_POINT('',(0.,61.7025,51.625));
#540 = DIRECTION('',(-1.526786043782E-16,-5.200186425074E-16,1.));
#541 = DIRECTION('',(1.,4.42332081499E-18,1.526786043782E-16));
#542 = DEFINITIONAL_REPRESENTATION('',(#543),#548);
#543 = B_SPLINE_CURVE_WITH_KNOTS('',3,(#544,#545,#546,#547),
  .UNSPECIFIED.,.F.,.F.,(4,4),(0.,1.),.PIECEWISE_BEZIER_KNOTS.);
#544 = CARTESIAN_POINT('',(2.5,-7.7025));
#545 = CARTESIAN_POINT('',(2.5,-6.7025));
#546 = CARTESIAN_POINT('',(2.5,7.1975));
#547 = CARTESIAN_POINT('',(2.5,7.2975));
#548 = ( GEOMETRIC_REPRESENTATION_CONTEXT(2) 
PARAMETRIC_REPRESENTATION_CONTEXT() REPRESENTATION_CONTEXT('2D SPACE',''
  ) );
#549 = ORIENTED_EDGE('',*,*,#550,.F.);
#550 = EDGE_CURVE('',#551,#520,#553,.T.);
#551 = VERTEX_POINT('',#552);
#552 = CARTESIAN_POINT('',(2.5,43.507148510327,-16.60178285747));
#553 = SURFACE_CURVE('',#554,(#570,#589),.PCURVE_S1.);
#554 = B_SPLINE_CURVE_WITH_KNOTS('',8,(#555,#556,#557,#558,#559,#560,
    #561,#562,#563,#564,#565,#566,#567,#568,#569),.UNSPECIFIED.,.F.,.F.,
  (9,6,9),(0.,0.5,1.),.UNSPECIFIED.);
#555 = CARTESIAN_POINT('',(2.5,43.507148510327,-16.60178285747));
#556 = CARTESIAN_POINT('',(2.5,37.036640851273,-5.656031801375));
#557 = CARTESIAN_POINT('',(2.5,32.152217481742,3.996770762991));
#558 = CARTESIAN_POINT('',(2.5,28.713310313628,12.440229287936));
#559 = CARTESIAN_POINT('',(2.5,26.578113417752,19.752789714259));
#560 = CARTESIAN_POINT('',(2.5,25.605872624107,26.026687627315));
#561 = CARTESIAN_POINT('',(2.5,25.655177936137,31.322807606868));
#562 = CARTESIAN_POINT('',(2.5,27.469525827824,40.152858068067));
#563 = CARTESIAN_POINT('',(2.5,32.16711777123,45.864938420797));
#564 = CARTESIAN_POINT('',(2.5,35.096665607549,48.04257841648));
#565 = CARTESIAN_POINT('',(2.5,38.501963179085,49.646696869231));
#566 = CARTESIAN_POINT('',(2.5,42.240891119221,50.715553130212));
#567 = CARTESIAN_POINT('',(2.5,46.163708251098,51.349923127644));
#568 = CARTESIAN_POINT('',(2.5,50.13108562883,51.625));
#569 = CARTESIAN_POINT('',(2.5,54.,51.625));
#570 = PCURVE('',#102,#571);
#571 = DEFINITIONAL_REPRESENTATION('',(#572),#588);
#572 = B_SPLINE_CURVE_WITH_KNOTS('',8,(#573,#574,#575,#576,#577,#578,
    #579,#580,#581,#582,#583,#584,#585,#586,#587),.UNSPECIFIED.,.F.,.F.,
  (9,6,9),(0.,0.5,1.),.UNSPECIFIED.);
#573 = CARTESIAN_POINT('',(41.398217142529,58.507148510327));
#574 = CARTESIAN_POINT('',(52.343968198625,52.036640851273));
#575 = CARTESIAN_POINT('',(61.996770762991,47.152217481742));
#576 = CARTESIAN_POINT('',(70.440229287936,43.713310313628));
#577 = CARTESIAN_POINT('',(77.752789714258,41.578113417752));
#578 = CARTESIAN_POINT('',(84.026687627315,40.605872624107));
#579 = CARTESIAN_POINT('',(89.322807606868,40.655177936137));
#580 = CARTESIAN_POINT('',(98.152858068067,42.469525827824));
#581 = CARTESIAN_POINT('',(103.86493842079,47.16711777123));
#582 = CARTESIAN_POINT('',(106.04257841648,50.096665607549));
#583 = CARTESIAN_POINT('',(107.64669686923,53.501963179085));
#584 = CARTESIAN_POINT('',(108.71555313021,57.240891119221));
#585 = CARTESIAN_POINT('',(109.34992312764,61.163708251098));
#586 = CARTESIAN_POINT('',(109.625,65.13108562883));
#587 = CARTESIAN_POINT('',(109.625,69.));
#588 = ( GEOMETRIC_REPRESENTATION_CONTEXT(2) 
PARAMETRIC_REPRESENTATION_CONTEXT() REPRESENTATION_CONTEXT('2D SPACE',''
  ) );
#589 = PCURVE('',#590,#621);
#590 = B_SPLINE_SURFACE_WITH_KNOTS('',1,8,(
    (#591,#592,#593,#594,#595,#596,#597,#598,#599,#600,#601,#602,#603
      ,#604,#605)
    ,(#606,#607,#608,#609,#610,#611,#612,#613,#614,#615,#616,#617,#618
      ,#619,#620
    )),.UNSPECIFIED.,.F.,.F.,.F.,(2,2),(9,6,9),(0.,5.),(0.,0.5,1.),
  .UNSPECIFIED.);
#591 = CARTESIAN_POINT('',(-2.5,43.507148510327,-16.60178285747));
#592 = CARTESIAN_POINT('',(-2.5,37.036640851273,-5.656031801375));
#593 = CARTESIAN_POINT('',(-2.5,32.152217481742,3.996770762991));
#594 = CARTESIAN_POINT('',(-2.5,28.713310313628,12.440229287936));
#595 = CARTESIAN_POINT('',(-2.5,26.578113417752,19.752789714259));
#596 = CARTESIAN_POINT('',(-2.5,25.605872624107,26.026687627315));
#597 = CARTESIAN_POINT('',(-2.5,25.655177936137,31.322807606868));
#598 = CARTESIAN_POINT('',(-2.5,27.469525827824,40.152858068067));
#599 = CARTESIAN_POINT('',(-2.5,32.16711777123,45.864938420797));
#600 = CARTESIAN_POINT('',(-2.5,35.096665607549,48.04257841648));
#601 = CARTESIAN_POINT('',(-2.5,38.501963179085,49.646696869231));
#602 = CARTESIAN_POINT('',(-2.5,42.240891119221,50.715553130212));
#603 = CARTESIAN_POINT('',(-2.5,46.163708251098,51.349923127644));
#604 = CARTESIAN_POINT('',(-2.5,50.13108562883,51.625));
#605 = CARTESIAN_POINT('',(-2.5,54.,51.625));
#606 = CARTESIAN_POINT('',(2.5,43.507148510327,-16.60178285747));
#607 = CARTESIAN_POINT('',(2.5,37.036640851273,-5.656031801375));
#608 = CARTESIAN_POINT('',(2.5,32.152217481742,3.996770762991));
#609 = CARTESIAN_POINT('',(2.5,28.713310313628,12.440229287936));
#610 = CARTESIAN_POINT('',(2.5,26.578113417752,19.752789714259));
#611 = CARTESIAN_POINT('',(2.5,25.605872624107,26.026687627315));
#612 = CARTESIAN_POINT('',(2.5,25.655177936137,31.322807606868));
#613 = CARTESIAN_POINT('',(2.5,27.469525827824,40.152858068067));
#614 = CARTESIAN_POINT('',(2.5,32.16711777123,45.864938420797));
#615 = CARTESIAN_POINT('',(2.5,35.096665607549,48.04257841648));
#616 = CARTESIAN_POINT('',(2.5,38.501963179085,49.646696869231));
#617 = CARTESIAN_POINT('',(2.5,42.240891119221,50.715553130212));
#618 = CARTESIAN_POINT('',(2.5,46.163708251098,51.349923127644));
#619 = CARTESIAN_POINT('',(2.5,50.13108562883,51.625));
#620 = CARTESIAN_POINT('',(2.5,54.,51.625));
#621 = DEFINITIONAL_REPRESENTATION('',(#622),#626);
#622 = LINE('',#623,#624);
#623 = CARTESIAN_POINT('',(5.,0.));
#624 = VECTOR('',#625,1.);
#625 = DIRECTION('',(0.,1.));
#626 = ( GEOMETRIC_REPRESENTATION_CONTEXT(2) 
PARAMETRIC_REPRESENTATION_CONTEXT() REPRESENTATION_CONTEXT('2D SPACE',''
  ) );
#627 = ORIENTED_EDGE('',*,*,#628,.F.);
#628 = EDGE_CURVE('',#85,#551,#629,.T.);
#629 = SURFACE_CURVE('',#630,(#661,#695),.PCURVE_S1.);
#630 = B_SPLINE_CURVE_WITH_KNOTS('',11,(#631,#632,#633,#634,#635,#636,
    #637,#638,#639,#640,#641,#642,#643,#644,#645,#646,#647,#648,#649,
    #650,#651,#652,#653,#654,#655,#656,#657,#658,#659,#660),
  .UNSPECIFIED.,.F.,.F.,(12,9,9,12),(0.,0.209393204226,0.604696602113,1.
    ),.UNSPECIFIED.);
#631 = CARTESIAN_POINT('',(2.5,0.,-58.375));
#632 = CARTESIAN_POINT('',(2.5,2.91110104011,-58.37499999999));
#633 = CARTESIAN_POINT('',(2.5,5.763374902673,-58.41470283327));
#634 = CARTESIAN_POINT('',(2.499999999999,8.554850077011,-58.48905521487
    ));
#635 = CARTESIAN_POINT('',(2.500000000001,11.283554290401,
    -58.59300409719));
#636 = CARTESIAN_POINT('',(2.499999999999,13.947516729729,
    -58.72149630137));
#637 = CARTESIAN_POINT('',(2.500000000001,16.544770263016,
    -58.86947815046));
#638 = CARTESIAN_POINT('',(2.5,19.073353661193,-59.03189510022));
#639 = CARTESIAN_POINT('',(2.5,21.531313819496,-59.20369137245));
#640 = CARTESIAN_POINT('',(2.5,23.916707979323,-59.37980958617));
#641 = CARTESIAN_POINT('',(2.5,30.590239508897,-59.88628340746));
#642 = CARTESIAN_POINT('',(2.500000000001,36.62652207941,-60.34439454193
    ));
#643 = CARTESIAN_POINT('',(2.499999999998,40.286529733409,
    -60.58775120007));
#644 = CARTESIAN_POINT('',(2.500000000003,43.654063789796,
    -60.75221713637));
#645 = CARTESIAN_POINT('',(2.499999999996,46.696419211175,
    -60.75982504787));
#646 = CARTESIAN_POINT('',(2.500000000004,49.440135336973,
    -60.68145730301));
#647 = CARTESIAN_POINT('',(2.499999999997,51.837000485293,
    -60.30675132047));
#648 = CARTESIAN_POINT('',(2.500000000001,53.877610663379,
    -59.80779114636));
#649 = CARTESIAN_POINT('',(2.5,55.624238338922,-58.97655350159));
#650 = CARTESIAN_POINT('',(2.5,58.318456920479,-56.63532718598));
#651 = CARTESIAN_POINT('',(2.5,59.315734551043,-52.93009389327));
#652 = CARTESIAN_POINT('',(2.500000000001,59.35914139367,-50.73368210196
    ));
#653 = CARTESIAN_POINT('',(2.499999999999,58.978256367632,
    -48.22082284495));
#654 = CARTESIAN_POINT('',(2.500000000001,58.20103809406,-45.22317017363
    ));
#655 = CARTESIAN_POINT('',(2.499999999999,56.925713542232,
    -41.82366206523));
#656 = CARTESIAN_POINT('',(2.5,55.231277566375,-37.8977379216));
#657 = CARTESIAN_POINT('',(2.5,53.041021611388,-33.45715673933));
#658 = CARTESIAN_POINT('',(2.5,50.369711408603,-28.44864806602));
#659 = CARTESIAN_POINT('',(2.5,47.195940461663,-22.84188031575));
#660 = CARTESIAN_POINT('',(2.5,43.507148510327,-16.60178285747));
#661 = PCURVE('',#102,#662);
#662 = DEFINITIONAL_REPRESENTATION('',(#663),#694);
#663 = B_SPLINE_CURVE_WITH_KNOTS('',11,(#664,#665,#666,#667,#668,#669,
    #670,#671,#672,#673,#674,#675,#676,#677,#678,#679,#680,#681,#682,
    #683,#684,#685,#686,#687,#688,#689,#690,#691,#692,#693),
  .UNSPECIFIED.,.F.,.F.,(12,9,9,12),(0.,0.209393204226,0.604696602113,1.
    ),.UNSPECIFIED.);
#664 = CARTESIAN_POINT('',(-0.375,15.));
#665 = CARTESIAN_POINT('',(-0.374999999997,17.91110104011));
#666 = CARTESIAN_POINT('',(-0.414702833272,20.763374902673));
#667 = CARTESIAN_POINT('',(-0.489055214872,23.554850077011));
#668 = CARTESIAN_POINT('',(-0.593004097193,26.283554290401));
#669 = CARTESIAN_POINT('',(-0.721496301376,28.947516729729));
#670 = CARTESIAN_POINT('',(-0.869478150462,31.544770263016));
#671 = CARTESIAN_POINT('',(-1.031895100223,34.073353661193));
#672 = CARTESIAN_POINT('',(-1.203691372453,36.531313819496));
#673 = CARTESIAN_POINT('',(-1.379809586179,38.916707979323));
#674 = CARTESIAN_POINT('',(-1.88628340746,45.590239508897));
#675 = CARTESIAN_POINT('',(-2.344394541936,51.62652207941));
#676 = CARTESIAN_POINT('',(-2.58775120007,55.286529733409));
#677 = CARTESIAN_POINT('',(-2.752217136375,58.654063789796));
#678 = CARTESIAN_POINT('',(-2.759825047878,61.696419211175));
#679 = CARTESIAN_POINT('',(-2.68145730301,64.440135336973));
#680 = CARTESIAN_POINT('',(-2.306751320471,66.837000485293));
#681 = CARTESIAN_POINT('',(-1.807791146364,68.877610663379));
#682 = CARTESIAN_POINT('',(-0.976553501599,70.624238338922));
#683 = CARTESIAN_POINT('',(1.364672814012,73.318456920478));
#684 = CARTESIAN_POINT('',(5.069906106726,74.315734551043));
#685 = CARTESIAN_POINT('',(7.266317898031,74.35914139367));
#686 = CARTESIAN_POINT('',(9.779177155041,73.978256367632));
#687 = CARTESIAN_POINT('',(12.77682982637,73.20103809406));
#688 = CARTESIAN_POINT('',(16.176337934765,71.925713542232));
#689 = CARTESIAN_POINT('',(20.102262078395,70.231277566375));
#690 = CARTESIAN_POINT('',(24.542843260665,68.041021611388));
#691 = CARTESIAN_POINT('',(29.551351933978,65.369711408603));
#692 = CARTESIAN_POINT('',(35.158119684248,62.195940461663));
#693 = CARTESIAN_POINT('',(41.398217142529,58.507148510327));
#694 = ( GEOMETRIC_REPRESENTATION_CONTEXT(2) 
PARAMETRIC_REPRESENTATION_CONTEXT() REPRESENTATION_CONTEXT('2D SPACE',''
  ) );
#695 = PCURVE('',#127,#696);
#696 = DEFINITIONAL_REPRESENTATION('',(#697),#701);
#697 = LINE('',#698,#699);
#698 = CARTESIAN_POINT('',(5.,0.));
#699 = VECTOR('',#700,1.);
#700 = DIRECTION('',(0.,1.));
#701 = ( GEOMETRIC_REPRESENTATION_CONTEXT(2) 
PARAMETRIC_REPRESENTATION_CONTEXT() REPRESENTATION_CONTEXT('2D SPACE',''
  ) );
#702 = ADVANCED_FACE('',(#703),#236,.F.);
#703 = FACE_BOUND('',#704,.F.);
#704 = EDGE_LOOP('',(#705,#706,#726,#752));
#705 = ORIENTED_EDGE('',*,*,#218,.F.);
#706 = ORIENTED_EDGE('',*,*,#707,.T.);
#707 = EDGE_CURVE('',#199,#708,#710,.T.);
#708 = VERTEX_POINT('',#709);
#709 = CARTESIAN_POINT('',(-2.5,-30.,-57.625));
#710 = SURFACE_CURVE('',#711,(#714,#720),.PCURVE_S1.);
#711 = B_SPLINE_CURVE_WITH_KNOTS('',1,(#712,#713),.UNSPECIFIED.,.F.,.F.,
  (2,2),(0.,5.),.PIECEWISE_BEZIER_KNOTS.);
#712 = CARTESIAN_POINT('',(2.5,-30.,-57.625));
#713 = CARTESIAN_POINT('',(-2.5,-30.,-57.625));
#714 = PCURVE('',#236,#715);
#715 = DEFINITIONAL_REPRESENTATION('',(#716),#719);
#716 = B_SPLINE_CURVE_WITH_KNOTS('',1,(#717,#718),.UNSPECIFIED.,.F.,.F.,
  (2,2),(0.,5.),.PIECEWISE_BEZIER_KNOTS.);
#717 = CARTESIAN_POINT('',(-2.5,-15.));
#718 = CARTESIAN_POINT('',(2.5,-15.));
#719 = ( GEOMETRIC_REPRESENTATION_CONTEXT(2) 
PARAMETRIC_REPRESENTATION_CONTEXT() REPRESENTATION_CONTEXT('2D SPACE',''
  ) );
#720 = PCURVE('',#73,#721);
#721 = DEFINITIONAL_REPRESENTATION('',(#722),#725);
#722 = B_SPLINE_CURVE_WITH_KNOTS('',1,(#723,#724),.UNSPECIFIED.,.F.,.F.,
  (2,2),(0.,5.),.PIECEWISE_BEZIER_KNOTS.);
#723 = CARTESIAN_POINT('',(-0.375,2.5));
#724 = CARTESIAN_POINT('',(-0.375,-2.5));
#725 = ( GEOMETRIC_REPRESENTATION_CONTEXT(2) 
PARAMETRIC_REPRESENTATION_CONTEXT() REPRESENTATION_CONTEXT('2D SPACE',''
  ) );
#726 = ORIENTED_EDGE('',*,*,#727,.T.);
#727 = EDGE_CURVE('',#708,#728,#730,.T.);
#728 = VERTEX_POINT('',#729);
#729 = CARTESIAN_POINT('',(-2.5,3.552713678801E-15,-57.625));
#730 = SURFACE_CURVE('',#731,(#736,#744),.PCURVE_S1.);
#731 = B_SPLINE_CURVE_WITH_KNOTS('',3,(#732,#733,#734,#735),
  .UNSPECIFIED.,.F.,.F.,(4,4),(0.,1.),.PIECEWISE_BEZIER_KNOTS.);
#732 = CARTESIAN_POINT('',(-2.5,-30.,-57.625));
#733 = CARTESIAN_POINT('',(-2.5,-29.9,-57.625));
#734 = CARTESIAN_POINT('',(-2.5,-1.E-01,-57.625));
#735 = CARTESIAN_POINT('',(-2.5,8.881784197001E-15,-57.625));
#736 = PCURVE('',#236,#737);
#737 = DEFINITIONAL_REPRESENTATION('',(#738),#743);
#738 = B_SPLINE_CURVE_WITH_KNOTS('',3,(#739,#740,#741,#742),
  .UNSPECIFIED.,.F.,.F.,(4,4),(0.,1.),.PIECEWISE_BEZIER_KNOTS.);
#739 = CARTESIAN_POINT('',(2.5,-15.));
#740 = CARTESIAN_POINT('',(2.5,-14.9));
#741 = CARTESIAN_POINT('',(2.5,14.9));
#742 = CARTESIAN_POINT('',(2.5,15.));
#743 = ( GEOMETRIC_REPRESENTATION_CONTEXT(2) 
PARAMETRIC_REPRESENTATION_CONTEXT() REPRESENTATION_CONTEXT('2D SPACE',''
  ) );
#744 = PCURVE('',#46,#745);
#745 = DEFINITIONAL_REPRESENTATION('',(#746),#751);
#746 = B_SPLINE_CURVE_WITH_KNOTS('',3,(#747,#748,#749,#750),
  .UNSPECIFIED.,.F.,.F.,(4,4),(0.,1.),.PIECEWISE_BEZIER_KNOTS.);
#747 = CARTESIAN_POINT('',(-0.375,-15.));
#748 = CARTESIAN_POINT('',(-0.375,-14.9));
#749 = CARTESIAN_POINT('',(-0.375,14.9));
#750 = CARTESIAN_POINT('',(-0.375,15.));
#751 = ( GEOMETRIC_REPRESENTATION_CONTEXT(2) 
PARAMETRIC_REPRESENTATION_CONTEXT() REPRESENTATION_CONTEXT('2D SPACE',''
  ) );
#752 = ORIENTED_EDGE('',*,*,#753,.F.);
#753 = EDGE_CURVE('',#219,#728,#754,.T.);
#754 = SURFACE_CURVE('',#755,(#758,#764),.PCURVE_S1.);
#755 = B_SPLINE_CURVE_WITH_KNOTS('',1,(#756,#757),.UNSPECIFIED.,.F.,.F.,
  (2,2),(0.,5.),.PIECEWISE_BEZIER_KNOTS.);
#756 = CARTESIAN_POINT('',(2.5,8.881784197001E-15,-57.625));
#757 = CARTESIAN_POINT('',(-2.5,8.881784197001E-15,-57.625));
#758 = PCURVE('',#236,#759);
#759 = DEFINITIONAL_REPRESENTATION('',(#760),#763);
#760 = B_SPLINE_CURVE_WITH_KNOTS('',1,(#761,#762),.UNSPECIFIED.,.F.,.F.,
  (2,2),(0.,5.),.PIECEWISE_BEZIER_KNOTS.);
#761 = CARTESIAN_POINT('',(-2.5,15.));
#762 = CARTESIAN_POINT('',(2.5,15.));
#763 = ( GEOMETRIC_REPRESENTATION_CONTEXT(2) 
PARAMETRIC_REPRESENTATION_CONTEXT() REPRESENTATION_CONTEXT('2D SPACE',''
  ) );
#764 = PCURVE('',#319,#765);
#765 = DEFINITIONAL_REPRESENTATION('',(#766),#769);
#766 = B_SPLINE_CURVE_WITH_KNOTS('',1,(#767,#768),.UNSPECIFIED.,.F.,.F.,
  (2,2),(0.,5.),.PIECEWISE_BEZIER_KNOTS.);
#767 = CARTESIAN_POINT('',(0.,0.));
#768 = CARTESIAN_POINT('',(5.,0.));
#769 = ( GEOMETRIC_REPRESENTATION_CONTEXT(2) 
PARAMETRIC_REPRESENTATION_CONTEXT() REPRESENTATION_CONTEXT('2D SPACE',''
  ) );
#770 = ADVANCED_FACE('',(#771),#46,.F.);
#771 = FACE_BOUND('',#772,.F.);
#772 = EDGE_LOOP('',(#773,#774,#792,#793,#870,#917,#943,#963,#989,#1036)
  );
#773 = ORIENTED_EDGE('',*,*,#727,.F.);
#774 = ORIENTED_EDGE('',*,*,#775,.T.);
#775 = EDGE_CURVE('',#708,#22,#776,.T.);
#776 = SURFACE_CURVE('',#777,(#780,#786),.PCURVE_S1.);
#777 = B_SPLINE_CURVE_WITH_KNOTS('',1,(#778,#779),.UNSPECIFIED.,.F.,.F.,
  (2,2),(0.,0.75),.PIECEWISE_BEZIER_KNOTS.);
#778 = CARTESIAN_POINT('',(-2.5,-30.,-57.625));
#779 = CARTESIAN_POINT('',(-2.5,-30.,-58.375));
#780 = PCURVE('',#46,#781);
#781 = DEFINITIONAL_REPRESENTATION('',(#782),#785);
#782 = B_SPLINE_CURVE_WITH_KNOTS('',1,(#783,#784),.UNSPECIFIED.,.F.,.F.,
  (2,2),(0.,0.75),.PIECEWISE_BEZIER_KNOTS.);
#783 = CARTESIAN_POINT('',(-0.375,-15.));
#784 = CARTESIAN_POINT('',(0.375,-15.));
#785 = ( GEOMETRIC_REPRESENTATION_CONTEXT(2) 
PARAMETRIC_REPRESENTATION_CONTEXT() REPRESENTATION_CONTEXT('2D SPACE',''
  ) );
#786 = PCURVE('',#73,#787);
#787 = DEFINITIONAL_REPRESENTATION('',(#788),#791);
#788 = B_SPLINE_CURVE_WITH_KNOTS('',1,(#789,#790),.UNSPECIFIED.,.F.,.F.,
  (2,2),(0.,0.75),.PIECEWISE_BEZIER_KNOTS.);
#789 = CARTESIAN_POINT('',(-0.375,-2.5));
#790 = CARTESIAN_POINT('',(0.375,-2.5));
#791 = ( GEOMETRIC_REPRESENTATION_CONTEXT(2) 
PARAMETRIC_REPRESENTATION_CONTEXT() REPRESENTATION_CONTEXT('2D SPACE',''
  ) );
#792 = ORIENTED_EDGE('',*,*,#21,.T.);
#793 = ORIENTED_EDGE('',*,*,#794,.T.);
#794 = EDGE_CURVE('',#24,#795,#797,.T.);
#795 = VERTEX_POINT('',#796);
#796 = CARTESIAN_POINT('',(-2.5,43.507148510327,-16.60178285747));
#797 = SURFACE_CURVE('',#798,(#829,#863),.PCURVE_S1.);
#798 = B_SPLINE_CURVE_WITH_KNOTS('',11,(#799,#800,#801,#802,#803,#804,
    #805,#806,#807,#808,#809,#810,#811,#812,#813,#814,#815,#816,#817,
    #818,#819,#820,#821,#822,#823,#824,#825,#826,#827,#828),
  .UNSPECIFIED.,.F.,.F.,(12,9,9,12),(0.,0.209393204226,0.604696602113,1.
    ),.UNSPECIFIED.);
#799 = CARTESIAN_POINT('',(-2.5,0.,-58.375));
#800 = CARTESIAN_POINT('',(-2.5,2.91110104011,-58.37499999999));
#801 = CARTESIAN_POINT('',(-2.5,5.763374902673,-58.41470283327));
#802 = CARTESIAN_POINT('',(-2.499999999999,8.554850077011,
    -58.48905521487));
#803 = CARTESIAN_POINT('',(-2.500000000001,11.283554290401,
    -58.59300409719));
#804 = CARTESIAN_POINT('',(-2.499999999999,13.947516729729,
    -58.72149630137));
#805 = CARTESIAN_POINT('',(-2.500000000001,16.544770263016,
    -58.86947815046));
#806 = CARTESIAN_POINT('',(-2.5,19.073353661193,-59.03189510022));
#807 = CARTESIAN_POINT('',(-2.5,21.531313819496,-59.20369137245));
#808 = CARTESIAN_POINT('',(-2.5,23.916707979323,-59.37980958617));
#809 = CARTESIAN_POINT('',(-2.5,30.590239508897,-59.88628340746));
#810 = CARTESIAN_POINT('',(-2.500000000001,36.62652207941,
    -60.34439454193));
#811 = CARTESIAN_POINT('',(-2.499999999998,40.286529733409,
    -60.58775120007));
#812 = CARTESIAN_POINT('',(-2.500000000003,43.654063789796,
    -60.75221713636));
#813 = CARTESIAN_POINT('',(-2.499999999996,46.696419211175,
    -60.75982504789));
#814 = CARTESIAN_POINT('',(-2.500000000004,49.440135336973,
    -60.68145730299));
#815 = CARTESIAN_POINT('',(-2.499999999997,51.837000485293,
    -60.30675132047));
#816 = CARTESIAN_POINT('',(-2.500000000001,53.877610663379,
    -59.80779114636));
#817 = CARTESIAN_POINT('',(-2.5,55.624238338922,-58.9765535016));
#818 = CARTESIAN_POINT('',(-2.5,58.318456920479,-56.63532718598));
#819 = CARTESIAN_POINT('',(-2.5,59.315734551043,-52.93009389327));
#820 = CARTESIAN_POINT('',(-2.500000000001,59.35914139367,
    -50.73368210196));
#821 = CARTESIAN_POINT('',(-2.499999999999,58.978256367632,
    -48.22082284496));
#822 = CARTESIAN_POINT('',(-2.500000000001,58.20103809406,
    -45.22317017362));
#823 = CARTESIAN_POINT('',(-2.499999999999,56.925713542232,
    -41.82366206524));
#824 = CARTESIAN_POINT('',(-2.5,55.231277566375,-37.8977379216));
#825 = CARTESIAN_POINT('',(-2.5,53.041021611388,-33.45715673933));
#826 = CARTESIAN_POINT('',(-2.5,50.369711408603,-28.44864806602));
#827 = CARTESIAN_POINT('',(-2.5,47.195940461663,-22.84188031575));
#828 = CARTESIAN_POINT('',(-2.5,43.507148510327,-16.60178285747));
#829 = PCURVE('',#46,#830);
#830 = DEFINITIONAL_REPRESENTATION('',(#831),#862);
#831 = B_SPLINE_CURVE_WITH_KNOTS('',11,(#832,#833,#834,#835,#836,#837,
    #838,#839,#840,#841,#842,#843,#844,#845,#846,#847,#848,#849,#850,
    #851,#852,#853,#854,#855,#856,#857,#858,#859,#860,#861),
  .UNSPECIFIED.,.F.,.F.,(12,9,9,12),(0.,0.209393204226,0.604696602113,1.
    ),.UNSPECIFIED.);
#832 = CARTESIAN_POINT('',(0.375,15.));
#833 = CARTESIAN_POINT('',(0.374999999997,17.91110104011));
#834 = CARTESIAN_POINT('',(0.414702833272,20.763374902673));
#835 = CARTESIAN_POINT('',(0.489055214871,23.554850077011));
#836 = CARTESIAN_POINT('',(0.593004097194,26.283554290401));
#837 = CARTESIAN_POINT('',(0.721496301375,28.947516729729));
#838 = CARTESIAN_POINT('',(0.869478150463,31.544770263016));
#839 = CARTESIAN_POINT('',(1.031895100222,34.073353661193));
#840 = CARTESIAN_POINT('',(1.203691372454,36.531313819496));
#841 = CARTESIAN_POINT('',(1.379809586179,38.916707979323));
#842 = CARTESIAN_POINT('',(1.88628340746,45.590239508897));
#843 = CARTESIAN_POINT('',(2.344394541935,51.62652207941));
#844 = CARTESIAN_POINT('',(2.587751200074,55.286529733409));
#845 = CARTESIAN_POINT('',(2.752217136366,58.654063789796));
#846 = CARTESIAN_POINT('',(2.75982504789,61.696419211175));
#847 = CARTESIAN_POINT('',(2.681457302999,64.440135336973));
#848 = CARTESIAN_POINT('',(2.306751320478,66.837000485293));
#849 = CARTESIAN_POINT('',(1.807791146361,68.877610663379));
#850 = CARTESIAN_POINT('',(0.9765535016,70.624238338922));
#851 = CARTESIAN_POINT('',(-1.364672814013,73.318456920478));
#852 = CARTESIAN_POINT('',(-5.069906106725,74.315734551043));
#853 = CARTESIAN_POINT('',(-7.266317898034,74.35914139367));
#854 = CARTESIAN_POINT('',(-9.779177155035,73.978256367632));
#855 = CARTESIAN_POINT('',(-12.77682982637,73.20103809406));
#856 = CARTESIAN_POINT('',(-16.17633793475,71.925713542232));
#857 = CARTESIAN_POINT('',(-20.1022620784,70.231277566375));
#858 = CARTESIAN_POINT('',(-24.54284326066,68.041021611388));
#859 = CARTESIAN_POINT('',(-29.55135193397,65.369711408603));
#860 = CARTESIAN_POINT('',(-35.15811968424,62.195940461663));
#861 = CARTESIAN_POINT('',(-41.39821714252,58.507148510327));
#862 = ( GEOMETRIC_REPRESENTATION_CONTEXT(2) 
PARAMETRIC_REPRESENTATION_CONTEXT() REPRESENTATION_CONTEXT('2D SPACE',''
  ) );
#863 = PCURVE('',#127,#864);
#864 = DEFINITIONAL_REPRESENTATION('',(#865),#869);
#865 = LINE('',#866,#867);
#866 = CARTESIAN_POINT('',(0.,0.));
#867 = VECTOR('',#868,1.);
#868 = DIRECTION('',(0.,1.));
#869 = ( GEOMETRIC_REPRESENTATION_CONTEXT(2) 
PARAMETRIC_REPRESENTATION_CONTEXT() REPRESENTATION_CONTEXT('2D SPACE',''
  ) );
#870 = ORIENTED_EDGE('',*,*,#871,.T.);
#871 = EDGE_CURVE('',#795,#872,#874,.T.);
#872 = VERTEX_POINT('',#873);
#873 = CARTESIAN_POINT('',(-2.5,54.,51.625));
#874 = SURFACE_CURVE('',#875,(#891,#910),.PCURVE_S1.);
#875 = B_SPLINE_CURVE_WITH_KNOTS('',8,(#876,#877,#878,#879,#880,#881,
    #882,#883,#884,#885,#886,#887,#888,#889,#890),.UNSPECIFIED.,.F.,.F.,
  (9,6,9),(0.,0.5,1.),.UNSPECIFIED.);
#876 = CARTESIAN_POINT('',(-2.5,43.507148510327,-16.60178285747));
#877 = CARTESIAN_POINT('',(-2.5,37.036640851273,-5.656031801375));
#878 = CARTESIAN_POINT('',(-2.5,32.152217481742,3.996770762991));
#879 = CARTESIAN_POINT('',(-2.5,28.713310313628,12.440229287936));
#880 = CARTESIAN_POINT('',(-2.5,26.578113417752,19.752789714259));
#881 = CARTESIAN_POINT('',(-2.5,25.605872624107,26.026687627315));
#882 = CARTESIAN_POINT('',(-2.5,25.655177936137,31.322807606868));
#883 = CARTESIAN_POINT('',(-2.5,27.469525827824,40.152858068067));
#884 = CARTESIAN_POINT('',(-2.5,32.16711777123,45.864938420797));
#885 = CARTESIAN_POINT('',(-2.5,35.096665607549,48.04257841648));
#886 = CARTESIAN_POINT('',(-2.5,38.501963179085,49.646696869231));
#887 = CARTESIAN_POINT('',(-2.5,42.240891119221,50.715553130212));
#888 = CARTESIAN_POINT('',(-2.5,46.163708251098,51.349923127644));
#889 = CARTESIAN_POINT('',(-2.5,50.13108562883,51.625));
#890 = CARTESIAN_POINT('',(-2.5,54.,51.625));
#891 = PCURVE('',#46,#892);
#892 = DEFINITIONAL_REPRESENTATION('',(#893),#909);
#893 = B_SPLINE_CURVE_WITH_KNOTS('',8,(#894,#895,#896,#897,#898,#899,
    #900,#901,#902,#903,#904,#905,#906,#907,#908),.UNSPECIFIED.,.F.,.F.,
  (9,6,9),(0.,0.5,1.),.UNSPECIFIED.);
#894 = CARTESIAN_POINT('',(-41.39821714252,58.507148510327));
#895 = CARTESIAN_POINT('',(-52.34396819862,52.036640851273));
#896 = CARTESIAN_POINT('',(-61.99677076299,47.152217481742));
#897 = CARTESIAN_POINT('',(-70.44022928793,43.713310313628));
#898 = CARTESIAN_POINT('',(-77.75278971425,41.578113417752));
#899 = CARTESIAN_POINT('',(-84.02668762731,40.605872624107));
#900 = CARTESIAN_POINT('',(-89.32280760686,40.655177936137));
#901 = CARTESIAN_POINT('',(-98.15285806806,42.469525827824));
#902 = CARTESIAN_POINT('',(-103.8649384207,47.16711777123));
#903 = CARTESIAN_POINT('',(-106.0425784164,50.096665607549));
#904 = CARTESIAN_POINT('',(-107.6466968692,53.501963179085));
#905 = CARTESIAN_POINT('',(-108.7155531302,57.240891119221));
#906 = CARTESIAN_POINT('',(-109.3499231276,61.163708251098));
#907 = CARTESIAN_POINT('',(-109.625,65.13108562883));
#908 = CARTESIAN_POINT('',(-109.625,69.));
#909 = ( GEOMETRIC_REPRESENTATION_CONTEXT(2) 
PARAMETRIC_REPRESENTATION_CONTEXT() REPRESENTATION_CONTEXT('2D SPACE',''
  ) );
#910 = PCURVE('',#590,#911);
#911 = DEFINITIONAL_REPRESENTATION('',(#912),#916);
#912 = LINE('',#913,#914);
#913 = CARTESIAN_POINT('',(0.,0.));
#914 = VECTOR('',#915,1.);
#915 = DIRECTION('',(0.,1.));
#916 = ( GEOMETRIC_REPRESENTATION_CONTEXT(2) 
PARAMETRIC_REPRESENTATION_CONTEXT() REPRESENTATION_CONTEXT('2D SPACE',''
  ) );
#917 = ORIENTED_EDGE('',*,*,#918,.T.);
#918 = EDGE_CURVE('',#872,#919,#921,.T.);
#919 = VERTEX_POINT('',#920);
#920 = CARTESIAN_POINT('',(-2.5,69.,51.625));
#921 = SURFACE_CURVE('',#922,(#927,#935),.PCURVE_S1.);
#922 = B_SPLINE_CURVE_WITH_KNOTS('',3,(#923,#924,#925,#926),
  .UNSPECIFIED.,.F.,.F.,(4,4),(0.,1.),.PIECEWISE_BEZIER_KNOTS.);
#923 = CARTESIAN_POINT('',(-2.5,54.,51.625));
#924 = CARTESIAN_POINT('',(-2.5,55.,51.625));
#925 = CARTESIAN_POINT('',(-2.5,68.9,51.625));
#926 = CARTESIAN_POINT('',(-2.5,69.,51.625));
#927 = PCURVE('',#46,#928);
#928 = DEFINITIONAL_REPRESENTATION('',(#929),#934);
#929 = B_SPLINE_CURVE_WITH_KNOTS('',3,(#930,#931,#932,#933),
  .UNSPECIFIED.,.F.,.F.,(4,4),(0.,1.),.PIECEWISE_BEZIER_KNOTS.);
#930 = CARTESIAN_POINT('',(-109.625,69.));
#931 = CARTESIAN_POINT('',(-109.625,70.));
#932 = CARTESIAN_POINT('',(-109.625,83.9));
#933 = CARTESIAN_POINT('',(-109.625,84.));
#934 = ( GEOMETRIC_REPRESENTATION_CONTEXT(2) 
PARAMETRIC_REPRESENTATION_CONTEXT() REPRESENTATION_CONTEXT('2D SPACE',''
  ) );
#935 = PCURVE('',#537,#936);
#936 = DEFINITIONAL_REPRESENTATION('',(#937),#942);
#937 = B_SPLINE_CURVE_WITH_KNOTS('',3,(#938,#939,#940,#941),
  .UNSPECIFIED.,.F.,.F.,(4,4),(0.,1.),.PIECEWISE_BEZIER_KNOTS.);
#938 = CARTESIAN_POINT('',(-2.5,-7.7025));
#939 = CARTESIAN_POINT('',(-2.5,-6.7025));
#940 = CARTESIAN_POINT('',(-2.5,7.1975));
#941 = CARTESIAN_POINT('',(-2.5,7.2975));
#942 = ( GEOMETRIC_REPRESENTATION_CONTEXT(2) 
PARAMETRIC_REPRESENTATION_CONTEXT() REPRESENTATION_CONTEXT('2D SPACE',''
  ) );
#943 = ORIENTED_EDGE('',*,*,#944,.F.);
#944 = EDGE_CURVE('',#945,#919,#947,.T.);
#945 = VERTEX_POINT('',#946);
#946 = CARTESIAN_POINT('',(-2.5,69.,52.375));
#947 = SURFACE_CURVE('',#948,(#951,#957),.PCURVE_S1.);
#948 = B_SPLINE_CURVE_WITH_KNOTS('',1,(#949,#950),.UNSPECIFIED.,.F.,.F.,
  (2,2),(0.,0.75),.PIECEWISE_BEZIER_KNOTS.);
#949 = CARTESIAN_POINT('',(-2.5,69.,52.375));
#950 = CARTESIAN_POINT('',(-2.5,69.,51.625));
#951 = PCURVE('',#46,#952);
#952 = DEFINITIONAL_REPRESENTATION('',(#953),#956);
#953 = B_SPLINE_CURVE_WITH_KNOTS('',1,(#954,#955),.UNSPECIFIED.,.F.,.F.,
  (2,2),(0.,0.75),.PIECEWISE_BEZIER_KNOTS.);
#954 = CARTESIAN_POINT('',(-110.375,84.));
#955 = CARTESIAN_POINT('',(-109.625,84.));
#956 = ( GEOMETRIC_REPRESENTATION_CONTEXT(2) 
PARAMETRIC_REPRESENTATION_CONTEXT() REPRESENTATION_CONTEXT('2D SPACE',''
  ) );
#957 = PCURVE('',#508,#958);
#958 = DEFINITIONAL_REPRESENTATION('',(#959),#962);
#959 = B_SPLINE_CURVE_WITH_KNOTS('',1,(#960,#961),.UNSPECIFIED.,.F.,.F.,
  (2,2),(0.,0.75),.PIECEWISE_BEZIER_KNOTS.);
#960 = CARTESIAN_POINT('',(-0.375,-2.5));
#961 = CARTESIAN_POINT('',(0.375,-2.5));
#962 = ( GEOMETRIC_REPRESENTATION_CONTEXT(2) 
PARAMETRIC_REPRESENTATION_CONTEXT() REPRESENTATION_CONTEXT('2D SPACE',''
  ) );
#963 = ORIENTED_EDGE('',*,*,#964,.F.);
#964 = EDGE_CURVE('',#965,#945,#967,.T.);
#965 = VERTEX_POINT('',#966);
#966 = CARTESIAN_POINT('',(-2.5,54.,52.375));
#967 = SURFACE_CURVE('',#968,(#973,#981),.PCURVE_S1.);
#968 = B_SPLINE_CURVE_WITH_KNOTS('',3,(#969,#970,#971,#972),
  .UNSPECIFIED.,.F.,.F.,(4,4),(0.,1.),.PIECEWISE_BEZIER_KNOTS.);
#969 = CARTESIAN_POINT('',(-2.5,54.,52.375));
#970 = CARTESIAN_POINT('',(-2.5,55.,52.375));
#971 = CARTESIAN_POINT('',(-2.5,68.9,52.375));
#972 = CARTESIAN_POINT('',(-2.5,69.,52.375));
#973 = PCURVE('',#46,#974);
#974 = DEFINITIONAL_REPRESENTATION('',(#975),#980);
#975 = B_SPLINE_CURVE_WITH_KNOTS('',3,(#976,#977,#978,#979),
  .UNSPECIFIED.,.F.,.F.,(4,4),(0.,1.),.PIECEWISE_BEZIER_KNOTS.);
#976 = CARTESIAN_POINT('',(-110.375,69.));
#977 = CARTESIAN_POINT('',(-110.375,70.));
#978 = CARTESIAN_POINT('',(-110.375,83.9));
#979 = CARTESIAN_POINT('',(-110.375,84.));
#980 = ( GEOMETRIC_REPRESENTATION_CONTEXT(2) 
PARAMETRIC_REPRESENTATION_CONTEXT() REPRESENTATION_CONTEXT('2D SPACE',''
  ) );
#981 = PCURVE('',#481,#982);
#982 = DEFINITIONAL_REPRESENTATION('',(#983),#988);
#983 = B_SPLINE_CURVE_WITH_KNOTS('',3,(#984,#985,#986,#987),
  .UNSPECIFIED.,.F.,.F.,(4,4),(0.,1.),.PIECEWISE_BEZIER_KNOTS.);
#984 = CARTESIAN_POINT('',(2.5,-7.7025));
#985 = CARTESIAN_POINT('',(2.5,-6.7025));
#986 = CARTESIAN_POINT('',(2.5,7.1975));
#987 = CARTESIAN_POINT('',(2.5,7.2975));
#988 = ( GEOMETRIC_REPRESENTATION_CONTEXT(2) 
PARAMETRIC_REPRESENTATION_CONTEXT() REPRESENTATION_CONTEXT('2D SPACE',''
  ) );
#989 = ORIENTED_EDGE('',*,*,#990,.F.);
#990 = EDGE_CURVE('',#991,#965,#993,.T.);
#991 = VERTEX_POINT('',#992);
#992 = CARTESIAN_POINT('',(-2.5,42.861519858238,-16.9834419247));
#993 = SURFACE_CURVE('',#994,(#1010,#1029),.PCURVE_S1.);
#994 = B_SPLINE_CURVE_WITH_KNOTS('',8,(#995,#996,#997,#998,#999,#1000,
    #1001,#1002,#1003,#1004,#1005,#1006,#1007,#1008,#1009),
  .UNSPECIFIED.,.F.,.F.,(9,6,9),(0.,0.5,1.),.UNSPECIFIED.);
#995 = CARTESIAN_POINT('',(-2.5,42.861519858238,-16.9834419247));
#996 = CARTESIAN_POINT('',(-2.5,36.372432891527,-6.006261421783));
#997 = CARTESIAN_POINT('',(-2.5,31.467343965816,3.685491362673));
#998 = CARTESIAN_POINT('',(-2.5,28.005427474183,12.176954064256));
#999 = CARTESIAN_POINT('',(-2.5,25.847095650766,19.558422830065));
#1000 = CARTESIAN_POINT('',(-2.5,24.851708970545,25.90640416265));
#1001 = CARTESIAN_POINT('',(-2.5,24.879283735036,31.328755570146));
#1002 = CARTESIAN_POINT('',(-2.5,26.744923707107,40.46631634167));
#1003 = CARTESIAN_POINT('',(-2.5,31.654200268747,46.458152490514));
#1004 = CARTESIAN_POINT('',(-2.5,34.728413150241,48.735289150733));
#1005 = CARTESIAN_POINT('',(-2.5,38.245809066771,50.3575078469));
#1006 = CARTESIAN_POINT('',(-2.5,42.067113689925,51.455291315755));
#1007 = CARTESIAN_POINT('',(-2.5,46.060674501523,52.096605716979));
#1008 = CARTESIAN_POINT('',(-2.5,50.08442675242,52.375));
#1009 = CARTESIAN_POINT('',(-2.5,54.,52.375));
#1010 = PCURVE('',#46,#1011);
#1011 = DEFINITIONAL_REPRESENTATION('',(#1012),#1028);
#1012 = B_SPLINE_CURVE_WITH_KNOTS('',8,(#1013,#1014,#1015,#1016,#1017,
    #1018,#1019,#1020,#1021,#1022,#1023,#1024,#1025,#1026,#1027),
  .UNSPECIFIED.,.F.,.F.,(9,6,9),(0.,0.5,1.),.UNSPECIFIED.);
#1013 = CARTESIAN_POINT('',(-41.01655807529,57.861519858238));
#1014 = CARTESIAN_POINT('',(-51.99373857821,51.372432891527));
#1015 = CARTESIAN_POINT('',(-61.68549136267,46.467343965816));
#1016 = CARTESIAN_POINT('',(-70.17695406425,43.005427474183));
#1017 = CARTESIAN_POINT('',(-77.55842283006,40.847095650766));
#1018 = CARTESIAN_POINT('',(-83.90640416265,39.851708970545));
#1019 = CARTESIAN_POINT('',(-89.32875557014,39.879283735036));
#1020 = CARTESIAN_POINT('',(-98.46631634167,41.744923707107));
#1021 = CARTESIAN_POINT('',(-104.4581524905,46.654200268747));
#1022 = CARTESIAN_POINT('',(-106.7352891507,49.728413150241));
#1023 = CARTESIAN_POINT('',(-108.3575078469,53.245809066771));
#1024 = CARTESIAN_POINT('',(-109.4552913157,57.067113689925));
#1025 = CARTESIAN_POINT('',(-110.0966057169,61.060674501523));
#1026 = CARTESIAN_POINT('',(-110.375,65.08442675242));
#1027 = CARTESIAN_POINT('',(-110.375,69.));
#1028 = ( GEOMETRIC_REPRESENTATION_CONTEXT(2) 
PARAMETRIC_REPRESENTATION_CONTEXT() REPRESENTATION_CONTEXT('2D SPACE',''
  ) );
#1029 = PCURVE('',#426,#1030);
#1030 = DEFINITIONAL_REPRESENTATION('',(#1031),#1035);
#1031 = LINE('',#1032,#1033);
#1032 = CARTESIAN_POINT('',(5.,0.));
#1033 = VECTOR('',#1034,1.);
#1034 = DIRECTION('',(0.,1.));
#1035 = ( GEOMETRIC_REPRESENTATION_CONTEXT(2) 
PARAMETRIC_REPRESENTATION_CONTEXT() REPRESENTATION_CONTEXT('2D SPACE',''
  ) );
#1036 = ORIENTED_EDGE('',*,*,#1037,.F.);
#1037 = EDGE_CURVE('',#728,#991,#1038,.T.);
#1038 = SURFACE_CURVE('',#1039,(#1070,#1104),.PCURVE_S1.);
#1039 = B_SPLINE_CURVE_WITH_KNOTS('',11,(#1040,#1041,#1042,#1043,#1044,
    #1045,#1046,#1047,#1048,#1049,#1050,#1051,#1052,#1053,#1054,#1055,
    #1056,#1057,#1058,#1059,#1060,#1061,#1062,#1063,#1064,#1065,#1066,
    #1067,#1068,#1069),.UNSPECIFIED.,.F.,.F.,(12,9,9,12),(0.,
    0.209393204226,0.604696602113,1.),.UNSPECIFIED.);
#1040 = CARTESIAN_POINT('',(-2.5,-1.7763568394E-15,-57.625));
#1041 = CARTESIAN_POINT('',(-2.5,2.920399966259,-57.62499999999));
#1042 = CARTESIAN_POINT('',(-2.5,5.781283490462,-57.66482965598));
#1043 = CARTESIAN_POINT('',(-2.499999999999,8.580642259903,
    -57.7394053309));
#1044 = CARTESIAN_POINT('',(-2.500000000001,11.316468723927,
    -57.84364315093));
#1045 = CARTESIAN_POINT('',(-2.499999999999,13.986753872276,
    -57.97245937247));
#1046 = CARTESIAN_POINT('',(-2.500000000001,16.589485013514,
    -58.12077075142));
#1047 = CARTESIAN_POINT('',(-2.5,19.122643553394,-58.28349490943));
#1048 = CARTESIAN_POINT('',(-2.5,21.584202773213,-58.45555070344));
#1049 = CARTESIAN_POINT('',(-2.5,23.972125608275,-58.6318585923));
#1050 = CARTESIAN_POINT('',(-2.5,30.649523531643,-59.13862584551));
#1051 = CARTESIAN_POINT('',(-2.500000000001,36.678506922558,
    -59.5961830239));
#1052 = CARTESIAN_POINT('',(-2.499999999998,40.329618985124,
    -59.84151680775));
#1053 = CARTESIAN_POINT('',(-2.500000000003,43.670218692652,
    -59.98763532456));
#1054 = CARTESIAN_POINT('',(-2.499999999996,46.706233725739,
    -60.04430185354));
#1055 = CARTESIAN_POINT('',(-2.500000000004,49.384347389975,
    -59.87243000462));
#1056 = CARTESIAN_POINT('',(-2.499999999997,51.725994010088,
    -59.61417833487));
#1057 = CARTESIAN_POINT('',(-2.500000000001,53.713800223712,
    -59.02925877639));
#1058 = CARTESIAN_POINT('',(-2.5,55.258716206547,-58.25749058473));
#1059 = CARTESIAN_POINT('',(-2.5,57.620284763498,-56.21804497458));
#1060 = CARTESIAN_POINT('',(-2.5,58.517084490503,-52.92046974388));
#1061 = CARTESIAN_POINT('',(-2.500000000001,58.603511525425,
    -50.89173910123));
#1062 = CARTESIAN_POINT('',(-2.499999999999,58.270248271625,
    -48.387513729));
#1063 = CARTESIAN_POINT('',(-2.500000000001,57.462558752133,
    -45.5079355532));
#1064 = CARTESIAN_POINT('',(-2.499999999999,56.255438641348,
    -42.10186257327));
#1065 = CARTESIAN_POINT('',(-2.5,54.543115729299,-38.22565136498));
#1066 = CARTESIAN_POINT('',(-2.5,52.375521214798,-33.79933890839));
#1067 = CARTESIAN_POINT('',(-2.5,49.711112010633,-28.80799163336));
#1068 = CARTESIAN_POINT('',(-2.5,46.544517257036,-23.21373710271));
#1069 = CARTESIAN_POINT('',(-2.5,42.861519858238,-16.9834419247));
#1070 = PCURVE('',#46,#1071);
#1071 = DEFINITIONAL_REPRESENTATION('',(#1072),#1103);
#1072 = B_SPLINE_CURVE_WITH_KNOTS('',11,(#1073,#1074,#1075,#1076,#1077,
    #1078,#1079,#1080,#1081,#1082,#1083,#1084,#1085,#1086,#1087,#1088,
    #1089,#1090,#1091,#1092,#1093,#1094,#1095,#1096,#1097,#1098,#1099,
    #1100,#1101,#1102),.UNSPECIFIED.,.F.,.F.,(12,9,9,12),(0.,
    0.209393204226,0.604696602113,1.),.UNSPECIFIED.);
#1073 = CARTESIAN_POINT('',(-0.375,15.));
#1074 = CARTESIAN_POINT('',(-0.375000000005,17.920399966259));
#1075 = CARTESIAN_POINT('',(-0.335170344017,20.781283490462));
#1076 = CARTESIAN_POINT('',(-0.260594669096,23.580642259903));
#1077 = CARTESIAN_POINT('',(-0.156356849061,26.316468723927));
#1078 = CARTESIAN_POINT('',(-2.754062753043E-02,28.986753872276));
#1079 = CARTESIAN_POINT('',(0.12077075142,31.589485013514));
#1080 = CARTESIAN_POINT('',(0.283494909439,34.122643553394));
#1081 = CARTESIAN_POINT('',(0.455550703445,36.584202773213));
#1082 = CARTESIAN_POINT('',(0.631858592304,38.972125608275));
#1083 = CARTESIAN_POINT('',(1.138625845516,45.649523531643));
#1084 = CARTESIAN_POINT('',(1.596183023907,51.678506922558));
#1085 = CARTESIAN_POINT('',(1.841516807752,55.329618985124));
#1086 = CARTESIAN_POINT('',(1.987635324568,58.670218692652));
#1087 = CARTESIAN_POINT('',(2.044301853544,61.706233725739));
#1088 = CARTESIAN_POINT('',(1.872430004621,64.384347389975));
#1089 = CARTESIAN_POINT('',(1.614178334878,66.725994010088));
#1090 = CARTESIAN_POINT('',(1.029258776399,68.713800223712));
#1091 = CARTESIAN_POINT('',(0.257490584734,70.258716206547));
#1092 = CARTESIAN_POINT('',(-1.781955025412,72.620284763498));
#1093 = CARTESIAN_POINT('',(-5.079530256111,73.517084490503));
#1094 = CARTESIAN_POINT('',(-7.108260898763,73.603511525425));
#1095 = CARTESIAN_POINT('',(-9.612486270998,73.270248271625));
#1096 = CARTESIAN_POINT('',(-12.49206444679,72.462558752133));
#1097 = CARTESIAN_POINT('',(-15.89813742672,71.255438641348));
#1098 = CARTESIAN_POINT('',(-19.77434863501,69.543115729299));
#1099 = CARTESIAN_POINT('',(-24.2006610916,67.375521214798));
#1100 = CARTESIAN_POINT('',(-29.19200836663,64.711112010633));
#1101 = CARTESIAN_POINT('',(-34.78626289728,61.544517257036));
#1102 = CARTESIAN_POINT('',(-41.01655807529,57.861519858238));
#1103 = ( GEOMETRIC_REPRESENTATION_CONTEXT(2) 
PARAMETRIC_REPRESENTATION_CONTEXT() REPRESENTATION_CONTEXT('2D SPACE',''
  ) );
#1104 = PCURVE('',#319,#1105);
#1105 = DEFINITIONAL_REPRESENTATION('',(#1106),#1110);
#1106 = LINE('',#1107,#1108);
#1107 = CARTESIAN_POINT('',(5.,0.));
#1108 = VECTOR('',#1109,1.);
#1109 = DIRECTION('',(0.,1.));
#1110 = ( GEOMETRIC_REPRESENTATION_CONTEXT(2) 
PARAMETRIC_REPRESENTATION_CONTEXT() REPRESENTATION_CONTEXT('2D SPACE',''
  ) );
#1111 = ADVANCED_FACE('',(#1112),#127,.F.);
#1112 = FACE_BOUND('',#1113,.F.);
#1113 = EDGE_LOOP('',(#1114,#1115,#1116,#1117));
#1114 = ORIENTED_EDGE('',*,*,#794,.F.);
#1115 = ORIENTED_EDGE('',*,*,#115,.T.);
#1116 = ORIENTED_EDGE('',*,*,#628,.T.);
#1117 = ORIENTED_EDGE('',*,*,#1118,.F.);
#1118 = EDGE_CURVE('',#795,#551,#1119,.T.);
#1119 = SURFACE_CURVE('',#1120,(#1123,#1130),.PCURVE_S1.);
#1120 = B_SPLINE_CURVE_WITH_KNOTS('',1,(#1121,#1122),.UNSPECIFIED.,.F.,
  .F.,(2,2),(0.,5.),.PIECEWISE_BEZIER_KNOTS.);
#1121 = CARTESIAN_POINT('',(-2.5,43.507148510327,-16.60178285747));
#1122 = CARTESIAN_POINT('',(2.5,43.507148510327,-16.60178285747));
#1123 = PCURVE('',#127,#1124);
#1124 = DEFINITIONAL_REPRESENTATION('',(#1125),#1129);
#1125 = LINE('',#1126,#1127);
#1126 = CARTESIAN_POINT('',(0.,1.));
#1127 = VECTOR('',#1128,1.);
#1128 = DIRECTION('',(1.,0.));
#1129 = ( GEOMETRIC_REPRESENTATION_CONTEXT(2) 
PARAMETRIC_REPRESENTATION_CONTEXT() REPRESENTATION_CONTEXT('2D SPACE',''
  ) );
#1130 = PCURVE('',#590,#1131);
#1131 = DEFINITIONAL_REPRESENTATION('',(#1132),#1135);
#1132 = B_SPLINE_CURVE_WITH_KNOTS('',1,(#1133,#1134),.UNSPECIFIED.,.F.,
  .F.,(2,2),(0.,5.),.PIECEWISE_BEZIER_KNOTS.);
#1133 = CARTESIAN_POINT('',(0.,0.));
#1134 = CARTESIAN_POINT('',(5.,0.));
#1135 = ( GEOMETRIC_REPRESENTATION_CONTEXT(2) 
PARAMETRIC_REPRESENTATION_CONTEXT() REPRESENTATION_CONTEXT('2D SPACE',''
  ) );
#1136 = ADVANCED_FACE('',(#1137),#319,.F.);
#1137 = FACE_BOUND('',#1138,.F.);
#1138 = EDGE_LOOP('',(#1139,#1140,#1141,#1142));
#1139 = ORIENTED_EDGE('',*,*,#249,.F.);
#1140 = ORIENTED_EDGE('',*,*,#753,.T.);
#1141 = ORIENTED_EDGE('',*,*,#1037,.T.);
#1142 = ORIENTED_EDGE('',*,*,#1143,.F.);
#1143 = EDGE_CURVE('',#250,#991,#1144,.T.);
#1144 = SURFACE_CURVE('',#1145,(#1148,#1155),.PCURVE_S1.);
#1145 = B_SPLINE_CURVE_WITH_KNOTS('',1,(#1146,#1147),.UNSPECIFIED.,.F.,
  .F.,(2,2),(0.,5.),.PIECEWISE_BEZIER_KNOTS.);
#1146 = CARTESIAN_POINT('',(2.5,42.861519858238,-16.9834419247));
#1147 = CARTESIAN_POINT('',(-2.5,42.861519858238,-16.9834419247));
#1148 = PCURVE('',#319,#1149);
#1149 = DEFINITIONAL_REPRESENTATION('',(#1150),#1154);
#1150 = LINE('',#1151,#1152);
#1151 = CARTESIAN_POINT('',(0.,1.));
#1152 = VECTOR('',#1153,1.);
#1153 = DIRECTION('',(1.,0.));
#1154 = ( GEOMETRIC_REPRESENTATION_CONTEXT(2) 
PARAMETRIC_REPRESENTATION_CONTEXT() REPRESENTATION_CONTEXT('2D SPACE',''
  ) );
#1155 = PCURVE('',#426,#1156);
#1156 = DEFINITIONAL_REPRESENTATION('',(#1157),#1160);
#1157 = B_SPLINE_CURVE_WITH_KNOTS('',1,(#1158,#1159),.UNSPECIFIED.,.F.,
  .F.,(2,2),(0.,5.),.PIECEWISE_BEZIER_KNOTS.);
#1158 = CARTESIAN_POINT('',(0.,0.));
#1159 = CARTESIAN_POINT('',(5.,0.));
#1160 = ( GEOMETRIC_REPRESENTATION_CONTEXT(2) 
PARAMETRIC_REPRESENTATION_CONTEXT() REPRESENTATION_CONTEXT('2D SPACE',''
  ) );
#1161 = ADVANCED_FACE('',(#1162),#590,.F.);
#1162 = FACE_BOUND('',#1163,.F.);
#1163 = EDGE_LOOP('',(#1164,#1165,#1166,#1167));
#1164 = ORIENTED_EDGE('',*,*,#871,.F.);
#1165 = ORIENTED_EDGE('',*,*,#1118,.T.);
#1166 = ORIENTED_EDGE('',*,*,#550,.T.);
#1167 = ORIENTED_EDGE('',*,*,#1168,.F.);
#1168 = EDGE_CURVE('',#872,#520,#1169,.T.);
#1169 = SURFACE_CURVE('',#1170,(#1173,#1180),.PCURVE_S1.);
#1170 = B_SPLINE_CURVE_WITH_KNOTS('',1,(#1171,#1172),.UNSPECIFIED.,.F.,
  .F.,(2,2),(0.,5.),.PIECEWISE_BEZIER_KNOTS.);
#1171 = CARTESIAN_POINT('',(-2.5,54.,51.625));
#1172 = CARTESIAN_POINT('',(2.5,54.,51.625));
#1173 = PCURVE('',#590,#1174);
#1174 = DEFINITIONAL_REPRESENTATION('',(#1175),#1179);
#1175 = LINE('',#1176,#1177);
#1176 = CARTESIAN_POINT('',(0.,1.));
#1177 = VECTOR('',#1178,1.);
#1178 = DIRECTION('',(1.,0.));
#1179 = ( GEOMETRIC_REPRESENTATION_CONTEXT(2) 
PARAMETRIC_REPRESENTATION_CONTEXT() REPRESENTATION_CONTEXT('2D SPACE',''
  ) );
#1180 = PCURVE('',#537,#1181);
#1181 = DEFINITIONAL_REPRESENTATION('',(#1182),#1185);
#1182 = B_SPLINE_CURVE_WITH_KNOTS('',1,(#1183,#1184),.UNSPECIFIED.,.F.,
  .F.,(2,2),(0.,5.),.PIECEWISE_BEZIER_KNOTS.);
#1183 = CARTESIAN_POINT('',(-2.5,-7.7025));
#1184 = CARTESIAN_POINT('',(2.5,-7.7025));
#1185 = ( GEOMETRIC_REPRESENTATION_CONTEXT(2) 
PARAMETRIC_REPRESENTATION_CONTEXT() REPRESENTATION_CONTEXT('2D SPACE',''
  ) );
#1186 = ADVANCED_FACE('',(#1187),#426,.F.);
#1187 = FACE_BOUND('',#1188,.F.);
#1188 = EDGE_LOOP('',(#1189,#1190,#1191,#1192));
#1189 = ORIENTED_EDGE('',*,*,#386,.F.);
#1190 = ORIENTED_EDGE('',*,*,#1143,.T.);
#1191 = ORIENTED_EDGE('',*,*,#990,.T.);
#1192 = ORIENTED_EDGE('',*,*,#1193,.F.);
#1193 = EDGE_CURVE('',#387,#965,#1194,.T.);
#1194 = SURFACE_CURVE('',#1195,(#1198,#1205),.PCURVE_S1.);
#1195 = B_SPLINE_CURVE_WITH_KNOTS('',1,(#1196,#1197),.UNSPECIFIED.,.F.,
  .F.,(2,2),(0.,5.),.PIECEWISE_BEZIER_KNOTS.);
#1196 = CARTESIAN_POINT('',(2.5,54.,52.375));
#1197 = CARTESIAN_POINT('',(-2.5,54.,52.375));
#1198 = PCURVE('',#426,#1199);
#1199 = DEFINITIONAL_REPRESENTATION('',(#1200),#1204);
#1200 = LINE('',#1201,#1202);
#1201 = CARTESIAN_POINT('',(0.,1.));
#1202 = VECTOR('',#1203,1.);
#1203 = DIRECTION('',(1.,0.));
#1204 = ( GEOMETRIC_REPRESENTATION_CONTEXT(2) 
PARAMETRIC_REPRESENTATION_CONTEXT() REPRESENTATION_CONTEXT('2D SPACE',''
  ) );
#1205 = PCURVE('',#481,#1206);
#1206 = DEFINITIONAL_REPRESENTATION('',(#1207),#1210);
#1207 = B_SPLINE_CURVE_WITH_KNOTS('',1,(#1208,#1209),.UNSPECIFIED.,.F.,
  .F.,(2,2),(0.,5.),.PIECEWISE_BEZIER_KNOTS.);
#1208 = CARTESIAN_POINT('',(-2.5,-7.7025));
#1209 = CARTESIAN_POINT('',(2.5,-7.7025));
#1210 = ( GEOMETRIC_REPRESENTATION_CONTEXT(2) 
PARAMETRIC_REPRESENTATION_CONTEXT() REPRESENTATION_CONTEXT('2D SPACE',''
  ) );
#1211 = ADVANCED_FACE('',(#1212),#537,.F.);
#1212 = FACE_BOUND('',#1213,.F.);
#1213 = EDGE_LOOP('',(#1214,#1215,#1216,#1217));
#1214 = ORIENTED_EDGE('',*,*,#918,.F.);
#1215 = ORIENTED_EDGE('',*,*,#1168,.T.);
#1216 = ORIENTED_EDGE('',*,*,#519,.T.);
#1217 = ORIENTED_EDGE('',*,*,#1218,.F.);
#1218 = EDGE_CURVE('',#919,#495,#1219,.T.);
#1219 = SURFACE_CURVE('',#1220,(#1223,#1229),.PCURVE_S1.);
#1220 = B_SPLINE_CURVE_WITH_KNOTS('',1,(#1221,#1222),.UNSPECIFIED.,.F.,
  .F.,(2,2),(0.,5.),.PIECEWISE_BEZIER_KNOTS.);
#1221 = CARTESIAN_POINT('',(-2.5,69.,51.625));
#1222 = CARTESIAN_POINT('',(2.5,69.,51.625));
#1223 = PCURVE('',#537,#1224);
#1224 = DEFINITIONAL_REPRESENTATION('',(#1225),#1228);
#1225 = B_SPLINE_CURVE_WITH_KNOTS('',1,(#1226,#1227),.UNSPECIFIED.,.F.,
  .F.,(2,2),(0.,5.),.PIECEWISE_BEZIER_KNOTS.);
#1226 = CARTESIAN_POINT('',(-2.5,7.2975));
#1227 = CARTESIAN_POINT('',(2.5,7.2975));
#1228 = ( GEOMETRIC_REPRESENTATION_CONTEXT(2) 
PARAMETRIC_REPRESENTATION_CONTEXT() REPRESENTATION_CONTEXT('2D SPACE',''
  ) );
#1229 = PCURVE('',#508,#1230);
#1230 = DEFINITIONAL_REPRESENTATION('',(#1231),#1234);
#1231 = B_SPLINE_CURVE_WITH_KNOTS('',1,(#1232,#1233),.UNSPECIFIED.,.F.,
  .F.,(2,2),(0.,5.),.PIECEWISE_BEZIER_KNOTS.);
#1232 = CARTESIAN_POINT('',(0.375,-2.5));
#1233 = CARTESIAN_POINT('',(0.375,2.5));
#1234 = ( GEOMETRIC_REPRESENTATION_CONTEXT(2) 
PARAMETRIC_REPRESENTATION_CONTEXT() REPRESENTATION_CONTEXT('2D SPACE',''
  ) );
#1235 = ADVANCED_FACE('',(#1236),#481,.F.);
#1236 = FACE_BOUND('',#1237,.F.);
#1237 = EDGE_LOOP('',(#1238,#1239,#1240,#1241));
#1238 = ORIENTED_EDGE('',*,*,#463,.F.);
#1239 = ORIENTED_EDGE('',*,*,#1193,.T.);
#1240 = ORIENTED_EDGE('',*,*,#964,.T.);
#1241 = ORIENTED_EDGE('',*,*,#1242,.F.);
#1242 = EDGE_CURVE('',#464,#945,#1243,.T.);
#1243 = SURFACE_CURVE('',#1244,(#1247,#1253),.PCURVE_S1.);
#1244 = B_SPLINE_CURVE_WITH_KNOTS('',1,(#1245,#1246),.UNSPECIFIED.,.F.,
  .F.,(2,2),(0.,5.),.PIECEWISE_BEZIER_KNOTS.);
#1245 = CARTESIAN_POINT('',(2.5,69.,52.375));
#1246 = CARTESIAN_POINT('',(-2.5,69.,52.375));
#1247 = PCURVE('',#481,#1248);
#1248 = DEFINITIONAL_REPRESENTATION('',(#1249),#1252);
#1249 = B_SPLINE_CURVE_WITH_KNOTS('',1,(#1250,#1251),.UNSPECIFIED.,.F.,
  .F.,(2,2),(0.,5.),.PIECEWISE_BEZIER_KNOTS.);
#1250 = CARTESIAN_POINT('',(-2.5,7.2975));
#1251 = CARTESIAN_POINT('',(2.5,7.2975));
#1252 = ( GEOMETRIC_REPRESENTATION_CONTEXT(2) 
PARAMETRIC_REPRESENTATION_CONTEXT() REPRESENTATION_CONTEXT('2D SPACE',''
  ) );
#1253 = PCURVE('',#508,#1254);
#1254 = DEFINITIONAL_REPRESENTATION('',(#1255),#1258);
#1255 = B_SPLINE_CURVE_WITH_KNOTS('',1,(#1256,#1257),.UNSPECIFIED.,.F.,
  .F.,(2,2),(0.,5.),.PIECEWISE_BEZIER_KNOTS.);
#1256 = CARTESIAN_POINT('',(-0.375,2.5));
#1257 = CARTESIAN_POINT('',(-0.375,-2.5));
#1258 = ( GEOMETRIC_REPRESENTATION_CONTEXT(2) 
PARAMETRIC_REPRESENTATION_CONTEXT() REPRESENTATION_CONTEXT('2D SPACE',''
  ) );
#1259 = ADVANCED_FACE('',(#1260),#73,.T.);
#1260 = FACE_BOUND('',#1261,.T.);
#1261 = EDGE_LOOP('',(#1262,#1263,#1264,#1265));
#1262 = ORIENTED_EDGE('',*,*,#59,.T.);
#1263 = ORIENTED_EDGE('',*,*,#198,.T.);
#1264 = ORIENTED_EDGE('',*,*,#707,.T.);
#1265 = ORIENTED_EDGE('',*,*,#775,.T.);
#1266 = ADVANCED_FACE('',(#1267),#508,.F.);
#1267 = FACE_BOUND('',#1268,.F.);
#1268 = EDGE_LOOP('',(#1269,#1270,#1271,#1272));
#1269 = ORIENTED_EDGE('',*,*,#1218,.T.);
#1270 = ORIENTED_EDGE('',*,*,#494,.T.);
#1271 = ORIENTED_EDGE('',*,*,#1242,.T.);
#1272 = ORIENTED_EDGE('',*,*,#944,.T.);
#1273 = ( GEOMETRIC_REPRESENTATION_CONTEXT(3) 
GLOBAL_UNCERTAINTY_ASSIGNED_CONTEXT((#1277)) 
GLOBAL_UNIT_ASSIGNED_CONTEXT((#1274,#1275,#1276)) REPRESENTATION_CONTEXT
('Context #1','3D Context with UNIT and UNCERTAINTY') );
#1274 = ( LENGTH_UNIT() NAMED_UNIT(*) SI_UNIT(.MILLI.,.METRE.) );
#1275 = ( NAMED_UNIT(*) PLANE_ANGLE_UNIT() SI_UNIT($,.RADIAN.) );
#1276 = ( NAMED_UNIT(*) SI_UNIT($,.STERADIAN.) SOLID_ANGLE_UNIT() );
#1277 = UNCERTAINTY_MEASURE_WITH_UNIT(LENGTH_MEASURE(2.E-05),#1274,
  'distance_accuracy_value','confusion accuracy');
#1278 = PRODUCT_RELATED_PRODUCT_CATEGORY('part',$,(#7));
ENDSEC;
END-ISO-10303-21;
