ISO-10303-21;
HEADER;
FILE_DESCRIPTION(('Open CASCADE Model'),'2;1');
FILE_NAME('Open CASCADE Shape Model','2026-06-17T11:14:33',('Author'),(
    'Open CASCADE'),'Open CASCADE STEP processor 7.8','Open CASCADE 7.8'
  ,'Unknown');
FILE_SCHEMA(('AUTOMOTIVE_DESIGN { 1 0 10303 214 1 1 1 1 }'));
ENDSEC;
DATA;
#1 = APPLICATION_PROTOCOL_DEFINITION('international standard',
  'automotive_design',2000,#2);
#2 = APPLICATION_CONTEXT(
  'core data for automotive mechanical design processes');
#3 = SHAPE_DEFINITION_REPRESENTATION(#4,#10);
#4 = PRODUCT_DEFINITION_SHAPE('','',#5);
#5 = PRODUCT_DEFINITION('design','',#6,#9);
#6 = PRODUCT_DEFINITION_FORMATION('','',#7);
#7 = PRODUCT('Open CASCADE STEP translator 7.8 2',
  'Open CASCADE STEP translator 7.8 2','',(#8));
#8 = PRODUCT_CONTEXT('',#2,'mechanical');
#9 = PRODUCT_DEFINITION_CONTEXT('part definition',#2,'design');
#10 = ADVANCED_BREP_SHAPE_REPRESENTATION('',(#11,#15),#1285);
#11 = AXIS2_PLACEMENT_3D('',#12,#13,#14);
#12 = CARTESIAN_POINT('',(0.,0.,0.));
#13 = DIRECTION('',(0.,0.,1.));
#14 = DIRECTION('',(1.,0.,-0.));
#15 = MANIFOLD_SOLID_BREP('',#16);
#16 = CLOSED_SHELL('',(#17,#195,#710,#778,#1123,#1148,#1173,#1198,#1223,
    #1247,#1271,#1278));
#17 = ADVANCED_FACE('',(#18),#33,.F.);
#18 = FACE_BOUND('',#19,.F.);
#19 = EDGE_LOOP('',(#20,#58,#83,#114));
#20 = ORIENTED_EDGE('',*,*,#21,.F.);
#21 = EDGE_CURVE('',#22,#24,#26,.T.);
#22 = VERTEX_POINT('',#23);
#23 = CARTESIAN_POINT('',(-2.5,-30.,-48.25));
#24 = VERTEX_POINT('',#25);
#25 = CARTESIAN_POINT('',(-2.5,3.552713678801E-15,-48.25));
#26 = SURFACE_CURVE('',#27,(#32,#45),.PCURVE_S1.);
#27 = B_SPLINE_CURVE_WITH_KNOTS('',3,(#28,#29,#30,#31),.UNSPECIFIED.,.F.
  ,.F.,(4,4),(0.,1.),.PIECEWISE_BEZIER_KNOTS.);
#28 = CARTESIAN_POINT('',(-2.5,-30.,-48.25));
#29 = CARTESIAN_POINT('',(-2.5,-29.9,-48.25));
#30 = CARTESIAN_POINT('',(-2.5,-1.E-01,-48.25));
#31 = CARTESIAN_POINT('',(-2.5,8.881784197001E-15,-48.25));
#32 = PCURVE('',#33,#38);
#33 = PLANE('',#34);
#34 = AXIS2_PLACEMENT_3D('',#35,#36,#37);
#35 = CARTESIAN_POINT('',(0.,-15.,-48.25));
#36 = DIRECTION('',(3.993132729891E-16,2.414123714711E-16,1.));
#37 = DIRECTION('',(1.,5.020246460856E-19,-3.993132729891E-16));
#38 = DEFINITIONAL_REPRESENTATION('',(#39),#44);
#39 = B_SPLINE_CURVE_WITH_KNOTS('',3,(#40,#41,#42,#43),.UNSPECIFIED.,.F.
  ,.F.,(4,4),(0.,1.),.PIECEWISE_BEZIER_KNOTS.);
#40 = CARTESIAN_POINT('',(-2.5,-15.));
#41 = CARTESIAN_POINT('',(-2.5,-14.9));
#42 = CARTESIAN_POINT('',(-2.5,14.9));
#43 = CARTESIAN_POINT('',(-2.5,15.));
#44 = ( GEOMETRIC_REPRESENTATION_CONTEXT(2) 
PARAMETRIC_REPRESENTATION_CONTEXT() REPRESENTATION_CONTEXT('2D SPACE',''
  ) );
#45 = PCURVE('',#46,#51);
#46 = PLANE('',#47);
#47 = AXIS2_PLACEMENT_3D('',#48,#49,#50);
#48 = CARTESIAN_POINT('',(-2.5,-15.,-48.));
#49 = DIRECTION('',(1.,4.004753648206E-18,7.50286397206E-29));
#50 = DIRECTION('',(7.502906043423E-29,-1.050535618637E-16,-1.));
#51 = DEFINITIONAL_REPRESENTATION('',(#52),#57);
#52 = B_SPLINE_CURVE_WITH_KNOTS('',3,(#53,#54,#55,#56),.UNSPECIFIED.,.F.
  ,.F.,(4,4),(0.,1.),.PIECEWISE_BEZIER_KNOTS.);
#53 = CARTESIAN_POINT('',(0.25,-15.));
#54 = CARTESIAN_POINT('',(0.25,-14.9));
#55 = CARTESIAN_POINT('',(0.25,14.9));
#56 = CARTESIAN_POINT('',(0.25,15.));
#57 = ( GEOMETRIC_REPRESENTATION_CONTEXT(2) 
PARAMETRIC_REPRESENTATION_CONTEXT() REPRESENTATION_CONTEXT('2D SPACE',''
  ) );
#58 = ORIENTED_EDGE('',*,*,#59,.T.);
#59 = EDGE_CURVE('',#22,#60,#62,.T.);
#60 = VERTEX_POINT('',#61);
#61 = CARTESIAN_POINT('',(2.5,-30.,-48.25));
#62 = SURFACE_CURVE('',#63,(#66,#72),.PCURVE_S1.);
#63 = B_SPLINE_CURVE_WITH_KNOTS('',1,(#64,#65),.UNSPECIFIED.,.F.,.F.,(2,
    2),(0.,5.),.PIECEWISE_BEZIER_KNOTS.);
#64 = CARTESIAN_POINT('',(-2.5,-30.,-48.25));
#65 = CARTESIAN_POINT('',(2.5,-30.,-48.25));
#66 = PCURVE('',#33,#67);
#67 = DEFINITIONAL_REPRESENTATION('',(#68),#71);
#68 = B_SPLINE_CURVE_WITH_KNOTS('',1,(#69,#70),.UNSPECIFIED.,.F.,.F.,(2,
    2),(0.,5.),.PIECEWISE_BEZIER_KNOTS.);
#69 = CARTESIAN_POINT('',(-2.5,-15.));
#70 = CARTESIAN_POINT('',(2.5,-15.));
#71 = ( GEOMETRIC_REPRESENTATION_CONTEXT(2) 
PARAMETRIC_REPRESENTATION_CONTEXT() REPRESENTATION_CONTEXT('2D SPACE',''
  ) );
#72 = PCURVE('',#73,#78);
#73 = PLANE('',#74);
#74 = AXIS2_PLACEMENT_3D('',#75,#76,#77);
#75 = CARTESIAN_POINT('',(0.,-30.,-48.));
#76 = DIRECTION('',(-0.,-1.,-0.));
#77 = DIRECTION('',(0.,0.,-1.));
#78 = DEFINITIONAL_REPRESENTATION('',(#79),#82);
#79 = B_SPLINE_CURVE_WITH_KNOTS('',1,(#80,#81),.UNSPECIFIED.,.F.,.F.,(2,
    2),(0.,5.),.PIECEWISE_BEZIER_KNOTS.);
#80 = CARTESIAN_POINT('',(0.25,-2.5));
#81 = CARTESIAN_POINT('',(0.25,2.5));
#82 = ( GEOMETRIC_REPRESENTATION_CONTEXT(2) 
PARAMETRIC_REPRESENTATION_CONTEXT() REPRESENTATION_CONTEXT('2D SPACE',''
  ) );
#83 = ORIENTED_EDGE('',*,*,#84,.T.);
#84 = EDGE_CURVE('',#60,#85,#87,.T.);
#85 = VERTEX_POINT('',#86);
#86 = CARTESIAN_POINT('',(2.5,3.552713678801E-15,-48.25));
#87 = SURFACE_CURVE('',#88,(#93,#101),.PCURVE_S1.);
#88 = B_SPLINE_CURVE_WITH_KNOTS('',3,(#89,#90,#91,#92),.UNSPECIFIED.,.F.
  ,.F.,(4,4),(0.,1.),.PIECEWISE_BEZIER_KNOTS.);
#89 = CARTESIAN_POINT('',(2.5,-30.,-48.25));
#90 = CARTESIAN_POINT('',(2.5,-29.9,-48.25));
#91 = CARTESIAN_POINT('',(2.5,-1.E-01,-48.25));
#92 = CARTESIAN_POINT('',(2.5,8.881784197001E-15,-48.25));
#93 = PCURVE('',#33,#94);
#94 = DEFINITIONAL_REPRESENTATION('',(#95),#100);
#95 = B_SPLINE_CURVE_WITH_KNOTS('',3,(#96,#97,#98,#99),.UNSPECIFIED.,.F.
  ,.F.,(4,4),(0.,1.),.PIECEWISE_BEZIER_KNOTS.);
#96 = CARTESIAN_POINT('',(2.5,-15.));
#97 = CARTESIAN_POINT('',(2.5,-14.9));
#98 = CARTESIAN_POINT('',(2.5,14.9));
#99 = CARTESIAN_POINT('',(2.5,15.));
#100 = ( GEOMETRIC_REPRESENTATION_CONTEXT(2) 
PARAMETRIC_REPRESENTATION_CONTEXT() REPRESENTATION_CONTEXT('2D SPACE',''
  ) );
#101 = PCURVE('',#102,#107);
#102 = PLANE('',#103);
#103 = AXIS2_PLACEMENT_3D('',#104,#105,#106);
#104 = CARTESIAN_POINT('',(2.5,-15.,-48.));
#105 = DIRECTION('',(-1.,4.004753648206E-18,-8.641890313823E-29));
#106 = DIRECTION('',(-8.641843295783E-29,1.174055746947E-16,1.));
#107 = DEFINITIONAL_REPRESENTATION('',(#108),#113);
#108 = B_SPLINE_CURVE_WITH_KNOTS('',3,(#109,#110,#111,#112),
  .UNSPECIFIED.,.F.,.F.,(4,4),(0.,1.),.PIECEWISE_BEZIER_KNOTS.);
#109 = CARTESIAN_POINT('',(-0.25,-15.));
#110 = CARTESIAN_POINT('',(-0.25,-14.9));
#111 = CARTESIAN_POINT('',(-0.25,14.9));
#112 = CARTESIAN_POINT('',(-0.25,15.));
#113 = ( GEOMETRIC_REPRESENTATION_CONTEXT(2) 
PARAMETRIC_REPRESENTATION_CONTEXT() REPRESENTATION_CONTEXT('2D SPACE',''
  ) );
#114 = ORIENTED_EDGE('',*,*,#115,.F.);
#115 = EDGE_CURVE('',#24,#85,#116,.T.);
#116 = SURFACE_CURVE('',#117,(#120,#126),.PCURVE_S1.);
#117 = B_SPLINE_CURVE_WITH_KNOTS('',1,(#118,#119),.UNSPECIFIED.,.F.,.F.,
  (2,2),(0.,5.),.PIECEWISE_BEZIER_KNOTS.);
#118 = CARTESIAN_POINT('',(-2.5,8.881784197001E-15,-48.25));
#119 = CARTESIAN_POINT('',(2.5,8.881784197001E-15,-48.25));
#120 = PCURVE('',#33,#121);
#121 = DEFINITIONAL_REPRESENTATION('',(#122),#125);
#122 = B_SPLINE_CURVE_WITH_KNOTS('',1,(#123,#124),.UNSPECIFIED.,.F.,.F.,
  (2,2),(0.,5.),.PIECEWISE_BEZIER_KNOTS.);
#123 = CARTESIAN_POINT('',(-2.5,15.));
#124 = CARTESIAN_POINT('',(2.5,15.));
#125 = ( GEOMETRIC_REPRESENTATION_CONTEXT(2) 
PARAMETRIC_REPRESENTATION_CONTEXT() REPRESENTATION_CONTEXT('2D SPACE',''
  ) );
#126 = PCURVE('',#127,#190);
#127 = B_SPLINE_SURFACE_WITH_KNOTS('',1,9,(
    (#128,#129,#130,#131,#132,#133,#134,#135,#136,#137,#138,#139,#140
      ,#141,#142,#143,#144,#145,#146,#147,#148,#149,#150,#151,#152,#153
      ,#154,#155,#156,#157,#158)
    ,(#159,#160,#161,#162,#163,#164,#165,#166,#167,#168,#169,#170,#171
      ,#172,#173,#174,#175,#176,#177,#178,#179,#180,#181,#182,#183,#184
      ,#185,#186,#187,#188,#189
    )),.UNSPECIFIED.,.F.,.F.,.F.,(2,2),(10,7,7,7,10),(0.,5.),(0.,
    0.340142665906,0.670071332953,0.835035666476,1.),.UNSPECIFIED.);
#128 = CARTESIAN_POINT('',(-2.5,1.7763568394E-15,-48.25));
#129 = CARTESIAN_POINT('',(-2.5,2.215302852301,-48.25));
#130 = CARTESIAN_POINT('',(-2.5,4.707875747955,-48.57351669603));
#131 = CARTESIAN_POINT('',(-2.5,7.429432131938,-49.17719132115));
#132 = CARTESIAN_POINT('',(-2.5,10.333063933674,-50.01166484627));
#133 = CARTESIAN_POINT('',(-2.5,13.373715677583,-51.02720676921));
#134 = CARTESIAN_POINT('',(-2.5,16.507476691565,-52.17499116051));
#135 = CARTESIAN_POINT('',(-2.5,19.690566645668,-53.40621945305));
#136 = CARTESIAN_POINT('',(-2.5,25.971471870909,-55.89837122629));
#137 = CARTESIAN_POINT('',(-2.5,32.104206716695,-58.33173162142));
#138 = CARTESIAN_POINT('',(-2.5,35.048576498252,-59.47094632447));
#139 = CARTESIAN_POINT('',(-2.5,37.876339606355,-60.50559175635));
#140 = CARTESIAN_POINT('',(-2.5,40.551577245654,-61.39270966985));
#141 = CARTESIAN_POINT('',(-2.5,43.033844529658,-62.08600644307));
#142 = CARTESIAN_POINT('',(-2.5,45.281916523731,-62.53971572664));
#143 = CARTESIAN_POINT('',(-2.5,48.259856354675,-62.80141683004));
#144 = CARTESIAN_POINT('',(-2.5,50.574523996927,-62.29495815494));
#145 = CARTESIAN_POINT('',(-2.5,51.268690655828,-62.03202819794));
#146 = CARTESIAN_POINT('',(-2.5,51.876638846198,-61.67243352799));
#147 = CARTESIAN_POINT('',(-2.5,52.406940992975,-61.18743900187));
#148 = CARTESIAN_POINT('',(-2.5,52.804564179128,-60.5883104676));
#149 = CARTESIAN_POINT('',(-2.5,53.091551122491,-59.88816304282));
#150 = CARTESIAN_POINT('',(-2.5,53.431800916064,-58.26760874956));
#151 = CARTESIAN_POINT('',(-2.5,53.299530441882,-56.18630755035));
#152 = CARTESIAN_POINT('',(-2.5,53.113357202277,-55.02424437438));
#153 = CARTESIAN_POINT('',(-2.5,52.803409176651,-53.73370737229));
#154 = CARTESIAN_POINT('',(-2.499999999999,52.365018817217,
    -52.30764624989));
#155 = CARTESIAN_POINT('',(-2.5,51.793204766019,-50.73949484614));
#156 = CARTESIAN_POINT('',(-2.5,51.083007678913,-49.02327113232));
#157 = CARTESIAN_POINT('',(-2.5,50.229544920083,-47.15330403338));
#158 = CARTESIAN_POINT('',(-2.5,49.227784126522,-45.12358707098));
#159 = CARTESIAN_POINT('',(2.5,1.7763568394E-15,-48.25));
#160 = CARTESIAN_POINT('',(2.5,2.215302852301,-48.25));
#161 = CARTESIAN_POINT('',(2.5,4.707875747955,-48.57351669603));
#162 = CARTESIAN_POINT('',(2.5,7.429432131938,-49.17719132115));
#163 = CARTESIAN_POINT('',(2.5,10.333063933674,-50.01166484627));
#164 = CARTESIAN_POINT('',(2.5,13.373715677583,-51.02720676921));
#165 = CARTESIAN_POINT('',(2.5,16.507476691565,-52.17499116051));
#166 = CARTESIAN_POINT('',(2.5,19.690566645668,-53.40621945305));
#167 = CARTESIAN_POINT('',(2.5,25.971471870909,-55.89837122629));
#168 = CARTESIAN_POINT('',(2.5,32.104206716695,-58.33173162142));
#169 = CARTESIAN_POINT('',(2.5,35.048576498252,-59.47094632447));
#170 = CARTESIAN_POINT('',(2.5,37.876339606355,-60.50559175635));
#171 = CARTESIAN_POINT('',(2.5,40.551577245654,-61.39270966985));
#172 = CARTESIAN_POINT('',(2.5,43.033844529658,-62.08600644307));
#173 = CARTESIAN_POINT('',(2.5,45.281916523731,-62.53971572664));
#174 = CARTESIAN_POINT('',(2.5,48.259856354675,-62.80141683004));
#175 = CARTESIAN_POINT('',(2.5,50.574523996927,-62.29495815494));
#176 = CARTESIAN_POINT('',(2.5,51.268690655828,-62.03202819795));
#177 = CARTESIAN_POINT('',(2.5,51.876638846199,-61.67243352799));
#178 = CARTESIAN_POINT('',(2.5,52.406940992975,-61.18743900188));
#179 = CARTESIAN_POINT('',(2.5,52.804564179129,-60.5883104676));
#180 = CARTESIAN_POINT('',(2.5,53.091551122491,-59.88816304282));
#181 = CARTESIAN_POINT('',(2.5,53.431800916064,-58.26760874956));
#182 = CARTESIAN_POINT('',(2.5,53.299530441882,-56.18630755035));
#183 = CARTESIAN_POINT('',(2.5,53.113357202278,-55.02424437438));
#184 = CARTESIAN_POINT('',(2.5,52.80340917665,-53.7337073723));
#185 = CARTESIAN_POINT('',(2.499999999999,52.365018817218,
    -52.30764624989));
#186 = CARTESIAN_POINT('',(2.5,51.793204766019,-50.73949484615));
#187 = CARTESIAN_POINT('',(2.5,51.083007678913,-49.02327113232));
#188 = CARTESIAN_POINT('',(2.5,50.229544920083,-47.15330403338));
#189 = CARTESIAN_POINT('',(2.5,49.227784126522,-45.12358707098));
#190 = DEFINITIONAL_REPRESENTATION('',(#191),#194);
#191 = B_SPLINE_CURVE_WITH_KNOTS('',1,(#192,#193),.UNSPECIFIED.,.F.,.F.,
  (2,2),(0.,5.),.PIECEWISE_BEZIER_KNOTS.);
#192 = CARTESIAN_POINT('',(0.,0.));
#193 = CARTESIAN_POINT('',(5.,0.));
#194 = ( GEOMETRIC_REPRESENTATION_CONTEXT(2) 
PARAMETRIC_REPRESENTATION_CONTEXT() REPRESENTATION_CONTEXT('2D SPACE',''
  ) );
#195 = ADVANCED_FACE('',(#196),#102,.F.);
#196 = FACE_BOUND('',#197,.F.);
#197 = EDGE_LOOP('',(#198,#199,#219,#250,#391,#468,#499,#524,#555,#633)
  );
#198 = ORIENTED_EDGE('',*,*,#84,.F.);
#199 = ORIENTED_EDGE('',*,*,#200,.T.);
#200 = EDGE_CURVE('',#60,#201,#203,.T.);
#201 = VERTEX_POINT('',#202);
#202 = CARTESIAN_POINT('',(2.5,-30.,-47.75));
#203 = SURFACE_CURVE('',#204,(#207,#213),.PCURVE_S1.);
#204 = B_SPLINE_CURVE_WITH_KNOTS('',1,(#205,#206),.UNSPECIFIED.,.F.,.F.,
  (2,2),(0.,0.5),.PIECEWISE_BEZIER_KNOTS.);
#205 = CARTESIAN_POINT('',(2.5,-30.,-48.25));
#206 = CARTESIAN_POINT('',(2.5,-30.,-47.75));
#207 = PCURVE('',#102,#208);
#208 = DEFINITIONAL_REPRESENTATION('',(#209),#212);
#209 = B_SPLINE_CURVE_WITH_KNOTS('',1,(#210,#211),.UNSPECIFIED.,.F.,.F.,
  (2,2),(0.,0.5),.PIECEWISE_BEZIER_KNOTS.);
#210 = CARTESIAN_POINT('',(-0.25,-15.));
#211 = CARTESIAN_POINT('',(0.25,-15.));
#212 = ( GEOMETRIC_REPRESENTATION_CONTEXT(2) 
PARAMETRIC_REPRESENTATION_CONTEXT() REPRESENTATION_CONTEXT('2D SPACE',''
  ) );
#213 = PCURVE('',#73,#214);
#214 = DEFINITIONAL_REPRESENTATION('',(#215),#218);
#215 = B_SPLINE_CURVE_WITH_KNOTS('',1,(#216,#217),.UNSPECIFIED.,.F.,.F.,
  (2,2),(0.,0.5),.PIECEWISE_BEZIER_KNOTS.);
#216 = CARTESIAN_POINT('',(0.25,2.5));
#217 = CARTESIAN_POINT('',(-0.25,2.5));
#218 = ( GEOMETRIC_REPRESENTATION_CONTEXT(2) 
PARAMETRIC_REPRESENTATION_CONTEXT() REPRESENTATION_CONTEXT('2D SPACE',''
  ) );
#219 = ORIENTED_EDGE('',*,*,#220,.T.);
#220 = EDGE_CURVE('',#201,#221,#223,.T.);
#221 = VERTEX_POINT('',#222);
#222 = CARTESIAN_POINT('',(2.5,3.552713678801E-15,-47.75));
#223 = SURFACE_CURVE('',#224,(#229,#237),.PCURVE_S1.);
#224 = B_SPLINE_CURVE_WITH_KNOTS('',3,(#225,#226,#227,#228),
  .UNSPECIFIED.,.F.,.F.,(4,4),(0.,1.),.PIECEWISE_BEZIER_KNOTS.);
#225 = CARTESIAN_POINT('',(2.5,-30.,-47.75));
#226 = CARTESIAN_POINT('',(2.5,-29.9,-47.75));
#227 = CARTESIAN_POINT('',(2.5,-1.E-01,-47.75));
#228 = CARTESIAN_POINT('',(2.5,8.881784197001E-15,-47.75));
#229 = PCURVE('',#102,#230);
#230 = DEFINITIONAL_REPRESENTATION('',(#231),#236);
#231 = B_SPLINE_CURVE_WITH_KNOTS('',3,(#232,#233,#234,#235),
  .UNSPECIFIED.,.F.,.F.,(4,4),(0.,1.),.PIECEWISE_BEZIER_KNOTS.);
#232 = CARTESIAN_POINT('',(0.25,-15.));
#233 = CARTESIAN_POINT('',(0.25,-14.9));
#234 = CARTESIAN_POINT('',(0.25,14.9));
#235 = CARTESIAN_POINT('',(0.25,15.));
#236 = ( GEOMETRIC_REPRESENTATION_CONTEXT(2) 
PARAMETRIC_REPRESENTATION_CONTEXT() REPRESENTATION_CONTEXT('2D SPACE',''
  ) );
#237 = PCURVE('',#238,#243);
#238 = PLANE('',#239);
#239 = AXIS2_PLACEMENT_3D('',#240,#241,#242);
#240 = CARTESIAN_POINT('',(0.,-15.,-47.75));
#241 = DIRECTION('',(7.046704817456E-17,-1.513640280901E-16,-1.));
#242 = DIRECTION('',(-1.,5.020246460857E-19,-7.046704817456E-17));
#243 = DEFINITIONAL_REPRESENTATION('',(#244),#249);
#244 = B_SPLINE_CURVE_WITH_KNOTS('',3,(#245,#246,#247,#248),
  .UNSPECIFIED.,.F.,.F.,(4,4),(0.,1.),.PIECEWISE_BEZIER_KNOTS.);
#245 = CARTESIAN_POINT('',(-2.5,-15.));
#246 = CARTESIAN_POINT('',(-2.5,-14.9));
#247 = CARTESIAN_POINT('',(-2.5,14.9));
#248 = CARTESIAN_POINT('',(-2.5,15.));
#249 = ( GEOMETRIC_REPRESENTATION_CONTEXT(2) 
PARAMETRIC_REPRESENTATION_CONTEXT() REPRESENTATION_CONTEXT('2D SPACE',''
  ) );
#250 = ORIENTED_EDGE('',*,*,#251,.T.);
#251 = EDGE_CURVE('',#221,#252,#254,.T.);
#252 = VERTEX_POINT('',#253);
#253 = CARTESIAN_POINT('',(2.5,48.779419208101,-45.34487624814));
#254 = SURFACE_CURVE('',#255,(#287,#322),.PCURVE_S1.);
#255 = B_SPLINE_CURVE_WITH_KNOTS('',9,(#256,#257,#258,#259,#260,#261,
    #262,#263,#264,#265,#266,#267,#268,#269,#270,#271,#272,#273,#274,
    #275,#276,#277,#278,#279,#280,#281,#282,#283,#284,#285,#286),
  .UNSPECIFIED.,.F.,.F.,(10,7,7,7,10),(0.,0.340142665906,0.670071332953,
    0.835035666476,1.),.UNSPECIFIED.);
#256 = CARTESIAN_POINT('',(2.5,0.,-47.75));
#257 = CARTESIAN_POINT('',(2.5,2.280208288633,-47.75));
#258 = CARTESIAN_POINT('',(2.5,4.813858854303,-48.08299530627));
#259 = CARTESIAN_POINT('',(2.5,7.562062370745,-48.69404987563));
#260 = CARTESIAN_POINT('',(2.5,10.484551027257,-49.53422792709));
#261 = CARTESIAN_POINT('',(2.5,13.539204418123,-50.55496515266));
#262 = CARTESIAN_POINT('',(2.5,16.682757334166,-51.70679267174));
#263 = CARTESIAN_POINT('',(2.5,19.871814224046,-52.94021424129));
#264 = CARTESIAN_POINT('',(2.5,26.158940345962,-55.43483435597));
#265 = CARTESIAN_POINT('',(2.5,32.285641099722,-57.86580053044));
#266 = CARTESIAN_POINT('',(2.5,35.223181981533,-59.00228697104));
#267 = CARTESIAN_POINT('',(2.5,38.04340257529,-60.03425128344));
#268 = CARTESIAN_POINT('',(2.5,40.702665634006,-60.91494862314));
#269 = CARTESIAN_POINT('',(2.5,43.161860001865,-61.60096952032));
#270 = CARTESIAN_POINT('',(2.5,45.382654571175,-62.04837723267));
#271 = CARTESIAN_POINT('',(2.5,48.279787889098,-62.28649597383));
#272 = CARTESIAN_POINT('',(2.5,50.418852256195,-61.81315906321));
#273 = CARTESIAN_POINT('',(2.5,51.041391635159,-61.57387589068));
#274 = CARTESIAN_POINT('',(2.5,51.572333678829,-61.24442994376));
#275 = CARTESIAN_POINT('',(2.5,51.993161456889,-60.84234347904));
#276 = CARTESIAN_POINT('',(2.5,52.348963381179,-60.34513776224));
#277 = CARTESIAN_POINT('',(2.5,52.6077522285,-59.7284847891));
#278 = CARTESIAN_POINT('',(2.5,52.923866366266,-58.25208022003));
#279 = CARTESIAN_POINT('',(2.5,52.802347450542,-56.26485487805));
#280 = CARTESIAN_POINT('',(2.5,52.624143159578,-55.13854997722));
#281 = CARTESIAN_POINT('',(2.5,52.322286313779,-53.87540120991));
#282 = CARTESIAN_POINT('',(2.499999999999,51.891499955552,
    -52.47124598373));
#283 = CARTESIAN_POINT('',(2.5,51.326820937668,-50.9214375734));
#284 = CARTESIAN_POINT('',(2.5,50.623264098892,-49.22074512105));
#285 = CARTESIAN_POINT('',(2.5,49.775767569806,-47.36362681536));
#286 = CARTESIAN_POINT('',(2.5,48.779419208101,-45.34487624814));
#287 = PCURVE('',#102,#288);
#288 = DEFINITIONAL_REPRESENTATION('',(#289),#321);
#289 = B_SPLINE_CURVE_WITH_KNOTS('',9,(#290,#291,#292,#293,#294,#295,
    #296,#297,#298,#299,#300,#301,#302,#303,#304,#305,#306,#307,#308,
    #309,#310,#311,#312,#313,#314,#315,#316,#317,#318,#319,#320),
  .UNSPECIFIED.,.F.,.F.,(10,7,7,7,10),(0.,0.340142665906,0.670071332953,
    0.835035666476,1.),.UNSPECIFIED.);
#290 = CARTESIAN_POINT('',(0.25,15.));
#291 = CARTESIAN_POINT('',(0.25,17.280208288633));
#292 = CARTESIAN_POINT('',(-8.299530627642E-02,19.813858854303));
#293 = CARTESIAN_POINT('',(-0.694049875637,22.562062370745));
#294 = CARTESIAN_POINT('',(-1.534227927092,25.484551027257));
#295 = CARTESIAN_POINT('',(-2.554965152669,28.539204418123));
#296 = CARTESIAN_POINT('',(-3.706792671742,31.682757334166));
#297 = CARTESIAN_POINT('',(-4.940214241295,34.871814224046));
#298 = CARTESIAN_POINT('',(-7.434834355976,41.158940345962));
#299 = CARTESIAN_POINT('',(-9.86580053044,47.285641099722));
#300 = CARTESIAN_POINT('',(-11.00228697104,50.223181981533));
#301 = CARTESIAN_POINT('',(-12.03425128344,53.04340257529));
#302 = CARTESIAN_POINT('',(-12.91494862314,55.702665634006));
#303 = CARTESIAN_POINT('',(-13.60096952032,58.161860001865));
#304 = CARTESIAN_POINT('',(-14.04837723267,60.382654571175));
#305 = CARTESIAN_POINT('',(-14.28649597383,63.279787889098));
#306 = CARTESIAN_POINT('',(-13.81315906321,65.418852256195));
#307 = CARTESIAN_POINT('',(-13.57387589068,66.041391635159));
#308 = CARTESIAN_POINT('',(-13.24442994376,66.572333678829));
#309 = CARTESIAN_POINT('',(-12.84234347904,66.993161456889));
#310 = CARTESIAN_POINT('',(-12.34513776224,67.348963381179));
#311 = CARTESIAN_POINT('',(-11.72848478909,67.6077522285));
#312 = CARTESIAN_POINT('',(-10.25208022003,67.923866366266));
#313 = CARTESIAN_POINT('',(-8.264854878053,67.802347450542));
#314 = CARTESIAN_POINT('',(-7.138549977224,67.624143159578));
#315 = CARTESIAN_POINT('',(-5.875401209912,67.322286313779));
#316 = CARTESIAN_POINT('',(-4.471245983735,66.891499955552));
#317 = CARTESIAN_POINT('',(-2.921437573402,66.326820937668));
#318 = CARTESIAN_POINT('',(-1.220745121057,65.623264098892));
#319 = CARTESIAN_POINT('',(0.63637318464,64.775767569806));
#320 = CARTESIAN_POINT('',(2.655123751851,63.779419208101));
#321 = ( GEOMETRIC_REPRESENTATION_CONTEXT(2) 
PARAMETRIC_REPRESENTATION_CONTEXT() REPRESENTATION_CONTEXT('2D SPACE',''
  ) );
#322 = PCURVE('',#323,#386);
#323 = B_SPLINE_SURFACE_WITH_KNOTS('',1,9,(
    (#324,#325,#326,#327,#328,#329,#330,#331,#332,#333,#334,#335,#336
      ,#337,#338,#339,#340,#341,#342,#343,#344,#345,#346,#347,#348,#349
      ,#350,#351,#352,#353,#354)
    ,(#355,#356,#357,#358,#359,#360,#361,#362,#363,#364,#365,#366,#367
      ,#368,#369,#370,#371,#372,#373,#374,#375,#376,#377,#378,#379,#380
      ,#381,#382,#383,#384,#385
    )),.UNSPECIFIED.,.F.,.F.,.F.,(2,2),(10,7,7,7,10),(0.,5.),(0.,
    0.340142665906,0.670071332953,0.835035666476,1.),.UNSPECIFIED.);
#324 = CARTESIAN_POINT('',(2.5,0.,-47.75));
#325 = CARTESIAN_POINT('',(2.5,2.280208288633,-47.75));
#326 = CARTESIAN_POINT('',(2.5,4.813858854303,-48.08299530627));
#327 = CARTESIAN_POINT('',(2.5,7.562062370745,-48.69404987563));
#328 = CARTESIAN_POINT('',(2.5,10.484551027257,-49.53422792709));
#329 = CARTESIAN_POINT('',(2.5,13.539204418123,-50.55496515266));
#330 = CARTESIAN_POINT('',(2.5,16.682757334166,-51.70679267174));
#331 = CARTESIAN_POINT('',(2.5,19.871814224046,-52.94021424129));
#332 = CARTESIAN_POINT('',(2.5,26.158940345962,-55.43483435597));
#333 = CARTESIAN_POINT('',(2.5,32.285641099722,-57.86580053044));
#334 = CARTESIAN_POINT('',(2.5,35.223181981533,-59.00228697104));
#335 = CARTESIAN_POINT('',(2.5,38.04340257529,-60.03425128344));
#336 = CARTESIAN_POINT('',(2.5,40.702665634006,-60.91494862314));
#337 = CARTESIAN_POINT('',(2.5,43.161860001865,-61.60096952032));
#338 = CARTESIAN_POINT('',(2.5,45.382654571175,-62.04837723267));
#339 = CARTESIAN_POINT('',(2.5,48.279787889098,-62.28649597383));
#340 = CARTESIAN_POINT('',(2.5,50.418852256195,-61.81315906321));
#341 = CARTESIAN_POINT('',(2.5,51.041391635159,-61.57387589068));
#342 = CARTESIAN_POINT('',(2.5,51.572333678829,-61.24442994376));
#343 = CARTESIAN_POINT('',(2.5,51.993161456889,-60.84234347904));
#344 = CARTESIAN_POINT('',(2.5,52.348963381179,-60.34513776224));
#345 = CARTESIAN_POINT('',(2.5,52.6077522285,-59.7284847891));
#346 = CARTESIAN_POINT('',(2.5,52.923866366266,-58.25208022003));
#347 = CARTESIAN_POINT('',(2.5,52.802347450542,-56.26485487805));
#348 = CARTESIAN_POINT('',(2.5,52.624143159578,-55.13854997722));
#349 = CARTESIAN_POINT('',(2.5,52.322286313779,-53.87540120991));
#350 = CARTESIAN_POINT('',(2.499999999999,51.891499955552,
    -52.47124598373));
#351 = CARTESIAN_POINT('',(2.5,51.326820937668,-50.9214375734));
#352 = CARTESIAN_POINT('',(2.5,50.623264098892,-49.22074512105));
#353 = CARTESIAN_POINT('',(2.5,49.775767569806,-47.36362681536));
#354 = CARTESIAN_POINT('',(2.5,48.779419208101,-45.34487624814));
#355 = CARTESIAN_POINT('',(-2.5,0.,-47.75));
#356 = CARTESIAN_POINT('',(-2.5,2.280208288633,-47.75));
#357 = CARTESIAN_POINT('',(-2.5,4.813858854303,-48.08299530627));
#358 = CARTESIAN_POINT('',(-2.5,7.562062370745,-48.69404987563));
#359 = CARTESIAN_POINT('',(-2.5,10.484551027257,-49.53422792709));
#360 = CARTESIAN_POINT('',(-2.5,13.539204418123,-50.55496515267));
#361 = CARTESIAN_POINT('',(-2.5,16.682757334166,-51.70679267174));
#362 = CARTESIAN_POINT('',(-2.5,19.871814224046,-52.94021424129));
#363 = CARTESIAN_POINT('',(-2.5,26.158940345962,-55.43483435597));
#364 = CARTESIAN_POINT('',(-2.5,32.285641099722,-57.86580053044));
#365 = CARTESIAN_POINT('',(-2.5,35.223181981533,-59.00228697104));
#366 = CARTESIAN_POINT('',(-2.5,38.04340257529,-60.03425128344));
#367 = CARTESIAN_POINT('',(-2.5,40.702665634006,-60.91494862314));
#368 = CARTESIAN_POINT('',(-2.5,43.161860001865,-61.60096952032));
#369 = CARTESIAN_POINT('',(-2.5,45.382654571175,-62.04837723267));
#370 = CARTESIAN_POINT('',(-2.5,48.279787889098,-62.28649597383));
#371 = CARTESIAN_POINT('',(-2.5,50.418852256195,-61.81315906321));
#372 = CARTESIAN_POINT('',(-2.5,51.041391635158,-61.57387589068));
#373 = CARTESIAN_POINT('',(-2.5,51.572333678831,-61.24442994376));
#374 = CARTESIAN_POINT('',(-2.5,51.993161456887,-60.84234347904));
#375 = CARTESIAN_POINT('',(-2.5,52.34896338118,-60.34513776224));
#376 = CARTESIAN_POINT('',(-2.5,52.6077522285,-59.7284847891));
#377 = CARTESIAN_POINT('',(-2.5,52.923866366267,-58.25208022003));
#378 = CARTESIAN_POINT('',(-2.5,52.802347450542,-56.26485487805));
#379 = CARTESIAN_POINT('',(-2.5,52.624143159577,-55.13854997722));
#380 = CARTESIAN_POINT('',(-2.5,52.322286313781,-53.87540120991));
#381 = CARTESIAN_POINT('',(-2.499999999999,51.891499955549,
    -52.47124598373));
#382 = CARTESIAN_POINT('',(-2.5,51.32682093767,-50.9214375734));
#383 = CARTESIAN_POINT('',(-2.5,50.623264098892,-49.22074512105));
#384 = CARTESIAN_POINT('',(-2.5,49.775767569806,-47.36362681536));
#385 = CARTESIAN_POINT('',(-2.5,48.779419208101,-45.34487624814));
#386 = DEFINITIONAL_REPRESENTATION('',(#387),#390);
#387 = B_SPLINE_CURVE_WITH_KNOTS('',1,(#388,#389),.UNSPECIFIED.,.F.,.F.,
  (2,2),(0.,1.),.PIECEWISE_BEZIER_KNOTS.);
#388 = CARTESIAN_POINT('',(0.,0.));
#389 = CARTESIAN_POINT('',(0.,1.));
#390 = ( GEOMETRIC_REPRESENTATION_CONTEXT(2) 
PARAMETRIC_REPRESENTATION_CONTEXT() REPRESENTATION_CONTEXT('2D SPACE',''
  ) );
#391 = ORIENTED_EDGE('',*,*,#392,.T.);
#392 = EDGE_CURVE('',#252,#393,#395,.T.);
#393 = VERTEX_POINT('',#394);
#394 = CARTESIAN_POINT('',(2.5,62.,40.25));
#395 = SURFACE_CURVE('',#396,(#412,#431),.PCURVE_S1.);
#396 = B_SPLINE_CURVE_WITH_KNOTS('',8,(#397,#398,#399,#400,#401,#402,
    #403,#404,#405,#406,#407,#408,#409,#410,#411),.UNSPECIFIED.,.F.,.F.,
  (9,6,9),(0.,0.5,1.),.UNSPECIFIED.);
#397 = CARTESIAN_POINT('',(2.5,48.779419208101,-45.34487624814));
#398 = CARTESIAN_POINT('',(2.5,43.807993602556,-35.27202557986));
#399 = CARTESIAN_POINT('',(2.5,39.814496420531,-25.78951575809));
#400 = CARTESIAN_POINT('',(2.5,36.760968756519,-16.91800509814));
#401 = CARTESIAN_POINT('',(2.5,34.609396039392,-8.678476894713));
#402 = CARTESIAN_POINT('',(2.5,33.321974416574,-1.091317521464));
#403 = CARTESIAN_POINT('',(2.5,32.861442135086,5.823713519736));
#404 = CARTESIAN_POINT('',(2.5,33.521509703555,18.269529679809));
#405 = CARTESIAN_POINT('',(2.5,37.204147840467,27.858919174712));
#406 = CARTESIAN_POINT('',(2.5,39.765619044966,31.916661695494));
#407 = CARTESIAN_POINT('',(2.5,43.014612671993,35.217431056825));
#408 = CARTESIAN_POINT('',(2.5,46.912945878551,37.716009072595));
#409 = CARTESIAN_POINT('',(2.5,51.400896932564,39.399256058515));
#410 = CARTESIAN_POINT('',(2.5,56.442947000187,40.25));
#411 = CARTESIAN_POINT('',(2.5,62.,40.25));
#412 = PCURVE('',#102,#413);
#413 = DEFINITIONAL_REPRESENTATION('',(#414),#430);
#414 = B_SPLINE_CURVE_WITH_KNOTS('',8,(#415,#416,#417,#418,#419,#420,
    #421,#422,#423,#424,#425,#426,#427,#428,#429),.UNSPECIFIED.,.F.,.F.,
  (9,6,9),(0.,0.5,1.),.UNSPECIFIED.);
#415 = CARTESIAN_POINT('',(2.655123751851,63.779419208101));
#416 = CARTESIAN_POINT('',(12.727974420133,58.807993602556));
#417 = CARTESIAN_POINT('',(22.210484241905,54.814496420531));
#418 = CARTESIAN_POINT('',(31.08199490186,51.760968756519));
#419 = CARTESIAN_POINT('',(39.321523105287,49.609396039392));
#420 = CARTESIAN_POINT('',(46.908682478536,48.321974416574));
#421 = CARTESIAN_POINT('',(53.823713519737,47.861442135086));
#422 = CARTESIAN_POINT('',(66.269529679809,48.521509703555));
#423 = CARTESIAN_POINT('',(75.858919174712,52.204147840467));
#424 = CARTESIAN_POINT('',(79.916661695495,54.765619044966));
#425 = CARTESIAN_POINT('',(83.217431056825,58.014612671993));
#426 = CARTESIAN_POINT('',(85.716009072595,61.912945878551));
#427 = CARTESIAN_POINT('',(87.399256058515,66.400896932564));
#428 = CARTESIAN_POINT('',(88.25,71.442947000187));
#429 = CARTESIAN_POINT('',(88.25,77.));
#430 = ( GEOMETRIC_REPRESENTATION_CONTEXT(2) 
PARAMETRIC_REPRESENTATION_CONTEXT() REPRESENTATION_CONTEXT('2D SPACE',''
  ) );
#431 = PCURVE('',#432,#463);
#432 = B_SPLINE_SURFACE_WITH_KNOTS('',1,8,(
    (#433,#434,#435,#436,#437,#438,#439,#440,#441,#442,#443,#444,#445
      ,#446,#447)
    ,(#448,#449,#450,#451,#452,#453,#454,#455,#456,#457,#458,#459,#460
      ,#461,#462
    )),.UNSPECIFIED.,.F.,.F.,.F.,(2,2),(9,6,9),(0.,5.),(0.,0.5,1.),
  .UNSPECIFIED.);
#433 = CARTESIAN_POINT('',(2.5,48.779419208101,-45.34487624814));
#434 = CARTESIAN_POINT('',(2.5,43.807993602556,-35.27202557986));
#435 = CARTESIAN_POINT('',(2.5,39.814496420531,-25.78951575809));
#436 = CARTESIAN_POINT('',(2.5,36.760968756519,-16.91800509814));
#437 = CARTESIAN_POINT('',(2.5,34.609396039392,-8.678476894713));
#438 = CARTESIAN_POINT('',(2.5,33.321974416574,-1.091317521464));
#439 = CARTESIAN_POINT('',(2.5,32.861442135086,5.823713519736));
#440 = CARTESIAN_POINT('',(2.5,33.521509703555,18.269529679809));
#441 = CARTESIAN_POINT('',(2.5,37.204147840467,27.858919174712));
#442 = CARTESIAN_POINT('',(2.5,39.765619044966,31.916661695494));
#443 = CARTESIAN_POINT('',(2.5,43.014612671993,35.217431056825));
#444 = CARTESIAN_POINT('',(2.5,46.912945878551,37.716009072595));
#445 = CARTESIAN_POINT('',(2.5,51.400896932564,39.399256058515));
#446 = CARTESIAN_POINT('',(2.5,56.442947000187,40.25));
#447 = CARTESIAN_POINT('',(2.5,62.,40.25));
#448 = CARTESIAN_POINT('',(-2.5,48.779419208101,-45.34487624814));
#449 = CARTESIAN_POINT('',(-2.5,43.807993602556,-35.27202557986));
#450 = CARTESIAN_POINT('',(-2.5,39.81449642053,-25.78951575809));
#451 = CARTESIAN_POINT('',(-2.5,36.76096875652,-16.91800509814));
#452 = CARTESIAN_POINT('',(-2.5,34.609396039392,-8.678476894713));
#453 = CARTESIAN_POINT('',(-2.5,33.321974416574,-1.091317521464));
#454 = CARTESIAN_POINT('',(-2.5,32.861442135086,5.823713519736));
#455 = CARTESIAN_POINT('',(-2.5,33.521509703555,18.269529679809));
#456 = CARTESIAN_POINT('',(-2.5,37.204147840468,27.858919174712));
#457 = CARTESIAN_POINT('',(-2.5,39.765619044966,31.916661695495));
#458 = CARTESIAN_POINT('',(-2.5,43.014612671994,35.217431056825));
#459 = CARTESIAN_POINT('',(-2.5,46.912945878549,37.716009072595));
#460 = CARTESIAN_POINT('',(-2.5,51.400896932565,39.399256058515));
#461 = CARTESIAN_POINT('',(-2.5,56.442947000186,40.25));
#462 = CARTESIAN_POINT('',(-2.5,62.,40.25));
#463 = DEFINITIONAL_REPRESENTATION('',(#464),#467);
#464 = B_SPLINE_CURVE_WITH_KNOTS('',1,(#465,#466),.UNSPECIFIED.,.F.,.F.,
  (2,2),(0.,1.),.PIECEWISE_BEZIER_KNOTS.);
#465 = CARTESIAN_POINT('',(0.,0.));
#466 = CARTESIAN_POINT('',(0.,1.));
#467 = ( GEOMETRIC_REPRESENTATION_CONTEXT(2) 
PARAMETRIC_REPRESENTATION_CONTEXT() REPRESENTATION_CONTEXT('2D SPACE',''
  ) );
#468 = ORIENTED_EDGE('',*,*,#469,.T.);
#469 = EDGE_CURVE('',#393,#470,#472,.T.);
#470 = VERTEX_POINT('',#471);
#471 = CARTESIAN_POINT('',(2.5,77.,40.25));
#472 = SURFACE_CURVE('',#473,(#478,#486),.PCURVE_S1.);
#473 = B_SPLINE_CURVE_WITH_KNOTS('',3,(#474,#475,#476,#477),
  .UNSPECIFIED.,.F.,.F.,(4,4),(0.,1.),.PIECEWISE_BEZIER_KNOTS.);
#474 = CARTESIAN_POINT('',(2.5,62.,40.25));
#475 = CARTESIAN_POINT('',(2.5,63.,40.25));
#476 = CARTESIAN_POINT('',(2.5,76.9,40.25));
#477 = CARTESIAN_POINT('',(2.5,77.,40.25));
#478 = PCURVE('',#102,#479);
#479 = DEFINITIONAL_REPRESENTATION('',(#480),#485);
#480 = B_SPLINE_CURVE_WITH_KNOTS('',3,(#481,#482,#483,#484),
  .UNSPECIFIED.,.F.,.F.,(4,4),(0.,1.),.PIECEWISE_BEZIER_KNOTS.);
#481 = CARTESIAN_POINT('',(88.25,77.));
#482 = CARTESIAN_POINT('',(88.25,78.));
#483 = CARTESIAN_POINT('',(88.25,91.9));
#484 = CARTESIAN_POINT('',(88.25,92.));
#485 = ( GEOMETRIC_REPRESENTATION_CONTEXT(2) 
PARAMETRIC_REPRESENTATION_CONTEXT() REPRESENTATION_CONTEXT('2D SPACE',''
  ) );
#486 = PCURVE('',#487,#492);
#487 = PLANE('',#488);
#488 = AXIS2_PLACEMENT_3D('',#489,#490,#491);
#489 = CARTESIAN_POINT('',(0.,69.7025,40.25));
#490 = DIRECTION('',(-3.523352408728E-17,9.833157404934E-17,-1.));
#491 = DIRECTION('',(-1.,-3.538656651992E-17,3.523352408728E-17));
#492 = DEFINITIONAL_REPRESENTATION('',(#493),#498);
#493 = B_SPLINE_CURVE_WITH_KNOTS('',3,(#494,#495,#496,#497),
  .UNSPECIFIED.,.F.,.F.,(4,4),(0.,1.),.PIECEWISE_BEZIER_KNOTS.);
#494 = CARTESIAN_POINT('',(-2.5,-7.7025));
#495 = CARTESIAN_POINT('',(-2.5,-6.7025));
#496 = CARTESIAN_POINT('',(-2.5,7.1975));
#497 = CARTESIAN_POINT('',(-2.5,7.2975));
#498 = ( GEOMETRIC_REPRESENTATION_CONTEXT(2) 
PARAMETRIC_REPRESENTATION_CONTEXT() REPRESENTATION_CONTEXT('2D SPACE',''
  ) );
#499 = ORIENTED_EDGE('',*,*,#500,.F.);
#500 = EDGE_CURVE('',#501,#470,#503,.T.);
#501 = VERTEX_POINT('',#502);
#502 = CARTESIAN_POINT('',(2.5,77.,39.75));
#503 = SURFACE_CURVE('',#504,(#507,#513),.PCURVE_S1.);
#504 = B_SPLINE_CURVE_WITH_KNOTS('',1,(#505,#506),.UNSPECIFIED.,.F.,.F.,
  (2,2),(0.,0.5),.PIECEWISE_BEZIER_KNOTS.);
#505 = CARTESIAN_POINT('',(2.5,77.,39.75));
#506 = CARTESIAN_POINT('',(2.5,77.,40.25));
#507 = PCURVE('',#102,#508);
#508 = DEFINITIONAL_REPRESENTATION('',(#509),#512);
#509 = B_SPLINE_CURVE_WITH_KNOTS('',1,(#510,#511),.UNSPECIFIED.,.F.,.F.,
  (2,2),(0.,0.5),.PIECEWISE_BEZIER_KNOTS.);
#510 = CARTESIAN_POINT('',(87.75,92.));
#511 = CARTESIAN_POINT('',(88.25,92.));
#512 = ( GEOMETRIC_REPRESENTATION_CONTEXT(2) 
PARAMETRIC_REPRESENTATION_CONTEXT() REPRESENTATION_CONTEXT('2D SPACE',''
  ) );
#513 = PCURVE('',#514,#519);
#514 = PLANE('',#515);
#515 = AXIS2_PLACEMENT_3D('',#516,#517,#518);
#516 = CARTESIAN_POINT('',(0.,77.,40.));
#517 = DIRECTION('',(-0.,-1.,-0.));
#518 = DIRECTION('',(0.,0.,-1.));
#519 = DEFINITIONAL_REPRESENTATION('',(#520),#523);
#520 = B_SPLINE_CURVE_WITH_KNOTS('',1,(#521,#522),.UNSPECIFIED.,.F.,.F.,
  (2,2),(0.,0.5),.PIECEWISE_BEZIER_KNOTS.);
#521 = CARTESIAN_POINT('',(0.25,2.5));
#522 = CARTESIAN_POINT('',(-0.25,2.5));
#523 = ( GEOMETRIC_REPRESENTATION_CONTEXT(2) 
PARAMETRIC_REPRESENTATION_CONTEXT() REPRESENTATION_CONTEXT('2D SPACE',''
  ) );
#524 = ORIENTED_EDGE('',*,*,#525,.F.);
#525 = EDGE_CURVE('',#526,#501,#528,.T.);
#526 = VERTEX_POINT('',#527);
#527 = CARTESIAN_POINT('',(2.5,62.,39.75));
#528 = SURFACE_CURVE('',#529,(#534,#542),.PCURVE_S1.);
#529 = B_SPLINE_CURVE_WITH_KNOTS('',3,(#530,#531,#532,#533),
  .UNSPECIFIED.,.F.,.F.,(4,4),(0.,1.),.PIECEWISE_BEZIER_KNOTS.);
#530 = CARTESIAN_POINT('',(2.5,62.,39.75));
#531 = CARTESIAN_POINT('',(2.5,63.,39.75));
#532 = CARTESIAN_POINT('',(2.5,76.9,39.75));
#533 = CARTESIAN_POINT('',(2.5,77.,39.75));
#534 = PCURVE('',#102,#535);
#535 = DEFINITIONAL_REPRESENTATION('',(#536),#541);
#536 = B_SPLINE_CURVE_WITH_KNOTS('',3,(#537,#538,#539,#540),
  .UNSPECIFIED.,.F.,.F.,(4,4),(0.,1.),.PIECEWISE_BEZIER_KNOTS.);
#537 = CARTESIAN_POINT('',(87.75,77.));
#538 = CARTESIAN_POINT('',(87.75,78.));
#539 = CARTESIAN_POINT('',(87.75,91.9));
#540 = CARTESIAN_POINT('',(87.75,92.));
#541 = ( GEOMETRIC_REPRESENTATION_CONTEXT(2) 
PARAMETRIC_REPRESENTATION_CONTEXT() REPRESENTATION_CONTEXT('2D SPACE',''
  ) );
#542 = PCURVE('',#543,#548);
#543 = PLANE('',#544);
#544 = AXIS2_PLACEMENT_3D('',#545,#546,#547);
#545 = CARTESIAN_POINT('',(0.,69.7025,39.75));
#546 = DIRECTION('',(-1.409340963491E-16,-4.35809543285E-16,1.));
#547 = DIRECTION('',(1.,-3.538656651992E-17,1.409340963491E-16));
#548 = DEFINITIONAL_REPRESENTATION('',(#549),#554);
#549 = B_SPLINE_CURVE_WITH_KNOTS('',3,(#550,#551,#552,#553),
  .UNSPECIFIED.,.F.,.F.,(4,4),(0.,1.),.PIECEWISE_BEZIER_KNOTS.);
#550 = CARTESIAN_POINT('',(2.5,-7.7025));
#551 = CARTESIAN_POINT('',(2.5,-6.7025));
#552 = CARTESIAN_POINT('',(2.5,7.1975));
#553 = CARTESIAN_POINT('',(2.5,7.2975));
#554 = ( GEOMETRIC_REPRESENTATION_CONTEXT(2) 
PARAMETRIC_REPRESENTATION_CONTEXT() REPRESENTATION_CONTEXT('2D SPACE',''
  ) );
#555 = ORIENTED_EDGE('',*,*,#556,.F.);
#556 = EDGE_CURVE('',#557,#526,#559,.T.);
#557 = VERTEX_POINT('',#558);
#558 = CARTESIAN_POINT('',(2.5,49.227784126522,-45.12358707098));
#559 = SURFACE_CURVE('',#560,(#576,#595),.PCURVE_S1.);
#560 = B_SPLINE_CURVE_WITH_KNOTS('',8,(#561,#562,#563,#564,#565,#566,
    #567,#568,#569,#570,#571,#572,#573,#574,#575),.UNSPECIFIED.,.F.,.F.,
  (9,6,9),(0.,0.5,1.),.UNSPECIFIED.);
#561 = CARTESIAN_POINT('',(2.5,49.227784126522,-45.12358707098));
#562 = CARTESIAN_POINT('',(2.5,44.266971132822,-35.0722391391));
#563 = CARTESIAN_POINT('',(2.5,40.284086659283,-25.61420183613));
#564 = CARTESIAN_POINT('',(2.5,37.240867818016,-16.77111539373));
#565 = CARTESIAN_POINT('',(2.5,35.099107386769,-8.56429506414));
#566 = CARTESIAN_POINT('',(2.5,33.820387424717,-1.015653020661));
#567 = CARTESIAN_POINT('',(2.5,33.365747891456,5.852271691621));
#568 = CARTESIAN_POINT('',(2.5,34.024832646945,18.182078618112));
#569 = CARTESIAN_POINT('',(2.5,37.655451567344,27.618541181154));
#570 = CARTESIAN_POINT('',(2.5,40.172913281449,31.593983385235));
#571 = CARTESIAN_POINT('',(2.5,43.348935169583,34.804358897703));
#572 = CARTESIAN_POINT('',(2.5,47.145478281358,37.252587357715));
#573 = CARTESIAN_POINT('',(2.5,51.546042555448,38.909509902604));
#574 = CARTESIAN_POINT('',(2.5,56.509925032322,39.75));
#575 = CARTESIAN_POINT('',(2.5,62.,39.75));
#576 = PCURVE('',#102,#577);
#577 = DEFINITIONAL_REPRESENTATION('',(#578),#594);
#578 = B_SPLINE_CURVE_WITH_KNOTS('',8,(#579,#580,#581,#582,#583,#584,
    #585,#586,#587,#588,#589,#590,#591,#592,#593),.UNSPECIFIED.,.F.,.F.,
  (9,6,9),(0.,0.5,1.),.UNSPECIFIED.);
#579 = CARTESIAN_POINT('',(2.876412929014,64.227784126522));
#580 = CARTESIAN_POINT('',(12.927760860899,59.266971132822));
#581 = CARTESIAN_POINT('',(22.385798163866,55.284086659283));
#582 = CARTESIAN_POINT('',(31.228884606268,52.240867818016));
#583 = CARTESIAN_POINT('',(39.43570493586,50.099107386769));
#584 = CARTESIAN_POINT('',(46.984346979339,48.820387424717));
#585 = CARTESIAN_POINT('',(53.852271691621,48.365747891456));
#586 = CARTESIAN_POINT('',(66.182078618113,49.024832646945));
#587 = CARTESIAN_POINT('',(75.618541181154,52.655451567344));
#588 = CARTESIAN_POINT('',(79.593983385235,55.172913281449));
#589 = CARTESIAN_POINT('',(82.804358897703,58.348935169583));
#590 = CARTESIAN_POINT('',(85.252587357715,62.145478281358));
#591 = CARTESIAN_POINT('',(86.909509902604,66.546042555448));
#592 = CARTESIAN_POINT('',(87.75,71.509925032322));
#593 = CARTESIAN_POINT('',(87.75,77.));
#594 = ( GEOMETRIC_REPRESENTATION_CONTEXT(2) 
PARAMETRIC_REPRESENTATION_CONTEXT() REPRESENTATION_CONTEXT('2D SPACE',''
  ) );
#595 = PCURVE('',#596,#627);
#596 = B_SPLINE_SURFACE_WITH_KNOTS('',1,8,(
    (#597,#598,#599,#600,#601,#602,#603,#604,#605,#606,#607,#608,#609
      ,#610,#611)
    ,(#612,#613,#614,#615,#616,#617,#618,#619,#620,#621,#622,#623,#624
      ,#625,#626
    )),.UNSPECIFIED.,.F.,.F.,.F.,(2,2),(9,6,9),(0.,5.),(0.,0.5,1.),
  .UNSPECIFIED.);
#597 = CARTESIAN_POINT('',(-2.5,49.227784126522,-45.12358707098));
#598 = CARTESIAN_POINT('',(-2.5,44.266971132822,-35.0722391391));
#599 = CARTESIAN_POINT('',(-2.5,40.284086659283,-25.61420183613));
#600 = CARTESIAN_POINT('',(-2.5,37.240867818016,-16.77111539373));
#601 = CARTESIAN_POINT('',(-2.5,35.099107386769,-8.56429506414));
#602 = CARTESIAN_POINT('',(-2.5,33.820387424716,-1.015653020661));
#603 = CARTESIAN_POINT('',(-2.5,33.365747891456,5.852271691621));
#604 = CARTESIAN_POINT('',(-2.5,34.024832646945,18.182078618112));
#605 = CARTESIAN_POINT('',(-2.5,37.655451567344,27.618541181154));
#606 = CARTESIAN_POINT('',(-2.5,40.172913281449,31.593983385235));
#607 = CARTESIAN_POINT('',(-2.5,43.348935169582,34.804358897703));
#608 = CARTESIAN_POINT('',(-2.5,47.145478281358,37.252587357715));
#609 = CARTESIAN_POINT('',(-2.5,51.546042555448,38.909509902603));
#610 = CARTESIAN_POINT('',(-2.5,56.509925032322,39.75));
#611 = CARTESIAN_POINT('',(-2.5,62.,39.75));
#612 = CARTESIAN_POINT('',(2.5,49.227784126522,-45.12358707098));
#613 = CARTESIAN_POINT('',(2.5,44.266971132822,-35.0722391391));
#614 = CARTESIAN_POINT('',(2.5,40.284086659283,-25.61420183613));
#615 = CARTESIAN_POINT('',(2.5,37.240867818016,-16.77111539373));
#616 = CARTESIAN_POINT('',(2.5,35.099107386769,-8.56429506414));
#617 = CARTESIAN_POINT('',(2.5,33.820387424717,-1.015653020661));
#618 = CARTESIAN_POINT('',(2.5,33.365747891456,5.852271691621));
#619 = CARTESIAN_POINT('',(2.5,34.024832646945,18.182078618112));
#620 = CARTESIAN_POINT('',(2.5,37.655451567344,27.618541181154));
#621 = CARTESIAN_POINT('',(2.5,40.172913281449,31.593983385235));
#622 = CARTESIAN_POINT('',(2.5,43.348935169583,34.804358897703));
#623 = CARTESIAN_POINT('',(2.5,47.145478281358,37.252587357715));
#624 = CARTESIAN_POINT('',(2.5,51.546042555448,38.909509902604));
#625 = CARTESIAN_POINT('',(2.5,56.509925032322,39.75));
#626 = CARTESIAN_POINT('',(2.5,62.,39.75));
#627 = DEFINITIONAL_REPRESENTATION('',(#628),#632);
#628 = LINE('',#629,#630);
#629 = CARTESIAN_POINT('',(5.,0.));
#630 = VECTOR('',#631,1.);
#631 = DIRECTION('',(0.,1.));
#632 = ( GEOMETRIC_REPRESENTATION_CONTEXT(2) 
PARAMETRIC_REPRESENTATION_CONTEXT() REPRESENTATION_CONTEXT('2D SPACE',''
  ) );
#633 = ORIENTED_EDGE('',*,*,#634,.F.);
#634 = EDGE_CURVE('',#85,#557,#635,.T.);
#635 = SURFACE_CURVE('',#636,(#668,#703),.PCURVE_S1.);
#636 = B_SPLINE_CURVE_WITH_KNOTS('',9,(#637,#638,#639,#640,#641,#642,
    #643,#644,#645,#646,#647,#648,#649,#650,#651,#652,#653,#654,#655,
    #656,#657,#658,#659,#660,#661,#662,#663,#664,#665,#666,#667),
  .UNSPECIFIED.,.F.,.F.,(10,7,7,7,10),(0.,0.340142665906,0.670071332953,
    0.835035666476,1.),.UNSPECIFIED.);
#637 = CARTESIAN_POINT('',(2.5,1.7763568394E-15,-48.25));
#638 = CARTESIAN_POINT('',(2.5,2.215302852301,-48.25));
#639 = CARTESIAN_POINT('',(2.5,4.707875747955,-48.57351669603));
#640 = CARTESIAN_POINT('',(2.5,7.429432131938,-49.17719132115));
#641 = CARTESIAN_POINT('',(2.5,10.333063933674,-50.01166484627));
#642 = CARTESIAN_POINT('',(2.5,13.373715677583,-51.02720676921));
#643 = CARTESIAN_POINT('',(2.5,16.507476691565,-52.17499116051));
#644 = CARTESIAN_POINT('',(2.5,19.690566645668,-53.40621945305));
#645 = CARTESIAN_POINT('',(2.5,25.971471870909,-55.89837122629));
#646 = CARTESIAN_POINT('',(2.5,32.104206716695,-58.33173162142));
#647 = CARTESIAN_POINT('',(2.5,35.048576498252,-59.47094632447));
#648 = CARTESIAN_POINT('',(2.5,37.876339606355,-60.50559175635));
#649 = CARTESIAN_POINT('',(2.5,40.551577245654,-61.39270966985));
#650 = CARTESIAN_POINT('',(2.5,43.033844529658,-62.08600644307));
#651 = CARTESIAN_POINT('',(2.5,45.281916523731,-62.53971572664));
#652 = CARTESIAN_POINT('',(2.5,48.259856354675,-62.80141683004));
#653 = CARTESIAN_POINT('',(2.5,50.574523996927,-62.29495815494));
#654 = CARTESIAN_POINT('',(2.5,51.268690655828,-62.03202819795));
#655 = CARTESIAN_POINT('',(2.5,51.876638846199,-61.67243352799));
#656 = CARTESIAN_POINT('',(2.5,52.406940992975,-61.18743900188));
#657 = CARTESIAN_POINT('',(2.5,52.804564179129,-60.5883104676));
#658 = CARTESIAN_POINT('',(2.5,53.091551122491,-59.88816304282));
#659 = CARTESIAN_POINT('',(2.5,53.431800916064,-58.26760874956));
#660 = CARTESIAN_POINT('',(2.5,53.299530441882,-56.18630755035));
#661 = CARTESIAN_POINT('',(2.5,53.113357202278,-55.02424437438));
#662 = CARTESIAN_POINT('',(2.5,52.80340917665,-53.7337073723));
#663 = CARTESIAN_POINT('',(2.499999999999,52.365018817218,
    -52.30764624989));
#664 = CARTESIAN_POINT('',(2.5,51.793204766019,-50.73949484615));
#665 = CARTESIAN_POINT('',(2.5,51.083007678913,-49.02327113232));
#666 = CARTESIAN_POINT('',(2.5,50.229544920083,-47.15330403338));
#667 = CARTESIAN_POINT('',(2.5,49.227784126522,-45.12358707098));
#668 = PCURVE('',#102,#669);
#669 = DEFINITIONAL_REPRESENTATION('',(#670),#702);
#670 = B_SPLINE_CURVE_WITH_KNOTS('',9,(#671,#672,#673,#674,#675,#676,
    #677,#678,#679,#680,#681,#682,#683,#684,#685,#686,#687,#688,#689,
    #690,#691,#692,#693,#694,#695,#696,#697,#698,#699,#700,#701),
  .UNSPECIFIED.,.F.,.F.,(10,7,7,7,10),(0.,0.340142665906,0.670071332953,
    0.835035666476,1.),.UNSPECIFIED.);
#671 = CARTESIAN_POINT('',(-0.25,15.));
#672 = CARTESIAN_POINT('',(-0.25,17.215302852301));
#673 = CARTESIAN_POINT('',(-0.57351669603,19.707875747955));
#674 = CARTESIAN_POINT('',(-1.177191321156,22.429432131938));
#675 = CARTESIAN_POINT('',(-2.011664846278,25.333063933674));
#676 = CARTESIAN_POINT('',(-3.027206769216,28.373715677583));
#677 = CARTESIAN_POINT('',(-4.174991160517,31.507476691565));
#678 = CARTESIAN_POINT('',(-5.406219453055,34.690566645668));
#679 = CARTESIAN_POINT('',(-7.898371226292,40.971471870909));
#680 = CARTESIAN_POINT('',(-10.33173162142,47.104206716695));
#681 = CARTESIAN_POINT('',(-11.47094632447,50.048576498252));
#682 = CARTESIAN_POINT('',(-12.50559175635,52.876339606355));
#683 = CARTESIAN_POINT('',(-13.39270966985,55.551577245654));
#684 = CARTESIAN_POINT('',(-14.08600644307,58.033844529658));
#685 = CARTESIAN_POINT('',(-14.53971572664,60.281916523731));
#686 = CARTESIAN_POINT('',(-14.80141683004,63.259856354675));
#687 = CARTESIAN_POINT('',(-14.29495815494,65.574523996927));
#688 = CARTESIAN_POINT('',(-14.03202819795,66.268690655828));
#689 = CARTESIAN_POINT('',(-13.67243352799,66.876638846199));
#690 = CARTESIAN_POINT('',(-13.18743900188,67.406940992975));
#691 = CARTESIAN_POINT('',(-12.5883104676,67.804564179129));
#692 = CARTESIAN_POINT('',(-11.88816304282,68.091551122491));
#693 = CARTESIAN_POINT('',(-10.26760874956,68.431800916064));
#694 = CARTESIAN_POINT('',(-8.186307550353,68.299530441882));
#695 = CARTESIAN_POINT('',(-7.024244374381,68.113357202278));
#696 = CARTESIAN_POINT('',(-5.733707372299,67.80340917665));
#697 = CARTESIAN_POINT('',(-4.30764624989,67.365018817218));
#698 = CARTESIAN_POINT('',(-2.739494846153,66.793204766019));
#699 = CARTESIAN_POINT('',(-1.023271132325,66.083007678913));
#700 = CARTESIAN_POINT('',(0.846695966614,65.229544920083));
#701 = CARTESIAN_POINT('',(2.876412929014,64.227784126522));
#702 = ( GEOMETRIC_REPRESENTATION_CONTEXT(2) 
PARAMETRIC_REPRESENTATION_CONTEXT() REPRESENTATION_CONTEXT('2D SPACE',''
  ) );
#703 = PCURVE('',#127,#704);
#704 = DEFINITIONAL_REPRESENTATION('',(#705),#709);
#705 = LINE('',#706,#707);
#706 = CARTESIAN_POINT('',(5.,0.));
#707 = VECTOR('',#708,1.);
#708 = DIRECTION('',(0.,1.));
#709 = ( GEOMETRIC_REPRESENTATION_CONTEXT(2) 
PARAMETRIC_REPRESENTATION_CONTEXT() REPRESENTATION_CONTEXT('2D SPACE',''
  ) );
#710 = ADVANCED_FACE('',(#711),#238,.F.);
#711 = FACE_BOUND('',#712,.F.);
#712 = EDGE_LOOP('',(#713,#714,#734,#760));
#713 = ORIENTED_EDGE('',*,*,#220,.F.);
#714 = ORIENTED_EDGE('',*,*,#715,.T.);
#715 = EDGE_CURVE('',#201,#716,#718,.T.);
#716 = VERTEX_POINT('',#717);
#717 = CARTESIAN_POINT('',(-2.5,-30.,-47.75));
#718 = SURFACE_CURVE('',#719,(#722,#728),.PCURVE_S1.);
#719 = B_SPLINE_CURVE_WITH_KNOTS('',1,(#720,#721),.UNSPECIFIED.,.F.,.F.,
  (2,2),(0.,5.),.PIECEWISE_BEZIER_KNOTS.);
#720 = CARTESIAN_POINT('',(2.5,-30.,-47.75));
#721 = CARTESIAN_POINT('',(-2.5,-30.,-47.75));
#722 = PCURVE('',#238,#723);
#723 = DEFINITIONAL_REPRESENTATION('',(#724),#727);
#724 = B_SPLINE_CURVE_WITH_KNOTS('',1,(#725,#726),.UNSPECIFIED.,.F.,.F.,
  (2,2),(0.,5.),.PIECEWISE_BEZIER_KNOTS.);
#725 = CARTESIAN_POINT('',(-2.5,-15.));
#726 = CARTESIAN_POINT('',(2.5,-15.));
#727 = ( GEOMETRIC_REPRESENTATION_CONTEXT(2) 
PARAMETRIC_REPRESENTATION_CONTEXT() REPRESENTATION_CONTEXT('2D SPACE',''
  ) );
#728 = PCURVE('',#73,#729);
#729 = DEFINITIONAL_REPRESENTATION('',(#730),#733);
#730 = B_SPLINE_CURVE_WITH_KNOTS('',1,(#731,#732),.UNSPECIFIED.,.F.,.F.,
  (2,2),(0.,5.),.PIECEWISE_BEZIER_KNOTS.);
#731 = CARTESIAN_POINT('',(-0.25,2.5));
#732 = CARTESIAN_POINT('',(-0.25,-2.5));
#733 = ( GEOMETRIC_REPRESENTATION_CONTEXT(2) 
PARAMETRIC_REPRESENTATION_CONTEXT() REPRESENTATION_CONTEXT('2D SPACE',''
  ) );
#734 = ORIENTED_EDGE('',*,*,#735,.T.);
#735 = EDGE_CURVE('',#716,#736,#738,.T.);
#736 = VERTEX_POINT('',#737);
#737 = CARTESIAN_POINT('',(-2.5,3.552713678801E-15,-47.75));
#738 = SURFACE_CURVE('',#739,(#744,#752),.PCURVE_S1.);
#739 = B_SPLINE_CURVE_WITH_KNOTS('',3,(#740,#741,#742,#743),
  .UNSPECIFIED.,.F.,.F.,(4,4),(0.,1.),.PIECEWISE_BEZIER_KNOTS.);
#740 = CARTESIAN_POINT('',(-2.5,-30.,-47.75));
#741 = CARTESIAN_POINT('',(-2.5,-29.9,-47.75));
#742 = CARTESIAN_POINT('',(-2.5,-1.E-01,-47.75));
#743 = CARTESIAN_POINT('',(-2.5,8.881784197001E-15,-47.75));
#744 = PCURVE('',#238,#745);
#745 = DEFINITIONAL_REPRESENTATION('',(#746),#751);
#746 = B_SPLINE_CURVE_WITH_KNOTS('',3,(#747,#748,#749,#750),
  .UNSPECIFIED.,.F.,.F.,(4,4),(0.,1.),.PIECEWISE_BEZIER_KNOTS.);
#747 = CARTESIAN_POINT('',(2.5,-15.));
#748 = CARTESIAN_POINT('',(2.5,-14.9));
#749 = CARTESIAN_POINT('',(2.5,14.9));
#750 = CARTESIAN_POINT('',(2.5,15.));
#751 = ( GEOMETRIC_REPRESENTATION_CONTEXT(2) 
PARAMETRIC_REPRESENTATION_CONTEXT() REPRESENTATION_CONTEXT('2D SPACE',''
  ) );
#752 = PCURVE('',#46,#753);
#753 = DEFINITIONAL_REPRESENTATION('',(#754),#759);
#754 = B_SPLINE_CURVE_WITH_KNOTS('',3,(#755,#756,#757,#758),
  .UNSPECIFIED.,.F.,.F.,(4,4),(0.,1.),.PIECEWISE_BEZIER_KNOTS.);
#755 = CARTESIAN_POINT('',(-0.25,-15.));
#756 = CARTESIAN_POINT('',(-0.25,-14.9));
#757 = CARTESIAN_POINT('',(-0.25,14.9));
#758 = CARTESIAN_POINT('',(-0.25,15.));
#759 = ( GEOMETRIC_REPRESENTATION_CONTEXT(2) 
PARAMETRIC_REPRESENTATION_CONTEXT() REPRESENTATION_CONTEXT('2D SPACE',''
  ) );
#760 = ORIENTED_EDGE('',*,*,#761,.F.);
#761 = EDGE_CURVE('',#221,#736,#762,.T.);
#762 = SURFACE_CURVE('',#763,(#766,#772),.PCURVE_S1.);
#763 = B_SPLINE_CURVE_WITH_KNOTS('',1,(#764,#765),.UNSPECIFIED.,.F.,.F.,
  (2,2),(0.,5.),.PIECEWISE_BEZIER_KNOTS.);
#764 = CARTESIAN_POINT('',(2.5,8.881784197001E-15,-47.75));
#765 = CARTESIAN_POINT('',(-2.5,8.881784197001E-15,-47.75));
#766 = PCURVE('',#238,#767);
#767 = DEFINITIONAL_REPRESENTATION('',(#768),#771);
#768 = B_SPLINE_CURVE_WITH_KNOTS('',1,(#769,#770),.UNSPECIFIED.,.F.,.F.,
  (2,2),(0.,5.),.PIECEWISE_BEZIER_KNOTS.);
#769 = CARTESIAN_POINT('',(-2.5,15.));
#770 = CARTESIAN_POINT('',(2.5,15.));
#771 = ( GEOMETRIC_REPRESENTATION_CONTEXT(2) 
PARAMETRIC_REPRESENTATION_CONTEXT() REPRESENTATION_CONTEXT('2D SPACE',''
  ) );
#772 = PCURVE('',#323,#773);
#773 = DEFINITIONAL_REPRESENTATION('',(#774),#777);
#774 = B_SPLINE_CURVE_WITH_KNOTS('',1,(#775,#776),.UNSPECIFIED.,.F.,.F.,
  (2,2),(0.,5.),.PIECEWISE_BEZIER_KNOTS.);
#775 = CARTESIAN_POINT('',(0.,0.));
#776 = CARTESIAN_POINT('',(5.,0.));
#777 = ( GEOMETRIC_REPRESENTATION_CONTEXT(2) 
PARAMETRIC_REPRESENTATION_CONTEXT() REPRESENTATION_CONTEXT('2D SPACE',''
  ) );
#778 = ADVANCED_FACE('',(#779),#46,.F.);
#779 = FACE_BOUND('',#780,.F.);
#780 = EDGE_LOOP('',(#781,#782,#800,#801,#880,#927,#953,#973,#999,#1046)
  );
#781 = ORIENTED_EDGE('',*,*,#735,.F.);
#782 = ORIENTED_EDGE('',*,*,#783,.T.);
#783 = EDGE_CURVE('',#716,#22,#784,.T.);
#784 = SURFACE_CURVE('',#785,(#788,#794),.PCURVE_S1.);
#785 = B_SPLINE_CURVE_WITH_KNOTS('',1,(#786,#787),.UNSPECIFIED.,.F.,.F.,
  (2,2),(0.,0.5),.PIECEWISE_BEZIER_KNOTS.);
#786 = CARTESIAN_POINT('',(-2.5,-30.,-47.75));
#787 = CARTESIAN_POINT('',(-2.5,-30.,-48.25));
#788 = PCURVE('',#46,#789);
#789 = DEFINITIONAL_REPRESENTATION('',(#790),#793);
#790 = B_SPLINE_CURVE_WITH_KNOTS('',1,(#791,#792),.UNSPECIFIED.,.F.,.F.,
  (2,2),(0.,0.5),.PIECEWISE_BEZIER_KNOTS.);
#791 = CARTESIAN_POINT('',(-0.25,-15.));
#792 = CARTESIAN_POINT('',(0.25,-15.));
#793 = ( GEOMETRIC_REPRESENTATION_CONTEXT(2) 
PARAMETRIC_REPRESENTATION_CONTEXT() REPRESENTATION_CONTEXT('2D SPACE',''
  ) );
#794 = PCURVE('',#73,#795);
#795 = DEFINITIONAL_REPRESENTATION('',(#796),#799);
#796 = B_SPLINE_CURVE_WITH_KNOTS('',1,(#797,#798),.UNSPECIFIED.,.F.,.F.,
  (2,2),(0.,0.5),.PIECEWISE_BEZIER_KNOTS.);
#797 = CARTESIAN_POINT('',(-0.25,-2.5));
#798 = CARTESIAN_POINT('',(0.25,-2.5));
#799 = ( GEOMETRIC_REPRESENTATION_CONTEXT(2) 
PARAMETRIC_REPRESENTATION_CONTEXT() REPRESENTATION_CONTEXT('2D SPACE',''
  ) );
#800 = ORIENTED_EDGE('',*,*,#21,.T.);
#801 = ORIENTED_EDGE('',*,*,#802,.T.);
#802 = EDGE_CURVE('',#24,#803,#805,.T.);
#803 = VERTEX_POINT('',#804);
#804 = CARTESIAN_POINT('',(-2.5,49.227784126522,-45.12358707098));
#805 = SURFACE_CURVE('',#806,(#838,#873),.PCURVE_S1.);
#806 = B_SPLINE_CURVE_WITH_KNOTS('',9,(#807,#808,#809,#810,#811,#812,
    #813,#814,#815,#816,#817,#818,#819,#820,#821,#822,#823,#824,#825,
    #826,#827,#828,#829,#830,#831,#832,#833,#834,#835,#836,#837),
  .UNSPECIFIED.,.F.,.F.,(10,7,7,7,10),(0.,0.340142665906,0.670071332953,
    0.835035666476,1.),.UNSPECIFIED.);
#807 = CARTESIAN_POINT('',(-2.5,1.7763568394E-15,-48.25));
#808 = CARTESIAN_POINT('',(-2.5,2.215302852301,-48.25));
#809 = CARTESIAN_POINT('',(-2.5,4.707875747955,-48.57351669603));
#810 = CARTESIAN_POINT('',(-2.5,7.429432131938,-49.17719132115));
#811 = CARTESIAN_POINT('',(-2.5,10.333063933674,-50.01166484627));
#812 = CARTESIAN_POINT('',(-2.5,13.373715677583,-51.02720676921));
#813 = CARTESIAN_POINT('',(-2.5,16.507476691565,-52.17499116051));
#814 = CARTESIAN_POINT('',(-2.5,19.690566645668,-53.40621945305));
#815 = CARTESIAN_POINT('',(-2.5,25.971471870909,-55.89837122629));
#816 = CARTESIAN_POINT('',(-2.5,32.104206716695,-58.33173162142));
#817 = CARTESIAN_POINT('',(-2.5,35.048576498252,-59.47094632447));
#818 = CARTESIAN_POINT('',(-2.5,37.876339606355,-60.50559175635));
#819 = CARTESIAN_POINT('',(-2.5,40.551577245654,-61.39270966985));
#820 = CARTESIAN_POINT('',(-2.5,43.033844529658,-62.08600644307));
#821 = CARTESIAN_POINT('',(-2.5,45.281916523731,-62.53971572664));
#822 = CARTESIAN_POINT('',(-2.5,48.259856354675,-62.80141683004));
#823 = CARTESIAN_POINT('',(-2.5,50.574523996927,-62.29495815494));
#824 = CARTESIAN_POINT('',(-2.5,51.268690655828,-62.03202819794));
#825 = CARTESIAN_POINT('',(-2.5,51.876638846198,-61.67243352799));
#826 = CARTESIAN_POINT('',(-2.5,52.406940992975,-61.18743900187));
#827 = CARTESIAN_POINT('',(-2.5,52.804564179128,-60.5883104676));
#828 = CARTESIAN_POINT('',(-2.5,53.091551122491,-59.88816304282));
#829 = CARTESIAN_POINT('',(-2.5,53.431800916064,-58.26760874956));
#830 = CARTESIAN_POINT('',(-2.5,53.299530441882,-56.18630755035));
#831 = CARTESIAN_POINT('',(-2.5,53.113357202277,-55.02424437438));
#832 = CARTESIAN_POINT('',(-2.5,52.803409176651,-53.73370737229));
#833 = CARTESIAN_POINT('',(-2.499999999999,52.365018817217,
    -52.30764624989));
#834 = CARTESIAN_POINT('',(-2.5,51.793204766019,-50.73949484614));
#835 = CARTESIAN_POINT('',(-2.5,51.083007678913,-49.02327113232));
#836 = CARTESIAN_POINT('',(-2.5,50.229544920083,-47.15330403338));
#837 = CARTESIAN_POINT('',(-2.5,49.227784126522,-45.12358707098));
#838 = PCURVE('',#46,#839);
#839 = DEFINITIONAL_REPRESENTATION('',(#840),#872);
#840 = B_SPLINE_CURVE_WITH_KNOTS('',9,(#841,#842,#843,#844,#845,#846,
    #847,#848,#849,#850,#851,#852,#853,#854,#855,#856,#857,#858,#859,
    #860,#861,#862,#863,#864,#865,#866,#867,#868,#869,#870,#871),
  .UNSPECIFIED.,.F.,.F.,(10,7,7,7,10),(0.,0.340142665906,0.670071332953,
    0.835035666476,1.),.UNSPECIFIED.);
#841 = CARTESIAN_POINT('',(0.25,15.));
#842 = CARTESIAN_POINT('',(0.25,17.215302852301));
#843 = CARTESIAN_POINT('',(0.57351669603,19.707875747955));
#844 = CARTESIAN_POINT('',(1.177191321156,22.429432131938));
#845 = CARTESIAN_POINT('',(2.011664846279,25.333063933674));
#846 = CARTESIAN_POINT('',(3.027206769216,28.373715677583));
#847 = CARTESIAN_POINT('',(4.174991160517,31.507476691565));
#848 = CARTESIAN_POINT('',(5.406219453055,34.690566645668));
#849 = CARTESIAN_POINT('',(7.898371226292,40.971471870909));
#850 = CARTESIAN_POINT('',(10.331731621429,47.104206716695));
#851 = CARTESIAN_POINT('',(11.470946324474,50.048576498252));
#852 = CARTESIAN_POINT('',(12.505591756352,52.876339606355));
#853 = CARTESIAN_POINT('',(13.392709669854,55.551577245654));
#854 = CARTESIAN_POINT('',(14.086006443071,58.033844529658));
#855 = CARTESIAN_POINT('',(14.53971572664,60.281916523731));
#856 = CARTESIAN_POINT('',(14.801416830048,63.259856354675));
#857 = CARTESIAN_POINT('',(14.294958154948,65.574523996927));
#858 = CARTESIAN_POINT('',(14.032028197949,66.268690655828));
#859 = CARTESIAN_POINT('',(13.672433527996,66.876638846198));
#860 = CARTESIAN_POINT('',(13.187439001879,67.406940992975));
#861 = CARTESIAN_POINT('',(12.588310467603,67.804564179128));
#862 = CARTESIAN_POINT('',(11.888163042827,68.091551122491));
#863 = CARTESIAN_POINT('',(10.267608749566,68.431800916064));
#864 = CARTESIAN_POINT('',(8.186307550352,68.299530441882));
#865 = CARTESIAN_POINT('',(7.024244374384,68.113357202277));
#866 = CARTESIAN_POINT('',(5.733707372295,67.803409176651));
#867 = CARTESIAN_POINT('',(4.307646249895,67.365018817217));
#868 = CARTESIAN_POINT('',(2.73949484615,66.793204766019));
#869 = CARTESIAN_POINT('',(1.023271132327,66.083007678912));
#870 = CARTESIAN_POINT('',(-0.846695966615,65.229544920083));
#871 = CARTESIAN_POINT('',(-2.876412929014,64.227784126522));
#872 = ( GEOMETRIC_REPRESENTATION_CONTEXT(2) 
PARAMETRIC_REPRESENTATION_CONTEXT() REPRESENTATION_CONTEXT('2D SPACE',''
  ) );
#873 = PCURVE('',#127,#874);
#874 = DEFINITIONAL_REPRESENTATION('',(#875),#879);
#875 = LINE('',#876,#877);
#876 = CARTESIAN_POINT('',(0.,0.));
#877 = VECTOR('',#878,1.);
#878 = DIRECTION('',(0.,1.));
#879 = ( GEOMETRIC_REPRESENTATION_CONTEXT(2) 
PARAMETRIC_REPRESENTATION_CONTEXT() REPRESENTATION_CONTEXT('2D SPACE',''
  ) );
#880 = ORIENTED_EDGE('',*,*,#881,.T.);
#881 = EDGE_CURVE('',#803,#882,#884,.T.);
#882 = VERTEX_POINT('',#883);
#883 = CARTESIAN_POINT('',(-2.5,62.,39.75));
#884 = SURFACE_CURVE('',#885,(#901,#920),.PCURVE_S1.);
#885 = B_SPLINE_CURVE_WITH_KNOTS('',8,(#886,#887,#888,#889,#890,#891,
    #892,#893,#894,#895,#896,#897,#898,#899,#900),.UNSPECIFIED.,.F.,.F.,
  (9,6,9),(0.,0.5,1.),.UNSPECIFIED.);
#886 = CARTESIAN_POINT('',(-2.5,49.227784126522,-45.12358707098));
#887 = CARTESIAN_POINT('',(-2.5,44.266971132822,-35.0722391391));
#888 = CARTESIAN_POINT('',(-2.5,40.284086659283,-25.61420183613));
#889 = CARTESIAN_POINT('',(-2.5,37.240867818016,-16.77111539373));
#890 = CARTESIAN_POINT('',(-2.5,35.099107386769,-8.56429506414));
#891 = CARTESIAN_POINT('',(-2.5,33.820387424716,-1.015653020661));
#892 = CARTESIAN_POINT('',(-2.5,33.365747891456,5.852271691621));
#893 = CARTESIAN_POINT('',(-2.5,34.024832646945,18.182078618112));
#894 = CARTESIAN_POINT('',(-2.5,37.655451567344,27.618541181154));
#895 = CARTESIAN_POINT('',(-2.5,40.172913281449,31.593983385235));
#896 = CARTESIAN_POINT('',(-2.5,43.348935169582,34.804358897703));
#897 = CARTESIAN_POINT('',(-2.5,47.145478281358,37.252587357715));
#898 = CARTESIAN_POINT('',(-2.5,51.546042555448,38.909509902603));
#899 = CARTESIAN_POINT('',(-2.5,56.509925032322,39.75));
#900 = CARTESIAN_POINT('',(-2.5,62.,39.75));
#901 = PCURVE('',#46,#902);
#902 = DEFINITIONAL_REPRESENTATION('',(#903),#919);
#903 = B_SPLINE_CURVE_WITH_KNOTS('',8,(#904,#905,#906,#907,#908,#909,
    #910,#911,#912,#913,#914,#915,#916,#917,#918),.UNSPECIFIED.,.F.,.F.,
  (9,6,9),(0.,0.5,1.),.UNSPECIFIED.);
#904 = CARTESIAN_POINT('',(-2.876412929014,64.227784126522));
#905 = CARTESIAN_POINT('',(-12.92776086089,59.266971132822));
#906 = CARTESIAN_POINT('',(-22.38579816386,55.284086659283));
#907 = CARTESIAN_POINT('',(-31.22888460626,52.240867818016));
#908 = CARTESIAN_POINT('',(-39.43570493586,50.099107386769));
#909 = CARTESIAN_POINT('',(-46.98434697933,48.820387424716));
#910 = CARTESIAN_POINT('',(-53.85227169162,48.365747891456));
#911 = CARTESIAN_POINT('',(-66.18207861811,49.024832646945));
#912 = CARTESIAN_POINT('',(-75.61854118115,52.655451567344));
#913 = CARTESIAN_POINT('',(-79.59398338523,55.172913281449));
#914 = CARTESIAN_POINT('',(-82.8043588977,58.348935169582));
#915 = CARTESIAN_POINT('',(-85.25258735771,62.145478281358));
#916 = CARTESIAN_POINT('',(-86.9095099026,66.546042555448));
#917 = CARTESIAN_POINT('',(-87.75,71.509925032322));
#918 = CARTESIAN_POINT('',(-87.75,77.));
#919 = ( GEOMETRIC_REPRESENTATION_CONTEXT(2) 
PARAMETRIC_REPRESENTATION_CONTEXT() REPRESENTATION_CONTEXT('2D SPACE',''
  ) );
#920 = PCURVE('',#596,#921);
#921 = DEFINITIONAL_REPRESENTATION('',(#922),#926);
#922 = LINE('',#923,#924);
#923 = CARTESIAN_POINT('',(0.,0.));
#924 = VECTOR('',#925,1.);
#925 = DIRECTION('',(0.,1.));
#926 = ( GEOMETRIC_REPRESENTATION_CONTEXT(2) 
PARAMETRIC_REPRESENTATION_CONTEXT() REPRESENTATION_CONTEXT('2D SPACE',''
  ) );
#927 = ORIENTED_EDGE('',*,*,#928,.T.);
#928 = EDGE_CURVE('',#882,#929,#931,.T.);
#929 = VERTEX_POINT('',#930);
#930 = CARTESIAN_POINT('',(-2.5,77.,39.75));
#931 = SURFACE_CURVE('',#932,(#937,#945),.PCURVE_S1.);
#932 = B_SPLINE_CURVE_WITH_KNOTS('',3,(#933,#934,#935,#936),
  .UNSPECIFIED.,.F.,.F.,(4,4),(0.,1.),.PIECEWISE_BEZIER_KNOTS.);
#933 = CARTESIAN_POINT('',(-2.5,62.,39.75));
#934 = CARTESIAN_POINT('',(-2.5,63.,39.75));
#935 = CARTESIAN_POINT('',(-2.5,76.9,39.75));
#936 = CARTESIAN_POINT('',(-2.5,77.,39.75));
#937 = PCURVE('',#46,#938);
#938 = DEFINITIONAL_REPRESENTATION('',(#939),#944);
#939 = B_SPLINE_CURVE_WITH_KNOTS('',3,(#940,#941,#942,#943),
  .UNSPECIFIED.,.F.,.F.,(4,4),(0.,1.),.PIECEWISE_BEZIER_KNOTS.);
#940 = CARTESIAN_POINT('',(-87.75,77.));
#941 = CARTESIAN_POINT('',(-87.75,78.));
#942 = CARTESIAN_POINT('',(-87.75,91.9));
#943 = CARTESIAN_POINT('',(-87.75,92.));
#944 = ( GEOMETRIC_REPRESENTATION_CONTEXT(2) 
PARAMETRIC_REPRESENTATION_CONTEXT() REPRESENTATION_CONTEXT('2D SPACE',''
  ) );
#945 = PCURVE('',#543,#946);
#946 = DEFINITIONAL_REPRESENTATION('',(#947),#952);
#947 = B_SPLINE_CURVE_WITH_KNOTS('',3,(#948,#949,#950,#951),
  .UNSPECIFIED.,.F.,.F.,(4,4),(0.,1.),.PIECEWISE_BEZIER_KNOTS.);
#948 = CARTESIAN_POINT('',(-2.5,-7.7025));
#949 = CARTESIAN_POINT('',(-2.5,-6.7025));
#950 = CARTESIAN_POINT('',(-2.5,7.1975));
#951 = CARTESIAN_POINT('',(-2.5,7.2975));
#952 = ( GEOMETRIC_REPRESENTATION_CONTEXT(2) 
PARAMETRIC_REPRESENTATION_CONTEXT() REPRESENTATION_CONTEXT('2D SPACE',''
  ) );
#953 = ORIENTED_EDGE('',*,*,#954,.F.);
#954 = EDGE_CURVE('',#955,#929,#957,.T.);
#955 = VERTEX_POINT('',#956);
#956 = CARTESIAN_POINT('',(-2.5,77.,40.25));
#957 = SURFACE_CURVE('',#958,(#961,#967),.PCURVE_S1.);
#958 = B_SPLINE_CURVE_WITH_KNOTS('',1,(#959,#960),.UNSPECIFIED.,.F.,.F.,
  (2,2),(0.,0.5),.PIECEWISE_BEZIER_KNOTS.);
#959 = CARTESIAN_POINT('',(-2.5,77.,40.25));
#960 = CARTESIAN_POINT('',(-2.5,77.,39.75));
#961 = PCURVE('',#46,#962);
#962 = DEFINITIONAL_REPRESENTATION('',(#963),#966);
#963 = B_SPLINE_CURVE_WITH_KNOTS('',1,(#964,#965),.UNSPECIFIED.,.F.,.F.,
  (2,2),(0.,0.5),.PIECEWISE_BEZIER_KNOTS.);
#964 = CARTESIAN_POINT('',(-88.25,92.));
#965 = CARTESIAN_POINT('',(-87.75,92.));
#966 = ( GEOMETRIC_REPRESENTATION_CONTEXT(2) 
PARAMETRIC_REPRESENTATION_CONTEXT() REPRESENTATION_CONTEXT('2D SPACE',''
  ) );
#967 = PCURVE('',#514,#968);
#968 = DEFINITIONAL_REPRESENTATION('',(#969),#972);
#969 = B_SPLINE_CURVE_WITH_KNOTS('',1,(#970,#971),.UNSPECIFIED.,.F.,.F.,
  (2,2),(0.,0.5),.PIECEWISE_BEZIER_KNOTS.);
#970 = CARTESIAN_POINT('',(-0.25,-2.5));
#971 = CARTESIAN_POINT('',(0.25,-2.5));
#972 = ( GEOMETRIC_REPRESENTATION_CONTEXT(2) 
PARAMETRIC_REPRESENTATION_CONTEXT() REPRESENTATION_CONTEXT('2D SPACE',''
  ) );
#973 = ORIENTED_EDGE('',*,*,#974,.F.);
#974 = EDGE_CURVE('',#975,#955,#977,.T.);
#975 = VERTEX_POINT('',#976);
#976 = CARTESIAN_POINT('',(-2.5,62.,40.25));
#977 = SURFACE_CURVE('',#978,(#983,#991),.PCURVE_S1.);
#978 = B_SPLINE_CURVE_WITH_KNOTS('',3,(#979,#980,#981,#982),
  .UNSPECIFIED.,.F.,.F.,(4,4),(0.,1.),.PIECEWISE_BEZIER_KNOTS.);
#979 = CARTESIAN_POINT('',(-2.5,62.,40.25));
#980 = CARTESIAN_POINT('',(-2.5,63.,40.25));
#981 = CARTESIAN_POINT('',(-2.5,76.9,40.25));
#982 = CARTESIAN_POINT('',(-2.5,77.,40.25));
#983 = PCURVE('',#46,#984);
#984 = DEFINITIONAL_REPRESENTATION('',(#985),#990);
#985 = B_SPLINE_CURVE_WITH_KNOTS('',3,(#986,#987,#988,#989),
  .UNSPECIFIED.,.F.,.F.,(4,4),(0.,1.),.PIECEWISE_BEZIER_KNOTS.);
#986 = CARTESIAN_POINT('',(-88.25,77.));
#987 = CARTESIAN_POINT('',(-88.25,78.));
#988 = CARTESIAN_POINT('',(-88.25,91.9));
#989 = CARTESIAN_POINT('',(-88.25,92.));
#990 = ( GEOMETRIC_REPRESENTATION_CONTEXT(2) 
PARAMETRIC_REPRESENTATION_CONTEXT() REPRESENTATION_CONTEXT('2D SPACE',''
  ) );
#991 = PCURVE('',#487,#992);
#992 = DEFINITIONAL_REPRESENTATION('',(#993),#998);
#993 = B_SPLINE_CURVE_WITH_KNOTS('',3,(#994,#995,#996,#997),
  .UNSPECIFIED.,.F.,.F.,(4,4),(0.,1.),.PIECEWISE_BEZIER_KNOTS.);
#994 = CARTESIAN_POINT('',(2.5,-7.7025));
#995 = CARTESIAN_POINT('',(2.5,-6.7025));
#996 = CARTESIAN_POINT('',(2.5,7.1975));
#997 = CARTESIAN_POINT('',(2.5,7.2975));
#998 = ( GEOMETRIC_REPRESENTATION_CONTEXT(2) 
PARAMETRIC_REPRESENTATION_CONTEXT() REPRESENTATION_CONTEXT('2D SPACE',''
  ) );
#999 = ORIENTED_EDGE('',*,*,#1000,.F.);
#1000 = EDGE_CURVE('',#1001,#975,#1003,.T.);
#1001 = VERTEX_POINT('',#1002);
#1002 = CARTESIAN_POINT('',(-2.5,48.779419208101,-45.34487624814));
#1003 = SURFACE_CURVE('',#1004,(#1020,#1039),.PCURVE_S1.);
#1004 = B_SPLINE_CURVE_WITH_KNOTS('',8,(#1005,#1006,#1007,#1008,#1009,
    #1010,#1011,#1012,#1013,#1014,#1015,#1016,#1017,#1018,#1019),
  .UNSPECIFIED.,.F.,.F.,(9,6,9),(0.,0.5,1.),.UNSPECIFIED.);
#1005 = CARTESIAN_POINT('',(-2.5,48.779419208101,-45.34487624814));
#1006 = CARTESIAN_POINT('',(-2.5,43.807993602556,-35.27202557986));
#1007 = CARTESIAN_POINT('',(-2.5,39.81449642053,-25.78951575809));
#1008 = CARTESIAN_POINT('',(-2.5,36.76096875652,-16.91800509814));
#1009 = CARTESIAN_POINT('',(-2.5,34.609396039392,-8.678476894713));
#1010 = CARTESIAN_POINT('',(-2.5,33.321974416574,-1.091317521464));
#1011 = CARTESIAN_POINT('',(-2.5,32.861442135086,5.823713519736));
#1012 = CARTESIAN_POINT('',(-2.5,33.521509703555,18.269529679809));
#1013 = CARTESIAN_POINT('',(-2.5,37.204147840468,27.858919174712));
#1014 = CARTESIAN_POINT('',(-2.5,39.765619044966,31.916661695495));
#1015 = CARTESIAN_POINT('',(-2.5,43.014612671994,35.217431056825));
#1016 = CARTESIAN_POINT('',(-2.5,46.912945878549,37.716009072595));
#1017 = CARTESIAN_POINT('',(-2.5,51.400896932565,39.399256058515));
#1018 = CARTESIAN_POINT('',(-2.5,56.442947000186,40.25));
#1019 = CARTESIAN_POINT('',(-2.5,62.,40.25));
#1020 = PCURVE('',#46,#1021);
#1021 = DEFINITIONAL_REPRESENTATION('',(#1022),#1038);
#1022 = B_SPLINE_CURVE_WITH_KNOTS('',8,(#1023,#1024,#1025,#1026,#1027,
    #1028,#1029,#1030,#1031,#1032,#1033,#1034,#1035,#1036,#1037),
  .UNSPECIFIED.,.F.,.F.,(9,6,9),(0.,0.5,1.),.UNSPECIFIED.);
#1023 = CARTESIAN_POINT('',(-2.655123751851,63.779419208101));
#1024 = CARTESIAN_POINT('',(-12.72797442013,58.807993602556));
#1025 = CARTESIAN_POINT('',(-22.2104842419,54.81449642053));
#1026 = CARTESIAN_POINT('',(-31.08199490186,51.76096875652));
#1027 = CARTESIAN_POINT('',(-39.32152310528,49.609396039392));
#1028 = CARTESIAN_POINT('',(-46.90868247853,48.321974416574));
#1029 = CARTESIAN_POINT('',(-53.82371351973,47.861442135086));
#1030 = CARTESIAN_POINT('',(-66.2695296798,48.521509703555));
#1031 = CARTESIAN_POINT('',(-75.85891917471,52.204147840468));
#1032 = CARTESIAN_POINT('',(-79.91666169549,54.765619044966));
#1033 = CARTESIAN_POINT('',(-83.21743105682,58.014612671994));
#1034 = CARTESIAN_POINT('',(-85.71600907259,61.912945878549));
#1035 = CARTESIAN_POINT('',(-87.39925605851,66.400896932565));
#1036 = CARTESIAN_POINT('',(-88.25,71.442947000186));
#1037 = CARTESIAN_POINT('',(-88.25,77.));
#1038 = ( GEOMETRIC_REPRESENTATION_CONTEXT(2) 
PARAMETRIC_REPRESENTATION_CONTEXT() REPRESENTATION_CONTEXT('2D SPACE',''
  ) );
#1039 = PCURVE('',#432,#1040);
#1040 = DEFINITIONAL_REPRESENTATION('',(#1041),#1045);
#1041 = LINE('',#1042,#1043);
#1042 = CARTESIAN_POINT('',(5.,0.));
#1043 = VECTOR('',#1044,1.);
#1044 = DIRECTION('',(0.,1.));
#1045 = ( GEOMETRIC_REPRESENTATION_CONTEXT(2) 
PARAMETRIC_REPRESENTATION_CONTEXT() REPRESENTATION_CONTEXT('2D SPACE',''
  ) );
#1046 = ORIENTED_EDGE('',*,*,#1047,.F.);
#1047 = EDGE_CURVE('',#736,#1001,#1048,.T.);
#1048 = SURFACE_CURVE('',#1049,(#1081,#1116),.PCURVE_S1.);
#1049 = B_SPLINE_CURVE_WITH_KNOTS('',9,(#1050,#1051,#1052,#1053,#1054,
    #1055,#1056,#1057,#1058,#1059,#1060,#1061,#1062,#1063,#1064,#1065,
    #1066,#1067,#1068,#1069,#1070,#1071,#1072,#1073,#1074,#1075,#1076,
    #1077,#1078,#1079,#1080),.UNSPECIFIED.,.F.,.F.,(10,7,7,7,10),(0.,
    0.340142665906,0.670071332953,0.835035666476,1.),.UNSPECIFIED.);
#1050 = CARTESIAN_POINT('',(-2.5,0.,-47.75));
#1051 = CARTESIAN_POINT('',(-2.5,2.280208288633,-47.75));
#1052 = CARTESIAN_POINT('',(-2.5,4.813858854303,-48.08299530627));
#1053 = CARTESIAN_POINT('',(-2.5,7.562062370745,-48.69404987563));
#1054 = CARTESIAN_POINT('',(-2.5,10.484551027257,-49.53422792709));
#1055 = CARTESIAN_POINT('',(-2.5,13.539204418123,-50.55496515267));
#1056 = CARTESIAN_POINT('',(-2.5,16.682757334166,-51.70679267174));
#1057 = CARTESIAN_POINT('',(-2.5,19.871814224046,-52.94021424129));
#1058 = CARTESIAN_POINT('',(-2.5,26.158940345962,-55.43483435597));
#1059 = CARTESIAN_POINT('',(-2.5,32.285641099722,-57.86580053044));
#1060 = CARTESIAN_POINT('',(-2.5,35.223181981533,-59.00228697104));
#1061 = CARTESIAN_POINT('',(-2.5,38.04340257529,-60.03425128344));
#1062 = CARTESIAN_POINT('',(-2.5,40.702665634006,-60.91494862314));
#1063 = CARTESIAN_POINT('',(-2.5,43.161860001865,-61.60096952032));
#1064 = CARTESIAN_POINT('',(-2.5,45.382654571175,-62.04837723267));
#1065 = CARTESIAN_POINT('',(-2.5,48.279787889098,-62.28649597383));
#1066 = CARTESIAN_POINT('',(-2.5,50.418852256195,-61.81315906321));
#1067 = CARTESIAN_POINT('',(-2.5,51.041391635158,-61.57387589068));
#1068 = CARTESIAN_POINT('',(-2.5,51.572333678831,-61.24442994376));
#1069 = CARTESIAN_POINT('',(-2.5,51.993161456887,-60.84234347904));
#1070 = CARTESIAN_POINT('',(-2.5,52.34896338118,-60.34513776224));
#1071 = CARTESIAN_POINT('',(-2.5,52.6077522285,-59.7284847891));
#1072 = CARTESIAN_POINT('',(-2.5,52.923866366267,-58.25208022003));
#1073 = CARTESIAN_POINT('',(-2.5,52.802347450542,-56.26485487805));
#1074 = CARTESIAN_POINT('',(-2.5,52.624143159577,-55.13854997722));
#1075 = CARTESIAN_POINT('',(-2.5,52.322286313781,-53.87540120991));
#1076 = CARTESIAN_POINT('',(-2.499999999999,51.891499955549,
    -52.47124598373));
#1077 = CARTESIAN_POINT('',(-2.5,51.32682093767,-50.9214375734));
#1078 = CARTESIAN_POINT('',(-2.5,50.623264098892,-49.22074512105));
#1079 = CARTESIAN_POINT('',(-2.5,49.775767569806,-47.36362681536));
#1080 = CARTESIAN_POINT('',(-2.5,48.779419208101,-45.34487624814));
#1081 = PCURVE('',#46,#1082);
#1082 = DEFINITIONAL_REPRESENTATION('',(#1083),#1115);
#1083 = B_SPLINE_CURVE_WITH_KNOTS('',9,(#1084,#1085,#1086,#1087,#1088,
    #1089,#1090,#1091,#1092,#1093,#1094,#1095,#1096,#1097,#1098,#1099,
    #1100,#1101,#1102,#1103,#1104,#1105,#1106,#1107,#1108,#1109,#1110,
    #1111,#1112,#1113,#1114),.UNSPECIFIED.,.F.,.F.,(10,7,7,7,10),(0.,
    0.340142665906,0.670071332953,0.835035666476,1.),.UNSPECIFIED.);
#1084 = CARTESIAN_POINT('',(-0.25,15.));
#1085 = CARTESIAN_POINT('',(-0.25,17.280208288633));
#1086 = CARTESIAN_POINT('',(8.29953062765E-02,19.813858854303));
#1087 = CARTESIAN_POINT('',(0.694049875637,22.562062370745));
#1088 = CARTESIAN_POINT('',(1.534227927092,25.484551027257));
#1089 = CARTESIAN_POINT('',(2.55496515267,28.539204418123));
#1090 = CARTESIAN_POINT('',(3.706792671742,31.682757334166));
#1091 = CARTESIAN_POINT('',(4.940214241295,34.871814224046));
#1092 = CARTESIAN_POINT('',(7.434834355976,41.158940345962));
#1093 = CARTESIAN_POINT('',(9.86580053044,47.285641099722));
#1094 = CARTESIAN_POINT('',(11.002286971046,50.223181981533));
#1095 = CARTESIAN_POINT('',(12.034251283449,53.04340257529));
#1096 = CARTESIAN_POINT('',(12.914948623142,55.702665634006));
#1097 = CARTESIAN_POINT('',(13.600969520329,58.161860001865));
#1098 = CARTESIAN_POINT('',(14.048377232677,60.382654571175));
#1099 = CARTESIAN_POINT('',(14.286495973832,63.279787889098));
#1100 = CARTESIAN_POINT('',(13.813159063218,65.418852256195));
#1101 = CARTESIAN_POINT('',(13.573875890684,66.041391635158));
#1102 = CARTESIAN_POINT('',(13.244429943761,66.572333678831));
#1103 = CARTESIAN_POINT('',(12.842343479045,66.993161456887));
#1104 = CARTESIAN_POINT('',(12.345137762245,67.34896338118));
#1105 = CARTESIAN_POINT('',(11.7284847891,67.6077522285));
#1106 = CARTESIAN_POINT('',(10.252080220039,67.923866366267));
#1107 = CARTESIAN_POINT('',(8.264854878053,67.802347450542));
#1108 = CARTESIAN_POINT('',(7.138549977224,67.624143159577));
#1109 = CARTESIAN_POINT('',(5.875401209912,67.322286313781));
#1110 = CARTESIAN_POINT('',(4.471245983735,66.891499955549));
#1111 = CARTESIAN_POINT('',(2.921437573402,66.32682093767));
#1112 = CARTESIAN_POINT('',(1.220745121058,65.623264098892));
#1113 = CARTESIAN_POINT('',(-0.63637318464,64.775767569806));
#1114 = CARTESIAN_POINT('',(-2.655123751851,63.779419208101));
#1115 = ( GEOMETRIC_REPRESENTATION_CONTEXT(2) 
PARAMETRIC_REPRESENTATION_CONTEXT() REPRESENTATION_CONTEXT('2D SPACE',''
  ) );
#1116 = PCURVE('',#323,#1117);
#1117 = DEFINITIONAL_REPRESENTATION('',(#1118),#1122);
#1118 = LINE('',#1119,#1120);
#1119 = CARTESIAN_POINT('',(5.,0.));
#1120 = VECTOR('',#1121,1.);
#1121 = DIRECTION('',(0.,1.));
#1122 = ( GEOMETRIC_REPRESENTATION_CONTEXT(2) 
PARAMETRIC_REPRESENTATION_CONTEXT() REPRESENTATION_CONTEXT('2D SPACE',''
  ) );
#1123 = ADVANCED_FACE('',(#1124),#127,.F.);
#1124 = FACE_BOUND('',#1125,.F.);
#1125 = EDGE_LOOP('',(#1126,#1127,#1128,#1129));
#1126 = ORIENTED_EDGE('',*,*,#802,.F.);
#1127 = ORIENTED_EDGE('',*,*,#115,.T.);
#1128 = ORIENTED_EDGE('',*,*,#634,.T.);
#1129 = ORIENTED_EDGE('',*,*,#1130,.F.);
#1130 = EDGE_CURVE('',#803,#557,#1131,.T.);
#1131 = SURFACE_CURVE('',#1132,(#1135,#1142),.PCURVE_S1.);
#1132 = B_SPLINE_CURVE_WITH_KNOTS('',1,(#1133,#1134),.UNSPECIFIED.,.F.,
  .F.,(2,2),(0.,5.),.PIECEWISE_BEZIER_KNOTS.);
#1133 = CARTESIAN_POINT('',(-2.5,49.227784126522,-45.12358707098));
#1134 = CARTESIAN_POINT('',(2.5,49.227784126522,-45.12358707098));
#1135 = PCURVE('',#127,#1136);
#1136 = DEFINITIONAL_REPRESENTATION('',(#1137),#1141);
#1137 = LINE('',#1138,#1139);
#1138 = CARTESIAN_POINT('',(0.,1.));
#1139 = VECTOR('',#1140,1.);
#1140 = DIRECTION('',(1.,0.));
#1141 = ( GEOMETRIC_REPRESENTATION_CONTEXT(2) 
PARAMETRIC_REPRESENTATION_CONTEXT() REPRESENTATION_CONTEXT('2D SPACE',''
  ) );
#1142 = PCURVE('',#596,#1143);
#1143 = DEFINITIONAL_REPRESENTATION('',(#1144),#1147);
#1144 = B_SPLINE_CURVE_WITH_KNOTS('',1,(#1145,#1146),.UNSPECIFIED.,.F.,
  .F.,(2,2),(0.,5.),.PIECEWISE_BEZIER_KNOTS.);
#1145 = CARTESIAN_POINT('',(0.,0.));
#1146 = CARTESIAN_POINT('',(5.,0.));
#1147 = ( GEOMETRIC_REPRESENTATION_CONTEXT(2) 
PARAMETRIC_REPRESENTATION_CONTEXT() REPRESENTATION_CONTEXT('2D SPACE',''
  ) );
#1148 = ADVANCED_FACE('',(#1149),#323,.F.);
#1149 = FACE_BOUND('',#1150,.F.);
#1150 = EDGE_LOOP('',(#1151,#1152,#1153,#1154));
#1151 = ORIENTED_EDGE('',*,*,#251,.F.);
#1152 = ORIENTED_EDGE('',*,*,#761,.T.);
#1153 = ORIENTED_EDGE('',*,*,#1047,.T.);
#1154 = ORIENTED_EDGE('',*,*,#1155,.F.);
#1155 = EDGE_CURVE('',#252,#1001,#1156,.T.);
#1156 = SURFACE_CURVE('',#1157,(#1160,#1167),.PCURVE_S1.);
#1157 = B_SPLINE_CURVE_WITH_KNOTS('',1,(#1158,#1159),.UNSPECIFIED.,.F.,
  .F.,(2,2),(0.,5.),.PIECEWISE_BEZIER_KNOTS.);
#1158 = CARTESIAN_POINT('',(2.5,48.779419208101,-45.34487624814));
#1159 = CARTESIAN_POINT('',(-2.5,48.779419208101,-45.34487624814));
#1160 = PCURVE('',#323,#1161);
#1161 = DEFINITIONAL_REPRESENTATION('',(#1162),#1166);
#1162 = LINE('',#1163,#1164);
#1163 = CARTESIAN_POINT('',(0.,1.));
#1164 = VECTOR('',#1165,1.);
#1165 = DIRECTION('',(1.,0.));
#1166 = ( GEOMETRIC_REPRESENTATION_CONTEXT(2) 
PARAMETRIC_REPRESENTATION_CONTEXT() REPRESENTATION_CONTEXT('2D SPACE',''
  ) );
#1167 = PCURVE('',#432,#1168);
#1168 = DEFINITIONAL_REPRESENTATION('',(#1169),#1172);
#1169 = B_SPLINE_CURVE_WITH_KNOTS('',1,(#1170,#1171),.UNSPECIFIED.,.F.,
  .F.,(2,2),(0.,5.),.PIECEWISE_BEZIER_KNOTS.);
#1170 = CARTESIAN_POINT('',(0.,0.));
#1171 = CARTESIAN_POINT('',(5.,0.));
#1172 = ( GEOMETRIC_REPRESENTATION_CONTEXT(2) 
PARAMETRIC_REPRESENTATION_CONTEXT() REPRESENTATION_CONTEXT('2D SPACE',''
  ) );
#1173 = ADVANCED_FACE('',(#1174),#596,.F.);
#1174 = FACE_BOUND('',#1175,.F.);
#1175 = EDGE_LOOP('',(#1176,#1177,#1178,#1179));
#1176 = ORIENTED_EDGE('',*,*,#881,.F.);
#1177 = ORIENTED_EDGE('',*,*,#1130,.T.);
#1178 = ORIENTED_EDGE('',*,*,#556,.T.);
#1179 = ORIENTED_EDGE('',*,*,#1180,.F.);
#1180 = EDGE_CURVE('',#882,#526,#1181,.T.);
#1181 = SURFACE_CURVE('',#1182,(#1185,#1192),.PCURVE_S1.);
#1182 = B_SPLINE_CURVE_WITH_KNOTS('',1,(#1183,#1184),.UNSPECIFIED.,.F.,
  .F.,(2,2),(0.,5.),.PIECEWISE_BEZIER_KNOTS.);
#1183 = CARTESIAN_POINT('',(-2.5,62.,39.75));
#1184 = CARTESIAN_POINT('',(2.5,62.,39.75));
#1185 = PCURVE('',#596,#1186);
#1186 = DEFINITIONAL_REPRESENTATION('',(#1187),#1191);
#1187 = LINE('',#1188,#1189);
#1188 = CARTESIAN_POINT('',(0.,1.));
#1189 = VECTOR('',#1190,1.);
#1190 = DIRECTION('',(1.,0.));
#1191 = ( GEOMETRIC_REPRESENTATION_CONTEXT(2) 
PARAMETRIC_REPRESENTATION_CONTEXT() REPRESENTATION_CONTEXT('2D SPACE',''
  ) );
#1192 = PCURVE('',#543,#1193);
#1193 = DEFINITIONAL_REPRESENTATION('',(#1194),#1197);
#1194 = B_SPLINE_CURVE_WITH_KNOTS('',1,(#1195,#1196),.UNSPECIFIED.,.F.,
  .F.,(2,2),(0.,5.),.PIECEWISE_BEZIER_KNOTS.);
#1195 = CARTESIAN_POINT('',(-2.5,-7.7025));
#1196 = CARTESIAN_POINT('',(2.5,-7.7025));
#1197 = ( GEOMETRIC_REPRESENTATION_CONTEXT(2) 
PARAMETRIC_REPRESENTATION_CONTEXT() REPRESENTATION_CONTEXT('2D SPACE',''
  ) );
#1198 = ADVANCED_FACE('',(#1199),#432,.F.);
#1199 = FACE_BOUND('',#1200,.F.);
#1200 = EDGE_LOOP('',(#1201,#1202,#1203,#1204));
#1201 = ORIENTED_EDGE('',*,*,#392,.F.);
#1202 = ORIENTED_EDGE('',*,*,#1155,.T.);
#1203 = ORIENTED_EDGE('',*,*,#1000,.T.);
#1204 = ORIENTED_EDGE('',*,*,#1205,.F.);
#1205 = EDGE_CURVE('',#393,#975,#1206,.T.);
#1206 = SURFACE_CURVE('',#1207,(#1210,#1217),.PCURVE_S1.);
#1207 = B_SPLINE_CURVE_WITH_KNOTS('',1,(#1208,#1209),.UNSPECIFIED.,.F.,
  .F.,(2,2),(0.,5.),.PIECEWISE_BEZIER_KNOTS.);
#1208 = CARTESIAN_POINT('',(2.5,62.,40.25));
#1209 = CARTESIAN_POINT('',(-2.5,62.,40.25));
#1210 = PCURVE('',#432,#1211);
#1211 = DEFINITIONAL_REPRESENTATION('',(#1212),#1216);
#1212 = LINE('',#1213,#1214);
#1213 = CARTESIAN_POINT('',(0.,1.));
#1214 = VECTOR('',#1215,1.);
#1215 = DIRECTION('',(1.,0.));
#1216 = ( GEOMETRIC_REPRESENTATION_CONTEXT(2) 
PARAMETRIC_REPRESENTATION_CONTEXT() REPRESENTATION_CONTEXT('2D SPACE',''
  ) );
#1217 = PCURVE('',#487,#1218);
#1218 = DEFINITIONAL_REPRESENTATION('',(#1219),#1222);
#1219 = B_SPLINE_CURVE_WITH_KNOTS('',1,(#1220,#1221),.UNSPECIFIED.,.F.,
  .F.,(2,2),(0.,5.),.PIECEWISE_BEZIER_KNOTS.);
#1220 = CARTESIAN_POINT('',(-2.5,-7.7025));
#1221 = CARTESIAN_POINT('',(2.5,-7.7025));
#1222 = ( GEOMETRIC_REPRESENTATION_CONTEXT(2) 
PARAMETRIC_REPRESENTATION_CONTEXT() REPRESENTATION_CONTEXT('2D SPACE',''
  ) );
#1223 = ADVANCED_FACE('',(#1224),#543,.F.);
#1224 = FACE_BOUND('',#1225,.F.);
#1225 = EDGE_LOOP('',(#1226,#1227,#1228,#1229));
#1226 = ORIENTED_EDGE('',*,*,#928,.F.);
#1227 = ORIENTED_EDGE('',*,*,#1180,.T.);
#1228 = ORIENTED_EDGE('',*,*,#525,.T.);
#1229 = ORIENTED_EDGE('',*,*,#1230,.F.);
#1230 = EDGE_CURVE('',#929,#501,#1231,.T.);
#1231 = SURFACE_CURVE('',#1232,(#1235,#1241),.PCURVE_S1.);
#1232 = B_SPLINE_CURVE_WITH_KNOTS('',1,(#1233,#1234),.UNSPECIFIED.,.F.,
  .F.,(2,2),(0.,5.),.PIECEWISE_BEZIER_KNOTS.);
#1233 = CARTESIAN_POINT('',(-2.5,77.,39.75));
#1234 = CARTESIAN_POINT('',(2.5,77.,39.75));
#1235 = PCURVE('',#543,#1236);
#1236 = DEFINITIONAL_REPRESENTATION('',(#1237),#1240);
#1237 = B_SPLINE_CURVE_WITH_KNOTS('',1,(#1238,#1239),.UNSPECIFIED.,.F.,
  .F.,(2,2),(0.,5.),.PIECEWISE_BEZIER_KNOTS.);
#1238 = CARTESIAN_POINT('',(-2.5,7.2975));
#1239 = CARTESIAN_POINT('',(2.5,7.2975));
#1240 = ( GEOMETRIC_REPRESENTATION_CONTEXT(2) 
PARAMETRIC_REPRESENTATION_CONTEXT() REPRESENTATION_CONTEXT('2D SPACE',''
  ) );
#1241 = PCURVE('',#514,#1242);
#1242 = DEFINITIONAL_REPRESENTATION('',(#1243),#1246);
#1243 = B_SPLINE_CURVE_WITH_KNOTS('',1,(#1244,#1245),.UNSPECIFIED.,.F.,
  .F.,(2,2),(0.,5.),.PIECEWISE_BEZIER_KNOTS.);
#1244 = CARTESIAN_POINT('',(0.25,-2.5));
#1245 = CARTESIAN_POINT('',(0.25,2.5));
#1246 = ( GEOMETRIC_REPRESENTATION_CONTEXT(2) 
PARAMETRIC_REPRESENTATION_CONTEXT() REPRESENTATION_CONTEXT('2D SPACE',''
  ) );
#1247 = ADVANCED_FACE('',(#1248),#487,.F.);
#1248 = FACE_BOUND('',#1249,.F.);
#1249 = EDGE_LOOP('',(#1250,#1251,#1252,#1253));
#1250 = ORIENTED_EDGE('',*,*,#469,.F.);
#1251 = ORIENTED_EDGE('',*,*,#1205,.T.);
#1252 = ORIENTED_EDGE('',*,*,#974,.T.);
#1253 = ORIENTED_EDGE('',*,*,#1254,.F.);
#1254 = EDGE_CURVE('',#470,#955,#1255,.T.);
#1255 = SURFACE_CURVE('',#1256,(#1259,#1265),.PCURVE_S1.);
#1256 = B_SPLINE_CURVE_WITH_KNOTS('',1,(#1257,#1258),.UNSPECIFIED.,.F.,
  .F.,(2,2),(0.,5.),.PIECEWISE_BEZIER_KNOTS.);
#1257 = CARTESIAN_POINT('',(2.5,77.,40.25));
#1258 = CARTESIAN_POINT('',(-2.5,77.,40.25));
#1259 = PCURVE('',#487,#1260);
#1260 = DEFINITIONAL_REPRESENTATION('',(#1261),#1264);
#1261 = B_SPLINE_CURVE_WITH_KNOTS('',1,(#1262,#1263),.UNSPECIFIED.,.F.,
  .F.,(2,2),(0.,5.),.PIECEWISE_BEZIER_KNOTS.);
#1262 = CARTESIAN_POINT('',(-2.5,7.2975));
#1263 = CARTESIAN_POINT('',(2.5,7.2975));
#1264 = ( GEOMETRIC_REPRESENTATION_CONTEXT(2) 
PARAMETRIC_REPRESENTATION_CONTEXT() REPRESENTATION_CONTEXT('2D SPACE',''
  ) );
#1265 = PCURVE('',#514,#1266);
#1266 = DEFINITIONAL_REPRESENTATION('',(#1267),#1270);
#1267 = B_SPLINE_CURVE_WITH_KNOTS('',1,(#1268,#1269),.UNSPECIFIED.,.F.,
  .F.,(2,2),(0.,5.),.PIECEWISE_BEZIER_KNOTS.);
#1268 = CARTESIAN_POINT('',(-0.25,2.5));
#1269 = CARTESIAN_POINT('',(-0.25,-2.5));
#1270 = ( GEOMETRIC_REPRESENTATION_CONTEXT(2) 
PARAMETRIC_REPRESENTATION_CONTEXT() REPRESENTATION_CONTEXT('2D SPACE',''
  ) );
#1271 = ADVANCED_FACE('',(#1272),#73,.T.);
#1272 = FACE_BOUND('',#1273,.T.);
#1273 = EDGE_LOOP('',(#1274,#1275,#1276,#1277));
#1274 = ORIENTED_EDGE('',*,*,#59,.T.);
#1275 = ORIENTED_EDGE('',*,*,#200,.T.);
#1276 = ORIENTED_EDGE('',*,*,#715,.T.);
#1277 = ORIENTED_EDGE('',*,*,#783,.T.);
#1278 = ADVANCED_FACE('',(#1279),#514,.F.);
#1279 = FACE_BOUND('',#1280,.F.);
#1280 = EDGE_LOOP('',(#1281,#1282,#1283,#1284));
#1281 = ORIENTED_EDGE('',*,*,#1230,.T.);
#1282 = ORIENTED_EDGE('',*,*,#500,.T.);
#1283 = ORIENTED_EDGE('',*,*,#1254,.T.);
#1284 = ORIENTED_EDGE('',*,*,#954,.T.);
#1285 = ( GEOMETRIC_REPRESENTATION_CONTEXT(3) 
GLOBAL_UNCERTAINTY_ASSIGNED_CONTEXT((#1289)) 
GLOBAL_UNIT_ASSIGNED_CONTEXT((#1286,#1287,#1288)) REPRESENTATION_CONTEXT
('Context #1','3D Context with UNIT and UNCERTAINTY') );
#1286 = ( LENGTH_UNIT() NAMED_UNIT(*) SI_UNIT(.MILLI.,.METRE.) );
#1287 = ( NAMED_UNIT(*) PLANE_ANGLE_UNIT() SI_UNIT($,.RADIAN.) );
#1288 = ( NAMED_UNIT(*) SI_UNIT($,.STERADIAN.) SOLID_ANGLE_UNIT() );
#1289 = UNCERTAINTY_MEASURE_WITH_UNIT(LENGTH_MEASURE(2.E-05),#1286,
  'distance_accuracy_value','confusion accuracy');
#1290 = PRODUCT_RELATED_PRODUCT_CATEGORY('part',$,(#7));
ENDSEC;
END-ISO-10303-21;
