ISO-10303-21;
HEADER;
FILE_DESCRIPTION(('Open CASCADE Model'),'2;1');
FILE_NAME('Open CASCADE Shape Model','2026-06-16T17:59:10',('Author'),(
    'Open CASCADE'),'Open CASCADE STEP processor 7.8','Open CASCADE 7.8'
  ,'Unknown');
FILE_SCHEMA(('AUTOMOTIVE_DESIGN { 1 0 10303 214 1 1 1 1 }'));
ENDSEC;
DATA;
#1 = APPLICATION_PROTOCOL_DEFINITION('international standard',
  'automotive_design',2000,#2);
#2 = APPLICATION_CONTEXT(
  'core data for automotive mechanical design processes');
#3 = SHAPE_DEFINITION_REPRESENTATION(#4,#10);
#4 = PRODUCT_DEFINITION_SHAPE('','',#5);
#5 = PRODUCT_DEFINITION('design','',#6,#9);
#6 = PRODUCT_DEFINITION_FORMATION('','',#7);
#7 = PRODUCT('Open CASCADE STEP translator 7.8 1',
  'Open CASCADE STEP translator 7.8 1','',(#8));
#8 = PRODUCT_CONTEXT('',#2,'mechanical');
#9 = PRODUCT_DEFINITION_CONTEXT('part definition',#2,'design');
#10 = ADVANCED_BREP_SHAPE_REPRESENTATION('',(#11,#15),#1345);
#11 = AXIS2_PLACEMENT_3D('',#12,#13,#14);
#12 = CARTESIAN_POINT('',(0.,0.,0.));
#13 = DIRECTION('',(0.,0.,1.));
#14 = DIRECTION('',(1.,0.,-0.));
#15 = MANIFOLD_SOLID_BREP('',#16);
#16 = CLOSED_SHELL('',(#17,#181,#750,#818,#1183,#1208,#1233,#1258,#1283,
    #1307,#1331,#1338));
#17 = ADVANCED_FACE('',(#18),#33,.F.);
#18 = FACE_BOUND('',#19,.F.);
#19 = EDGE_LOOP('',(#20,#58,#83,#114));
#20 = ORIENTED_EDGE('',*,*,#21,.F.);
#21 = EDGE_CURVE('',#22,#24,#26,.T.);
#22 = VERTEX_POINT('',#23);
#23 = CARTESIAN_POINT('',(-2.5,-30.,-58.5));
#24 = VERTEX_POINT('',#25);
#25 = CARTESIAN_POINT('',(-2.5,3.552713678801E-15,-58.5));
#26 = SURFACE_CURVE('',#27,(#32,#45),.PCURVE_S1.);
#27 = B_SPLINE_CURVE_WITH_KNOTS('',3,(#28,#29,#30,#31),.UNSPECIFIED.,.F.
  ,.F.,(4,4),(0.,1.),.PIECEWISE_BEZIER_KNOTS.);
#28 = CARTESIAN_POINT('',(-2.5,-30.,-58.5));
#29 = CARTESIAN_POINT('',(-2.5,-29.9,-58.5));
#30 = CARTESIAN_POINT('',(-2.5,-1.E-01,-58.5));
#31 = CARTESIAN_POINT('',(-2.5,8.881784197001E-15,-58.5));
#32 = PCURVE('',#33,#38);
#33 = PLANE('',#34);
#34 = AXIS2_PLACEMENT_3D('',#35,#36,#37);
#35 = CARTESIAN_POINT('',(0.,-15.,-58.5));
#36 = DIRECTION('',(2.936127007273E-16,4.163268695587E-16,1.));
#37 = DIRECTION('',(1.,5.020246460856E-19,-2.936127007273E-16));
#38 = DEFINITIONAL_REPRESENTATION('',(#39),#44);
#39 = B_SPLINE_CURVE_WITH_KNOTS('',3,(#40,#41,#42,#43),.UNSPECIFIED.,.F.
  ,.F.,(4,4),(0.,1.),.PIECEWISE_BEZIER_KNOTS.);
#40 = CARTESIAN_POINT('',(-2.5,-15.));
#41 = CARTESIAN_POINT('',(-2.5,-14.9));
#42 = CARTESIAN_POINT('',(-2.5,14.9));
#43 = CARTESIAN_POINT('',(-2.5,15.));
#44 = ( GEOMETRIC_REPRESENTATION_CONTEXT(2) 
PARAMETRIC_REPRESENTATION_CONTEXT() REPRESENTATION_CONTEXT('2D SPACE',''
  ) );
#45 = PCURVE('',#46,#51);
#46 = PLANE('',#47);
#47 = AXIS2_PLACEMENT_3D('',#48,#49,#50);
#48 = CARTESIAN_POINT('',(-2.5,-15.,-58.));
#49 = DIRECTION('',(1.,4.004753648206E-18,-2.459720973091E-30));
#50 = DIRECTION('',(-2.459159997481E-30,-1.400774328875E-16,-1.));
#51 = DEFINITIONAL_REPRESENTATION('',(#52),#57);
#52 = B_SPLINE_CURVE_WITH_KNOTS('',3,(#53,#54,#55,#56),.UNSPECIFIED.,.F.
  ,.F.,(4,4),(0.,1.),.PIECEWISE_BEZIER_KNOTS.);
#53 = CARTESIAN_POINT('',(0.5,-15.));
#54 = CARTESIAN_POINT('',(0.5,-14.9));
#55 = CARTESIAN_POINT('',(0.5,14.9));
#56 = CARTESIAN_POINT('',(0.5,15.));
#57 = ( GEOMETRIC_REPRESENTATION_CONTEXT(2) 
PARAMETRIC_REPRESENTATION_CONTEXT() REPRESENTATION_CONTEXT('2D SPACE',''
  ) );
#58 = ORIENTED_EDGE('',*,*,#59,.T.);
#59 = EDGE_CURVE('',#22,#60,#62,.T.);
#60 = VERTEX_POINT('',#61);
#61 = CARTESIAN_POINT('',(2.5,-30.,-58.5));
#62 = SURFACE_CURVE('',#63,(#66,#72),.PCURVE_S1.);
#63 = B_SPLINE_CURVE_WITH_KNOTS('',1,(#64,#65),.UNSPECIFIED.,.F.,.F.,(2,
    2),(0.,5.),.PIECEWISE_BEZIER_KNOTS.);
#64 = CARTESIAN_POINT('',(-2.5,-30.,-58.5));
#65 = CARTESIAN_POINT('',(2.5,-30.,-58.5));
#66 = PCURVE('',#33,#67);
#67 = DEFINITIONAL_REPRESENTATION('',(#68),#71);
#68 = B_SPLINE_CURVE_WITH_KNOTS('',1,(#69,#70),.UNSPECIFIED.,.F.,.F.,(2,
    2),(0.,5.),.PIECEWISE_BEZIER_KNOTS.);
#69 = CARTESIAN_POINT('',(-2.5,-15.));
#70 = CARTESIAN_POINT('',(2.5,-15.));
#71 = ( GEOMETRIC_REPRESENTATION_CONTEXT(2) 
PARAMETRIC_REPRESENTATION_CONTEXT() REPRESENTATION_CONTEXT('2D SPACE',''
  ) );
#72 = PCURVE('',#73,#78);
#73 = PLANE('',#74);
#74 = AXIS2_PLACEMENT_3D('',#75,#76,#77);
#75 = CARTESIAN_POINT('',(0.,-30.,-58.));
#76 = DIRECTION('',(-0.,-1.,-0.));
#77 = DIRECTION('',(0.,0.,-1.));
#78 = DEFINITIONAL_REPRESENTATION('',(#79),#82);
#79 = B_SPLINE_CURVE_WITH_KNOTS('',1,(#80,#81),.UNSPECIFIED.,.F.,.F.,(2,
    2),(0.,5.),.PIECEWISE_BEZIER_KNOTS.);
#80 = CARTESIAN_POINT('',(0.5,-2.5));
#81 = CARTESIAN_POINT('',(0.5,2.5));
#82 = ( GEOMETRIC_REPRESENTATION_CONTEXT(2) 
PARAMETRIC_REPRESENTATION_CONTEXT() REPRESENTATION_CONTEXT('2D SPACE',''
  ) );
#83 = ORIENTED_EDGE('',*,*,#84,.T.);
#84 = EDGE_CURVE('',#60,#85,#87,.T.);
#85 = VERTEX_POINT('',#86);
#86 = CARTESIAN_POINT('',(2.5,3.552713678801E-15,-58.5));
#87 = SURFACE_CURVE('',#88,(#93,#101),.PCURVE_S1.);
#88 = B_SPLINE_CURVE_WITH_KNOTS('',3,(#89,#90,#91,#92),.UNSPECIFIED.,.F.
  ,.F.,(4,4),(0.,1.),.PIECEWISE_BEZIER_KNOTS.);
#89 = CARTESIAN_POINT('',(2.5,-30.,-58.5));
#90 = CARTESIAN_POINT('',(2.5,-29.9,-58.5));
#91 = CARTESIAN_POINT('',(2.5,-1.E-01,-58.5));
#92 = CARTESIAN_POINT('',(2.5,8.881784197001E-15,-58.5));
#93 = PCURVE('',#33,#94);
#94 = DEFINITIONAL_REPRESENTATION('',(#95),#100);
#95 = B_SPLINE_CURVE_WITH_KNOTS('',3,(#96,#97,#98,#99),.UNSPECIFIED.,.F.
  ,.F.,(4,4),(0.,1.),.PIECEWISE_BEZIER_KNOTS.);
#96 = CARTESIAN_POINT('',(2.5,-15.));
#97 = CARTESIAN_POINT('',(2.5,-14.9));
#98 = CARTESIAN_POINT('',(2.5,14.9));
#99 = CARTESIAN_POINT('',(2.5,15.));
#100 = ( GEOMETRIC_REPRESENTATION_CONTEXT(2) 
PARAMETRIC_REPRESENTATION_CONTEXT() REPRESENTATION_CONTEXT('2D SPACE',''
  ) );
#101 = PCURVE('',#102,#107);
#102 = PLANE('',#103);
#103 = AXIS2_PLACEMENT_3D('',#104,#105,#106);
#104 = CARTESIAN_POINT('',(2.5,-15.,-58.));
#105 = DIRECTION('',(-1.,4.004753648206E-18,2.974338306924E-30));
#106 = DIRECTION('',(2.974863821389E-30,1.312226697902E-16,1.));
#107 = DEFINITIONAL_REPRESENTATION('',(#108),#113);
#108 = B_SPLINE_CURVE_WITH_KNOTS('',3,(#109,#110,#111,#112),
  .UNSPECIFIED.,.F.,.F.,(4,4),(0.,1.),.PIECEWISE_BEZIER_KNOTS.);
#109 = CARTESIAN_POINT('',(-0.5,-15.));
#110 = CARTESIAN_POINT('',(-0.5,-14.9));
#111 = CARTESIAN_POINT('',(-0.5,14.9));
#112 = CARTESIAN_POINT('',(-0.5,15.));
#113 = ( GEOMETRIC_REPRESENTATION_CONTEXT(2) 
PARAMETRIC_REPRESENTATION_CONTEXT() REPRESENTATION_CONTEXT('2D SPACE',''
  ) );
#114 = ORIENTED_EDGE('',*,*,#115,.F.);
#115 = EDGE_CURVE('',#24,#85,#116,.T.);
#116 = SURFACE_CURVE('',#117,(#120,#126),.PCURVE_S1.);
#117 = B_SPLINE_CURVE_WITH_KNOTS('',1,(#118,#119),.UNSPECIFIED.,.F.,.F.,
  (2,2),(0.,5.),.PIECEWISE_BEZIER_KNOTS.);
#118 = CARTESIAN_POINT('',(-2.5,8.881784197001E-15,-58.5));
#119 = CARTESIAN_POINT('',(2.5,8.881784197001E-15,-58.5));
#120 = PCURVE('',#33,#121);
#121 = DEFINITIONAL_REPRESENTATION('',(#122),#125);
#122 = B_SPLINE_CURVE_WITH_KNOTS('',1,(#123,#124),.UNSPECIFIED.,.F.,.F.,
  (2,2),(0.,5.),.PIECEWISE_BEZIER_KNOTS.);
#123 = CARTESIAN_POINT('',(-2.5,15.));
#124 = CARTESIAN_POINT('',(2.5,15.));
#125 = ( GEOMETRIC_REPRESENTATION_CONTEXT(2) 
PARAMETRIC_REPRESENTATION_CONTEXT() REPRESENTATION_CONTEXT('2D SPACE',''
  ) );
#126 = PCURVE('',#127,#176);
#127 = B_SPLINE_SURFACE_WITH_KNOTS('',1,9,(
    (#128,#129,#130,#131,#132,#133,#134,#135,#136,#137,#138,#139,#140
      ,#141,#142,#143,#144,#145,#146,#147,#148,#149,#150,#151)
    ,(#152,#153,#154,#155,#156,#157,#158,#159,#160,#161,#162,#163,#164
      ,#165,#166,#167,#168,#169,#170,#171,#172,#173,#174,#175
  )),.UNSPECIFIED.,.F.,.F.,.F.,(2,2),(10,7,7,10),(0.,5.),(0.,0.5,0.75,1.
    ),.UNSPECIFIED.);
#128 = CARTESIAN_POINT('',(-2.5,0.,-58.5));
#129 = CARTESIAN_POINT('',(-2.5,5.590001396105,-58.49999999999));
#130 = CARTESIAN_POINT('',(-2.5,12.422239028408,-57.90573342991));
#131 = CARTESIAN_POINT('',(-2.5,20.264498976773,-56.76932128801));
#132 = CARTESIAN_POINT('',(-2.5,28.857178588787,-55.12937743984));
#133 = CARTESIAN_POINT('',(-2.5,37.94858867627,-53.0317266429));
#134 = CARTESIAN_POINT('',(-2.5,47.28623879169,-50.52138533603));
#135 = CARTESIAN_POINT('',(-2.5,56.612551407886,-47.63962076091));
#136 = CARTESIAN_POINT('',(-2.5,70.205552741399,-42.82700126107));
#137 = CARTESIAN_POINT('',(-2.5,82.632227625972,-37.3742829002));
#138 = CARTESIAN_POINT('',(-2.5,86.613198542138,-35.49091437088));
#139 = CARTESIAN_POINT('',(-2.5,90.401138667485,-33.54692020141));
#140 = CARTESIAN_POINT('',(-2.5,93.964412246375,-31.54741621096));
#141 = CARTESIAN_POINT('',(-2.5,97.271614929316,-29.49739363823));
#142 = CARTESIAN_POINT('',(-2.5,100.2914990881,-27.40147657853));
#143 = CARTESIAN_POINT('',(-2.5,105.69396897122,-23.12553773224));
#144 = CARTESIAN_POINT('',(-2.5,109.69456740435,-18.69128166358));
#145 = CARTESIAN_POINT('',(-2.5,111.31401345838,-16.43756224424));
#146 = CARTESIAN_POINT('',(-2.5,112.50952036387,-14.14369266186));
#147 = CARTESIAN_POINT('',(-2.5,113.27530759219,-11.82878347565));
#148 = CARTESIAN_POINT('',(-2.5,113.52567868533,-9.439569672999));
#149 = CARTESIAN_POINT('',(-2.5,113.22218261898,-7.067987481766));
#150 = CARTESIAN_POINT('',(-2.5,112.3585262746,-4.716132046907));
#151 = CARTESIAN_POINT('',(-2.5,110.91172003447,-2.390864179543));
#152 = CARTESIAN_POINT('',(2.5,0.,-58.5));
#153 = CARTESIAN_POINT('',(2.5,5.590001396105,-58.49999999999));
#154 = CARTESIAN_POINT('',(2.5,12.422239028408,-57.90573342991));
#155 = CARTESIAN_POINT('',(2.5,20.264498976773,-56.76932128801));
#156 = CARTESIAN_POINT('',(2.5,28.857178588787,-55.12937743984));
#157 = CARTESIAN_POINT('',(2.5,37.94858867627,-53.0317266429));
#158 = CARTESIAN_POINT('',(2.5,47.28623879169,-50.52138533603));
#159 = CARTESIAN_POINT('',(2.5,56.612551407886,-47.63962076091));
#160 = CARTESIAN_POINT('',(2.5,70.205552741399,-42.82700126107));
#161 = CARTESIAN_POINT('',(2.5,82.632227625972,-37.3742829002));
#162 = CARTESIAN_POINT('',(2.5,86.613198542138,-35.49091437088));
#163 = CARTESIAN_POINT('',(2.5,90.401138667485,-33.54692020141));
#164 = CARTESIAN_POINT('',(2.5,93.964412246375,-31.54741621096));
#165 = CARTESIAN_POINT('',(2.5,97.271614929316,-29.49739363823));
#166 = CARTESIAN_POINT('',(2.5,100.2914990881,-27.40147657853));
#167 = CARTESIAN_POINT('',(2.5,105.69396897122,-23.12553773224));
#168 = CARTESIAN_POINT('',(2.5,109.69456740435,-18.69128166358));
#169 = CARTESIAN_POINT('',(2.5,111.31401345838,-16.43756224424));
#170 = CARTESIAN_POINT('',(2.5,112.50952036387,-14.14369266186));
#171 = CARTESIAN_POINT('',(2.5,113.27530759219,-11.82878347565));
#172 = CARTESIAN_POINT('',(2.5,113.52567868533,-9.439569672999));
#173 = CARTESIAN_POINT('',(2.5,113.22218261898,-7.067987481766));
#174 = CARTESIAN_POINT('',(2.5,112.3585262746,-4.716132046907));
#175 = CARTESIAN_POINT('',(2.5,110.91172003447,-2.390864179543));
#176 = DEFINITIONAL_REPRESENTATION('',(#177),#180);
#177 = B_SPLINE_CURVE_WITH_KNOTS('',1,(#178,#179),.UNSPECIFIED.,.F.,.F.,
  (2,2),(0.,5.),.PIECEWISE_BEZIER_KNOTS.);
#178 = CARTESIAN_POINT('',(0.,0.));
#179 = CARTESIAN_POINT('',(5.,0.));
#180 = ( GEOMETRIC_REPRESENTATION_CONTEXT(2) 
PARAMETRIC_REPRESENTATION_CONTEXT() REPRESENTATION_CONTEXT('2D SPACE',''
  ) );
#181 = ADVANCED_FACE('',(#182),#102,.F.);
#182 = FACE_BOUND('',#183,.F.);
#183 = EDGE_LOOP('',(#184,#185,#205,#236,#349,#474,#505,#530,#561,#687)
  );
#184 = ORIENTED_EDGE('',*,*,#84,.F.);
#185 = ORIENTED_EDGE('',*,*,#186,.T.);
#186 = EDGE_CURVE('',#60,#187,#189,.T.);
#187 = VERTEX_POINT('',#188);
#188 = CARTESIAN_POINT('',(2.5,-30.,-57.5));
#189 = SURFACE_CURVE('',#190,(#193,#199),.PCURVE_S1.);
#190 = B_SPLINE_CURVE_WITH_KNOTS('',1,(#191,#192),.UNSPECIFIED.,.F.,.F.,
  (2,2),(0.,1.),.PIECEWISE_BEZIER_KNOTS.);
#191 = CARTESIAN_POINT('',(2.5,-30.,-58.5));
#192 = CARTESIAN_POINT('',(2.5,-30.,-57.5));
#193 = PCURVE('',#102,#194);
#194 = DEFINITIONAL_REPRESENTATION('',(#195),#198);
#195 = B_SPLINE_CURVE_WITH_KNOTS('',1,(#196,#197),.UNSPECIFIED.,.F.,.F.,
  (2,2),(0.,1.),.PIECEWISE_BEZIER_KNOTS.);
#196 = CARTESIAN_POINT('',(-0.5,-15.));
#197 = CARTESIAN_POINT('',(0.5,-15.));
#198 = ( GEOMETRIC_REPRESENTATION_CONTEXT(2) 
PARAMETRIC_REPRESENTATION_CONTEXT() REPRESENTATION_CONTEXT('2D SPACE',''
  ) );
#199 = PCURVE('',#73,#200);
#200 = DEFINITIONAL_REPRESENTATION('',(#201),#204);
#201 = B_SPLINE_CURVE_WITH_KNOTS('',1,(#202,#203),.UNSPECIFIED.,.F.,.F.,
  (2,2),(0.,1.),.PIECEWISE_BEZIER_KNOTS.);
#202 = CARTESIAN_POINT('',(0.5,2.5));
#203 = CARTESIAN_POINT('',(-0.5,2.5));
#204 = ( GEOMETRIC_REPRESENTATION_CONTEXT(2) 
PARAMETRIC_REPRESENTATION_CONTEXT() REPRESENTATION_CONTEXT('2D SPACE',''
  ) );
#205 = ORIENTED_EDGE('',*,*,#206,.T.);
#206 = EDGE_CURVE('',#187,#207,#209,.T.);
#207 = VERTEX_POINT('',#208);
#208 = CARTESIAN_POINT('',(2.5,3.552713678801E-15,-57.5));
#209 = SURFACE_CURVE('',#210,(#215,#223),.PCURVE_S1.);
#210 = B_SPLINE_CURVE_WITH_KNOTS('',3,(#211,#212,#213,#214),
  .UNSPECIFIED.,.F.,.F.,(4,4),(0.,1.),.PIECEWISE_BEZIER_KNOTS.);
#211 = CARTESIAN_POINT('',(2.5,-30.,-57.5));
#212 = CARTESIAN_POINT('',(2.5,-29.9,-57.5));
#213 = CARTESIAN_POINT('',(2.5,-1.E-01,-57.5));
#214 = CARTESIAN_POINT('',(2.5,8.881784197001E-15,-57.5));
#215 = PCURVE('',#102,#216);
#216 = DEFINITIONAL_REPRESENTATION('',(#217),#222);
#217 = B_SPLINE_CURVE_WITH_KNOTS('',3,(#218,#219,#220,#221),
  .UNSPECIFIED.,.F.,.F.,(4,4),(0.,1.),.PIECEWISE_BEZIER_KNOTS.);
#218 = CARTESIAN_POINT('',(0.5,-15.));
#219 = CARTESIAN_POINT('',(0.5,-14.9));
#220 = CARTESIAN_POINT('',(0.5,14.9));
#221 = CARTESIAN_POINT('',(0.5,15.));
#222 = ( GEOMETRIC_REPRESENTATION_CONTEXT(2) 
PARAMETRIC_REPRESENTATION_CONTEXT() REPRESENTATION_CONTEXT('2D SPACE',''
  ) );
#223 = PCURVE('',#224,#229);
#224 = PLANE('',#225);
#225 = AXIS2_PLACEMENT_3D('',#226,#227,#228);
#226 = CARTESIAN_POINT('',(0.,-15.,-57.5));
#227 = DIRECTION('',(0.,0.,-1.));
#228 = DIRECTION('',(-1.,5.020246460857E-19,0.));
#229 = DEFINITIONAL_REPRESENTATION('',(#230),#235);
#230 = B_SPLINE_CURVE_WITH_KNOTS('',3,(#231,#232,#233,#234),
  .UNSPECIFIED.,.F.,.F.,(4,4),(0.,1.),.PIECEWISE_BEZIER_KNOTS.);
#231 = CARTESIAN_POINT('',(-2.5,-15.));
#232 = CARTESIAN_POINT('',(-2.5,-14.9));
#233 = CARTESIAN_POINT('',(-2.5,14.9));
#234 = CARTESIAN_POINT('',(-2.5,15.));
#235 = ( GEOMETRIC_REPRESENTATION_CONTEXT(2) 
PARAMETRIC_REPRESENTATION_CONTEXT() REPRESENTATION_CONTEXT('2D SPACE',''
  ) );
#236 = ORIENTED_EDGE('',*,*,#237,.T.);
#237 = EDGE_CURVE('',#207,#238,#240,.T.);
#238 = VERTEX_POINT('',#239);
#239 = CARTESIAN_POINT('',(2.5,110.06265899211,-2.919158932837));
#240 = SURFACE_CURVE('',#241,(#266,#294),.PCURVE_S1.);
#241 = B_SPLINE_CURVE_WITH_KNOTS('',9,(#242,#243,#244,#245,#246,#247,
    #248,#249,#250,#251,#252,#253,#254,#255,#256,#257,#258,#259,#260,
    #261,#262,#263,#264,#265),.UNSPECIFIED.,.F.,.F.,(10,7,7,10),(0.,0.5,
    0.75,1.),.UNSPECIFIED.);
#242 = CARTESIAN_POINT('',(2.5,0.,-57.5));
#243 = CARTESIAN_POINT('',(2.5,5.495504648473,-57.5));
#244 = CARTESIAN_POINT('',(2.5,12.28260538887,-56.91577926963));
#245 = CARTESIAN_POINT('',(2.5,20.082449794546,-55.78303257606));
#246 = CARTESIAN_POINT('',(2.5,28.643574171187,-54.15096181923));
#247 = CARTESIAN_POINT('',(2.5,37.706601360159,-52.06155800699));
#248 = CARTESIAN_POINT('',(2.5,47.012955462286,-49.55762046604));
#249 = CARTESIAN_POINT('',(2.5,56.309147657922,-46.68569772009));
#250 = CARTESIAN_POINT('',(2.5,69.851054913478,-41.89039717662));
#251 = CARTESIAN_POINT('',(2.5,82.211116394716,-36.4666973739));
#252 = CARTESIAN_POINT('',(2.5,86.167599615672,-34.59462591711));
#253 = CARTESIAN_POINT('',(2.5,89.928439015944,-32.66418980625));
#254 = CARTESIAN_POINT('',(2.5,93.461387057842,-30.68125019282));
#255 = CARTESIAN_POINT('',(2.5,96.733964797486,-28.6517928088));
#256 = CARTESIAN_POINT('',(2.5,99.713536569765,-26.58217052957));
#257 = CARTESIAN_POINT('',(2.5,105.02156297901,-22.37686587497));
#258 = CARTESIAN_POINT('',(2.5,108.89909652535,-18.07345667944));
#259 = CARTESIAN_POINT('',(2.5,110.44674208948,-15.90521499654));
#260 = CARTESIAN_POINT('',(2.5,111.58246913725,-13.73497197721));
#261 = CARTESIAN_POINT('',(2.5,112.24817490392,-11.55459403293));
#262 = CARTESIAN_POINT('',(2.5,112.46567255417,-9.428323146997));
#263 = CARTESIAN_POINT('',(2.5,112.20952981895,-7.275200062207));
#264 = CARTESIAN_POINT('',(2.5,111.42215652348,-5.104106604302));
#265 = CARTESIAN_POINT('',(2.5,110.06265899211,-2.919158932837));
#266 = PCURVE('',#102,#267);
#267 = DEFINITIONAL_REPRESENTATION('',(#268),#293);
#268 = B_SPLINE_CURVE_WITH_KNOTS('',9,(#269,#270,#271,#272,#273,#274,
    #275,#276,#277,#278,#279,#280,#281,#282,#283,#284,#285,#286,#287,
    #288,#289,#290,#291,#292),.UNSPECIFIED.,.F.,.F.,(10,7,7,10),(0.,0.5,
    0.75,1.),.UNSPECIFIED.);
#269 = CARTESIAN_POINT('',(0.5,15.));
#270 = CARTESIAN_POINT('',(0.5,20.495504648473));
#271 = CARTESIAN_POINT('',(1.08422073036,27.28260538887));
#272 = CARTESIAN_POINT('',(2.216967423936,35.082449794546));
#273 = CARTESIAN_POINT('',(3.84903818077,43.643574171187));
#274 = CARTESIAN_POINT('',(5.938441993006,52.706601360159));
#275 = CARTESIAN_POINT('',(8.442379533951,62.012955462286));
#276 = CARTESIAN_POINT('',(11.314302279908,71.309147657922));
#277 = CARTESIAN_POINT('',(16.109602823372,84.851054913478));
#278 = CARTESIAN_POINT('',(21.533302626097,97.211116394716));
#279 = CARTESIAN_POINT('',(23.405374082884,101.16759961567));
#280 = CARTESIAN_POINT('',(25.335810193747,104.92843901594));
#281 = CARTESIAN_POINT('',(27.318749807177,108.46138705784));
#282 = CARTESIAN_POINT('',(29.348207191193,111.73396479748));
#283 = CARTESIAN_POINT('',(31.417829470429,114.71353656976));
#284 = CARTESIAN_POINT('',(35.623134125028,120.02156297901));
#285 = CARTESIAN_POINT('',(39.926543320556,123.89909652535));
#286 = CARTESIAN_POINT('',(42.094785003455,125.44674208948));
#287 = CARTESIAN_POINT('',(44.265028022786,126.58246913725));
#288 = CARTESIAN_POINT('',(46.445405967069,127.24817490392));
#289 = CARTESIAN_POINT('',(48.571676853004,127.46567255417));
#290 = CARTESIAN_POINT('',(50.724799937793,127.20952981895));
#291 = CARTESIAN_POINT('',(52.895893395698,126.42215652348));
#292 = CARTESIAN_POINT('',(55.080841067163,125.06265899211));
#293 = ( GEOMETRIC_REPRESENTATION_CONTEXT(2) 
PARAMETRIC_REPRESENTATION_CONTEXT() REPRESENTATION_CONTEXT('2D SPACE',''
  ) );
#294 = PCURVE('',#295,#344);
#295 = B_SPLINE_SURFACE_WITH_KNOTS('',1,9,(
    (#296,#297,#298,#299,#300,#301,#302,#303,#304,#305,#306,#307,#308
      ,#309,#310,#311,#312,#313,#314,#315,#316,#317,#318,#319)
    ,(#320,#321,#322,#323,#324,#325,#326,#327,#328,#329,#330,#331,#332
      ,#333,#334,#335,#336,#337,#338,#339,#340,#341,#342,#343
  )),.UNSPECIFIED.,.F.,.F.,.F.,(2,2),(10,7,7,10),(0.,5.),(0.,0.5,0.75,1.
    ),.UNSPECIFIED.);
#296 = CARTESIAN_POINT('',(2.5,0.,-57.5));
#297 = CARTESIAN_POINT('',(2.5,5.495504648473,-57.5));
#298 = CARTESIAN_POINT('',(2.5,12.28260538887,-56.91577926963));
#299 = CARTESIAN_POINT('',(2.5,20.082449794546,-55.78303257606));
#300 = CARTESIAN_POINT('',(2.5,28.643574171187,-54.15096181923));
#301 = CARTESIAN_POINT('',(2.5,37.706601360159,-52.06155800699));
#302 = CARTESIAN_POINT('',(2.5,47.012955462286,-49.55762046604));
#303 = CARTESIAN_POINT('',(2.5,56.309147657922,-46.68569772009));
#304 = CARTESIAN_POINT('',(2.5,69.851054913478,-41.89039717662));
#305 = CARTESIAN_POINT('',(2.5,82.211116394716,-36.4666973739));
#306 = CARTESIAN_POINT('',(2.5,86.167599615672,-34.59462591711));
#307 = CARTESIAN_POINT('',(2.5,89.928439015944,-32.66418980625));
#308 = CARTESIAN_POINT('',(2.5,93.461387057842,-30.68125019282));
#309 = CARTESIAN_POINT('',(2.5,96.733964797486,-28.6517928088));
#310 = CARTESIAN_POINT('',(2.5,99.713536569765,-26.58217052957));
#311 = CARTESIAN_POINT('',(2.5,105.02156297901,-22.37686587497));
#312 = CARTESIAN_POINT('',(2.5,108.89909652535,-18.07345667944));
#313 = CARTESIAN_POINT('',(2.5,110.44674208948,-15.90521499654));
#314 = CARTESIAN_POINT('',(2.5,111.58246913725,-13.73497197721));
#315 = CARTESIAN_POINT('',(2.5,112.24817490392,-11.55459403293));
#316 = CARTESIAN_POINT('',(2.5,112.46567255417,-9.428323146997));
#317 = CARTESIAN_POINT('',(2.5,112.20952981895,-7.275200062207));
#318 = CARTESIAN_POINT('',(2.5,111.42215652348,-5.104106604302));
#319 = CARTESIAN_POINT('',(2.5,110.06265899211,-2.919158932837));
#320 = CARTESIAN_POINT('',(-2.5,0.,-57.5));
#321 = CARTESIAN_POINT('',(-2.5,5.495504648473,-57.5));
#322 = CARTESIAN_POINT('',(-2.5,12.28260538887,-56.91577926963));
#323 = CARTESIAN_POINT('',(-2.5,20.082449794546,-55.78303257606));
#324 = CARTESIAN_POINT('',(-2.5,28.643574171187,-54.15096181923));
#325 = CARTESIAN_POINT('',(-2.5,37.706601360159,-52.06155800699));
#326 = CARTESIAN_POINT('',(-2.5,47.012955462286,-49.55762046604));
#327 = CARTESIAN_POINT('',(-2.5,56.309147657922,-46.68569772009));
#328 = CARTESIAN_POINT('',(-2.5,69.851054913478,-41.89039717662));
#329 = CARTESIAN_POINT('',(-2.5,82.211116394716,-36.4666973739));
#330 = CARTESIAN_POINT('',(-2.5,86.167599615672,-34.59462591711));
#331 = CARTESIAN_POINT('',(-2.5,89.928439015944,-32.66418980625));
#332 = CARTESIAN_POINT('',(-2.5,93.461387057842,-30.68125019282));
#333 = CARTESIAN_POINT('',(-2.5,96.733964797486,-28.6517928088));
#334 = CARTESIAN_POINT('',(-2.5,99.713536569765,-26.58217052957));
#335 = CARTESIAN_POINT('',(-2.5,105.02156297901,-22.37686587497));
#336 = CARTESIAN_POINT('',(-2.5,108.89909652535,-18.07345667944));
#337 = CARTESIAN_POINT('',(-2.5,110.44674208948,-15.90521499654));
#338 = CARTESIAN_POINT('',(-2.5,111.58246913725,-13.73497197721));
#339 = CARTESIAN_POINT('',(-2.5,112.24817490392,-11.55459403293));
#340 = CARTESIAN_POINT('',(-2.5,112.46567255417,-9.428323146997));
#341 = CARTESIAN_POINT('',(-2.5,112.20952981895,-7.275200062207));
#342 = CARTESIAN_POINT('',(-2.5,111.42215652348,-5.104106604302));
#343 = CARTESIAN_POINT('',(-2.5,110.06265899211,-2.919158932837));
#344 = DEFINITIONAL_REPRESENTATION('',(#345),#348);
#345 = B_SPLINE_CURVE_WITH_KNOTS('',1,(#346,#347),.UNSPECIFIED.,.F.,.F.,
  (2,2),(0.,1.),.PIECEWISE_BEZIER_KNOTS.);
#346 = CARTESIAN_POINT('',(0.,0.));
#347 = CARTESIAN_POINT('',(0.,1.));
#348 = ( GEOMETRIC_REPRESENTATION_CONTEXT(2) 
PARAMETRIC_REPRESENTATION_CONTEXT() REPRESENTATION_CONTEXT('2D SPACE',''
  ) );
#349 = ORIENTED_EDGE('',*,*,#350,.T.);
#350 = EDGE_CURVE('',#238,#351,#353,.T.);
#351 = VERTEX_POINT('',#352);
#352 = CARTESIAN_POINT('',(2.5,114.,52.5));
#353 = SURFACE_CURVE('',#354,(#382,#413),.PCURVE_S1.);
#354 = B_SPLINE_CURVE_WITH_KNOTS('',8,(#355,#356,#357,#358,#359,#360,
    #361,#362,#363,#364,#365,#366,#367,#368,#369,#370,#371,#372,#373,
    #374,#375,#376,#377,#378,#379,#380,#381),.UNSPECIFIED.,.F.,.F.,(9,6,
    6,6,9),(0.,0.174164445098,0.587082222549,0.793541111275,1.),
  .UNSPECIFIED.);
#355 = CARTESIAN_POINT('',(2.5,110.06265899211,-2.919158932837));
#356 = CARTESIAN_POINT('',(2.5,109.12625550414,-1.414196567404));
#357 = CARTESIAN_POINT('',(2.5,108.12676328061,0.11956546153));
#358 = CARTESIAN_POINT('',(2.5,107.07406809525,1.678024065987));
#359 = CARTESIAN_POINT('',(2.5,105.9780532019,3.257186433356));
#360 = CARTESIAN_POINT('',(2.5,104.84859547245,4.853147940454));
#361 = CARTESIAN_POINT('',(2.5,103.69556153453,6.462070067581));
#362 = CARTESIAN_POINT('',(2.5,99.762596575552,11.916402854147));
#363 = CARTESIAN_POINT('',(2.5,95.785440823471,17.432020522256));
#364 = CARTESIAN_POINT('',(2.5,93.09776171065,21.292409318818));
#365 = CARTESIAN_POINT('',(2.5,90.648263101384,25.079348354733));
#366 = CARTESIAN_POINT('',(2.5,88.572149912549,28.761077927093));
#367 = CARTESIAN_POINT('',(2.5,86.994665137149,32.264436224901));
#368 = CARTESIAN_POINT('',(2.5,85.567274711639,37.244612172802));
#369 = CARTESIAN_POINT('',(2.5,85.925560652689,41.698001457632));
#370 = CARTESIAN_POINT('',(2.5,86.264061320828,43.116658657718));
#371 = CARTESIAN_POINT('',(2.5,86.843781848051,44.464544744271));
#372 = CARTESIAN_POINT('',(2.5,87.690032514612,45.710040478098));
#373 = CARTESIAN_POINT('',(2.5,88.79317035877,46.842619842825));
#374 = CARTESIAN_POINT('',(2.5,91.542882527753,48.880028417135));
#375 = CARTESIAN_POINT('',(2.5,95.432993129301,50.449417075398));
#376 = CARTESIAN_POINT('',(2.5,97.677273955526,51.114670846234));
#377 = CARTESIAN_POINT('',(2.5,100.23811146957,51.65722095802));
#378 = CARTESIAN_POINT('',(2.5,103.13356865625,52.0726816996));
#379 = CARTESIAN_POINT('',(2.5,106.38113391592,52.355619854515));
#380 = CARTESIAN_POINT('',(2.5,109.99758167295,52.5));
#381 = CARTESIAN_POINT('',(2.5,114.,52.5));
#382 = PCURVE('',#102,#383);
#383 = DEFINITIONAL_REPRESENTATION('',(#384),#412);
#384 = B_SPLINE_CURVE_WITH_KNOTS('',8,(#385,#386,#387,#388,#389,#390,
    #391,#392,#393,#394,#395,#396,#397,#398,#399,#400,#401,#402,#403,
    #404,#405,#406,#407,#408,#409,#410,#411),.UNSPECIFIED.,.F.,.F.,(9,6,
    6,6,9),(0.,0.174164445098,0.587082222549,0.793541111275,1.),
  .UNSPECIFIED.);
#385 = CARTESIAN_POINT('',(55.080841067163,125.06265899211));
#386 = CARTESIAN_POINT('',(56.585803432596,124.12625550414));
#387 = CARTESIAN_POINT('',(58.11956546153,123.12676328061));
#388 = CARTESIAN_POINT('',(59.678024065987,122.07406809525));
#389 = CARTESIAN_POINT('',(61.257186433356,120.9780532019));
#390 = CARTESIAN_POINT('',(62.853147940454,119.84859547245));
#391 = CARTESIAN_POINT('',(64.462070067582,118.69556153453));
#392 = CARTESIAN_POINT('',(69.916402854147,114.76259657555));
#393 = CARTESIAN_POINT('',(75.432020522256,110.78544082347));
#394 = CARTESIAN_POINT('',(79.292409318818,108.09776171065));
#395 = CARTESIAN_POINT('',(83.079348354733,105.64826310138));
#396 = CARTESIAN_POINT('',(86.761077927093,103.57214991254));
#397 = CARTESIAN_POINT('',(90.264436224901,101.99466513714));
#398 = CARTESIAN_POINT('',(95.244612172802,100.56727471163));
#399 = CARTESIAN_POINT('',(99.698001457632,100.92556065268));
#400 = CARTESIAN_POINT('',(101.11665865771,101.26406132082));
#401 = CARTESIAN_POINT('',(102.46454474427,101.84378184805));
#402 = CARTESIAN_POINT('',(103.71004047809,102.69003251461));
#403 = CARTESIAN_POINT('',(104.84261984282,103.79317035877));
#404 = CARTESIAN_POINT('',(106.88002841713,106.54288252775));
#405 = CARTESIAN_POINT('',(108.44941707539,110.4329931293));
#406 = CARTESIAN_POINT('',(109.11467084623,112.67727395552));
#407 = CARTESIAN_POINT('',(109.65722095802,115.23811146957));
#408 = CARTESIAN_POINT('',(110.0726816996,118.13356865625));
#409 = CARTESIAN_POINT('',(110.35561985451,121.38113391592));
#410 = CARTESIAN_POINT('',(110.5,124.99758167295));
#411 = CARTESIAN_POINT('',(110.5,129.));
#412 = ( GEOMETRIC_REPRESENTATION_CONTEXT(2) 
PARAMETRIC_REPRESENTATION_CONTEXT() REPRESENTATION_CONTEXT('2D SPACE',''
  ) );
#413 = PCURVE('',#414,#469);
#414 = B_SPLINE_SURFACE_WITH_KNOTS('',1,8,(
    (#415,#416,#417,#418,#419,#420,#421,#422,#423,#424,#425,#426,#427
      ,#428,#429,#430,#431,#432,#433,#434,#435,#436,#437,#438,#439,#440
      ,#441)
    ,(#442,#443,#444,#445,#446,#447,#448,#449,#450,#451,#452,#453,#454
      ,#455,#456,#457,#458,#459,#460,#461,#462,#463,#464,#465,#466,#467
      ,#468)),.UNSPECIFIED.,.F.,.F.,.F.,(2,2),(9,6,6,6,9),(0.,5.),(0.,
    0.174164445098,0.587082222549,0.793541111275,1.),.UNSPECIFIED.);
#415 = CARTESIAN_POINT('',(2.5,110.06265899211,-2.919158932837));
#416 = CARTESIAN_POINT('',(2.5,109.12625550414,-1.414196567404));
#417 = CARTESIAN_POINT('',(2.5,108.12676328061,0.11956546153));
#418 = CARTESIAN_POINT('',(2.5,107.07406809525,1.678024065987));
#419 = CARTESIAN_POINT('',(2.5,105.9780532019,3.257186433356));
#420 = CARTESIAN_POINT('',(2.5,104.84859547245,4.853147940454));
#421 = CARTESIAN_POINT('',(2.5,103.69556153453,6.462070067581));
#422 = CARTESIAN_POINT('',(2.5,99.762596575552,11.916402854147));
#423 = CARTESIAN_POINT('',(2.5,95.785440823471,17.432020522256));
#424 = CARTESIAN_POINT('',(2.5,93.09776171065,21.292409318818));
#425 = CARTESIAN_POINT('',(2.5,90.648263101384,25.079348354733));
#426 = CARTESIAN_POINT('',(2.5,88.572149912549,28.761077927093));
#427 = CARTESIAN_POINT('',(2.5,86.994665137149,32.264436224901));
#428 = CARTESIAN_POINT('',(2.5,85.567274711639,37.244612172802));
#429 = CARTESIAN_POINT('',(2.5,85.925560652689,41.698001457632));
#430 = CARTESIAN_POINT('',(2.5,86.264061320828,43.116658657718));
#431 = CARTESIAN_POINT('',(2.5,86.843781848051,44.464544744271));
#432 = CARTESIAN_POINT('',(2.5,87.690032514612,45.710040478098));
#433 = CARTESIAN_POINT('',(2.5,88.79317035877,46.842619842825));
#434 = CARTESIAN_POINT('',(2.5,91.542882527753,48.880028417135));
#435 = CARTESIAN_POINT('',(2.5,95.432993129301,50.449417075398));
#436 = CARTESIAN_POINT('',(2.5,97.677273955526,51.114670846234));
#437 = CARTESIAN_POINT('',(2.5,100.23811146957,51.65722095802));
#438 = CARTESIAN_POINT('',(2.5,103.13356865625,52.0726816996));
#439 = CARTESIAN_POINT('',(2.5,106.38113391592,52.355619854515));
#440 = CARTESIAN_POINT('',(2.5,109.99758167295,52.5));
#441 = CARTESIAN_POINT('',(2.5,114.,52.5));
#442 = CARTESIAN_POINT('',(-2.5,110.06265899211,-2.919158932837));
#443 = CARTESIAN_POINT('',(-2.5,109.12625550414,-1.414196567404));
#444 = CARTESIAN_POINT('',(-2.5,108.12676328061,0.11956546153));
#445 = CARTESIAN_POINT('',(-2.5,107.07406809525,1.678024065987));
#446 = CARTESIAN_POINT('',(-2.5,105.9780532019,3.257186433356));
#447 = CARTESIAN_POINT('',(-2.5,104.84859547245,4.853147940454));
#448 = CARTESIAN_POINT('',(-2.5,103.69556153453,6.462070067581));
#449 = CARTESIAN_POINT('',(-2.5,99.762596575552,11.916402854147));
#450 = CARTESIAN_POINT('',(-2.5,95.785440823471,17.432020522256));
#451 = CARTESIAN_POINT('',(-2.5,93.09776171065,21.292409318818));
#452 = CARTESIAN_POINT('',(-2.5,90.648263101384,25.079348354733));
#453 = CARTESIAN_POINT('',(-2.5,88.572149912549,28.761077927093));
#454 = CARTESIAN_POINT('',(-2.5,86.994665137149,32.264436224901));
#455 = CARTESIAN_POINT('',(-2.5,85.567274711639,37.244612172802));
#456 = CARTESIAN_POINT('',(-2.5,85.925560652689,41.698001457632));
#457 = CARTESIAN_POINT('',(-2.5,86.264061320828,43.116658657717));
#458 = CARTESIAN_POINT('',(-2.5,86.843781848051,44.464544744271));
#459 = CARTESIAN_POINT('',(-2.5,87.690032514612,45.710040478098));
#460 = CARTESIAN_POINT('',(-2.5,88.79317035877,46.842619842825));
#461 = CARTESIAN_POINT('',(-2.5,91.542882527753,48.880028417135));
#462 = CARTESIAN_POINT('',(-2.5,95.432993129301,50.449417075398));
#463 = CARTESIAN_POINT('',(-2.5,97.677273955526,51.114670846234));
#464 = CARTESIAN_POINT('',(-2.5,100.23811146957,51.65722095802));
#465 = CARTESIAN_POINT('',(-2.5,103.13356865625,52.0726816996));
#466 = CARTESIAN_POINT('',(-2.5,106.38113391592,52.355619854516));
#467 = CARTESIAN_POINT('',(-2.5,109.99758167295,52.5));
#468 = CARTESIAN_POINT('',(-2.5,114.,52.5));
#469 = DEFINITIONAL_REPRESENTATION('',(#470),#473);
#470 = B_SPLINE_CURVE_WITH_KNOTS('',1,(#471,#472),.UNSPECIFIED.,.F.,.F.,
  (2,2),(0.,1.),.PIECEWISE_BEZIER_KNOTS.);
#471 = CARTESIAN_POINT('',(0.,0.));
#472 = CARTESIAN_POINT('',(0.,1.));
#473 = ( GEOMETRIC_REPRESENTATION_CONTEXT(2) 
PARAMETRIC_REPRESENTATION_CONTEXT() REPRESENTATION_CONTEXT('2D SPACE',''
  ) );
#474 = ORIENTED_EDGE('',*,*,#475,.T.);
#475 = EDGE_CURVE('',#351,#476,#478,.T.);
#476 = VERTEX_POINT('',#477);
#477 = CARTESIAN_POINT('',(2.5,129.,52.5));
#478 = SURFACE_CURVE('',#479,(#484,#492),.PCURVE_S1.);
#479 = B_SPLINE_CURVE_WITH_KNOTS('',3,(#480,#481,#482,#483),
  .UNSPECIFIED.,.F.,.F.,(4,4),(0.,1.),.PIECEWISE_BEZIER_KNOTS.);
#480 = CARTESIAN_POINT('',(2.5,114.,52.5));
#481 = CARTESIAN_POINT('',(2.5,114.1,52.5));
#482 = CARTESIAN_POINT('',(2.5,128.9,52.5));
#483 = CARTESIAN_POINT('',(2.5,129.,52.5));
#484 = PCURVE('',#102,#485);
#485 = DEFINITIONAL_REPRESENTATION('',(#486),#491);
#486 = B_SPLINE_CURVE_WITH_KNOTS('',3,(#487,#488,#489,#490),
  .UNSPECIFIED.,.F.,.F.,(4,4),(0.,1.),.PIECEWISE_BEZIER_KNOTS.);
#487 = CARTESIAN_POINT('',(110.5,129.));
#488 = CARTESIAN_POINT('',(110.5,129.1));
#489 = CARTESIAN_POINT('',(110.5,143.9));
#490 = CARTESIAN_POINT('',(110.5,144.));
#491 = ( GEOMETRIC_REPRESENTATION_CONTEXT(2) 
PARAMETRIC_REPRESENTATION_CONTEXT() REPRESENTATION_CONTEXT('2D SPACE',''
  ) );
#492 = PCURVE('',#493,#498);
#493 = PLANE('',#494);
#494 = AXIS2_PLACEMENT_3D('',#495,#496,#497);
#495 = CARTESIAN_POINT('',(0.,121.5,52.5));
#496 = DIRECTION('',(2.348901605819E-17,-8.349414936699E-18,-1.));
#497 = DIRECTION('',(-1.,-8.609109578238E-18,-2.348901605819E-17));
#498 = DEFINITIONAL_REPRESENTATION('',(#499),#504);
#499 = B_SPLINE_CURVE_WITH_KNOTS('',3,(#500,#501,#502,#503),
  .UNSPECIFIED.,.F.,.F.,(4,4),(0.,1.),.PIECEWISE_BEZIER_KNOTS.);
#500 = CARTESIAN_POINT('',(-2.5,-7.5));
#501 = CARTESIAN_POINT('',(-2.5,-7.4));
#502 = CARTESIAN_POINT('',(-2.5,7.4));
#503 = CARTESIAN_POINT('',(-2.5,7.5));
#504 = ( GEOMETRIC_REPRESENTATION_CONTEXT(2) 
PARAMETRIC_REPRESENTATION_CONTEXT() REPRESENTATION_CONTEXT('2D SPACE',''
  ) );
#505 = ORIENTED_EDGE('',*,*,#506,.F.);
#506 = EDGE_CURVE('',#507,#476,#509,.T.);
#507 = VERTEX_POINT('',#508);
#508 = CARTESIAN_POINT('',(2.5,129.,51.5));
#509 = SURFACE_CURVE('',#510,(#513,#519),.PCURVE_S1.);
#510 = B_SPLINE_CURVE_WITH_KNOTS('',1,(#511,#512),.UNSPECIFIED.,.F.,.F.,
  (2,2),(0.,1.),.PIECEWISE_BEZIER_KNOTS.);
#511 = CARTESIAN_POINT('',(2.5,129.,51.5));
#512 = CARTESIAN_POINT('',(2.5,129.,52.5));
#513 = PCURVE('',#102,#514);
#514 = DEFINITIONAL_REPRESENTATION('',(#515),#518);
#515 = B_SPLINE_CURVE_WITH_KNOTS('',1,(#516,#517),.UNSPECIFIED.,.F.,.F.,
  (2,2),(0.,1.),.PIECEWISE_BEZIER_KNOTS.);
#516 = CARTESIAN_POINT('',(109.5,144.));
#517 = CARTESIAN_POINT('',(110.5,144.));
#518 = ( GEOMETRIC_REPRESENTATION_CONTEXT(2) 
PARAMETRIC_REPRESENTATION_CONTEXT() REPRESENTATION_CONTEXT('2D SPACE',''
  ) );
#519 = PCURVE('',#520,#525);
#520 = PLANE('',#521);
#521 = AXIS2_PLACEMENT_3D('',#522,#523,#524);
#522 = CARTESIAN_POINT('',(0.,129.,52.));
#523 = DIRECTION('',(-0.,-1.,-0.));
#524 = DIRECTION('',(0.,0.,-1.));
#525 = DEFINITIONAL_REPRESENTATION('',(#526),#529);
#526 = B_SPLINE_CURVE_WITH_KNOTS('',1,(#527,#528),.UNSPECIFIED.,.F.,.F.,
  (2,2),(0.,1.),.PIECEWISE_BEZIER_KNOTS.);
#527 = CARTESIAN_POINT('',(0.5,2.5));
#528 = CARTESIAN_POINT('',(-0.5,2.5));
#529 = ( GEOMETRIC_REPRESENTATION_CONTEXT(2) 
PARAMETRIC_REPRESENTATION_CONTEXT() REPRESENTATION_CONTEXT('2D SPACE',''
  ) );
#530 = ORIENTED_EDGE('',*,*,#531,.F.);
#531 = EDGE_CURVE('',#532,#507,#534,.T.);
#532 = VERTEX_POINT('',#533);
#533 = CARTESIAN_POINT('',(2.5,114.,51.5));
#534 = SURFACE_CURVE('',#535,(#540,#548),.PCURVE_S1.);
#535 = B_SPLINE_CURVE_WITH_KNOTS('',3,(#536,#537,#538,#539),
  .UNSPECIFIED.,.F.,.F.,(4,4),(0.,1.),.PIECEWISE_BEZIER_KNOTS.);
#536 = CARTESIAN_POINT('',(2.5,114.,51.5));
#537 = CARTESIAN_POINT('',(2.5,114.1,51.5));
#538 = CARTESIAN_POINT('',(2.5,128.9,51.5));
#539 = CARTESIAN_POINT('',(2.5,129.,51.5));
#540 = PCURVE('',#102,#541);
#541 = DEFINITIONAL_REPRESENTATION('',(#542),#547);
#542 = B_SPLINE_CURVE_WITH_KNOTS('',3,(#543,#544,#545,#546),
  .UNSPECIFIED.,.F.,.F.,(4,4),(0.,1.),.PIECEWISE_BEZIER_KNOTS.);
#543 = CARTESIAN_POINT('',(109.5,129.));
#544 = CARTESIAN_POINT('',(109.5,129.1));
#545 = CARTESIAN_POINT('',(109.5,143.9));
#546 = CARTESIAN_POINT('',(109.5,144.));
#547 = ( GEOMETRIC_REPRESENTATION_CONTEXT(2) 
PARAMETRIC_REPRESENTATION_CONTEXT() REPRESENTATION_CONTEXT('2D SPACE',''
  ) );
#548 = PCURVE('',#549,#554);
#549 = PLANE('',#550);
#550 = AXIS2_PLACEMENT_3D('',#551,#552,#553);
#551 = CARTESIAN_POINT('',(0.,121.5,51.5));
#552 = DIRECTION('',(-1.174450802909E-16,-4.581768063379E-16,1.));
#553 = DIRECTION('',(1.,-8.609109578238E-18,1.174450802909E-16));
#554 = DEFINITIONAL_REPRESENTATION('',(#555),#560);
#555 = B_SPLINE_CURVE_WITH_KNOTS('',3,(#556,#557,#558,#559),
  .UNSPECIFIED.,.F.,.F.,(4,4),(0.,1.),.PIECEWISE_BEZIER_KNOTS.);
#556 = CARTESIAN_POINT('',(2.5,-7.5));
#557 = CARTESIAN_POINT('',(2.5,-7.4));
#558 = CARTESIAN_POINT('',(2.5,7.4));
#559 = CARTESIAN_POINT('',(2.5,7.5));
#560 = ( GEOMETRIC_REPRESENTATION_CONTEXT(2) 
PARAMETRIC_REPRESENTATION_CONTEXT() REPRESENTATION_CONTEXT('2D SPACE',''
  ) );
#561 = ORIENTED_EDGE('',*,*,#562,.F.);
#562 = EDGE_CURVE('',#563,#532,#565,.T.);
#563 = VERTEX_POINT('',#564);
#564 = CARTESIAN_POINT('',(2.5,110.91172003447,-2.390864179543));
#565 = SURFACE_CURVE('',#566,(#594,#625),.PCURVE_S1.);
#566 = B_SPLINE_CURVE_WITH_KNOTS('',8,(#567,#568,#569,#570,#571,#572,
    #573,#574,#575,#576,#577,#578,#579,#580,#581,#582,#583,#584,#585,
    #586,#587,#588,#589,#590,#591,#592,#593),.UNSPECIFIED.,.F.,.F.,(9,6,
    6,6,9),(0.,0.174164445098,0.587082222549,0.793541111275,1.),
  .UNSPECIFIED.);
#567 = CARTESIAN_POINT('',(2.5,110.91172003447,-2.390864179543));
#568 = CARTESIAN_POINT('',(2.5,109.96531471085,-0.869827134325));
#569 = CARTESIAN_POINT('',(2.5,108.95751457967,0.676511745071));
#570 = CARTESIAN_POINT('',(2.5,107.89809577649,2.244743817585));
#571 = CARTESIAN_POINT('',(2.5,106.7968369567,3.83135016679));
#572 = CARTESIAN_POINT('',(2.5,105.66352315777,5.432723686831));
#573 = CARTESIAN_POINT('',(2.5,104.50794966127,7.045191168372));
#574 = CARTESIAN_POINT('',(2.5,100.57071659572,12.505443070366));
#575 = CARTESIAN_POINT('',(2.5,96.603679884159,18.007027403566));
#576 = CARTESIAN_POINT('',(2.5,93.929317352291,21.846124728549));
#577 = CARTESIAN_POINT('',(2.5,91.504214538703,25.609226791307));
#578 = CARTESIAN_POINT('',(2.5,89.455188630673,29.22798912785));
#579 = CARTESIAN_POINT('',(2.5,87.919018739292,32.675469382276));
#580 = CARTESIAN_POINT('',(2.5,86.586186965955,37.446914977367));
#581 = CARTESIAN_POINT('',(2.5,86.922618262318,41.507958431976));
#582 = CARTESIAN_POINT('',(2.5,87.232324929234,42.777467034881));
#583 = CARTESIAN_POINT('',(2.5,87.750199422724,43.955255286998));
#584 = CARTESIAN_POINT('',(2.5,88.483684225444,45.060429406607));
#585 = CARTESIAN_POINT('',(2.5,89.47517506226,46.091002389271));
#586 = CARTESIAN_POINT('',(2.5,92.010012204502,47.979837455864));
#587 = CARTESIAN_POINT('',(2.5,95.726045864892,49.48651824734));
#588 = CARTESIAN_POINT('',(2.5,97.897988670313,50.134242632712));
#589 = CARTESIAN_POINT('',(2.5,100.39927905163,50.667101087628));
#590 = CARTESIAN_POINT('',(2.5,103.24460678702,51.076966302357));
#591 = CARTESIAN_POINT('',(2.5,106.44923623918,51.356758472519));
#592 = CARTESIAN_POINT('',(2.5,110.02914574671,51.5));
#593 = CARTESIAN_POINT('',(2.5,114.,51.5));
#594 = PCURVE('',#102,#595);
#595 = DEFINITIONAL_REPRESENTATION('',(#596),#624);
#596 = B_SPLINE_CURVE_WITH_KNOTS('',8,(#597,#598,#599,#600,#601,#602,
    #603,#604,#605,#606,#607,#608,#609,#610,#611,#612,#613,#614,#615,
    #616,#617,#618,#619,#620,#621,#622,#623),.UNSPECIFIED.,.F.,.F.,(9,6,
    6,6,9),(0.,0.174164445098,0.587082222549,0.793541111275,1.),
  .UNSPECIFIED.);
#597 = CARTESIAN_POINT('',(55.609135820457,125.91172003447));
#598 = CARTESIAN_POINT('',(57.130172865675,124.96531471085));
#599 = CARTESIAN_POINT('',(58.676511745071,123.95751457967));
#600 = CARTESIAN_POINT('',(60.244743817585,122.89809577649));
#601 = CARTESIAN_POINT('',(61.83135016679,121.7968369567));
#602 = CARTESIAN_POINT('',(63.432723686831,120.66352315777));
#603 = CARTESIAN_POINT('',(65.045191168372,119.50794966127));
#604 = CARTESIAN_POINT('',(70.505443070366,115.57071659572));
#605 = CARTESIAN_POINT('',(76.007027403566,111.60367988415));
#606 = CARTESIAN_POINT('',(79.846124728549,108.92931735229));
#607 = CARTESIAN_POINT('',(83.609226791307,106.5042145387));
#608 = CARTESIAN_POINT('',(87.22798912785,104.45518863067));
#609 = CARTESIAN_POINT('',(90.675469382276,102.91901873929));
#610 = CARTESIAN_POINT('',(95.446914977367,101.58618696595));
#611 = CARTESIAN_POINT('',(99.507958431976,101.92261826231));
#612 = CARTESIAN_POINT('',(100.77746703488,102.23232492923));
#613 = CARTESIAN_POINT('',(101.95525528699,102.75019942272));
#614 = CARTESIAN_POINT('',(103.0604294066,103.48368422544));
#615 = CARTESIAN_POINT('',(104.09100238927,104.47517506226));
#616 = CARTESIAN_POINT('',(105.97983745586,107.0100122045));
#617 = CARTESIAN_POINT('',(107.48651824734,110.72604586489));
#618 = CARTESIAN_POINT('',(108.13424263271,112.89798867031));
#619 = CARTESIAN_POINT('',(108.66710108762,115.39927905163));
#620 = CARTESIAN_POINT('',(109.07696630235,118.24460678702));
#621 = CARTESIAN_POINT('',(109.35675847251,121.44923623918));
#622 = CARTESIAN_POINT('',(109.5,125.02914574671));
#623 = CARTESIAN_POINT('',(109.5,129.));
#624 = ( GEOMETRIC_REPRESENTATION_CONTEXT(2) 
PARAMETRIC_REPRESENTATION_CONTEXT() REPRESENTATION_CONTEXT('2D SPACE',''
  ) );
#625 = PCURVE('',#626,#681);
#626 = B_SPLINE_SURFACE_WITH_KNOTS('',1,8,(
    (#627,#628,#629,#630,#631,#632,#633,#634,#635,#636,#637,#638,#639
      ,#640,#641,#642,#643,#644,#645,#646,#647,#648,#649,#650,#651,#652
      ,#653)
    ,(#654,#655,#656,#657,#658,#659,#660,#661,#662,#663,#664,#665,#666
      ,#667,#668,#669,#670,#671,#672,#673,#674,#675,#676,#677,#678,#679
      ,#680)),.UNSPECIFIED.,.F.,.F.,.F.,(2,2),(9,6,6,6,9),(0.,5.),(0.,
    0.174164445098,0.587082222549,0.793541111275,1.),.UNSPECIFIED.);
#627 = CARTESIAN_POINT('',(-2.5,110.91172003447,-2.390864179543));
#628 = CARTESIAN_POINT('',(-2.5,109.96531471085,-0.869827134325));
#629 = CARTESIAN_POINT('',(-2.5,108.95751457967,0.676511745071));
#630 = CARTESIAN_POINT('',(-2.5,107.89809577649,2.244743817585));
#631 = CARTESIAN_POINT('',(-2.5,106.7968369567,3.83135016679));
#632 = CARTESIAN_POINT('',(-2.5,105.66352315777,5.432723686831));
#633 = CARTESIAN_POINT('',(-2.5,104.50794966127,7.045191168372));
#634 = CARTESIAN_POINT('',(-2.5,100.57071659572,12.505443070366));
#635 = CARTESIAN_POINT('',(-2.5,96.603679884159,18.007027403566));
#636 = CARTESIAN_POINT('',(-2.5,93.929317352291,21.846124728549));
#637 = CARTESIAN_POINT('',(-2.5,91.504214538703,25.609226791307));
#638 = CARTESIAN_POINT('',(-2.5,89.455188630672,29.22798912785));
#639 = CARTESIAN_POINT('',(-2.5,87.919018739292,32.675469382276));
#640 = CARTESIAN_POINT('',(-2.5,86.586186965955,37.446914977367));
#641 = CARTESIAN_POINT('',(-2.5,86.922618262319,41.507958431976));
#642 = CARTESIAN_POINT('',(-2.5,87.232324929232,42.777467034881));
#643 = CARTESIAN_POINT('',(-2.5,87.750199422725,43.955255286998));
#644 = CARTESIAN_POINT('',(-2.5,88.483684225443,45.060429406607));
#645 = CARTESIAN_POINT('',(-2.5,89.475175062261,46.091002389271));
#646 = CARTESIAN_POINT('',(-2.5,92.010012204502,47.979837455864));
#647 = CARTESIAN_POINT('',(-2.5,95.726045864892,49.48651824734));
#648 = CARTESIAN_POINT('',(-2.5,97.897988670314,50.134242632712));
#649 = CARTESIAN_POINT('',(-2.5,100.39927905163,50.667101087628));
#650 = CARTESIAN_POINT('',(-2.5,103.24460678702,51.076966302357));
#651 = CARTESIAN_POINT('',(-2.5,106.44923623918,51.356758472519));
#652 = CARTESIAN_POINT('',(-2.5,110.02914574671,51.5));
#653 = CARTESIAN_POINT('',(-2.5,114.,51.5));
#654 = CARTESIAN_POINT('',(2.5,110.91172003447,-2.390864179543));
#655 = CARTESIAN_POINT('',(2.5,109.96531471085,-0.869827134325));
#656 = CARTESIAN_POINT('',(2.5,108.95751457967,0.676511745071));
#657 = CARTESIAN_POINT('',(2.5,107.89809577649,2.244743817585));
#658 = CARTESIAN_POINT('',(2.5,106.7968369567,3.83135016679));
#659 = CARTESIAN_POINT('',(2.5,105.66352315777,5.432723686831));
#660 = CARTESIAN_POINT('',(2.5,104.50794966127,7.045191168372));
#661 = CARTESIAN_POINT('',(2.5,100.57071659572,12.505443070366));
#662 = CARTESIAN_POINT('',(2.5,96.603679884159,18.007027403566));
#663 = CARTESIAN_POINT('',(2.5,93.929317352291,21.846124728549));
#664 = CARTESIAN_POINT('',(2.5,91.504214538703,25.609226791307));
#665 = CARTESIAN_POINT('',(2.5,89.455188630673,29.22798912785));
#666 = CARTESIAN_POINT('',(2.5,87.919018739292,32.675469382276));
#667 = CARTESIAN_POINT('',(2.5,86.586186965955,37.446914977367));
#668 = CARTESIAN_POINT('',(2.5,86.922618262318,41.507958431976));
#669 = CARTESIAN_POINT('',(2.5,87.232324929234,42.777467034881));
#670 = CARTESIAN_POINT('',(2.5,87.750199422724,43.955255286998));
#671 = CARTESIAN_POINT('',(2.5,88.483684225444,45.060429406607));
#672 = CARTESIAN_POINT('',(2.5,89.47517506226,46.091002389271));
#673 = CARTESIAN_POINT('',(2.5,92.010012204502,47.979837455864));
#674 = CARTESIAN_POINT('',(2.5,95.726045864892,49.48651824734));
#675 = CARTESIAN_POINT('',(2.5,97.897988670313,50.134242632712));
#676 = CARTESIAN_POINT('',(2.5,100.39927905163,50.667101087628));
#677 = CARTESIAN_POINT('',(2.5,103.24460678702,51.076966302357));
#678 = CARTESIAN_POINT('',(2.5,106.44923623918,51.356758472519));
#679 = CARTESIAN_POINT('',(2.5,110.02914574671,51.5));
#680 = CARTESIAN_POINT('',(2.5,114.,51.5));
#681 = DEFINITIONAL_REPRESENTATION('',(#682),#686);
#682 = LINE('',#683,#684);
#683 = CARTESIAN_POINT('',(5.,0.));
#684 = VECTOR('',#685,1.);
#685 = DIRECTION('',(0.,1.));
#686 = ( GEOMETRIC_REPRESENTATION_CONTEXT(2) 
PARAMETRIC_REPRESENTATION_CONTEXT() REPRESENTATION_CONTEXT('2D SPACE',''
  ) );
#687 = ORIENTED_EDGE('',*,*,#688,.F.);
#688 = EDGE_CURVE('',#85,#563,#689,.T.);
#689 = SURFACE_CURVE('',#690,(#715,#743),.PCURVE_S1.);
#690 = B_SPLINE_CURVE_WITH_KNOTS('',9,(#691,#692,#693,#694,#695,#696,
    #697,#698,#699,#700,#701,#702,#703,#704,#705,#706,#707,#708,#709,
    #710,#711,#712,#713,#714),.UNSPECIFIED.,.F.,.F.,(10,7,7,10),(0.,0.5,
    0.75,1.),.UNSPECIFIED.);
#691 = CARTESIAN_POINT('',(2.5,0.,-58.5));
#692 = CARTESIAN_POINT('',(2.5,5.590001396105,-58.49999999999));
#693 = CARTESIAN_POINT('',(2.5,12.422239028408,-57.90573342991));
#694 = CARTESIAN_POINT('',(2.5,20.264498976773,-56.76932128801));
#695 = CARTESIAN_POINT('',(2.5,28.857178588787,-55.12937743984));
#696 = CARTESIAN_POINT('',(2.5,37.94858867627,-53.0317266429));
#697 = CARTESIAN_POINT('',(2.5,47.28623879169,-50.52138533603));
#698 = CARTESIAN_POINT('',(2.5,56.612551407886,-47.63962076091));
#699 = CARTESIAN_POINT('',(2.5,70.205552741399,-42.82700126107));
#700 = CARTESIAN_POINT('',(2.5,82.632227625972,-37.3742829002));
#701 = CARTESIAN_POINT('',(2.5,86.613198542138,-35.49091437088));
#702 = CARTESIAN_POINT('',(2.5,90.401138667485,-33.54692020141));
#703 = CARTESIAN_POINT('',(2.5,93.964412246375,-31.54741621096));
#704 = CARTESIAN_POINT('',(2.5,97.271614929316,-29.49739363823));
#705 = CARTESIAN_POINT('',(2.5,100.2914990881,-27.40147657853));
#706 = CARTESIAN_POINT('',(2.5,105.69396897122,-23.12553773224));
#707 = CARTESIAN_POINT('',(2.5,109.69456740435,-18.69128166358));
#708 = CARTESIAN_POINT('',(2.5,111.31401345838,-16.43756224424));
#709 = CARTESIAN_POINT('',(2.5,112.50952036387,-14.14369266186));
#710 = CARTESIAN_POINT('',(2.5,113.27530759219,-11.82878347565));
#711 = CARTESIAN_POINT('',(2.5,113.52567868533,-9.439569672999));
#712 = CARTESIAN_POINT('',(2.5,113.22218261898,-7.067987481766));
#713 = CARTESIAN_POINT('',(2.5,112.3585262746,-4.716132046907));
#714 = CARTESIAN_POINT('',(2.5,110.91172003447,-2.390864179543));
#715 = PCURVE('',#102,#716);
#716 = DEFINITIONAL_REPRESENTATION('',(#717),#742);
#717 = B_SPLINE_CURVE_WITH_KNOTS('',9,(#718,#719,#720,#721,#722,#723,
    #724,#725,#726,#727,#728,#729,#730,#731,#732,#733,#734,#735,#736,
    #737,#738,#739,#740,#741),.UNSPECIFIED.,.F.,.F.,(10,7,7,10),(0.,0.5,
    0.75,1.),.UNSPECIFIED.);
#718 = CARTESIAN_POINT('',(-0.5,15.));
#719 = CARTESIAN_POINT('',(-0.499999999999,20.590001396105));
#720 = CARTESIAN_POINT('',(9.426657008643E-02,27.422239028408));
#721 = CARTESIAN_POINT('',(1.230678711986,35.264498976773));
#722 = CARTESIAN_POINT('',(2.870622560157,43.857178588787));
#723 = CARTESIAN_POINT('',(4.968273357095,52.94858867627));
#724 = CARTESIAN_POINT('',(7.478614663966,62.28623879169));
#725 = CARTESIAN_POINT('',(10.360379239088,71.612551407886));
#726 = CARTESIAN_POINT('',(15.172998738921,85.205552741399));
#727 = CARTESIAN_POINT('',(20.625717099794,97.632227625972));
#728 = CARTESIAN_POINT('',(22.509085629114,101.61319854213));
#729 = CARTESIAN_POINT('',(24.453079798584,105.40113866748));
#730 = CARTESIAN_POINT('',(26.452583789038,108.96441224637));
#731 = CARTESIAN_POINT('',(28.50260636177,112.27161492931));
#732 = CARTESIAN_POINT('',(30.59852342147,115.2914990881));
#733 = CARTESIAN_POINT('',(34.874462267755,120.69396897122));
#734 = CARTESIAN_POINT('',(39.308718336417,124.69456740435));
#735 = CARTESIAN_POINT('',(41.562437755759,126.31401345838));
#736 = CARTESIAN_POINT('',(43.856307338131,127.50952036387));
#737 = CARTESIAN_POINT('',(46.171216524342,128.27530759219));
#738 = CARTESIAN_POINT('',(48.560430327001,128.52567868533));
#739 = CARTESIAN_POINT('',(50.932012518234,128.22218261898));
#740 = CARTESIAN_POINT('',(53.283867953093,127.3585262746));
#741 = CARTESIAN_POINT('',(55.609135820457,125.91172003447));
#742 = ( GEOMETRIC_REPRESENTATION_CONTEXT(2) 
PARAMETRIC_REPRESENTATION_CONTEXT() REPRESENTATION_CONTEXT('2D SPACE',''
  ) );
#743 = PCURVE('',#127,#744);
#744 = DEFINITIONAL_REPRESENTATION('',(#745),#749);
#745 = LINE('',#746,#747);
#746 = CARTESIAN_POINT('',(5.,0.));
#747 = VECTOR('',#748,1.);
#748 = DIRECTION('',(0.,1.));
#749 = ( GEOMETRIC_REPRESENTATION_CONTEXT(2) 
PARAMETRIC_REPRESENTATION_CONTEXT() REPRESENTATION_CONTEXT('2D SPACE',''
  ) );
#750 = ADVANCED_FACE('',(#751),#224,.F.);
#751 = FACE_BOUND('',#752,.F.);
#752 = EDGE_LOOP('',(#753,#754,#774,#800));
#753 = ORIENTED_EDGE('',*,*,#206,.F.);
#754 = ORIENTED_EDGE('',*,*,#755,.T.);
#755 = EDGE_CURVE('',#187,#756,#758,.T.);
#756 = VERTEX_POINT('',#757);
#757 = CARTESIAN_POINT('',(-2.5,-30.,-57.5));
#758 = SURFACE_CURVE('',#759,(#762,#768),.PCURVE_S1.);
#759 = B_SPLINE_CURVE_WITH_KNOTS('',1,(#760,#761),.UNSPECIFIED.,.F.,.F.,
  (2,2),(0.,5.),.PIECEWISE_BEZIER_KNOTS.);
#760 = CARTESIAN_POINT('',(2.5,-30.,-57.5));
#761 = CARTESIAN_POINT('',(-2.5,-30.,-57.5));
#762 = PCURVE('',#224,#763);
#763 = DEFINITIONAL_REPRESENTATION('',(#764),#767);
#764 = B_SPLINE_CURVE_WITH_KNOTS('',1,(#765,#766),.UNSPECIFIED.,.F.,.F.,
  (2,2),(0.,5.),.PIECEWISE_BEZIER_KNOTS.);
#765 = CARTESIAN_POINT('',(-2.5,-15.));
#766 = CARTESIAN_POINT('',(2.5,-15.));
#767 = ( GEOMETRIC_REPRESENTATION_CONTEXT(2) 
PARAMETRIC_REPRESENTATION_CONTEXT() REPRESENTATION_CONTEXT('2D SPACE',''
  ) );
#768 = PCURVE('',#73,#769);
#769 = DEFINITIONAL_REPRESENTATION('',(#770),#773);
#770 = B_SPLINE_CURVE_WITH_KNOTS('',1,(#771,#772),.UNSPECIFIED.,.F.,.F.,
  (2,2),(0.,5.),.PIECEWISE_BEZIER_KNOTS.);
#771 = CARTESIAN_POINT('',(-0.5,2.5));
#772 = CARTESIAN_POINT('',(-0.5,-2.5));
#773 = ( GEOMETRIC_REPRESENTATION_CONTEXT(2) 
PARAMETRIC_REPRESENTATION_CONTEXT() REPRESENTATION_CONTEXT('2D SPACE',''
  ) );
#774 = ORIENTED_EDGE('',*,*,#775,.T.);
#775 = EDGE_CURVE('',#756,#776,#778,.T.);
#776 = VERTEX_POINT('',#777);
#777 = CARTESIAN_POINT('',(-2.5,3.552713678801E-15,-57.5));
#778 = SURFACE_CURVE('',#779,(#784,#792),.PCURVE_S1.);
#779 = B_SPLINE_CURVE_WITH_KNOTS('',3,(#780,#781,#782,#783),
  .UNSPECIFIED.,.F.,.F.,(4,4),(0.,1.),.PIECEWISE_BEZIER_KNOTS.);
#780 = CARTESIAN_POINT('',(-2.5,-30.,-57.5));
#781 = CARTESIAN_POINT('',(-2.5,-29.9,-57.5));
#782 = CARTESIAN_POINT('',(-2.5,-1.E-01,-57.5));
#783 = CARTESIAN_POINT('',(-2.5,8.881784197001E-15,-57.5));
#784 = PCURVE('',#224,#785);
#785 = DEFINITIONAL_REPRESENTATION('',(#786),#791);
#786 = B_SPLINE_CURVE_WITH_KNOTS('',3,(#787,#788,#789,#790),
  .UNSPECIFIED.,.F.,.F.,(4,4),(0.,1.),.PIECEWISE_BEZIER_KNOTS.);
#787 = CARTESIAN_POINT('',(2.5,-15.));
#788 = CARTESIAN_POINT('',(2.5,-14.9));
#789 = CARTESIAN_POINT('',(2.5,14.9));
#790 = CARTESIAN_POINT('',(2.5,15.));
#791 = ( GEOMETRIC_REPRESENTATION_CONTEXT(2) 
PARAMETRIC_REPRESENTATION_CONTEXT() REPRESENTATION_CONTEXT('2D SPACE',''
  ) );
#792 = PCURVE('',#46,#793);
#793 = DEFINITIONAL_REPRESENTATION('',(#794),#799);
#794 = B_SPLINE_CURVE_WITH_KNOTS('',3,(#795,#796,#797,#798),
  .UNSPECIFIED.,.F.,.F.,(4,4),(0.,1.),.PIECEWISE_BEZIER_KNOTS.);
#795 = CARTESIAN_POINT('',(-0.5,-15.));
#796 = CARTESIAN_POINT('',(-0.5,-14.9));
#797 = CARTESIAN_POINT('',(-0.5,14.9));
#798 = CARTESIAN_POINT('',(-0.5,15.));
#799 = ( GEOMETRIC_REPRESENTATION_CONTEXT(2) 
PARAMETRIC_REPRESENTATION_CONTEXT() REPRESENTATION_CONTEXT('2D SPACE',''
  ) );
#800 = ORIENTED_EDGE('',*,*,#801,.F.);
#801 = EDGE_CURVE('',#207,#776,#802,.T.);
#802 = SURFACE_CURVE('',#803,(#806,#812),.PCURVE_S1.);
#803 = B_SPLINE_CURVE_WITH_KNOTS('',1,(#804,#805),.UNSPECIFIED.,.F.,.F.,
  (2,2),(0.,5.),.PIECEWISE_BEZIER_KNOTS.);
#804 = CARTESIAN_POINT('',(2.5,8.881784197001E-15,-57.5));
#805 = CARTESIAN_POINT('',(-2.5,8.881784197001E-15,-57.5));
#806 = PCURVE('',#224,#807);
#807 = DEFINITIONAL_REPRESENTATION('',(#808),#811);
#808 = B_SPLINE_CURVE_WITH_KNOTS('',1,(#809,#810),.UNSPECIFIED.,.F.,.F.,
  (2,2),(0.,5.),.PIECEWISE_BEZIER_KNOTS.);
#809 = CARTESIAN_POINT('',(-2.5,15.));
#810 = CARTESIAN_POINT('',(2.5,15.));
#811 = ( GEOMETRIC_REPRESENTATION_CONTEXT(2) 
PARAMETRIC_REPRESENTATION_CONTEXT() REPRESENTATION_CONTEXT('2D SPACE',''
  ) );
#812 = PCURVE('',#295,#813);
#813 = DEFINITIONAL_REPRESENTATION('',(#814),#817);
#814 = B_SPLINE_CURVE_WITH_KNOTS('',1,(#815,#816),.UNSPECIFIED.,.F.,.F.,
  (2,2),(0.,5.),.PIECEWISE_BEZIER_KNOTS.);
#815 = CARTESIAN_POINT('',(0.,0.));
#816 = CARTESIAN_POINT('',(5.,0.));
#817 = ( GEOMETRIC_REPRESENTATION_CONTEXT(2) 
PARAMETRIC_REPRESENTATION_CONTEXT() REPRESENTATION_CONTEXT('2D SPACE',''
  ) );
#818 = ADVANCED_FACE('',(#819),#46,.F.);
#819 = FACE_BOUND('',#820,.F.);
#820 = EDGE_LOOP('',(#821,#822,#840,#841,#906,#977,#1003,#1023,#1049,
    #1120));
#821 = ORIENTED_EDGE('',*,*,#775,.F.);
#822 = ORIENTED_EDGE('',*,*,#823,.T.);
#823 = EDGE_CURVE('',#756,#22,#824,.T.);
#824 = SURFACE_CURVE('',#825,(#828,#834),.PCURVE_S1.);
#825 = B_SPLINE_CURVE_WITH_KNOTS('',1,(#826,#827),.UNSPECIFIED.,.F.,.F.,
  (2,2),(0.,1.),.PIECEWISE_BEZIER_KNOTS.);
#826 = CARTESIAN_POINT('',(-2.5,-30.,-57.5));
#827 = CARTESIAN_POINT('',(-2.5,-30.,-58.5));
#828 = PCURVE('',#46,#829);
#829 = DEFINITIONAL_REPRESENTATION('',(#830),#833);
#830 = B_SPLINE_CURVE_WITH_KNOTS('',1,(#831,#832),.UNSPECIFIED.,.F.,.F.,
  (2,2),(0.,1.),.PIECEWISE_BEZIER_KNOTS.);
#831 = CARTESIAN_POINT('',(-0.5,-15.));
#832 = CARTESIAN_POINT('',(0.5,-15.));
#833 = ( GEOMETRIC_REPRESENTATION_CONTEXT(2) 
PARAMETRIC_REPRESENTATION_CONTEXT() REPRESENTATION_CONTEXT('2D SPACE',''
  ) );
#834 = PCURVE('',#73,#835);
#835 = DEFINITIONAL_REPRESENTATION('',(#836),#839);
#836 = B_SPLINE_CURVE_WITH_KNOTS('',1,(#837,#838),.UNSPECIFIED.,.F.,.F.,
  (2,2),(0.,1.),.PIECEWISE_BEZIER_KNOTS.);
#837 = CARTESIAN_POINT('',(-0.5,-2.5));
#838 = CARTESIAN_POINT('',(0.5,-2.5));
#839 = ( GEOMETRIC_REPRESENTATION_CONTEXT(2) 
PARAMETRIC_REPRESENTATION_CONTEXT() REPRESENTATION_CONTEXT('2D SPACE',''
  ) );
#840 = ORIENTED_EDGE('',*,*,#21,.T.);
#841 = ORIENTED_EDGE('',*,*,#842,.T.);
#842 = EDGE_CURVE('',#24,#843,#845,.T.);
#843 = VERTEX_POINT('',#844);
#844 = CARTESIAN_POINT('',(-2.5,110.91172003447,-2.390864179543));
#845 = SURFACE_CURVE('',#846,(#871,#899),.PCURVE_S1.);
#846 = B_SPLINE_CURVE_WITH_KNOTS('',9,(#847,#848,#849,#850,#851,#852,
    #853,#854,#855,#856,#857,#858,#859,#860,#861,#862,#863,#864,#865,
    #866,#867,#868,#869,#870),.UNSPECIFIED.,.F.,.F.,(10,7,7,10),(0.,0.5,
    0.75,1.),.UNSPECIFIED.);
#847 = CARTESIAN_POINT('',(-2.5,0.,-58.5));
#848 = CARTESIAN_POINT('',(-2.5,5.590001396105,-58.49999999999));
#849 = CARTESIAN_POINT('',(-2.5,12.422239028408,-57.90573342991));
#850 = CARTESIAN_POINT('',(-2.5,20.264498976773,-56.76932128801));
#851 = CARTESIAN_POINT('',(-2.5,28.857178588787,-55.12937743984));
#852 = CARTESIAN_POINT('',(-2.5,37.94858867627,-53.0317266429));
#853 = CARTESIAN_POINT('',(-2.5,47.28623879169,-50.52138533603));
#854 = CARTESIAN_POINT('',(-2.5,56.612551407886,-47.63962076091));
#855 = CARTESIAN_POINT('',(-2.5,70.205552741399,-42.82700126107));
#856 = CARTESIAN_POINT('',(-2.5,82.632227625972,-37.3742829002));
#857 = CARTESIAN_POINT('',(-2.5,86.613198542138,-35.49091437088));
#858 = CARTESIAN_POINT('',(-2.5,90.401138667485,-33.54692020141));
#859 = CARTESIAN_POINT('',(-2.5,93.964412246375,-31.54741621096));
#860 = CARTESIAN_POINT('',(-2.5,97.271614929316,-29.49739363823));
#861 = CARTESIAN_POINT('',(-2.5,100.2914990881,-27.40147657853));
#862 = CARTESIAN_POINT('',(-2.5,105.69396897122,-23.12553773224));
#863 = CARTESIAN_POINT('',(-2.5,109.69456740435,-18.69128166358));
#864 = CARTESIAN_POINT('',(-2.5,111.31401345838,-16.43756224424));
#865 = CARTESIAN_POINT('',(-2.5,112.50952036387,-14.14369266186));
#866 = CARTESIAN_POINT('',(-2.5,113.27530759219,-11.82878347565));
#867 = CARTESIAN_POINT('',(-2.5,113.52567868533,-9.439569672999));
#868 = CARTESIAN_POINT('',(-2.5,113.22218261898,-7.067987481766));
#869 = CARTESIAN_POINT('',(-2.5,112.3585262746,-4.716132046907));
#870 = CARTESIAN_POINT('',(-2.5,110.91172003447,-2.390864179543));
#871 = PCURVE('',#46,#872);
#872 = DEFINITIONAL_REPRESENTATION('',(#873),#898);
#873 = B_SPLINE_CURVE_WITH_KNOTS('',9,(#874,#875,#876,#877,#878,#879,
    #880,#881,#882,#883,#884,#885,#886,#887,#888,#889,#890,#891,#892,
    #893,#894,#895,#896,#897),.UNSPECIFIED.,.F.,.F.,(10,7,7,10),(0.,0.5,
    0.75,1.),.UNSPECIFIED.);
#874 = CARTESIAN_POINT('',(0.5,15.));
#875 = CARTESIAN_POINT('',(0.499999999999,20.590001396105));
#876 = CARTESIAN_POINT('',(-9.426657008645E-02,27.422239028408));
#877 = CARTESIAN_POINT('',(-1.230678711986,35.264498976773));
#878 = CARTESIAN_POINT('',(-2.870622560157,43.857178588787));
#879 = CARTESIAN_POINT('',(-4.968273357095,52.94858867627));
#880 = CARTESIAN_POINT('',(-7.478614663966,62.28623879169));
#881 = CARTESIAN_POINT('',(-10.36037923908,71.612551407886));
#882 = CARTESIAN_POINT('',(-15.17299873892,85.205552741399));
#883 = CARTESIAN_POINT('',(-20.62571709979,97.632227625972));
#884 = CARTESIAN_POINT('',(-22.50908562911,101.61319854213));
#885 = CARTESIAN_POINT('',(-24.45307979858,105.40113866748));
#886 = CARTESIAN_POINT('',(-26.45258378903,108.96441224637));
#887 = CARTESIAN_POINT('',(-28.50260636177,112.27161492931));
#888 = CARTESIAN_POINT('',(-30.59852342147,115.2914990881));
#889 = CARTESIAN_POINT('',(-34.87446226775,120.69396897122));
#890 = CARTESIAN_POINT('',(-39.30871833641,124.69456740435));
#891 = CARTESIAN_POINT('',(-41.56243775575,126.31401345838));
#892 = CARTESIAN_POINT('',(-43.85630733813,127.50952036387));
#893 = CARTESIAN_POINT('',(-46.17121652434,128.27530759219));
#894 = CARTESIAN_POINT('',(-48.560430327,128.52567868533));
#895 = CARTESIAN_POINT('',(-50.93201251823,128.22218261898));
#896 = CARTESIAN_POINT('',(-53.28386795309,127.3585262746));
#897 = CARTESIAN_POINT('',(-55.60913582045,125.91172003447));
#898 = ( GEOMETRIC_REPRESENTATION_CONTEXT(2) 
PARAMETRIC_REPRESENTATION_CONTEXT() REPRESENTATION_CONTEXT('2D SPACE',''
  ) );
#899 = PCURVE('',#127,#900);
#900 = DEFINITIONAL_REPRESENTATION('',(#901),#905);
#901 = LINE('',#902,#903);
#902 = CARTESIAN_POINT('',(0.,0.));
#903 = VECTOR('',#904,1.);
#904 = DIRECTION('',(0.,1.));
#905 = ( GEOMETRIC_REPRESENTATION_CONTEXT(2) 
PARAMETRIC_REPRESENTATION_CONTEXT() REPRESENTATION_CONTEXT('2D SPACE',''
  ) );
#906 = ORIENTED_EDGE('',*,*,#907,.T.);
#907 = EDGE_CURVE('',#843,#908,#910,.T.);
#908 = VERTEX_POINT('',#909);
#909 = CARTESIAN_POINT('',(-2.5,114.,51.5));
#910 = SURFACE_CURVE('',#911,(#939,#970),.PCURVE_S1.);
#911 = B_SPLINE_CURVE_WITH_KNOTS('',8,(#912,#913,#914,#915,#916,#917,
    #918,#919,#920,#921,#922,#923,#924,#925,#926,#927,#928,#929,#930,
    #931,#932,#933,#934,#935,#936,#937,#938),.UNSPECIFIED.,.F.,.F.,(9,6,
    6,6,9),(0.,0.174164445098,0.587082222549,0.793541111275,1.),
  .UNSPECIFIED.);
#912 = CARTESIAN_POINT('',(-2.5,110.91172003447,-2.390864179543));
#913 = CARTESIAN_POINT('',(-2.5,109.96531471085,-0.869827134325));
#914 = CARTESIAN_POINT('',(-2.5,108.95751457967,0.676511745071));
#915 = CARTESIAN_POINT('',(-2.5,107.89809577649,2.244743817585));
#916 = CARTESIAN_POINT('',(-2.5,106.7968369567,3.83135016679));
#917 = CARTESIAN_POINT('',(-2.5,105.66352315777,5.432723686831));
#918 = CARTESIAN_POINT('',(-2.5,104.50794966127,7.045191168372));
#919 = CARTESIAN_POINT('',(-2.5,100.57071659572,12.505443070366));
#920 = CARTESIAN_POINT('',(-2.5,96.603679884159,18.007027403566));
#921 = CARTESIAN_POINT('',(-2.5,93.929317352291,21.846124728549));
#922 = CARTESIAN_POINT('',(-2.5,91.504214538703,25.609226791307));
#923 = CARTESIAN_POINT('',(-2.5,89.455188630672,29.22798912785));
#924 = CARTESIAN_POINT('',(-2.5,87.919018739292,32.675469382276));
#925 = CARTESIAN_POINT('',(-2.5,86.586186965955,37.446914977367));
#926 = CARTESIAN_POINT('',(-2.5,86.922618262319,41.507958431976));
#927 = CARTESIAN_POINT('',(-2.5,87.232324929232,42.777467034881));
#928 = CARTESIAN_POINT('',(-2.5,87.750199422725,43.955255286998));
#929 = CARTESIAN_POINT('',(-2.5,88.483684225443,45.060429406607));
#930 = CARTESIAN_POINT('',(-2.5,89.475175062261,46.091002389271));
#931 = CARTESIAN_POINT('',(-2.5,92.010012204502,47.979837455864));
#932 = CARTESIAN_POINT('',(-2.5,95.726045864892,49.48651824734));
#933 = CARTESIAN_POINT('',(-2.5,97.897988670314,50.134242632712));
#934 = CARTESIAN_POINT('',(-2.5,100.39927905163,50.667101087628));
#935 = CARTESIAN_POINT('',(-2.5,103.24460678702,51.076966302357));
#936 = CARTESIAN_POINT('',(-2.5,106.44923623918,51.356758472519));
#937 = CARTESIAN_POINT('',(-2.5,110.02914574671,51.5));
#938 = CARTESIAN_POINT('',(-2.5,114.,51.5));
#939 = PCURVE('',#46,#940);
#940 = DEFINITIONAL_REPRESENTATION('',(#941),#969);
#941 = B_SPLINE_CURVE_WITH_KNOTS('',8,(#942,#943,#944,#945,#946,#947,
    #948,#949,#950,#951,#952,#953,#954,#955,#956,#957,#958,#959,#960,
    #961,#962,#963,#964,#965,#966,#967,#968),.UNSPECIFIED.,.F.,.F.,(9,6,
    6,6,9),(0.,0.174164445098,0.587082222549,0.793541111275,1.),
  .UNSPECIFIED.);
#942 = CARTESIAN_POINT('',(-55.60913582045,125.91172003447));
#943 = CARTESIAN_POINT('',(-57.13017286567,124.96531471085));
#944 = CARTESIAN_POINT('',(-58.67651174507,123.95751457967));
#945 = CARTESIAN_POINT('',(-60.24474381758,122.89809577649));
#946 = CARTESIAN_POINT('',(-61.83135016679,121.7968369567));
#947 = CARTESIAN_POINT('',(-63.43272368683,120.66352315777));
#948 = CARTESIAN_POINT('',(-65.04519116837,119.50794966127));
#949 = CARTESIAN_POINT('',(-70.50544307036,115.57071659572));
#950 = CARTESIAN_POINT('',(-76.00702740356,111.60367988415));
#951 = CARTESIAN_POINT('',(-79.84612472854,108.92931735229));
#952 = CARTESIAN_POINT('',(-83.6092267913,106.5042145387));
#953 = CARTESIAN_POINT('',(-87.22798912785,104.45518863067));
#954 = CARTESIAN_POINT('',(-90.67546938227,102.91901873929));
#955 = CARTESIAN_POINT('',(-95.44691497736,101.58618696595));
#956 = CARTESIAN_POINT('',(-99.50795843197,101.92261826231));
#957 = CARTESIAN_POINT('',(-100.7774670348,102.23232492923));
#958 = CARTESIAN_POINT('',(-101.9552552869,102.75019942272));
#959 = CARTESIAN_POINT('',(-103.0604294066,103.48368422544));
#960 = CARTESIAN_POINT('',(-104.0910023892,104.47517506226));
#961 = CARTESIAN_POINT('',(-105.9798374558,107.0100122045));
#962 = CARTESIAN_POINT('',(-107.4865182473,110.72604586489));
#963 = CARTESIAN_POINT('',(-108.1342426327,112.89798867031));
#964 = CARTESIAN_POINT('',(-108.6671010876,115.39927905163));
#965 = CARTESIAN_POINT('',(-109.0769663023,118.24460678702));
#966 = CARTESIAN_POINT('',(-109.3567584725,121.44923623918));
#967 = CARTESIAN_POINT('',(-109.5,125.02914574671));
#968 = CARTESIAN_POINT('',(-109.5,129.));
#969 = ( GEOMETRIC_REPRESENTATION_CONTEXT(2) 
PARAMETRIC_REPRESENTATION_CONTEXT() REPRESENTATION_CONTEXT('2D SPACE',''
  ) );
#970 = PCURVE('',#626,#971);
#971 = DEFINITIONAL_REPRESENTATION('',(#972),#976);
#972 = LINE('',#973,#974);
#973 = CARTESIAN_POINT('',(0.,0.));
#974 = VECTOR('',#975,1.);
#975 = DIRECTION('',(0.,1.));
#976 = ( GEOMETRIC_REPRESENTATION_CONTEXT(2) 
PARAMETRIC_REPRESENTATION_CONTEXT() REPRESENTATION_CONTEXT('2D SPACE',''
  ) );
#977 = ORIENTED_EDGE('',*,*,#978,.T.);
#978 = EDGE_CURVE('',#908,#979,#981,.T.);
#979 = VERTEX_POINT('',#980);
#980 = CARTESIAN_POINT('',(-2.5,129.,51.5));
#981 = SURFACE_CURVE('',#982,(#987,#995),.PCURVE_S1.);
#982 = B_SPLINE_CURVE_WITH_KNOTS('',3,(#983,#984,#985,#986),
  .UNSPECIFIED.,.F.,.F.,(4,4),(0.,1.),.PIECEWISE_BEZIER_KNOTS.);
#983 = CARTESIAN_POINT('',(-2.5,114.,51.5));
#984 = CARTESIAN_POINT('',(-2.5,114.1,51.5));
#985 = CARTESIAN_POINT('',(-2.5,128.9,51.5));
#986 = CARTESIAN_POINT('',(-2.5,129.,51.5));
#987 = PCURVE('',#46,#988);
#988 = DEFINITIONAL_REPRESENTATION('',(#989),#994);
#989 = B_SPLINE_CURVE_WITH_KNOTS('',3,(#990,#991,#992,#993),
  .UNSPECIFIED.,.F.,.F.,(4,4),(0.,1.),.PIECEWISE_BEZIER_KNOTS.);
#990 = CARTESIAN_POINT('',(-109.5,129.));
#991 = CARTESIAN_POINT('',(-109.5,129.1));
#992 = CARTESIAN_POINT('',(-109.5,143.9));
#993 = CARTESIAN_POINT('',(-109.5,144.));
#994 = ( GEOMETRIC_REPRESENTATION_CONTEXT(2) 
PARAMETRIC_REPRESENTATION_CONTEXT() REPRESENTATION_CONTEXT('2D SPACE',''
  ) );
#995 = PCURVE('',#549,#996);
#996 = DEFINITIONAL_REPRESENTATION('',(#997),#1002);
#997 = B_SPLINE_CURVE_WITH_KNOTS('',3,(#998,#999,#1000,#1001),
  .UNSPECIFIED.,.F.,.F.,(4,4),(0.,1.),.PIECEWISE_BEZIER_KNOTS.);
#998 = CARTESIAN_POINT('',(-2.5,-7.5));
#999 = CARTESIAN_POINT('',(-2.5,-7.4));
#1000 = CARTESIAN_POINT('',(-2.5,7.4));
#1001 = CARTESIAN_POINT('',(-2.5,7.5));
#1002 = ( GEOMETRIC_REPRESENTATION_CONTEXT(2) 
PARAMETRIC_REPRESENTATION_CONTEXT() REPRESENTATION_CONTEXT('2D SPACE',''
  ) );
#1003 = ORIENTED_EDGE('',*,*,#1004,.F.);
#1004 = EDGE_CURVE('',#1005,#979,#1007,.T.);
#1005 = VERTEX_POINT('',#1006);
#1006 = CARTESIAN_POINT('',(-2.5,129.,52.5));
#1007 = SURFACE_CURVE('',#1008,(#1011,#1017),.PCURVE_S1.);
#1008 = B_SPLINE_CURVE_WITH_KNOTS('',1,(#1009,#1010),.UNSPECIFIED.,.F.,
  .F.,(2,2),(0.,1.),.PIECEWISE_BEZIER_KNOTS.);
#1009 = CARTESIAN_POINT('',(-2.5,129.,52.5));
#1010 = CARTESIAN_POINT('',(-2.5,129.,51.5));
#1011 = PCURVE('',#46,#1012);
#1012 = DEFINITIONAL_REPRESENTATION('',(#1013),#1016);
#1013 = B_SPLINE_CURVE_WITH_KNOTS('',1,(#1014,#1015),.UNSPECIFIED.,.F.,
  .F.,(2,2),(0.,1.),.PIECEWISE_BEZIER_KNOTS.);
#1014 = CARTESIAN_POINT('',(-110.5,144.));
#1015 = CARTESIAN_POINT('',(-109.5,144.));
#1016 = ( GEOMETRIC_REPRESENTATION_CONTEXT(2) 
PARAMETRIC_REPRESENTATION_CONTEXT() REPRESENTATION_CONTEXT('2D SPACE',''
  ) );
#1017 = PCURVE('',#520,#1018);
#1018 = DEFINITIONAL_REPRESENTATION('',(#1019),#1022);
#1019 = B_SPLINE_CURVE_WITH_KNOTS('',1,(#1020,#1021),.UNSPECIFIED.,.F.,
  .F.,(2,2),(0.,1.),.PIECEWISE_BEZIER_KNOTS.);
#1020 = CARTESIAN_POINT('',(-0.5,-2.5));
#1021 = CARTESIAN_POINT('',(0.5,-2.5));
#1022 = ( GEOMETRIC_REPRESENTATION_CONTEXT(2) 
PARAMETRIC_REPRESENTATION_CONTEXT() REPRESENTATION_CONTEXT('2D SPACE',''
  ) );
#1023 = ORIENTED_EDGE('',*,*,#1024,.F.);
#1024 = EDGE_CURVE('',#1025,#1005,#1027,.T.);
#1025 = VERTEX_POINT('',#1026);
#1026 = CARTESIAN_POINT('',(-2.5,114.,52.5));
#1027 = SURFACE_CURVE('',#1028,(#1033,#1041),.PCURVE_S1.);
#1028 = B_SPLINE_CURVE_WITH_KNOTS('',3,(#1029,#1030,#1031,#1032),
  .UNSPECIFIED.,.F.,.F.,(4,4),(0.,1.),.PIECEWISE_BEZIER_KNOTS.);
#1029 = CARTESIAN_POINT('',(-2.5,114.,52.5));
#1030 = CARTESIAN_POINT('',(-2.5,114.1,52.5));
#1031 = CARTESIAN_POINT('',(-2.5,128.9,52.5));
#1032 = CARTESIAN_POINT('',(-2.5,129.,52.5));
#1033 = PCURVE('',#46,#1034);
#1034 = DEFINITIONAL_REPRESENTATION('',(#1035),#1040);
#1035 = B_SPLINE_CURVE_WITH_KNOTS('',3,(#1036,#1037,#1038,#1039),
  .UNSPECIFIED.,.F.,.F.,(4,4),(0.,1.),.PIECEWISE_BEZIER_KNOTS.);
#1036 = CARTESIAN_POINT('',(-110.5,129.));
#1037 = CARTESIAN_POINT('',(-110.5,129.1));
#1038 = CARTESIAN_POINT('',(-110.5,143.9));
#1039 = CARTESIAN_POINT('',(-110.5,144.));
#1040 = ( GEOMETRIC_REPRESENTATION_CONTEXT(2) 
PARAMETRIC_REPRESENTATION_CONTEXT() REPRESENTATION_CONTEXT('2D SPACE',''
  ) );
#1041 = PCURVE('',#493,#1042);
#1042 = DEFINITIONAL_REPRESENTATION('',(#1043),#1048);
#1043 = B_SPLINE_CURVE_WITH_KNOTS('',3,(#1044,#1045,#1046,#1047),
  .UNSPECIFIED.,.F.,.F.,(4,4),(0.,1.),.PIECEWISE_BEZIER_KNOTS.);
#1044 = CARTESIAN_POINT('',(2.5,-7.5));
#1045 = CARTESIAN_POINT('',(2.5,-7.4));
#1046 = CARTESIAN_POINT('',(2.5,7.4));
#1047 = CARTESIAN_POINT('',(2.5,7.5));
#1048 = ( GEOMETRIC_REPRESENTATION_CONTEXT(2) 
PARAMETRIC_REPRESENTATION_CONTEXT() REPRESENTATION_CONTEXT('2D SPACE',''
  ) );
#1049 = ORIENTED_EDGE('',*,*,#1050,.F.);
#1050 = EDGE_CURVE('',#1051,#1025,#1053,.T.);
#1051 = VERTEX_POINT('',#1052);
#1052 = CARTESIAN_POINT('',(-2.5,110.06265899211,-2.919158932837));
#1053 = SURFACE_CURVE('',#1054,(#1082,#1113),.PCURVE_S1.);
#1054 = B_SPLINE_CURVE_WITH_KNOTS('',8,(#1055,#1056,#1057,#1058,#1059,
    #1060,#1061,#1062,#1063,#1064,#1065,#1066,#1067,#1068,#1069,#1070,
    #1071,#1072,#1073,#1074,#1075,#1076,#1077,#1078,#1079,#1080,#1081),
  .UNSPECIFIED.,.F.,.F.,(9,6,6,6,9),(0.,0.174164445098,0.587082222549,
    0.793541111275,1.),.UNSPECIFIED.);
#1055 = CARTESIAN_POINT('',(-2.5,110.06265899211,-2.919158932837));
#1056 = CARTESIAN_POINT('',(-2.5,109.12625550414,-1.414196567404));
#1057 = CARTESIAN_POINT('',(-2.5,108.12676328061,0.11956546153));
#1058 = CARTESIAN_POINT('',(-2.5,107.07406809525,1.678024065987));
#1059 = CARTESIAN_POINT('',(-2.5,105.9780532019,3.257186433356));
#1060 = CARTESIAN_POINT('',(-2.5,104.84859547245,4.853147940454));
#1061 = CARTESIAN_POINT('',(-2.5,103.69556153453,6.462070067581));
#1062 = CARTESIAN_POINT('',(-2.5,99.762596575552,11.916402854147));
#1063 = CARTESIAN_POINT('',(-2.5,95.785440823471,17.432020522256));
#1064 = CARTESIAN_POINT('',(-2.5,93.09776171065,21.292409318818));
#1065 = CARTESIAN_POINT('',(-2.5,90.648263101384,25.079348354733));
#1066 = CARTESIAN_POINT('',(-2.5,88.572149912549,28.761077927093));
#1067 = CARTESIAN_POINT('',(-2.5,86.994665137149,32.264436224901));
#1068 = CARTESIAN_POINT('',(-2.5,85.567274711639,37.244612172802));
#1069 = CARTESIAN_POINT('',(-2.5,85.925560652689,41.698001457632));
#1070 = CARTESIAN_POINT('',(-2.5,86.264061320828,43.116658657717));
#1071 = CARTESIAN_POINT('',(-2.5,86.843781848051,44.464544744271));
#1072 = CARTESIAN_POINT('',(-2.5,87.690032514612,45.710040478098));
#1073 = CARTESIAN_POINT('',(-2.5,88.79317035877,46.842619842825));
#1074 = CARTESIAN_POINT('',(-2.5,91.542882527753,48.880028417135));
#1075 = CARTESIAN_POINT('',(-2.5,95.432993129301,50.449417075398));
#1076 = CARTESIAN_POINT('',(-2.5,97.677273955526,51.114670846234));
#1077 = CARTESIAN_POINT('',(-2.5,100.23811146957,51.65722095802));
#1078 = CARTESIAN_POINT('',(-2.5,103.13356865625,52.0726816996));
#1079 = CARTESIAN_POINT('',(-2.5,106.38113391592,52.355619854516));
#1080 = CARTESIAN_POINT('',(-2.5,109.99758167295,52.5));
#1081 = CARTESIAN_POINT('',(-2.5,114.,52.5));
#1082 = PCURVE('',#46,#1083);
#1083 = DEFINITIONAL_REPRESENTATION('',(#1084),#1112);
#1084 = B_SPLINE_CURVE_WITH_KNOTS('',8,(#1085,#1086,#1087,#1088,#1089,
    #1090,#1091,#1092,#1093,#1094,#1095,#1096,#1097,#1098,#1099,#1100,
    #1101,#1102,#1103,#1104,#1105,#1106,#1107,#1108,#1109,#1110,#1111),
  .UNSPECIFIED.,.F.,.F.,(9,6,6,6,9),(0.,0.174164445098,0.587082222549,
    0.793541111275,1.),.UNSPECIFIED.);
#1085 = CARTESIAN_POINT('',(-55.08084106716,125.06265899211));
#1086 = CARTESIAN_POINT('',(-56.58580343259,124.12625550414));
#1087 = CARTESIAN_POINT('',(-58.11956546153,123.12676328061));
#1088 = CARTESIAN_POINT('',(-59.67802406598,122.07406809525));
#1089 = CARTESIAN_POINT('',(-61.25718643335,120.9780532019));
#1090 = CARTESIAN_POINT('',(-62.85314794045,119.84859547245));
#1091 = CARTESIAN_POINT('',(-64.46207006758,118.69556153453));
#1092 = CARTESIAN_POINT('',(-69.91640285414,114.76259657555));
#1093 = CARTESIAN_POINT('',(-75.43202052225,110.78544082347));
#1094 = CARTESIAN_POINT('',(-79.29240931881,108.09776171065));
#1095 = CARTESIAN_POINT('',(-83.07934835473,105.64826310138));
#1096 = CARTESIAN_POINT('',(-86.76107792709,103.57214991254));
#1097 = CARTESIAN_POINT('',(-90.2644362249,101.99466513714));
#1098 = CARTESIAN_POINT('',(-95.2446121728,100.56727471163));
#1099 = CARTESIAN_POINT('',(-99.69800145763,100.92556065268));
#1100 = CARTESIAN_POINT('',(-101.1166586577,101.26406132082));
#1101 = CARTESIAN_POINT('',(-102.4645447442,101.84378184805));
#1102 = CARTESIAN_POINT('',(-103.710040478,102.69003251461));
#1103 = CARTESIAN_POINT('',(-104.8426198428,103.79317035877));
#1104 = CARTESIAN_POINT('',(-106.8800284171,106.54288252775));
#1105 = CARTESIAN_POINT('',(-108.4494170753,110.4329931293));
#1106 = CARTESIAN_POINT('',(-109.1146708462,112.67727395552));
#1107 = CARTESIAN_POINT('',(-109.657220958,115.23811146957));
#1108 = CARTESIAN_POINT('',(-110.0726816996,118.13356865625));
#1109 = CARTESIAN_POINT('',(-110.3556198545,121.38113391592));
#1110 = CARTESIAN_POINT('',(-110.5,124.99758167295));
#1111 = CARTESIAN_POINT('',(-110.5,129.));
#1112 = ( GEOMETRIC_REPRESENTATION_CONTEXT(2) 
PARAMETRIC_REPRESENTATION_CONTEXT() REPRESENTATION_CONTEXT('2D SPACE',''
  ) );
#1113 = PCURVE('',#414,#1114);
#1114 = DEFINITIONAL_REPRESENTATION('',(#1115),#1119);
#1115 = LINE('',#1116,#1117);
#1116 = CARTESIAN_POINT('',(5.,0.));
#1117 = VECTOR('',#1118,1.);
#1118 = DIRECTION('',(0.,1.));
#1119 = ( GEOMETRIC_REPRESENTATION_CONTEXT(2) 
PARAMETRIC_REPRESENTATION_CONTEXT() REPRESENTATION_CONTEXT('2D SPACE',''
  ) );
#1120 = ORIENTED_EDGE('',*,*,#1121,.F.);
#1121 = EDGE_CURVE('',#776,#1051,#1122,.T.);
#1122 = SURFACE_CURVE('',#1123,(#1148,#1176),.PCURVE_S1.);
#1123 = B_SPLINE_CURVE_WITH_KNOTS('',9,(#1124,#1125,#1126,#1127,#1128,
    #1129,#1130,#1131,#1132,#1133,#1134,#1135,#1136,#1137,#1138,#1139,
    #1140,#1141,#1142,#1143,#1144,#1145,#1146,#1147),.UNSPECIFIED.,.F.,
  .F.,(10,7,7,10),(0.,0.5,0.75,1.),.UNSPECIFIED.);
#1124 = CARTESIAN_POINT('',(-2.5,0.,-57.5));
#1125 = CARTESIAN_POINT('',(-2.5,5.495504648473,-57.5));
#1126 = CARTESIAN_POINT('',(-2.5,12.28260538887,-56.91577926963));
#1127 = CARTESIAN_POINT('',(-2.5,20.082449794546,-55.78303257606));
#1128 = CARTESIAN_POINT('',(-2.5,28.643574171187,-54.15096181923));
#1129 = CARTESIAN_POINT('',(-2.5,37.706601360159,-52.06155800699));
#1130 = CARTESIAN_POINT('',(-2.5,47.012955462286,-49.55762046604));
#1131 = CARTESIAN_POINT('',(-2.5,56.309147657922,-46.68569772009));
#1132 = CARTESIAN_POINT('',(-2.5,69.851054913478,-41.89039717662));
#1133 = CARTESIAN_POINT('',(-2.5,82.211116394716,-36.4666973739));
#1134 = CARTESIAN_POINT('',(-2.5,86.167599615672,-34.59462591711));
#1135 = CARTESIAN_POINT('',(-2.5,89.928439015944,-32.66418980625));
#1136 = CARTESIAN_POINT('',(-2.5,93.461387057842,-30.68125019282));
#1137 = CARTESIAN_POINT('',(-2.5,96.733964797486,-28.6517928088));
#1138 = CARTESIAN_POINT('',(-2.5,99.713536569765,-26.58217052957));
#1139 = CARTESIAN_POINT('',(-2.5,105.02156297901,-22.37686587497));
#1140 = CARTESIAN_POINT('',(-2.5,108.89909652535,-18.07345667944));
#1141 = CARTESIAN_POINT('',(-2.5,110.44674208948,-15.90521499654));
#1142 = CARTESIAN_POINT('',(-2.5,111.58246913725,-13.73497197721));
#1143 = CARTESIAN_POINT('',(-2.5,112.24817490392,-11.55459403293));
#1144 = CARTESIAN_POINT('',(-2.5,112.46567255417,-9.428323146997));
#1145 = CARTESIAN_POINT('',(-2.5,112.20952981895,-7.275200062207));
#1146 = CARTESIAN_POINT('',(-2.5,111.42215652348,-5.104106604302));
#1147 = CARTESIAN_POINT('',(-2.5,110.06265899211,-2.919158932837));
#1148 = PCURVE('',#46,#1149);
#1149 = DEFINITIONAL_REPRESENTATION('',(#1150),#1175);
#1150 = B_SPLINE_CURVE_WITH_KNOTS('',9,(#1151,#1152,#1153,#1154,#1155,
    #1156,#1157,#1158,#1159,#1160,#1161,#1162,#1163,#1164,#1165,#1166,
    #1167,#1168,#1169,#1170,#1171,#1172,#1173,#1174),.UNSPECIFIED.,.F.,
  .F.,(10,7,7,10),(0.,0.5,0.75,1.),.UNSPECIFIED.);
#1151 = CARTESIAN_POINT('',(-0.5,15.));
#1152 = CARTESIAN_POINT('',(-0.5,20.495504648473));
#1153 = CARTESIAN_POINT('',(-1.084220730361,27.28260538887));
#1154 = CARTESIAN_POINT('',(-2.216967423936,35.082449794546));
#1155 = CARTESIAN_POINT('',(-3.84903818077,43.643574171187));
#1156 = CARTESIAN_POINT('',(-5.938441993006,52.706601360159));
#1157 = CARTESIAN_POINT('',(-8.442379533951,62.012955462286));
#1158 = CARTESIAN_POINT('',(-11.3143022799,71.309147657922));
#1159 = CARTESIAN_POINT('',(-16.10960282337,84.851054913478));
#1160 = CARTESIAN_POINT('',(-21.53330262609,97.211116394716));
#1161 = CARTESIAN_POINT('',(-23.40537408288,101.16759961567));
#1162 = CARTESIAN_POINT('',(-25.33581019374,104.92843901594));
#1163 = CARTESIAN_POINT('',(-27.31874980717,108.46138705784));
#1164 = CARTESIAN_POINT('',(-29.34820719119,111.73396479748));
#1165 = CARTESIAN_POINT('',(-31.41782947042,114.71353656976));
#1166 = CARTESIAN_POINT('',(-35.62313412502,120.02156297901));
#1167 = CARTESIAN_POINT('',(-39.92654332055,123.89909652535));
#1168 = CARTESIAN_POINT('',(-42.09478500345,125.44674208948));
#1169 = CARTESIAN_POINT('',(-44.26502802278,126.58246913725));
#1170 = CARTESIAN_POINT('',(-46.44540596706,127.24817490392));
#1171 = CARTESIAN_POINT('',(-48.571676853,127.46567255417));
#1172 = CARTESIAN_POINT('',(-50.72479993779,127.20952981895));
#1173 = CARTESIAN_POINT('',(-52.89589339569,126.42215652348));
#1174 = CARTESIAN_POINT('',(-55.08084106716,125.06265899211));
#1175 = ( GEOMETRIC_REPRESENTATION_CONTEXT(2) 
PARAMETRIC_REPRESENTATION_CONTEXT() REPRESENTATION_CONTEXT('2D SPACE',''
  ) );
#1176 = PCURVE('',#295,#1177);
#1177 = DEFINITIONAL_REPRESENTATION('',(#1178),#1182);
#1178 = LINE('',#1179,#1180);
#1179 = CARTESIAN_POINT('',(5.,0.));
#1180 = VECTOR('',#1181,1.);
#1181 = DIRECTION('',(0.,1.));
#1182 = ( GEOMETRIC_REPRESENTATION_CONTEXT(2) 
PARAMETRIC_REPRESENTATION_CONTEXT() REPRESENTATION_CONTEXT('2D SPACE',''
  ) );
#1183 = ADVANCED_FACE('',(#1184),#127,.F.);
#1184 = FACE_BOUND('',#1185,.F.);
#1185 = EDGE_LOOP('',(#1186,#1187,#1188,#1189));
#1186 = ORIENTED_EDGE('',*,*,#842,.F.);
#1187 = ORIENTED_EDGE('',*,*,#115,.T.);
#1188 = ORIENTED_EDGE('',*,*,#688,.T.);
#1189 = ORIENTED_EDGE('',*,*,#1190,.F.);
#1190 = EDGE_CURVE('',#843,#563,#1191,.T.);
#1191 = SURFACE_CURVE('',#1192,(#1195,#1202),.PCURVE_S1.);
#1192 = B_SPLINE_CURVE_WITH_KNOTS('',1,(#1193,#1194),.UNSPECIFIED.,.F.,
  .F.,(2,2),(0.,5.),.PIECEWISE_BEZIER_KNOTS.);
#1193 = CARTESIAN_POINT('',(-2.5,110.91172003447,-2.390864179543));
#1194 = CARTESIAN_POINT('',(2.5,110.91172003447,-2.390864179543));
#1195 = PCURVE('',#127,#1196);
#1196 = DEFINITIONAL_REPRESENTATION('',(#1197),#1201);
#1197 = LINE('',#1198,#1199);
#1198 = CARTESIAN_POINT('',(0.,1.));
#1199 = VECTOR('',#1200,1.);
#1200 = DIRECTION('',(1.,0.));
#1201 = ( GEOMETRIC_REPRESENTATION_CONTEXT(2) 
PARAMETRIC_REPRESENTATION_CONTEXT() REPRESENTATION_CONTEXT('2D SPACE',''
  ) );
#1202 = PCURVE('',#626,#1203);
#1203 = DEFINITIONAL_REPRESENTATION('',(#1204),#1207);
#1204 = B_SPLINE_CURVE_WITH_KNOTS('',1,(#1205,#1206),.UNSPECIFIED.,.F.,
  .F.,(2,2),(0.,5.),.PIECEWISE_BEZIER_KNOTS.);
#1205 = CARTESIAN_POINT('',(0.,0.));
#1206 = CARTESIAN_POINT('',(5.,0.));
#1207 = ( GEOMETRIC_REPRESENTATION_CONTEXT(2) 
PARAMETRIC_REPRESENTATION_CONTEXT() REPRESENTATION_CONTEXT('2D SPACE',''
  ) );
#1208 = ADVANCED_FACE('',(#1209),#295,.F.);
#1209 = FACE_BOUND('',#1210,.F.);
#1210 = EDGE_LOOP('',(#1211,#1212,#1213,#1214));
#1211 = ORIENTED_EDGE('',*,*,#237,.F.);
#1212 = ORIENTED_EDGE('',*,*,#801,.T.);
#1213 = ORIENTED_EDGE('',*,*,#1121,.T.);
#1214 = ORIENTED_EDGE('',*,*,#1215,.F.);
#1215 = EDGE_CURVE('',#238,#1051,#1216,.T.);
#1216 = SURFACE_CURVE('',#1217,(#1220,#1227),.PCURVE_S1.);
#1217 = B_SPLINE_CURVE_WITH_KNOTS('',1,(#1218,#1219),.UNSPECIFIED.,.F.,
  .F.,(2,2),(0.,5.),.PIECEWISE_BEZIER_KNOTS.);
#1218 = CARTESIAN_POINT('',(2.5,110.06265899211,-2.919158932837));
#1219 = CARTESIAN_POINT('',(-2.5,110.06265899211,-2.919158932837));
#1220 = PCURVE('',#295,#1221);
#1221 = DEFINITIONAL_REPRESENTATION('',(#1222),#1226);
#1222 = LINE('',#1223,#1224);
#1223 = CARTESIAN_POINT('',(0.,1.));
#1224 = VECTOR('',#1225,1.);
#1225 = DIRECTION('',(1.,0.));
#1226 = ( GEOMETRIC_REPRESENTATION_CONTEXT(2) 
PARAMETRIC_REPRESENTATION_CONTEXT() REPRESENTATION_CONTEXT('2D SPACE',''
  ) );
#1227 = PCURVE('',#414,#1228);
#1228 = DEFINITIONAL_REPRESENTATION('',(#1229),#1232);
#1229 = B_SPLINE_CURVE_WITH_KNOTS('',1,(#1230,#1231),.UNSPECIFIED.,.F.,
  .F.,(2,2),(0.,5.),.PIECEWISE_BEZIER_KNOTS.);
#1230 = CARTESIAN_POINT('',(0.,0.));
#1231 = CARTESIAN_POINT('',(5.,0.));
#1232 = ( GEOMETRIC_REPRESENTATION_CONTEXT(2) 
PARAMETRIC_REPRESENTATION_CONTEXT() REPRESENTATION_CONTEXT('2D SPACE',''
  ) );
#1233 = ADVANCED_FACE('',(#1234),#626,.F.);
#1234 = FACE_BOUND('',#1235,.F.);
#1235 = EDGE_LOOP('',(#1236,#1237,#1238,#1239));
#1236 = ORIENTED_EDGE('',*,*,#907,.F.);
#1237 = ORIENTED_EDGE('',*,*,#1190,.T.);
#1238 = ORIENTED_EDGE('',*,*,#562,.T.);
#1239 = ORIENTED_EDGE('',*,*,#1240,.F.);
#1240 = EDGE_CURVE('',#908,#532,#1241,.T.);
#1241 = SURFACE_CURVE('',#1242,(#1245,#1252),.PCURVE_S1.);
#1242 = B_SPLINE_CURVE_WITH_KNOTS('',1,(#1243,#1244),.UNSPECIFIED.,.F.,
  .F.,(2,2),(0.,5.),.PIECEWISE_BEZIER_KNOTS.);
#1243 = CARTESIAN_POINT('',(-2.5,114.,51.5));
#1244 = CARTESIAN_POINT('',(2.5,114.,51.5));
#1245 = PCURVE('',#626,#1246);
#1246 = DEFINITIONAL_REPRESENTATION('',(#1247),#1251);
#1247 = LINE('',#1248,#1249);
#1248 = CARTESIAN_POINT('',(0.,1.));
#1249 = VECTOR('',#1250,1.);
#1250 = DIRECTION('',(1.,0.));
#1251 = ( GEOMETRIC_REPRESENTATION_CONTEXT(2) 
PARAMETRIC_REPRESENTATION_CONTEXT() REPRESENTATION_CONTEXT('2D SPACE',''
  ) );
#1252 = PCURVE('',#549,#1253);
#1253 = DEFINITIONAL_REPRESENTATION('',(#1254),#1257);
#1254 = B_SPLINE_CURVE_WITH_KNOTS('',1,(#1255,#1256),.UNSPECIFIED.,.F.,
  .F.,(2,2),(0.,5.),.PIECEWISE_BEZIER_KNOTS.);
#1255 = CARTESIAN_POINT('',(-2.5,-7.5));
#1256 = CARTESIAN_POINT('',(2.5,-7.5));
#1257 = ( GEOMETRIC_REPRESENTATION_CONTEXT(2) 
PARAMETRIC_REPRESENTATION_CONTEXT() REPRESENTATION_CONTEXT('2D SPACE',''
  ) );
#1258 = ADVANCED_FACE('',(#1259),#414,.F.);
#1259 = FACE_BOUND('',#1260,.F.);
#1260 = EDGE_LOOP('',(#1261,#1262,#1263,#1264));
#1261 = ORIENTED_EDGE('',*,*,#350,.F.);
#1262 = ORIENTED_EDGE('',*,*,#1215,.T.);
#1263 = ORIENTED_EDGE('',*,*,#1050,.T.);
#1264 = ORIENTED_EDGE('',*,*,#1265,.F.);
#1265 = EDGE_CURVE('',#351,#1025,#1266,.T.);
#1266 = SURFACE_CURVE('',#1267,(#1270,#1277),.PCURVE_S1.);
#1267 = B_SPLINE_CURVE_WITH_KNOTS('',1,(#1268,#1269),.UNSPECIFIED.,.F.,
  .F.,(2,2),(0.,5.),.PIECEWISE_BEZIER_KNOTS.);
#1268 = CARTESIAN_POINT('',(2.5,114.,52.5));
#1269 = CARTESIAN_POINT('',(-2.5,114.,52.5));
#1270 = PCURVE('',#414,#1271);
#1271 = DEFINITIONAL_REPRESENTATION('',(#1272),#1276);
#1272 = LINE('',#1273,#1274);
#1273 = CARTESIAN_POINT('',(0.,1.));
#1274 = VECTOR('',#1275,1.);
#1275 = DIRECTION('',(1.,0.));
#1276 = ( GEOMETRIC_REPRESENTATION_CONTEXT(2) 
PARAMETRIC_REPRESENTATION_CONTEXT() REPRESENTATION_CONTEXT('2D SPACE',''
  ) );
#1277 = PCURVE('',#493,#1278);
#1278 = DEFINITIONAL_REPRESENTATION('',(#1279),#1282);
#1279 = B_SPLINE_CURVE_WITH_KNOTS('',1,(#1280,#1281),.UNSPECIFIED.,.F.,
  .F.,(2,2),(0.,5.),.PIECEWISE_BEZIER_KNOTS.);
#1280 = CARTESIAN_POINT('',(-2.5,-7.5));
#1281 = CARTESIAN_POINT('',(2.5,-7.5));
#1282 = ( GEOMETRIC_REPRESENTATION_CONTEXT(2) 
PARAMETRIC_REPRESENTATION_CONTEXT() REPRESENTATION_CONTEXT('2D SPACE',''
  ) );
#1283 = ADVANCED_FACE('',(#1284),#549,.F.);
#1284 = FACE_BOUND('',#1285,.F.);
#1285 = EDGE_LOOP('',(#1286,#1287,#1288,#1289));
#1286 = ORIENTED_EDGE('',*,*,#978,.F.);
#1287 = ORIENTED_EDGE('',*,*,#1240,.T.);
#1288 = ORIENTED_EDGE('',*,*,#531,.T.);
#1289 = ORIENTED_EDGE('',*,*,#1290,.F.);
#1290 = EDGE_CURVE('',#979,#507,#1291,.T.);
#1291 = SURFACE_CURVE('',#1292,(#1295,#1301),.PCURVE_S1.);
#1292 = B_SPLINE_CURVE_WITH_KNOTS('',1,(#1293,#1294),.UNSPECIFIED.,.F.,
  .F.,(2,2),(0.,5.),.PIECEWISE_BEZIER_KNOTS.);
#1293 = CARTESIAN_POINT('',(-2.5,129.,51.5));
#1294 = CARTESIAN_POINT('',(2.5,129.,51.5));
#1295 = PCURVE('',#549,#1296);
#1296 = DEFINITIONAL_REPRESENTATION('',(#1297),#1300);
#1297 = B_SPLINE_CURVE_WITH_KNOTS('',1,(#1298,#1299),.UNSPECIFIED.,.F.,
  .F.,(2,2),(0.,5.),.PIECEWISE_BEZIER_KNOTS.);
#1298 = CARTESIAN_POINT('',(-2.5,7.5));
#1299 = CARTESIAN_POINT('',(2.5,7.5));
#1300 = ( GEOMETRIC_REPRESENTATION_CONTEXT(2) 
PARAMETRIC_REPRESENTATION_CONTEXT() REPRESENTATION_CONTEXT('2D SPACE',''
  ) );
#1301 = PCURVE('',#520,#1302);
#1302 = DEFINITIONAL_REPRESENTATION('',(#1303),#1306);
#1303 = B_SPLINE_CURVE_WITH_KNOTS('',1,(#1304,#1305),.UNSPECIFIED.,.F.,
  .F.,(2,2),(0.,5.),.PIECEWISE_BEZIER_KNOTS.);
#1304 = CARTESIAN_POINT('',(0.5,-2.5));
#1305 = CARTESIAN_POINT('',(0.5,2.5));
#1306 = ( GEOMETRIC_REPRESENTATION_CONTEXT(2) 
PARAMETRIC_REPRESENTATION_CONTEXT() REPRESENTATION_CONTEXT('2D SPACE',''
  ) );
#1307 = ADVANCED_FACE('',(#1308),#493,.F.);
#1308 = FACE_BOUND('',#1309,.F.);
#1309 = EDGE_LOOP('',(#1310,#1311,#1312,#1313));
#1310 = ORIENTED_EDGE('',*,*,#475,.F.);
#1311 = ORIENTED_EDGE('',*,*,#1265,.T.);
#1312 = ORIENTED_EDGE('',*,*,#1024,.T.);
#1313 = ORIENTED_EDGE('',*,*,#1314,.F.);
#1314 = EDGE_CURVE('',#476,#1005,#1315,.T.);
#1315 = SURFACE_CURVE('',#1316,(#1319,#1325),.PCURVE_S1.);
#1316 = B_SPLINE_CURVE_WITH_KNOTS('',1,(#1317,#1318),.UNSPECIFIED.,.F.,
  .F.,(2,2),(0.,5.),.PIECEWISE_BEZIER_KNOTS.);
#1317 = CARTESIAN_POINT('',(2.5,129.,52.5));
#1318 = CARTESIAN_POINT('',(-2.5,129.,52.5));
#1319 = PCURVE('',#493,#1320);
#1320 = DEFINITIONAL_REPRESENTATION('',(#1321),#1324);
#1321 = B_SPLINE_CURVE_WITH_KNOTS('',1,(#1322,#1323),.UNSPECIFIED.,.F.,
  .F.,(2,2),(0.,5.),.PIECEWISE_BEZIER_KNOTS.);
#1322 = CARTESIAN_POINT('',(-2.5,7.5));
#1323 = CARTESIAN_POINT('',(2.5,7.5));
#1324 = ( GEOMETRIC_REPRESENTATION_CONTEXT(2) 
PARAMETRIC_REPRESENTATION_CONTEXT() REPRESENTATION_CONTEXT('2D SPACE',''
  ) );
#1325 = PCURVE('',#520,#1326);
#1326 = DEFINITIONAL_REPRESENTATION('',(#1327),#1330);
#1327 = B_SPLINE_CURVE_WITH_KNOTS('',1,(#1328,#1329),.UNSPECIFIED.,.F.,
  .F.,(2,2),(0.,5.),.PIECEWISE_BEZIER_KNOTS.);
#1328 = CARTESIAN_POINT('',(-0.5,2.5));
#1329 = CARTESIAN_POINT('',(-0.5,-2.5));
#1330 = ( GEOMETRIC_REPRESENTATION_CONTEXT(2) 
PARAMETRIC_REPRESENTATION_CONTEXT() REPRESENTATION_CONTEXT('2D SPACE',''
  ) );
#1331 = ADVANCED_FACE('',(#1332),#73,.T.);
#1332 = FACE_BOUND('',#1333,.T.);
#1333 = EDGE_LOOP('',(#1334,#1335,#1336,#1337));
#1334 = ORIENTED_EDGE('',*,*,#59,.T.);
#1335 = ORIENTED_EDGE('',*,*,#186,.T.);
#1336 = ORIENTED_EDGE('',*,*,#755,.T.);
#1337 = ORIENTED_EDGE('',*,*,#823,.T.);
#1338 = ADVANCED_FACE('',(#1339),#520,.F.);
#1339 = FACE_BOUND('',#1340,.F.);
#1340 = EDGE_LOOP('',(#1341,#1342,#1343,#1344));
#1341 = ORIENTED_EDGE('',*,*,#1290,.T.);
#1342 = ORIENTED_EDGE('',*,*,#506,.T.);
#1343 = ORIENTED_EDGE('',*,*,#1314,.T.);
#1344 = ORIENTED_EDGE('',*,*,#1004,.T.);
#1345 = ( GEOMETRIC_REPRESENTATION_CONTEXT(3) 
GLOBAL_UNCERTAINTY_ASSIGNED_CONTEXT((#1349)) 
GLOBAL_UNIT_ASSIGNED_CONTEXT((#1346,#1347,#1348)) REPRESENTATION_CONTEXT
('Context #1','3D Context with UNIT and UNCERTAINTY') );
#1346 = ( LENGTH_UNIT() NAMED_UNIT(*) SI_UNIT(.MILLI.,.METRE.) );
#1347 = ( NAMED_UNIT(*) PLANE_ANGLE_UNIT() SI_UNIT($,.RADIAN.) );
#1348 = ( NAMED_UNIT(*) SI_UNIT($,.STERADIAN.) SOLID_ANGLE_UNIT() );
#1349 = UNCERTAINTY_MEASURE_WITH_UNIT(LENGTH_MEASURE(2.E-05),#1346,
  'distance_accuracy_value','confusion accuracy');
#1350 = PRODUCT_RELATED_PRODUCT_CATEGORY('part',$,(#7));
ENDSEC;
END-ISO-10303-21;
