ISO-10303-21;
HEADER;
FILE_DESCRIPTION(('Open CASCADE Model'),'2;1');
FILE_NAME('Open CASCADE Shape Model','2026-06-24T16:58:50',('Author'),(
    'Open CASCADE'),'Open CASCADE STEP processor 7.8','Open CASCADE 7.8'
  ,'Unknown');
FILE_SCHEMA(('AUTOMOTIVE_DESIGN { 1 0 10303 214 1 1 1 1 }'));
ENDSEC;
DATA;
#1 = APPLICATION_PROTOCOL_DEFINITION('international standard',
  'automotive_design',2000,#2);
#2 = APPLICATION_CONTEXT(
  'core data for automotive mechanical design processes');
#3 = SHAPE_DEFINITION_REPRESENTATION(#4,#10);
#4 = PRODUCT_DEFINITION_SHAPE('','',#5);
#5 = PRODUCT_DEFINITION('design','',#6,#9);
#6 = PRODUCT_DEFINITION_FORMATION('','',#7);
#7 = PRODUCT('Open CASCADE STEP translator 7.8 1',
  'Open CASCADE STEP translator 7.8 1','',(#8));
#8 = PRODUCT_CONTEXT('',#2,'mechanical');
#9 = PRODUCT_DEFINITION_CONTEXT('part definition',#2,'design');
#10 = ADVANCED_BREP_SHAPE_REPRESENTATION('',(#11,#15),#1381);
#11 = AXIS2_PLACEMENT_3D('',#12,#13,#14);
#12 = CARTESIAN_POINT('',(0.,0.,0.));
#13 = DIRECTION('',(0.,0.,1.));
#14 = DIRECTION('',(1.,0.,-0.));
#15 = MANIFOLD_SOLID_BREP('',#16);
#16 = CLOSED_SHELL('',(#17,#181,#774,#842,#1219,#1244,#1269,#1294,#1319,
    #1343,#1367,#1374));
#17 = ADVANCED_FACE('',(#18),#33,.F.);
#18 = FACE_BOUND('',#19,.F.);
#19 = EDGE_LOOP('',(#20,#58,#83,#114));
#20 = ORIENTED_EDGE('',*,*,#21,.F.);
#21 = EDGE_CURVE('',#22,#24,#26,.T.);
#22 = VERTEX_POINT('',#23);
#23 = CARTESIAN_POINT('',(-2.5,-30.,-58.25));
#24 = VERTEX_POINT('',#25);
#25 = CARTESIAN_POINT('',(-2.5,3.552713678801E-15,-58.25));
#26 = SURFACE_CURVE('',#27,(#32,#45),.PCURVE_S1.);
#27 = B_SPLINE_CURVE_WITH_KNOTS('',3,(#28,#29,#30,#31),.UNSPECIFIED.,.F.
  ,.F.,(4,4),(0.,1.),.PIECEWISE_BEZIER_KNOTS.);
#28 = CARTESIAN_POINT('',(-2.5,-30.,-58.25));
#29 = CARTESIAN_POINT('',(-2.5,-29.9,-58.25));
#30 = CARTESIAN_POINT('',(-2.5,-1.E-01,-58.25));
#31 = CARTESIAN_POINT('',(-2.5,8.881784197001E-15,-58.25));
#32 = PCURVE('',#33,#38);
#33 = PLANE('',#34);
#34 = AXIS2_PLACEMENT_3D('',#35,#36,#37);
#35 = CARTESIAN_POINT('',(0.,-15.,-58.25));
#36 = DIRECTION('',(4.932693372219E-16,2.595152322496E-16,1.));
#37 = DIRECTION('',(1.,5.020246460856E-19,-4.932693372219E-16));
#38 = DEFINITIONAL_REPRESENTATION('',(#39),#44);
#39 = B_SPLINE_CURVE_WITH_KNOTS('',3,(#40,#41,#42,#43),.UNSPECIFIED.,.F.
  ,.F.,(4,4),(0.,1.),.PIECEWISE_BEZIER_KNOTS.);
#40 = CARTESIAN_POINT('',(-2.5,-15.));
#41 = CARTESIAN_POINT('',(-2.5,-14.9));
#42 = CARTESIAN_POINT('',(-2.5,14.9));
#43 = CARTESIAN_POINT('',(-2.5,15.));
#44 = ( GEOMETRIC_REPRESENTATION_CONTEXT(2) 
PARAMETRIC_REPRESENTATION_CONTEXT() REPRESENTATION_CONTEXT('2D SPACE',''
  ) );
#45 = PCURVE('',#46,#51);
#46 = PLANE('',#47);
#47 = AXIS2_PLACEMENT_3D('',#48,#49,#50);
#48 = CARTESIAN_POINT('',(-2.5,-15.,-58.));
#49 = DIRECTION('',(1.,4.004753648206E-18,3.113227280483E-29));
#50 = DIRECTION('',(3.113267567597E-29,-1.005982338525E-16,-1.));
#51 = DEFINITIONAL_REPRESENTATION('',(#52),#57);
#52 = B_SPLINE_CURVE_WITH_KNOTS('',3,(#53,#54,#55,#56),.UNSPECIFIED.,.F.
  ,.F.,(4,4),(0.,1.),.PIECEWISE_BEZIER_KNOTS.);
#53 = CARTESIAN_POINT('',(0.25,-15.));
#54 = CARTESIAN_POINT('',(0.25,-14.9));
#55 = CARTESIAN_POINT('',(0.25,14.9));
#56 = CARTESIAN_POINT('',(0.25,15.));
#57 = ( GEOMETRIC_REPRESENTATION_CONTEXT(2) 
PARAMETRIC_REPRESENTATION_CONTEXT() REPRESENTATION_CONTEXT('2D SPACE',''
  ) );
#58 = ORIENTED_EDGE('',*,*,#59,.T.);
#59 = EDGE_CURVE('',#22,#60,#62,.T.);
#60 = VERTEX_POINT('',#61);
#61 = CARTESIAN_POINT('',(2.5,-30.,-58.25));
#62 = SURFACE_CURVE('',#63,(#66,#72),.PCURVE_S1.);
#63 = B_SPLINE_CURVE_WITH_KNOTS('',1,(#64,#65),.UNSPECIFIED.,.F.,.F.,(2,
    2),(0.,5.),.PIECEWISE_BEZIER_KNOTS.);
#64 = CARTESIAN_POINT('',(-2.5,-30.,-58.25));
#65 = CARTESIAN_POINT('',(2.5,-30.,-58.25));
#66 = PCURVE('',#33,#67);
#67 = DEFINITIONAL_REPRESENTATION('',(#68),#71);
#68 = B_SPLINE_CURVE_WITH_KNOTS('',1,(#69,#70),.UNSPECIFIED.,.F.,.F.,(2,
    2),(0.,5.),.PIECEWISE_BEZIER_KNOTS.);
#69 = CARTESIAN_POINT('',(-2.5,-15.));
#70 = CARTESIAN_POINT('',(2.5,-15.));
#71 = ( GEOMETRIC_REPRESENTATION_CONTEXT(2) 
PARAMETRIC_REPRESENTATION_CONTEXT() REPRESENTATION_CONTEXT('2D SPACE',''
  ) );
#72 = PCURVE('',#73,#78);
#73 = PLANE('',#74);
#74 = AXIS2_PLACEMENT_3D('',#75,#76,#77);
#75 = CARTESIAN_POINT('',(0.,-30.,-58.));
#76 = DIRECTION('',(-0.,-1.,-0.));
#77 = DIRECTION('',(0.,0.,-1.));
#78 = DEFINITIONAL_REPRESENTATION('',(#79),#82);
#79 = B_SPLINE_CURVE_WITH_KNOTS('',1,(#80,#81),.UNSPECIFIED.,.F.,.F.,(2,
    2),(0.,5.),.PIECEWISE_BEZIER_KNOTS.);
#80 = CARTESIAN_POINT('',(0.25,-2.5));
#81 = CARTESIAN_POINT('',(0.25,2.5));
#82 = ( GEOMETRIC_REPRESENTATION_CONTEXT(2) 
PARAMETRIC_REPRESENTATION_CONTEXT() REPRESENTATION_CONTEXT('2D SPACE',''
  ) );
#83 = ORIENTED_EDGE('',*,*,#84,.T.);
#84 = EDGE_CURVE('',#60,#85,#87,.T.);
#85 = VERTEX_POINT('',#86);
#86 = CARTESIAN_POINT('',(2.5,3.552713678801E-15,-58.25));
#87 = SURFACE_CURVE('',#88,(#93,#101),.PCURVE_S1.);
#88 = B_SPLINE_CURVE_WITH_KNOTS('',3,(#89,#90,#91,#92),.UNSPECIFIED.,.F.
  ,.F.,(4,4),(0.,1.),.PIECEWISE_BEZIER_KNOTS.);
#89 = CARTESIAN_POINT('',(2.5,-30.,-58.25));
#90 = CARTESIAN_POINT('',(2.5,-29.9,-58.25));
#91 = CARTESIAN_POINT('',(2.5,-1.E-01,-58.25));
#92 = CARTESIAN_POINT('',(2.5,8.881784197001E-15,-58.25));
#93 = PCURVE('',#33,#94);
#94 = DEFINITIONAL_REPRESENTATION('',(#95),#100);
#95 = B_SPLINE_CURVE_WITH_KNOTS('',3,(#96,#97,#98,#99),.UNSPECIFIED.,.F.
  ,.F.,(4,4),(0.,1.),.PIECEWISE_BEZIER_KNOTS.);
#96 = CARTESIAN_POINT('',(2.5,-15.));
#97 = CARTESIAN_POINT('',(2.5,-14.9));
#98 = CARTESIAN_POINT('',(2.5,14.9));
#99 = CARTESIAN_POINT('',(2.5,15.));
#100 = ( GEOMETRIC_REPRESENTATION_CONTEXT(2) 
PARAMETRIC_REPRESENTATION_CONTEXT() REPRESENTATION_CONTEXT('2D SPACE',''
  ) );
#101 = PCURVE('',#102,#107);
#102 = PLANE('',#103);
#103 = AXIS2_PLACEMENT_3D('',#104,#105,#106);
#104 = CARTESIAN_POINT('',(2.5,-15.,-58.));
#105 = DIRECTION('',(-1.,4.004753648206E-18,-3.667299966757E-29));
#106 = DIRECTION('',(-3.667259728863E-29,1.004753282522E-16,1.));
#107 = DEFINITIONAL_REPRESENTATION('',(#108),#113);
#108 = B_SPLINE_CURVE_WITH_KNOTS('',3,(#109,#110,#111,#112),
  .UNSPECIFIED.,.F.,.F.,(4,4),(0.,1.),.PIECEWISE_BEZIER_KNOTS.);
#109 = CARTESIAN_POINT('',(-0.25,-15.));
#110 = CARTESIAN_POINT('',(-0.25,-14.9));
#111 = CARTESIAN_POINT('',(-0.25,14.9));
#112 = CARTESIAN_POINT('',(-0.25,15.));
#113 = ( GEOMETRIC_REPRESENTATION_CONTEXT(2) 
PARAMETRIC_REPRESENTATION_CONTEXT() REPRESENTATION_CONTEXT('2D SPACE',''
  ) );
#114 = ORIENTED_EDGE('',*,*,#115,.F.);
#115 = EDGE_CURVE('',#24,#85,#116,.T.);
#116 = SURFACE_CURVE('',#117,(#120,#126),.PCURVE_S1.);
#117 = B_SPLINE_CURVE_WITH_KNOTS('',1,(#118,#119),.UNSPECIFIED.,.F.,.F.,
  (2,2),(0.,5.),.PIECEWISE_BEZIER_KNOTS.);
#118 = CARTESIAN_POINT('',(-2.5,8.881784197001E-15,-58.25));
#119 = CARTESIAN_POINT('',(2.5,8.881784197001E-15,-58.25));
#120 = PCURVE('',#33,#121);
#121 = DEFINITIONAL_REPRESENTATION('',(#122),#125);
#122 = B_SPLINE_CURVE_WITH_KNOTS('',1,(#123,#124),.UNSPECIFIED.,.F.,.F.,
  (2,2),(0.,5.),.PIECEWISE_BEZIER_KNOTS.);
#123 = CARTESIAN_POINT('',(-2.5,15.));
#124 = CARTESIAN_POINT('',(2.5,15.));
#125 = ( GEOMETRIC_REPRESENTATION_CONTEXT(2) 
PARAMETRIC_REPRESENTATION_CONTEXT() REPRESENTATION_CONTEXT('2D SPACE',''
  ) );
#126 = PCURVE('',#127,#176);
#127 = B_SPLINE_SURFACE_WITH_KNOTS('',1,9,(
    (#128,#129,#130,#131,#132,#133,#134,#135,#136,#137,#138,#139,#140
      ,#141,#142,#143,#144,#145,#146,#147,#148,#149,#150,#151)
    ,(#152,#153,#154,#155,#156,#157,#158,#159,#160,#161,#162,#163,#164
      ,#165,#166,#167,#168,#169,#170,#171,#172,#173,#174,#175
  )),.UNSPECIFIED.,.F.,.F.,.F.,(2,2),(10,7,7,10),(0.,5.),(0.,0.5,0.75,1.
    ),.UNSPECIFIED.);
#128 = CARTESIAN_POINT('',(-2.5,7.105427357601E-15,-58.25));
#129 = CARTESIAN_POINT('',(-2.5,5.566377209197,-58.25));
#130 = CARTESIAN_POINT('',(-2.5,12.387330618522,-57.65824488984));
#131 = CARTESIAN_POINT('',(-2.5,20.218500449618,-56.52239040723));
#132 = CARTESIAN_POINT('',(-2.5,28.804194254327,-54.88508099422));
#133 = CARTESIAN_POINT('',(-2.5,37.888508617189,-52.78949194347));
#134 = CARTESIAN_POINT('',(-2.5,47.217431727737,-50.28008541574));
#135 = CARTESIAN_POINT('',(-2.5,56.536700470396,-47.4011400007));
#136 = CARTESIAN_POINT('',(-2.5,70.116928284418,-42.59285023996));
#137 = CARTESIAN_POINT('',(-2.5,82.526949818158,-37.14738651863));
#138 = CARTESIAN_POINT('',(-2.5,86.501798810521,-35.26684225744));
#139 = CARTESIAN_POINT('',(-2.5,90.2829637546,-33.32623760262));
#140 = CARTESIAN_POINT('',(-2.5,93.838655949241,-31.33087470642));
#141 = CARTESIAN_POINT('',(-2.5,97.137202396359,-29.28599343087));
#142 = CARTESIAN_POINT('',(-2.5,100.14700845851,-27.19665006629));
#143 = CARTESIAN_POINT('',(-2.5,105.52586747316,-22.93836976792));
#144 = CARTESIAN_POINT('',(-2.5,109.4956996846,-18.53682541754));
#145 = CARTESIAN_POINT('',(-2.5,111.09719561616,-16.30447543231));
#146 = CARTESIAN_POINT('',(-2.5,112.27775755721,-14.0415124907));
#147 = CARTESIAN_POINT('',(-2.5,113.01852442012,-11.76023611497));
#148 = CARTESIAN_POINT('',(-2.5,113.26067715254,-9.436758041498));
#149 = CARTESIAN_POINT('',(-2.5,112.96901941898,-7.119790626877));
#150 = CARTESIAN_POINT('',(-2.5,112.12443383682,-4.813125686256));
#151 = CARTESIAN_POINT('',(-2.5,110.69945477388,-2.522937867867));
#152 = CARTESIAN_POINT('',(2.5,7.105427357601E-15,-58.25));
#153 = CARTESIAN_POINT('',(2.5,5.566377209197,-58.25));
#154 = CARTESIAN_POINT('',(2.5,12.387330618522,-57.65824488984));
#155 = CARTESIAN_POINT('',(2.5,20.218500449618,-56.52239040723));
#156 = CARTESIAN_POINT('',(2.5,28.804194254327,-54.88508099422));
#157 = CARTESIAN_POINT('',(2.5,37.888508617189,-52.78949194347));
#158 = CARTESIAN_POINT('',(2.5,47.217431727737,-50.28008541574));
#159 = CARTESIAN_POINT('',(2.5,56.536700470396,-47.4011400007));
#160 = CARTESIAN_POINT('',(2.5,70.116928284418,-42.59285023996));
#161 = CARTESIAN_POINT('',(2.5,82.526949818158,-37.14738651863));
#162 = CARTESIAN_POINT('',(2.5,86.501798810521,-35.26684225744));
#163 = CARTESIAN_POINT('',(2.5,90.2829637546,-33.32623760262));
#164 = CARTESIAN_POINT('',(2.5,93.838655949241,-31.33087470642));
#165 = CARTESIAN_POINT('',(2.5,97.137202396359,-29.28599343087));
#166 = CARTESIAN_POINT('',(2.5,100.14700845851,-27.19665006629));
#167 = CARTESIAN_POINT('',(2.5,105.52586747316,-22.93836976792));
#168 = CARTESIAN_POINT('',(2.5,109.4956996846,-18.53682541754));
#169 = CARTESIAN_POINT('',(2.5,111.09719561616,-16.30447543231));
#170 = CARTESIAN_POINT('',(2.5,112.27775755721,-14.0415124907));
#171 = CARTESIAN_POINT('',(2.5,113.01852442012,-11.76023611497));
#172 = CARTESIAN_POINT('',(2.5,113.26067715254,-9.436758041498));
#173 = CARTESIAN_POINT('',(2.5,112.96901941898,-7.119790626877));
#174 = CARTESIAN_POINT('',(2.5,112.12443383682,-4.813125686256));
#175 = CARTESIAN_POINT('',(2.5,110.69945477388,-2.522937867867));
#176 = DEFINITIONAL_REPRESENTATION('',(#177),#180);
#177 = B_SPLINE_CURVE_WITH_KNOTS('',1,(#178,#179),.UNSPECIFIED.,.F.,.F.,
  (2,2),(0.,5.),.PIECEWISE_BEZIER_KNOTS.);
#178 = CARTESIAN_POINT('',(0.,0.));
#179 = CARTESIAN_POINT('',(5.,0.));
#180 = ( GEOMETRIC_REPRESENTATION_CONTEXT(2) 
PARAMETRIC_REPRESENTATION_CONTEXT() REPRESENTATION_CONTEXT('2D SPACE',''
  ) );
#181 = ADVANCED_FACE('',(#182),#102,.F.);
#182 = FACE_BOUND('',#183,.F.);
#183 = EDGE_LOOP('',(#184,#185,#205,#236,#349,#486,#517,#542,#573,#711)
  );
#184 = ORIENTED_EDGE('',*,*,#84,.F.);
#185 = ORIENTED_EDGE('',*,*,#186,.T.);
#186 = EDGE_CURVE('',#60,#187,#189,.T.);
#187 = VERTEX_POINT('',#188);
#188 = CARTESIAN_POINT('',(2.5,-30.,-57.75));
#189 = SURFACE_CURVE('',#190,(#193,#199),.PCURVE_S1.);
#190 = B_SPLINE_CURVE_WITH_KNOTS('',1,(#191,#192),.UNSPECIFIED.,.F.,.F.,
  (2,2),(0.,0.5),.PIECEWISE_BEZIER_KNOTS.);
#191 = CARTESIAN_POINT('',(2.5,-30.,-58.25));
#192 = CARTESIAN_POINT('',(2.5,-30.,-57.75));
#193 = PCURVE('',#102,#194);
#194 = DEFINITIONAL_REPRESENTATION('',(#195),#198);
#195 = B_SPLINE_CURVE_WITH_KNOTS('',1,(#196,#197),.UNSPECIFIED.,.F.,.F.,
  (2,2),(0.,0.5),.PIECEWISE_BEZIER_KNOTS.);
#196 = CARTESIAN_POINT('',(-0.25,-15.));
#197 = CARTESIAN_POINT('',(0.25,-15.));
#198 = ( GEOMETRIC_REPRESENTATION_CONTEXT(2) 
PARAMETRIC_REPRESENTATION_CONTEXT() REPRESENTATION_CONTEXT('2D SPACE',''
  ) );
#199 = PCURVE('',#73,#200);
#200 = DEFINITIONAL_REPRESENTATION('',(#201),#204);
#201 = B_SPLINE_CURVE_WITH_KNOTS('',1,(#202,#203),.UNSPECIFIED.,.F.,.F.,
  (2,2),(0.,0.5),.PIECEWISE_BEZIER_KNOTS.);
#202 = CARTESIAN_POINT('',(0.25,2.5));
#203 = CARTESIAN_POINT('',(-0.25,2.5));
#204 = ( GEOMETRIC_REPRESENTATION_CONTEXT(2) 
PARAMETRIC_REPRESENTATION_CONTEXT() REPRESENTATION_CONTEXT('2D SPACE',''
  ) );
#205 = ORIENTED_EDGE('',*,*,#206,.T.);
#206 = EDGE_CURVE('',#187,#207,#209,.T.);
#207 = VERTEX_POINT('',#208);
#208 = CARTESIAN_POINT('',(2.5,3.552713678801E-15,-57.75));
#209 = SURFACE_CURVE('',#210,(#215,#223),.PCURVE_S1.);
#210 = B_SPLINE_CURVE_WITH_KNOTS('',3,(#211,#212,#213,#214),
  .UNSPECIFIED.,.F.,.F.,(4,4),(0.,1.),.PIECEWISE_BEZIER_KNOTS.);
#211 = CARTESIAN_POINT('',(2.5,-30.,-57.75));
#212 = CARTESIAN_POINT('',(2.5,-29.9,-57.75));
#213 = CARTESIAN_POINT('',(2.5,-1.E-01,-57.75));
#214 = CARTESIAN_POINT('',(2.5,8.881784197001E-15,-57.75));
#215 = PCURVE('',#102,#216);
#216 = DEFINITIONAL_REPRESENTATION('',(#217),#222);
#217 = B_SPLINE_CURVE_WITH_KNOTS('',3,(#218,#219,#220,#221),
  .UNSPECIFIED.,.F.,.F.,(4,4),(0.,1.),.PIECEWISE_BEZIER_KNOTS.);
#218 = CARTESIAN_POINT('',(0.25,-15.));
#219 = CARTESIAN_POINT('',(0.25,-14.9));
#220 = CARTESIAN_POINT('',(0.25,14.9));
#221 = CARTESIAN_POINT('',(0.25,15.));
#222 = ( GEOMETRIC_REPRESENTATION_CONTEXT(2) 
PARAMETRIC_REPRESENTATION_CONTEXT() REPRESENTATION_CONTEXT('2D SPACE',''
  ) );
#223 = PCURVE('',#224,#229);
#224 = PLANE('',#225);
#225 = AXIS2_PLACEMENT_3D('',#226,#227,#228);
#226 = CARTESIAN_POINT('',(0.,-15.,-57.75));
#227 = DIRECTION('',(1.099326274751E-32,-2.392795699406E-17,-1.));
#228 = DIRECTION('',(-1.,5.020246460857E-19,-1.100527517165E-32));
#229 = DEFINITIONAL_REPRESENTATION('',(#230),#235);
#230 = B_SPLINE_CURVE_WITH_KNOTS('',3,(#231,#232,#233,#234),
  .UNSPECIFIED.,.F.,.F.,(4,4),(0.,1.),.PIECEWISE_BEZIER_KNOTS.);
#231 = CARTESIAN_POINT('',(-2.5,-15.));
#232 = CARTESIAN_POINT('',(-2.5,-14.9));
#233 = CARTESIAN_POINT('',(-2.5,14.9));
#234 = CARTESIAN_POINT('',(-2.5,15.));
#235 = ( GEOMETRIC_REPRESENTATION_CONTEXT(2) 
PARAMETRIC_REPRESENTATION_CONTEXT() REPRESENTATION_CONTEXT('2D SPACE',''
  ) );
#236 = ORIENTED_EDGE('',*,*,#237,.T.);
#237 = EDGE_CURVE('',#207,#238,#240,.T.);
#238 = VERTEX_POINT('',#239);
#239 = CARTESIAN_POINT('',(2.5,110.2749242527,-2.787085244514));
#240 = SURFACE_CURVE('',#241,(#266,#294),.PCURVE_S1.);
#241 = B_SPLINE_CURVE_WITH_KNOTS('',9,(#242,#243,#244,#245,#246,#247,
    #248,#249,#250,#251,#252,#253,#254,#255,#256,#257,#258,#259,#260,
    #261,#262,#263,#264,#265),.UNSPECIFIED.,.F.,.F.,(10,7,7,10),(0.,0.5,
    0.75,1.),.UNSPECIFIED.);
#242 = CARTESIAN_POINT('',(2.5,0.,-57.75));
#243 = CARTESIAN_POINT('',(2.5,5.519128835381,-57.75));
#244 = CARTESIAN_POINT('',(2.5,12.317513798754,-57.1632678097));
#245 = CARTESIAN_POINT('',(2.5,20.128448321705,-56.02996345684));
#246 = CARTESIAN_POINT('',(2.5,28.696558505642,-54.39525826484));
#247 = CARTESIAN_POINT('',(2.5,37.766681419246,-52.30379270643));
#248 = CARTESIAN_POINT('',(2.5,47.081762526236,-49.79892038633));
#249 = CARTESIAN_POINT('',(2.5,56.384998595414,-46.92417848029));
#250 = CARTESIAN_POINT('',(2.5,69.939679370458,-42.12454819774));
#251 = CARTESIAN_POINT('',(2.5,82.31639420253,-36.69359375547));
#252 = CARTESIAN_POINT('',(2.5,86.278999347289,-34.81869803055));
#253 = CARTESIAN_POINT('',(2.5,90.046613928828,-32.88487240504));
#254 = CARTESIAN_POINT('',(2.5,93.587143354976,-30.89779169735));
#255 = CARTESIAN_POINT('',(2.5,96.868377330443,-28.86319301616));
#256 = CARTESIAN_POINT('',(2.5,99.85802719935,-26.78699704181));
#257 = CARTESIAN_POINT('',(2.5,105.18966447706,-22.56403383929));
#258 = CARTESIAN_POINT('',(2.5,109.0979642451,-18.22791292547));
#259 = CARTESIAN_POINT('',(2.5,110.66355993171,-16.03830180846));
#260 = CARTESIAN_POINT('',(2.5,111.8142319439,-13.83715214837));
#261 = CARTESIAN_POINT('',(2.5,112.504958076,-11.62314139361));
#262 = CARTESIAN_POINT('',(2.5,112.73067408695,-9.431134778497));
#263 = CARTESIAN_POINT('',(2.5,112.46269301897,-7.223396917097));
#264 = CARTESIAN_POINT('',(2.5,111.65624896126,-5.007112964953));
#265 = CARTESIAN_POINT('',(2.5,110.2749242527,-2.787085244514));
#266 = PCURVE('',#102,#267);
#267 = DEFINITIONAL_REPRESENTATION('',(#268),#293);
#268 = B_SPLINE_CURVE_WITH_KNOTS('',9,(#269,#270,#271,#272,#273,#274,
    #275,#276,#277,#278,#279,#280,#281,#282,#283,#284,#285,#286,#287,
    #288,#289,#290,#291,#292),.UNSPECIFIED.,.F.,.F.,(10,7,7,10),(0.,0.5,
    0.75,1.),.UNSPECIFIED.);
#269 = CARTESIAN_POINT('',(0.25,15.));
#270 = CARTESIAN_POINT('',(0.25,20.519128835381));
#271 = CARTESIAN_POINT('',(0.836732190293,27.317513798754));
#272 = CARTESIAN_POINT('',(1.970036543152,35.128448321705));
#273 = CARTESIAN_POINT('',(3.604741735157,43.696558505642));
#274 = CARTESIAN_POINT('',(5.696207293565,52.766681419246));
#275 = CARTESIAN_POINT('',(8.201079613661,62.081762526236));
#276 = CARTESIAN_POINT('',(11.075821519702,71.384998595414));
#277 = CARTESIAN_POINT('',(15.87545180226,84.939679370458));
#278 = CARTESIAN_POINT('',(21.306406244521,97.31639420253));
#279 = CARTESIAN_POINT('',(23.181301969441,101.27899934728));
#280 = CARTESIAN_POINT('',(25.115127594957,105.04661392882));
#281 = CARTESIAN_POINT('',(27.102208302642,108.58714335497));
#282 = CARTESIAN_POINT('',(29.136806983838,111.86837733044));
#283 = CARTESIAN_POINT('',(31.213002958189,114.85802719935));
#284 = CARTESIAN_POINT('',(35.43596616071,120.18966447706));
#285 = CARTESIAN_POINT('',(39.772087074521,124.0979642451));
#286 = CARTESIAN_POINT('',(41.961698191531,125.66355993171));
#287 = CARTESIAN_POINT('',(44.162847851622,126.8142319439));
#288 = CARTESIAN_POINT('',(46.376858606388,127.504958076));
#289 = CARTESIAN_POINT('',(48.568865221503,127.73067408695));
#290 = CARTESIAN_POINT('',(50.776603082903,127.46269301897));
#291 = CARTESIAN_POINT('',(52.992887035047,126.65624896126));
#292 = CARTESIAN_POINT('',(55.212914755486,125.2749242527));
#293 = ( GEOMETRIC_REPRESENTATION_CONTEXT(2) 
PARAMETRIC_REPRESENTATION_CONTEXT() REPRESENTATION_CONTEXT('2D SPACE',''
  ) );
#294 = PCURVE('',#295,#344);
#295 = B_SPLINE_SURFACE_WITH_KNOTS('',1,9,(
    (#296,#297,#298,#299,#300,#301,#302,#303,#304,#305,#306,#307,#308
      ,#309,#310,#311,#312,#313,#314,#315,#316,#317,#318,#319)
    ,(#320,#321,#322,#323,#324,#325,#326,#327,#328,#329,#330,#331,#332
      ,#333,#334,#335,#336,#337,#338,#339,#340,#341,#342,#343
  )),.UNSPECIFIED.,.F.,.F.,.F.,(2,2),(10,7,7,10),(0.,5.),(0.,0.5,0.75,1.
    ),.UNSPECIFIED.);
#296 = CARTESIAN_POINT('',(2.5,0.,-57.75));
#297 = CARTESIAN_POINT('',(2.5,5.519128835381,-57.75));
#298 = CARTESIAN_POINT('',(2.5,12.317513798754,-57.1632678097));
#299 = CARTESIAN_POINT('',(2.5,20.128448321705,-56.02996345684));
#300 = CARTESIAN_POINT('',(2.5,28.696558505642,-54.39525826484));
#301 = CARTESIAN_POINT('',(2.5,37.766681419246,-52.30379270643));
#302 = CARTESIAN_POINT('',(2.5,47.081762526236,-49.79892038633));
#303 = CARTESIAN_POINT('',(2.5,56.384998595414,-46.92417848029));
#304 = CARTESIAN_POINT('',(2.5,69.939679370458,-42.12454819774));
#305 = CARTESIAN_POINT('',(2.5,82.31639420253,-36.69359375547));
#306 = CARTESIAN_POINT('',(2.5,86.278999347289,-34.81869803055));
#307 = CARTESIAN_POINT('',(2.5,90.046613928828,-32.88487240504));
#308 = CARTESIAN_POINT('',(2.5,93.587143354976,-30.89779169735));
#309 = CARTESIAN_POINT('',(2.5,96.868377330443,-28.86319301616));
#310 = CARTESIAN_POINT('',(2.5,99.85802719935,-26.78699704181));
#311 = CARTESIAN_POINT('',(2.5,105.18966447706,-22.56403383929));
#312 = CARTESIAN_POINT('',(2.5,109.0979642451,-18.22791292547));
#313 = CARTESIAN_POINT('',(2.5,110.66355993171,-16.03830180846));
#314 = CARTESIAN_POINT('',(2.5,111.8142319439,-13.83715214837));
#315 = CARTESIAN_POINT('',(2.5,112.504958076,-11.62314139361));
#316 = CARTESIAN_POINT('',(2.5,112.73067408695,-9.431134778497));
#317 = CARTESIAN_POINT('',(2.5,112.46269301897,-7.223396917097));
#318 = CARTESIAN_POINT('',(2.5,111.65624896126,-5.007112964953));
#319 = CARTESIAN_POINT('',(2.5,110.2749242527,-2.787085244514));
#320 = CARTESIAN_POINT('',(-2.5,0.,-57.75));
#321 = CARTESIAN_POINT('',(-2.5,5.519128835381,-57.75));
#322 = CARTESIAN_POINT('',(-2.5,12.317513798754,-57.1632678097));
#323 = CARTESIAN_POINT('',(-2.5,20.128448321705,-56.02996345684));
#324 = CARTESIAN_POINT('',(-2.5,28.696558505642,-54.39525826484));
#325 = CARTESIAN_POINT('',(-2.5,37.766681419246,-52.30379270643));
#326 = CARTESIAN_POINT('',(-2.5,47.081762526236,-49.79892038633));
#327 = CARTESIAN_POINT('',(-2.5,56.384998595414,-46.92417848029));
#328 = CARTESIAN_POINT('',(-2.5,69.939679370458,-42.12454819774));
#329 = CARTESIAN_POINT('',(-2.5,82.31639420253,-36.69359375547));
#330 = CARTESIAN_POINT('',(-2.5,86.278999347289,-34.81869803055));
#331 = CARTESIAN_POINT('',(-2.5,90.046613928828,-32.88487240504));
#332 = CARTESIAN_POINT('',(-2.5,93.587143354976,-30.89779169735));
#333 = CARTESIAN_POINT('',(-2.5,96.868377330443,-28.86319301616));
#334 = CARTESIAN_POINT('',(-2.5,99.85802719935,-26.78699704181));
#335 = CARTESIAN_POINT('',(-2.5,105.18966447706,-22.56403383929));
#336 = CARTESIAN_POINT('',(-2.5,109.0979642451,-18.22791292547));
#337 = CARTESIAN_POINT('',(-2.5,110.66355993171,-16.03830180846));
#338 = CARTESIAN_POINT('',(-2.5,111.8142319439,-13.83715214837));
#339 = CARTESIAN_POINT('',(-2.5,112.504958076,-11.62314139361));
#340 = CARTESIAN_POINT('',(-2.5,112.73067408695,-9.431134778497));
#341 = CARTESIAN_POINT('',(-2.5,112.46269301897,-7.223396917097));
#342 = CARTESIAN_POINT('',(-2.5,111.65624896126,-5.007112964953));
#343 = CARTESIAN_POINT('',(-2.5,110.2749242527,-2.787085244514));
#344 = DEFINITIONAL_REPRESENTATION('',(#345),#348);
#345 = B_SPLINE_CURVE_WITH_KNOTS('',1,(#346,#347),.UNSPECIFIED.,.F.,.F.,
  (2,2),(0.,1.),.PIECEWISE_BEZIER_KNOTS.);
#346 = CARTESIAN_POINT('',(0.,0.));
#347 = CARTESIAN_POINT('',(0.,1.));
#348 = ( GEOMETRIC_REPRESENTATION_CONTEXT(2) 
PARAMETRIC_REPRESENTATION_CONTEXT() REPRESENTATION_CONTEXT('2D SPACE',''
  ) );
#349 = ORIENTED_EDGE('',*,*,#350,.T.);
#350 = EDGE_CURVE('',#238,#351,#353,.T.);
#351 = VERTEX_POINT('',#352);
#352 = CARTESIAN_POINT('',(2.5,114.,52.25));
#353 = SURFACE_CURVE('',#354,(#385,#419),.PCURVE_S1.);
#354 = B_SPLINE_CURVE_WITH_KNOTS('',11,(#355,#356,#357,#358,#359,#360,
    #361,#362,#363,#364,#365,#366,#367,#368,#369,#370,#371,#372,#373,
    #374,#375,#376,#377,#378,#379,#380,#381,#382,#383,#384),
  .UNSPECIFIED.,.F.,.F.,(12,9,9,12),(0.,0.174164445098,0.587082222549,1.
    ),.UNSPECIFIED.);
#355 = CARTESIAN_POINT('',(2.5,110.2749242527,-2.787085244514));
#356 = CARTESIAN_POINT('',(2.5,109.5920850186,-1.68964449151));
#357 = CARTESIAN_POINT('',(2.5,108.87734347362,-0.577987269912));
#358 = CARTESIAN_POINT('',(2.5,108.13404548672,0.546552779859));
#359 = CARTESIAN_POINT('',(2.5,107.36553665992,1.68265371325));
#360 = CARTESIAN_POINT('',(2.5,106.57516209332,2.829003943042));
#361 = CARTESIAN_POINT('',(2.5,105.76626615246,3.984300900799));
#362 = CARTESIAN_POINT('',(2.5,104.94219223247,5.14724969834));
#363 = CARTESIAN_POINT('',(2.5,104.10628252579,6.316561789179));
#364 = CARTESIAN_POINT('',(2.5,103.26187778666,7.490953630001));
#365 = CARTESIAN_POINT('',(2.5,100.39813612547,11.462461181619));
#366 = CARTESIAN_POINT('',(2.5,97.51372842471,15.462628906525));
#367 = CARTESIAN_POINT('',(2.499999999999,95.519331247429,
    18.273424571442));
#368 = CARTESIAN_POINT('',(2.500000000001,93.603487875867,
    21.064133540204));
#369 = CARTESIAN_POINT('',(2.499999999998,91.810703375975,
    23.818487724468));
#370 = CARTESIAN_POINT('',(2.500000000002,90.185539062943,
    26.520263027243));
#371 = CARTESIAN_POINT('',(2.499999999999,88.772269798306,
    29.152615594598));
#372 = CARTESIAN_POINT('',(2.5,87.614903587963,31.699062698321));
#373 = CARTESIAN_POINT('',(2.5,86.757882303871,34.145308692744));
#374 = CARTESIAN_POINT('',(2.5,85.737338154547,38.812901665555));
#375 = CARTESIAN_POINT('',(2.5,86.30658132434,42.962180782763));
#376 = CARTESIAN_POINT('',(2.5,87.039696932823,44.887293730245));
#377 = CARTESIAN_POINT('',(2.500000000001,88.265600924614,
    46.660100946779));
#378 = CARTESIAN_POINT('',(2.499999999998,90.08660374535,48.176493041254
    ));
#379 = CARTESIAN_POINT('',(2.500000000002,92.360060036145,
    49.471129919617));
#380 = CARTESIAN_POINT('',(2.499999999998,95.316543335036,
    50.560148713839));
#381 = CARTESIAN_POINT('',(2.500000000001,98.888163632844,51.38513734291
    ));
#382 = CARTESIAN_POINT('',(2.5,103.16806566155,51.956569181988));
#383 = CARTESIAN_POINT('',(2.5,108.1897784602,52.250000000002));
#384 = CARTESIAN_POINT('',(2.5,114.,52.25));
#385 = PCURVE('',#102,#386);
#386 = DEFINITIONAL_REPRESENTATION('',(#387),#418);
#387 = B_SPLINE_CURVE_WITH_KNOTS('',11,(#388,#389,#390,#391,#392,#393,
    #394,#395,#396,#397,#398,#399,#400,#401,#402,#403,#404,#405,#406,
    #407,#408,#409,#410,#411,#412,#413,#414,#415,#416,#417),
  .UNSPECIFIED.,.F.,.F.,(12,9,9,12),(0.,0.174164445098,0.587082222549,1.
    ),.UNSPECIFIED.);
#388 = CARTESIAN_POINT('',(55.212914755486,125.2749242527));
#389 = CARTESIAN_POINT('',(56.31035550849,124.5920850186));
#390 = CARTESIAN_POINT('',(57.422012730088,123.87734347362));
#391 = CARTESIAN_POINT('',(58.546552779859,123.13404548672));
#392 = CARTESIAN_POINT('',(59.68265371325,122.36553665992));
#393 = CARTESIAN_POINT('',(60.829003943042,121.57516209332));
#394 = CARTESIAN_POINT('',(61.984300900799,120.76626615246));
#395 = CARTESIAN_POINT('',(63.14724969834,119.94219223247));
#396 = CARTESIAN_POINT('',(64.316561789179,119.10628252579));
#397 = CARTESIAN_POINT('',(65.490953630001,118.26187778666));
#398 = CARTESIAN_POINT('',(69.46246118162,115.39813612547));
#399 = CARTESIAN_POINT('',(73.462628906525,112.51372842471));
#400 = CARTESIAN_POINT('',(76.273424571443,110.51933124742));
#401 = CARTESIAN_POINT('',(79.064133540204,108.60348787586));
#402 = CARTESIAN_POINT('',(81.818487724468,106.81070337597));
#403 = CARTESIAN_POINT('',(84.520263027243,105.18553906294));
#404 = CARTESIAN_POINT('',(87.152615594598,103.7722697983));
#405 = CARTESIAN_POINT('',(89.699062698321,102.61490358796));
#406 = CARTESIAN_POINT('',(92.145308692744,101.75788230387));
#407 = CARTESIAN_POINT('',(96.812901665555,100.73733815454));
#408 = CARTESIAN_POINT('',(100.96218078276,101.30658132434));
#409 = CARTESIAN_POINT('',(102.88729373024,102.03969693282));
#410 = CARTESIAN_POINT('',(104.66010094677,103.26560092461));
#411 = CARTESIAN_POINT('',(106.17649304125,105.08660374535));
#412 = CARTESIAN_POINT('',(107.47112991961,107.36006003614));
#413 = CARTESIAN_POINT('',(108.56014871383,110.31654333503));
#414 = CARTESIAN_POINT('',(109.38513734291,113.88816363284));
#415 = CARTESIAN_POINT('',(109.95656918198,118.16806566155));
#416 = CARTESIAN_POINT('',(110.25,123.1897784602));
#417 = CARTESIAN_POINT('',(110.25,129.));
#418 = ( GEOMETRIC_REPRESENTATION_CONTEXT(2) 
PARAMETRIC_REPRESENTATION_CONTEXT() REPRESENTATION_CONTEXT('2D SPACE',''
  ) );
#419 = PCURVE('',#420,#481);
#420 = B_SPLINE_SURFACE_WITH_KNOTS('',1,11,(
    (#421,#422,#423,#424,#425,#426,#427,#428,#429,#430,#431,#432,#433
      ,#434,#435,#436,#437,#438,#439,#440,#441,#442,#443,#444,#445,#446
      ,#447,#448,#449,#450)
    ,(#451,#452,#453,#454,#455,#456,#457,#458,#459,#460,#461,#462,#463
      ,#464,#465,#466,#467,#468,#469,#470,#471,#472,#473,#474,#475,#476
      ,#477,#478,#479,#480
  )),.UNSPECIFIED.,.F.,.F.,.F.,(2,2),(12,9,9,12),(0.,5.),(0.,
    0.174164445098,0.587082222549,1.),.UNSPECIFIED.);
#421 = CARTESIAN_POINT('',(2.5,110.2749242527,-2.787085244514));
#422 = CARTESIAN_POINT('',(2.5,109.5920850186,-1.68964449151));
#423 = CARTESIAN_POINT('',(2.5,108.87734347362,-0.577987269912));
#424 = CARTESIAN_POINT('',(2.5,108.13404548672,0.546552779859));
#425 = CARTESIAN_POINT('',(2.5,107.36553665992,1.68265371325));
#426 = CARTESIAN_POINT('',(2.5,106.57516209332,2.829003943042));
#427 = CARTESIAN_POINT('',(2.5,105.76626615246,3.984300900799));
#428 = CARTESIAN_POINT('',(2.5,104.94219223247,5.14724969834));
#429 = CARTESIAN_POINT('',(2.5,104.10628252579,6.316561789179));
#430 = CARTESIAN_POINT('',(2.5,103.26187778666,7.490953630001));
#431 = CARTESIAN_POINT('',(2.5,100.39813612547,11.462461181619));
#432 = CARTESIAN_POINT('',(2.5,97.51372842471,15.462628906525));
#433 = CARTESIAN_POINT('',(2.499999999999,95.519331247429,
    18.273424571442));
#434 = CARTESIAN_POINT('',(2.500000000001,93.603487875867,
    21.064133540204));
#435 = CARTESIAN_POINT('',(2.499999999998,91.810703375975,
    23.818487724468));
#436 = CARTESIAN_POINT('',(2.500000000002,90.185539062943,
    26.520263027243));
#437 = CARTESIAN_POINT('',(2.499999999999,88.772269798306,
    29.152615594598));
#438 = CARTESIAN_POINT('',(2.5,87.614903587963,31.699062698321));
#439 = CARTESIAN_POINT('',(2.5,86.757882303871,34.145308692744));
#440 = CARTESIAN_POINT('',(2.5,85.737338154547,38.812901665555));
#441 = CARTESIAN_POINT('',(2.5,86.30658132434,42.962180782763));
#442 = CARTESIAN_POINT('',(2.5,87.039696932823,44.887293730245));
#443 = CARTESIAN_POINT('',(2.500000000001,88.265600924614,
    46.660100946779));
#444 = CARTESIAN_POINT('',(2.499999999998,90.08660374535,48.176493041254
    ));
#445 = CARTESIAN_POINT('',(2.500000000002,92.360060036145,
    49.471129919617));
#446 = CARTESIAN_POINT('',(2.499999999998,95.316543335036,
    50.560148713839));
#447 = CARTESIAN_POINT('',(2.500000000001,98.888163632844,51.38513734291
    ));
#448 = CARTESIAN_POINT('',(2.5,103.16806566155,51.956569181988));
#449 = CARTESIAN_POINT('',(2.5,108.1897784602,52.250000000002));
#450 = CARTESIAN_POINT('',(2.5,114.,52.25));
#451 = CARTESIAN_POINT('',(-2.5,110.2749242527,-2.787085244514));
#452 = CARTESIAN_POINT('',(-2.5,109.5920850186,-1.68964449151));
#453 = CARTESIAN_POINT('',(-2.5,108.87734347362,-0.577987269912));
#454 = CARTESIAN_POINT('',(-2.5,108.13404548672,0.546552779859));
#455 = CARTESIAN_POINT('',(-2.5,107.36553665992,1.68265371325));
#456 = CARTESIAN_POINT('',(-2.5,106.57516209332,2.829003943042));
#457 = CARTESIAN_POINT('',(-2.5,105.76626615246,3.9843009008));
#458 = CARTESIAN_POINT('',(-2.5,104.94219223247,5.14724969834));
#459 = CARTESIAN_POINT('',(-2.5,104.10628252579,6.31656178918));
#460 = CARTESIAN_POINT('',(-2.5,103.26187778666,7.490953630001));
#461 = CARTESIAN_POINT('',(-2.5,100.39813612547,11.46246118162));
#462 = CARTESIAN_POINT('',(-2.5,97.51372842471,15.462628906525));
#463 = CARTESIAN_POINT('',(-2.499999999999,95.519331247429,
    18.273424571444));
#464 = CARTESIAN_POINT('',(-2.500000000001,93.603487875867,
    21.064133540202));
#465 = CARTESIAN_POINT('',(-2.499999999998,91.810703375975,
    23.818487724471));
#466 = CARTESIAN_POINT('',(-2.500000000002,90.185539062943,
    26.520263027241));
#467 = CARTESIAN_POINT('',(-2.499999999999,88.772269798306,
    29.152615594599));
#468 = CARTESIAN_POINT('',(-2.5,87.614903587963,31.69906269832));
#469 = CARTESIAN_POINT('',(-2.5,86.757882303871,34.145308692744));
#470 = CARTESIAN_POINT('',(-2.5,85.737338154547,38.812901665556));
#471 = CARTESIAN_POINT('',(-2.5,86.30658132434,42.962180782761));
#472 = CARTESIAN_POINT('',(-2.5,87.039696932823,44.887293730252));
#473 = CARTESIAN_POINT('',(-2.500000000001,88.265600924614,
    46.660100946765));
#474 = CARTESIAN_POINT('',(-2.499999999998,90.08660374535,
    48.176493041273));
#475 = CARTESIAN_POINT('',(-2.500000000002,92.360060036145,
    49.471129919598));
#476 = CARTESIAN_POINT('',(-2.499999999998,95.316543335036,
    50.560148713853));
#477 = CARTESIAN_POINT('',(-2.500000000001,98.888163632844,
    51.385137342904));
#478 = CARTESIAN_POINT('',(-2.5,103.16806566155,51.956569181991));
#479 = CARTESIAN_POINT('',(-2.5,108.1897784602,52.250000000001));
#480 = CARTESIAN_POINT('',(-2.5,114.,52.25));
#481 = DEFINITIONAL_REPRESENTATION('',(#482),#485);
#482 = B_SPLINE_CURVE_WITH_KNOTS('',1,(#483,#484),.UNSPECIFIED.,.F.,.F.,
  (2,2),(0.,1.),.PIECEWISE_BEZIER_KNOTS.);
#483 = CARTESIAN_POINT('',(0.,0.));
#484 = CARTESIAN_POINT('',(0.,1.));
#485 = ( GEOMETRIC_REPRESENTATION_CONTEXT(2) 
PARAMETRIC_REPRESENTATION_CONTEXT() REPRESENTATION_CONTEXT('2D SPACE',''
  ) );
#486 = ORIENTED_EDGE('',*,*,#487,.T.);
#487 = EDGE_CURVE('',#351,#488,#490,.T.);
#488 = VERTEX_POINT('',#489);
#489 = CARTESIAN_POINT('',(2.5,129.,52.25));
#490 = SURFACE_CURVE('',#491,(#496,#504),.PCURVE_S1.);
#491 = B_SPLINE_CURVE_WITH_KNOTS('',3,(#492,#493,#494,#495),
  .UNSPECIFIED.,.F.,.F.,(4,4),(0.,1.),.PIECEWISE_BEZIER_KNOTS.);
#492 = CARTESIAN_POINT('',(2.5,114.,52.25));
#493 = CARTESIAN_POINT('',(2.5,114.1,52.25));
#494 = CARTESIAN_POINT('',(2.5,128.9,52.25));
#495 = CARTESIAN_POINT('',(2.5,129.,52.25));
#496 = PCURVE('',#102,#497);
#497 = DEFINITIONAL_REPRESENTATION('',(#498),#503);
#498 = B_SPLINE_CURVE_WITH_KNOTS('',3,(#499,#500,#501,#502),
  .UNSPECIFIED.,.F.,.F.,(4,4),(0.,1.),.PIECEWISE_BEZIER_KNOTS.);
#499 = CARTESIAN_POINT('',(110.25,129.));
#500 = CARTESIAN_POINT('',(110.25,129.1));
#501 = CARTESIAN_POINT('',(110.25,143.9));
#502 = CARTESIAN_POINT('',(110.25,144.));
#503 = ( GEOMETRIC_REPRESENTATION_CONTEXT(2) 
PARAMETRIC_REPRESENTATION_CONTEXT() REPRESENTATION_CONTEXT('2D SPACE',''
  ) );
#504 = PCURVE('',#505,#510);
#505 = PLANE('',#506);
#506 = AXIS2_PLACEMENT_3D('',#507,#508,#509);
#507 = CARTESIAN_POINT('',(0.,121.5,52.25));
#508 = DIRECTION('',(-1.2918958832E-16,6.521439598532E-16,-1.));
#509 = DIRECTION('',(-1.,-8.609109578238E-18,1.2918958832E-16));
#510 = DEFINITIONAL_REPRESENTATION('',(#511),#516);
#511 = B_SPLINE_CURVE_WITH_KNOTS('',3,(#512,#513,#514,#515),
  .UNSPECIFIED.,.F.,.F.,(4,4),(0.,1.),.PIECEWISE_BEZIER_KNOTS.);
#512 = CARTESIAN_POINT('',(-2.5,-7.5));
#513 = CARTESIAN_POINT('',(-2.5,-7.4));
#514 = CARTESIAN_POINT('',(-2.5,7.4));
#515 = CARTESIAN_POINT('',(-2.5,7.5));
#516 = ( GEOMETRIC_REPRESENTATION_CONTEXT(2) 
PARAMETRIC_REPRESENTATION_CONTEXT() REPRESENTATION_CONTEXT('2D SPACE',''
  ) );
#517 = ORIENTED_EDGE('',*,*,#518,.F.);
#518 = EDGE_CURVE('',#519,#488,#521,.T.);
#519 = VERTEX_POINT('',#520);
#520 = CARTESIAN_POINT('',(2.5,129.,51.75));
#521 = SURFACE_CURVE('',#522,(#525,#531),.PCURVE_S1.);
#522 = B_SPLINE_CURVE_WITH_KNOTS('',1,(#523,#524),.UNSPECIFIED.,.F.,.F.,
  (2,2),(0.,0.5),.PIECEWISE_BEZIER_KNOTS.);
#523 = CARTESIAN_POINT('',(2.5,129.,51.75));
#524 = CARTESIAN_POINT('',(2.5,129.,52.25));
#525 = PCURVE('',#102,#526);
#526 = DEFINITIONAL_REPRESENTATION('',(#527),#530);
#527 = B_SPLINE_CURVE_WITH_KNOTS('',1,(#528,#529),.UNSPECIFIED.,.F.,.F.,
  (2,2),(0.,0.5),.PIECEWISE_BEZIER_KNOTS.);
#528 = CARTESIAN_POINT('',(109.75,144.));
#529 = CARTESIAN_POINT('',(110.25,144.));
#530 = ( GEOMETRIC_REPRESENTATION_CONTEXT(2) 
PARAMETRIC_REPRESENTATION_CONTEXT() REPRESENTATION_CONTEXT('2D SPACE',''
  ) );
#531 = PCURVE('',#532,#537);
#532 = PLANE('',#533);
#533 = AXIS2_PLACEMENT_3D('',#534,#535,#536);
#534 = CARTESIAN_POINT('',(0.,129.,52.));
#535 = DIRECTION('',(-0.,-1.,-0.));
#536 = DIRECTION('',(0.,0.,-1.));
#537 = DEFINITIONAL_REPRESENTATION('',(#538),#541);
#538 = B_SPLINE_CURVE_WITH_KNOTS('',1,(#539,#540),.UNSPECIFIED.,.F.,.F.,
  (2,2),(0.,0.5),.PIECEWISE_BEZIER_KNOTS.);
#539 = CARTESIAN_POINT('',(0.25,2.5));
#540 = CARTESIAN_POINT('',(-0.25,2.5));
#541 = ( GEOMETRIC_REPRESENTATION_CONTEXT(2) 
PARAMETRIC_REPRESENTATION_CONTEXT() REPRESENTATION_CONTEXT('2D SPACE',''
  ) );
#542 = ORIENTED_EDGE('',*,*,#543,.F.);
#543 = EDGE_CURVE('',#544,#519,#546,.T.);
#544 = VERTEX_POINT('',#545);
#545 = CARTESIAN_POINT('',(2.5,114.,51.75));
#546 = SURFACE_CURVE('',#547,(#552,#560),.PCURVE_S1.);
#547 = B_SPLINE_CURVE_WITH_KNOTS('',3,(#548,#549,#550,#551),
  .UNSPECIFIED.,.F.,.F.,(4,4),(0.,1.),.PIECEWISE_BEZIER_KNOTS.);
#548 = CARTESIAN_POINT('',(2.5,114.,51.75));
#549 = CARTESIAN_POINT('',(2.5,114.1,51.75));
#550 = CARTESIAN_POINT('',(2.5,128.9,51.75));
#551 = CARTESIAN_POINT('',(2.5,129.,51.75));
#552 = PCURVE('',#102,#553);
#553 = DEFINITIONAL_REPRESENTATION('',(#554),#559);
#554 = B_SPLINE_CURVE_WITH_KNOTS('',3,(#555,#556,#557,#558),
  .UNSPECIFIED.,.F.,.F.,(4,4),(0.,1.),.PIECEWISE_BEZIER_KNOTS.);
#555 = CARTESIAN_POINT('',(109.75,129.));
#556 = CARTESIAN_POINT('',(109.75,129.1));
#557 = CARTESIAN_POINT('',(109.75,143.9));
#558 = CARTESIAN_POINT('',(109.75,144.));
#559 = ( GEOMETRIC_REPRESENTATION_CONTEXT(2) 
PARAMETRIC_REPRESENTATION_CONTEXT() REPRESENTATION_CONTEXT('2D SPACE',''
  ) );
#560 = PCURVE('',#561,#566);
#561 = PLANE('',#562);
#562 = AXIS2_PLACEMENT_3D('',#563,#564,#565);
#563 = CARTESIAN_POINT('',(0.,121.5,51.75));
#564 = DIRECTION('',(-4.697803211637E-16,6.00121592149E-17,1.));
#565 = DIRECTION('',(1.,-8.609109578238E-18,4.697803211637E-16));
#566 = DEFINITIONAL_REPRESENTATION('',(#567),#572);
#567 = B_SPLINE_CURVE_WITH_KNOTS('',3,(#568,#569,#570,#571),
  .UNSPECIFIED.,.F.,.F.,(4,4),(0.,1.),.PIECEWISE_BEZIER_KNOTS.);
#568 = CARTESIAN_POINT('',(2.5,-7.5));
#569 = CARTESIAN_POINT('',(2.5,-7.4));
#570 = CARTESIAN_POINT('',(2.5,7.4));
#571 = CARTESIAN_POINT('',(2.5,7.5));
#572 = ( GEOMETRIC_REPRESENTATION_CONTEXT(2) 
PARAMETRIC_REPRESENTATION_CONTEXT() REPRESENTATION_CONTEXT('2D SPACE',''
  ) );
#573 = ORIENTED_EDGE('',*,*,#574,.F.);
#574 = EDGE_CURVE('',#575,#544,#577,.T.);
#575 = VERTEX_POINT('',#576);
#576 = CARTESIAN_POINT('',(2.5,110.69945477388,-2.522937867867));
#577 = SURFACE_CURVE('',#578,(#609,#643),.PCURVE_S1.);
#578 = B_SPLINE_CURVE_WITH_KNOTS('',11,(#579,#580,#581,#582,#583,#584,
    #585,#586,#587,#588,#589,#590,#591,#592,#593,#594,#595,#596,#597,
    #598,#599,#600,#601,#602,#603,#604,#605,#606,#607,#608),
  .UNSPECIFIED.,.F.,.F.,(12,9,9,12),(0.,0.174164445098,0.587082222549,1.
    ),.UNSPECIFIED.);
#579 = CARTESIAN_POINT('',(2.5,110.69945477388,-2.522937867867));
#580 = CARTESIAN_POINT('',(2.5,110.01297850864,-1.41965177676));
#581 = CARTESIAN_POINT('',(2.5,109.29503111417,-0.303039573612));
#582 = CARTESIAN_POINT('',(2.5,108.54893985424,0.82568294669));
#583 = CARTESIAN_POINT('',(2.5,107.77803225997,1.965288293389));
#584 = CARTESIAN_POINT('',(2.5,106.98563636361,3.114538618394));
#585 = CARTESIAN_POINT('',(2.5,106.17508093309,4.272187054831));
#586 = CARTESIAN_POINT('',(2.5,105.34969570549,5.436979055573));
#587 = CARTESIAN_POINT('',(2.5,104.51281162173,6.607653731793));
#588 = CARTESIAN_POINT('',(2.5,103.66776106012,7.7829451915));
#589 = CARTESIAN_POINT('',(2.5,100.80293297181,11.755959427046));
#590 = CARTESIAN_POINT('',(2.5,97.921101026812,15.752555030339));
#591 = CARTESIAN_POINT('',(2.499999999999,95.930171385839,
    18.558062655605));
#592 = CARTESIAN_POINT('',(2.500000000001,94.019910610797,
    21.341550622025));
#593 = CARTESIAN_POINT('',(2.499999999998,92.234742349541,
    24.085312270392));
#594 = CARTESIAN_POINT('',(2.500000000002,90.619034001525,
    26.771596950144));
#595 = CARTESIAN_POINT('',(2.499999999999,89.217439418723,
    29.383273767654));
#596 = CARTESIAN_POINT('',(2.5,88.074879309907,31.902850703579));
#597 = CARTESIAN_POINT('',(2.5,87.235840516892,34.310648656043));
#598 = CARTESIAN_POINT('',(2.5,86.249854424681,38.859233896349));
#599 = CARTESIAN_POINT('',(2.5,86.800975695034,42.806414640768));
#600 = CARTESIAN_POINT('',(2.5,87.498694691195,44.615627288639));
#601 = CARTESIAN_POINT('',(2.500000000001,88.663206402685,
    46.229266584569));
#602 = CARTESIAN_POINT('',(2.499999999998,90.281129098093,47.71746717184
    ));
#603 = CARTESIAN_POINT('',(2.500000000002,92.5840368503,49.011594397378)
  );
#604 = CARTESIAN_POINT('',(2.499999999998,95.430284835532,
    50.061536381156));
#605 = CARTESIAN_POINT('',(2.500000000001,98.976691776981,
    50.891730457091));
#606 = CARTESIAN_POINT('',(2.5,103.21904165686,51.457728502138));
#607 = CARTESIAN_POINT('',(2.5,108.21273415021,51.750000000001));
#608 = CARTESIAN_POINT('',(2.5,114.,51.75));
#609 = PCURVE('',#102,#610);
#610 = DEFINITIONAL_REPRESENTATION('',(#611),#642);
#611 = B_SPLINE_CURVE_WITH_KNOTS('',11,(#612,#613,#614,#615,#616,#617,
    #618,#619,#620,#621,#622,#623,#624,#625,#626,#627,#628,#629,#630,
    #631,#632,#633,#634,#635,#636,#637,#638,#639,#640,#641),
  .UNSPECIFIED.,.F.,.F.,(12,9,9,12),(0.,0.174164445098,0.587082222549,1.
    ),.UNSPECIFIED.);
#612 = CARTESIAN_POINT('',(55.477062132133,125.69945477388));
#613 = CARTESIAN_POINT('',(56.58034822324,125.01297850864));
#614 = CARTESIAN_POINT('',(57.696960426388,124.29503111417));
#615 = CARTESIAN_POINT('',(58.82568294669,123.54893985424));
#616 = CARTESIAN_POINT('',(59.965288293389,122.77803225997));
#617 = CARTESIAN_POINT('',(61.114538618394,121.98563636361));
#618 = CARTESIAN_POINT('',(62.272187054831,121.17508093309));
#619 = CARTESIAN_POINT('',(63.436979055573,120.34969570549));
#620 = CARTESIAN_POINT('',(64.607653731793,119.51281162173));
#621 = CARTESIAN_POINT('',(65.7829451915,118.66776106012));
#622 = CARTESIAN_POINT('',(69.755959427046,115.80293297181));
#623 = CARTESIAN_POINT('',(73.752555030339,112.92110102681));
#624 = CARTESIAN_POINT('',(76.558062655605,110.93017138583));
#625 = CARTESIAN_POINT('',(79.341550622025,109.01991061079));
#626 = CARTESIAN_POINT('',(82.085312270392,107.23474234954));
#627 = CARTESIAN_POINT('',(84.771596950144,105.61903400152));
#628 = CARTESIAN_POINT('',(87.383273767654,104.21743941872));
#629 = CARTESIAN_POINT('',(89.902850703579,103.0748793099));
#630 = CARTESIAN_POINT('',(92.310648656043,102.23584051689));
#631 = CARTESIAN_POINT('',(96.859233896349,101.24985442468));
#632 = CARTESIAN_POINT('',(100.80641464076,101.80097569503));
#633 = CARTESIAN_POINT('',(102.61562728863,102.49869469119));
#634 = CARTESIAN_POINT('',(104.22926658456,103.66320640268));
#635 = CARTESIAN_POINT('',(105.71746717184,105.28112909809));
#636 = CARTESIAN_POINT('',(107.01159439737,107.5840368503));
#637 = CARTESIAN_POINT('',(108.06153638115,110.43028483553));
#638 = CARTESIAN_POINT('',(108.89173045709,113.97669177698));
#639 = CARTESIAN_POINT('',(109.45772850213,118.21904165686));
#640 = CARTESIAN_POINT('',(109.75,123.21273415021));
#641 = CARTESIAN_POINT('',(109.75,129.));
#642 = ( GEOMETRIC_REPRESENTATION_CONTEXT(2) 
PARAMETRIC_REPRESENTATION_CONTEXT() REPRESENTATION_CONTEXT('2D SPACE',''
  ) );
#643 = PCURVE('',#644,#705);
#644 = B_SPLINE_SURFACE_WITH_KNOTS('',1,11,(
    (#645,#646,#647,#648,#649,#650,#651,#652,#653,#654,#655,#656,#657
      ,#658,#659,#660,#661,#662,#663,#664,#665,#666,#667,#668,#669,#670
      ,#671,#672,#673,#674)
    ,(#675,#676,#677,#678,#679,#680,#681,#682,#683,#684,#685,#686,#687
      ,#688,#689,#690,#691,#692,#693,#694,#695,#696,#697,#698,#699,#700
      ,#701,#702,#703,#704
  )),.UNSPECIFIED.,.F.,.F.,.F.,(2,2),(12,9,9,12),(0.,5.),(0.,
    0.174164445098,0.587082222549,1.),.UNSPECIFIED.);
#645 = CARTESIAN_POINT('',(-2.5,110.69945477388,-2.522937867867));
#646 = CARTESIAN_POINT('',(-2.5,110.01297850864,-1.41965177676));
#647 = CARTESIAN_POINT('',(-2.5,109.29503111417,-0.303039573612));
#648 = CARTESIAN_POINT('',(-2.5,108.54893985424,0.825682946689));
#649 = CARTESIAN_POINT('',(-2.5,107.77803225997,1.965288293389));
#650 = CARTESIAN_POINT('',(-2.5,106.98563636361,3.114538618394));
#651 = CARTESIAN_POINT('',(-2.5,106.17508093309,4.272187054831));
#652 = CARTESIAN_POINT('',(-2.5,105.34969570549,5.436979055572));
#653 = CARTESIAN_POINT('',(-2.5,104.51281162173,6.607653731793));
#654 = CARTESIAN_POINT('',(-2.5,103.66776106012,7.7829451915));
#655 = CARTESIAN_POINT('',(-2.5,100.80293297181,11.755959427046));
#656 = CARTESIAN_POINT('',(-2.5,97.921101026812,15.752555030338));
#657 = CARTESIAN_POINT('',(-2.499999999999,95.930171385839,
    18.558062655607));
#658 = CARTESIAN_POINT('',(-2.500000000001,94.019910610798,
    21.34155062202));
#659 = CARTESIAN_POINT('',(-2.499999999998,92.234742349541,
    24.085312270398));
#660 = CARTESIAN_POINT('',(-2.500000000002,90.619034001526,
    26.771596950138));
#661 = CARTESIAN_POINT('',(-2.499999999999,89.217439418722,
    29.383273767658));
#662 = CARTESIAN_POINT('',(-2.5,88.074879309907,31.902850703577));
#663 = CARTESIAN_POINT('',(-2.5,87.235840516892,34.310648656043));
#664 = CARTESIAN_POINT('',(-2.5,86.249854424682,38.859233896349));
#665 = CARTESIAN_POINT('',(-2.5,86.800975695034,42.806414640767));
#666 = CARTESIAN_POINT('',(-2.5,87.4986946912,44.615627288643));
#667 = CARTESIAN_POINT('',(-2.500000000001,88.663206402675,
    46.22926658456));
#668 = CARTESIAN_POINT('',(-2.499999999998,90.281129098108,
    47.717467171855));
#669 = CARTESIAN_POINT('',(-2.500000000002,92.584036850282,
    49.011594397359));
#670 = CARTESIAN_POINT('',(-2.499999999998,95.430284835548,
    50.061536381173));
#671 = CARTESIAN_POINT('',(-2.500000000001,98.976691776971,
    50.891730457079));
#672 = CARTESIAN_POINT('',(-2.5,103.21904165686,51.457728502143));
#673 = CARTESIAN_POINT('',(-2.5,108.21273415021,51.75));
#674 = CARTESIAN_POINT('',(-2.5,114.,51.75));
#675 = CARTESIAN_POINT('',(2.5,110.69945477388,-2.522937867867));
#676 = CARTESIAN_POINT('',(2.5,110.01297850864,-1.41965177676));
#677 = CARTESIAN_POINT('',(2.5,109.29503111417,-0.303039573612));
#678 = CARTESIAN_POINT('',(2.5,108.54893985424,0.82568294669));
#679 = CARTESIAN_POINT('',(2.5,107.77803225997,1.965288293389));
#680 = CARTESIAN_POINT('',(2.5,106.98563636361,3.114538618394));
#681 = CARTESIAN_POINT('',(2.5,106.17508093309,4.272187054831));
#682 = CARTESIAN_POINT('',(2.5,105.34969570549,5.436979055573));
#683 = CARTESIAN_POINT('',(2.5,104.51281162173,6.607653731793));
#684 = CARTESIAN_POINT('',(2.5,103.66776106012,7.7829451915));
#685 = CARTESIAN_POINT('',(2.5,100.80293297181,11.755959427046));
#686 = CARTESIAN_POINT('',(2.5,97.921101026812,15.752555030339));
#687 = CARTESIAN_POINT('',(2.499999999999,95.930171385839,
    18.558062655605));
#688 = CARTESIAN_POINT('',(2.500000000001,94.019910610797,
    21.341550622025));
#689 = CARTESIAN_POINT('',(2.499999999998,92.234742349541,
    24.085312270392));
#690 = CARTESIAN_POINT('',(2.500000000002,90.619034001525,
    26.771596950144));
#691 = CARTESIAN_POINT('',(2.499999999999,89.217439418723,
    29.383273767654));
#692 = CARTESIAN_POINT('',(2.5,88.074879309907,31.902850703579));
#693 = CARTESIAN_POINT('',(2.5,87.235840516892,34.310648656043));
#694 = CARTESIAN_POINT('',(2.5,86.249854424681,38.859233896349));
#695 = CARTESIAN_POINT('',(2.5,86.800975695034,42.806414640768));
#696 = CARTESIAN_POINT('',(2.5,87.498694691195,44.615627288639));
#697 = CARTESIAN_POINT('',(2.500000000001,88.663206402685,
    46.229266584569));
#698 = CARTESIAN_POINT('',(2.499999999998,90.281129098093,47.71746717184
    ));
#699 = CARTESIAN_POINT('',(2.500000000002,92.5840368503,49.011594397378)
  );
#700 = CARTESIAN_POINT('',(2.499999999998,95.430284835532,
    50.061536381156));
#701 = CARTESIAN_POINT('',(2.500000000001,98.976691776981,
    50.891730457091));
#702 = CARTESIAN_POINT('',(2.5,103.21904165686,51.457728502138));
#703 = CARTESIAN_POINT('',(2.5,108.21273415021,51.750000000001));
#704 = CARTESIAN_POINT('',(2.5,114.,51.75));
#705 = DEFINITIONAL_REPRESENTATION('',(#706),#710);
#706 = LINE('',#707,#708);
#707 = CARTESIAN_POINT('',(5.,0.));
#708 = VECTOR('',#709,1.);
#709 = DIRECTION('',(0.,1.));
#710 = ( GEOMETRIC_REPRESENTATION_CONTEXT(2) 
PARAMETRIC_REPRESENTATION_CONTEXT() REPRESENTATION_CONTEXT('2D SPACE',''
  ) );
#711 = ORIENTED_EDGE('',*,*,#712,.F.);
#712 = EDGE_CURVE('',#85,#575,#713,.T.);
#713 = SURFACE_CURVE('',#714,(#739,#767),.PCURVE_S1.);
#714 = B_SPLINE_CURVE_WITH_KNOTS('',9,(#715,#716,#717,#718,#719,#720,
    #721,#722,#723,#724,#725,#726,#727,#728,#729,#730,#731,#732,#733,
    #734,#735,#736,#737,#738),.UNSPECIFIED.,.F.,.F.,(10,7,7,10),(0.,0.5,
    0.75,1.),.UNSPECIFIED.);
#715 = CARTESIAN_POINT('',(2.5,7.105427357601E-15,-58.25));
#716 = CARTESIAN_POINT('',(2.5,5.566377209197,-58.25));
#717 = CARTESIAN_POINT('',(2.5,12.387330618522,-57.65824488984));
#718 = CARTESIAN_POINT('',(2.5,20.218500449618,-56.52239040723));
#719 = CARTESIAN_POINT('',(2.5,28.804194254327,-54.88508099422));
#720 = CARTESIAN_POINT('',(2.5,37.888508617189,-52.78949194347));
#721 = CARTESIAN_POINT('',(2.5,47.217431727737,-50.28008541574));
#722 = CARTESIAN_POINT('',(2.5,56.536700470396,-47.4011400007));
#723 = CARTESIAN_POINT('',(2.5,70.116928284418,-42.59285023996));
#724 = CARTESIAN_POINT('',(2.5,82.526949818158,-37.14738651863));
#725 = CARTESIAN_POINT('',(2.5,86.501798810521,-35.26684225744));
#726 = CARTESIAN_POINT('',(2.5,90.2829637546,-33.32623760262));
#727 = CARTESIAN_POINT('',(2.5,93.838655949241,-31.33087470642));
#728 = CARTESIAN_POINT('',(2.5,97.137202396359,-29.28599343087));
#729 = CARTESIAN_POINT('',(2.5,100.14700845851,-27.19665006629));
#730 = CARTESIAN_POINT('',(2.5,105.52586747316,-22.93836976792));
#731 = CARTESIAN_POINT('',(2.5,109.4956996846,-18.53682541754));
#732 = CARTESIAN_POINT('',(2.5,111.09719561616,-16.30447543231));
#733 = CARTESIAN_POINT('',(2.5,112.27775755721,-14.0415124907));
#734 = CARTESIAN_POINT('',(2.5,113.01852442012,-11.76023611497));
#735 = CARTESIAN_POINT('',(2.5,113.26067715254,-9.436758041498));
#736 = CARTESIAN_POINT('',(2.5,112.96901941898,-7.119790626877));
#737 = CARTESIAN_POINT('',(2.5,112.12443383682,-4.813125686256));
#738 = CARTESIAN_POINT('',(2.5,110.69945477388,-2.522937867867));
#739 = PCURVE('',#102,#740);
#740 = DEFINITIONAL_REPRESENTATION('',(#741),#766);
#741 = B_SPLINE_CURVE_WITH_KNOTS('',9,(#742,#743,#744,#745,#746,#747,
    #748,#749,#750,#751,#752,#753,#754,#755,#756,#757,#758,#759,#760,
    #761,#762,#763,#764,#765),.UNSPECIFIED.,.F.,.F.,(10,7,7,10),(0.,0.5,
    0.75,1.),.UNSPECIFIED.);
#742 = CARTESIAN_POINT('',(-0.25,15.));
#743 = CARTESIAN_POINT('',(-0.25,20.566377209197));
#744 = CARTESIAN_POINT('',(0.341755110157,27.387330618522));
#745 = CARTESIAN_POINT('',(1.477609592765,35.218500449618));
#746 = CARTESIAN_POINT('',(3.114919005777,43.804194254327));
#747 = CARTESIAN_POINT('',(5.21050805653,52.888508617189));
#748 = CARTESIAN_POINT('',(7.71991458426,62.217431727737));
#749 = CARTESIAN_POINT('',(10.598859999292,71.536700470396));
#750 = CARTESIAN_POINT('',(15.407149760034,85.116928284418));
#751 = CARTESIAN_POINT('',(20.852613481369,97.526949818158));
#752 = CARTESIAN_POINT('',(22.733157742556,101.50179881052));
#753 = CARTESIAN_POINT('',(24.673762397375,105.2829637546));
#754 = CARTESIAN_POINT('',(26.669125293572,108.83865594924));
#755 = CARTESIAN_POINT('',(28.714006569126,112.13720239635));
#756 = CARTESIAN_POINT('',(30.80334993371,115.14700845851));
#757 = CARTESIAN_POINT('',(35.061630232074,120.52586747316));
#758 = CARTESIAN_POINT('',(39.463174582452,124.4956996846));
#759 = CARTESIAN_POINT('',(41.695524567683,126.09719561616));
#760 = CARTESIAN_POINT('',(43.958487509295,127.27775755721));
#761 = CARTESIAN_POINT('',(46.239763885024,128.01852442012));
#762 = CARTESIAN_POINT('',(48.563241958502,128.26067715254));
#763 = CARTESIAN_POINT('',(50.880209373123,127.96901941898));
#764 = CARTESIAN_POINT('',(53.186874313744,127.12443383682));
#765 = CARTESIAN_POINT('',(55.477062132133,125.69945477388));
#766 = ( GEOMETRIC_REPRESENTATION_CONTEXT(2) 
PARAMETRIC_REPRESENTATION_CONTEXT() REPRESENTATION_CONTEXT('2D SPACE',''
  ) );
#767 = PCURVE('',#127,#768);
#768 = DEFINITIONAL_REPRESENTATION('',(#769),#773);
#769 = LINE('',#770,#771);
#770 = CARTESIAN_POINT('',(5.,0.));
#771 = VECTOR('',#772,1.);
#772 = DIRECTION('',(0.,1.));
#773 = ( GEOMETRIC_REPRESENTATION_CONTEXT(2) 
PARAMETRIC_REPRESENTATION_CONTEXT() REPRESENTATION_CONTEXT('2D SPACE',''
  ) );
#774 = ADVANCED_FACE('',(#775),#224,.F.);
#775 = FACE_BOUND('',#776,.F.);
#776 = EDGE_LOOP('',(#777,#778,#798,#824));
#777 = ORIENTED_EDGE('',*,*,#206,.F.);
#778 = ORIENTED_EDGE('',*,*,#779,.T.);
#779 = EDGE_CURVE('',#187,#780,#782,.T.);
#780 = VERTEX_POINT('',#781);
#781 = CARTESIAN_POINT('',(-2.5,-30.,-57.75));
#782 = SURFACE_CURVE('',#783,(#786,#792),.PCURVE_S1.);
#783 = B_SPLINE_CURVE_WITH_KNOTS('',1,(#784,#785),.UNSPECIFIED.,.F.,.F.,
  (2,2),(0.,5.),.PIECEWISE_BEZIER_KNOTS.);
#784 = CARTESIAN_POINT('',(2.5,-30.,-57.75));
#785 = CARTESIAN_POINT('',(-2.5,-30.,-57.75));
#786 = PCURVE('',#224,#787);
#787 = DEFINITIONAL_REPRESENTATION('',(#788),#791);
#788 = B_SPLINE_CURVE_WITH_KNOTS('',1,(#789,#790),.UNSPECIFIED.,.F.,.F.,
  (2,2),(0.,5.),.PIECEWISE_BEZIER_KNOTS.);
#789 = CARTESIAN_POINT('',(-2.5,-15.));
#790 = CARTESIAN_POINT('',(2.5,-15.));
#791 = ( GEOMETRIC_REPRESENTATION_CONTEXT(2) 
PARAMETRIC_REPRESENTATION_CONTEXT() REPRESENTATION_CONTEXT('2D SPACE',''
  ) );
#792 = PCURVE('',#73,#793);
#793 = DEFINITIONAL_REPRESENTATION('',(#794),#797);
#794 = B_SPLINE_CURVE_WITH_KNOTS('',1,(#795,#796),.UNSPECIFIED.,.F.,.F.,
  (2,2),(0.,5.),.PIECEWISE_BEZIER_KNOTS.);
#795 = CARTESIAN_POINT('',(-0.25,2.5));
#796 = CARTESIAN_POINT('',(-0.25,-2.5));
#797 = ( GEOMETRIC_REPRESENTATION_CONTEXT(2) 
PARAMETRIC_REPRESENTATION_CONTEXT() REPRESENTATION_CONTEXT('2D SPACE',''
  ) );
#798 = ORIENTED_EDGE('',*,*,#799,.T.);
#799 = EDGE_CURVE('',#780,#800,#802,.T.);
#800 = VERTEX_POINT('',#801);
#801 = CARTESIAN_POINT('',(-2.5,3.552713678801E-15,-57.75));
#802 = SURFACE_CURVE('',#803,(#808,#816),.PCURVE_S1.);
#803 = B_SPLINE_CURVE_WITH_KNOTS('',3,(#804,#805,#806,#807),
  .UNSPECIFIED.,.F.,.F.,(4,4),(0.,1.),.PIECEWISE_BEZIER_KNOTS.);
#804 = CARTESIAN_POINT('',(-2.5,-30.,-57.75));
#805 = CARTESIAN_POINT('',(-2.5,-29.9,-57.75));
#806 = CARTESIAN_POINT('',(-2.5,-1.E-01,-57.75));
#807 = CARTESIAN_POINT('',(-2.5,8.881784197001E-15,-57.75));
#808 = PCURVE('',#224,#809);
#809 = DEFINITIONAL_REPRESENTATION('',(#810),#815);
#810 = B_SPLINE_CURVE_WITH_KNOTS('',3,(#811,#812,#813,#814),
  .UNSPECIFIED.,.F.,.F.,(4,4),(0.,1.),.PIECEWISE_BEZIER_KNOTS.);
#811 = CARTESIAN_POINT('',(2.5,-15.));
#812 = CARTESIAN_POINT('',(2.5,-14.9));
#813 = CARTESIAN_POINT('',(2.5,14.9));
#814 = CARTESIAN_POINT('',(2.5,15.));
#815 = ( GEOMETRIC_REPRESENTATION_CONTEXT(2) 
PARAMETRIC_REPRESENTATION_CONTEXT() REPRESENTATION_CONTEXT('2D SPACE',''
  ) );
#816 = PCURVE('',#46,#817);
#817 = DEFINITIONAL_REPRESENTATION('',(#818),#823);
#818 = B_SPLINE_CURVE_WITH_KNOTS('',3,(#819,#820,#821,#822),
  .UNSPECIFIED.,.F.,.F.,(4,4),(0.,1.),.PIECEWISE_BEZIER_KNOTS.);
#819 = CARTESIAN_POINT('',(-0.25,-15.));
#820 = CARTESIAN_POINT('',(-0.25,-14.9));
#821 = CARTESIAN_POINT('',(-0.25,14.9));
#822 = CARTESIAN_POINT('',(-0.25,15.));
#823 = ( GEOMETRIC_REPRESENTATION_CONTEXT(2) 
PARAMETRIC_REPRESENTATION_CONTEXT() REPRESENTATION_CONTEXT('2D SPACE',''
  ) );
#824 = ORIENTED_EDGE('',*,*,#825,.F.);
#825 = EDGE_CURVE('',#207,#800,#826,.T.);
#826 = SURFACE_CURVE('',#827,(#830,#836),.PCURVE_S1.);
#827 = B_SPLINE_CURVE_WITH_KNOTS('',1,(#828,#829),.UNSPECIFIED.,.F.,.F.,
  (2,2),(0.,5.),.PIECEWISE_BEZIER_KNOTS.);
#828 = CARTESIAN_POINT('',(2.5,8.881784197001E-15,-57.75));
#829 = CARTESIAN_POINT('',(-2.5,8.881784197001E-15,-57.75));
#830 = PCURVE('',#224,#831);
#831 = DEFINITIONAL_REPRESENTATION('',(#832),#835);
#832 = B_SPLINE_CURVE_WITH_KNOTS('',1,(#833,#834),.UNSPECIFIED.,.F.,.F.,
  (2,2),(0.,5.),.PIECEWISE_BEZIER_KNOTS.);
#833 = CARTESIAN_POINT('',(-2.5,15.));
#834 = CARTESIAN_POINT('',(2.5,15.));
#835 = ( GEOMETRIC_REPRESENTATION_CONTEXT(2) 
PARAMETRIC_REPRESENTATION_CONTEXT() REPRESENTATION_CONTEXT('2D SPACE',''
  ) );
#836 = PCURVE('',#295,#837);
#837 = DEFINITIONAL_REPRESENTATION('',(#838),#841);
#838 = B_SPLINE_CURVE_WITH_KNOTS('',1,(#839,#840),.UNSPECIFIED.,.F.,.F.,
  (2,2),(0.,5.),.PIECEWISE_BEZIER_KNOTS.);
#839 = CARTESIAN_POINT('',(0.,0.));
#840 = CARTESIAN_POINT('',(5.,0.));
#841 = ( GEOMETRIC_REPRESENTATION_CONTEXT(2) 
PARAMETRIC_REPRESENTATION_CONTEXT() REPRESENTATION_CONTEXT('2D SPACE',''
  ) );
#842 = ADVANCED_FACE('',(#843),#46,.F.);
#843 = FACE_BOUND('',#844,.F.);
#844 = EDGE_LOOP('',(#845,#846,#864,#865,#930,#1007,#1033,#1053,#1079,
    #1156));
#845 = ORIENTED_EDGE('',*,*,#799,.F.);
#846 = ORIENTED_EDGE('',*,*,#847,.T.);
#847 = EDGE_CURVE('',#780,#22,#848,.T.);
#848 = SURFACE_CURVE('',#849,(#852,#858),.PCURVE_S1.);
#849 = B_SPLINE_CURVE_WITH_KNOTS('',1,(#850,#851),.UNSPECIFIED.,.F.,.F.,
  (2,2),(0.,0.5),.PIECEWISE_BEZIER_KNOTS.);
#850 = CARTESIAN_POINT('',(-2.5,-30.,-57.75));
#851 = CARTESIAN_POINT('',(-2.5,-30.,-58.25));
#852 = PCURVE('',#46,#853);
#853 = DEFINITIONAL_REPRESENTATION('',(#854),#857);
#854 = B_SPLINE_CURVE_WITH_KNOTS('',1,(#855,#856),.UNSPECIFIED.,.F.,.F.,
  (2,2),(0.,0.5),.PIECEWISE_BEZIER_KNOTS.);
#855 = CARTESIAN_POINT('',(-0.25,-15.));
#856 = CARTESIAN_POINT('',(0.25,-15.));
#857 = ( GEOMETRIC_REPRESENTATION_CONTEXT(2) 
PARAMETRIC_REPRESENTATION_CONTEXT() REPRESENTATION_CONTEXT('2D SPACE',''
  ) );
#858 = PCURVE('',#73,#859);
#859 = DEFINITIONAL_REPRESENTATION('',(#860),#863);
#860 = B_SPLINE_CURVE_WITH_KNOTS('',1,(#861,#862),.UNSPECIFIED.,.F.,.F.,
  (2,2),(0.,0.5),.PIECEWISE_BEZIER_KNOTS.);
#861 = CARTESIAN_POINT('',(-0.25,-2.5));
#862 = CARTESIAN_POINT('',(0.25,-2.5));
#863 = ( GEOMETRIC_REPRESENTATION_CONTEXT(2) 
PARAMETRIC_REPRESENTATION_CONTEXT() REPRESENTATION_CONTEXT('2D SPACE',''
  ) );
#864 = ORIENTED_EDGE('',*,*,#21,.T.);
#865 = ORIENTED_EDGE('',*,*,#866,.T.);
#866 = EDGE_CURVE('',#24,#867,#869,.T.);
#867 = VERTEX_POINT('',#868);
#868 = CARTESIAN_POINT('',(-2.5,110.69945477388,-2.522937867867));
#869 = SURFACE_CURVE('',#870,(#895,#923),.PCURVE_S1.);
#870 = B_SPLINE_CURVE_WITH_KNOTS('',9,(#871,#872,#873,#874,#875,#876,
    #877,#878,#879,#880,#881,#882,#883,#884,#885,#886,#887,#888,#889,
    #890,#891,#892,#893,#894),.UNSPECIFIED.,.F.,.F.,(10,7,7,10),(0.,0.5,
    0.75,1.),.UNSPECIFIED.);
#871 = CARTESIAN_POINT('',(-2.5,7.105427357601E-15,-58.25));
#872 = CARTESIAN_POINT('',(-2.5,5.566377209197,-58.25));
#873 = CARTESIAN_POINT('',(-2.5,12.387330618522,-57.65824488984));
#874 = CARTESIAN_POINT('',(-2.5,20.218500449618,-56.52239040723));
#875 = CARTESIAN_POINT('',(-2.5,28.804194254327,-54.88508099422));
#876 = CARTESIAN_POINT('',(-2.5,37.888508617189,-52.78949194347));
#877 = CARTESIAN_POINT('',(-2.5,47.217431727737,-50.28008541574));
#878 = CARTESIAN_POINT('',(-2.5,56.536700470396,-47.4011400007));
#879 = CARTESIAN_POINT('',(-2.5,70.116928284418,-42.59285023996));
#880 = CARTESIAN_POINT('',(-2.5,82.526949818158,-37.14738651863));
#881 = CARTESIAN_POINT('',(-2.5,86.501798810521,-35.26684225744));
#882 = CARTESIAN_POINT('',(-2.5,90.2829637546,-33.32623760262));
#883 = CARTESIAN_POINT('',(-2.5,93.838655949241,-31.33087470642));
#884 = CARTESIAN_POINT('',(-2.5,97.137202396359,-29.28599343087));
#885 = CARTESIAN_POINT('',(-2.5,100.14700845851,-27.19665006629));
#886 = CARTESIAN_POINT('',(-2.5,105.52586747316,-22.93836976792));
#887 = CARTESIAN_POINT('',(-2.5,109.4956996846,-18.53682541754));
#888 = CARTESIAN_POINT('',(-2.5,111.09719561616,-16.30447543231));
#889 = CARTESIAN_POINT('',(-2.5,112.27775755721,-14.0415124907));
#890 = CARTESIAN_POINT('',(-2.5,113.01852442012,-11.76023611497));
#891 = CARTESIAN_POINT('',(-2.5,113.26067715254,-9.436758041498));
#892 = CARTESIAN_POINT('',(-2.5,112.96901941898,-7.119790626877));
#893 = CARTESIAN_POINT('',(-2.5,112.12443383682,-4.813125686256));
#894 = CARTESIAN_POINT('',(-2.5,110.69945477388,-2.522937867867));
#895 = PCURVE('',#46,#896);
#896 = DEFINITIONAL_REPRESENTATION('',(#897),#922);
#897 = B_SPLINE_CURVE_WITH_KNOTS('',9,(#898,#899,#900,#901,#902,#903,
    #904,#905,#906,#907,#908,#909,#910,#911,#912,#913,#914,#915,#916,
    #917,#918,#919,#920,#921),.UNSPECIFIED.,.F.,.F.,(10,7,7,10),(0.,0.5,
    0.75,1.),.UNSPECIFIED.);
#898 = CARTESIAN_POINT('',(0.25,15.));
#899 = CARTESIAN_POINT('',(0.25,20.566377209197));
#900 = CARTESIAN_POINT('',(-0.341755110157,27.387330618522));
#901 = CARTESIAN_POINT('',(-1.477609592765,35.218500449618));
#902 = CARTESIAN_POINT('',(-3.114919005777,43.804194254327));
#903 = CARTESIAN_POINT('',(-5.21050805653,52.888508617189));
#904 = CARTESIAN_POINT('',(-7.71991458426,62.217431727737));
#905 = CARTESIAN_POINT('',(-10.59885999929,71.536700470396));
#906 = CARTESIAN_POINT('',(-15.40714976003,85.116928284418));
#907 = CARTESIAN_POINT('',(-20.85261348136,97.526949818158));
#908 = CARTESIAN_POINT('',(-22.73315774255,101.50179881052));
#909 = CARTESIAN_POINT('',(-24.67376239737,105.2829637546));
#910 = CARTESIAN_POINT('',(-26.66912529357,108.83865594924));
#911 = CARTESIAN_POINT('',(-28.71400656912,112.13720239635));
#912 = CARTESIAN_POINT('',(-30.80334993371,115.14700845851));
#913 = CARTESIAN_POINT('',(-35.06163023207,120.52586747316));
#914 = CARTESIAN_POINT('',(-39.46317458245,124.4956996846));
#915 = CARTESIAN_POINT('',(-41.69552456768,126.09719561616));
#916 = CARTESIAN_POINT('',(-43.95848750929,127.27775755721));
#917 = CARTESIAN_POINT('',(-46.23976388502,128.01852442012));
#918 = CARTESIAN_POINT('',(-48.5632419585,128.26067715254));
#919 = CARTESIAN_POINT('',(-50.88020937312,127.96901941898));
#920 = CARTESIAN_POINT('',(-53.18687431374,127.12443383682));
#921 = CARTESIAN_POINT('',(-55.47706213213,125.69945477388));
#922 = ( GEOMETRIC_REPRESENTATION_CONTEXT(2) 
PARAMETRIC_REPRESENTATION_CONTEXT() REPRESENTATION_CONTEXT('2D SPACE',''
  ) );
#923 = PCURVE('',#127,#924);
#924 = DEFINITIONAL_REPRESENTATION('',(#925),#929);
#925 = LINE('',#926,#927);
#926 = CARTESIAN_POINT('',(0.,0.));
#927 = VECTOR('',#928,1.);
#928 = DIRECTION('',(0.,1.));
#929 = ( GEOMETRIC_REPRESENTATION_CONTEXT(2) 
PARAMETRIC_REPRESENTATION_CONTEXT() REPRESENTATION_CONTEXT('2D SPACE',''
  ) );
#930 = ORIENTED_EDGE('',*,*,#931,.T.);
#931 = EDGE_CURVE('',#867,#932,#934,.T.);
#932 = VERTEX_POINT('',#933);
#933 = CARTESIAN_POINT('',(-2.5,114.,51.75));
#934 = SURFACE_CURVE('',#935,(#966,#1000),.PCURVE_S1.);
#935 = B_SPLINE_CURVE_WITH_KNOTS('',11,(#936,#937,#938,#939,#940,#941,
    #942,#943,#944,#945,#946,#947,#948,#949,#950,#951,#952,#953,#954,
    #955,#956,#957,#958,#959,#960,#961,#962,#963,#964,#965),
  .UNSPECIFIED.,.F.,.F.,(12,9,9,12),(0.,0.174164445098,0.587082222549,1.
    ),.UNSPECIFIED.);
#936 = CARTESIAN_POINT('',(-2.5,110.69945477388,-2.522937867867));
#937 = CARTESIAN_POINT('',(-2.5,110.01297850864,-1.41965177676));
#938 = CARTESIAN_POINT('',(-2.5,109.29503111417,-0.303039573612));
#939 = CARTESIAN_POINT('',(-2.5,108.54893985424,0.825682946689));
#940 = CARTESIAN_POINT('',(-2.5,107.77803225997,1.965288293389));
#941 = CARTESIAN_POINT('',(-2.5,106.98563636361,3.114538618394));
#942 = CARTESIAN_POINT('',(-2.5,106.17508093309,4.272187054831));
#943 = CARTESIAN_POINT('',(-2.5,105.34969570549,5.436979055572));
#944 = CARTESIAN_POINT('',(-2.5,104.51281162173,6.607653731793));
#945 = CARTESIAN_POINT('',(-2.5,103.66776106012,7.7829451915));
#946 = CARTESIAN_POINT('',(-2.5,100.80293297181,11.755959427046));
#947 = CARTESIAN_POINT('',(-2.5,97.921101026812,15.752555030338));
#948 = CARTESIAN_POINT('',(-2.499999999999,95.930171385839,
    18.558062655607));
#949 = CARTESIAN_POINT('',(-2.500000000001,94.019910610798,
    21.34155062202));
#950 = CARTESIAN_POINT('',(-2.499999999998,92.234742349541,
    24.085312270398));
#951 = CARTESIAN_POINT('',(-2.500000000002,90.619034001526,
    26.771596950138));
#952 = CARTESIAN_POINT('',(-2.499999999999,89.217439418722,
    29.383273767658));
#953 = CARTESIAN_POINT('',(-2.5,88.074879309907,31.902850703577));
#954 = CARTESIAN_POINT('',(-2.5,87.235840516892,34.310648656043));
#955 = CARTESIAN_POINT('',(-2.5,86.249854424682,38.859233896349));
#956 = CARTESIAN_POINT('',(-2.5,86.800975695034,42.806414640767));
#957 = CARTESIAN_POINT('',(-2.5,87.4986946912,44.615627288643));
#958 = CARTESIAN_POINT('',(-2.500000000001,88.663206402675,
    46.22926658456));
#959 = CARTESIAN_POINT('',(-2.499999999998,90.281129098108,
    47.717467171855));
#960 = CARTESIAN_POINT('',(-2.500000000002,92.584036850282,
    49.011594397359));
#961 = CARTESIAN_POINT('',(-2.499999999998,95.430284835548,
    50.061536381173));
#962 = CARTESIAN_POINT('',(-2.500000000001,98.976691776971,
    50.891730457079));
#963 = CARTESIAN_POINT('',(-2.5,103.21904165686,51.457728502143));
#964 = CARTESIAN_POINT('',(-2.5,108.21273415021,51.75));
#965 = CARTESIAN_POINT('',(-2.5,114.,51.75));
#966 = PCURVE('',#46,#967);
#967 = DEFINITIONAL_REPRESENTATION('',(#968),#999);
#968 = B_SPLINE_CURVE_WITH_KNOTS('',11,(#969,#970,#971,#972,#973,#974,
    #975,#976,#977,#978,#979,#980,#981,#982,#983,#984,#985,#986,#987,
    #988,#989,#990,#991,#992,#993,#994,#995,#996,#997,#998),
  .UNSPECIFIED.,.F.,.F.,(12,9,9,12),(0.,0.174164445098,0.587082222549,1.
    ),.UNSPECIFIED.);
#969 = CARTESIAN_POINT('',(-55.47706213213,125.69945477388));
#970 = CARTESIAN_POINT('',(-56.58034822324,125.01297850864));
#971 = CARTESIAN_POINT('',(-57.69696042638,124.29503111417));
#972 = CARTESIAN_POINT('',(-58.82568294668,123.54893985424));
#973 = CARTESIAN_POINT('',(-59.96528829338,122.77803225997));
#974 = CARTESIAN_POINT('',(-61.11453861839,121.98563636361));
#975 = CARTESIAN_POINT('',(-62.27218705483,121.17508093309));
#976 = CARTESIAN_POINT('',(-63.43697905557,120.34969570549));
#977 = CARTESIAN_POINT('',(-64.60765373179,119.51281162173));
#978 = CARTESIAN_POINT('',(-65.7829451915,118.66776106012));
#979 = CARTESIAN_POINT('',(-69.75595942704,115.80293297181));
#980 = CARTESIAN_POINT('',(-73.75255503033,112.92110102681));
#981 = CARTESIAN_POINT('',(-76.5580626556,110.93017138583));
#982 = CARTESIAN_POINT('',(-79.34155062202,109.01991061079));
#983 = CARTESIAN_POINT('',(-82.08531227039,107.23474234954));
#984 = CARTESIAN_POINT('',(-84.77159695013,105.61903400152));
#985 = CARTESIAN_POINT('',(-87.38327376765,104.21743941872));
#986 = CARTESIAN_POINT('',(-89.90285070357,103.0748793099));
#987 = CARTESIAN_POINT('',(-92.31064865604,102.23584051689));
#988 = CARTESIAN_POINT('',(-96.85923389634,101.24985442468));
#989 = CARTESIAN_POINT('',(-100.8064146407,101.80097569503));
#990 = CARTESIAN_POINT('',(-102.6156272886,102.49869469119));
#991 = CARTESIAN_POINT('',(-104.2292665845,103.66320640267));
#992 = CARTESIAN_POINT('',(-105.7174671718,105.2811290981));
#993 = CARTESIAN_POINT('',(-107.0115943973,107.58403685028));
#994 = CARTESIAN_POINT('',(-108.0615363811,110.43028483554));
#995 = CARTESIAN_POINT('',(-108.891730457,113.97669177697));
#996 = CARTESIAN_POINT('',(-109.4577285021,118.21904165686));
#997 = CARTESIAN_POINT('',(-109.75,123.21273415021));
#998 = CARTESIAN_POINT('',(-109.75,129.));
#999 = ( GEOMETRIC_REPRESENTATION_CONTEXT(2) 
PARAMETRIC_REPRESENTATION_CONTEXT() REPRESENTATION_CONTEXT('2D SPACE',''
  ) );
#1000 = PCURVE('',#644,#1001);
#1001 = DEFINITIONAL_REPRESENTATION('',(#1002),#1006);
#1002 = LINE('',#1003,#1004);
#1003 = CARTESIAN_POINT('',(0.,0.));
#1004 = VECTOR('',#1005,1.);
#1005 = DIRECTION('',(0.,1.));
#1006 = ( GEOMETRIC_REPRESENTATION_CONTEXT(2) 
PARAMETRIC_REPRESENTATION_CONTEXT() REPRESENTATION_CONTEXT('2D SPACE',''
  ) );
#1007 = ORIENTED_EDGE('',*,*,#1008,.T.);
#1008 = EDGE_CURVE('',#932,#1009,#1011,.T.);
#1009 = VERTEX_POINT('',#1010);
#1010 = CARTESIAN_POINT('',(-2.5,129.,51.75));
#1011 = SURFACE_CURVE('',#1012,(#1017,#1025),.PCURVE_S1.);
#1012 = B_SPLINE_CURVE_WITH_KNOTS('',3,(#1013,#1014,#1015,#1016),
  .UNSPECIFIED.,.F.,.F.,(4,4),(0.,1.),.PIECEWISE_BEZIER_KNOTS.);
#1013 = CARTESIAN_POINT('',(-2.5,114.,51.75));
#1014 = CARTESIAN_POINT('',(-2.5,114.1,51.75));
#1015 = CARTESIAN_POINT('',(-2.5,128.9,51.75));
#1016 = CARTESIAN_POINT('',(-2.5,129.,51.75));
#1017 = PCURVE('',#46,#1018);
#1018 = DEFINITIONAL_REPRESENTATION('',(#1019),#1024);
#1019 = B_SPLINE_CURVE_WITH_KNOTS('',3,(#1020,#1021,#1022,#1023),
  .UNSPECIFIED.,.F.,.F.,(4,4),(0.,1.),.PIECEWISE_BEZIER_KNOTS.);
#1020 = CARTESIAN_POINT('',(-109.75,129.));
#1021 = CARTESIAN_POINT('',(-109.75,129.1));
#1022 = CARTESIAN_POINT('',(-109.75,143.9));
#1023 = CARTESIAN_POINT('',(-109.75,144.));
#1024 = ( GEOMETRIC_REPRESENTATION_CONTEXT(2) 
PARAMETRIC_REPRESENTATION_CONTEXT() REPRESENTATION_CONTEXT('2D SPACE',''
  ) );
#1025 = PCURVE('',#561,#1026);
#1026 = DEFINITIONAL_REPRESENTATION('',(#1027),#1032);
#1027 = B_SPLINE_CURVE_WITH_KNOTS('',3,(#1028,#1029,#1030,#1031),
  .UNSPECIFIED.,.F.,.F.,(4,4),(0.,1.),.PIECEWISE_BEZIER_KNOTS.);
#1028 = CARTESIAN_POINT('',(-2.5,-7.5));
#1029 = CARTESIAN_POINT('',(-2.5,-7.4));
#1030 = CARTESIAN_POINT('',(-2.5,7.4));
#1031 = CARTESIAN_POINT('',(-2.5,7.5));
#1032 = ( GEOMETRIC_REPRESENTATION_CONTEXT(2) 
PARAMETRIC_REPRESENTATION_CONTEXT() REPRESENTATION_CONTEXT('2D SPACE',''
  ) );
#1033 = ORIENTED_EDGE('',*,*,#1034,.F.);
#1034 = EDGE_CURVE('',#1035,#1009,#1037,.T.);
#1035 = VERTEX_POINT('',#1036);
#1036 = CARTESIAN_POINT('',(-2.5,129.,52.25));
#1037 = SURFACE_CURVE('',#1038,(#1041,#1047),.PCURVE_S1.);
#1038 = B_SPLINE_CURVE_WITH_KNOTS('',1,(#1039,#1040),.UNSPECIFIED.,.F.,
  .F.,(2,2),(0.,0.5),.PIECEWISE_BEZIER_KNOTS.);
#1039 = CARTESIAN_POINT('',(-2.5,129.,52.25));
#1040 = CARTESIAN_POINT('',(-2.5,129.,51.75));
#1041 = PCURVE('',#46,#1042);
#1042 = DEFINITIONAL_REPRESENTATION('',(#1043),#1046);
#1043 = B_SPLINE_CURVE_WITH_KNOTS('',1,(#1044,#1045),.UNSPECIFIED.,.F.,
  .F.,(2,2),(0.,0.5),.PIECEWISE_BEZIER_KNOTS.);
#1044 = CARTESIAN_POINT('',(-110.25,144.));
#1045 = CARTESIAN_POINT('',(-109.75,144.));
#1046 = ( GEOMETRIC_REPRESENTATION_CONTEXT(2) 
PARAMETRIC_REPRESENTATION_CONTEXT() REPRESENTATION_CONTEXT('2D SPACE',''
  ) );
#1047 = PCURVE('',#532,#1048);
#1048 = DEFINITIONAL_REPRESENTATION('',(#1049),#1052);
#1049 = B_SPLINE_CURVE_WITH_KNOTS('',1,(#1050,#1051),.UNSPECIFIED.,.F.,
  .F.,(2,2),(0.,0.5),.PIECEWISE_BEZIER_KNOTS.);
#1050 = CARTESIAN_POINT('',(-0.25,-2.5));
#1051 = CARTESIAN_POINT('',(0.25,-2.5));
#1052 = ( GEOMETRIC_REPRESENTATION_CONTEXT(2) 
PARAMETRIC_REPRESENTATION_CONTEXT() REPRESENTATION_CONTEXT('2D SPACE',''
  ) );
#1053 = ORIENTED_EDGE('',*,*,#1054,.F.);
#1054 = EDGE_CURVE('',#1055,#1035,#1057,.T.);
#1055 = VERTEX_POINT('',#1056);
#1056 = CARTESIAN_POINT('',(-2.5,114.,52.25));
#1057 = SURFACE_CURVE('',#1058,(#1063,#1071),.PCURVE_S1.);
#1058 = B_SPLINE_CURVE_WITH_KNOTS('',3,(#1059,#1060,#1061,#1062),
  .UNSPECIFIED.,.F.,.F.,(4,4),(0.,1.),.PIECEWISE_BEZIER_KNOTS.);
#1059 = CARTESIAN_POINT('',(-2.5,114.,52.25));
#1060 = CARTESIAN_POINT('',(-2.5,114.1,52.25));
#1061 = CARTESIAN_POINT('',(-2.5,128.9,52.25));
#1062 = CARTESIAN_POINT('',(-2.5,129.,52.25));
#1063 = PCURVE('',#46,#1064);
#1064 = DEFINITIONAL_REPRESENTATION('',(#1065),#1070);
#1065 = B_SPLINE_CURVE_WITH_KNOTS('',3,(#1066,#1067,#1068,#1069),
  .UNSPECIFIED.,.F.,.F.,(4,4),(0.,1.),.PIECEWISE_BEZIER_KNOTS.);
#1066 = CARTESIAN_POINT('',(-110.25,129.));
#1067 = CARTESIAN_POINT('',(-110.25,129.1));
#1068 = CARTESIAN_POINT('',(-110.25,143.9));
#1069 = CARTESIAN_POINT('',(-110.25,144.));
#1070 = ( GEOMETRIC_REPRESENTATION_CONTEXT(2) 
PARAMETRIC_REPRESENTATION_CONTEXT() REPRESENTATION_CONTEXT('2D SPACE',''
  ) );
#1071 = PCURVE('',#505,#1072);
#1072 = DEFINITIONAL_REPRESENTATION('',(#1073),#1078);
#1073 = B_SPLINE_CURVE_WITH_KNOTS('',3,(#1074,#1075,#1076,#1077),
  .UNSPECIFIED.,.F.,.F.,(4,4),(0.,1.),.PIECEWISE_BEZIER_KNOTS.);
#1074 = CARTESIAN_POINT('',(2.5,-7.5));
#1075 = CARTESIAN_POINT('',(2.5,-7.4));
#1076 = CARTESIAN_POINT('',(2.5,7.4));
#1077 = CARTESIAN_POINT('',(2.5,7.5));
#1078 = ( GEOMETRIC_REPRESENTATION_CONTEXT(2) 
PARAMETRIC_REPRESENTATION_CONTEXT() REPRESENTATION_CONTEXT('2D SPACE',''
  ) );
#1079 = ORIENTED_EDGE('',*,*,#1080,.F.);
#1080 = EDGE_CURVE('',#1081,#1055,#1083,.T.);
#1081 = VERTEX_POINT('',#1082);
#1082 = CARTESIAN_POINT('',(-2.5,110.2749242527,-2.787085244514));
#1083 = SURFACE_CURVE('',#1084,(#1115,#1149),.PCURVE_S1.);
#1084 = B_SPLINE_CURVE_WITH_KNOTS('',11,(#1085,#1086,#1087,#1088,#1089,
    #1090,#1091,#1092,#1093,#1094,#1095,#1096,#1097,#1098,#1099,#1100,
    #1101,#1102,#1103,#1104,#1105,#1106,#1107,#1108,#1109,#1110,#1111,
    #1112,#1113,#1114),.UNSPECIFIED.,.F.,.F.,(12,9,9,12),(0.,
    0.174164445098,0.587082222549,1.),.UNSPECIFIED.);
#1085 = CARTESIAN_POINT('',(-2.5,110.2749242527,-2.787085244514));
#1086 = CARTESIAN_POINT('',(-2.5,109.5920850186,-1.68964449151));
#1087 = CARTESIAN_POINT('',(-2.5,108.87734347362,-0.577987269912));
#1088 = CARTESIAN_POINT('',(-2.5,108.13404548672,0.546552779859));
#1089 = CARTESIAN_POINT('',(-2.5,107.36553665992,1.68265371325));
#1090 = CARTESIAN_POINT('',(-2.5,106.57516209332,2.829003943042));
#1091 = CARTESIAN_POINT('',(-2.5,105.76626615246,3.9843009008));
#1092 = CARTESIAN_POINT('',(-2.5,104.94219223247,5.14724969834));
#1093 = CARTESIAN_POINT('',(-2.5,104.10628252579,6.31656178918));
#1094 = CARTESIAN_POINT('',(-2.5,103.26187778666,7.490953630001));
#1095 = CARTESIAN_POINT('',(-2.5,100.39813612547,11.46246118162));
#1096 = CARTESIAN_POINT('',(-2.5,97.51372842471,15.462628906525));
#1097 = CARTESIAN_POINT('',(-2.499999999999,95.519331247429,
    18.273424571444));
#1098 = CARTESIAN_POINT('',(-2.500000000001,93.603487875867,
    21.064133540202));
#1099 = CARTESIAN_POINT('',(-2.499999999998,91.810703375975,
    23.818487724471));
#1100 = CARTESIAN_POINT('',(-2.500000000002,90.185539062943,
    26.520263027241));
#1101 = CARTESIAN_POINT('',(-2.499999999999,88.772269798306,
    29.152615594599));
#1102 = CARTESIAN_POINT('',(-2.5,87.614903587963,31.69906269832));
#1103 = CARTESIAN_POINT('',(-2.5,86.757882303871,34.145308692744));
#1104 = CARTESIAN_POINT('',(-2.5,85.737338154547,38.812901665556));
#1105 = CARTESIAN_POINT('',(-2.5,86.30658132434,42.962180782761));
#1106 = CARTESIAN_POINT('',(-2.5,87.039696932823,44.887293730252));
#1107 = CARTESIAN_POINT('',(-2.500000000001,88.265600924614,
    46.660100946765));
#1108 = CARTESIAN_POINT('',(-2.499999999998,90.08660374535,
    48.176493041273));
#1109 = CARTESIAN_POINT('',(-2.500000000002,92.360060036145,
    49.471129919598));
#1110 = CARTESIAN_POINT('',(-2.499999999998,95.316543335036,
    50.560148713853));
#1111 = CARTESIAN_POINT('',(-2.500000000001,98.888163632844,
    51.385137342904));
#1112 = CARTESIAN_POINT('',(-2.5,103.16806566155,51.956569181991));
#1113 = CARTESIAN_POINT('',(-2.5,108.1897784602,52.250000000001));
#1114 = CARTESIAN_POINT('',(-2.5,114.,52.25));
#1115 = PCURVE('',#46,#1116);
#1116 = DEFINITIONAL_REPRESENTATION('',(#1117),#1148);
#1117 = B_SPLINE_CURVE_WITH_KNOTS('',11,(#1118,#1119,#1120,#1121,#1122,
    #1123,#1124,#1125,#1126,#1127,#1128,#1129,#1130,#1131,#1132,#1133,
    #1134,#1135,#1136,#1137,#1138,#1139,#1140,#1141,#1142,#1143,#1144,
    #1145,#1146,#1147),.UNSPECIFIED.,.F.,.F.,(12,9,9,12),(0.,
    0.174164445098,0.587082222549,1.),.UNSPECIFIED.);
#1118 = CARTESIAN_POINT('',(-55.21291475548,125.2749242527));
#1119 = CARTESIAN_POINT('',(-56.31035550849,124.5920850186));
#1120 = CARTESIAN_POINT('',(-57.42201273008,123.87734347362));
#1121 = CARTESIAN_POINT('',(-58.54655277985,123.13404548672));
#1122 = CARTESIAN_POINT('',(-59.68265371325,122.36553665992));
#1123 = CARTESIAN_POINT('',(-60.82900394304,121.57516209332));
#1124 = CARTESIAN_POINT('',(-61.9843009008,120.76626615246));
#1125 = CARTESIAN_POINT('',(-63.14724969834,119.94219223247));
#1126 = CARTESIAN_POINT('',(-64.31656178918,119.10628252579));
#1127 = CARTESIAN_POINT('',(-65.49095363,118.26187778666));
#1128 = CARTESIAN_POINT('',(-69.46246118162,115.39813612547));
#1129 = CARTESIAN_POINT('',(-73.46262890652,112.51372842471));
#1130 = CARTESIAN_POINT('',(-76.27342457144,110.51933124742));
#1131 = CARTESIAN_POINT('',(-79.0641335402,108.60348787586));
#1132 = CARTESIAN_POINT('',(-81.81848772447,106.81070337597));
#1133 = CARTESIAN_POINT('',(-84.52026302724,105.18553906294));
#1134 = CARTESIAN_POINT('',(-87.15261559459,103.7722697983));
#1135 = CARTESIAN_POINT('',(-89.69906269832,102.61490358796));
#1136 = CARTESIAN_POINT('',(-92.14530869274,101.75788230387));
#1137 = CARTESIAN_POINT('',(-96.81290166555,100.73733815454));
#1138 = CARTESIAN_POINT('',(-100.9621807827,101.30658132434));
#1139 = CARTESIAN_POINT('',(-102.8872937302,102.03969693282));
#1140 = CARTESIAN_POINT('',(-104.6601009467,103.26560092461));
#1141 = CARTESIAN_POINT('',(-106.1764930412,105.08660374535));
#1142 = CARTESIAN_POINT('',(-107.4711299195,107.36006003614));
#1143 = CARTESIAN_POINT('',(-108.5601487138,110.31654333503));
#1144 = CARTESIAN_POINT('',(-109.3851373429,113.88816363284));
#1145 = CARTESIAN_POINT('',(-109.9565691819,118.16806566155));
#1146 = CARTESIAN_POINT('',(-110.25,123.1897784602));
#1147 = CARTESIAN_POINT('',(-110.25,129.));
#1148 = ( GEOMETRIC_REPRESENTATION_CONTEXT(2) 
PARAMETRIC_REPRESENTATION_CONTEXT() REPRESENTATION_CONTEXT('2D SPACE',''
  ) );
#1149 = PCURVE('',#420,#1150);
#1150 = DEFINITIONAL_REPRESENTATION('',(#1151),#1155);
#1151 = LINE('',#1152,#1153);
#1152 = CARTESIAN_POINT('',(5.,0.));
#1153 = VECTOR('',#1154,1.);
#1154 = DIRECTION('',(0.,1.));
#1155 = ( GEOMETRIC_REPRESENTATION_CONTEXT(2) 
PARAMETRIC_REPRESENTATION_CONTEXT() REPRESENTATION_CONTEXT('2D SPACE',''
  ) );
#1156 = ORIENTED_EDGE('',*,*,#1157,.F.);
#1157 = EDGE_CURVE('',#800,#1081,#1158,.T.);
#1158 = SURFACE_CURVE('',#1159,(#1184,#1212),.PCURVE_S1.);
#1159 = B_SPLINE_CURVE_WITH_KNOTS('',9,(#1160,#1161,#1162,#1163,#1164,
    #1165,#1166,#1167,#1168,#1169,#1170,#1171,#1172,#1173,#1174,#1175,
    #1176,#1177,#1178,#1179,#1180,#1181,#1182,#1183),.UNSPECIFIED.,.F.,
  .F.,(10,7,7,10),(0.,0.5,0.75,1.),.UNSPECIFIED.);
#1160 = CARTESIAN_POINT('',(-2.5,0.,-57.75));
#1161 = CARTESIAN_POINT('',(-2.5,5.519128835381,-57.75));
#1162 = CARTESIAN_POINT('',(-2.5,12.317513798754,-57.1632678097));
#1163 = CARTESIAN_POINT('',(-2.5,20.128448321705,-56.02996345684));
#1164 = CARTESIAN_POINT('',(-2.5,28.696558505642,-54.39525826484));
#1165 = CARTESIAN_POINT('',(-2.5,37.766681419246,-52.30379270643));
#1166 = CARTESIAN_POINT('',(-2.5,47.081762526236,-49.79892038633));
#1167 = CARTESIAN_POINT('',(-2.5,56.384998595414,-46.92417848029));
#1168 = CARTESIAN_POINT('',(-2.5,69.939679370458,-42.12454819774));
#1169 = CARTESIAN_POINT('',(-2.5,82.31639420253,-36.69359375547));
#1170 = CARTESIAN_POINT('',(-2.5,86.278999347289,-34.81869803055));
#1171 = CARTESIAN_POINT('',(-2.5,90.046613928828,-32.88487240504));
#1172 = CARTESIAN_POINT('',(-2.5,93.587143354976,-30.89779169735));
#1173 = CARTESIAN_POINT('',(-2.5,96.868377330443,-28.86319301616));
#1174 = CARTESIAN_POINT('',(-2.5,99.85802719935,-26.78699704181));
#1175 = CARTESIAN_POINT('',(-2.5,105.18966447706,-22.56403383929));
#1176 = CARTESIAN_POINT('',(-2.5,109.0979642451,-18.22791292547));
#1177 = CARTESIAN_POINT('',(-2.5,110.66355993171,-16.03830180846));
#1178 = CARTESIAN_POINT('',(-2.5,111.8142319439,-13.83715214837));
#1179 = CARTESIAN_POINT('',(-2.5,112.504958076,-11.62314139361));
#1180 = CARTESIAN_POINT('',(-2.5,112.73067408695,-9.431134778497));
#1181 = CARTESIAN_POINT('',(-2.5,112.46269301897,-7.223396917097));
#1182 = CARTESIAN_POINT('',(-2.5,111.65624896126,-5.007112964953));
#1183 = CARTESIAN_POINT('',(-2.5,110.2749242527,-2.787085244514));
#1184 = PCURVE('',#46,#1185);
#1185 = DEFINITIONAL_REPRESENTATION('',(#1186),#1211);
#1186 = B_SPLINE_CURVE_WITH_KNOTS('',9,(#1187,#1188,#1189,#1190,#1191,
    #1192,#1193,#1194,#1195,#1196,#1197,#1198,#1199,#1200,#1201,#1202,
    #1203,#1204,#1205,#1206,#1207,#1208,#1209,#1210),.UNSPECIFIED.,.F.,
  .F.,(10,7,7,10),(0.,0.5,0.75,1.),.UNSPECIFIED.);
#1187 = CARTESIAN_POINT('',(-0.25,15.));
#1188 = CARTESIAN_POINT('',(-0.25,20.519128835381));
#1189 = CARTESIAN_POINT('',(-0.836732190293,27.317513798754));
#1190 = CARTESIAN_POINT('',(-1.970036543152,35.128448321705));
#1191 = CARTESIAN_POINT('',(-3.604741735157,43.696558505642));
#1192 = CARTESIAN_POINT('',(-5.696207293565,52.766681419246));
#1193 = CARTESIAN_POINT('',(-8.201079613661,62.081762526236));
#1194 = CARTESIAN_POINT('',(-11.0758215197,71.384998595414));
#1195 = CARTESIAN_POINT('',(-15.87545180226,84.939679370458));
#1196 = CARTESIAN_POINT('',(-21.30640624452,97.31639420253));
#1197 = CARTESIAN_POINT('',(-23.18130196944,101.27899934728));
#1198 = CARTESIAN_POINT('',(-25.11512759495,105.04661392882));
#1199 = CARTESIAN_POINT('',(-27.10220830264,108.58714335497));
#1200 = CARTESIAN_POINT('',(-29.13680698383,111.86837733044));
#1201 = CARTESIAN_POINT('',(-31.21300295818,114.85802719935));
#1202 = CARTESIAN_POINT('',(-35.43596616071,120.18966447706));
#1203 = CARTESIAN_POINT('',(-39.77208707452,124.0979642451));
#1204 = CARTESIAN_POINT('',(-41.96169819153,125.66355993171));
#1205 = CARTESIAN_POINT('',(-44.16284785162,126.8142319439));
#1206 = CARTESIAN_POINT('',(-46.37685860638,127.504958076));
#1207 = CARTESIAN_POINT('',(-48.5688652215,127.73067408695));
#1208 = CARTESIAN_POINT('',(-50.7766030829,127.46269301897));
#1209 = CARTESIAN_POINT('',(-52.99288703504,126.65624896126));
#1210 = CARTESIAN_POINT('',(-55.21291475548,125.2749242527));
#1211 = ( GEOMETRIC_REPRESENTATION_CONTEXT(2) 
PARAMETRIC_REPRESENTATION_CONTEXT() REPRESENTATION_CONTEXT('2D SPACE',''
  ) );
#1212 = PCURVE('',#295,#1213);
#1213 = DEFINITIONAL_REPRESENTATION('',(#1214),#1218);
#1214 = LINE('',#1215,#1216);
#1215 = CARTESIAN_POINT('',(5.,0.));
#1216 = VECTOR('',#1217,1.);
#1217 = DIRECTION('',(0.,1.));
#1218 = ( GEOMETRIC_REPRESENTATION_CONTEXT(2) 
PARAMETRIC_REPRESENTATION_CONTEXT() REPRESENTATION_CONTEXT('2D SPACE',''
  ) );
#1219 = ADVANCED_FACE('',(#1220),#127,.F.);
#1220 = FACE_BOUND('',#1221,.F.);
#1221 = EDGE_LOOP('',(#1222,#1223,#1224,#1225));
#1222 = ORIENTED_EDGE('',*,*,#866,.F.);
#1223 = ORIENTED_EDGE('',*,*,#115,.T.);
#1224 = ORIENTED_EDGE('',*,*,#712,.T.);
#1225 = ORIENTED_EDGE('',*,*,#1226,.F.);
#1226 = EDGE_CURVE('',#867,#575,#1227,.T.);
#1227 = SURFACE_CURVE('',#1228,(#1231,#1238),.PCURVE_S1.);
#1228 = B_SPLINE_CURVE_WITH_KNOTS('',1,(#1229,#1230),.UNSPECIFIED.,.F.,
  .F.,(2,2),(0.,5.),.PIECEWISE_BEZIER_KNOTS.);
#1229 = CARTESIAN_POINT('',(-2.5,110.69945477388,-2.522937867867));
#1230 = CARTESIAN_POINT('',(2.5,110.69945477388,-2.522937867867));
#1231 = PCURVE('',#127,#1232);
#1232 = DEFINITIONAL_REPRESENTATION('',(#1233),#1237);
#1233 = LINE('',#1234,#1235);
#1234 = CARTESIAN_POINT('',(0.,1.));
#1235 = VECTOR('',#1236,1.);
#1236 = DIRECTION('',(1.,0.));
#1237 = ( GEOMETRIC_REPRESENTATION_CONTEXT(2) 
PARAMETRIC_REPRESENTATION_CONTEXT() REPRESENTATION_CONTEXT('2D SPACE',''
  ) );
#1238 = PCURVE('',#644,#1239);
#1239 = DEFINITIONAL_REPRESENTATION('',(#1240),#1243);
#1240 = B_SPLINE_CURVE_WITH_KNOTS('',1,(#1241,#1242),.UNSPECIFIED.,.F.,
  .F.,(2,2),(0.,5.),.PIECEWISE_BEZIER_KNOTS.);
#1241 = CARTESIAN_POINT('',(0.,0.));
#1242 = CARTESIAN_POINT('',(5.,0.));
#1243 = ( GEOMETRIC_REPRESENTATION_CONTEXT(2) 
PARAMETRIC_REPRESENTATION_CONTEXT() REPRESENTATION_CONTEXT('2D SPACE',''
  ) );
#1244 = ADVANCED_FACE('',(#1245),#295,.F.);
#1245 = FACE_BOUND('',#1246,.F.);
#1246 = EDGE_LOOP('',(#1247,#1248,#1249,#1250));
#1247 = ORIENTED_EDGE('',*,*,#237,.F.);
#1248 = ORIENTED_EDGE('',*,*,#825,.T.);
#1249 = ORIENTED_EDGE('',*,*,#1157,.T.);
#1250 = ORIENTED_EDGE('',*,*,#1251,.F.);
#1251 = EDGE_CURVE('',#238,#1081,#1252,.T.);
#1252 = SURFACE_CURVE('',#1253,(#1256,#1263),.PCURVE_S1.);
#1253 = B_SPLINE_CURVE_WITH_KNOTS('',1,(#1254,#1255),.UNSPECIFIED.,.F.,
  .F.,(2,2),(0.,5.),.PIECEWISE_BEZIER_KNOTS.);
#1254 = CARTESIAN_POINT('',(2.5,110.2749242527,-2.787085244514));
#1255 = CARTESIAN_POINT('',(-2.5,110.2749242527,-2.787085244514));
#1256 = PCURVE('',#295,#1257);
#1257 = DEFINITIONAL_REPRESENTATION('',(#1258),#1262);
#1258 = LINE('',#1259,#1260);
#1259 = CARTESIAN_POINT('',(0.,1.));
#1260 = VECTOR('',#1261,1.);
#1261 = DIRECTION('',(1.,0.));
#1262 = ( GEOMETRIC_REPRESENTATION_CONTEXT(2) 
PARAMETRIC_REPRESENTATION_CONTEXT() REPRESENTATION_CONTEXT('2D SPACE',''
  ) );
#1263 = PCURVE('',#420,#1264);
#1264 = DEFINITIONAL_REPRESENTATION('',(#1265),#1268);
#1265 = B_SPLINE_CURVE_WITH_KNOTS('',1,(#1266,#1267),.UNSPECIFIED.,.F.,
  .F.,(2,2),(0.,5.),.PIECEWISE_BEZIER_KNOTS.);
#1266 = CARTESIAN_POINT('',(0.,0.));
#1267 = CARTESIAN_POINT('',(5.,0.));
#1268 = ( GEOMETRIC_REPRESENTATION_CONTEXT(2) 
PARAMETRIC_REPRESENTATION_CONTEXT() REPRESENTATION_CONTEXT('2D SPACE',''
  ) );
#1269 = ADVANCED_FACE('',(#1270),#644,.F.);
#1270 = FACE_BOUND('',#1271,.F.);
#1271 = EDGE_LOOP('',(#1272,#1273,#1274,#1275));
#1272 = ORIENTED_EDGE('',*,*,#931,.F.);
#1273 = ORIENTED_EDGE('',*,*,#1226,.T.);
#1274 = ORIENTED_EDGE('',*,*,#574,.T.);
#1275 = ORIENTED_EDGE('',*,*,#1276,.F.);
#1276 = EDGE_CURVE('',#932,#544,#1277,.T.);
#1277 = SURFACE_CURVE('',#1278,(#1281,#1288),.PCURVE_S1.);
#1278 = B_SPLINE_CURVE_WITH_KNOTS('',1,(#1279,#1280),.UNSPECIFIED.,.F.,
  .F.,(2,2),(0.,5.),.PIECEWISE_BEZIER_KNOTS.);
#1279 = CARTESIAN_POINT('',(-2.5,114.,51.75));
#1280 = CARTESIAN_POINT('',(2.5,114.,51.75));
#1281 = PCURVE('',#644,#1282);
#1282 = DEFINITIONAL_REPRESENTATION('',(#1283),#1287);
#1283 = LINE('',#1284,#1285);
#1284 = CARTESIAN_POINT('',(0.,1.));
#1285 = VECTOR('',#1286,1.);
#1286 = DIRECTION('',(1.,0.));
#1287 = ( GEOMETRIC_REPRESENTATION_CONTEXT(2) 
PARAMETRIC_REPRESENTATION_CONTEXT() REPRESENTATION_CONTEXT('2D SPACE',''
  ) );
#1288 = PCURVE('',#561,#1289);
#1289 = DEFINITIONAL_REPRESENTATION('',(#1290),#1293);
#1290 = B_SPLINE_CURVE_WITH_KNOTS('',1,(#1291,#1292),.UNSPECIFIED.,.F.,
  .F.,(2,2),(0.,5.),.PIECEWISE_BEZIER_KNOTS.);
#1291 = CARTESIAN_POINT('',(-2.5,-7.5));
#1292 = CARTESIAN_POINT('',(2.5,-7.5));
#1293 = ( GEOMETRIC_REPRESENTATION_CONTEXT(2) 
PARAMETRIC_REPRESENTATION_CONTEXT() REPRESENTATION_CONTEXT('2D SPACE',''
  ) );
#1294 = ADVANCED_FACE('',(#1295),#420,.F.);
#1295 = FACE_BOUND('',#1296,.F.);
#1296 = EDGE_LOOP('',(#1297,#1298,#1299,#1300));
#1297 = ORIENTED_EDGE('',*,*,#350,.F.);
#1298 = ORIENTED_EDGE('',*,*,#1251,.T.);
#1299 = ORIENTED_EDGE('',*,*,#1080,.T.);
#1300 = ORIENTED_EDGE('',*,*,#1301,.F.);
#1301 = EDGE_CURVE('',#351,#1055,#1302,.T.);
#1302 = SURFACE_CURVE('',#1303,(#1306,#1313),.PCURVE_S1.);
#1303 = B_SPLINE_CURVE_WITH_KNOTS('',1,(#1304,#1305),.UNSPECIFIED.,.F.,
  .F.,(2,2),(0.,5.),.PIECEWISE_BEZIER_KNOTS.);
#1304 = CARTESIAN_POINT('',(2.5,114.,52.25));
#1305 = CARTESIAN_POINT('',(-2.5,114.,52.25));
#1306 = PCURVE('',#420,#1307);
#1307 = DEFINITIONAL_REPRESENTATION('',(#1308),#1312);
#1308 = LINE('',#1309,#1310);
#1309 = CARTESIAN_POINT('',(0.,1.));
#1310 = VECTOR('',#1311,1.);
#1311 = DIRECTION('',(1.,0.));
#1312 = ( GEOMETRIC_REPRESENTATION_CONTEXT(2) 
PARAMETRIC_REPRESENTATION_CONTEXT() REPRESENTATION_CONTEXT('2D SPACE',''
  ) );
#1313 = PCURVE('',#505,#1314);
#1314 = DEFINITIONAL_REPRESENTATION('',(#1315),#1318);
#1315 = B_SPLINE_CURVE_WITH_KNOTS('',1,(#1316,#1317),.UNSPECIFIED.,.F.,
  .F.,(2,2),(0.,5.),.PIECEWISE_BEZIER_KNOTS.);
#1316 = CARTESIAN_POINT('',(-2.5,-7.5));
#1317 = CARTESIAN_POINT('',(2.5,-7.5));
#1318 = ( GEOMETRIC_REPRESENTATION_CONTEXT(2) 
PARAMETRIC_REPRESENTATION_CONTEXT() REPRESENTATION_CONTEXT('2D SPACE',''
  ) );
#1319 = ADVANCED_FACE('',(#1320),#561,.F.);
#1320 = FACE_BOUND('',#1321,.F.);
#1321 = EDGE_LOOP('',(#1322,#1323,#1324,#1325));
#1322 = ORIENTED_EDGE('',*,*,#1008,.F.);
#1323 = ORIENTED_EDGE('',*,*,#1276,.T.);
#1324 = ORIENTED_EDGE('',*,*,#543,.T.);
#1325 = ORIENTED_EDGE('',*,*,#1326,.F.);
#1326 = EDGE_CURVE('',#1009,#519,#1327,.T.);
#1327 = SURFACE_CURVE('',#1328,(#1331,#1337),.PCURVE_S1.);
#1328 = B_SPLINE_CURVE_WITH_KNOTS('',1,(#1329,#1330),.UNSPECIFIED.,.F.,
  .F.,(2,2),(0.,5.),.PIECEWISE_BEZIER_KNOTS.);
#1329 = CARTESIAN_POINT('',(-2.5,129.,51.75));
#1330 = CARTESIAN_POINT('',(2.5,129.,51.75));
#1331 = PCURVE('',#561,#1332);
#1332 = DEFINITIONAL_REPRESENTATION('',(#1333),#1336);
#1333 = B_SPLINE_CURVE_WITH_KNOTS('',1,(#1334,#1335),.UNSPECIFIED.,.F.,
  .F.,(2,2),(0.,5.),.PIECEWISE_BEZIER_KNOTS.);
#1334 = CARTESIAN_POINT('',(-2.5,7.5));
#1335 = CARTESIAN_POINT('',(2.5,7.5));
#1336 = ( GEOMETRIC_REPRESENTATION_CONTEXT(2) 
PARAMETRIC_REPRESENTATION_CONTEXT() REPRESENTATION_CONTEXT('2D SPACE',''
  ) );
#1337 = PCURVE('',#532,#1338);
#1338 = DEFINITIONAL_REPRESENTATION('',(#1339),#1342);
#1339 = B_SPLINE_CURVE_WITH_KNOTS('',1,(#1340,#1341),.UNSPECIFIED.,.F.,
  .F.,(2,2),(0.,5.),.PIECEWISE_BEZIER_KNOTS.);
#1340 = CARTESIAN_POINT('',(0.25,-2.5));
#1341 = CARTESIAN_POINT('',(0.25,2.5));
#1342 = ( GEOMETRIC_REPRESENTATION_CONTEXT(2) 
PARAMETRIC_REPRESENTATION_CONTEXT() REPRESENTATION_CONTEXT('2D SPACE',''
  ) );
#1343 = ADVANCED_FACE('',(#1344),#505,.F.);
#1344 = FACE_BOUND('',#1345,.F.);
#1345 = EDGE_LOOP('',(#1346,#1347,#1348,#1349));
#1346 = ORIENTED_EDGE('',*,*,#487,.F.);
#1347 = ORIENTED_EDGE('',*,*,#1301,.T.);
#1348 = ORIENTED_EDGE('',*,*,#1054,.T.);
#1349 = ORIENTED_EDGE('',*,*,#1350,.F.);
#1350 = EDGE_CURVE('',#488,#1035,#1351,.T.);
#1351 = SURFACE_CURVE('',#1352,(#1355,#1361),.PCURVE_S1.);
#1352 = B_SPLINE_CURVE_WITH_KNOTS('',1,(#1353,#1354),.UNSPECIFIED.,.F.,
  .F.,(2,2),(0.,5.),.PIECEWISE_BEZIER_KNOTS.);
#1353 = CARTESIAN_POINT('',(2.5,129.,52.25));
#1354 = CARTESIAN_POINT('',(-2.5,129.,52.25));
#1355 = PCURVE('',#505,#1356);
#1356 = DEFINITIONAL_REPRESENTATION('',(#1357),#1360);
#1357 = B_SPLINE_CURVE_WITH_KNOTS('',1,(#1358,#1359),.UNSPECIFIED.,.F.,
  .F.,(2,2),(0.,5.),.PIECEWISE_BEZIER_KNOTS.);
#1358 = CARTESIAN_POINT('',(-2.5,7.5));
#1359 = CARTESIAN_POINT('',(2.5,7.5));
#1360 = ( GEOMETRIC_REPRESENTATION_CONTEXT(2) 
PARAMETRIC_REPRESENTATION_CONTEXT() REPRESENTATION_CONTEXT('2D SPACE',''
  ) );
#1361 = PCURVE('',#532,#1362);
#1362 = DEFINITIONAL_REPRESENTATION('',(#1363),#1366);
#1363 = B_SPLINE_CURVE_WITH_KNOTS('',1,(#1364,#1365),.UNSPECIFIED.,.F.,
  .F.,(2,2),(0.,5.),.PIECEWISE_BEZIER_KNOTS.);
#1364 = CARTESIAN_POINT('',(-0.25,2.5));
#1365 = CARTESIAN_POINT('',(-0.25,-2.5));
#1366 = ( GEOMETRIC_REPRESENTATION_CONTEXT(2) 
PARAMETRIC_REPRESENTATION_CONTEXT() REPRESENTATION_CONTEXT('2D SPACE',''
  ) );
#1367 = ADVANCED_FACE('',(#1368),#73,.T.);
#1368 = FACE_BOUND('',#1369,.T.);
#1369 = EDGE_LOOP('',(#1370,#1371,#1372,#1373));
#1370 = ORIENTED_EDGE('',*,*,#59,.T.);
#1371 = ORIENTED_EDGE('',*,*,#186,.T.);
#1372 = ORIENTED_EDGE('',*,*,#779,.T.);
#1373 = ORIENTED_EDGE('',*,*,#847,.T.);
#1374 = ADVANCED_FACE('',(#1375),#532,.F.);
#1375 = FACE_BOUND('',#1376,.F.);
#1376 = EDGE_LOOP('',(#1377,#1378,#1379,#1380));
#1377 = ORIENTED_EDGE('',*,*,#1326,.T.);
#1378 = ORIENTED_EDGE('',*,*,#518,.T.);
#1379 = ORIENTED_EDGE('',*,*,#1350,.T.);
#1380 = ORIENTED_EDGE('',*,*,#1034,.T.);
#1381 = ( GEOMETRIC_REPRESENTATION_CONTEXT(3) 
GLOBAL_UNCERTAINTY_ASSIGNED_CONTEXT((#1385)) 
GLOBAL_UNIT_ASSIGNED_CONTEXT((#1382,#1383,#1384)) REPRESENTATION_CONTEXT
('Context #1','3D Context with UNIT and UNCERTAINTY') );
#1382 = ( LENGTH_UNIT() NAMED_UNIT(*) SI_UNIT(.MILLI.,.METRE.) );
#1383 = ( NAMED_UNIT(*) PLANE_ANGLE_UNIT() SI_UNIT($,.RADIAN.) );
#1384 = ( NAMED_UNIT(*) SI_UNIT($,.STERADIAN.) SOLID_ANGLE_UNIT() );
#1385 = UNCERTAINTY_MEASURE_WITH_UNIT(LENGTH_MEASURE(2.E-05),#1382,
  'distance_accuracy_value','confusion accuracy');
#1386 = PRODUCT_RELATED_PRODUCT_CATEGORY('part',$,(#7));
ENDSEC;
END-ISO-10303-21;
