ISO-10303-21;
HEADER;
FILE_DESCRIPTION(('Open CASCADE Model'),'2;1');
FILE_NAME('Open CASCADE Shape Model','2026-06-24T16:58:50',('Author'),(
    'Open CASCADE'),'Open CASCADE STEP processor 7.8','Open CASCADE 7.8'
  ,'Unknown');
FILE_SCHEMA(('AUTOMOTIVE_DESIGN { 1 0 10303 214 1 1 1 1 }'));
ENDSEC;
DATA;
#1 = APPLICATION_PROTOCOL_DEFINITION('international standard',
  'automotive_design',2000,#2);
#2 = APPLICATION_CONTEXT(
  'core data for automotive mechanical design processes');
#3 = SHAPE_DEFINITION_REPRESENTATION(#4,#10);
#4 = PRODUCT_DEFINITION_SHAPE('','',#5);
#5 = PRODUCT_DEFINITION('design','',#6,#9);
#6 = PRODUCT_DEFINITION_FORMATION('','',#7);
#7 = PRODUCT('Open CASCADE STEP translator 7.8 2',
  'Open CASCADE STEP translator 7.8 2','',(#8));
#8 = PRODUCT_CONTEXT('',#2,'mechanical');
#9 = PRODUCT_DEFINITION_CONTEXT('part definition',#2,'design');
#10 = ADVANCED_BREP_SHAPE_REPRESENTATION('',(#11,#15),#1237);
#11 = AXIS2_PLACEMENT_3D('',#12,#13,#14);
#12 = CARTESIAN_POINT('',(0.,0.,0.));
#13 = DIRECTION('',(0.,0.,1.));
#14 = DIRECTION('',(1.,0.,-0.));
#15 = MANIFOLD_SOLID_BREP('',#16);
#16 = CLOSED_SHELL('',(#17,#187,#678,#746,#1075,#1100,#1125,#1150,#1175,
    #1199,#1223,#1230));
#17 = ADVANCED_FACE('',(#18),#33,.F.);
#18 = FACE_BOUND('',#19,.F.);
#19 = EDGE_LOOP('',(#20,#58,#83,#114));
#20 = ORIENTED_EDGE('',*,*,#21,.F.);
#21 = EDGE_CURVE('',#22,#24,#26,.T.);
#22 = VERTEX_POINT('',#23);
#23 = CARTESIAN_POINT('',(-2.5,-30.,-58.25));
#24 = VERTEX_POINT('',#25);
#25 = CARTESIAN_POINT('',(-2.5,3.552713678801E-15,-58.25));
#26 = SURFACE_CURVE('',#27,(#32,#45),.PCURVE_S1.);
#27 = B_SPLINE_CURVE_WITH_KNOTS('',3,(#28,#29,#30,#31),.UNSPECIFIED.,.F.
  ,.F.,(4,4),(0.,1.),.PIECEWISE_BEZIER_KNOTS.);
#28 = CARTESIAN_POINT('',(-2.5,-30.,-58.25));
#29 = CARTESIAN_POINT('',(-2.5,-29.9,-58.25));
#30 = CARTESIAN_POINT('',(-2.5,-1.E-01,-58.25));
#31 = CARTESIAN_POINT('',(-2.5,8.881784197001E-15,-58.25));
#32 = PCURVE('',#33,#38);
#33 = PLANE('',#34);
#34 = AXIS2_PLACEMENT_3D('',#35,#36,#37);
#35 = CARTESIAN_POINT('',(0.,-15.,-58.25));
#36 = DIRECTION('',(4.932693372219E-16,2.595152322496E-16,1.));
#37 = DIRECTION('',(1.,5.020246460856E-19,-4.932693372219E-16));
#38 = DEFINITIONAL_REPRESENTATION('',(#39),#44);
#39 = B_SPLINE_CURVE_WITH_KNOTS('',3,(#40,#41,#42,#43),.UNSPECIFIED.,.F.
  ,.F.,(4,4),(0.,1.),.PIECEWISE_BEZIER_KNOTS.);
#40 = CARTESIAN_POINT('',(-2.5,-15.));
#41 = CARTESIAN_POINT('',(-2.5,-14.9));
#42 = CARTESIAN_POINT('',(-2.5,14.9));
#43 = CARTESIAN_POINT('',(-2.5,15.));
#44 = ( GEOMETRIC_REPRESENTATION_CONTEXT(2) 
PARAMETRIC_REPRESENTATION_CONTEXT() REPRESENTATION_CONTEXT('2D SPACE',''
  ) );
#45 = PCURVE('',#46,#51);
#46 = PLANE('',#47);
#47 = AXIS2_PLACEMENT_3D('',#48,#49,#50);
#48 = CARTESIAN_POINT('',(-2.5,-15.,-58.));
#49 = DIRECTION('',(1.,4.004753648206E-18,3.113227280483E-29));
#50 = DIRECTION('',(3.113267567597E-29,-1.005982338525E-16,-1.));
#51 = DEFINITIONAL_REPRESENTATION('',(#52),#57);
#52 = B_SPLINE_CURVE_WITH_KNOTS('',3,(#53,#54,#55,#56),.UNSPECIFIED.,.F.
  ,.F.,(4,4),(0.,1.),.PIECEWISE_BEZIER_KNOTS.);
#53 = CARTESIAN_POINT('',(0.25,-15.));
#54 = CARTESIAN_POINT('',(0.25,-14.9));
#55 = CARTESIAN_POINT('',(0.25,14.9));
#56 = CARTESIAN_POINT('',(0.25,15.));
#57 = ( GEOMETRIC_REPRESENTATION_CONTEXT(2) 
PARAMETRIC_REPRESENTATION_CONTEXT() REPRESENTATION_CONTEXT('2D SPACE',''
  ) );
#58 = ORIENTED_EDGE('',*,*,#59,.T.);
#59 = EDGE_CURVE('',#22,#60,#62,.T.);
#60 = VERTEX_POINT('',#61);
#61 = CARTESIAN_POINT('',(2.5,-30.,-58.25));
#62 = SURFACE_CURVE('',#63,(#66,#72),.PCURVE_S1.);
#63 = B_SPLINE_CURVE_WITH_KNOTS('',1,(#64,#65),.UNSPECIFIED.,.F.,.F.,(2,
    2),(0.,5.),.PIECEWISE_BEZIER_KNOTS.);
#64 = CARTESIAN_POINT('',(-2.5,-30.,-58.25));
#65 = CARTESIAN_POINT('',(2.5,-30.,-58.25));
#66 = PCURVE('',#33,#67);
#67 = DEFINITIONAL_REPRESENTATION('',(#68),#71);
#68 = B_SPLINE_CURVE_WITH_KNOTS('',1,(#69,#70),.UNSPECIFIED.,.F.,.F.,(2,
    2),(0.,5.),.PIECEWISE_BEZIER_KNOTS.);
#69 = CARTESIAN_POINT('',(-2.5,-15.));
#70 = CARTESIAN_POINT('',(2.5,-15.));
#71 = ( GEOMETRIC_REPRESENTATION_CONTEXT(2) 
PARAMETRIC_REPRESENTATION_CONTEXT() REPRESENTATION_CONTEXT('2D SPACE',''
  ) );
#72 = PCURVE('',#73,#78);
#73 = PLANE('',#74);
#74 = AXIS2_PLACEMENT_3D('',#75,#76,#77);
#75 = CARTESIAN_POINT('',(0.,-30.,-58.));
#76 = DIRECTION('',(-0.,-1.,-0.));
#77 = DIRECTION('',(0.,0.,-1.));
#78 = DEFINITIONAL_REPRESENTATION('',(#79),#82);
#79 = B_SPLINE_CURVE_WITH_KNOTS('',1,(#80,#81),.UNSPECIFIED.,.F.,.F.,(2,
    2),(0.,5.),.PIECEWISE_BEZIER_KNOTS.);
#80 = CARTESIAN_POINT('',(0.25,-2.5));
#81 = CARTESIAN_POINT('',(0.25,2.5));
#82 = ( GEOMETRIC_REPRESENTATION_CONTEXT(2) 
PARAMETRIC_REPRESENTATION_CONTEXT() REPRESENTATION_CONTEXT('2D SPACE',''
  ) );
#83 = ORIENTED_EDGE('',*,*,#84,.T.);
#84 = EDGE_CURVE('',#60,#85,#87,.T.);
#85 = VERTEX_POINT('',#86);
#86 = CARTESIAN_POINT('',(2.5,3.552713678801E-15,-58.25));
#87 = SURFACE_CURVE('',#88,(#93,#101),.PCURVE_S1.);
#88 = B_SPLINE_CURVE_WITH_KNOTS('',3,(#89,#90,#91,#92),.UNSPECIFIED.,.F.
  ,.F.,(4,4),(0.,1.),.PIECEWISE_BEZIER_KNOTS.);
#89 = CARTESIAN_POINT('',(2.5,-30.,-58.25));
#90 = CARTESIAN_POINT('',(2.5,-29.9,-58.25));
#91 = CARTESIAN_POINT('',(2.5,-1.E-01,-58.25));
#92 = CARTESIAN_POINT('',(2.5,8.881784197001E-15,-58.25));
#93 = PCURVE('',#33,#94);
#94 = DEFINITIONAL_REPRESENTATION('',(#95),#100);
#95 = B_SPLINE_CURVE_WITH_KNOTS('',3,(#96,#97,#98,#99),.UNSPECIFIED.,.F.
  ,.F.,(4,4),(0.,1.),.PIECEWISE_BEZIER_KNOTS.);
#96 = CARTESIAN_POINT('',(2.5,-15.));
#97 = CARTESIAN_POINT('',(2.5,-14.9));
#98 = CARTESIAN_POINT('',(2.5,14.9));
#99 = CARTESIAN_POINT('',(2.5,15.));
#100 = ( GEOMETRIC_REPRESENTATION_CONTEXT(2) 
PARAMETRIC_REPRESENTATION_CONTEXT() REPRESENTATION_CONTEXT('2D SPACE',''
  ) );
#101 = PCURVE('',#102,#107);
#102 = PLANE('',#103);
#103 = AXIS2_PLACEMENT_3D('',#104,#105,#106);
#104 = CARTESIAN_POINT('',(2.5,-15.,-58.));
#105 = DIRECTION('',(-1.,4.004753648206E-18,-3.667299966757E-29));
#106 = DIRECTION('',(-3.667259728863E-29,1.004753282522E-16,1.));
#107 = DEFINITIONAL_REPRESENTATION('',(#108),#113);
#108 = B_SPLINE_CURVE_WITH_KNOTS('',3,(#109,#110,#111,#112),
  .UNSPECIFIED.,.F.,.F.,(4,4),(0.,1.),.PIECEWISE_BEZIER_KNOTS.);
#109 = CARTESIAN_POINT('',(-0.25,-15.));
#110 = CARTESIAN_POINT('',(-0.25,-14.9));
#111 = CARTESIAN_POINT('',(-0.25,14.9));
#112 = CARTESIAN_POINT('',(-0.25,15.));
#113 = ( GEOMETRIC_REPRESENTATION_CONTEXT(2) 
PARAMETRIC_REPRESENTATION_CONTEXT() REPRESENTATION_CONTEXT('2D SPACE',''
  ) );
#114 = ORIENTED_EDGE('',*,*,#115,.F.);
#115 = EDGE_CURVE('',#24,#85,#116,.T.);
#116 = SURFACE_CURVE('',#117,(#120,#126),.PCURVE_S1.);
#117 = B_SPLINE_CURVE_WITH_KNOTS('',1,(#118,#119),.UNSPECIFIED.,.F.,.F.,
  (2,2),(0.,5.),.PIECEWISE_BEZIER_KNOTS.);
#118 = CARTESIAN_POINT('',(-2.5,8.881784197001E-15,-58.25));
#119 = CARTESIAN_POINT('',(2.5,8.881784197001E-15,-58.25));
#120 = PCURVE('',#33,#121);
#121 = DEFINITIONAL_REPRESENTATION('',(#122),#125);
#122 = B_SPLINE_CURVE_WITH_KNOTS('',1,(#123,#124),.UNSPECIFIED.,.F.,.F.,
  (2,2),(0.,5.),.PIECEWISE_BEZIER_KNOTS.);
#123 = CARTESIAN_POINT('',(-2.5,15.));
#124 = CARTESIAN_POINT('',(2.5,15.));
#125 = ( GEOMETRIC_REPRESENTATION_CONTEXT(2) 
PARAMETRIC_REPRESENTATION_CONTEXT() REPRESENTATION_CONTEXT('2D SPACE',''
  ) );
#126 = PCURVE('',#127,#182);
#127 = B_SPLINE_SURFACE_WITH_KNOTS('',1,10,(
    (#128,#129,#130,#131,#132,#133,#134,#135,#136,#137,#138,#139,#140
      ,#141,#142,#143,#144,#145,#146,#147,#148,#149,#150,#151,#152,#153
      ,#154)
    ,(#155,#156,#157,#158,#159,#160,#161,#162,#163,#164,#165,#166,#167
      ,#168,#169,#170,#171,#172,#173,#174,#175,#176,#177,#178,#179,#180
      ,#181)),.UNSPECIFIED.,.F.,.F.,.F.,(2,2),(11,8,8,11),(0.,5.),(0.,
    0.209393204226,0.604696602113,1.),.UNSPECIFIED.);
#128 = CARTESIAN_POINT('',(-2.5,0.,-58.25));
#129 = CARTESIAN_POINT('',(-2.5,3.203915947247,-58.24999999999));
#130 = CARTESIAN_POINT('',(-2.5,6.335791605096,-58.29855151935));
#131 = CARTESIAN_POINT('',(-2.499999999999,9.392907712555,
    -58.38869933563));
#132 = CARTESIAN_POINT('',(-2.500000000001,12.372544210339,
    -58.51348847496));
#133 = CARTESIAN_POINT('',(-2.499999999999,15.271982956101,
    -58.66596376186));
#134 = CARTESIAN_POINT('',(-2.500000000001,18.088510439845,
    -58.83916937035));
#135 = CARTESIAN_POINT('',(-2.5,20.819420499126,-59.02614837346));
#136 = CARTESIAN_POINT('',(-2.5,23.46201703444,-59.21994229422));
#137 = CARTESIAN_POINT('',(-2.5,30.83065952801,-59.77917011907));
#138 = CARTESIAN_POINT('',(-2.5,37.418167714038,-60.27911537729));
#139 = CARTESIAN_POINT('',(-2.5,41.37229831764,-60.53599974622));
#140 = CARTESIAN_POINT('',(-2.5,44.961001524239,-60.65970853007));
#141 = CARTESIAN_POINT('',(-2.5,48.148014695575,-60.65756877401));
#142 = CARTESIAN_POINT('',(-2.5,50.967326287104,-60.37394573692));
#143 = CARTESIAN_POINT('',(-2.5,53.310081131623,-59.89940592731));
#144 = CARTESIAN_POINT('',(-2.5,55.29022781691,-59.07832285331));
#145 = CARTESIAN_POINT('',(-2.5,58.294219649728,-56.64057797025));
#146 = CARTESIAN_POINT('',(-2.5,59.271466863411,-52.55728105819));
#147 = CARTESIAN_POINT('',(-2.5,59.217236126888,-50.08802674717));
#148 = CARTESIAN_POINT('',(-2.5,58.663530471499,-47.18864859248));
#149 = CARTESIAN_POINT('',(-2.5,57.574846609546,-43.69073673996));
#150 = CARTESIAN_POINT('',(-2.5,55.919148043071,-39.66303498258));
#151 = CARTESIAN_POINT('',(-2.5,53.699383571795,-34.97426275457));
#152 = CARTESIAN_POINT('',(-2.5,50.883009796817,-29.61539106927));
#153 = CARTESIAN_POINT('',(-2.5,47.456152546817,-23.5277028214));
#154 = CARTESIAN_POINT('',(-2.5,43.399543734979,-16.66539270201));
#155 = CARTESIAN_POINT('',(2.5,0.,-58.25));
#156 = CARTESIAN_POINT('',(2.5,3.203915947247,-58.24999999999));
#157 = CARTESIAN_POINT('',(2.5,6.335791605096,-58.29855151935));
#158 = CARTESIAN_POINT('',(2.499999999999,9.392907712555,-58.38869933563
    ));
#159 = CARTESIAN_POINT('',(2.500000000001,12.372544210339,
    -58.51348847496));
#160 = CARTESIAN_POINT('',(2.499999999999,15.271982956101,
    -58.66596376186));
#161 = CARTESIAN_POINT('',(2.500000000001,18.088510439845,
    -58.83916937035));
#162 = CARTESIAN_POINT('',(2.5,20.819420499126,-59.02614837346));
#163 = CARTESIAN_POINT('',(2.5,23.46201703444,-59.21994229422));
#164 = CARTESIAN_POINT('',(2.5,30.83065952801,-59.77917011907));
#165 = CARTESIAN_POINT('',(2.5,37.418167714037,-60.27911537729));
#166 = CARTESIAN_POINT('',(2.5,41.37229831764,-60.53599974622));
#167 = CARTESIAN_POINT('',(2.5,44.961001524238,-60.65970853007));
#168 = CARTESIAN_POINT('',(2.5,48.148014695575,-60.65756877401));
#169 = CARTESIAN_POINT('',(2.5,50.967326287104,-60.37394573692));
#170 = CARTESIAN_POINT('',(2.5,53.310081131623,-59.89940592731));
#171 = CARTESIAN_POINT('',(2.5,55.29022781691,-59.07832285331));
#172 = CARTESIAN_POINT('',(2.5,58.294219649728,-56.64057797025));
#173 = CARTESIAN_POINT('',(2.5,59.271466863411,-52.55728105819));
#174 = CARTESIAN_POINT('',(2.5,59.217236126888,-50.08802674717));
#175 = CARTESIAN_POINT('',(2.5,58.663530471499,-47.18864859247));
#176 = CARTESIAN_POINT('',(2.5,57.574846609546,-43.69073673996));
#177 = CARTESIAN_POINT('',(2.5,55.919148043072,-39.66303498257));
#178 = CARTESIAN_POINT('',(2.5,53.699383571795,-34.97426275457));
#179 = CARTESIAN_POINT('',(2.5,50.883009796817,-29.61539106927));
#180 = CARTESIAN_POINT('',(2.5,47.456152546817,-23.5277028214));
#181 = CARTESIAN_POINT('',(2.5,43.399543734979,-16.66539270201));
#182 = DEFINITIONAL_REPRESENTATION('',(#183),#186);
#183 = B_SPLINE_CURVE_WITH_KNOTS('',1,(#184,#185),.UNSPECIFIED.,.F.,.F.,
  (2,2),(0.,5.),.PIECEWISE_BEZIER_KNOTS.);
#184 = CARTESIAN_POINT('',(0.,0.));
#185 = CARTESIAN_POINT('',(5.,0.));
#186 = ( GEOMETRIC_REPRESENTATION_CONTEXT(2) 
PARAMETRIC_REPRESENTATION_CONTEXT() REPRESENTATION_CONTEXT('2D SPACE',''
  ) );
#187 = ADVANCED_FACE('',(#188),#102,.F.);
#188 = FACE_BOUND('',#189,.F.);
#189 = EDGE_LOOP('',(#190,#191,#211,#242,#367,#444,#475,#500,#531,#609)
  );
#190 = ORIENTED_EDGE('',*,*,#84,.F.);
#191 = ORIENTED_EDGE('',*,*,#192,.T.);
#192 = EDGE_CURVE('',#60,#193,#195,.T.);
#193 = VERTEX_POINT('',#194);
#194 = CARTESIAN_POINT('',(2.5,-30.,-57.75));
#195 = SURFACE_CURVE('',#196,(#199,#205),.PCURVE_S1.);
#196 = B_SPLINE_CURVE_WITH_KNOTS('',1,(#197,#198),.UNSPECIFIED.,.F.,.F.,
  (2,2),(0.,0.5),.PIECEWISE_BEZIER_KNOTS.);
#197 = CARTESIAN_POINT('',(2.5,-30.,-58.25));
#198 = CARTESIAN_POINT('',(2.5,-30.,-57.75));
#199 = PCURVE('',#102,#200);
#200 = DEFINITIONAL_REPRESENTATION('',(#201),#204);
#201 = B_SPLINE_CURVE_WITH_KNOTS('',1,(#202,#203),.UNSPECIFIED.,.F.,.F.,
  (2,2),(0.,0.5),.PIECEWISE_BEZIER_KNOTS.);
#202 = CARTESIAN_POINT('',(-0.25,-15.));
#203 = CARTESIAN_POINT('',(0.25,-15.));
#204 = ( GEOMETRIC_REPRESENTATION_CONTEXT(2) 
PARAMETRIC_REPRESENTATION_CONTEXT() REPRESENTATION_CONTEXT('2D SPACE',''
  ) );
#205 = PCURVE('',#73,#206);
#206 = DEFINITIONAL_REPRESENTATION('',(#207),#210);
#207 = B_SPLINE_CURVE_WITH_KNOTS('',1,(#208,#209),.UNSPECIFIED.,.F.,.F.,
  (2,2),(0.,0.5),.PIECEWISE_BEZIER_KNOTS.);
#208 = CARTESIAN_POINT('',(0.25,2.5));
#209 = CARTESIAN_POINT('',(-0.25,2.5));
#210 = ( GEOMETRIC_REPRESENTATION_CONTEXT(2) 
PARAMETRIC_REPRESENTATION_CONTEXT() REPRESENTATION_CONTEXT('2D SPACE',''
  ) );
#211 = ORIENTED_EDGE('',*,*,#212,.T.);
#212 = EDGE_CURVE('',#193,#213,#215,.T.);
#213 = VERTEX_POINT('',#214);
#214 = CARTESIAN_POINT('',(2.5,3.552713678801E-15,-57.75));
#215 = SURFACE_CURVE('',#216,(#221,#229),.PCURVE_S1.);
#216 = B_SPLINE_CURVE_WITH_KNOTS('',3,(#217,#218,#219,#220),
  .UNSPECIFIED.,.F.,.F.,(4,4),(0.,1.),.PIECEWISE_BEZIER_KNOTS.);
#217 = CARTESIAN_POINT('',(2.5,-30.,-57.75));
#218 = CARTESIAN_POINT('',(2.5,-29.9,-57.75));
#219 = CARTESIAN_POINT('',(2.5,-1.E-01,-57.75));
#220 = CARTESIAN_POINT('',(2.5,8.881784197001E-15,-57.75));
#221 = PCURVE('',#102,#222);
#222 = DEFINITIONAL_REPRESENTATION('',(#223),#228);
#223 = B_SPLINE_CURVE_WITH_KNOTS('',3,(#224,#225,#226,#227),
  .UNSPECIFIED.,.F.,.F.,(4,4),(0.,1.),.PIECEWISE_BEZIER_KNOTS.);
#224 = CARTESIAN_POINT('',(0.25,-15.));
#225 = CARTESIAN_POINT('',(0.25,-14.9));
#226 = CARTESIAN_POINT('',(0.25,14.9));
#227 = CARTESIAN_POINT('',(0.25,15.));
#228 = ( GEOMETRIC_REPRESENTATION_CONTEXT(2) 
PARAMETRIC_REPRESENTATION_CONTEXT() REPRESENTATION_CONTEXT('2D SPACE',''
  ) );
#229 = PCURVE('',#230,#235);
#230 = PLANE('',#231);
#231 = AXIS2_PLACEMENT_3D('',#232,#233,#234);
#232 = CARTESIAN_POINT('',(0.,-15.,-57.75));
#233 = DIRECTION('',(1.099326274751E-32,-2.392795699406E-17,-1.));
#234 = DIRECTION('',(-1.,5.020246460857E-19,-1.100527517165E-32));
#235 = DEFINITIONAL_REPRESENTATION('',(#236),#241);
#236 = B_SPLINE_CURVE_WITH_KNOTS('',3,(#237,#238,#239,#240),
  .UNSPECIFIED.,.F.,.F.,(4,4),(0.,1.),.PIECEWISE_BEZIER_KNOTS.);
#237 = CARTESIAN_POINT('',(-2.5,-15.));
#238 = CARTESIAN_POINT('',(-2.5,-14.9));
#239 = CARTESIAN_POINT('',(-2.5,14.9));
#240 = CARTESIAN_POINT('',(-2.5,15.));
#241 = ( GEOMETRIC_REPRESENTATION_CONTEXT(2) 
PARAMETRIC_REPRESENTATION_CONTEXT() REPRESENTATION_CONTEXT('2D SPACE',''
  ) );
#242 = ORIENTED_EDGE('',*,*,#243,.T.);
#243 = EDGE_CURVE('',#213,#244,#246,.T.);
#244 = VERTEX_POINT('',#245);
#245 = CARTESIAN_POINT('',(2.5,42.969124633586,-16.91983208016));
#246 = SURFACE_CURVE('',#247,(#275,#306),.PCURVE_S1.);
#247 = B_SPLINE_CURVE_WITH_KNOTS('',10,(#248,#249,#250,#251,#252,#253,
    #254,#255,#256,#257,#258,#259,#260,#261,#262,#263,#264,#265,#266,
    #267,#268,#269,#270,#271,#272,#273,#274),.UNSPECIFIED.,.F.,.F.,(11,8
    ,8,11),(0.,0.209393204226,0.604696602113,1.),.UNSPECIFIED.);
#248 = CARTESIAN_POINT('',(2.5,1.7763568394E-15,-57.75));
#249 = CARTESIAN_POINT('',(2.5,3.210735159757,-57.74999999999));
#250 = CARTESIAN_POINT('',(2.5,6.34886840718,-57.79865485638));
#251 = CARTESIAN_POINT('',(2.499999999999,9.411646746093,-57.88898152396
    ));
#252 = CARTESIAN_POINT('',(2.500000000001,12.396317978672,
    -58.01399670935));
#253 = CARTESIAN_POINT('',(2.499999999999,15.300127990055,
    -58.16671732011));
#254 = CARTESIAN_POINT('',(2.500000000001,18.120318033154,
    -58.34016091517));
#255 = CARTESIAN_POINT('',(2.5,20.854122013214,-58.52734615361));
#256 = CARTESIAN_POINT('',(2.5,23.498763772619,-58.72129324511));
#257 = CARTESIAN_POINT('',(2.5,30.870556661129,-59.28076016265));
#258 = CARTESIAN_POINT('',(2.5,37.452117367489,-59.78025404924));
#259 = CARTESIAN_POINT('',(2.5,41.398549264863,-60.03198022968));
#260 = CARTESIAN_POINT('',(2.5,44.965243757983,-60.17835677923));
#261 = CARTESIAN_POINT('',(2.5,48.151644620542,-60.11827612118));
#262 = CARTESIAN_POINT('',(2.5,50.886944532522,-59.91359246523));
#263 = CARTESIAN_POINT('',(2.5,53.243179796587,-59.3799587714));
#264 = CARTESIAN_POINT('',(2.5,55.069582960379,-58.57922100006));
#265 = CARTESIAN_POINT('',(2.5,57.820172577627,-56.35846844574));
#266 = CARTESIAN_POINT('',(2.5,58.733194859559,-52.57843430109));
#267 = CARTESIAN_POINT('',(2.5,58.729663490739,-50.22103414747));
#268 = CARTESIAN_POINT('',(2.5,58.185891323015,-47.30498836972));
#269 = CARTESIAN_POINT('',(2.5,57.100562779641,-43.90492629061));
#270 = CARTESIAN_POINT('',(2.5,55.468895493872,-39.8583235856));
#271 = CARTESIAN_POINT('',(2.5,53.251121801567,-35.20268028906));
#272 = CARTESIAN_POINT('',(2.5,50.44296623697,-29.85324485615));
#273 = CARTESIAN_POINT('',(2.5,47.021484106897,-23.77495386069));
#274 = CARTESIAN_POINT('',(2.5,42.969124633586,-16.91983208016));
#275 = PCURVE('',#102,#276);
#276 = DEFINITIONAL_REPRESENTATION('',(#277),#305);
#277 = B_SPLINE_CURVE_WITH_KNOTS('',10,(#278,#279,#280,#281,#282,#283,
    #284,#285,#286,#287,#288,#289,#290,#291,#292,#293,#294,#295,#296,
    #297,#298,#299,#300,#301,#302,#303,#304),.UNSPECIFIED.,.F.,.F.,(11,8
    ,8,11),(0.,0.209393204226,0.604696602113,1.),.UNSPECIFIED.);
#278 = CARTESIAN_POINT('',(0.25,15.));
#279 = CARTESIAN_POINT('',(0.250000000003,18.210735159757));
#280 = CARTESIAN_POINT('',(0.20134514362,21.34886840718));
#281 = CARTESIAN_POINT('',(0.11101847604,24.411646746093));
#282 = CARTESIAN_POINT('',(-1.399670935199E-02,27.396317978672));
#283 = CARTESIAN_POINT('',(-0.166717320119,30.300127990055));
#284 = CARTESIAN_POINT('',(-0.340160915173,33.120318033154));
#285 = CARTESIAN_POINT('',(-0.527346153615,35.854122013214));
#286 = CARTESIAN_POINT('',(-0.72129324511,38.498763772619));
#287 = CARTESIAN_POINT('',(-1.280760162649,45.870556661128));
#288 = CARTESIAN_POINT('',(-1.780254049244,52.452117367489));
#289 = CARTESIAN_POINT('',(-2.031980229683,56.398549264863));
#290 = CARTESIAN_POINT('',(-2.178356779232,59.965243757983));
#291 = CARTESIAN_POINT('',(-2.118276121183,63.151644620542));
#292 = CARTESIAN_POINT('',(-1.913592465239,65.886944532522));
#293 = CARTESIAN_POINT('',(-1.379958771407,68.243179796587));
#294 = CARTESIAN_POINT('',(-0.579221000064,70.069582960379));
#295 = CARTESIAN_POINT('',(1.641531554259,72.820172577627));
#296 = CARTESIAN_POINT('',(5.421565698906,73.733194859559));
#297 = CARTESIAN_POINT('',(7.778965852523,73.729663490739));
#298 = CARTESIAN_POINT('',(10.695011630272,73.185891323015));
#299 = CARTESIAN_POINT('',(14.095073709388,72.100562779641));
#300 = CARTESIAN_POINT('',(18.141676414396,70.468895493872));
#301 = CARTESIAN_POINT('',(22.797319710932,68.251121801567));
#302 = CARTESIAN_POINT('',(28.146755143844,65.44296623697));
#303 = CARTESIAN_POINT('',(34.225046139303,62.021484106897));
#304 = CARTESIAN_POINT('',(41.080167919834,57.969124633586));
#305 = ( GEOMETRIC_REPRESENTATION_CONTEXT(2) 
PARAMETRIC_REPRESENTATION_CONTEXT() REPRESENTATION_CONTEXT('2D SPACE',''
  ) );
#306 = PCURVE('',#307,#362);
#307 = B_SPLINE_SURFACE_WITH_KNOTS('',1,10,(
    (#308,#309,#310,#311,#312,#313,#314,#315,#316,#317,#318,#319,#320
      ,#321,#322,#323,#324,#325,#326,#327,#328,#329,#330,#331,#332,#333
      ,#334)
    ,(#335,#336,#337,#338,#339,#340,#341,#342,#343,#344,#345,#346,#347
      ,#348,#349,#350,#351,#352,#353,#354,#355,#356,#357,#358,#359,#360
      ,#361)),.UNSPECIFIED.,.F.,.F.,.F.,(2,2),(11,8,8,11),(0.,5.),(0.,
    0.209393204226,0.604696602113,1.),.UNSPECIFIED.);
#308 = CARTESIAN_POINT('',(2.5,1.7763568394E-15,-57.75));
#309 = CARTESIAN_POINT('',(2.5,3.210735159757,-57.74999999999));
#310 = CARTESIAN_POINT('',(2.5,6.34886840718,-57.79865485638));
#311 = CARTESIAN_POINT('',(2.499999999999,9.411646746093,-57.88898152396
    ));
#312 = CARTESIAN_POINT('',(2.500000000001,12.396317978672,
    -58.01399670935));
#313 = CARTESIAN_POINT('',(2.499999999999,15.300127990055,
    -58.16671732011));
#314 = CARTESIAN_POINT('',(2.500000000001,18.120318033154,
    -58.34016091517));
#315 = CARTESIAN_POINT('',(2.5,20.854122013214,-58.52734615361));
#316 = CARTESIAN_POINT('',(2.5,23.498763772619,-58.72129324511));
#317 = CARTESIAN_POINT('',(2.5,30.870556661129,-59.28076016265));
#318 = CARTESIAN_POINT('',(2.5,37.452117367489,-59.78025404924));
#319 = CARTESIAN_POINT('',(2.5,41.398549264863,-60.03198022968));
#320 = CARTESIAN_POINT('',(2.5,44.965243757983,-60.17835677923));
#321 = CARTESIAN_POINT('',(2.5,48.151644620542,-60.11827612118));
#322 = CARTESIAN_POINT('',(2.5,50.886944532522,-59.91359246523));
#323 = CARTESIAN_POINT('',(2.5,53.243179796587,-59.3799587714));
#324 = CARTESIAN_POINT('',(2.5,55.069582960379,-58.57922100006));
#325 = CARTESIAN_POINT('',(2.5,57.820172577627,-56.35846844574));
#326 = CARTESIAN_POINT('',(2.5,58.733194859559,-52.57843430109));
#327 = CARTESIAN_POINT('',(2.5,58.729663490739,-50.22103414747));
#328 = CARTESIAN_POINT('',(2.5,58.185891323015,-47.30498836972));
#329 = CARTESIAN_POINT('',(2.5,57.100562779641,-43.90492629061));
#330 = CARTESIAN_POINT('',(2.5,55.468895493872,-39.8583235856));
#331 = CARTESIAN_POINT('',(2.5,53.251121801567,-35.20268028906));
#332 = CARTESIAN_POINT('',(2.5,50.44296623697,-29.85324485615));
#333 = CARTESIAN_POINT('',(2.5,47.021484106897,-23.77495386069));
#334 = CARTESIAN_POINT('',(2.5,42.969124633586,-16.91983208016));
#335 = CARTESIAN_POINT('',(-2.5,1.7763568394E-15,-57.75));
#336 = CARTESIAN_POINT('',(-2.5,3.210735159757,-57.74999999999));
#337 = CARTESIAN_POINT('',(-2.5,6.34886840718,-57.79865485638));
#338 = CARTESIAN_POINT('',(-2.499999999999,9.411646746093,
    -57.88898152396));
#339 = CARTESIAN_POINT('',(-2.500000000001,12.396317978672,
    -58.01399670935));
#340 = CARTESIAN_POINT('',(-2.499999999999,15.300127990055,
    -58.16671732011));
#341 = CARTESIAN_POINT('',(-2.500000000001,18.120318033154,
    -58.34016091517));
#342 = CARTESIAN_POINT('',(-2.5,20.854122013214,-58.52734615361));
#343 = CARTESIAN_POINT('',(-2.5,23.498763772619,-58.72129324511));
#344 = CARTESIAN_POINT('',(-2.5,30.870556661129,-59.28076016264));
#345 = CARTESIAN_POINT('',(-2.5,37.452117367489,-59.78025404924));
#346 = CARTESIAN_POINT('',(-2.5,41.398549264863,-60.03198022968));
#347 = CARTESIAN_POINT('',(-2.5,44.965243757983,-60.17835677923));
#348 = CARTESIAN_POINT('',(-2.5,48.151644620542,-60.11827612117));
#349 = CARTESIAN_POINT('',(-2.5,50.886944532522,-59.91359246524));
#350 = CARTESIAN_POINT('',(-2.5,53.243179796587,-59.3799587714));
#351 = CARTESIAN_POINT('',(-2.5,55.069582960379,-58.57922100006));
#352 = CARTESIAN_POINT('',(-2.5,57.820172577627,-56.35846844574));
#353 = CARTESIAN_POINT('',(-2.5,58.733194859559,-52.57843430109));
#354 = CARTESIAN_POINT('',(-2.5,58.729663490739,-50.22103414747));
#355 = CARTESIAN_POINT('',(-2.5,58.185891323016,-47.30498836973));
#356 = CARTESIAN_POINT('',(-2.5,57.100562779641,-43.9049262906));
#357 = CARTESIAN_POINT('',(-2.5,55.468895493872,-39.8583235856));
#358 = CARTESIAN_POINT('',(-2.5,53.251121801567,-35.20268028906));
#359 = CARTESIAN_POINT('',(-2.5,50.44296623697,-29.85324485615));
#360 = CARTESIAN_POINT('',(-2.5,47.021484106897,-23.77495386069));
#361 = CARTESIAN_POINT('',(-2.5,42.969124633586,-16.91983208016));
#362 = DEFINITIONAL_REPRESENTATION('',(#363),#366);
#363 = B_SPLINE_CURVE_WITH_KNOTS('',1,(#364,#365),.UNSPECIFIED.,.F.,.F.,
  (2,2),(0.,1.),.PIECEWISE_BEZIER_KNOTS.);
#364 = CARTESIAN_POINT('',(0.,0.));
#365 = CARTESIAN_POINT('',(0.,1.));
#366 = ( GEOMETRIC_REPRESENTATION_CONTEXT(2) 
PARAMETRIC_REPRESENTATION_CONTEXT() REPRESENTATION_CONTEXT('2D SPACE',''
  ) );
#367 = ORIENTED_EDGE('',*,*,#368,.T.);
#368 = EDGE_CURVE('',#244,#369,#371,.T.);
#369 = VERTEX_POINT('',#370);
#370 = CARTESIAN_POINT('',(2.5,54.,52.25));
#371 = SURFACE_CURVE('',#372,(#388,#407),.PCURVE_S1.);
#372 = B_SPLINE_CURVE_WITH_KNOTS('',8,(#373,#374,#375,#376,#377,#378,
    #379,#380,#381,#382,#383,#384,#385,#386,#387),.UNSPECIFIED.,.F.,.F.,
  (9,6,9),(0.,0.5,1.),.UNSPECIFIED.);
#373 = CARTESIAN_POINT('',(2.5,42.969124633586,-16.91983208016));
#374 = CARTESIAN_POINT('',(2.5,36.483134218151,-5.947889818381));
#375 = CARTESIAN_POINT('',(2.5,31.581489551804,3.737371262727));
#376 = CARTESIAN_POINT('',(2.5,28.123407947424,12.220833268202));
#377 = CARTESIAN_POINT('',(2.5,25.968931945263,19.590817310764));
#378 = CARTESIAN_POINT('',(2.5,24.977402912805,25.92645140676));
#379 = CARTESIAN_POINT('',(2.5,25.00859943522,31.327764242933));
#380 = CARTESIAN_POINT('',(2.5,26.865690727226,40.41407329607));
#381 = CARTESIAN_POINT('',(2.5,31.739686519161,46.359283478895));
#382 = CARTESIAN_POINT('',(2.5,34.789788559792,48.61983736169));
#383 = CARTESIAN_POINT('',(2.5,38.288501418825,50.239039350623));
#384 = CARTESIAN_POINT('',(2.5,42.096076594806,51.332001618164));
#385 = CARTESIAN_POINT('',(2.5,46.07784679312,51.972158618757));
#386 = CARTESIAN_POINT('',(2.5,50.092203231822,52.25));
#387 = CARTESIAN_POINT('',(2.5,54.,52.25));
#388 = PCURVE('',#102,#389);
#389 = DEFINITIONAL_REPRESENTATION('',(#390),#406);
#390 = B_SPLINE_CURVE_WITH_KNOTS('',8,(#391,#392,#393,#394,#395,#396,
    #397,#398,#399,#400,#401,#402,#403,#404,#405),.UNSPECIFIED.,.F.,.F.,
  (9,6,9),(0.,0.5,1.),.UNSPECIFIED.);
#391 = CARTESIAN_POINT('',(41.080167919834,57.969124633586));
#392 = CARTESIAN_POINT('',(52.052110181619,51.483134218151));
#393 = CARTESIAN_POINT('',(61.737371262727,46.581489551804));
#394 = CARTESIAN_POINT('',(70.220833268202,43.123407947424));
#395 = CARTESIAN_POINT('',(77.590817310764,40.968931945263));
#396 = CARTESIAN_POINT('',(83.92645140676,39.977402912805));
#397 = CARTESIAN_POINT('',(89.327764242933,40.00859943522));
#398 = CARTESIAN_POINT('',(98.41407329607,41.865690727226));
#399 = CARTESIAN_POINT('',(104.35928347889,46.739686519161));
#400 = CARTESIAN_POINT('',(106.61983736169,49.789788559792));
#401 = CARTESIAN_POINT('',(108.23903935062,53.288501418825));
#402 = CARTESIAN_POINT('',(109.33200161816,57.096076594806));
#403 = CARTESIAN_POINT('',(109.97215861875,61.07784679312));
#404 = CARTESIAN_POINT('',(110.25,65.092203231822));
#405 = CARTESIAN_POINT('',(110.25,69.));
#406 = ( GEOMETRIC_REPRESENTATION_CONTEXT(2) 
PARAMETRIC_REPRESENTATION_CONTEXT() REPRESENTATION_CONTEXT('2D SPACE',''
  ) );
#407 = PCURVE('',#408,#439);
#408 = B_SPLINE_SURFACE_WITH_KNOTS('',1,8,(
    (#409,#410,#411,#412,#413,#414,#415,#416,#417,#418,#419,#420,#421
      ,#422,#423)
    ,(#424,#425,#426,#427,#428,#429,#430,#431,#432,#433,#434,#435,#436
      ,#437,#438
    )),.UNSPECIFIED.,.F.,.F.,.F.,(2,2),(9,6,9),(0.,5.),(0.,0.5,1.),
  .UNSPECIFIED.);
#409 = CARTESIAN_POINT('',(2.5,42.969124633586,-16.91983208016));
#410 = CARTESIAN_POINT('',(2.5,36.483134218151,-5.947889818381));
#411 = CARTESIAN_POINT('',(2.5,31.581489551804,3.737371262727));
#412 = CARTESIAN_POINT('',(2.5,28.123407947424,12.220833268202));
#413 = CARTESIAN_POINT('',(2.5,25.968931945263,19.590817310764));
#414 = CARTESIAN_POINT('',(2.5,24.977402912805,25.92645140676));
#415 = CARTESIAN_POINT('',(2.5,25.00859943522,31.327764242933));
#416 = CARTESIAN_POINT('',(2.5,26.865690727226,40.41407329607));
#417 = CARTESIAN_POINT('',(2.5,31.739686519161,46.359283478895));
#418 = CARTESIAN_POINT('',(2.5,34.789788559792,48.61983736169));
#419 = CARTESIAN_POINT('',(2.5,38.288501418825,50.239039350623));
#420 = CARTESIAN_POINT('',(2.5,42.096076594806,51.332001618164));
#421 = CARTESIAN_POINT('',(2.5,46.07784679312,51.972158618757));
#422 = CARTESIAN_POINT('',(2.5,50.092203231822,52.25));
#423 = CARTESIAN_POINT('',(2.5,54.,52.25));
#424 = CARTESIAN_POINT('',(-2.5,42.969124633586,-16.91983208016));
#425 = CARTESIAN_POINT('',(-2.5,36.483134218151,-5.947889818381));
#426 = CARTESIAN_POINT('',(-2.5,31.581489551804,3.737371262726));
#427 = CARTESIAN_POINT('',(-2.5,28.123407947423,12.220833268202));
#428 = CARTESIAN_POINT('',(-2.5,25.968931945264,19.590817310764));
#429 = CARTESIAN_POINT('',(-2.5,24.977402912805,25.926451406761));
#430 = CARTESIAN_POINT('',(-2.5,25.00859943522,31.327764242933));
#431 = CARTESIAN_POINT('',(-2.5,26.865690727226,40.41407329607));
#432 = CARTESIAN_POINT('',(-2.5,31.739686519161,46.359283478895));
#433 = CARTESIAN_POINT('',(-2.5,34.789788559792,48.619837361691));
#434 = CARTESIAN_POINT('',(-2.5,38.288501418824,50.239039350622));
#435 = CARTESIAN_POINT('',(-2.5,42.096076594807,51.332001618165));
#436 = CARTESIAN_POINT('',(-2.5,46.077846793119,51.972158618757));
#437 = CARTESIAN_POINT('',(-2.5,50.092203231822,52.25));
#438 = CARTESIAN_POINT('',(-2.5,54.,52.25));
#439 = DEFINITIONAL_REPRESENTATION('',(#440),#443);
#440 = B_SPLINE_CURVE_WITH_KNOTS('',1,(#441,#442),.UNSPECIFIED.,.F.,.F.,
  (2,2),(0.,1.),.PIECEWISE_BEZIER_KNOTS.);
#441 = CARTESIAN_POINT('',(0.,0.));
#442 = CARTESIAN_POINT('',(0.,1.));
#443 = ( GEOMETRIC_REPRESENTATION_CONTEXT(2) 
PARAMETRIC_REPRESENTATION_CONTEXT() REPRESENTATION_CONTEXT('2D SPACE',''
  ) );
#444 = ORIENTED_EDGE('',*,*,#445,.T.);
#445 = EDGE_CURVE('',#369,#446,#448,.T.);
#446 = VERTEX_POINT('',#447);
#447 = CARTESIAN_POINT('',(2.5,69.,52.25));
#448 = SURFACE_CURVE('',#449,(#454,#462),.PCURVE_S1.);
#449 = B_SPLINE_CURVE_WITH_KNOTS('',3,(#450,#451,#452,#453),
  .UNSPECIFIED.,.F.,.F.,(4,4),(0.,1.),.PIECEWISE_BEZIER_KNOTS.);
#450 = CARTESIAN_POINT('',(2.5,54.,52.25));
#451 = CARTESIAN_POINT('',(2.5,55.,52.25));
#452 = CARTESIAN_POINT('',(2.5,68.9,52.25));
#453 = CARTESIAN_POINT('',(2.5,69.,52.25));
#454 = PCURVE('',#102,#455);
#455 = DEFINITIONAL_REPRESENTATION('',(#456),#461);
#456 = B_SPLINE_CURVE_WITH_KNOTS('',3,(#457,#458,#459,#460),
  .UNSPECIFIED.,.F.,.F.,(4,4),(0.,1.),.PIECEWISE_BEZIER_KNOTS.);
#457 = CARTESIAN_POINT('',(110.25,69.));
#458 = CARTESIAN_POINT('',(110.25,70.));
#459 = CARTESIAN_POINT('',(110.25,83.9));
#460 = CARTESIAN_POINT('',(110.25,84.));
#461 = ( GEOMETRIC_REPRESENTATION_CONTEXT(2) 
PARAMETRIC_REPRESENTATION_CONTEXT() REPRESENTATION_CONTEXT('2D SPACE',''
  ) );
#462 = PCURVE('',#463,#468);
#463 = PLANE('',#464);
#464 = AXIS2_PLACEMENT_3D('',#465,#466,#467);
#465 = CARTESIAN_POINT('',(0.,61.7025,52.25));
#466 = DIRECTION('',(-1.2918958832E-16,6.502566159511E-16,-1.));
#467 = DIRECTION('',(-1.,4.42332081499E-18,1.2918958832E-16));
#468 = DEFINITIONAL_REPRESENTATION('',(#469),#474);
#469 = B_SPLINE_CURVE_WITH_KNOTS('',3,(#470,#471,#472,#473),
  .UNSPECIFIED.,.F.,.F.,(4,4),(0.,1.),.PIECEWISE_BEZIER_KNOTS.);
#470 = CARTESIAN_POINT('',(-2.5,-7.7025));
#471 = CARTESIAN_POINT('',(-2.5,-6.7025));
#472 = CARTESIAN_POINT('',(-2.5,7.1975));
#473 = CARTESIAN_POINT('',(-2.5,7.2975));
#474 = ( GEOMETRIC_REPRESENTATION_CONTEXT(2) 
PARAMETRIC_REPRESENTATION_CONTEXT() REPRESENTATION_CONTEXT('2D SPACE',''
  ) );
#475 = ORIENTED_EDGE('',*,*,#476,.F.);
#476 = EDGE_CURVE('',#477,#446,#479,.T.);
#477 = VERTEX_POINT('',#478);
#478 = CARTESIAN_POINT('',(2.5,69.,51.75));
#479 = SURFACE_CURVE('',#480,(#483,#489),.PCURVE_S1.);
#480 = B_SPLINE_CURVE_WITH_KNOTS('',1,(#481,#482),.UNSPECIFIED.,.F.,.F.,
  (2,2),(0.,0.5),.PIECEWISE_BEZIER_KNOTS.);
#481 = CARTESIAN_POINT('',(2.5,69.,51.75));
#482 = CARTESIAN_POINT('',(2.5,69.,52.25));
#483 = PCURVE('',#102,#484);
#484 = DEFINITIONAL_REPRESENTATION('',(#485),#488);
#485 = B_SPLINE_CURVE_WITH_KNOTS('',1,(#486,#487),.UNSPECIFIED.,.F.,.F.,
  (2,2),(0.,0.5),.PIECEWISE_BEZIER_KNOTS.);
#486 = CARTESIAN_POINT('',(109.75,84.));
#487 = CARTESIAN_POINT('',(110.25,84.));
#488 = ( GEOMETRIC_REPRESENTATION_CONTEXT(2) 
PARAMETRIC_REPRESENTATION_CONTEXT() REPRESENTATION_CONTEXT('2D SPACE',''
  ) );
#489 = PCURVE('',#490,#495);
#490 = PLANE('',#491);
#491 = AXIS2_PLACEMENT_3D('',#492,#493,#494);
#492 = CARTESIAN_POINT('',(0.,69.,52.));
#493 = DIRECTION('',(-0.,-1.,-0.));
#494 = DIRECTION('',(0.,0.,-1.));
#495 = DEFINITIONAL_REPRESENTATION('',(#496),#499);
#496 = B_SPLINE_CURVE_WITH_KNOTS('',1,(#497,#498),.UNSPECIFIED.,.F.,.F.,
  (2,2),(0.,0.5),.PIECEWISE_BEZIER_KNOTS.);
#497 = CARTESIAN_POINT('',(0.25,2.5));
#498 = CARTESIAN_POINT('',(-0.25,2.5));
#499 = ( GEOMETRIC_REPRESENTATION_CONTEXT(2) 
PARAMETRIC_REPRESENTATION_CONTEXT() REPRESENTATION_CONTEXT('2D SPACE',''
  ) );
#500 = ORIENTED_EDGE('',*,*,#501,.F.);
#501 = EDGE_CURVE('',#502,#477,#504,.T.);
#502 = VERTEX_POINT('',#503);
#503 = CARTESIAN_POINT('',(2.5,54.,51.75));
#504 = SURFACE_CURVE('',#505,(#510,#518),.PCURVE_S1.);
#505 = B_SPLINE_CURVE_WITH_KNOTS('',3,(#506,#507,#508,#509),
  .UNSPECIFIED.,.F.,.F.,(4,4),(0.,1.),.PIECEWISE_BEZIER_KNOTS.);
#506 = CARTESIAN_POINT('',(2.5,54.,51.75));
#507 = CARTESIAN_POINT('',(2.5,55.,51.75));
#508 = CARTESIAN_POINT('',(2.5,68.9,51.75));
#509 = CARTESIAN_POINT('',(2.5,69.,51.75));
#510 = PCURVE('',#102,#511);
#511 = DEFINITIONAL_REPRESENTATION('',(#512),#517);
#512 = B_SPLINE_CURVE_WITH_KNOTS('',3,(#513,#514,#515,#516),
  .UNSPECIFIED.,.F.,.F.,(4,4),(0.,1.),.PIECEWISE_BEZIER_KNOTS.);
#513 = CARTESIAN_POINT('',(109.75,69.));
#514 = CARTESIAN_POINT('',(109.75,70.));
#515 = CARTESIAN_POINT('',(109.75,83.9));
#516 = CARTESIAN_POINT('',(109.75,84.));
#517 = ( GEOMETRIC_REPRESENTATION_CONTEXT(2) 
PARAMETRIC_REPRESENTATION_CONTEXT() REPRESENTATION_CONTEXT('2D SPACE',''
  ) );
#518 = PCURVE('',#519,#524);
#519 = PLANE('',#520);
#520 = AXIS2_PLACEMENT_3D('',#521,#522,#523);
#521 = CARTESIAN_POINT('',(0.,61.7025,51.75));
#522 = DIRECTION('',(-4.697803211637E-16,5.833275219958E-17,1.));
#523 = DIRECTION('',(1.,4.42332081499E-18,4.697803211637E-16));
#524 = DEFINITIONAL_REPRESENTATION('',(#525),#530);
#525 = B_SPLINE_CURVE_WITH_KNOTS('',3,(#526,#527,#528,#529),
  .UNSPECIFIED.,.F.,.F.,(4,4),(0.,1.),.PIECEWISE_BEZIER_KNOTS.);
#526 = CARTESIAN_POINT('',(2.5,-7.7025));
#527 = CARTESIAN_POINT('',(2.5,-6.7025));
#528 = CARTESIAN_POINT('',(2.5,7.1975));
#529 = CARTESIAN_POINT('',(2.5,7.2975));
#530 = ( GEOMETRIC_REPRESENTATION_CONTEXT(2) 
PARAMETRIC_REPRESENTATION_CONTEXT() REPRESENTATION_CONTEXT('2D SPACE',''
  ) );
#531 = ORIENTED_EDGE('',*,*,#532,.F.);
#532 = EDGE_CURVE('',#533,#502,#535,.T.);
#533 = VERTEX_POINT('',#534);
#534 = CARTESIAN_POINT('',(2.5,43.399543734979,-16.66539270201));
#535 = SURFACE_CURVE('',#536,(#552,#571),.PCURVE_S1.);
#536 = B_SPLINE_CURVE_WITH_KNOTS('',8,(#537,#538,#539,#540,#541,#542,
    #543,#544,#545,#546,#547,#548,#549,#550,#551),.UNSPECIFIED.,.F.,.F.,
  (9,6,9),(0.,0.5,1.),.UNSPECIFIED.);
#537 = CARTESIAN_POINT('',(2.5,43.399543734979,-16.66539270201));
#538 = CARTESIAN_POINT('',(2.5,36.925939524648,-5.714403404776));
#539 = CARTESIAN_POINT('',(2.5,32.038071895755,3.944890862938));
#540 = CARTESIAN_POINT('',(2.5,28.595329840387,12.396350083989));
#541 = CARTESIAN_POINT('',(2.5,26.456277123255,19.720395233559));
#542 = CARTESIAN_POINT('',(2.5,25.480178681846,26.006640383204));
#543 = CARTESIAN_POINT('',(2.5,25.525862235954,31.323798934081));
#544 = CARTESIAN_POINT('',(2.5,27.348758807704,40.205101113668));
#545 = CARTESIAN_POINT('',(2.5,32.081631520816,45.963807432416));
#546 = CARTESIAN_POINT('',(2.5,35.035290197997,48.158030205523));
#547 = CARTESIAN_POINT('',(2.5,38.459270827033,49.765165365508));
#548 = CARTESIAN_POINT('',(2.5,42.211928214338,50.838842827803));
#549 = CARTESIAN_POINT('',(2.5,46.146535959502,51.474370225866));
#550 = CARTESIAN_POINT('',(2.5,50.123309149428,51.75));
#551 = CARTESIAN_POINT('',(2.5,54.,51.75));
#552 = PCURVE('',#102,#553);
#553 = DEFINITIONAL_REPRESENTATION('',(#554),#570);
#554 = B_SPLINE_CURVE_WITH_KNOTS('',8,(#555,#556,#557,#558,#559,#560,
    #561,#562,#563,#564,#565,#566,#567,#568,#569),.UNSPECIFIED.,.F.,.F.,
  (9,6,9),(0.,0.5,1.),.UNSPECIFIED.);
#555 = CARTESIAN_POINT('',(41.33460729799,58.399543734979));
#556 = CARTESIAN_POINT('',(52.285596595224,51.925939524648));
#557 = CARTESIAN_POINT('',(61.944890862938,47.038071895755));
#558 = CARTESIAN_POINT('',(70.396350083989,43.595329840387));
#559 = CARTESIAN_POINT('',(77.720395233559,41.456277123255));
#560 = CARTESIAN_POINT('',(84.006640383204,40.480178681846));
#561 = CARTESIAN_POINT('',(89.323798934081,40.525862235954));
#562 = CARTESIAN_POINT('',(98.205101113668,42.348758807704));
#563 = CARTESIAN_POINT('',(103.96380743241,47.081631520816));
#564 = CARTESIAN_POINT('',(106.15803020552,50.035290197997));
#565 = CARTESIAN_POINT('',(107.7651653655,53.459270827033));
#566 = CARTESIAN_POINT('',(108.8388428278,57.211928214338));
#567 = CARTESIAN_POINT('',(109.47437022586,61.146535959502));
#568 = CARTESIAN_POINT('',(109.75,65.123309149428));
#569 = CARTESIAN_POINT('',(109.75,69.));
#570 = ( GEOMETRIC_REPRESENTATION_CONTEXT(2) 
PARAMETRIC_REPRESENTATION_CONTEXT() REPRESENTATION_CONTEXT('2D SPACE',''
  ) );
#571 = PCURVE('',#572,#603);
#572 = B_SPLINE_SURFACE_WITH_KNOTS('',1,8,(
    (#573,#574,#575,#576,#577,#578,#579,#580,#581,#582,#583,#584,#585
      ,#586,#587)
    ,(#588,#589,#590,#591,#592,#593,#594,#595,#596,#597,#598,#599,#600
      ,#601,#602
    )),.UNSPECIFIED.,.F.,.F.,.F.,(2,2),(9,6,9),(0.,5.),(0.,0.5,1.),
  .UNSPECIFIED.);
#573 = CARTESIAN_POINT('',(-2.5,43.399543734979,-16.66539270201));
#574 = CARTESIAN_POINT('',(-2.5,36.925939524648,-5.714403404776));
#575 = CARTESIAN_POINT('',(-2.5,32.038071895755,3.944890862938));
#576 = CARTESIAN_POINT('',(-2.5,28.595329840387,12.396350083989));
#577 = CARTESIAN_POINT('',(-2.5,26.456277123255,19.720395233559));
#578 = CARTESIAN_POINT('',(-2.5,25.480178681846,26.006640383204));
#579 = CARTESIAN_POINT('',(-2.5,25.525862235953,31.323798934081));
#580 = CARTESIAN_POINT('',(-2.5,27.348758807704,40.205101113668));
#581 = CARTESIAN_POINT('',(-2.5,32.081631520816,45.963807432416));
#582 = CARTESIAN_POINT('',(-2.5,35.035290197997,48.158030205523));
#583 = CARTESIAN_POINT('',(-2.5,38.459270827033,49.765165365508));
#584 = CARTESIAN_POINT('',(-2.5,42.211928214338,50.838842827803));
#585 = CARTESIAN_POINT('',(-2.5,46.146535959502,51.474370225866));
#586 = CARTESIAN_POINT('',(-2.5,50.123309149429,51.75));
#587 = CARTESIAN_POINT('',(-2.5,54.,51.75));
#588 = CARTESIAN_POINT('',(2.5,43.399543734979,-16.66539270201));
#589 = CARTESIAN_POINT('',(2.5,36.925939524648,-5.714403404776));
#590 = CARTESIAN_POINT('',(2.5,32.038071895755,3.944890862938));
#591 = CARTESIAN_POINT('',(2.5,28.595329840387,12.396350083989));
#592 = CARTESIAN_POINT('',(2.5,26.456277123255,19.720395233559));
#593 = CARTESIAN_POINT('',(2.5,25.480178681846,26.006640383204));
#594 = CARTESIAN_POINT('',(2.5,25.525862235954,31.323798934081));
#595 = CARTESIAN_POINT('',(2.5,27.348758807704,40.205101113668));
#596 = CARTESIAN_POINT('',(2.5,32.081631520816,45.963807432416));
#597 = CARTESIAN_POINT('',(2.5,35.035290197997,48.158030205523));
#598 = CARTESIAN_POINT('',(2.5,38.459270827033,49.765165365508));
#599 = CARTESIAN_POINT('',(2.5,42.211928214338,50.838842827803));
#600 = CARTESIAN_POINT('',(2.5,46.146535959502,51.474370225866));
#601 = CARTESIAN_POINT('',(2.5,50.123309149428,51.75));
#602 = CARTESIAN_POINT('',(2.5,54.,51.75));
#603 = DEFINITIONAL_REPRESENTATION('',(#604),#608);
#604 = LINE('',#605,#606);
#605 = CARTESIAN_POINT('',(5.,0.));
#606 = VECTOR('',#607,1.);
#607 = DIRECTION('',(0.,1.));
#608 = ( GEOMETRIC_REPRESENTATION_CONTEXT(2) 
PARAMETRIC_REPRESENTATION_CONTEXT() REPRESENTATION_CONTEXT('2D SPACE',''
  ) );
#609 = ORIENTED_EDGE('',*,*,#610,.F.);
#610 = EDGE_CURVE('',#85,#533,#611,.T.);
#611 = SURFACE_CURVE('',#612,(#640,#671),.PCURVE_S1.);
#612 = B_SPLINE_CURVE_WITH_KNOTS('',10,(#613,#614,#615,#616,#617,#618,
    #619,#620,#621,#622,#623,#624,#625,#626,#627,#628,#629,#630,#631,
    #632,#633,#634,#635,#636,#637,#638,#639),.UNSPECIFIED.,.F.,.F.,(11,8
    ,8,11),(0.,0.209393204226,0.604696602113,1.),.UNSPECIFIED.);
#613 = CARTESIAN_POINT('',(2.5,0.,-58.25));
#614 = CARTESIAN_POINT('',(2.5,3.203915947247,-58.24999999999));
#615 = CARTESIAN_POINT('',(2.5,6.335791605096,-58.29855151935));
#616 = CARTESIAN_POINT('',(2.499999999999,9.392907712555,-58.38869933563
    ));
#617 = CARTESIAN_POINT('',(2.500000000001,12.372544210339,
    -58.51348847496));
#618 = CARTESIAN_POINT('',(2.499999999999,15.271982956101,
    -58.66596376186));
#619 = CARTESIAN_POINT('',(2.500000000001,18.088510439845,
    -58.83916937035));
#620 = CARTESIAN_POINT('',(2.5,20.819420499126,-59.02614837346));
#621 = CARTESIAN_POINT('',(2.5,23.46201703444,-59.21994229422));
#622 = CARTESIAN_POINT('',(2.5,30.83065952801,-59.77917011907));
#623 = CARTESIAN_POINT('',(2.5,37.418167714037,-60.27911537729));
#624 = CARTESIAN_POINT('',(2.5,41.37229831764,-60.53599974622));
#625 = CARTESIAN_POINT('',(2.5,44.961001524238,-60.65970853007));
#626 = CARTESIAN_POINT('',(2.5,48.148014695575,-60.65756877401));
#627 = CARTESIAN_POINT('',(2.5,50.967326287104,-60.37394573692));
#628 = CARTESIAN_POINT('',(2.5,53.310081131623,-59.89940592731));
#629 = CARTESIAN_POINT('',(2.5,55.29022781691,-59.07832285331));
#630 = CARTESIAN_POINT('',(2.5,58.294219649728,-56.64057797025));
#631 = CARTESIAN_POINT('',(2.5,59.271466863411,-52.55728105819));
#632 = CARTESIAN_POINT('',(2.5,59.217236126888,-50.08802674717));
#633 = CARTESIAN_POINT('',(2.5,58.663530471499,-47.18864859247));
#634 = CARTESIAN_POINT('',(2.5,57.574846609546,-43.69073673996));
#635 = CARTESIAN_POINT('',(2.5,55.919148043072,-39.66303498257));
#636 = CARTESIAN_POINT('',(2.5,53.699383571795,-34.97426275457));
#637 = CARTESIAN_POINT('',(2.5,50.883009796817,-29.61539106927));
#638 = CARTESIAN_POINT('',(2.5,47.456152546817,-23.5277028214));
#639 = CARTESIAN_POINT('',(2.5,43.399543734979,-16.66539270201));
#640 = PCURVE('',#102,#641);
#641 = DEFINITIONAL_REPRESENTATION('',(#642),#670);
#642 = B_SPLINE_CURVE_WITH_KNOTS('',10,(#643,#644,#645,#646,#647,#648,
    #649,#650,#651,#652,#653,#654,#655,#656,#657,#658,#659,#660,#661,
    #662,#663,#664,#665,#666,#667,#668,#669),.UNSPECIFIED.,.F.,.F.,(11,8
    ,8,11),(0.,0.209393204226,0.604696602113,1.),.UNSPECIFIED.);
#643 = CARTESIAN_POINT('',(-0.25,15.));
#644 = CARTESIAN_POINT('',(-0.249999999997,18.203915947247));
#645 = CARTESIAN_POINT('',(-0.298551519359,21.335791605096));
#646 = CARTESIAN_POINT('',(-0.388699335638,24.392907712555));
#647 = CARTESIAN_POINT('',(-0.51348847496,27.372544210339));
#648 = CARTESIAN_POINT('',(-0.665963761867,30.271982956101));
#649 = CARTESIAN_POINT('',(-0.839169370359,33.088510439845));
#650 = CARTESIAN_POINT('',(-1.02614837346,35.819420499126));
#651 = CARTESIAN_POINT('',(-1.21994229422,38.46201703444));
#652 = CARTESIAN_POINT('',(-1.779170119077,45.83065952801));
#653 = CARTESIAN_POINT('',(-2.279115377292,52.418167714037));
#654 = CARTESIAN_POINT('',(-2.535999746226,56.37229831764));
#655 = CARTESIAN_POINT('',(-2.659708530072,59.961001524238));
#656 = CARTESIAN_POINT('',(-2.657568774018,63.148014695575));
#657 = CARTESIAN_POINT('',(-2.373945736928,65.967326287104));
#658 = CARTESIAN_POINT('',(-1.899405927312,68.310081131623));
#659 = CARTESIAN_POINT('',(-1.078322853314,70.29022781691));
#660 = CARTESIAN_POINT('',(1.359422029749,73.294219649728));
#661 = CARTESIAN_POINT('',(5.442718941808,74.271466863411));
#662 = CARTESIAN_POINT('',(7.911973252828,74.217236126888));
#663 = CARTESIAN_POINT('',(10.811351407522,73.663530471499));
#664 = CARTESIAN_POINT('',(14.309263260035,72.574846609546));
#665 = CARTESIAN_POINT('',(18.336965017424,70.919148043072));
#666 = CARTESIAN_POINT('',(23.025737245423,68.699383571795));
#667 = CARTESIAN_POINT('',(28.384608930727,65.883009796817));
#668 = CARTESIAN_POINT('',(34.472297178594,62.456152546817));
#669 = CARTESIAN_POINT('',(41.33460729799,58.399543734979));
#670 = ( GEOMETRIC_REPRESENTATION_CONTEXT(2) 
PARAMETRIC_REPRESENTATION_CONTEXT() REPRESENTATION_CONTEXT('2D SPACE',''
  ) );
#671 = PCURVE('',#127,#672);
#672 = DEFINITIONAL_REPRESENTATION('',(#673),#677);
#673 = LINE('',#674,#675);
#674 = CARTESIAN_POINT('',(5.,0.));
#675 = VECTOR('',#676,1.);
#676 = DIRECTION('',(0.,1.));
#677 = ( GEOMETRIC_REPRESENTATION_CONTEXT(2) 
PARAMETRIC_REPRESENTATION_CONTEXT() REPRESENTATION_CONTEXT('2D SPACE',''
  ) );
#678 = ADVANCED_FACE('',(#679),#230,.F.);
#679 = FACE_BOUND('',#680,.F.);
#680 = EDGE_LOOP('',(#681,#682,#702,#728));
#681 = ORIENTED_EDGE('',*,*,#212,.F.);
#682 = ORIENTED_EDGE('',*,*,#683,.T.);
#683 = EDGE_CURVE('',#193,#684,#686,.T.);
#684 = VERTEX_POINT('',#685);
#685 = CARTESIAN_POINT('',(-2.5,-30.,-57.75));
#686 = SURFACE_CURVE('',#687,(#690,#696),.PCURVE_S1.);
#687 = B_SPLINE_CURVE_WITH_KNOTS('',1,(#688,#689),.UNSPECIFIED.,.F.,.F.,
  (2,2),(0.,5.),.PIECEWISE_BEZIER_KNOTS.);
#688 = CARTESIAN_POINT('',(2.5,-30.,-57.75));
#689 = CARTESIAN_POINT('',(-2.5,-30.,-57.75));
#690 = PCURVE('',#230,#691);
#691 = DEFINITIONAL_REPRESENTATION('',(#692),#695);
#692 = B_SPLINE_CURVE_WITH_KNOTS('',1,(#693,#694),.UNSPECIFIED.,.F.,.F.,
  (2,2),(0.,5.),.PIECEWISE_BEZIER_KNOTS.);
#693 = CARTESIAN_POINT('',(-2.5,-15.));
#694 = CARTESIAN_POINT('',(2.5,-15.));
#695 = ( GEOMETRIC_REPRESENTATION_CONTEXT(2) 
PARAMETRIC_REPRESENTATION_CONTEXT() REPRESENTATION_CONTEXT('2D SPACE',''
  ) );
#696 = PCURVE('',#73,#697);
#697 = DEFINITIONAL_REPRESENTATION('',(#698),#701);
#698 = B_SPLINE_CURVE_WITH_KNOTS('',1,(#699,#700),.UNSPECIFIED.,.F.,.F.,
  (2,2),(0.,5.),.PIECEWISE_BEZIER_KNOTS.);
#699 = CARTESIAN_POINT('',(-0.25,2.5));
#700 = CARTESIAN_POINT('',(-0.25,-2.5));
#701 = ( GEOMETRIC_REPRESENTATION_CONTEXT(2) 
PARAMETRIC_REPRESENTATION_CONTEXT() REPRESENTATION_CONTEXT('2D SPACE',''
  ) );
#702 = ORIENTED_EDGE('',*,*,#703,.T.);
#703 = EDGE_CURVE('',#684,#704,#706,.T.);
#704 = VERTEX_POINT('',#705);
#705 = CARTESIAN_POINT('',(-2.5,3.552713678801E-15,-57.75));
#706 = SURFACE_CURVE('',#707,(#712,#720),.PCURVE_S1.);
#707 = B_SPLINE_CURVE_WITH_KNOTS('',3,(#708,#709,#710,#711),
  .UNSPECIFIED.,.F.,.F.,(4,4),(0.,1.),.PIECEWISE_BEZIER_KNOTS.);
#708 = CARTESIAN_POINT('',(-2.5,-30.,-57.75));
#709 = CARTESIAN_POINT('',(-2.5,-29.9,-57.75));
#710 = CARTESIAN_POINT('',(-2.5,-1.E-01,-57.75));
#711 = CARTESIAN_POINT('',(-2.5,8.881784197001E-15,-57.75));
#712 = PCURVE('',#230,#713);
#713 = DEFINITIONAL_REPRESENTATION('',(#714),#719);
#714 = B_SPLINE_CURVE_WITH_KNOTS('',3,(#715,#716,#717,#718),
  .UNSPECIFIED.,.F.,.F.,(4,4),(0.,1.),.PIECEWISE_BEZIER_KNOTS.);
#715 = CARTESIAN_POINT('',(2.5,-15.));
#716 = CARTESIAN_POINT('',(2.5,-14.9));
#717 = CARTESIAN_POINT('',(2.5,14.9));
#718 = CARTESIAN_POINT('',(2.5,15.));
#719 = ( GEOMETRIC_REPRESENTATION_CONTEXT(2) 
PARAMETRIC_REPRESENTATION_CONTEXT() REPRESENTATION_CONTEXT('2D SPACE',''
  ) );
#720 = PCURVE('',#46,#721);
#721 = DEFINITIONAL_REPRESENTATION('',(#722),#727);
#722 = B_SPLINE_CURVE_WITH_KNOTS('',3,(#723,#724,#725,#726),
  .UNSPECIFIED.,.F.,.F.,(4,4),(0.,1.),.PIECEWISE_BEZIER_KNOTS.);
#723 = CARTESIAN_POINT('',(-0.25,-15.));
#724 = CARTESIAN_POINT('',(-0.25,-14.9));
#725 = CARTESIAN_POINT('',(-0.25,14.9));
#726 = CARTESIAN_POINT('',(-0.25,15.));
#727 = ( GEOMETRIC_REPRESENTATION_CONTEXT(2) 
PARAMETRIC_REPRESENTATION_CONTEXT() REPRESENTATION_CONTEXT('2D SPACE',''
  ) );
#728 = ORIENTED_EDGE('',*,*,#729,.F.);
#729 = EDGE_CURVE('',#213,#704,#730,.T.);
#730 = SURFACE_CURVE('',#731,(#734,#740),.PCURVE_S1.);
#731 = B_SPLINE_CURVE_WITH_KNOTS('',1,(#732,#733),.UNSPECIFIED.,.F.,.F.,
  (2,2),(0.,5.),.PIECEWISE_BEZIER_KNOTS.);
#732 = CARTESIAN_POINT('',(2.5,8.881784197001E-15,-57.75));
#733 = CARTESIAN_POINT('',(-2.5,8.881784197001E-15,-57.75));
#734 = PCURVE('',#230,#735);
#735 = DEFINITIONAL_REPRESENTATION('',(#736),#739);
#736 = B_SPLINE_CURVE_WITH_KNOTS('',1,(#737,#738),.UNSPECIFIED.,.F.,.F.,
  (2,2),(0.,5.),.PIECEWISE_BEZIER_KNOTS.);
#737 = CARTESIAN_POINT('',(-2.5,15.));
#738 = CARTESIAN_POINT('',(2.5,15.));
#739 = ( GEOMETRIC_REPRESENTATION_CONTEXT(2) 
PARAMETRIC_REPRESENTATION_CONTEXT() REPRESENTATION_CONTEXT('2D SPACE',''
  ) );
#740 = PCURVE('',#307,#741);
#741 = DEFINITIONAL_REPRESENTATION('',(#742),#745);
#742 = B_SPLINE_CURVE_WITH_KNOTS('',1,(#743,#744),.UNSPECIFIED.,.F.,.F.,
  (2,2),(0.,5.),.PIECEWISE_BEZIER_KNOTS.);
#743 = CARTESIAN_POINT('',(0.,0.));
#744 = CARTESIAN_POINT('',(5.,0.));
#745 = ( GEOMETRIC_REPRESENTATION_CONTEXT(2) 
PARAMETRIC_REPRESENTATION_CONTEXT() REPRESENTATION_CONTEXT('2D SPACE',''
  ) );
#746 = ADVANCED_FACE('',(#747),#46,.F.);
#747 = FACE_BOUND('',#748,.F.);
#748 = EDGE_LOOP('',(#749,#750,#768,#769,#840,#887,#913,#933,#959,#1006)
  );
#749 = ORIENTED_EDGE('',*,*,#703,.F.);
#750 = ORIENTED_EDGE('',*,*,#751,.T.);
#751 = EDGE_CURVE('',#684,#22,#752,.T.);
#752 = SURFACE_CURVE('',#753,(#756,#762),.PCURVE_S1.);
#753 = B_SPLINE_CURVE_WITH_KNOTS('',1,(#754,#755),.UNSPECIFIED.,.F.,.F.,
  (2,2),(0.,0.5),.PIECEWISE_BEZIER_KNOTS.);
#754 = CARTESIAN_POINT('',(-2.5,-30.,-57.75));
#755 = CARTESIAN_POINT('',(-2.5,-30.,-58.25));
#756 = PCURVE('',#46,#757);
#757 = DEFINITIONAL_REPRESENTATION('',(#758),#761);
#758 = B_SPLINE_CURVE_WITH_KNOTS('',1,(#759,#760),.UNSPECIFIED.,.F.,.F.,
  (2,2),(0.,0.5),.PIECEWISE_BEZIER_KNOTS.);
#759 = CARTESIAN_POINT('',(-0.25,-15.));
#760 = CARTESIAN_POINT('',(0.25,-15.));
#761 = ( GEOMETRIC_REPRESENTATION_CONTEXT(2) 
PARAMETRIC_REPRESENTATION_CONTEXT() REPRESENTATION_CONTEXT('2D SPACE',''
  ) );
#762 = PCURVE('',#73,#763);
#763 = DEFINITIONAL_REPRESENTATION('',(#764),#767);
#764 = B_SPLINE_CURVE_WITH_KNOTS('',1,(#765,#766),.UNSPECIFIED.,.F.,.F.,
  (2,2),(0.,0.5),.PIECEWISE_BEZIER_KNOTS.);
#765 = CARTESIAN_POINT('',(-0.25,-2.5));
#766 = CARTESIAN_POINT('',(0.25,-2.5));
#767 = ( GEOMETRIC_REPRESENTATION_CONTEXT(2) 
PARAMETRIC_REPRESENTATION_CONTEXT() REPRESENTATION_CONTEXT('2D SPACE',''
  ) );
#768 = ORIENTED_EDGE('',*,*,#21,.T.);
#769 = ORIENTED_EDGE('',*,*,#770,.T.);
#770 = EDGE_CURVE('',#24,#771,#773,.T.);
#771 = VERTEX_POINT('',#772);
#772 = CARTESIAN_POINT('',(-2.5,43.399543734979,-16.66539270201));
#773 = SURFACE_CURVE('',#774,(#802,#833),.PCURVE_S1.);
#774 = B_SPLINE_CURVE_WITH_KNOTS('',10,(#775,#776,#777,#778,#779,#780,
    #781,#782,#783,#784,#785,#786,#787,#788,#789,#790,#791,#792,#793,
    #794,#795,#796,#797,#798,#799,#800,#801),.UNSPECIFIED.,.F.,.F.,(11,8
    ,8,11),(0.,0.209393204226,0.604696602113,1.),.UNSPECIFIED.);
#775 = CARTESIAN_POINT('',(-2.5,0.,-58.25));
#776 = CARTESIAN_POINT('',(-2.5,3.203915947247,-58.24999999999));
#777 = CARTESIAN_POINT('',(-2.5,6.335791605096,-58.29855151935));
#778 = CARTESIAN_POINT('',(-2.499999999999,9.392907712555,
    -58.38869933563));
#779 = CARTESIAN_POINT('',(-2.500000000001,12.372544210339,
    -58.51348847496));
#780 = CARTESIAN_POINT('',(-2.499999999999,15.271982956101,
    -58.66596376186));
#781 = CARTESIAN_POINT('',(-2.500000000001,18.088510439845,
    -58.83916937035));
#782 = CARTESIAN_POINT('',(-2.5,20.819420499126,-59.02614837346));
#783 = CARTESIAN_POINT('',(-2.5,23.46201703444,-59.21994229422));
#784 = CARTESIAN_POINT('',(-2.5,30.83065952801,-59.77917011907));
#785 = CARTESIAN_POINT('',(-2.5,37.418167714038,-60.27911537729));
#786 = CARTESIAN_POINT('',(-2.5,41.37229831764,-60.53599974622));
#787 = CARTESIAN_POINT('',(-2.5,44.961001524239,-60.65970853007));
#788 = CARTESIAN_POINT('',(-2.5,48.148014695575,-60.65756877401));
#789 = CARTESIAN_POINT('',(-2.5,50.967326287104,-60.37394573692));
#790 = CARTESIAN_POINT('',(-2.5,53.310081131623,-59.89940592731));
#791 = CARTESIAN_POINT('',(-2.5,55.29022781691,-59.07832285331));
#792 = CARTESIAN_POINT('',(-2.5,58.294219649728,-56.64057797025));
#793 = CARTESIAN_POINT('',(-2.5,59.271466863411,-52.55728105819));
#794 = CARTESIAN_POINT('',(-2.5,59.217236126888,-50.08802674717));
#795 = CARTESIAN_POINT('',(-2.5,58.663530471499,-47.18864859248));
#796 = CARTESIAN_POINT('',(-2.5,57.574846609546,-43.69073673996));
#797 = CARTESIAN_POINT('',(-2.5,55.919148043071,-39.66303498258));
#798 = CARTESIAN_POINT('',(-2.5,53.699383571795,-34.97426275457));
#799 = CARTESIAN_POINT('',(-2.5,50.883009796817,-29.61539106927));
#800 = CARTESIAN_POINT('',(-2.5,47.456152546817,-23.5277028214));
#801 = CARTESIAN_POINT('',(-2.5,43.399543734979,-16.66539270201));
#802 = PCURVE('',#46,#803);
#803 = DEFINITIONAL_REPRESENTATION('',(#804),#832);
#804 = B_SPLINE_CURVE_WITH_KNOTS('',10,(#805,#806,#807,#808,#809,#810,
    #811,#812,#813,#814,#815,#816,#817,#818,#819,#820,#821,#822,#823,
    #824,#825,#826,#827,#828,#829,#830,#831),.UNSPECIFIED.,.F.,.F.,(11,8
    ,8,11),(0.,0.209393204226,0.604696602113,1.),.UNSPECIFIED.);
#805 = CARTESIAN_POINT('',(0.25,15.));
#806 = CARTESIAN_POINT('',(0.249999999997,18.203915947247));
#807 = CARTESIAN_POINT('',(0.298551519359,21.335791605096));
#808 = CARTESIAN_POINT('',(0.388699335639,24.392907712555));
#809 = CARTESIAN_POINT('',(0.51348847496,27.372544210339));
#810 = CARTESIAN_POINT('',(0.665963761867,30.271982956101));
#811 = CARTESIAN_POINT('',(0.839169370359,33.088510439845));
#812 = CARTESIAN_POINT('',(1.02614837346,35.819420499126));
#813 = CARTESIAN_POINT('',(1.21994229422,38.46201703444));
#814 = CARTESIAN_POINT('',(1.779170119077,45.83065952801));
#815 = CARTESIAN_POINT('',(2.279115377292,52.418167714038));
#816 = CARTESIAN_POINT('',(2.535999746226,56.37229831764));
#817 = CARTESIAN_POINT('',(2.659708530072,59.961001524239));
#818 = CARTESIAN_POINT('',(2.657568774018,63.148014695575));
#819 = CARTESIAN_POINT('',(2.373945736929,65.967326287104));
#820 = CARTESIAN_POINT('',(1.899405927312,68.310081131623));
#821 = CARTESIAN_POINT('',(1.078322853314,70.29022781691));
#822 = CARTESIAN_POINT('',(-1.359422029749,73.294219649728));
#823 = CARTESIAN_POINT('',(-5.442718941807,74.271466863411));
#824 = CARTESIAN_POINT('',(-7.911973252829,74.217236126888));
#825 = CARTESIAN_POINT('',(-10.81135140751,73.663530471499));
#826 = CARTESIAN_POINT('',(-14.30926326003,72.574846609546));
#827 = CARTESIAN_POINT('',(-18.33696501742,70.919148043071));
#828 = CARTESIAN_POINT('',(-23.02573724542,68.699383571795));
#829 = CARTESIAN_POINT('',(-28.38460893072,65.883009796817));
#830 = CARTESIAN_POINT('',(-34.47229717859,62.456152546817));
#831 = CARTESIAN_POINT('',(-41.33460729799,58.399543734979));
#832 = ( GEOMETRIC_REPRESENTATION_CONTEXT(2) 
PARAMETRIC_REPRESENTATION_CONTEXT() REPRESENTATION_CONTEXT('2D SPACE',''
  ) );
#833 = PCURVE('',#127,#834);
#834 = DEFINITIONAL_REPRESENTATION('',(#835),#839);
#835 = LINE('',#836,#837);
#836 = CARTESIAN_POINT('',(0.,0.));
#837 = VECTOR('',#838,1.);
#838 = DIRECTION('',(0.,1.));
#839 = ( GEOMETRIC_REPRESENTATION_CONTEXT(2) 
PARAMETRIC_REPRESENTATION_CONTEXT() REPRESENTATION_CONTEXT('2D SPACE',''
  ) );
#840 = ORIENTED_EDGE('',*,*,#841,.T.);
#841 = EDGE_CURVE('',#771,#842,#844,.T.);
#842 = VERTEX_POINT('',#843);
#843 = CARTESIAN_POINT('',(-2.5,54.,51.75));
#844 = SURFACE_CURVE('',#845,(#861,#880),.PCURVE_S1.);
#845 = B_SPLINE_CURVE_WITH_KNOTS('',8,(#846,#847,#848,#849,#850,#851,
    #852,#853,#854,#855,#856,#857,#858,#859,#860),.UNSPECIFIED.,.F.,.F.,
  (9,6,9),(0.,0.5,1.),.UNSPECIFIED.);
#846 = CARTESIAN_POINT('',(-2.5,43.399543734979,-16.66539270201));
#847 = CARTESIAN_POINT('',(-2.5,36.925939524648,-5.714403404776));
#848 = CARTESIAN_POINT('',(-2.5,32.038071895755,3.944890862938));
#849 = CARTESIAN_POINT('',(-2.5,28.595329840387,12.396350083989));
#850 = CARTESIAN_POINT('',(-2.5,26.456277123255,19.720395233559));
#851 = CARTESIAN_POINT('',(-2.5,25.480178681846,26.006640383204));
#852 = CARTESIAN_POINT('',(-2.5,25.525862235953,31.323798934081));
#853 = CARTESIAN_POINT('',(-2.5,27.348758807704,40.205101113668));
#854 = CARTESIAN_POINT('',(-2.5,32.081631520816,45.963807432416));
#855 = CARTESIAN_POINT('',(-2.5,35.035290197997,48.158030205523));
#856 = CARTESIAN_POINT('',(-2.5,38.459270827033,49.765165365508));
#857 = CARTESIAN_POINT('',(-2.5,42.211928214338,50.838842827803));
#858 = CARTESIAN_POINT('',(-2.5,46.146535959502,51.474370225866));
#859 = CARTESIAN_POINT('',(-2.5,50.123309149429,51.75));
#860 = CARTESIAN_POINT('',(-2.5,54.,51.75));
#861 = PCURVE('',#46,#862);
#862 = DEFINITIONAL_REPRESENTATION('',(#863),#879);
#863 = B_SPLINE_CURVE_WITH_KNOTS('',8,(#864,#865,#866,#867,#868,#869,
    #870,#871,#872,#873,#874,#875,#876,#877,#878),.UNSPECIFIED.,.F.,.F.,
  (9,6,9),(0.,0.5,1.),.UNSPECIFIED.);
#864 = CARTESIAN_POINT('',(-41.33460729799,58.399543734979));
#865 = CARTESIAN_POINT('',(-52.28559659522,51.925939524648));
#866 = CARTESIAN_POINT('',(-61.94489086293,47.038071895755));
#867 = CARTESIAN_POINT('',(-70.39635008398,43.595329840387));
#868 = CARTESIAN_POINT('',(-77.72039523355,41.456277123255));
#869 = CARTESIAN_POINT('',(-84.0066403832,40.480178681846));
#870 = CARTESIAN_POINT('',(-89.32379893408,40.525862235953));
#871 = CARTESIAN_POINT('',(-98.20510111366,42.348758807704));
#872 = CARTESIAN_POINT('',(-103.9638074324,47.081631520816));
#873 = CARTESIAN_POINT('',(-106.1580302055,50.035290197997));
#874 = CARTESIAN_POINT('',(-107.7651653655,53.459270827033));
#875 = CARTESIAN_POINT('',(-108.8388428278,57.211928214338));
#876 = CARTESIAN_POINT('',(-109.4743702258,61.146535959502));
#877 = CARTESIAN_POINT('',(-109.75,65.123309149429));
#878 = CARTESIAN_POINT('',(-109.75,69.));
#879 = ( GEOMETRIC_REPRESENTATION_CONTEXT(2) 
PARAMETRIC_REPRESENTATION_CONTEXT() REPRESENTATION_CONTEXT('2D SPACE',''
  ) );
#880 = PCURVE('',#572,#881);
#881 = DEFINITIONAL_REPRESENTATION('',(#882),#886);
#882 = LINE('',#883,#884);
#883 = CARTESIAN_POINT('',(0.,0.));
#884 = VECTOR('',#885,1.);
#885 = DIRECTION('',(0.,1.));
#886 = ( GEOMETRIC_REPRESENTATION_CONTEXT(2) 
PARAMETRIC_REPRESENTATION_CONTEXT() REPRESENTATION_CONTEXT('2D SPACE',''
  ) );
#887 = ORIENTED_EDGE('',*,*,#888,.T.);
#888 = EDGE_CURVE('',#842,#889,#891,.T.);
#889 = VERTEX_POINT('',#890);
#890 = CARTESIAN_POINT('',(-2.5,69.,51.75));
#891 = SURFACE_CURVE('',#892,(#897,#905),.PCURVE_S1.);
#892 = B_SPLINE_CURVE_WITH_KNOTS('',3,(#893,#894,#895,#896),
  .UNSPECIFIED.,.F.,.F.,(4,4),(0.,1.),.PIECEWISE_BEZIER_KNOTS.);
#893 = CARTESIAN_POINT('',(-2.5,54.,51.75));
#894 = CARTESIAN_POINT('',(-2.5,55.,51.75));
#895 = CARTESIAN_POINT('',(-2.5,68.9,51.75));
#896 = CARTESIAN_POINT('',(-2.5,69.,51.75));
#897 = PCURVE('',#46,#898);
#898 = DEFINITIONAL_REPRESENTATION('',(#899),#904);
#899 = B_SPLINE_CURVE_WITH_KNOTS('',3,(#900,#901,#902,#903),
  .UNSPECIFIED.,.F.,.F.,(4,4),(0.,1.),.PIECEWISE_BEZIER_KNOTS.);
#900 = CARTESIAN_POINT('',(-109.75,69.));
#901 = CARTESIAN_POINT('',(-109.75,70.));
#902 = CARTESIAN_POINT('',(-109.75,83.9));
#903 = CARTESIAN_POINT('',(-109.75,84.));
#904 = ( GEOMETRIC_REPRESENTATION_CONTEXT(2) 
PARAMETRIC_REPRESENTATION_CONTEXT() REPRESENTATION_CONTEXT('2D SPACE',''
  ) );
#905 = PCURVE('',#519,#906);
#906 = DEFINITIONAL_REPRESENTATION('',(#907),#912);
#907 = B_SPLINE_CURVE_WITH_KNOTS('',3,(#908,#909,#910,#911),
  .UNSPECIFIED.,.F.,.F.,(4,4),(0.,1.),.PIECEWISE_BEZIER_KNOTS.);
#908 = CARTESIAN_POINT('',(-2.5,-7.7025));
#909 = CARTESIAN_POINT('',(-2.5,-6.7025));
#910 = CARTESIAN_POINT('',(-2.5,7.1975));
#911 = CARTESIAN_POINT('',(-2.5,7.2975));
#912 = ( GEOMETRIC_REPRESENTATION_CONTEXT(2) 
PARAMETRIC_REPRESENTATION_CONTEXT() REPRESENTATION_CONTEXT('2D SPACE',''
  ) );
#913 = ORIENTED_EDGE('',*,*,#914,.F.);
#914 = EDGE_CURVE('',#915,#889,#917,.T.);
#915 = VERTEX_POINT('',#916);
#916 = CARTESIAN_POINT('',(-2.5,69.,52.25));
#917 = SURFACE_CURVE('',#918,(#921,#927),.PCURVE_S1.);
#918 = B_SPLINE_CURVE_WITH_KNOTS('',1,(#919,#920),.UNSPECIFIED.,.F.,.F.,
  (2,2),(0.,0.5),.PIECEWISE_BEZIER_KNOTS.);
#919 = CARTESIAN_POINT('',(-2.5,69.,52.25));
#920 = CARTESIAN_POINT('',(-2.5,69.,51.75));
#921 = PCURVE('',#46,#922);
#922 = DEFINITIONAL_REPRESENTATION('',(#923),#926);
#923 = B_SPLINE_CURVE_WITH_KNOTS('',1,(#924,#925),.UNSPECIFIED.,.F.,.F.,
  (2,2),(0.,0.5),.PIECEWISE_BEZIER_KNOTS.);
#924 = CARTESIAN_POINT('',(-110.25,84.));
#925 = CARTESIAN_POINT('',(-109.75,84.));
#926 = ( GEOMETRIC_REPRESENTATION_CONTEXT(2) 
PARAMETRIC_REPRESENTATION_CONTEXT() REPRESENTATION_CONTEXT('2D SPACE',''
  ) );
#927 = PCURVE('',#490,#928);
#928 = DEFINITIONAL_REPRESENTATION('',(#929),#932);
#929 = B_SPLINE_CURVE_WITH_KNOTS('',1,(#930,#931),.UNSPECIFIED.,.F.,.F.,
  (2,2),(0.,0.5),.PIECEWISE_BEZIER_KNOTS.);
#930 = CARTESIAN_POINT('',(-0.25,-2.5));
#931 = CARTESIAN_POINT('',(0.25,-2.5));
#932 = ( GEOMETRIC_REPRESENTATION_CONTEXT(2) 
PARAMETRIC_REPRESENTATION_CONTEXT() REPRESENTATION_CONTEXT('2D SPACE',''
  ) );
#933 = ORIENTED_EDGE('',*,*,#934,.F.);
#934 = EDGE_CURVE('',#935,#915,#937,.T.);
#935 = VERTEX_POINT('',#936);
#936 = CARTESIAN_POINT('',(-2.5,54.,52.25));
#937 = SURFACE_CURVE('',#938,(#943,#951),.PCURVE_S1.);
#938 = B_SPLINE_CURVE_WITH_KNOTS('',3,(#939,#940,#941,#942),
  .UNSPECIFIED.,.F.,.F.,(4,4),(0.,1.),.PIECEWISE_BEZIER_KNOTS.);
#939 = CARTESIAN_POINT('',(-2.5,54.,52.25));
#940 = CARTESIAN_POINT('',(-2.5,55.,52.25));
#941 = CARTESIAN_POINT('',(-2.5,68.9,52.25));
#942 = CARTESIAN_POINT('',(-2.5,69.,52.25));
#943 = PCURVE('',#46,#944);
#944 = DEFINITIONAL_REPRESENTATION('',(#945),#950);
#945 = B_SPLINE_CURVE_WITH_KNOTS('',3,(#946,#947,#948,#949),
  .UNSPECIFIED.,.F.,.F.,(4,4),(0.,1.),.PIECEWISE_BEZIER_KNOTS.);
#946 = CARTESIAN_POINT('',(-110.25,69.));
#947 = CARTESIAN_POINT('',(-110.25,70.));
#948 = CARTESIAN_POINT('',(-110.25,83.9));
#949 = CARTESIAN_POINT('',(-110.25,84.));
#950 = ( GEOMETRIC_REPRESENTATION_CONTEXT(2) 
PARAMETRIC_REPRESENTATION_CONTEXT() REPRESENTATION_CONTEXT('2D SPACE',''
  ) );
#951 = PCURVE('',#463,#952);
#952 = DEFINITIONAL_REPRESENTATION('',(#953),#958);
#953 = B_SPLINE_CURVE_WITH_KNOTS('',3,(#954,#955,#956,#957),
  .UNSPECIFIED.,.F.,.F.,(4,4),(0.,1.),.PIECEWISE_BEZIER_KNOTS.);
#954 = CARTESIAN_POINT('',(2.5,-7.7025));
#955 = CARTESIAN_POINT('',(2.5,-6.7025));
#956 = CARTESIAN_POINT('',(2.5,7.1975));
#957 = CARTESIAN_POINT('',(2.5,7.2975));
#958 = ( GEOMETRIC_REPRESENTATION_CONTEXT(2) 
PARAMETRIC_REPRESENTATION_CONTEXT() REPRESENTATION_CONTEXT('2D SPACE',''
  ) );
#959 = ORIENTED_EDGE('',*,*,#960,.F.);
#960 = EDGE_CURVE('',#961,#935,#963,.T.);
#961 = VERTEX_POINT('',#962);
#962 = CARTESIAN_POINT('',(-2.5,42.969124633586,-16.91983208016));
#963 = SURFACE_CURVE('',#964,(#980,#999),.PCURVE_S1.);
#964 = B_SPLINE_CURVE_WITH_KNOTS('',8,(#965,#966,#967,#968,#969,#970,
    #971,#972,#973,#974,#975,#976,#977,#978,#979),.UNSPECIFIED.,.F.,.F.,
  (9,6,9),(0.,0.5,1.),.UNSPECIFIED.);
#965 = CARTESIAN_POINT('',(-2.5,42.969124633586,-16.91983208016));
#966 = CARTESIAN_POINT('',(-2.5,36.483134218151,-5.947889818381));
#967 = CARTESIAN_POINT('',(-2.5,31.581489551804,3.737371262726));
#968 = CARTESIAN_POINT('',(-2.5,28.123407947423,12.220833268202));
#969 = CARTESIAN_POINT('',(-2.5,25.968931945264,19.590817310764));
#970 = CARTESIAN_POINT('',(-2.5,24.977402912805,25.926451406761));
#971 = CARTESIAN_POINT('',(-2.5,25.00859943522,31.327764242933));
#972 = CARTESIAN_POINT('',(-2.5,26.865690727226,40.41407329607));
#973 = CARTESIAN_POINT('',(-2.5,31.739686519161,46.359283478895));
#974 = CARTESIAN_POINT('',(-2.5,34.789788559792,48.619837361691));
#975 = CARTESIAN_POINT('',(-2.5,38.288501418824,50.239039350622));
#976 = CARTESIAN_POINT('',(-2.5,42.096076594807,51.332001618165));
#977 = CARTESIAN_POINT('',(-2.5,46.077846793119,51.972158618757));
#978 = CARTESIAN_POINT('',(-2.5,50.092203231822,52.25));
#979 = CARTESIAN_POINT('',(-2.5,54.,52.25));
#980 = PCURVE('',#46,#981);
#981 = DEFINITIONAL_REPRESENTATION('',(#982),#998);
#982 = B_SPLINE_CURVE_WITH_KNOTS('',8,(#983,#984,#985,#986,#987,#988,
    #989,#990,#991,#992,#993,#994,#995,#996,#997),.UNSPECIFIED.,.F.,.F.,
  (9,6,9),(0.,0.5,1.),.UNSPECIFIED.);
#983 = CARTESIAN_POINT('',(-41.08016791983,57.969124633586));
#984 = CARTESIAN_POINT('',(-52.05211018161,51.483134218151));
#985 = CARTESIAN_POINT('',(-61.73737126272,46.581489551804));
#986 = CARTESIAN_POINT('',(-70.2208332682,43.123407947423));
#987 = CARTESIAN_POINT('',(-77.59081731076,40.968931945264));
#988 = CARTESIAN_POINT('',(-83.92645140676,39.977402912805));
#989 = CARTESIAN_POINT('',(-89.32776424293,40.00859943522));
#990 = CARTESIAN_POINT('',(-98.41407329607,41.865690727226));
#991 = CARTESIAN_POINT('',(-104.3592834788,46.739686519161));
#992 = CARTESIAN_POINT('',(-106.6198373616,49.789788559792));
#993 = CARTESIAN_POINT('',(-108.2390393506,53.288501418824));
#994 = CARTESIAN_POINT('',(-109.3320016181,57.096076594807));
#995 = CARTESIAN_POINT('',(-109.9721586187,61.077846793119));
#996 = CARTESIAN_POINT('',(-110.25,65.092203231822));
#997 = CARTESIAN_POINT('',(-110.25,69.));
#998 = ( GEOMETRIC_REPRESENTATION_CONTEXT(2) 
PARAMETRIC_REPRESENTATION_CONTEXT() REPRESENTATION_CONTEXT('2D SPACE',''
  ) );
#999 = PCURVE('',#408,#1000);
#1000 = DEFINITIONAL_REPRESENTATION('',(#1001),#1005);
#1001 = LINE('',#1002,#1003);
#1002 = CARTESIAN_POINT('',(5.,0.));
#1003 = VECTOR('',#1004,1.);
#1004 = DIRECTION('',(0.,1.));
#1005 = ( GEOMETRIC_REPRESENTATION_CONTEXT(2) 
PARAMETRIC_REPRESENTATION_CONTEXT() REPRESENTATION_CONTEXT('2D SPACE',''
  ) );
#1006 = ORIENTED_EDGE('',*,*,#1007,.F.);
#1007 = EDGE_CURVE('',#704,#961,#1008,.T.);
#1008 = SURFACE_CURVE('',#1009,(#1037,#1068),.PCURVE_S1.);
#1009 = B_SPLINE_CURVE_WITH_KNOTS('',10,(#1010,#1011,#1012,#1013,#1014,
    #1015,#1016,#1017,#1018,#1019,#1020,#1021,#1022,#1023,#1024,#1025,
    #1026,#1027,#1028,#1029,#1030,#1031,#1032,#1033,#1034,#1035,#1036),
  .UNSPECIFIED.,.F.,.F.,(11,8,8,11),(0.,0.209393204226,0.604696602113,1.
    ),.UNSPECIFIED.);
#1010 = CARTESIAN_POINT('',(-2.5,1.7763568394E-15,-57.75));
#1011 = CARTESIAN_POINT('',(-2.5,3.210735159757,-57.74999999999));
#1012 = CARTESIAN_POINT('',(-2.5,6.34886840718,-57.79865485638));
#1013 = CARTESIAN_POINT('',(-2.499999999999,9.411646746093,
    -57.88898152396));
#1014 = CARTESIAN_POINT('',(-2.500000000001,12.396317978672,
    -58.01399670935));
#1015 = CARTESIAN_POINT('',(-2.499999999999,15.300127990055,
    -58.16671732011));
#1016 = CARTESIAN_POINT('',(-2.500000000001,18.120318033154,
    -58.34016091517));
#1017 = CARTESIAN_POINT('',(-2.5,20.854122013214,-58.52734615361));
#1018 = CARTESIAN_POINT('',(-2.5,23.498763772619,-58.72129324511));
#1019 = CARTESIAN_POINT('',(-2.5,30.870556661129,-59.28076016264));
#1020 = CARTESIAN_POINT('',(-2.5,37.452117367489,-59.78025404924));
#1021 = CARTESIAN_POINT('',(-2.5,41.398549264863,-60.03198022968));
#1022 = CARTESIAN_POINT('',(-2.5,44.965243757983,-60.17835677923));
#1023 = CARTESIAN_POINT('',(-2.5,48.151644620542,-60.11827612117));
#1024 = CARTESIAN_POINT('',(-2.5,50.886944532522,-59.91359246524));
#1025 = CARTESIAN_POINT('',(-2.5,53.243179796587,-59.3799587714));
#1026 = CARTESIAN_POINT('',(-2.5,55.069582960379,-58.57922100006));
#1027 = CARTESIAN_POINT('',(-2.5,57.820172577627,-56.35846844574));
#1028 = CARTESIAN_POINT('',(-2.5,58.733194859559,-52.57843430109));
#1029 = CARTESIAN_POINT('',(-2.5,58.729663490739,-50.22103414747));
#1030 = CARTESIAN_POINT('',(-2.5,58.185891323016,-47.30498836973));
#1031 = CARTESIAN_POINT('',(-2.5,57.100562779641,-43.9049262906));
#1032 = CARTESIAN_POINT('',(-2.5,55.468895493872,-39.8583235856));
#1033 = CARTESIAN_POINT('',(-2.5,53.251121801567,-35.20268028906));
#1034 = CARTESIAN_POINT('',(-2.5,50.44296623697,-29.85324485615));
#1035 = CARTESIAN_POINT('',(-2.5,47.021484106897,-23.77495386069));
#1036 = CARTESIAN_POINT('',(-2.5,42.969124633586,-16.91983208016));
#1037 = PCURVE('',#46,#1038);
#1038 = DEFINITIONAL_REPRESENTATION('',(#1039),#1067);
#1039 = B_SPLINE_CURVE_WITH_KNOTS('',10,(#1040,#1041,#1042,#1043,#1044,
    #1045,#1046,#1047,#1048,#1049,#1050,#1051,#1052,#1053,#1054,#1055,
    #1056,#1057,#1058,#1059,#1060,#1061,#1062,#1063,#1064,#1065,#1066),
  .UNSPECIFIED.,.F.,.F.,(11,8,8,11),(0.,0.209393204226,0.604696602113,1.
    ),.UNSPECIFIED.);
#1040 = CARTESIAN_POINT('',(-0.25,15.));
#1041 = CARTESIAN_POINT('',(-0.250000000003,18.210735159757));
#1042 = CARTESIAN_POINT('',(-0.20134514362,21.34886840718));
#1043 = CARTESIAN_POINT('',(-0.11101847604,24.411646746093));
#1044 = CARTESIAN_POINT('',(1.399670935204E-02,27.396317978672));
#1045 = CARTESIAN_POINT('',(0.166717320119,30.300127990055));
#1046 = CARTESIAN_POINT('',(0.340160915174,33.120318033154));
#1047 = CARTESIAN_POINT('',(0.527346153615,35.854122013214));
#1048 = CARTESIAN_POINT('',(0.72129324511,38.498763772619));
#1049 = CARTESIAN_POINT('',(1.280760162649,45.870556661128));
#1050 = CARTESIAN_POINT('',(1.780254049245,52.452117367489));
#1051 = CARTESIAN_POINT('',(2.03198022968,56.398549264863));
#1052 = CARTESIAN_POINT('',(2.178356779237,59.965243757983));
#1053 = CARTESIAN_POINT('',(2.118276121177,63.151644620542));
#1054 = CARTESIAN_POINT('',(1.913592465244,65.886944532522));
#1055 = CARTESIAN_POINT('',(1.379958771404,68.243179796587));
#1056 = CARTESIAN_POINT('',(0.579221000065,70.069582960379));
#1057 = CARTESIAN_POINT('',(-1.641531554259,72.820172577627));
#1058 = CARTESIAN_POINT('',(-5.421565698905,73.733194859559));
#1059 = CARTESIAN_POINT('',(-7.778965852525,73.729663490739));
#1060 = CARTESIAN_POINT('',(-10.69501163026,73.185891323016));
#1061 = CARTESIAN_POINT('',(-14.09507370939,72.100562779641));
#1062 = CARTESIAN_POINT('',(-18.14167641439,70.468895493872));
#1063 = CARTESIAN_POINT('',(-22.79731971093,68.251121801567));
#1064 = CARTESIAN_POINT('',(-28.14675514384,65.44296623697));
#1065 = CARTESIAN_POINT('',(-34.2250461393,62.021484106897));
#1066 = CARTESIAN_POINT('',(-41.08016791983,57.969124633586));
#1067 = ( GEOMETRIC_REPRESENTATION_CONTEXT(2) 
PARAMETRIC_REPRESENTATION_CONTEXT() REPRESENTATION_CONTEXT('2D SPACE',''
  ) );
#1068 = PCURVE('',#307,#1069);
#1069 = DEFINITIONAL_REPRESENTATION('',(#1070),#1074);
#1070 = LINE('',#1071,#1072);
#1071 = CARTESIAN_POINT('',(5.,0.));
#1072 = VECTOR('',#1073,1.);
#1073 = DIRECTION('',(0.,1.));
#1074 = ( GEOMETRIC_REPRESENTATION_CONTEXT(2) 
PARAMETRIC_REPRESENTATION_CONTEXT() REPRESENTATION_CONTEXT('2D SPACE',''
  ) );
#1075 = ADVANCED_FACE('',(#1076),#127,.F.);
#1076 = FACE_BOUND('',#1077,.F.);
#1077 = EDGE_LOOP('',(#1078,#1079,#1080,#1081));
#1078 = ORIENTED_EDGE('',*,*,#770,.F.);
#1079 = ORIENTED_EDGE('',*,*,#115,.T.);
#1080 = ORIENTED_EDGE('',*,*,#610,.T.);
#1081 = ORIENTED_EDGE('',*,*,#1082,.F.);
#1082 = EDGE_CURVE('',#771,#533,#1083,.T.);
#1083 = SURFACE_CURVE('',#1084,(#1087,#1094),.PCURVE_S1.);
#1084 = B_SPLINE_CURVE_WITH_KNOTS('',1,(#1085,#1086),.UNSPECIFIED.,.F.,
  .F.,(2,2),(0.,5.),.PIECEWISE_BEZIER_KNOTS.);
#1085 = CARTESIAN_POINT('',(-2.5,43.399543734979,-16.66539270201));
#1086 = CARTESIAN_POINT('',(2.5,43.399543734979,-16.66539270201));
#1087 = PCURVE('',#127,#1088);
#1088 = DEFINITIONAL_REPRESENTATION('',(#1089),#1093);
#1089 = LINE('',#1090,#1091);
#1090 = CARTESIAN_POINT('',(0.,1.));
#1091 = VECTOR('',#1092,1.);
#1092 = DIRECTION('',(1.,0.));
#1093 = ( GEOMETRIC_REPRESENTATION_CONTEXT(2) 
PARAMETRIC_REPRESENTATION_CONTEXT() REPRESENTATION_CONTEXT('2D SPACE',''
  ) );
#1094 = PCURVE('',#572,#1095);
#1095 = DEFINITIONAL_REPRESENTATION('',(#1096),#1099);
#1096 = B_SPLINE_CURVE_WITH_KNOTS('',1,(#1097,#1098),.UNSPECIFIED.,.F.,
  .F.,(2,2),(0.,5.),.PIECEWISE_BEZIER_KNOTS.);
#1097 = CARTESIAN_POINT('',(0.,0.));
#1098 = CARTESIAN_POINT('',(5.,0.));
#1099 = ( GEOMETRIC_REPRESENTATION_CONTEXT(2) 
PARAMETRIC_REPRESENTATION_CONTEXT() REPRESENTATION_CONTEXT('2D SPACE',''
  ) );
#1100 = ADVANCED_FACE('',(#1101),#307,.F.);
#1101 = FACE_BOUND('',#1102,.F.);
#1102 = EDGE_LOOP('',(#1103,#1104,#1105,#1106));
#1103 = ORIENTED_EDGE('',*,*,#243,.F.);
#1104 = ORIENTED_EDGE('',*,*,#729,.T.);
#1105 = ORIENTED_EDGE('',*,*,#1007,.T.);
#1106 = ORIENTED_EDGE('',*,*,#1107,.F.);
#1107 = EDGE_CURVE('',#244,#961,#1108,.T.);
#1108 = SURFACE_CURVE('',#1109,(#1112,#1119),.PCURVE_S1.);
#1109 = B_SPLINE_CURVE_WITH_KNOTS('',1,(#1110,#1111),.UNSPECIFIED.,.F.,
  .F.,(2,2),(0.,5.),.PIECEWISE_BEZIER_KNOTS.);
#1110 = CARTESIAN_POINT('',(2.5,42.969124633586,-16.91983208016));
#1111 = CARTESIAN_POINT('',(-2.5,42.969124633586,-16.91983208016));
#1112 = PCURVE('',#307,#1113);
#1113 = DEFINITIONAL_REPRESENTATION('',(#1114),#1118);
#1114 = LINE('',#1115,#1116);
#1115 = CARTESIAN_POINT('',(0.,1.));
#1116 = VECTOR('',#1117,1.);
#1117 = DIRECTION('',(1.,0.));
#1118 = ( GEOMETRIC_REPRESENTATION_CONTEXT(2) 
PARAMETRIC_REPRESENTATION_CONTEXT() REPRESENTATION_CONTEXT('2D SPACE',''
  ) );
#1119 = PCURVE('',#408,#1120);
#1120 = DEFINITIONAL_REPRESENTATION('',(#1121),#1124);
#1121 = B_SPLINE_CURVE_WITH_KNOTS('',1,(#1122,#1123),.UNSPECIFIED.,.F.,
  .F.,(2,2),(0.,5.),.PIECEWISE_BEZIER_KNOTS.);
#1122 = CARTESIAN_POINT('',(0.,0.));
#1123 = CARTESIAN_POINT('',(5.,0.));
#1124 = ( GEOMETRIC_REPRESENTATION_CONTEXT(2) 
PARAMETRIC_REPRESENTATION_CONTEXT() REPRESENTATION_CONTEXT('2D SPACE',''
  ) );
#1125 = ADVANCED_FACE('',(#1126),#572,.F.);
#1126 = FACE_BOUND('',#1127,.F.);
#1127 = EDGE_LOOP('',(#1128,#1129,#1130,#1131));
#1128 = ORIENTED_EDGE('',*,*,#841,.F.);
#1129 = ORIENTED_EDGE('',*,*,#1082,.T.);
#1130 = ORIENTED_EDGE('',*,*,#532,.T.);
#1131 = ORIENTED_EDGE('',*,*,#1132,.F.);
#1132 = EDGE_CURVE('',#842,#502,#1133,.T.);
#1133 = SURFACE_CURVE('',#1134,(#1137,#1144),.PCURVE_S1.);
#1134 = B_SPLINE_CURVE_WITH_KNOTS('',1,(#1135,#1136),.UNSPECIFIED.,.F.,
  .F.,(2,2),(0.,5.),.PIECEWISE_BEZIER_KNOTS.);
#1135 = CARTESIAN_POINT('',(-2.5,54.,51.75));
#1136 = CARTESIAN_POINT('',(2.5,54.,51.75));
#1137 = PCURVE('',#572,#1138);
#1138 = DEFINITIONAL_REPRESENTATION('',(#1139),#1143);
#1139 = LINE('',#1140,#1141);
#1140 = CARTESIAN_POINT('',(0.,1.));
#1141 = VECTOR('',#1142,1.);
#1142 = DIRECTION('',(1.,0.));
#1143 = ( GEOMETRIC_REPRESENTATION_CONTEXT(2) 
PARAMETRIC_REPRESENTATION_CONTEXT() REPRESENTATION_CONTEXT('2D SPACE',''
  ) );
#1144 = PCURVE('',#519,#1145);
#1145 = DEFINITIONAL_REPRESENTATION('',(#1146),#1149);
#1146 = B_SPLINE_CURVE_WITH_KNOTS('',1,(#1147,#1148),.UNSPECIFIED.,.F.,
  .F.,(2,2),(0.,5.),.PIECEWISE_BEZIER_KNOTS.);
#1147 = CARTESIAN_POINT('',(-2.5,-7.7025));
#1148 = CARTESIAN_POINT('',(2.5,-7.7025));
#1149 = ( GEOMETRIC_REPRESENTATION_CONTEXT(2) 
PARAMETRIC_REPRESENTATION_CONTEXT() REPRESENTATION_CONTEXT('2D SPACE',''
  ) );
#1150 = ADVANCED_FACE('',(#1151),#408,.F.);
#1151 = FACE_BOUND('',#1152,.F.);
#1152 = EDGE_LOOP('',(#1153,#1154,#1155,#1156));
#1153 = ORIENTED_EDGE('',*,*,#368,.F.);
#1154 = ORIENTED_EDGE('',*,*,#1107,.T.);
#1155 = ORIENTED_EDGE('',*,*,#960,.T.);
#1156 = ORIENTED_EDGE('',*,*,#1157,.F.);
#1157 = EDGE_CURVE('',#369,#935,#1158,.T.);
#1158 = SURFACE_CURVE('',#1159,(#1162,#1169),.PCURVE_S1.);
#1159 = B_SPLINE_CURVE_WITH_KNOTS('',1,(#1160,#1161),.UNSPECIFIED.,.F.,
  .F.,(2,2),(0.,5.),.PIECEWISE_BEZIER_KNOTS.);
#1160 = CARTESIAN_POINT('',(2.5,54.,52.25));
#1161 = CARTESIAN_POINT('',(-2.5,54.,52.25));
#1162 = PCURVE('',#408,#1163);
#1163 = DEFINITIONAL_REPRESENTATION('',(#1164),#1168);
#1164 = LINE('',#1165,#1166);
#1165 = CARTESIAN_POINT('',(0.,1.));
#1166 = VECTOR('',#1167,1.);
#1167 = DIRECTION('',(1.,0.));
#1168 = ( GEOMETRIC_REPRESENTATION_CONTEXT(2) 
PARAMETRIC_REPRESENTATION_CONTEXT() REPRESENTATION_CONTEXT('2D SPACE',''
  ) );
#1169 = PCURVE('',#463,#1170);
#1170 = DEFINITIONAL_REPRESENTATION('',(#1171),#1174);
#1171 = B_SPLINE_CURVE_WITH_KNOTS('',1,(#1172,#1173),.UNSPECIFIED.,.F.,
  .F.,(2,2),(0.,5.),.PIECEWISE_BEZIER_KNOTS.);
#1172 = CARTESIAN_POINT('',(-2.5,-7.7025));
#1173 = CARTESIAN_POINT('',(2.5,-7.7025));
#1174 = ( GEOMETRIC_REPRESENTATION_CONTEXT(2) 
PARAMETRIC_REPRESENTATION_CONTEXT() REPRESENTATION_CONTEXT('2D SPACE',''
  ) );
#1175 = ADVANCED_FACE('',(#1176),#519,.F.);
#1176 = FACE_BOUND('',#1177,.F.);
#1177 = EDGE_LOOP('',(#1178,#1179,#1180,#1181));
#1178 = ORIENTED_EDGE('',*,*,#888,.F.);
#1179 = ORIENTED_EDGE('',*,*,#1132,.T.);
#1180 = ORIENTED_EDGE('',*,*,#501,.T.);
#1181 = ORIENTED_EDGE('',*,*,#1182,.F.);
#1182 = EDGE_CURVE('',#889,#477,#1183,.T.);
#1183 = SURFACE_CURVE('',#1184,(#1187,#1193),.PCURVE_S1.);
#1184 = B_SPLINE_CURVE_WITH_KNOTS('',1,(#1185,#1186),.UNSPECIFIED.,.F.,
  .F.,(2,2),(0.,5.),.PIECEWISE_BEZIER_KNOTS.);
#1185 = CARTESIAN_POINT('',(-2.5,69.,51.75));
#1186 = CARTESIAN_POINT('',(2.5,69.,51.75));
#1187 = PCURVE('',#519,#1188);
#1188 = DEFINITIONAL_REPRESENTATION('',(#1189),#1192);
#1189 = B_SPLINE_CURVE_WITH_KNOTS('',1,(#1190,#1191),.UNSPECIFIED.,.F.,
  .F.,(2,2),(0.,5.),.PIECEWISE_BEZIER_KNOTS.);
#1190 = CARTESIAN_POINT('',(-2.5,7.2975));
#1191 = CARTESIAN_POINT('',(2.5,7.2975));
#1192 = ( GEOMETRIC_REPRESENTATION_CONTEXT(2) 
PARAMETRIC_REPRESENTATION_CONTEXT() REPRESENTATION_CONTEXT('2D SPACE',''
  ) );
#1193 = PCURVE('',#490,#1194);
#1194 = DEFINITIONAL_REPRESENTATION('',(#1195),#1198);
#1195 = B_SPLINE_CURVE_WITH_KNOTS('',1,(#1196,#1197),.UNSPECIFIED.,.F.,
  .F.,(2,2),(0.,5.),.PIECEWISE_BEZIER_KNOTS.);
#1196 = CARTESIAN_POINT('',(0.25,-2.5));
#1197 = CARTESIAN_POINT('',(0.25,2.5));
#1198 = ( GEOMETRIC_REPRESENTATION_CONTEXT(2) 
PARAMETRIC_REPRESENTATION_CONTEXT() REPRESENTATION_CONTEXT('2D SPACE',''
  ) );
#1199 = ADVANCED_FACE('',(#1200),#463,.F.);
#1200 = FACE_BOUND('',#1201,.F.);
#1201 = EDGE_LOOP('',(#1202,#1203,#1204,#1205));
#1202 = ORIENTED_EDGE('',*,*,#445,.F.);
#1203 = ORIENTED_EDGE('',*,*,#1157,.T.);
#1204 = ORIENTED_EDGE('',*,*,#934,.T.);
#1205 = ORIENTED_EDGE('',*,*,#1206,.F.);
#1206 = EDGE_CURVE('',#446,#915,#1207,.T.);
#1207 = SURFACE_CURVE('',#1208,(#1211,#1217),.PCURVE_S1.);
#1208 = B_SPLINE_CURVE_WITH_KNOTS('',1,(#1209,#1210),.UNSPECIFIED.,.F.,
  .F.,(2,2),(0.,5.),.PIECEWISE_BEZIER_KNOTS.);
#1209 = CARTESIAN_POINT('',(2.5,69.,52.25));
#1210 = CARTESIAN_POINT('',(-2.5,69.,52.25));
#1211 = PCURVE('',#463,#1212);
#1212 = DEFINITIONAL_REPRESENTATION('',(#1213),#1216);
#1213 = B_SPLINE_CURVE_WITH_KNOTS('',1,(#1214,#1215),.UNSPECIFIED.,.F.,
  .F.,(2,2),(0.,5.),.PIECEWISE_BEZIER_KNOTS.);
#1214 = CARTESIAN_POINT('',(-2.5,7.2975));
#1215 = CARTESIAN_POINT('',(2.5,7.2975));
#1216 = ( GEOMETRIC_REPRESENTATION_CONTEXT(2) 
PARAMETRIC_REPRESENTATION_CONTEXT() REPRESENTATION_CONTEXT('2D SPACE',''
  ) );
#1217 = PCURVE('',#490,#1218);
#1218 = DEFINITIONAL_REPRESENTATION('',(#1219),#1222);
#1219 = B_SPLINE_CURVE_WITH_KNOTS('',1,(#1220,#1221),.UNSPECIFIED.,.F.,
  .F.,(2,2),(0.,5.),.PIECEWISE_BEZIER_KNOTS.);
#1220 = CARTESIAN_POINT('',(-0.25,2.5));
#1221 = CARTESIAN_POINT('',(-0.25,-2.5));
#1222 = ( GEOMETRIC_REPRESENTATION_CONTEXT(2) 
PARAMETRIC_REPRESENTATION_CONTEXT() REPRESENTATION_CONTEXT('2D SPACE',''
  ) );
#1223 = ADVANCED_FACE('',(#1224),#73,.T.);
#1224 = FACE_BOUND('',#1225,.T.);
#1225 = EDGE_LOOP('',(#1226,#1227,#1228,#1229));
#1226 = ORIENTED_EDGE('',*,*,#59,.T.);
#1227 = ORIENTED_EDGE('',*,*,#192,.T.);
#1228 = ORIENTED_EDGE('',*,*,#683,.T.);
#1229 = ORIENTED_EDGE('',*,*,#751,.T.);
#1230 = ADVANCED_FACE('',(#1231),#490,.F.);
#1231 = FACE_BOUND('',#1232,.F.);
#1232 = EDGE_LOOP('',(#1233,#1234,#1235,#1236));
#1233 = ORIENTED_EDGE('',*,*,#1182,.T.);
#1234 = ORIENTED_EDGE('',*,*,#476,.T.);
#1235 = ORIENTED_EDGE('',*,*,#1206,.T.);
#1236 = ORIENTED_EDGE('',*,*,#914,.T.);
#1237 = ( GEOMETRIC_REPRESENTATION_CONTEXT(3) 
GLOBAL_UNCERTAINTY_ASSIGNED_CONTEXT((#1241)) 
GLOBAL_UNIT_ASSIGNED_CONTEXT((#1238,#1239,#1240)) REPRESENTATION_CONTEXT
('Context #1','3D Context with UNIT and UNCERTAINTY') );
#1238 = ( LENGTH_UNIT() NAMED_UNIT(*) SI_UNIT(.MILLI.,.METRE.) );
#1239 = ( NAMED_UNIT(*) PLANE_ANGLE_UNIT() SI_UNIT($,.RADIAN.) );
#1240 = ( NAMED_UNIT(*) SI_UNIT($,.STERADIAN.) SOLID_ANGLE_UNIT() );
#1241 = UNCERTAINTY_MEASURE_WITH_UNIT(LENGTH_MEASURE(2.E-05),#1238,
  'distance_accuracy_value','confusion accuracy');
#1242 = PRODUCT_RELATED_PRODUCT_CATEGORY('part',$,(#7));
ENDSEC;
END-ISO-10303-21;
