DBRep_DrawableShape

CASCADE Topology V3, (c) Open Cascade
Locations 0
Curve2ds 28
1 0 0 0 1 
7 0 0  10 35 5  0.26805035128188237 -42.497344872014878  -0.25271802857084325 -38.085016856700285  -0.53207043024809053 -33.587145964844382  -0.6038135867496095 -29.046301721004514  -0.50181560484642773 -24.505055424356399  -0.25999326134408207 -20.005966629471686  0.087700700576334611 -15.591569627062288  0.5072902751174162 -11.304359924773525  0.96478889751892183 -7.186780727920139  1.7788548426511177 -0.29637675305618005  2.4994035608935867 5.8024802031263132  2.7788443266392804 8.2764827648016386  3.0103515159803358 10.566737335851323  3.1786186115187469 12.647685990724419  3.2692721848894664 14.507477944071598  3.2658965179802237 16.128838181495219  3.1525210737806191 17.48240753502969  2.8023467449024224 19.110830771385629  2.0998708633486913 20.091513376205242  1.8214242423485416 20.341611190834939  1.5010959497721466 20.525219506643321  1.094152957850973 20.589108028259371  0.71513528526928027 20.560852857580034  0.26481527096478885 20.456479772521792  -0.21649292743049742 20.257334508107974  -1.2722288524904428 19.678993571948574  -2.5191445367494651 18.72695572407234  -3.1931863392163393 18.155144458431483  -3.9201871008538802 17.485066898115797  -4.7022788237300048 16.714218140618705  -5.5414768148553541 15.840112092661908  -6.4397612648852594 14.86030609770121  -7.3991141035043313 13.772400432653095  -8.4215111318326734 12.574012673330367  -9.5088694315616209 11.262726929025998 
 0 11 0.3954914144540066 8 0.69774570722700324 8 0.84887285361350162 8 1 11
1 0 0 1 0 
1 10 0 0 1 
7 0 0  10 35 5  -0.26805035128188237 -42.497344872014878  0.25271802857085035 -38.085016856700292  0.53207043024807987 -33.587145964844353  0.60381358674964147 -29.046301721004571  0.50181560484635668 -24.505055424356328  0.25999326134414602 -20.005966629471772  -0.087700700576352375 -15.59156962706219  -0.50729027511744462 -11.304359924773612  -0.96478889751889341 -7.1867807279200804  -1.7788548426511817 -0.29637675305627553  -2.4994035608935086 5.8024802031264411  -2.7788443266395113 8.2764827648010701  -3.0103515159798881 10.566737335852427  -3.1786186115194219 12.647685990723136  -3.2692721848886741 14.507477944072548  -3.265896517980817 16.128838181494785  -3.1525210737803384 17.482407535029825  -2.8023467449026427 19.110830771385508  -2.0998708633485386 20.091513376205342  -1.8214242423492664 20.341611190834467  -1.5010959497706082 20.525219506644095  -1.0941529578530869 20.589108028258483  -0.71513528526737247 20.560852857580695  -0.26481527096585111 20.456479772521444  0.21649292743071769 20.257334508108059  1.2722288524903682 19.678993571948485  2.5191445367493301 18.726955724072418  3.1931863392171493 18.155144458431245  3.9201871008521003 17.485066898116131  4.702278823732474 16.714218140618389  5.541476814852853 15.840112092662114  6.4397612648870357 14.860306097701059  7.3991141035034644 13.772400432653175  8.421511131832883 12.574012673330332  9.5088694315616085 11.262726929025995 
 0 11 0.3954914144540066 8 0.69774570722700324 8 0.84887285361350162 8 1 11
1 0 1 1 0 
8 0 10
1 0 0 1 0 
7 0 0  1 2 2  -0.26805035128188237 -42.497344872014878  -0.019773628085065553 -42.526647921662509 
 0 2 0.25 2
8 0 1
1 0 0 0 1 
7 0 0  10 35 5  -0.019773628085065553 -42.526647921662509  0.50247740182765455 -38.101757817996621  0.78236500961079614 -33.593285238137618  0.85408908946285322 -29.043572200378875  0.75178816186136288 -24.494958948400765  0.50955207716340922 -19.989797470477406  0.16143471946298504 -15.570465018757538  -0.25853328987775726 -11.279377628440814  -0.71633188836685946 -7.1590036370697092  -1.5307219793866373 -0.26585603176589689  -2.2510229691514176 5.8309041049969466  -2.5301780093607675 8.3040027269453169  -2.7613483234257608 10.587066138073137  -2.929483523878428 12.667749316339481  -3.0186001342520683 14.520000099502209  -3.0147569677805421 16.123190554359997  -2.9035676566444515 17.468776901294493  -2.5453406122830806 19.044140306520639  -1.9137807243429741 19.914542347530052  -1.6742392094791718 20.12643465796836  -1.3994752070851071 20.245040508605115  -1.1304271317574148 20.318852326290056  -0.74876035179179468 20.315556140776899  -0.34990791506143992 20.214388305601499  0.11023894911494025 20.029265217361839  1.1295675985413425 19.472138846406203  2.357203839847152 18.535896709797449  3.0241044510452006 17.970626945396628  3.7455071670427813 17.30594456944468  4.5230745989173258 16.539616615953985  5.3585860527077429 15.669391309819865  6.2538559509276084 14.692973439064854  7.2106969769478866 13.608024858383326  8.2309279427865363 12.412190123476101  9.3164263798447156 11.103147256617868 
 0 11 0.3954914144540066 8 0.69774570722700324 8 0.84887285361350162 8 1 11
8 0 1
1 0 0 0 1 
7 0 0  10 11 2  -13.777967000166633 -48.329859114477948  -4.5183817897827829 -41.862925667171567  2.8988533386171671 -32.745344084319363  8.3693581970387534 -21.760608947892283  11.790447455665429 -9.7014405026164603  13.083628339097007 2.7005909228761382  12.078017126422136 14.591162370033238  8.7780355969284329 25.274787611131465  2.9510679950032452 33.9450979666073  -5.448557709618961 39.787352703687397  -16.513598726489437 42.031962739909297 
 0 11 1 11
7 0 0  1 2 2  -16.563300411486722 41.786953061511831  -16.513598726489437 42.031962739909297 
 0 2 0.25 2
1 10 0 0 1 
7 0 0  10 11 2  -13.921112992404865 -48.124897593928033  -4.714249838195153 -41.694785453487007  2.6693253053205588 -32.623130575781417  8.1249210543082135 -21.683483150830028  11.546151166715472 -9.6401677060563706  12.802436846143138 2.6813413153184058  11.855590241610983 14.578322099569355  8.4921180020365767 25.189216102618083  2.7355643111570265 33.763347231809114  -5.5774703725847976 39.5584114479798  -16.563300411486722 41.786953061511831 
 0 11 1 11
1 0 0 1 0 
1 10 0 0 1 
7 0 0  10 35 5  0.019773628085065553 -42.526647921662509  -0.5024774018276581 -38.101757817996607  -0.78236500961079969 -33.593285238137632  -0.85408908946284967 -29.043572200378843  -0.75178816186139841 -24.494958948400793  -0.50955207716332751 -19.98979747047736  -0.16143471946305965 -15.570465018757595  0.25853328987779634 -11.279377628440754  0.71633188836683104 -7.1590036370697518  1.5307219793866764 -0.26585603176582184  2.2510229691513537 5.8309041049968471  2.5301780093611228 8.3040027269458392  2.7613483234250573 10.587066138071943  2.9294835238792594 12.66774931634119  3.0186001342513613 14.520000099500555  3.0147569677809791 16.123190554361067  2.9035676566443094 17.468776901294088  2.5453406122831232 19.044140306520884  1.9137807243429954 19.91454234752997  1.6742392094787633 20.126434657968478  1.3994752070861516 20.245040508605047  1.1304271317559298 20.318852326289964  0.74876035179311984 20.315556140777197  0.34990791506066898 20.21438830560124  -0.11023894911475196 20.029265217361932  -1.1295675985414491 19.47213884640615  -2.3572038398471413 18.535896709797498  -3.0241044510451154 17.970626945396532  -3.7455071670428453 17.305944569444915  -4.5230745989175922 16.539616615953634  -5.3585860527071922 15.669391309820217  -6.2538559509281022 14.692973439064668  -7.2106969769477018 13.608024858383384  -8.2309279427865718 12.412190123476108  -9.316426379844728 11.103147256617873 
 0 11 0.3954914144540066 8 0.69774570722700324 8 0.84887285361350162 8 1 11
1 0 1 1 0 
8 0 10
1 0 0 1 0 
7 0 0  1 2 2  0.019773628085065553 -42.526647921662509  0.26805035128188237 -42.497344872014878 
 0 2 0.25 2
1 0 0 0 1 
7 0 0  10 11 2  13.921112992404865 -48.124897593928033  4.7142498381951325 -41.694785453487015  -2.6693253053204704 -32.623130575781396  -8.1249210543084409 -21.683483150830071  -11.546151166715109 -9.640167706056296  -12.802436846143543 2.6813413153183205  -11.85559024161067 14.578322099569419  -8.4921180020367437 25.189216102618047  -2.7355643111569838 33.763347231809114  5.5774703725847958 39.5584114479798  16.563300411486722 41.786953061511831 
 0 11 1 11
7 0 0  1 2 2  16.513598726489434 42.031962739909297  16.563300411486722 41.786953061511831 
 0 2 0.25 2
1 10 0 0 1 
7 0 0  10 11 2  13.777967000166633 -48.329859114477948  4.5183817897828362 -41.862925667171559  -2.8988533386173385 -32.745344084319399  -8.3693581970383981 -21.760608947892212  -11.790447455665944 -9.7014405026165669  -13.083628339096478 2.7005909228762448  -12.07801712642252 14.59116237003316  -8.7780355969282517 25.274787611131501  -2.9510679950032896 33.945097966607285  5.4485577096189592 39.787352703687397  16.513598726489434 42.031962739909297 
 0 11 1 11
1 0 1 1 0 
1 0 1 1 0 
Curves 18
7 0 0  10 35 5  -5 -45 -20.125  -5.0000000000000755 -40.557046227993766 -20.125000000000171  -4.9999999999997033 -36.057436133242334 -20.374778540588558  -5.0000000000005711 -31.539483242504218 -20.835772254634161  -4.9999999999992415 -27.041495651169001 -21.46935661628379  -5.000000000000731 -22.601764086257262 -22.236860141748352  -4.999999999999492 -18.258549969378389 -23.099578590015842  -5.0000000000002283 -14.050073479748605 -24.018789163658141  -4.9999999999999423 -10.014501617139869 -24.95576470953953  -5.0000000000000435 -3.2670123948403185 -26.571858609904361  -4.9999999999999662 2.7053473870112934 -28.002300941303226  -5.0000000000001323 5.1295425172555404 -28.569798771463571  -4.9999999999997513 7.3768746513503451 -29.068155930532704  -5.0000000000002887 9.4237561478227061 -29.479175709932854  -4.9999999999998153 11.260102651197212 -29.787194702275894  -5.0000000000000266 12.870682348013947 -29.973885502336241  -5.0000000000000533 14.228210387955444 -30.019946407101322  -4.9999999999999041 15.886453431333249 -29.8630569351844  -5.0000000000001377 16.942714828349903 -29.280371259426964  -4.9999999999992815 17.223726032567214 -29.033158515553826  -5.0000000000013411 17.443615100013208 -28.736559414616835  -4.9999999999984901 17.55476191398418 -28.339910038451759  -5.0000000000011555 17.571127003933611 -27.960193124645816  -4.9999999999994289 17.520256372686745 -27.500743415706616  -5.0000000000001403 17.378899030064993 -26.999410672044402  -4.9999999999999032 16.928289788891327 -25.883163435242089  -5.0000000000000533 16.128968168780087 -24.533252425188945  -4.9999999999998588 15.640104381107804 -23.796833609507743  -5.0000000000003393 15.05985909490474 -22.996302877993138  -4.9999999999994609 14.385994570875637 -22.129249319565986  -5.0000000000005507 13.616278071215259 -21.193380118483891  -4.9999999999995861 12.748515879373185 -20.186442424614057  -5.0000000000002229 11.780557120150188 -19.106186693107055  -4.9999999999999334 10.710267379657679 -17.950371493074776  -5 9.5354721255422117 -16.716809785614196 
 0 11 0.3954914144540066 8 0.69774570722700324 8 0.84887285361350162 8 1 11
7 0 0  1 2 2  -5 -45 -20.125  5 -45 -20.125 
 0 2 10 2
7 0 0  10 35 5  5 -45 -20.125  5.0000000000000755 -40.557046227993773 -20.125000000000163  4.9999999999997033 -36.057436133242305 -20.374778540588569  5.0000000000005711 -31.539483242504268 -20.835772254634122  4.9999999999992415 -27.041495651168937 -21.469356616283864  5.000000000000731 -22.60176408625734 -22.236860141748274  4.999999999999492 -18.258549969378294 -23.099578590015867  5.0000000000002283 -14.050073479748692 -24.018789163658155  4.9999999999999423 -10.014501617139807 -24.955764709539505  5.0000000000000435 -3.2670123948404193 -26.57185860990441  4.9999999999999662 2.7053473870114306 -28.002300941303158  5.0000000000001323 5.1295425172549498 -28.569798771463727  4.9999999999997513 7.3768746513514962 -29.068155930532384  5.0000000000002887 9.4237561478213525 -29.479175709933372  4.9999999999998153 11.260102651198251 -29.787194702275215  5.0000000000000266 12.870682348013448 -29.973885502336778  5.0000000000000533 14.228210387955615 -30.019946407101052  4.9999999999999041 15.886453431333104 -29.863056935184598  5.0000000000001377 16.942714828350024 -29.280371259426822  4.9999999999992815 17.223726032566663 -29.033158515554483  5.0000000000013411 17.44361510001416 -28.736559414615392  4.9999999999984901 17.55476191398305 -28.339910038453752  5.0000000000011555 17.571127003934492 -27.960193124643997  4.9999999999994289 17.520256372686276 -27.500743415707625  5.0000000000001403 17.378899030065107 -26.999410672044192  4.9999999999999032 16.928289788891231 -25.883163435242146  5.0000000000000533 16.128968168780151 -24.533252425189083  4.9999999999998588 15.640104381107664 -23.796833609506908  5.0000000000003393 15.059859094904866 -22.996302877994939  4.9999999999994609 14.385994570875615 -22.129249319563492  5.0000000000005507 13.616278071215168 -21.193380118486392  4.9999999999995861 12.748515879373247 -20.18644242461227  5.0000000000002229 11.780557120150167 -19.106186693107919  4.9999999999999334 10.710267379657671 -17.950371493074559  5 9.5354721255422081 -16.716809785614203 
 0 11 0.3954914144540066 8 0.69774570722700324 8 0.84887285361350162 8 1 11
7 0 0  1 2 2  -5 9.5354721255422117 -16.716809785614196  5 9.5354721255422081 -16.716809785614203 
 0 2 10 2
7 0 0  1 2 2  5 -45 -20.125  5 -45 -19.874999999999996 
 0 2 0.25 2
7 0 0  10 35 5  5 -45 -19.874999999999996  5.0000000000000755 -40.544396946791018 -19.87500000000054  4.9999999999997033 -36.034195509924153 -20.125489670875716  5.0000000000005711 -31.507437194830519 -20.587541860907471  4.9999999999992415 -27.002168938309584 -21.222290577049375  5.000000000000731 -22.556455045529638 -21.990916784277427  4.999999999999492 -18.208389127071783 -22.854634204677129  5.0000000000002283 -13.996106035908243 -23.77467511686665  4.9999999999999423 -9.9577938044567897 -24.712276155078332  5.0000000000000435 -3.2076178577083061 -26.329013553914361  4.9999999999999662 2.7626885951242444 -27.758964091640273  5.0000000000001323 5.1860195071132953 -28.326072213038238  4.9999999999997513 7.4262495366143204 -28.823251927283845  5.0000000000002887 9.4728828461516237 -29.234109603668472  4.9999999999998153 11.30192031224831 -29.539718310327885  5.0000000000000266 12.894510269410008 -29.723815113188099  5.0000000000000533 14.243854089009119 -29.771111376012161  4.9999999999999041 15.850346924848202 -29.600005437379682  5.0000000000001377 16.788775714277797 -29.074820696342798  4.9999999999992815 17.027284615913587 -28.86176673039375  5.0000000000013411 17.177278596519987 -28.602798758245221  4.9999999999984901 17.282117337867763 -28.344256905578959  5.0000000000011555 17.323579875723478 -27.964834642496221  4.9999999999994289 17.269859772304777 -27.556873433986759  5.0000000000001403 17.139947582984547 -27.078199727296312  4.9999999999999032 16.706139295920529 -26.00059541270295  5.0000000000000533 15.920244719649354 -24.671682400381702  4.9999999999998588 15.437040307218551 -23.943122294714712  5.0000000000003393 14.861496856557705 -23.148783402332363  4.9999999999994609 14.191591672052935 -22.286752841860842  5.0000000000005507 13.42529705669957 -21.354999636697784  4.9999999999995861 12.560546292114367 -20.351452844496411  5.0000000000002229 11.595229818681227 -19.274038217754686  4.9999999999999334 10.527221615386511 -18.120673394915926  5 9.3544357797297586 -16.889221622489956 
 0 11 0.3954914144540066 8 0.69774570722700324 8 0.84887285361350162 8 1 11
7 0 0  10 11 2  5 9.354435779729755 -16.889221622489949  5.0000000000001412 1.565353758154989 -8.7105085365925081  4.9999999999994342 -3.8911871444039483 1.69967072452674  5.0000000000012097 -7.0686543064214833 13.552709653753709  4.9999999999981828 -8.0240102569370446 26.051297186544822  5.0000000000020366 -6.8257701494294247 38.462861186337072  4.9999999999982929 -3.4763064841708622 49.916159244368998  5.0000000000010258 1.8817798743128049 59.730467012228225  4.9999999999995879 9.3161498434995735 67.069266386472691  5.0000000000000941 18.709587832158903 71.125000000000185  5 29.999999999999989 71.125 
 0 11 1 11
7 0 0  1 2 2  5 29.999999999999993 70.875  5 29.999999999999989 71.125 
 0 2 0.25 2
7 0 0  10 11 2  5 9.5354721255422028 -16.716809785614174  5.0000000000001412 1.7907394360981101 -8.5846645060432589  4.9999999999994342 -3.6419439167040628 1.773812974181761  5.0000000000012097 -6.8137633152232517 13.579700169212682  4.9999999999981828 -7.7724089912456193 26.062779150466046  5.0000000000020366 -6.5540185521271219 38.388093061682248  4.9999999999982929 -3.2608722584242438 49.859355318366184  5.0000000000010258 2.1449779935598294 59.589761276158839  4.9999999999995879 9.4912185255142454 66.848300045305947  5.0000000000000941 18.79041216784114 70.875000000001307  5 29.999999999999993 70.875 
 0 11 1 11
7 0 0  1 2 2  5 -45 -19.874999999999996  -5 -45 -19.874999999999996 
 0 2 10 2
7 0 0  10 35 5  -5 -45 -19.874999999999996  -5.0000000000000755 -40.544396946791004 -19.87500000000054  -4.9999999999997033 -36.034195509924167 -20.125489670875712  -5.0000000000005711 -31.507437194830491 -20.587541860907479  -4.9999999999992415 -27.002168938309609 -21.222290577049339  -5.000000000000731 -22.556455045529603 -21.990916784277513  -4.999999999999492 -18.208389127071836 -22.854634204677051  -5.0000000000002283 -13.996106035908189 -23.7746751168667  -4.9999999999999423 -9.9577938044568306 -24.712276155078303  -5.0000000000000435 -3.2076178577082382 -26.329013553914415  -4.9999999999999662 2.762688595124152 -27.758964091640202  -5.0000000000001323 5.1860195071137714 -28.326072213038657  -4.9999999999997513 7.4262495366132137 -28.823251927283014  -5.0000000000002887 9.4728828461532224 -29.234109603669499  -4.9999999999998153 11.301920312246748 -29.539718310326993  -5.0000000000000266 12.894510269411015 -29.723815113188667  -5.0000000000000533 14.243854089008732 -29.771111376011977  -4.9999999999999041 15.850346924848438 -29.600005437379757  -5.0000000000001377 16.788775714277712 -29.074820696342812  -4.9999999999992815 17.027284615913754 -28.861766730393363  -5.0000000000013411 17.177278596519795 -28.602798758246255  -4.9999999999984901 17.282117337867845 -28.344256905577478  -5.0000000000011555 17.323579875723617 -27.964834642497575  -4.9999999999994289 17.269859772304606 -27.556873433985963  -5.0000000000001403 17.139947582984615 -27.078199727296514  -4.9999999999999032 16.706139295920487 -26.000595412702843  -5.0000000000000533 15.9202447196494 -24.671682400381723  -4.9999999999998588 15.437040307218442 -23.94312229471479  -5.0000000000003393 14.861496856557945 -23.148783402332331  -4.9999999999994609 14.191591672052619 -22.286752841860544  -5.0000000000005507 13.425297056699854 -21.354999636698373  -4.9999999999995861 12.560546292114239 -20.351452844495903  -5.0000000000002229 11.595229818681261 -19.274038217754882  -4.9999999999999334 10.527221615386519 -18.120673394915894  -5 9.3544357797297639 -16.889221622489949 
 0 11 0.3954914144540066 8 0.69774570722700324 8 0.84887285361350162 8 1 11
7 0 0  1 2 2  5 9.3544357797297586 -16.889221622489956  -5 9.3544357797297639 -16.889221622489949 
 0 2 10 2
7 0 0  1 2 2  -5 -45 -19.874999999999996  -5 -45 -20.125 
 0 2 0.25 2
7 0 0  10 11 2  -5 9.5354721255421993 -16.716809785614174  -5.0000000000001412 1.7907394360980877 -8.5846645060432589  -4.9999999999994342 -3.6419439167039744 1.773812974181761  -5.0000000000012097 -6.8137633152234836 13.579700169212682  -4.9999999999981828 -7.7724089912452454 26.062779150466046  -5.0000000000020366 -6.554018552127534 38.388093061682248  -4.9999999999982929 -3.2608722584239227 49.859355318366184  -5.0000000000010258 2.1449779935596607 59.589761276158839  -4.9999999999995879 9.4912185255142898 66.848300045305947  -5.0000000000000941 18.79041216784114 70.875000000001307  -5 29.999999999999993 70.875 
 0 11 1 11
7 0 0  1 2 2  -5 29.999999999999989 71.125  -5 29.999999999999993 70.875 
 0 2 0.25 2
7 0 0  10 11 2  -5 9.354435779729755 -16.889221622489949  -5.0000000000001412 1.5653537581550412 -8.7105085365925081  -4.9999999999994342 -3.8911871444041246 1.69967072452674  -5.0000000000012097 -7.0686543064211218 13.552709653753709  -4.9999999999981828 -8.0240102569375669 26.051297186544822  -5.0000000000020366 -6.8257701494288829 38.462861186337072  -4.9999999999982929 -3.4763064841712539 49.916159244368998  -5.0000000000010258 1.8817798743129899 59.730467012228225  -4.9999999999995879 9.3161498434995291 67.069266386472691  -5.0000000000000941 18.709587832158903 71.125000000000185  -5 29.999999999999989 71.125 
 0 11 1 11
7 0 0  1 2 2  -5 29.999999999999993 70.875  5 29.999999999999993 70.875 
 0 2 10 2
7 0 0  1 2 2  5 29.999999999999989 71.125  -5 29.999999999999989 71.125 
 0 2 10 2
Polygon3D 0
PolygonOnTriangulations 0
Surfaces 12
9 0 0 0 0 1 10 2 35 2 5 -5 -45 -20.125  -5.0000000000000755 -40.557046227993766 -20.125000000000171  -4.9999999999997033 -36.057436133242334 -20.374778540588558  -5.0000000000005711 -31.539483242504218 -20.835772254634161  -4.9999999999992415 -27.041495651169001 -21.46935661628379  -5.000000000000731 -22.601764086257262 -22.236860141748352  -4.999999999999492 -18.258549969378389 -23.099578590015842  -5.0000000000002283 -14.050073479748605 -24.018789163658141  -4.9999999999999423 -10.014501617139869 -24.95576470953953  -5.0000000000000435 -3.2670123948403185 -26.571858609904361  -4.9999999999999662 2.7053473870112934 -28.002300941303226  -5.0000000000001323 5.1295425172555404 -28.569798771463571  -4.9999999999997513 7.3768746513503451 -29.068155930532704  -5.0000000000002887 9.4237561478227061 -29.479175709932854  -4.9999999999998153 11.260102651197212 -29.787194702275894  -5.0000000000000266 12.870682348013947 -29.973885502336241  -5.0000000000000533 14.228210387955444 -30.019946407101322  -4.9999999999999041 15.886453431333249 -29.8630569351844  -5.0000000000001377 16.942714828349903 -29.280371259426964  -4.9999999999992815 17.223726032567214 -29.033158515553826  -5.0000000000013411 17.443615100013208 -28.736559414616835  -4.9999999999984901 17.55476191398418 -28.339910038451759  -5.0000000000011555 17.571127003933611 -27.960193124645816  -4.9999999999994289 17.520256372686745 -27.500743415706616  -5.0000000000001403 17.378899030064993 -26.999410672044402  -4.9999999999999032 16.928289788891327 -25.883163435242089  -5.0000000000000533 16.128968168780087 -24.533252425188945  -4.9999999999998588 15.640104381107804 -23.796833609507743  -5.0000000000003393 15.05985909490474 -22.996302877993138  -4.9999999999994609 14.385994570875637 -22.129249319565986  -5.0000000000005507 13.616278071215259 -21.193380118483891  -4.9999999999995861 12.748515879373185 -20.186442424614057  -5.0000000000002229 11.780557120150188 -19.106186693107055  -4.9999999999999334 10.710267379657679 -17.950371493074776  -5 9.5354721255422117 -16.716809785614196  
5 -45 -20.125  5.0000000000000755 -40.557046227993773 -20.125000000000163  4.9999999999997033 -36.057436133242305 -20.374778540588569  5.0000000000005711 -31.539483242504268 -20.835772254634122  4.9999999999992415 -27.041495651168937 -21.469356616283864  5.000000000000731 -22.60176408625734 -22.236860141748274  4.999999999999492 -18.258549969378294 -23.099578590015867  5.0000000000002283 -14.050073479748692 -24.018789163658155  4.9999999999999423 -10.014501617139807 -24.955764709539505  5.0000000000000435 -3.2670123948404193 -26.57185860990441  4.9999999999999662 2.7053473870114306 -28.002300941303158  5.0000000000001323 5.1295425172549498 -28.569798771463727  4.9999999999997513 7.3768746513514962 -29.068155930532384  5.0000000000002887 9.4237561478213525 -29.479175709933372  4.9999999999998153 11.260102651198251 -29.787194702275215  5.0000000000000266 12.870682348013448 -29.973885502336778  5.0000000000000533 14.228210387955615 -30.019946407101052  4.9999999999999041 15.886453431333104 -29.863056935184598  5.0000000000001377 16.942714828350024 -29.280371259426822  4.9999999999992815 17.223726032566663 -29.033158515554483  5.0000000000013411 17.44361510001416 -28.736559414615392  4.9999999999984901 17.55476191398305 -28.339910038453752  5.0000000000011555 17.571127003934492 -27.960193124643997  4.9999999999994289 17.520256372686276 -27.500743415707625  5.0000000000001403 17.378899030065107 -26.999410672044192  4.9999999999999032 16.928289788891231 -25.883163435242146  5.0000000000000533 16.128968168780151 -24.533252425189083  4.9999999999998588 15.640104381107664 -23.796833609506908  5.0000000000003393 15.059859094904866 -22.996302877994939  4.9999999999994609 14.385994570875615 -22.129249319563492  5.0000000000005507 13.616278071215168 -21.193380118486392  4.9999999999995861 12.748515879373247 -20.18644242461227  5.0000000000002229 11.780557120150167 -19.106186693107919  4.9999999999999334 10.710267379657671 -17.950371493074559  5 9.5354721255422081 -16.716809785614203  

0 2
10 2

0 11
0.3954914144540066 8
0.69774570722700324 8
0.84887285361350162 8
1 11

1 -5 -2.7641751114377846 -24.840004575236364 1 6.8600271146999056e-17 -5.4192478019127486e-17 -4.5778134852972244e-17 -0.11721219859052062 -0.99310689278726505 -7.4479421618850501e-17 0.99310689278726505 -0.11721219859052062 
1 5 -2.7641751114377833 -24.84000457523636 -1 6.8600271146998958e-17 -5.4192478019127578e-17 -4.5778134852972343e-17 0.11721219859052058 0.99310689278726505 7.4479421618850415e-17 0.99310689278726505 -0.11721219859052058 
9 0 0 0 0 1 10 2 11 2 2 -5 9.5354721255421993 -16.716809785614174  -5.0000000000001412 1.7907394360980877 -8.5846645060432589  -4.9999999999994342 -3.6419439167039744 1.773812974181761  -5.0000000000012097 -6.8137633152234836 13.579700169212682  -4.9999999999981828 -7.7724089912452454 26.062779150466046  -5.0000000000020366 -6.554018552127534 38.388093061682248  -4.9999999999982929 -3.2608722584239227 49.859355318366184  -5.0000000000010258 2.1449779935596607 59.589761276158839  -4.9999999999995879 9.4912185255142898 66.848300045305947  -5.0000000000000941 18.79041216784114 70.875000000001307  -5 29.999999999999993 70.875  
5 9.5354721255422028 -16.716809785614174  5.0000000000001412 1.7907394360981101 -8.5846645060432589  4.9999999999994342 -3.6419439167040628 1.773812974181761  5.0000000000012097 -6.8137633152232517 13.579700169212682  4.9999999999981828 -7.7724089912456193 26.062779150466046  5.0000000000020366 -6.5540185521271219 38.388093061682248  4.9999999999982929 -3.2608722584242438 49.859355318366184  5.0000000000010258 2.1449779935598294 59.589761276158839  4.9999999999995879 9.4912185255142454 66.848300045305947  5.0000000000000941 18.79041216784114 70.875000000001307  5 29.999999999999993 70.875  

0 2
10 2

0 11
1 11

1 5 -2.7641751114377833 -24.84000457523636 -1 6.8600271146998958e-17 -5.4192478019127578e-17 -4.5778134852972343e-17 0.11721219859052058 0.99310689278726505 7.4479421618850415e-17 0.99310689278726505 -0.11721219859052058 
9 0 0 0 0 1 10 2 35 2 5 5 -45 -19.874999999999996  5.0000000000000755 -40.544396946791004 -19.87500000000054  4.9999999999997033 -36.034195509924167 -20.125489670875716  5.0000000000005711 -31.507437194830491 -20.587541860907471  4.9999999999992415 -27.002168938309609 -21.222290577049375  5.000000000000731 -22.556455045529624 -21.990916784277427  4.999999999999492 -18.208389127071783 -22.854634204677129  5.0000000000002283 -13.996106035908243 -23.77467511686665  4.9999999999999423 -9.9577938044567951 -24.712276155078332  5.0000000000000435 -3.2076178577082972 -26.329013553914361  4.9999999999999662 2.7626885951242324 -27.758964091640273  5.0000000000001323 5.1860195071133379 -28.326072213038238  4.9999999999997513 7.4262495366142343 -28.823251927283845  5.0000000000002887 9.472882846151748 -29.234109603668472  4.9999999999998153 11.301920312248193 -29.539718310327885  5.0000000000000266 12.894510269410091 -29.723815113188099  5.0000000000000533 14.243854089009082 -29.771111376012161  4.9999999999999041 15.850346924848219 -29.600005437379682  5.0000000000001377 16.788775714277794 -29.074820696342798  4.9999999999992815 17.027284615913587 -28.86176673039375  5.0000000000013411 17.177278596519987 -28.602798758245221  4.9999999999984901 17.282117337867763 -28.344256905578959  5.0000000000011555 17.323579875723478 -27.964834642496221  4.9999999999994289 17.269859772304777 -27.556873433986759  5.0000000000001403 17.139947582984547 -27.078199727296312  4.9999999999999032 16.706139295920529 -26.00059541270295  5.0000000000000533 15.920244719649354 -24.671682400381702  4.9999999999998588 15.437040307218551 -23.943122294714712  5.0000000000003393 14.861496856557705 -23.148783402332363  4.9999999999994609 14.191591672052935 -22.286752841860842  5.0000000000005507 13.42529705669957 -21.354999636697784  4.9999999999995861 12.560546292114367 -20.351452844496411  5.0000000000002229 11.595229818681227 -19.274038217754686  4.9999999999999334 10.527221615386511 -18.120673394915926  5 9.3544357797297586 -16.889221622489956  
-5 -45 -19.874999999999996  -5.0000000000000755 -40.544396946791004 -19.87500000000054  -4.9999999999997033 -36.034195509924167 -20.125489670875712  -5.0000000000005711 -31.507437194830491 -20.587541860907479  -4.9999999999992415 -27.002168938309609 -21.222290577049339  -5.000000000000731 -22.556455045529603 -21.990916784277513  -4.999999999999492 -18.208389127071836 -22.854634204677051  -5.0000000000002283 -13.996106035908189 -23.7746751168667  -4.9999999999999423 -9.9577938044568306 -24.712276155078303  -5.0000000000000435 -3.2076178577082382 -26.329013553914415  -4.9999999999999662 2.762688595124152 -27.758964091640202  -5.0000000000001323 5.1860195071137714 -28.326072213038657  -4.9999999999997513 7.4262495366132137 -28.823251927283014  -5.0000000000002887 9.4728828461532224 -29.234109603669499  -4.9999999999998153 11.301920312246748 -29.539718310326993  -5.0000000000000266 12.894510269411015 -29.723815113188667  -5.0000000000000533 14.243854089008732 -29.771111376011977  -4.9999999999999041 15.850346924848438 -29.600005437379757  -5.0000000000001377 16.788775714277712 -29.074820696342812  -4.9999999999992815 17.027284615913754 -28.861766730393363  -5.0000000000013411 17.177278596519795 -28.602798758246255  -4.9999999999984901 17.282117337867845 -28.344256905577478  -5.0000000000011555 17.323579875723617 -27.964834642497575  -4.9999999999994289 17.269859772304606 -27.556873433985963  -5.0000000000001403 17.139947582984615 -27.078199727296514  -4.9999999999999032 16.706139295920487 -26.000595412702843  -5.0000000000000533 15.9202447196494 -24.671682400381723  -4.9999999999998588 15.437040307218442 -23.94312229471479  -5.0000000000003393 14.861496856557945 -23.148783402332331  -4.9999999999994609 14.191591672052619 -22.286752841860544  -5.0000000000005507 13.425297056699854 -21.354999636698373  -4.9999999999995861 12.560546292114239 -20.351452844495903  -5.0000000000002229 11.595229818681261 -19.274038217754882  -4.9999999999999334 10.527221615386519 -18.120673394915894  -5 9.3544357797297639 -16.889221622489949  

0 2
10 2

0 11
0.3954914144540066 8
0.69774570722700324 8
0.84887285361350162 8
1 11

9 0 0 0 0 1 10 2 11 2 2 5 9.354435779729755 -16.889221622489949  5.0000000000001412 1.565353758154989 -8.7105085365925081  4.9999999999994342 -3.8911871444039483 1.69967072452674  5.0000000000012097 -7.0686543064214833 13.552709653753709  4.9999999999981828 -8.0240102569370446 26.051297186544822  5.0000000000020366 -6.8257701494294247 38.462861186337072  4.9999999999982929 -3.4763064841708622 49.916159244368998  5.0000000000010258 1.8817798743128049 59.730467012228225  4.9999999999995879 9.3161498434995735 67.069266386472691  5.0000000000000941 18.709587832158903 71.125000000000185  5 29.999999999999989 71.125  
-5 9.354435779729755 -16.889221622489949  -5.0000000000001412 1.5653537581550412 -8.7105085365925081  -4.9999999999994342 -3.8911871444041246 1.69967072452674  -5.0000000000012097 -7.0686543064211218 13.552709653753709  -4.9999999999981828 -8.0240102569375669 26.051297186544822  -5.0000000000020366 -6.8257701494288829 38.462861186337072  -4.9999999999982929 -3.4763064841712539 49.916159244368998  -5.0000000000010258 1.8817798743129899 59.730467012228225  -4.9999999999995879 9.3161498434995291 67.069266386472691  -5.0000000000000941 18.709587832158903 71.125000000000185  -5 29.999999999999989 71.125  

0 2
10 2

0 11
1 11

1 5 5.4597964596859843 33.215064035023786 -1 4.4775542516214323e-18 3.1647052579614142e-17 1.9034708448297143e-18 -0.98003871358987382 0.19880673998912932 3.1905504662925466e-17 0.19880673998912932 0.98003871358987382 
1 -5 -2.7641751114377846 -24.840004575236364 1 6.8600271146999056e-17 -5.4192478019127486e-17 -4.5778134852972244e-17 -0.11721219859052062 -0.99310689278726505 -7.4479421618850501e-17 0.99310689278726505 -0.11721219859052062 
1 -5 5.4597964596859843 33.215064035023786 1 4.4775542516214369e-18 3.1647052579614155e-17 1.9034708448297143e-18 0.98003871358987382 -0.19880673998912937 -3.1905504662925478e-17 0.19880673998912937 0.98003871358987382 
1 0 -45 -20 -0 -1 -0 0 0 -1 1 -0 0 
1 0 29.999999999999989 71 -0 -1 -1.4210854715202001e-14 0 1.4210854715202001e-14 -1 1 -0 0 
Triangulations 0

TShapes 48
Ve
7.64860044183323e-05
-5 -45 -20.125
0 0

0101101
*
Ve
7.64860044166367e-05
-5 9.53547212554221 -16.7168097856142
0 0

0101101
*
Ed
 1e-07 1 1 0
1  1 0 0 1
2  1 1 0 0 1
2  2 2 0 0 1
0

0101000
+48 0 -47 0 *
Ve
7.64860044068078e-05
5 -45 -20.125
0 0

0101101
*
Ed
 1e-07 1 1 0
1  2 0 0 10
2  3 1 0 0 10
0

0101000
+48 0 -45 0 *
Ve
7.6486004417794e-05
5 9.5354721255422 -16.7168097856142
0 0

0101101
*
Ed
 1e-07 1 1 0
1  3 0 0 1
2  4 1 0 0 1
2  5 3 0 0 1
0

0101000
+45 0 -43 0 *
Ed
 1e-07 1 1 0
1  4 0 0 10
2  6 1 0 0 10
2  7 4 0 0 10
4 G1 4 0 1 0
0

0101000
+47 0 -43 0 *
Wi

0101100
-46 0 +44 0 +42 0 -41 0 *
Fa
0  1e-07 1 0

0101000
+40 0 *
Ve
7.64860044203599e-05
5 -45 -19.875
0 0

0101101
*
Ed
 1e-07 1 1 0
1  5 0 0 0.25
2  8 3 0 0 0.25
0

0101000
+45 0 -38 0 *
Ve
7.64860044296328e-05
5 9.35443577972976 -16.8892216224899
0 0

0101101
*
Ed
 1e-07 1 1 0
1  6 0 0 1
2  9 6 0 0 1
2  10 3 0 0 1
0

0101000
+38 0 -36 0 *
Ve
8.82991185714656e-05
5 30 71.125
0 0

0101101
*
Ed
 1e-07 1 1 0
1  7 0 0 1
2  11 7 0 0 1
2  12 8 0 0 1
0

0101000
+36 0 -34 0 *
Ve
8.82991185480786e-05
5 30 70.875
0 0

0101101
*
Ed
 1e-07 1 1 0
1  8 0 0 0.25
2  13 8 0 0 0.25
0

0101000
+32 0 -34 0 *
Ed
 1e-07 1 1 0
1  9 0 0 1
2  14 4 0 0 1
2  15 8 0 0 1
0

0101000
+43 0 -32 0 *
Wi

0101100
-42 0 +37 0 +35 0 +33 0 -31 0 -30 0 *
Fa
0  0 5 0

0101000
+29 0 *
Ve
7.64860044204611e-05
-5 -45 -19.875
0 0

0101101
*
Ed
 1e-07 1 1 0
1  10 0 0 10
2  16 6 0 0 10
0

0101000
+38 0 -27 0 *
Ve
7.64860044288402e-05
-5 9.35443577972976 -16.8892216224899
0 0

0101101
*
Ed
 1e-07 1 1 0
1  11 0 0 1
2  17 6 0 0 1
2  18 2 0 0 1
0

0101000
+27 0 -25 0 *
Ed
 1e-07 1 1 0
1  12 0 0 10
2  19 6 0 0 10
2  20 7 0 0 10
4 G1 7 0 6 0
0

0101000
+36 0 -25 0 *
Wi

0101100
-35 0 +26 0 +24 0 -23 0 *
Fa
0  1e-07 6 0

0101000
+22 0 *
Ed
 1e-07 1 1 0
1  13 0 0 0.25
2  21 2 0 0 0.25
0

0101000
+27 0 -48 0 *
Ve
8.82991185714656e-05
-5 30 70.875
0 0

0101101
*
Ed
 1e-07 1 1 0
1  14 0 0 1
2  22 4 0 0 1
2  23 10 0 0 1
0

0101000
+47 0 -19 0 *
Ve
8.82991185715669e-05
-5 30 71.125
0 0

0101101
*
Ed
 1e-07 1 1 0
1  15 0 0 0.25
2  24 10 0 0 0.25
0

0101000
+17 0 -19 0 *
Ed
 1e-07 1 1 0
1  16 0 0 1
2  25 7 0 0 1
2  26 10 0 0 1
0

0101000
+25 0 -17 0 *
Wi

0101100
-24 0 +20 0 +46 0 +18 0 -16 0 -15 0 *
Fa
0  0 9 0

0101000
+14 0 *
Ed
 1e-07 1 1 0
1  17 0 0 10
2  27 4 0 0 10
0

0101000
+19 0 -32 0 *
Wi

0101100
-18 0 +41 0 +30 0 -12 0 *
Fa
0  1e-07 4 0

0101000
+11 0 *
Ed
 1e-07 1 1 0
1  18 0 0 10
2  28 7 0 0 10
0

0101000
+34 0 -17 0 *
Wi

0101100
-33 0 +23 0 +15 0 -9 0 *
Fa
0  1e-07 7 0

0101000
+8 0 *
Wi

0101100
+44 0 +37 0 +26 0 +20 0 *
Fa
0  1e-07 11 0

0101000
+6 0 *
Wi

0101100
+12 0 +31 0 +9 0 +16 0 *
Fa
0  1e-07 12 0

0101000
+4 0 *
Sh

0101100
+39 0 +28 0 +21 0 +13 0 +10 0 +7 0 -5 0 +3 0 *
So

1100000
-2 0 *

+1 0 